<svg width="104" height="150" viewBox="0 0 104 150" fill="none" xmlns="http://www.w3.org/2000/svg">
<path d="M41.7714 1C39.1265 1 37.0694 3.05714 37.0694 5.70204C37.0694 8.34694 39.1265 10.4041 41.7714 10.4041C44.4163 10.4041 46.4735 8.34694 46.4735 5.70204C46.4735 3.05714 44.4163 1 41.7714 1Z" fill="#E6D4FF"/>
<path d="M36.6775 11.9714C34.9143 11.9714 33.5428 13.3429 33.5428 15.1061V29.2122C33.5428 30.0939 34.2286 30.7796 35.1102 30.7796C35.2461 30.7796 35.3773 30.7633 35.502 30.7325L35.502 46.2571C35.502 47.8 36.702 49 38.2449 49C39.7877 49 40.9877 47.8 40.9877 46.2571L40.9877 28.4286C40.9877 27.9878 41.3306 27.6449 41.7714 27.6449C42.2122 27.6449 42.5551 27.9878 42.5551 28.4286V46.2571C42.5551 47.8 43.7551 49 45.2979 49C46.8408 49 48.0408 47.8 48.0408 46.2571L48.0408 30.7325C48.1656 30.7633 48.2968 30.7796 48.4326 30.7796C49.3143 30.7796 50 30.0939 50 29.2122V15.1061C50 13.3429 48.6286 11.9714 46.8653 11.9714H36.6775Z" fill="#E6D4FF"/>
<path d="M41.7714 1C39.1265 1 37.0694 3.05714 37.0694 5.70204C37.0694 8.34694 39.1265 10.4041 41.7714 10.4041C44.4163 10.4041 46.4735 8.34694 46.4735 5.70204C46.4735 3.05714 44.4163 1 41.7714 1Z" stroke="#340566" stroke-width="0.5" stroke-linecap="round" stroke-linejoin="round"/>
<path d="M36.6775 11.9714C34.9143 11.9714 33.5428 13.3429 33.5428 15.1061V29.2122C33.5428 30.0939 34.2286 30.7796 35.1102 30.7796C35.2461 30.7796 35.3773 30.7633 35.502 30.7325L35.502 46.2571C35.502 47.8 36.702 49 38.2449 49C39.7877 49 40.9877 47.8 40.9877 46.2571L40.9877 28.4286C40.9877 27.9878 41.3306 27.6449 41.7714 27.6449C42.2122 27.6449 42.5551 27.9878 42.5551 28.4286V46.2571C42.5551 47.8 43.7551 49 45.2979 49C46.8408 49 48.0408 47.8 48.0408 46.2571L48.0408 30.7325C48.1656 30.7633 48.2968 30.7796 48.4326 30.7796C49.3143 30.7796 50 30.0939 50 29.2122V15.1061C50 13.3429 48.6286 11.9714 46.8653 11.9714H36.6775Z" stroke="#340566" stroke-width="0.5" stroke-linecap="round" stroke-linejoin="round"/>
<path d="M62.2286 1C59.5837 1 57.5265 3.05714 57.5265 5.70204C57.5265 8.34694 59.5837 10.4041 62.2286 10.4041C64.8735 10.4041 66.9306 8.34694 66.9306 5.70204C66.9306 3.05714 64.8735 1 62.2286 1Z" fill="#E6D4FF"/>
<path d="M57.1347 11.9714C55.3714 11.9714 54 13.3429 54 15.1061V29.2122C54 30.0939 54.6857 30.7796 55.5673 30.7796C55.7032 30.7796 55.8344 30.7633 55.9592 30.7325L55.9592 46.2571C55.9592 47.8 57.1592 49 58.702 49C60.2449 49 61.4449 47.8 61.4449 46.2571L61.4449 28.4286C61.4449 27.9878 61.7878 27.6449 62.2286 27.6449C62.6694 27.6449 63.0122 27.9878 63.0122 28.4286V46.2571C63.0122 47.8 64.2122 49 65.7551 49C67.298 49 68.498 47.8 68.498 46.2571L68.498 30.7325C68.6227 30.7633 68.7539 30.7796 68.8898 30.7796C69.7714 30.7796 70.4571 30.0939 70.4571 29.2122V15.1061C70.4571 13.3429 69.0857 11.9714 67.3224 11.9714H57.1347Z" fill="#E6D4FF"/>
<path d="M62.2286 1C59.5837 1 57.5265 3.05714 57.5265 5.70204C57.5265 8.34694 59.5837 10.4041 62.2286 10.4041C64.8735 10.4041 66.9306 8.34694 66.9306 5.70204C66.9306 3.05714 64.8735 1 62.2286 1Z" stroke="#340566" stroke-width="0.5" stroke-linecap="round" stroke-linejoin="round"/>
<path d="M57.1347 11.9714C55.3714 11.9714 54 13.3429 54 15.1061V29.2122C54 30.0939 54.6857 30.7796 55.5673 30.7796C55.7032 30.7796 55.8344 30.7633 55.9592 30.7325L55.9592 46.2571C55.9592 47.8 57.1592 49 58.702 49C60.2449 49 61.4449 47.8 61.4449 46.2571L61.4449 28.4286C61.4449 27.9878 61.7878 27.6449 62.2286 27.6449C62.6694 27.6449 63.0122 27.9878 63.0122 28.4286V46.2571C63.0122 47.8 64.2122 49 65.7551 49C67.298 49 68.498 47.8 68.498 46.2571L68.498 30.7325C68.6227 30.7633 68.7539 30.7796 68.8898 30.7796C69.7714 30.7796 70.4571 30.0939 70.4571 29.2122V15.1061C70.4571 13.3429 69.0857 11.9714 67.3224 11.9714H57.1347Z" stroke="#340566" stroke-width="0.5" stroke-linecap="round" stroke-linejoin="round"/>
<path d="M31.5429 21C28.898 21 26.8408 23.0571 26.8408 25.702C26.8408 28.3469 28.898 30.4041 31.5429 30.4041C34.1878 30.4041 36.2449 28.3469 36.2449 25.702C36.2449 23.0571 34.1878 21 31.5429 21Z" fill="#E6D4FF"/>
<path d="M26.449 31.9714C24.6857 31.9714 23.3143 33.3429 23.3143 35.1061V49.2122C23.3143 50.0939 24 50.7796 24.8816 50.7796C25.0175 50.7796 25.1487 50.7633 25.2735 50.7325L25.2735 66.2571C25.2735 67.8 26.4735 69 28.0163 69C29.5592 69 30.7592 67.8 30.7592 66.2571L30.7592 48.4286C30.7592 47.9878 31.102 47.6449 31.5429 47.6449C31.9837 47.6449 32.3265 47.9878 32.3265 48.4286V66.2571C32.3265 67.8 33.5265 69 35.0694 69C36.6122 69 37.8122 67.8 37.8122 66.2571L37.8122 50.7325C37.937 50.7633 38.0682 50.7796 38.2041 50.7796C39.0857 50.7796 39.7714 50.0939 39.7714 49.2122V35.1061C39.7714 33.3429 38.4 31.9714 36.6367 31.9714H26.449Z" fill="#E6D4FF"/>
<path d="M31.5429 21C28.898 21 26.8408 23.0571 26.8408 25.702C26.8408 28.3469 28.898 30.4041 31.5429 30.4041C34.1878 30.4041 36.2449 28.3469 36.2449 25.702C36.2449 23.0571 34.1878 21 31.5429 21Z" stroke="#340566" stroke-width="0.5" stroke-linecap="round" stroke-linejoin="round"/>
<path d="M26.449 31.9714C24.6857 31.9714 23.3143 33.3429 23.3143 35.1061V49.2122C23.3143 50.0939 24 50.7796 24.8816 50.7796C25.0175 50.7796 25.1487 50.7633 25.2735 50.7325L25.2735 66.2571C25.2735 67.8 26.4735 69 28.0163 69C29.5592 69 30.7592 67.8 30.7592 66.2571L30.7592 48.4286C30.7592 47.9878 31.102 47.6449 31.5429 47.6449C31.9837 47.6449 32.3265 47.9878 32.3265 48.4286V66.2571C32.3265 67.8 33.5265 69 35.0694 69C36.6122 69 37.8122 67.8 37.8122 66.2571L37.8122 50.7325C37.937 50.7633 38.0682 50.7796 38.2041 50.7796C39.0857 50.7796 39.7714 50.0939 39.7714 49.2122V35.1061C39.7714 33.3429 38.4 31.9714 36.6367 31.9714H26.449Z" stroke="#340566" stroke-width="0.5" stroke-linecap="round" stroke-linejoin="round"/>
<path d="M52 21C49.3551 21 47.298 23.0571 47.298 25.702C47.298 28.3469 49.3551 30.4041 52 30.4041C54.6449 30.4041 56.702 28.3469 56.702 25.702C56.702 23.0571 54.6449 21 52 21Z" fill="#E6D4FF"/>
<path d="M46.9061 31.9714C45.1429 31.9714 43.7714 33.3429 43.7714 35.1061V49.2122C43.7714 50.0939 44.4571 50.7796 45.3388 50.7796C45.4746 50.7796 45.6058 50.7633 45.7306 50.7325L45.7306 66.2571C45.7306 67.8 46.9306 69 48.4735 69C50.0163 69 51.2163 67.8 51.2163 66.2571L51.2163 48.4286C51.2163 47.9878 51.5592 47.6449 52 47.6449C52.4408 47.6449 52.7837 47.9878 52.7837 48.4286V66.2571C52.7837 67.8 53.9837 69 55.5265 69C57.0694 69 58.2694 67.8 58.2694 66.2571L58.2694 50.7325C58.3941 50.7633 58.5254 50.7796 58.6612 50.7796C59.5429 50.7796 60.2286 50.0939 60.2286 49.2122V35.1061C60.2286 33.3429 58.8571 31.9714 57.0939 31.9714H46.9061Z" fill="#E6D4FF"/>
<path d="M52 21C49.3551 21 47.298 23.0571 47.298 25.702C47.298 28.3469 49.3551 30.4041 52 30.4041C54.6449 30.4041 56.702 28.3469 56.702 25.702C56.702 23.0571 54.6449 21 52 21Z" stroke="#340566" stroke-width="0.5" stroke-linecap="round" stroke-linejoin="round"/>
<path d="M46.9061 31.9714C45.1429 31.9714 43.7714 33.3429 43.7714 35.1061V49.2122C43.7714 50.0939 44.4571 50.7796 45.3388 50.7796C45.4746 50.7796 45.6058 50.7633 45.7306 50.7325L45.7306 66.2571C45.7306 67.8 46.9306 69 48.4735 69C50.0163 69 51.2163 67.8 51.2163 66.2571L51.2163 48.4286C51.2163 47.9878 51.5592 47.6449 52 47.6449C52.4408 47.6449 52.7837 47.9878 52.7837 48.4286V66.2571C52.7837 67.8 53.9837 69 55.5265 69C57.0694 69 58.2694 67.8 58.2694 66.2571L58.2694 50.7325C58.3941 50.7633 58.5254 50.7796 58.6612 50.7796C59.5429 50.7796 60.2286 50.0939 60.2286 49.2122V35.1061C60.2286 33.3429 58.8571 31.9714 57.0939 31.9714H46.9061Z" stroke="#340566" stroke-width="0.5" stroke-linecap="round" stroke-linejoin="round"/>
<path d="M72.4571 21C69.8123 21 67.7551 23.0571 67.7551 25.702C67.7551 28.3469 69.8123 30.4041 72.4571 30.4041C75.102 30.4041 77.1592 28.3469 77.1592 25.702C77.1592 23.0571 75.102 21 72.4571 21Z" fill="#E6D4FF"/>
<path d="M67.3633 31.9714C65.6 31.9714 64.2286 33.3429 64.2286 35.1061V49.2122C64.2286 50.0939 64.9143 50.7796 65.7959 50.7796C65.9318 50.7796 66.063 50.7633 66.1878 50.7325L66.1878 66.2571C66.1878 67.8 67.3878 69 68.9306 69C70.4735 69 71.6735 67.8 71.6735 66.2571L71.6735 48.4286C71.6735 47.9878 72.0163 47.6449 72.4571 47.6449C72.898 47.6449 73.2408 47.9878 73.2408 48.4286V66.2571C73.2408 67.8 74.4408 69 75.9837 69C77.5265 69 78.7265 67.8 78.7265 66.2571L78.7265 50.7325C78.8513 50.7633 78.9825 50.7796 79.1184 50.7796C80 50.7796 80.6857 50.0939 80.6857 49.2122V35.1061C80.6857 33.3429 79.3143 31.9714 77.551 31.9714H67.3633Z" fill="#E6D4FF"/>
<path d="M72.4571 21C69.8123 21 67.7551 23.0571 67.7551 25.702C67.7551 28.3469 69.8123 30.4041 72.4571 30.4041C75.102 30.4041 77.1592 28.3469 77.1592 25.702C77.1592 23.0571 75.102 21 72.4571 21Z" stroke="#340566" stroke-width="0.5" stroke-linecap="round" stroke-linejoin="round"/>
<path d="M67.3633 31.9714C65.6 31.9714 64.2286 33.3429 64.2286 35.1061V49.2122C64.2286 50.0939 64.9143 50.7796 65.7959 50.7796C65.9318 50.7796 66.063 50.7633 66.1878 50.7325L66.1878 66.2571C66.1878 67.8 67.3878 69 68.9306 69C70.4735 69 71.6735 67.8 71.6735 66.2571L71.6735 48.4286C71.6735 47.9878 72.0163 47.6449 72.4571 47.6449C72.898 47.6449 73.2408 47.9878 73.2408 48.4286V66.2571C73.2408 67.8 74.4408 69 75.9837 69C77.5265 69 78.7265 67.8 78.7265 66.2571L78.7265 50.7325C78.8513 50.7633 78.9825 50.7796 79.1184 50.7796C80 50.7796 80.6857 50.0939 80.6857 49.2122V35.1061C80.6857 33.3429 79.3143 31.9714 77.551 31.9714H67.3633Z" stroke="#340566" stroke-width="0.5" stroke-linecap="round" stroke-linejoin="round"/>
<path d="M21.3143 41C18.6694 41 16.6122 43.0571 16.6122 45.702C16.6122 48.3469 18.6694 50.4041 21.3143 50.4041C23.9592 50.4041 26.0163 48.3469 26.0163 45.702C26.0163 43.0571 23.9592 41 21.3143 41Z" fill="#E6D4FF"/>
<path d="M16.2204 51.9714C14.4571 51.9714 13.0857 53.3429 13.0857 55.1061V69.2122C13.0857 70.0939 13.7714 70.7796 14.6531 70.7796C14.7889 70.7796 14.9201 70.7633 15.0449 70.7325L15.0449 86.2571C15.0449 87.8 16.2449 89 17.7877 89C19.3306 89 20.5306 87.8 20.5306 86.2571L20.5306 68.4286C20.5306 67.9878 20.8735 67.6449 21.3143 67.6449C21.7551 67.6449 22.098 67.9878 22.098 68.4286V86.2571C22.098 87.8 23.298 89 24.8408 89C26.3837 89 27.5837 87.8 27.5837 86.2571L27.5837 70.7325C27.7084 70.7633 27.8396 70.7796 27.9755 70.7796C28.8571 70.7796 29.5429 70.0939 29.5429 69.2122V55.1061C29.5429 53.3429 28.1714 51.9714 26.4082 51.9714H16.2204Z" fill="#E6D4FF"/>
<path d="M21.3143 41C18.6694 41 16.6122 43.0571 16.6122 45.702C16.6122 48.3469 18.6694 50.4041 21.3143 50.4041C23.9592 50.4041 26.0163 48.3469 26.0163 45.702C26.0163 43.0571 23.9592 41 21.3143 41Z" stroke="#340566" stroke-width="0.5" stroke-linecap="round" stroke-linejoin="round"/>
<path d="M16.2204 51.9714C14.4571 51.9714 13.0857 53.3429 13.0857 55.1061V69.2122C13.0857 70.0939 13.7714 70.7796 14.6531 70.7796C14.7889 70.7796 14.9201 70.7633 15.0449 70.7325L15.0449 86.2571C15.0449 87.8 16.2449 89 17.7877 89C19.3306 89 20.5306 87.8 20.5306 86.2571L20.5306 68.4286C20.5306 67.9878 20.8735 67.6449 21.3143 67.6449C21.7551 67.6449 22.098 67.9878 22.098 68.4286V86.2571C22.098 87.8 23.298 89 24.8408 89C26.3837 89 27.5837 87.8 27.5837 86.2571L27.5837 70.7325C27.7084 70.7633 27.8396 70.7796 27.9755 70.7796C28.8571 70.7796 29.5429 70.0939 29.5429 69.2122V55.1061C29.5429 53.3429 28.1714 51.9714 26.4082 51.9714H16.2204Z" stroke="#340566" stroke-width="0.5" stroke-linecap="round" stroke-linejoin="round"/>
<path d="M41.7714 41C39.1265 41 37.0694 43.0571 37.0694 45.702C37.0694 48.3469 39.1265 50.4041 41.7714 50.4041C44.4163 50.4041 46.4735 48.3469 46.4735 45.702C46.4735 43.0571 44.4163 41 41.7714 41Z" fill="#E6D4FF"/>
<path d="M36.6775 51.9714C34.9143 51.9714 33.5428 53.3429 33.5428 55.1061V69.2122C33.5428 70.0939 34.2286 70.7796 35.1102 70.7796C35.2461 70.7796 35.3773 70.7633 35.502 70.7325L35.502 86.2571C35.502 87.8 36.702 89 38.2449 89C39.7877 89 40.9877 87.8 40.9877 86.2571L40.9877 68.4286C40.9877 67.9878 41.3306 67.6449 41.7714 67.6449C42.2122 67.6449 42.5551 67.9878 42.5551 68.4286V86.2571C42.5551 87.8 43.7551 89 45.2979 89C46.8408 89 48.0408 87.8 48.0408 86.2571L48.0408 70.7325C48.1656 70.7633 48.2968 70.7796 48.4326 70.7796C49.3143 70.7796 50 70.0939 50 69.2122V55.1061C50 53.3429 48.6286 51.9714 46.8653 51.9714H36.6775Z" fill="#E6D4FF"/>
<path d="M41.7714 41C39.1265 41 37.0694 43.0571 37.0694 45.702C37.0694 48.3469 39.1265 50.4041 41.7714 50.4041C44.4163 50.4041 46.4735 48.3469 46.4735 45.702C46.4735 43.0571 44.4163 41 41.7714 41Z" stroke="#340566" stroke-width="0.5" stroke-linecap="round" stroke-linejoin="round"/>
<path d="M36.6775 51.9714C34.9143 51.9714 33.5428 53.3429 33.5428 55.1061V69.2122C33.5428 70.0939 34.2286 70.7796 35.1102 70.7796C35.2461 70.7796 35.3773 70.7633 35.502 70.7325L35.502 86.2571C35.502 87.8 36.702 89 38.2449 89C39.7877 89 40.9877 87.8 40.9877 86.2571L40.9877 68.4286C40.9877 67.9878 41.3306 67.6449 41.7714 67.6449C42.2122 67.6449 42.5551 67.9878 42.5551 68.4286V86.2571C42.5551 87.8 43.7551 89 45.2979 89C46.8408 89 48.0408 87.8 48.0408 86.2571L48.0408 70.7325C48.1656 70.7633 48.2968 70.7796 48.4326 70.7796C49.3143 70.7796 50 70.0939 50 69.2122V55.1061C50 53.3429 48.6286 51.9714 46.8653 51.9714H36.6775Z" stroke="#340566" stroke-width="0.5" stroke-linecap="round" stroke-linejoin="round"/>
<path d="M62.2286 41C59.5837 41 57.5265 43.0571 57.5265 45.702C57.5265 48.3469 59.5837 50.4041 62.2286 50.4041C64.8735 50.4041 66.9306 48.3469 66.9306 45.702C66.9306 43.0571 64.8735 41 62.2286 41Z" fill="#E6D4FF"/>
<path d="M57.1347 51.9714C55.3714 51.9714 54 53.3429 54 55.1061V69.2122C54 70.0939 54.6857 70.7796 55.5673 70.7796C55.7032 70.7796 55.8344 70.7633 55.9592 70.7325L55.9592 86.2571C55.9592 87.8 57.1592 89 58.702 89C60.2449 89 61.4449 87.8 61.4449 86.2571L61.4449 68.4286C61.4449 67.9878 61.7878 67.6449 62.2286 67.6449C62.6694 67.6449 63.0122 67.9878 63.0122 68.4286V86.2571C63.0122 87.8 64.2122 89 65.7551 89C67.298 89 68.498 87.8 68.498 86.2571L68.498 70.7325C68.6227 70.7633 68.7539 70.7796 68.8898 70.7796C69.7714 70.7796 70.4571 70.0939 70.4571 69.2122V55.1061C70.4571 53.3429 69.0857 51.9714 67.3224 51.9714H57.1347Z" fill="#E6D4FF"/>
<path d="M62.2286 41C59.5837 41 57.5265 43.0571 57.5265 45.702C57.5265 48.3469 59.5837 50.4041 62.2286 50.4041C64.8735 50.4041 66.9306 48.3469 66.9306 45.702C66.9306 43.0571 64.8735 41 62.2286 41Z" stroke="#340566" stroke-width="0.5" stroke-linecap="round" stroke-linejoin="round"/>
<path d="M57.1347 51.9714C55.3714 51.9714 54 53.3429 54 55.1061V69.2122C54 70.0939 54.6857 70.7796 55.5673 70.7796C55.7032 70.7796 55.8344 70.7633 55.9592 70.7325L55.9592 86.2571C55.9592 87.8 57.1592 89 58.702 89C60.2449 89 61.4449 87.8 61.4449 86.2571L61.4449 68.4286C61.4449 67.9878 61.7878 67.6449 62.2286 67.6449C62.6694 67.6449 63.0122 67.9878 63.0122 68.4286V86.2571C63.0122 87.8 64.2122 89 65.7551 89C67.298 89 68.498 87.8 68.498 86.2571L68.498 70.7325C68.6227 70.7633 68.7539 70.7796 68.8898 70.7796C69.7714 70.7796 70.4571 70.0939 70.4571 69.2122V55.1061C70.4571 53.3429 69.0857 51.9714 67.3224 51.9714H57.1347Z" stroke="#340566" stroke-width="0.5" stroke-linecap="round" stroke-linejoin="round"/>
<path d="M82.6857 41C80.0408 41 77.9837 43.0571 77.9837 45.702C77.9837 48.3469 80.0408 50.4041 82.6857 50.4041C85.3306 50.4041 87.3878 48.3469 87.3878 45.702C87.3878 43.0571 85.3306 41 82.6857 41Z" fill="#E6D4FF"/>
<path d="M77.5918 51.9714C75.8286 51.9714 74.4572 53.3429 74.4572 55.1061V69.2122C74.4572 70.0939 75.1429 70.7796 76.0245 70.7796C76.1604 70.7796 76.2916 70.7633 76.4163 70.7325L76.4163 86.2571C76.4163 87.8 77.6163 89 79.1592 89C80.7021 89 81.9021 87.8 81.9021 86.2571L81.9021 68.4286C81.9021 67.9878 82.2449 67.6449 82.6857 67.6449C83.1265 67.6449 83.4694 67.9878 83.4694 68.4286V86.2571C83.4694 87.8 84.6694 89 86.2123 89C87.7551 89 88.9551 87.8 88.9551 86.2571L88.9551 70.7325C89.0799 70.7633 89.2111 70.7796 89.3469 70.7796C90.2286 70.7796 90.9143 70.0939 90.9143 69.2122V55.1061C90.9143 53.3429 89.5429 51.9714 87.7796 51.9714H77.5918Z" fill="#E6D4FF"/>
<path d="M82.6857 41C80.0408 41 77.9837 43.0571 77.9837 45.702C77.9837 48.3469 80.0408 50.4041 82.6857 50.4041C85.3306 50.4041 87.3878 48.3469 87.3878 45.702C87.3878 43.0571 85.3306 41 82.6857 41Z" stroke="#340566" stroke-width="0.5" stroke-linecap="round" stroke-linejoin="round"/>
<path d="M77.5918 51.9714C75.8286 51.9714 74.4572 53.3429 74.4572 55.1061V69.2122C74.4572 70.0939 75.1429 70.7796 76.0245 70.7796C76.1604 70.7796 76.2916 70.7633 76.4163 70.7325L76.4163 86.2571C76.4163 87.8 77.6163 89 79.1592 89C80.7021 89 81.9021 87.8 81.9021 86.2571L81.9021 68.4286C81.9021 67.9878 82.2449 67.6449 82.6857 67.6449C83.1265 67.6449 83.4694 67.9878 83.4694 68.4286V86.2571C83.4694 87.8 84.6694 89 86.2123 89C87.7551 89 88.9551 87.8 88.9551 86.2571L88.9551 70.7325C89.0799 70.7633 89.2111 70.7796 89.3469 70.7796C90.2286 70.7796 90.9143 70.0939 90.9143 69.2122V55.1061C90.9143 53.3429 89.5429 51.9714 87.7796 51.9714H77.5918Z" stroke="#340566" stroke-width="0.5" stroke-linecap="round" stroke-linejoin="round"/>
<path d="M11.0857 61C8.44082 61 6.38368 63.0571 6.38368 65.702C6.38368 68.3469 8.44082 70.4041 11.0857 70.4041C13.7306 70.4041 15.7878 68.3469 15.7878 65.702C15.7878 63.0571 13.7306 61 11.0857 61Z" fill="#E6D4FF"/>
<path d="M5.99184 71.9714C4.22858 71.9714 2.85715 73.3429 2.85715 75.1061V89.2122C2.85715 90.0939 3.54286 90.7796 4.42449 90.7796C4.56036 90.7796 4.69157 90.7633 4.81633 90.7325L4.81633 106.257C4.81633 107.8 6.01633 109 7.55919 109C9.10205 109 10.302 107.8 10.302 106.257L10.302 88.4286C10.302 87.9878 10.6449 87.6449 11.0857 87.6449C11.5265 87.6449 11.8694 87.9878 11.8694 88.4286V106.257C11.8694 107.8 13.0694 109 14.6123 109C16.1551 109 17.3551 107.8 17.3551 106.257L17.3551 90.7325C17.4799 90.7633 17.6111 90.7796 17.7469 90.7796C18.6286 90.7796 19.3143 90.0939 19.3143 89.2122V75.1061C19.3143 73.3429 17.9429 71.9714 16.1796 71.9714H5.99184Z" fill="#E6D4FF"/>
<path d="M11.0857 61C8.44082 61 6.38368 63.0571 6.38368 65.702C6.38368 68.3469 8.44082 70.4041 11.0857 70.4041C13.7306 70.4041 15.7878 68.3469 15.7878 65.702C15.7878 63.0571 13.7306 61 11.0857 61Z" stroke="#340566" stroke-width="0.5" stroke-linecap="round" stroke-linejoin="round"/>
<path d="M5.99184 71.9714C4.22858 71.9714 2.85715 73.3429 2.85715 75.1061V89.2122C2.85715 90.0939 3.54286 90.7796 4.42449 90.7796C4.56036 90.7796 4.69157 90.7633 4.81633 90.7325L4.81633 106.257C4.81633 107.8 6.01633 109 7.55919 109C9.10205 109 10.302 107.8 10.302 106.257L10.302 88.4286C10.302 87.9878 10.6449 87.6449 11.0857 87.6449C11.5265 87.6449 11.8694 87.9878 11.8694 88.4286V106.257C11.8694 107.8 13.0694 109 14.6123 109C16.1551 109 17.3551 107.8 17.3551 106.257L17.3551 90.7325C17.4799 90.7633 17.6111 90.7796 17.7469 90.7796C18.6286 90.7796 19.3143 90.0939 19.3143 89.2122V75.1061C19.3143 73.3429 17.9429 71.9714 16.1796 71.9714H5.99184Z" stroke="#340566" stroke-width="0.5" stroke-linecap="round" stroke-linejoin="round"/>
<path d="M31.5429 61C28.898 61 26.8408 63.0571 26.8408 65.702C26.8408 68.3469 28.898 70.4041 31.5429 70.4041C34.1878 70.4041 36.2449 68.3469 36.2449 65.702C36.2449 63.0571 34.1878 61 31.5429 61Z" fill="#E6D4FF"/>
<path d="M26.449 71.9714C24.6857 71.9714 23.3143 73.3429 23.3143 75.1061V89.2122C23.3143 90.0939 24 90.7796 24.8816 90.7796C25.0175 90.7796 25.1487 90.7633 25.2735 90.7325L25.2735 106.257C25.2735 107.8 26.4735 109 28.0163 109C29.5592 109 30.7592 107.8 30.7592 106.257L30.7592 88.4286C30.7592 87.9878 31.102 87.6449 31.5429 87.6449C31.9837 87.6449 32.3265 87.9878 32.3265 88.4286V106.257C32.3265 107.8 33.5265 109 35.0694 109C36.6122 109 37.8122 107.8 37.8122 106.257L37.8122 90.7325C37.937 90.7633 38.0682 90.7796 38.2041 90.7796C39.0857 90.7796 39.7714 90.0939 39.7714 89.2122V75.1061C39.7714 73.3429 38.4 71.9714 36.6367 71.9714H26.449Z" fill="#E6D4FF"/>
<path d="M31.5429 61C28.898 61 26.8408 63.0571 26.8408 65.702C26.8408 68.3469 28.898 70.4041 31.5429 70.4041C34.1878 70.4041 36.2449 68.3469 36.2449 65.702C36.2449 63.0571 34.1878 61 31.5429 61Z" stroke="#340566" stroke-width="0.5" stroke-linecap="round" stroke-linejoin="round"/>
<path d="M26.449 71.9714C24.6857 71.9714 23.3143 73.3429 23.3143 75.1061V89.2122C23.3143 90.0939 24 90.7796 24.8816 90.7796C25.0175 90.7796 25.1487 90.7633 25.2735 90.7325L25.2735 106.257C25.2735 107.8 26.4735 109 28.0163 109C29.5592 109 30.7592 107.8 30.7592 106.257L30.7592 88.4286C30.7592 87.9878 31.102 87.6449 31.5429 87.6449C31.9837 87.6449 32.3265 87.9878 32.3265 88.4286V106.257C32.3265 107.8 33.5265 109 35.0694 109C36.6122 109 37.8122 107.8 37.8122 106.257L37.8122 90.7325C37.937 90.7633 38.0682 90.7796 38.2041 90.7796C39.0857 90.7796 39.7714 90.0939 39.7714 89.2122V75.1061C39.7714 73.3429 38.4 71.9714 36.6367 71.9714H26.449Z" stroke="#340566" stroke-width="0.5" stroke-linecap="round" stroke-linejoin="round"/>
<path d="M52 61C49.3551 61 47.298 63.0571 47.298 65.702C47.298 68.3469 49.3551 70.4041 52 70.4041C54.6449 70.4041 56.702 68.3469 56.702 65.702C56.702 63.0571 54.6449 61 52 61Z" fill="#E6D4FF"/>
<path d="M46.9061 71.9714C45.1429 71.9714 43.7714 73.3429 43.7714 75.1061V89.2122C43.7714 90.0939 44.4571 90.7796 45.3388 90.7796C45.4746 90.7796 45.6058 90.7633 45.7306 90.7325L45.7306 106.257C45.7306 107.8 46.9306 109 48.4735 109C50.0163 109 51.2163 107.8 51.2163 106.257L51.2163 88.4286C51.2163 87.9878 51.5592 87.6449 52 87.6449C52.4408 87.6449 52.7837 87.9878 52.7837 88.4286V106.257C52.7837 107.8 53.9837 109 55.5265 109C57.0694 109 58.2694 107.8 58.2694 106.257L58.2694 90.7325C58.3941 90.7633 58.5254 90.7796 58.6612 90.7796C59.5429 90.7796 60.2286 90.0939 60.2286 89.2122V75.1061C60.2286 73.3429 58.8571 71.9714 57.0939 71.9714H46.9061Z" fill="#E6D4FF"/>
<path d="M52 61C49.3551 61 47.298 63.0571 47.298 65.702C47.298 68.3469 49.3551 70.4041 52 70.4041C54.6449 70.4041 56.702 68.3469 56.702 65.702C56.702 63.0571 54.6449 61 52 61Z" stroke="#340566" stroke-width="0.5" stroke-linecap="round" stroke-linejoin="round"/>
<path d="M46.9061 71.9714C45.1429 71.9714 43.7714 73.3429 43.7714 75.1061V89.2122C43.7714 90.0939 44.4571 90.7796 45.3388 90.7796C45.4746 90.7796 45.6058 90.7633 45.7306 90.7325L45.7306 106.257C45.7306 107.8 46.9306 109 48.4735 109C50.0163 109 51.2163 107.8 51.2163 106.257L51.2163 88.4286C51.2163 87.9878 51.5592 87.6449 52 87.6449C52.4408 87.6449 52.7837 87.9878 52.7837 88.4286V106.257C52.7837 107.8 53.9837 109 55.5265 109C57.0694 109 58.2694 107.8 58.2694 106.257L58.2694 90.7325C58.3941 90.7633 58.5254 90.7796 58.6612 90.7796C59.5429 90.7796 60.2286 90.0939 60.2286 89.2122V75.1061C60.2286 73.3429 58.8571 71.9714 57.0939 71.9714H46.9061Z" stroke="#340566" stroke-width="0.5" stroke-linecap="round" stroke-linejoin="round"/>
<path d="M72.4571 61C69.8123 61 67.7551 63.0571 67.7551 65.702C67.7551 68.3469 69.8123 70.4041 72.4571 70.4041C75.102 70.4041 77.1592 68.3469 77.1592 65.702C77.1592 63.0571 75.102 61 72.4571 61Z" fill="#E6D4FF"/>
<path d="M67.3633 71.9714C65.6 71.9714 64.2286 73.3429 64.2286 75.1061V89.2122C64.2286 90.0939 64.9143 90.7796 65.7959 90.7796C65.9318 90.7796 66.063 90.7633 66.1878 90.7325L66.1878 106.257C66.1878 107.8 67.3878 109 68.9306 109C70.4735 109 71.6735 107.8 71.6735 106.257L71.6735 88.4286C71.6735 87.9878 72.0163 87.6449 72.4571 87.6449C72.898 87.6449 73.2408 87.9878 73.2408 88.4286V106.257C73.2408 107.8 74.4408 109 75.9837 109C77.5265 109 78.7265 107.8 78.7265 106.257L78.7265 90.7325C78.8513 90.7633 78.9825 90.7796 79.1184 90.7796C80 90.7796 80.6857 90.0939 80.6857 89.2122V75.1061C80.6857 73.3429 79.3143 71.9714 77.551 71.9714H67.3633Z" fill="#E6D4FF"/>
<path d="M72.4571 61C69.8123 61 67.7551 63.0571 67.7551 65.702C67.7551 68.3469 69.8123 70.4041 72.4571 70.4041C75.102 70.4041 77.1592 68.3469 77.1592 65.702C77.1592 63.0571 75.102 61 72.4571 61Z" stroke="#340566" stroke-width="0.5" stroke-linecap="round" stroke-linejoin="round"/>
<path d="M67.3633 71.9714C65.6 71.9714 64.2286 73.3429 64.2286 75.1061V89.2122C64.2286 90.0939 64.9143 90.7796 65.7959 90.7796C65.9318 90.7796 66.063 90.7633 66.1878 90.7325L66.1878 106.257C66.1878 107.8 67.3878 109 68.9306 109C70.4735 109 71.6735 107.8 71.6735 106.257L71.6735 88.4286C71.6735 87.9878 72.0163 87.6449 72.4571 87.6449C72.898 87.6449 73.2408 87.9878 73.2408 88.4286V106.257C73.2408 107.8 74.4408 109 75.9837 109C77.5265 109 78.7265 107.8 78.7265 106.257L78.7265 90.7325C78.8513 90.7633 78.9825 90.7796 79.1184 90.7796C80 90.7796 80.6857 90.0939 80.6857 89.2122V75.1061C80.6857 73.3429 79.3143 71.9714 77.551 71.9714H67.3633Z" stroke="#340566" stroke-width="0.5" stroke-linecap="round" stroke-linejoin="round"/>
<path d="M86.6449 106.257C86.6449 107.8 87.8449 109 89.3878 109C90.9306 109 92.1306 107.8 92.1306 106.257L92.1306 88.4286C92.1306 87.9878 92.4735 87.6449 92.9143 87.6449C93.3551 87.6449 93.698 87.9878 93.698 88.4286V106.257C93.698 107.8 94.898 109 96.4408 109C97.9837 109 99.1837 107.8 99.1837 106.257L99.1837 90.7325C99.3085 90.7633 99.4397 90.7796 99.5755 90.7796C100.457 90.7796 101.143 90.0939 101.143 89.2122V85H84.6857V89.2122C84.6857 90.0939 85.3714 90.7796 86.2531 90.7796C86.3889 90.7796 86.5201 90.7633 86.6449 90.7325L86.6449 106.257Z" fill="#AC6DFF"/>
<path d="M87.8204 71.9714C86.0572 71.9714 84.6857 73.3429 84.6857 75.1061V85H101.143V75.1061C101.143 73.3429 99.7714 71.9714 98.0082 71.9714H87.8204Z" fill="#E6D4FF"/>
<path d="M92.9143 61C90.2694 61 88.2123 63.0571 88.2123 65.702C88.2123 68.3469 90.2694 70.4041 92.9143 70.4041C95.5592 70.4041 97.6163 68.3469 97.6163 65.702C97.6163 63.0571 95.5592 61 92.9143 61Z" fill="#E6D4FF"/>
<path d="M84.6857 85V89.2122C84.6857 90.0939 85.3714 90.7796 86.2531 90.7796C86.3889 90.7796 86.5201 90.7633 86.6449 90.7325L86.6449 106.257C86.6449 107.8 87.8449 109 89.3878 109C90.9306 109 92.1306 107.8 92.1306 106.257L92.1306 88.4286C92.1306 87.9878 92.4735 87.6449 92.9143 87.6449C93.3551 87.6449 93.698 87.9878 93.698 88.4286V106.257C93.698 107.8 94.898 109 96.4408 109C97.9837 109 99.1837 107.8 99.1837 106.257L99.1837 90.7325C99.3085 90.7633 99.4397 90.7796 99.5755 90.7796C100.457 90.7796 101.143 90.0939 101.143 89.2122V85M84.6857 85V75.1061C84.6857 73.3429 86.0572 71.9714 87.8204 71.9714H98.0082C99.7714 71.9714 101.143 73.3429 101.143 75.1061V85M84.6857 85H101.143M92.9143 61C90.2694 61 88.2123 63.0571 88.2123 65.702C88.2123 68.3469 90.2694 70.4041 92.9143 70.4041C95.5592 70.4041 97.6163 68.3469 97.6163 65.702C97.6163 63.0571 95.5592 61 92.9143 61Z" stroke="#611EAB" stroke-width="0.5" stroke-linecap="round" stroke-linejoin="round"/>
<path d="M21.3143 81C18.6694 81 16.6122 83.0571 16.6122 85.702C16.6122 88.3469 18.6694 90.4041 21.3143 90.4041C23.9592 90.4041 26.0163 88.3469 26.0163 85.702C26.0163 83.0571 23.9592 81 21.3143 81Z" fill="#AC6DFF"/>
<path d="M16.2204 91.9714C14.4571 91.9714 13.0857 93.3429 13.0857 95.1061V109.212C13.0857 110.094 13.7714 110.78 14.6531 110.78C14.7889 110.78 14.9201 110.763 15.0449 110.733L15.0449 126.257C15.0449 127.8 16.2449 129 17.7877 129C19.3306 129 20.5306 127.8 20.5306 126.257L20.5306 108.429C20.5306 107.988 20.8735 107.645 21.3143 107.645C21.7551 107.645 22.098 107.988 22.098 108.429V126.257C22.098 127.8 23.298 129 24.8408 129C26.3837 129 27.5837 127.8 27.5837 126.257L27.5837 110.733C27.7084 110.763 27.8396 110.78 27.9755 110.78C28.8571 110.78 29.5429 110.094 29.5429 109.212V95.1061C29.5429 93.3429 28.1714 91.9714 26.4082 91.9714H16.2204Z" fill="#AC6DFF"/>
<path d="M21.3143 81C18.6694 81 16.6122 83.0571 16.6122 85.702C16.6122 88.3469 18.6694 90.4041 21.3143 90.4041C23.9592 90.4041 26.0163 88.3469 26.0163 85.702C26.0163 83.0571 23.9592 81 21.3143 81Z" stroke="#340566" stroke-width="0.5" stroke-linecap="round" stroke-linejoin="round"/>
<path d="M16.2204 91.9714C14.4571 91.9714 13.0857 93.3429 13.0857 95.1061V109.212C13.0857 110.094 13.7714 110.78 14.6531 110.78C14.7889 110.78 14.9201 110.763 15.0449 110.733L15.0449 126.257C15.0449 127.8 16.2449 129 17.7877 129C19.3306 129 20.5306 127.8 20.5306 126.257L20.5306 108.429C20.5306 107.988 20.8735 107.645 21.3143 107.645C21.7551 107.645 22.098 107.988 22.098 108.429V126.257C22.098 127.8 23.298 129 24.8408 129C26.3837 129 27.5837 127.8 27.5837 126.257L27.5837 110.733C27.7084 110.763 27.8396 110.78 27.9755 110.78C28.8571 110.78 29.5429 110.094 29.5429 109.212V95.1061C29.5429 93.3429 28.1714 91.9714 26.4082 91.9714H16.2204Z" stroke="#340566" stroke-width="0.5" stroke-linecap="round" stroke-linejoin="round"/>
<path d="M41.7714 81C39.1265 81 37.0694 83.0571 37.0694 85.702C37.0694 88.3469 39.1265 90.4041 41.7714 90.4041C44.4163 90.4041 46.4735 88.3469 46.4735 85.702C46.4735 83.0571 44.4163 81 41.7714 81Z" fill="#AC6DFF"/>
<path d="M36.6775 91.9714C34.9143 91.9714 33.5428 93.3429 33.5428 95.1061V109.212C33.5428 110.094 34.2286 110.78 35.1102 110.78C35.2461 110.78 35.3773 110.763 35.502 110.733L35.502 126.257C35.502 127.8 36.702 129 38.2449 129C39.7877 129 40.9877 127.8 40.9877 126.257L40.9877 108.429C40.9877 107.988 41.3306 107.645 41.7714 107.645C42.2122 107.645 42.5551 107.988 42.5551 108.429V126.257C42.5551 127.8 43.7551 129 45.2979 129C46.8408 129 48.0408 127.8 48.0408 126.257L48.0408 110.733C48.1656 110.763 48.2968 110.78 48.4326 110.78C49.3143 110.78 50 110.094 50 109.212V95.1061C50 93.3429 48.6286 91.9714 46.8653 91.9714H36.6775Z" fill="#AC6DFF"/>
<path d="M41.7714 81C39.1265 81 37.0694 83.0571 37.0694 85.702C37.0694 88.3469 39.1265 90.4041 41.7714 90.4041C44.4163 90.4041 46.4735 88.3469 46.4735 85.702C46.4735 83.0571 44.4163 81 41.7714 81Z" stroke="#340566" stroke-width="0.5" stroke-linecap="round" stroke-linejoin="round"/>
<path d="M36.6775 91.9714C34.9143 91.9714 33.5428 93.3429 33.5428 95.1061V109.212C33.5428 110.094 34.2286 110.78 35.1102 110.78C35.2461 110.78 35.3773 110.763 35.502 110.733L35.502 126.257C35.502 127.8 36.702 129 38.2449 129C39.7877 129 40.9877 127.8 40.9877 126.257L40.9877 108.429C40.9877 107.988 41.3306 107.645 41.7714 107.645C42.2122 107.645 42.5551 107.988 42.5551 108.429V126.257C42.5551 127.8 43.7551 129 45.2979 129C46.8408 129 48.0408 127.8 48.0408 126.257L48.0408 110.733C48.1656 110.763 48.2968 110.78 48.4326 110.78C49.3143 110.78 50 110.094 50 109.212V95.1061C50 93.3429 48.6286 91.9714 46.8653 91.9714H36.6775Z" stroke="#340566" stroke-width="0.5" stroke-linecap="round" stroke-linejoin="round"/>
<path d="M62.2286 81C59.5837 81 57.5265 83.0571 57.5265 85.702C57.5265 88.3469 59.5837 90.4041 62.2286 90.4041C64.8735 90.4041 66.9306 88.3469 66.9306 85.702C66.9306 83.0571 64.8735 81 62.2286 81Z" fill="#AC6DFF"/>
<path d="M57.1347 91.9714C55.3714 91.9714 54 93.3429 54 95.1061V109.212C54 110.094 54.6857 110.78 55.5673 110.78C55.7032 110.78 55.8344 110.763 55.9592 110.733L55.9592 126.257C55.9592 127.8 57.1592 129 58.702 129C60.2449 129 61.4449 127.8 61.4449 126.257L61.4449 108.429C61.4449 107.988 61.7878 107.645 62.2286 107.645C62.6694 107.645 63.0122 107.988 63.0122 108.429V126.257C63.0122 127.8 64.2122 129 65.7551 129C67.298 129 68.498 127.8 68.498 126.257L68.498 110.733C68.6227 110.763 68.7539 110.78 68.8898 110.78C69.7714 110.78 70.4571 110.094 70.4571 109.212V95.1061C70.4571 93.3429 69.0857 91.9714 67.3224 91.9714H57.1347Z" fill="#AC6DFF"/>
<path d="M62.2286 81C59.5837 81 57.5265 83.0571 57.5265 85.702C57.5265 88.3469 59.5837 90.4041 62.2286 90.4041C64.8735 90.4041 66.9306 88.3469 66.9306 85.702C66.9306 83.0571 64.8735 81 62.2286 81Z" stroke="#340566" stroke-width="0.5" stroke-linecap="round" stroke-linejoin="round"/>
<path d="M57.1347 91.9714C55.3714 91.9714 54 93.3429 54 95.1061V109.212C54 110.094 54.6857 110.78 55.5673 110.78C55.7032 110.78 55.8344 110.763 55.9592 110.733L55.9592 126.257C55.9592 127.8 57.1592 129 58.702 129C60.2449 129 61.4449 127.8 61.4449 126.257L61.4449 108.429C61.4449 107.988 61.7878 107.645 62.2286 107.645C62.6694 107.645 63.0122 107.988 63.0122 108.429V126.257C63.0122 127.8 64.2122 129 65.7551 129C67.298 129 68.498 127.8 68.498 126.257L68.498 110.733C68.6227 110.763 68.7539 110.78 68.8898 110.78C69.7714 110.78 70.4571 110.094 70.4571 109.212V95.1061C70.4571 93.3429 69.0857 91.9714 67.3224 91.9714H57.1347Z" stroke="#340566" stroke-width="0.5" stroke-linecap="round" stroke-linejoin="round"/>
<path d="M82.6857 81C80.0408 81 77.9837 83.0571 77.9837 85.702C77.9837 88.3469 80.0408 90.4041 82.6857 90.4041C85.3306 90.4041 87.3878 88.3469 87.3878 85.702C87.3878 83.0571 85.3306 81 82.6857 81Z" fill="#AC6DFF"/>
<path d="M77.5918 91.9714C75.8286 91.9714 74.4572 93.3429 74.4572 95.1061V109.212C74.4572 110.094 75.1429 110.78 76.0245 110.78C76.1604 110.78 76.2916 110.763 76.4163 110.733L76.4163 126.257C76.4163 127.8 77.6163 129 79.1592 129C80.7021 129 81.9021 127.8 81.9021 126.257L81.9021 108.429C81.9021 107.988 82.2449 107.645 82.6857 107.645C83.1265 107.645 83.4694 107.988 83.4694 108.429V126.257C83.4694 127.8 84.6694 129 86.2123 129C87.7551 129 88.9551 127.8 88.9551 126.257L88.9551 110.733C89.0799 110.763 89.2111 110.78 89.3469 110.78C90.2286 110.78 90.9143 110.094 90.9143 109.212V95.1061C90.9143 93.3429 89.5429 91.9714 87.7796 91.9714H77.5918Z" fill="#AC6DFF"/>
<path d="M82.6857 81C80.0408 81 77.9837 83.0571 77.9837 85.702C77.9837 88.3469 80.0408 90.4041 82.6857 90.4041C85.3306 90.4041 87.3878 88.3469 87.3878 85.702C87.3878 83.0571 85.3306 81 82.6857 81Z" stroke="#340566" stroke-width="0.5" stroke-linecap="round" stroke-linejoin="round"/>
<path d="M77.5918 91.9714C75.8286 91.9714 74.4572 93.3429 74.4572 95.1061V109.212C74.4572 110.094 75.1429 110.78 76.0245 110.78C76.1604 110.78 76.2916 110.763 76.4163 110.733L76.4163 126.257C76.4163 127.8 77.6163 129 79.1592 129C80.7021 129 81.9021 127.8 81.9021 126.257L81.9021 108.429C81.9021 107.988 82.2449 107.645 82.6857 107.645C83.1265 107.645 83.4694 107.988 83.4694 108.429V126.257C83.4694 127.8 84.6694 129 86.2123 129C87.7551 129 88.9551 127.8 88.9551 126.257L88.9551 110.733C89.0799 110.763 89.2111 110.78 89.3469 110.78C90.2286 110.78 90.9143 110.094 90.9143 109.212V95.1061C90.9143 93.3429 89.5429 91.9714 87.7796 91.9714H77.5918Z" stroke="#340566" stroke-width="0.5" stroke-linecap="round" stroke-linejoin="round"/>
<path d="M41.7714 101C39.1265 101 37.0694 103.057 37.0694 105.702C37.0694 108.347 39.1265 110.404 41.7714 110.404C44.4163 110.404 46.4735 108.347 46.4735 105.702C46.4735 103.057 44.4163 101 41.7714 101Z" fill="#AC6DFF"/>
<path d="M36.6775 111.971C34.9143 111.971 33.5428 113.343 33.5428 115.106V129.212C33.5428 130.094 34.2286 130.78 35.1102 130.78C35.2461 130.78 35.3773 130.763 35.502 130.733L35.502 146.257C35.502 147.8 36.702 149 38.2449 149C39.7877 149 40.9877 147.8 40.9877 146.257L40.9877 128.429C40.9877 127.988 41.3306 127.645 41.7714 127.645C42.2122 127.645 42.5551 127.988 42.5551 128.429V146.257C42.5551 147.8 43.7551 149 45.2979 149C46.8408 149 48.0408 147.8 48.0408 146.257L48.0408 130.733C48.1656 130.763 48.2968 130.78 48.4326 130.78C49.3143 130.78 50 130.094 50 129.212V115.106C50 113.343 48.6286 111.971 46.8653 111.971H36.6775Z" fill="#AC6DFF"/>
<path d="M41.7714 101C39.1265 101 37.0694 103.057 37.0694 105.702C37.0694 108.347 39.1265 110.404 41.7714 110.404C44.4163 110.404 46.4735 108.347 46.4735 105.702C46.4735 103.057 44.4163 101 41.7714 101Z" stroke="#340566" stroke-width="0.5" stroke-linecap="round" stroke-linejoin="round"/>
<path d="M36.6775 111.971C34.9143 111.971 33.5428 113.343 33.5428 115.106V129.212C33.5428 130.094 34.2286 130.78 35.1102 130.78C35.2461 130.78 35.3773 130.763 35.502 130.733L35.502 146.257C35.502 147.8 36.702 149 38.2449 149C39.7877 149 40.9877 147.8 40.9877 146.257L40.9877 128.429C40.9877 127.988 41.3306 127.645 41.7714 127.645C42.2122 127.645 42.5551 127.988 42.5551 128.429V146.257C42.5551 147.8 43.7551 149 45.2979 149C46.8408 149 48.0408 147.8 48.0408 146.257L48.0408 130.733C48.1656 130.763 48.2968 130.78 48.4326 130.78C49.3143 130.78 50 130.094 50 129.212V115.106C50 113.343 48.6286 111.971 46.8653 111.971H36.6775Z" stroke="#340566" stroke-width="0.5" stroke-linecap="round" stroke-linejoin="round"/>
<path d="M62.2286 101C59.5837 101 57.5265 103.057 57.5265 105.702C57.5265 108.347 59.5837 110.404 62.2286 110.404C64.8735 110.404 66.9306 108.347 66.9306 105.702C66.9306 103.057 64.8735 101 62.2286 101Z" fill="#AC6DFF"/>
<path d="M57.1347 111.971C55.3714 111.971 54 113.343 54 115.106V129.212C54 130.094 54.6857 130.78 55.5673 130.78C55.7032 130.78 55.8344 130.763 55.9592 130.733L55.9592 146.257C55.9592 147.8 57.1592 149 58.702 149C60.2449 149 61.4449 147.8 61.4449 146.257L61.4449 128.429C61.4449 127.988 61.7878 127.645 62.2286 127.645C62.6694 127.645 63.0122 127.988 63.0122 128.429V146.257C63.0122 147.8 64.2122 149 65.7551 149C67.298 149 68.498 147.8 68.498 146.257L68.498 130.733C68.6227 130.763 68.7539 130.78 68.8898 130.78C69.7714 130.78 70.4571 130.094 70.4571 129.212V115.106C70.4571 113.343 69.0857 111.971 67.3224 111.971H57.1347Z" fill="#AC6DFF"/>
<path d="M62.2286 101C59.5837 101 57.5265 103.057 57.5265 105.702C57.5265 108.347 59.5837 110.404 62.2286 110.404C64.8735 110.404 66.9306 108.347 66.9306 105.702C66.9306 103.057 64.8735 101 62.2286 101Z" stroke="#340566" stroke-width="0.5" stroke-linecap="round" stroke-linejoin="round"/>
<path d="M57.1347 111.971C55.3714 111.971 54 113.343 54 115.106V129.212C54 130.094 54.6857 130.78 55.5673 130.78C55.7032 130.78 55.8344 130.763 55.9592 130.733L55.9592 146.257C55.9592 147.8 57.1592 149 58.702 149C60.2449 149 61.4449 147.8 61.4449 146.257L61.4449 128.429C61.4449 127.988 61.7878 127.645 62.2286 127.645C62.6694 127.645 63.0122 127.988 63.0122 128.429V146.257C63.0122 147.8 64.2122 149 65.7551 149C67.298 149 68.498 147.8 68.498 146.257L68.498 130.733C68.6227 130.763 68.7539 130.78 68.8898 130.78C69.7714 130.78 70.4571 130.094 70.4571 129.212V115.106C70.4571 113.343 69.0857 111.971 67.3224 111.971H57.1347Z" stroke="#340566" stroke-width="0.5" stroke-linecap="round" stroke-linejoin="round"/>
</svg>
