<svg width="226" height="54" viewBox="0 0 226 54" fill="none" xmlns="http://www.w3.org/2000/svg">
<path d="M32.0945 35.1406V36.5H28.0477V30.8203H32.0242V32.1797H29.6063V32.9805H31.6727V34.2422H29.6063V35.1406H32.0945ZM35.2211 36.5V30.8203H37.4047C37.863 30.8203 38.2758 30.8945 38.643 31.043C39.0128 31.1888 39.3135 31.3919 39.5453 31.6523C39.7797 31.9102 39.9581 32.2096 40.0805 32.5508C40.2055 32.8893 40.268 33.2565 40.268 33.6523C40.268 34.5117 40.0063 35.2018 39.4828 35.7227C38.962 36.2409 38.2693 36.5 37.4047 36.5H35.2211ZM37.4047 32.1797H36.7797V35.1406H37.4047C37.8031 35.1406 38.1156 35.0026 38.3422 34.7266C38.5714 34.4505 38.6859 34.0924 38.6859 33.6523C38.6859 33.207 38.5714 32.8503 38.3422 32.582C38.113 32.3138 37.8005 32.1797 37.4047 32.1797ZM45.8281 36.5469C45.474 36.5469 45.1523 36.4974 44.8633 36.3984C44.5768 36.2995 44.3346 36.1641 44.1367 35.9922C43.9414 35.8203 43.7773 35.6146 43.6445 35.375C43.5117 35.1354 43.4154 34.8802 43.3555 34.6094C43.2956 34.3359 43.2656 34.0456 43.2656 33.7383V30.8203H44.8281V33.7383C44.8281 33.9336 44.8464 34.1146 44.8828 34.2812C44.9219 34.4479 44.9792 34.599 45.0547 34.7344C45.1328 34.8672 45.237 34.9727 45.3672 35.0508C45.5 35.1263 45.6536 35.1641 45.8281 35.1641C46.0052 35.1641 46.1602 35.125 46.293 35.0469C46.4258 34.9688 46.5299 34.862 46.6055 34.7266C46.6836 34.5885 46.7409 34.4375 46.7773 34.2734C46.8164 34.1068 46.8359 33.9284 46.8359 33.7383V30.8203H48.3945V33.7383C48.3945 34.1419 48.3424 34.5117 48.2383 34.8477C48.1341 35.1836 47.9792 35.4792 47.7734 35.7344C47.5703 35.9896 47.3021 36.1888 46.9688 36.332C46.638 36.4753 46.2578 36.5469 45.8281 36.5469ZM54.2828 30.7891C54.8167 30.7891 55.288 30.901 55.6969 31.125C56.1057 31.349 56.4104 31.6497 56.6109 32.0273L55.4195 32.875C55.3674 32.7422 55.2971 32.6289 55.2086 32.5352C55.1201 32.4388 55.0211 32.3659 54.9117 32.3164C54.8023 32.2643 54.693 32.2279 54.5836 32.207C54.4768 32.1836 54.3661 32.1719 54.2516 32.1719C54.038 32.1719 53.8466 32.2161 53.6773 32.3047C53.5081 32.3906 53.3727 32.5065 53.2711 32.6523C53.1721 32.7956 53.0966 32.9531 53.0445 33.125C52.9924 33.2969 52.9664 33.4753 52.9664 33.6602C52.9664 34.0742 53.0849 34.4284 53.3219 34.7227C53.5589 35.0169 53.874 35.1641 54.2672 35.1641C54.4208 35.1641 54.568 35.1432 54.7086 35.1016C54.8492 35.0573 54.9833 34.9818 55.1109 34.875C55.2411 34.7656 55.3362 34.6302 55.3961 34.4688L56.6695 35.2266C56.5628 35.4948 56.3753 35.7318 56.107 35.9375C55.8414 36.1432 55.5458 36.2969 55.2203 36.3984C54.8948 36.4974 54.5667 36.5469 54.2359 36.5469C53.8297 36.5469 53.4456 36.4622 53.0836 36.293C52.7242 36.1237 52.4208 35.9023 52.1734 35.6289C51.9286 35.3529 51.7346 35.0391 51.5914 34.6875C51.4508 34.3333 51.3805 33.9753 51.3805 33.6133C51.3805 33.2643 51.4469 32.9232 51.5797 32.5898C51.7151 32.2539 51.9026 31.9518 52.1422 31.6836C52.3844 31.4154 52.6917 31.1992 53.0641 31.0352C53.4365 30.8711 53.8427 30.7891 54.2828 30.7891ZM60.843 30.8203H62.5852L64.3938 36.5H62.8117L62.468 35.3867H60.9523L60.6164 36.5H59.0266L60.843 30.8203ZM62.218 34.3477L61.7141 32.3477L61.1867 34.3477H62.218ZM72.0086 35.2266C71.8706 35.5651 71.618 35.8477 71.2508 36.0742C70.8836 36.3008 70.4773 36.4479 70.032 36.5156C70.2924 36.776 70.4227 37.056 70.4227 37.3555C70.4227 37.6107 70.3393 37.8255 70.1727 38C70.0086 38.1745 69.769 38.2617 69.4539 38.2617C69.1362 38.2617 68.8068 38.1706 68.4656 37.9883L68.8172 37.2109C68.9344 37.3125 69.062 37.3633 69.2 37.3633C69.299 37.3633 69.3797 37.3346 69.4422 37.2773C69.5047 37.2227 69.5359 37.1471 69.5359 37.0508C69.5359 36.8867 69.4344 36.7109 69.2313 36.5234C68.8667 36.4792 68.5255 36.3659 68.2078 36.1836C67.8927 35.9987 67.6271 35.7734 67.4109 35.5078C67.1974 35.2396 67.0281 34.9414 66.9031 34.6133C66.7807 34.2826 66.7195 33.9492 66.7195 33.6133C66.7195 33.2643 66.7859 32.9232 66.9188 32.5898C67.0542 32.2539 67.2417 31.9518 67.4813 31.6836C67.7234 31.4154 68.0307 31.1992 68.4031 31.0352C68.7755 30.8711 69.1818 30.7891 69.6219 30.7891C70.1557 30.7891 70.6271 30.901 71.0359 31.125C71.4448 31.349 71.7495 31.6497 71.95 32.0273L70.7586 32.875C70.7065 32.7422 70.6362 32.6289 70.5477 32.5352C70.4591 32.4388 70.3602 32.3659 70.2508 32.3164C70.1414 32.2643 70.032 32.2279 69.9227 32.207C69.8159 32.1836 69.7052 32.1719 69.5906 32.1719C69.3771 32.1719 69.1857 32.2161 69.0164 32.3047C68.8471 32.3906 68.7117 32.5065 68.6102 32.6523C68.5112 32.7956 68.4357 32.9531 68.3836 33.125C68.3315 33.2969 68.3055 33.4753 68.3055 33.6602C68.3055 34.0742 68.424 34.4284 68.6609 34.7227C68.8979 35.0169 69.213 35.1641 69.6063 35.1641C69.7599 35.1641 69.907 35.1432 70.0477 35.1016C70.1883 35.0573 70.3224 34.9818 70.45 34.875C70.5802 34.7656 70.6753 34.6302 70.7352 34.4688L72.0086 35.2266ZM76.5336 30.0664C76.4659 30.0664 76.4073 30.0794 76.3578 30.1055C76.3083 30.1315 76.2719 30.1615 76.2484 30.1953C76.225 30.2292 76.2068 30.2682 76.1938 30.3125C76.1807 30.3542 76.1729 30.3854 76.1703 30.4062C76.1677 30.4245 76.1664 30.4401 76.1664 30.4531H75.3578C75.3578 30.3906 75.3695 30.3112 75.393 30.2148C75.419 30.1159 75.4607 30.0065 75.518 29.8867C75.5779 29.7669 75.6482 29.6562 75.7289 29.5547C75.8122 29.4505 75.919 29.3633 76.0492 29.293C76.1794 29.2227 76.3201 29.1875 76.4711 29.1875C76.5883 29.1875 76.7003 29.2096 76.807 29.2539C76.9138 29.2956 77.001 29.3424 77.0688 29.3945C77.1365 29.444 77.2133 29.4909 77.2992 29.5352C77.3852 29.5768 77.4685 29.5977 77.5492 29.5977C77.6143 29.5977 77.6729 29.5846 77.725 29.5586C77.7771 29.5299 77.8161 29.4974 77.8422 29.4609C77.8682 29.4245 77.8891 29.3854 77.9047 29.3438C77.9229 29.2995 77.9346 29.2656 77.9398 29.2422C77.9451 29.2161 77.9477 29.1979 77.9477 29.1875H78.7484C78.7484 29.2318 78.7354 29.2995 78.7094 29.3906C78.6833 29.4818 78.6404 29.5898 78.5805 29.7148C78.5206 29.8372 78.449 29.9531 78.3656 30.0625C78.2823 30.1693 78.1729 30.2617 78.0375 30.3398C77.9021 30.4154 77.7576 30.4531 77.6039 30.4531C77.4945 30.4531 77.3865 30.4336 77.2797 30.3945C77.1755 30.3529 77.0883 30.3086 77.018 30.2617C76.9503 30.2122 76.8721 30.168 76.7836 30.1289C76.6951 30.0872 76.6117 30.0664 76.5336 30.0664ZM76.182 30.8203H77.9242L79.7328 36.5H78.1508L77.807 35.3867H76.2914L75.9555 36.5H74.3656L76.182 30.8203ZM77.557 34.3477L77.0531 32.3477L76.5258 34.3477H77.557ZM82.0586 33.6523C82.0586 33.2799 82.1315 32.9206 82.2773 32.5742C82.4232 32.2253 82.6224 31.9193 82.875 31.6562C83.1276 31.3932 83.4349 31.1836 83.7969 31.0273C84.1615 30.8685 84.5495 30.7891 84.9609 30.7891C85.3776 30.7891 85.7682 30.8724 86.1328 31.0391C86.4974 31.2031 86.8008 31.4219 87.043 31.6953C87.2878 31.9661 87.4792 32.2747 87.6172 32.6211C87.7578 32.9674 87.8281 33.3216 87.8281 33.6836C87.8281 34.0534 87.7552 34.4115 87.6094 34.7578C87.4661 35.1042 87.2682 35.4102 87.0156 35.6758C86.7656 35.9388 86.4583 36.1497 86.0938 36.3086C85.7292 36.4674 85.3411 36.5469 84.9297 36.5469C84.513 36.5469 84.1224 36.4648 83.7578 36.3008C83.3958 36.1367 83.0924 35.9193 82.8477 35.6484C82.6029 35.3776 82.4102 35.069 82.2695 34.7227C82.1289 34.3737 82.0586 34.0169 82.0586 33.6523ZM84.9453 35.1641C85.1615 35.1641 85.3542 35.1211 85.5234 35.0352C85.6953 34.9466 85.832 34.8294 85.9336 34.6836C86.0352 34.5378 86.112 34.3776 86.1641 34.2031C86.2161 34.0286 86.2422 33.8451 86.2422 33.6523C86.2422 33.3867 86.1953 33.1445 86.1016 32.9258C86.0104 32.707 85.8633 32.5273 85.6602 32.3867C85.4596 32.2435 85.2188 32.1719 84.9375 32.1719C84.7214 32.1719 84.5286 32.2148 84.3594 32.3008C84.1901 32.3867 84.0547 32.5013 83.9531 32.6445C83.8516 32.7878 83.7747 32.9466 83.7227 33.1211C83.6706 33.2956 83.6445 33.4779 83.6445 33.668C83.6445 33.8633 83.6706 34.0495 83.7227 34.2266C83.7773 34.401 83.8568 34.5599 83.9609 34.7031C84.0651 34.8438 84.2018 34.9557 84.3711 35.0391C84.5404 35.1224 84.7318 35.1641 84.9453 35.1641Z" fill="#252525"/>
<path d="M6.14531 24.5V20.4531L4.47343 23.5234H3.94609L2.2664 20.4531V24.5H1.37187V18.8203H2.33281L4.21172 22.293L6.09062 18.8203H7.05156V24.5H6.14531ZM10.7328 24.5V18.8203H11.6273V24.5H10.7328ZM16.207 20.4844V24.5H15.3125V18.8203H16.0469L19.2656 22.9258V18.8281H20.168V24.5H19.3828L16.207 20.4844ZM23.8453 24.5V18.8203H24.7398V24.5H23.8453ZM31.7844 20.1562C31.662 20.0208 31.4536 19.8906 31.1594 19.7656C30.8651 19.6406 30.5617 19.5781 30.2492 19.5781C29.8794 19.5781 29.6021 19.6471 29.4172 19.7852C29.2349 19.9206 29.1437 20.1133 29.1437 20.3633C29.1437 20.4414 29.1542 20.5117 29.175 20.5742C29.1958 20.6367 29.2219 20.6927 29.2531 20.7422C29.287 20.7891 29.3365 20.8346 29.4016 20.8789C29.4667 20.9232 29.5305 20.9609 29.593 20.9922C29.6581 21.0234 29.7453 21.0573 29.8547 21.0938C29.9667 21.1276 30.0708 21.1576 30.1672 21.1836C30.2635 21.207 30.3898 21.2383 30.5461 21.2773C30.7961 21.3372 31.0096 21.3971 31.1867 21.457C31.3638 21.5143 31.5344 21.5885 31.6984 21.6797C31.8625 21.7682 31.994 21.8685 32.093 21.9805C32.1919 22.0898 32.27 22.224 32.3273 22.3828C32.3872 22.5417 32.4172 22.7227 32.4172 22.9258C32.4172 23.1523 32.3807 23.3568 32.3078 23.5391C32.2375 23.7214 32.1398 23.875 32.0148 24C31.8898 24.125 31.7388 24.2305 31.5617 24.3164C31.3846 24.3997 31.1945 24.4609 30.9914 24.5C30.7883 24.5365 30.5695 24.5547 30.3352 24.5547C29.9029 24.5547 29.4849 24.4896 29.0812 24.3594C28.6776 24.2266 28.3143 24.0365 27.9914 23.7891L28.4016 23.0195C28.5656 23.1888 28.8325 23.3529 29.2023 23.5117C29.5747 23.668 29.9575 23.7461 30.3508 23.7461C30.7049 23.7461 30.9771 23.6836 31.1672 23.5586C31.3599 23.4336 31.4562 23.2539 31.4562 23.0195C31.4562 22.9258 31.4419 22.8411 31.4133 22.7656C31.3846 22.6901 31.3352 22.6224 31.2648 22.5625C31.1945 22.5 31.1216 22.4466 31.0461 22.4023C30.9732 22.3581 30.8677 22.3125 30.7297 22.2656C30.5943 22.2188 30.4693 22.1797 30.3547 22.1484C30.2427 22.1172 30.0904 22.0768 29.8977 22.0273C29.5982 21.9492 29.3508 21.8698 29.1555 21.7891C28.9602 21.7083 28.787 21.6094 28.6359 21.4922C28.4875 21.375 28.3794 21.237 28.3117 21.0781C28.244 20.9167 28.2102 20.7266 28.2102 20.5078C28.2102 20.2344 28.2622 19.9883 28.3664 19.7695C28.4732 19.5482 28.619 19.3659 28.8039 19.2227C28.9888 19.0794 29.2062 18.9701 29.4562 18.8945C29.7062 18.819 29.9784 18.7812 30.2727 18.7812C30.9706 18.7812 31.6099 18.9948 32.1906 19.4219L31.7844 20.1562ZM39.8836 19.6133H37.9969V24.5H37.0906V19.6133H35.1961V18.8203H39.8836V19.6133ZM45.35 18.2344L44.7719 18.0586L45.2289 17.1797H46.0687L45.35 18.2344ZM46.9398 23.707V24.5H43.0453V18.8203H46.8695V19.6133H43.9398V21.2266H46.475V21.9727H43.9398V23.707H46.9398ZM50.2656 24.5V18.8203H52.7383C52.9857 18.8203 53.22 18.8737 53.4414 18.9805C53.6654 19.0872 53.8529 19.2279 54.0039 19.4023C54.1549 19.5768 54.2747 19.7747 54.3633 19.9961C54.4518 20.2174 54.4961 20.4414 54.4961 20.668C54.4961 21.0534 54.3945 21.4023 54.1914 21.7148C53.9883 22.0247 53.72 22.2331 53.3867 22.3398L54.7227 24.5H53.7148L52.4805 22.5234H51.1602V24.5H50.2656ZM51.1602 21.7305H52.7305C52.9779 21.7305 53.1823 21.6276 53.3437 21.4219C53.5052 21.2135 53.5859 20.9622 53.5859 20.668C53.5859 20.3789 53.4948 20.1315 53.3125 19.9258C53.1302 19.7174 52.9193 19.6133 52.6797 19.6133H51.1602V21.7305ZM57.9547 24.5V18.8203H58.8492V24.5H57.9547ZM62.175 21.6602C62.175 21.2852 62.244 20.9232 62.382 20.5742C62.5227 20.2227 62.7128 19.9154 62.9523 19.6523C63.1919 19.3893 63.4823 19.1784 63.8234 19.0195C64.1646 18.8607 64.5266 18.7812 64.9094 18.7812C65.3026 18.7812 65.6711 18.8646 66.0148 19.0312C66.3586 19.1979 66.6451 19.418 66.8742 19.6914C67.106 19.9622 67.2883 20.2708 67.4211 20.6172C67.5539 20.9609 67.6203 21.3112 67.6203 21.668C67.6203 22.043 67.55 22.4049 67.4094 22.7539C67.2714 23.1029 67.0839 23.4089 66.8469 23.6719C66.6099 23.9349 66.3208 24.1458 65.9797 24.3047C65.6385 24.4609 65.2766 24.5391 64.8937 24.5391C64.576 24.5391 64.274 24.487 63.9875 24.3828C63.701 24.276 63.4484 24.1302 63.2297 23.9453C63.0135 23.7604 62.8247 23.5469 62.6633 23.3047C62.5044 23.0625 62.3833 22.8008 62.3 22.5195C62.2167 22.2357 62.175 21.9492 62.175 21.6602ZM64.9016 23.7305C65.1776 23.7305 65.4315 23.6706 65.6633 23.5508C65.8951 23.431 66.0852 23.2734 66.2336 23.0781C66.382 22.8802 66.4966 22.6589 66.5773 22.4141C66.6607 22.1693 66.7023 21.918 66.7023 21.6602C66.7023 21.3919 66.6581 21.1341 66.5695 20.8867C66.4836 20.6367 66.3638 20.4167 66.2102 20.2266C66.0591 20.0339 65.869 19.8815 65.6398 19.7695C65.4133 19.6549 65.1672 19.5977 64.9016 19.5977C64.6255 19.5977 64.3703 19.6576 64.1359 19.7773C63.9042 19.8945 63.7128 20.0508 63.5617 20.2461C63.4107 20.4414 63.2935 20.6615 63.2102 20.9062C63.1268 21.151 63.0852 21.4023 63.0852 21.6602C63.0852 22.0195 63.1568 22.3555 63.3 22.668C63.4458 22.9805 63.6594 23.2357 63.9406 23.4336C64.2219 23.6315 64.5422 23.7305 64.9016 23.7305ZM75.3266 24.5V18.8203H77.3422C77.7875 18.8203 78.1872 18.8945 78.5414 19.043C78.8982 19.1888 79.1898 19.3919 79.4164 19.6523C79.643 19.9102 79.8148 20.2096 79.932 20.5508C80.0518 20.8893 80.1117 21.2565 80.1117 21.6523C80.1117 22.5117 79.8591 23.2018 79.3539 23.7227C78.8513 24.2409 78.1807 24.5 77.3422 24.5H75.3266ZM77.3422 19.6133H76.2211V23.707H77.3422C77.7328 23.707 78.0687 23.6172 78.35 23.4375C78.6339 23.2552 78.8461 23.0104 78.9867 22.7031C79.1273 22.3958 79.1977 22.0456 79.1977 21.6523C79.1977 21.0456 79.0323 20.5547 78.7016 20.1797C78.3734 19.8021 77.9203 19.6133 77.3422 19.6133ZM84.8828 18.8203H85.7305L87.9375 24.5H86.9922L86.3945 22.957H84.2031L83.6094 24.5H82.6562L84.8828 18.8203ZM86.2188 22.293L85.3047 19.8047L84.3633 22.293H86.2188Z" fill="#252525"/>
<g clip-path="url(#clip0_1198_163009)">
<path d="M121.354 50.5288C121.354 50.6948 121.343 50.8514 121.32 50.9985C121.298 51.1455 121.258 51.2874 121.201 51.425C121.144 51.5626 121.073 51.6813 120.986 51.7801C120.9 51.8788 120.789 51.9587 120.652 52.0186C120.516 52.0785 120.36 52.1079 120.186 52.1079C120.012 52.1079 119.859 52.0785 119.724 52.0196C119.588 51.9608 119.477 51.883 119.391 51.7853C119.304 51.6887 119.232 51.571 119.174 51.4334C119.116 51.2958 119.075 51.1529 119.052 51.0037C119.028 50.8545 119.016 50.6969 119.016 50.5288V48.2911H118.339V50.5288C118.339 50.7652 118.359 50.989 118.399 51.1981C118.439 51.4071 118.505 51.6078 118.598 51.799C118.69 51.9902 118.805 52.1541 118.945 52.2896C119.084 52.4251 119.259 52.5334 119.47 52.6143C119.681 52.6952 119.919 52.7361 120.184 52.7361C120.504 52.7361 120.785 52.6783 121.027 52.5628C121.27 52.4472 121.463 52.2865 121.607 52.0816C121.75 51.8767 121.858 51.6435 121.928 51.383C121.999 51.1224 122.034 50.8377 122.034 50.5278V48.2901H121.352V50.5278L121.354 50.5288ZM127.119 51.4817L124.694 48.2901H124.141V52.7046H124.815V49.5833L127.208 52.7046H127.8V48.2953H127.12V51.4807L127.119 51.4817ZM129.966 52.7057H130.64V48.2911H129.966V52.7057ZM134.046 48.2911L132.369 52.7057H133.087L133.534 51.5059H135.185L135.635 52.7057H136.347L134.684 48.2911H134.045H134.046ZM133.655 50.9901L134.364 49.0559L135.052 50.9901H133.654H133.655ZM133.682 47.7028C133.688 47.6776 133.699 47.645 133.717 47.6051C133.735 47.5652 133.765 47.5326 133.809 47.5053C133.852 47.478 133.905 47.4643 133.968 47.4643C134.038 47.4643 134.113 47.4864 134.193 47.5315C134.272 47.5757 134.359 47.6208 134.454 47.665C134.548 47.7091 134.647 47.7322 134.751 47.7322C134.855 47.7322 134.942 47.7101 135.026 47.6671C135.109 47.624 135.176 47.5715 135.224 47.5105C135.273 47.4496 135.315 47.3845 135.35 47.313C135.384 47.2426 135.408 47.1817 135.42 47.1313C135.433 47.0808 135.439 47.042 135.439 47.0157H135.059C135.059 47.0262 135.058 47.0399 135.055 47.0588C135.052 47.0777 135.044 47.1018 135.03 47.1334C135.016 47.1649 134.998 47.1932 134.975 47.2195C134.953 47.2458 134.92 47.2689 134.878 47.2899C134.836 47.3099 134.788 47.3204 134.733 47.3204C134.652 47.3204 134.571 47.2973 134.488 47.2521C134.406 47.2069 134.319 47.1607 134.23 47.1155C134.139 47.0703 134.044 47.0472 133.944 47.0472C133.85 47.0472 133.764 47.0682 133.687 47.1092C133.609 47.1512 133.547 47.2016 133.501 47.2615C133.456 47.3214 133.416 47.3855 133.383 47.4559C133.351 47.5252 133.328 47.5872 133.317 47.6397C133.305 47.6923 133.3 47.7343 133.3 47.7637H133.674C133.674 47.7501 133.677 47.7301 133.683 47.7049L133.682 47.7028ZM141.192 48.9656C141.019 48.7544 140.802 48.5832 140.543 48.4539C140.284 48.3247 140.006 48.2596 139.71 48.2596C139.414 48.2596 139.149 48.3216 138.892 48.4445C138.636 48.5685 138.417 48.7324 138.237 48.9362C138.056 49.141 137.914 49.3785 137.809 49.6516C137.704 49.9237 137.651 50.2053 137.651 50.4973C137.651 50.7222 137.683 50.9438 137.746 51.1634C137.809 51.383 137.901 51.5868 138.021 51.7748C138.141 51.9629 138.283 52.1289 138.447 52.2728C138.611 52.4167 138.801 52.5292 139.017 52.6111C139.233 52.693 139.46 52.734 139.7 52.734C139.988 52.734 140.261 52.6731 140.518 52.5502C140.774 52.4273 140.992 52.2644 141.171 52.0595C141.35 51.8547 141.491 51.6173 141.597 51.3462C141.702 51.0752 141.755 50.7936 141.755 50.5015C141.755 50.2095 141.705 49.951 141.604 49.6831C141.504 49.4152 141.367 49.1746 141.194 48.9635L141.192 48.9656ZM140.968 51.0836C140.906 51.2737 140.819 51.445 140.707 51.5983C140.595 51.7517 140.452 51.8746 140.277 51.9671C140.102 52.0606 139.912 52.1068 139.703 52.1068C139.432 52.1068 139.191 52.0301 138.979 51.8757C138.767 51.7223 138.607 51.5238 138.498 51.2811C138.389 51.0384 138.334 50.7768 138.334 50.4973C138.334 50.2967 138.366 50.1013 138.429 49.9111C138.492 49.721 138.58 49.5497 138.694 49.3974C138.808 49.2461 138.952 49.1232 139.128 49.0318C139.303 48.9404 139.495 48.8931 139.703 48.8931C139.911 48.8931 140.089 48.9372 140.261 49.0255C140.433 49.1137 140.576 49.2314 140.691 49.3806C140.806 49.5297 140.895 49.701 140.962 49.8932C141.027 50.0866 141.06 50.2872 141.06 50.4963C141.06 50.7053 141.03 50.8923 140.968 51.0825V51.0836ZM147.017 50.74H148.928V50.1601H147.017V48.9057H149.225V48.289H146.344V52.7036H149.278V52.0869H147.017V50.739V50.74ZM156.824 50.5383C156.977 50.2967 157.053 50.0256 157.053 49.7262C157.053 49.5497 157.019 49.3764 156.953 49.2041C156.887 49.0318 156.796 48.8784 156.682 48.7429C156.568 48.6073 156.428 48.4981 156.26 48.4151C156.092 48.3321 155.914 48.2911 155.728 48.2911H153.865V52.7057H154.539V51.1697H155.534L156.463 52.7057H157.223L156.216 51.0268C156.467 50.9438 156.669 50.781 156.822 50.5394L156.824 50.5383ZM155.723 50.552H154.54V48.9067H155.684C155.865 48.9067 156.023 48.9876 156.161 49.1484C156.298 49.3091 156.367 49.5024 156.367 49.7273C156.367 49.9521 156.305 50.1506 156.184 50.3114C156.063 50.4721 155.908 50.553 155.722 50.553L155.723 50.552ZM159.727 50.74H161.637V50.1601H159.727V48.9057H161.935V48.289H159.053V52.7036H161.988V52.0869H159.727V50.739V50.74ZM166.439 51.8011C166.308 51.9135 166.173 51.9934 166.032 52.0406C165.892 52.0879 165.748 52.1121 165.602 52.1121C165.343 52.1121 165.107 52.0364 164.893 51.8862C164.679 51.736 164.513 51.5364 164.397 51.2895C164.28 51.0426 164.222 50.7768 164.222 50.491C164.222 50.3355 164.24 50.1811 164.277 50.0298C164.313 49.8775 164.369 49.7336 164.446 49.5959C164.522 49.4583 164.614 49.3375 164.72 49.2345C164.826 49.1316 164.953 49.0486 165.103 48.9866C165.251 48.9246 165.412 48.8941 165.585 48.8941C165.693 48.8941 165.799 48.9067 165.902 48.9309C166.005 48.9551 166.108 48.9929 166.21 49.0444C166.311 49.0959 166.406 49.1683 166.492 49.2629C166.578 49.3574 166.649 49.4678 166.706 49.5949L167.236 49.2272C167.092 48.9362 166.88 48.7019 166.596 48.5275C166.313 48.352 165.983 48.2648 165.609 48.2648C165.355 48.2648 165.117 48.3069 164.894 48.3909C164.67 48.475 164.476 48.5884 164.314 48.7323C164.152 48.8763 164.011 49.0412 163.892 49.2293C163.774 49.4163 163.684 49.6159 163.626 49.8271C163.567 50.0382 163.537 50.2515 163.537 50.4658C163.537 50.7453 163.588 51.0205 163.69 51.2937C163.792 51.5658 163.932 51.8095 164.107 52.0238C164.282 52.2381 164.499 52.4115 164.757 52.5428C165.015 52.6741 165.29 52.7403 165.58 52.7403C165.809 52.7403 166.038 52.7015 166.266 52.6248C166.493 52.5481 166.702 52.4294 166.893 52.2697C167.083 52.11 167.221 51.9251 167.305 51.7139L166.743 51.3861C166.673 51.55 166.572 51.6887 166.442 51.8011H166.439ZM172.349 48.9656C172.176 48.7544 171.959 48.5832 171.7 48.4539C171.442 48.3247 171.164 48.2596 170.867 48.2596C170.571 48.2596 170.306 48.3216 170.05 48.4445C169.793 48.5685 169.574 48.7324 169.394 48.9362C169.214 49.141 169.071 49.3785 168.966 49.6516C168.861 49.9237 168.808 50.2053 168.808 50.4973C168.808 50.7222 168.84 50.9438 168.903 51.1634C168.966 51.383 169.058 51.5868 169.178 51.7748C169.298 51.9629 169.441 52.1289 169.605 52.2728C169.768 52.4167 169.958 52.5292 170.174 52.6111C170.39 52.693 170.617 52.734 170.857 52.734C171.145 52.734 171.418 52.6731 171.675 52.5502C171.931 52.4273 172.149 52.2644 172.329 52.0595C172.507 51.8547 172.648 51.6173 172.754 51.3462C172.859 51.0752 172.912 50.7936 172.912 50.5015C172.912 50.2095 172.862 49.951 172.761 49.6831C172.662 49.4152 172.524 49.1746 172.351 48.9635L172.349 48.9656ZM172.125 51.0836C172.063 51.2737 171.976 51.445 171.864 51.5983C171.752 51.7517 171.61 51.8746 171.434 51.9671C171.259 52.0606 171.069 52.1068 170.86 52.1068C170.589 52.1068 170.348 52.0301 170.136 51.8757C169.924 51.7223 169.763 51.5238 169.655 51.2811C169.547 51.0384 169.492 50.7768 169.492 50.4973C169.492 50.2967 169.523 50.1013 169.586 49.9111C169.649 49.721 169.737 49.5497 169.851 49.3974C169.965 49.2461 170.11 49.1232 170.285 49.0318C170.46 48.9393 170.652 48.8931 170.86 48.8931C171.068 48.8931 171.246 48.9372 171.418 49.0255C171.59 49.1137 171.733 49.2314 171.848 49.3806C171.963 49.5297 172.053 49.701 172.119 49.8932C172.185 50.0866 172.218 50.2872 172.218 50.4963C172.218 50.7053 172.187 50.8923 172.125 51.0825V51.0836ZM177.794 51.4817L175.368 48.2901H174.815V52.7046H175.489V49.5833L177.882 52.7046H178.474V48.2953H177.794V51.4807V51.4817ZM183.405 50.7453C183.33 50.6591 183.231 50.5814 183.107 50.511C182.984 50.4416 182.855 50.3839 182.721 50.3376C182.588 50.2925 182.427 50.2462 182.239 50.199C182.121 50.1685 182.026 50.1443 181.954 50.1244C181.881 50.1055 181.803 50.0824 181.719 50.055C181.636 50.0277 181.571 50.0015 181.522 49.9773C181.474 49.9531 181.425 49.9237 181.376 49.889C181.327 49.8544 181.291 49.8187 181.266 49.7808C181.242 49.743 181.221 49.6999 181.206 49.6516C181.19 49.6033 181.183 49.5487 181.183 49.4877C181.183 49.2934 181.252 49.1431 181.39 49.037C181.529 48.9309 181.738 48.8773 182.016 48.8773C182.251 48.8773 182.48 48.9257 182.701 49.0234C182.923 49.12 183.08 49.2219 183.171 49.327L183.478 48.7565C183.04 48.4245 182.558 48.2585 182.033 48.2585C181.811 48.2585 181.606 48.288 181.418 48.3468C181.23 48.4056 181.066 48.4907 180.926 48.6021C180.787 48.7134 180.678 48.8542 180.598 49.0255C180.519 49.1967 180.479 49.3879 180.479 49.6012C180.479 49.7714 180.505 49.9185 180.555 50.0435C180.606 50.1685 180.689 50.2757 180.801 50.3671C180.914 50.4585 181.043 50.5352 181.191 50.5982C181.339 50.6612 181.525 50.7222 181.75 50.7831C181.896 50.822 182.011 50.8524 182.096 50.8776C182.182 50.9018 182.275 50.9323 182.378 50.969C182.481 51.0058 182.56 51.0405 182.616 51.0752C182.672 51.1098 182.726 51.1508 182.779 51.1981C182.832 51.2453 182.87 51.2989 182.891 51.3578C182.913 51.4166 182.924 51.4817 182.924 51.5553C182.924 51.737 182.852 51.8767 182.708 51.9744C182.564 52.0711 182.359 52.1205 182.091 52.1205C181.795 52.1205 181.507 52.0595 181.228 51.9366C180.947 51.8137 180.746 51.6876 180.623 51.5553L180.314 52.153C180.557 52.3453 180.83 52.4924 181.135 52.5953C181.439 52.6973 181.754 52.7487 182.08 52.7487C182.256 52.7487 182.421 52.734 182.575 52.7046C182.727 52.6752 182.871 52.6279 183.004 52.5617C183.138 52.4955 183.252 52.4146 183.346 52.3169C183.439 52.2203 183.514 52.1005 183.568 51.9587C183.622 51.8169 183.648 51.6582 183.648 51.4817C183.648 51.3241 183.626 51.1834 183.582 51.0594C183.538 50.9365 183.478 50.8314 183.404 50.7453H183.405ZM185.137 48.9067H186.564V52.7057H187.248V48.9067H188.669V48.2901H185.138V48.9067H185.137ZM193.402 50.5383C193.555 50.2967 193.632 50.0256 193.632 49.7262C193.632 49.5497 193.598 49.3764 193.532 49.2041C193.465 49.0318 193.375 48.8784 193.261 48.7429C193.147 48.6073 193.006 48.4981 192.838 48.4151C192.67 48.3321 192.493 48.2911 192.307 48.2911H190.444V52.7057H191.118V51.1697H192.113L193.043 52.7057H193.803L192.797 51.0268C193.048 50.9438 193.25 50.781 193.402 50.5394V50.5383ZM192.302 50.552H191.118V48.9067H192.263C192.443 48.9067 192.602 48.9876 192.739 49.1484C192.877 49.3091 192.945 49.5024 192.945 49.7273C192.945 49.9521 192.884 50.1506 192.763 50.3114C192.641 50.4721 192.487 50.553 192.301 50.553L192.302 50.552ZM198.577 50.5278C198.577 50.6938 198.566 50.8503 198.544 50.9974C198.521 51.1445 198.482 51.2863 198.425 51.4239C198.368 51.5616 198.296 51.6803 198.21 51.779C198.123 51.8778 198.012 51.9576 197.876 52.0175C197.739 52.0774 197.584 52.1068 197.409 52.1068C197.235 52.1068 197.083 52.0774 196.947 52.0186C196.812 51.9597 196.701 51.882 196.614 51.7843C196.528 51.6876 196.455 51.57 196.398 51.4324C196.34 51.2947 196.299 51.1518 196.276 51.0027C196.253 50.8535 196.24 50.6959 196.24 50.5278V48.2901H195.563V50.5278C195.563 50.7642 195.584 50.988 195.623 51.197C195.663 51.4061 195.729 51.6067 195.822 51.798C195.915 51.9892 196.03 52.153 196.169 52.2886C196.309 52.4241 196.484 52.5323 196.695 52.6132C196.905 52.6941 197.144 52.7351 197.408 52.7351C197.728 52.7351 198.009 52.6773 198.252 52.5617C198.494 52.4462 198.687 52.2854 198.831 52.0806C198.976 51.8746 199.083 51.6425 199.153 51.3819C199.223 51.1214 199.259 50.8367 199.259 50.5267V48.289H198.576V50.5267L198.577 50.5278ZM203.996 51.8011C203.866 51.9135 203.73 51.9934 203.59 52.0406C203.449 52.0879 203.305 52.1121 203.159 52.1121C202.9 52.1121 202.664 52.0364 202.45 51.8862C202.236 51.736 202.07 51.5364 201.954 51.2895C201.837 51.0426 201.779 50.7768 201.779 50.491C201.779 50.3355 201.797 50.1811 201.834 50.0298C201.871 49.8775 201.927 49.7336 202.003 49.5959C202.079 49.4583 202.171 49.3375 202.277 49.2345C202.383 49.1316 202.51 49.0486 202.66 48.9866C202.808 48.9246 202.969 48.8941 203.143 48.8941C203.25 48.8941 203.356 48.9067 203.459 48.9309C203.562 48.9551 203.665 48.9929 203.767 49.0444C203.869 49.0959 203.963 49.1683 204.049 49.2629C204.135 49.3574 204.207 49.4678 204.264 49.5949L204.793 49.2272C204.65 48.9362 204.437 48.7019 204.154 48.5275C203.871 48.352 203.541 48.2648 203.166 48.2648C202.912 48.2648 202.674 48.3069 202.451 48.3909C202.227 48.475 202.034 48.5884 201.872 48.7323C201.709 48.8763 201.568 49.0412 201.449 49.2293C201.33 49.4163 201.241 49.6159 201.183 49.8271C201.124 50.0382 201.095 50.2515 201.095 50.4658C201.095 50.7327 201.142 50.9974 201.234 51.258C201.327 51.5195 201.455 51.7549 201.618 51.965C201.781 52.1751 201.982 52.3506 202.22 52.4903C202.458 52.63 202.714 52.7109 202.987 52.733C203.203 52.879 203.311 53.0324 203.311 53.1942C203.311 53.2887 203.279 53.3612 203.215 53.4116C203.151 53.461 203.062 53.4862 202.949 53.4862C202.818 53.4862 202.675 53.4421 202.522 53.356L202.354 53.7237C202.58 53.8434 202.817 53.9033 203.063 53.9033C203.271 53.9033 203.433 53.8508 203.549 53.7457C203.665 53.6407 203.723 53.4988 203.723 53.3202C203.723 53.0996 203.62 52.9 203.413 52.7225C203.731 52.6762 204.024 52.5638 204.293 52.3873C204.562 52.2098 204.751 51.986 204.861 51.715L204.299 51.3872C204.229 51.5511 204.128 51.6897 203.998 51.8022L203.996 51.8011ZM207.864 48.2901L206.187 52.7046H206.905L207.352 51.5048H209.003L209.453 52.7046H210.165L208.502 48.2901H207.863H207.864ZM207.473 50.989L208.182 49.0549L208.87 50.989H207.472H207.473ZM207.5 47.7017C207.506 47.6765 207.517 47.6439 207.535 47.604C207.553 47.5641 207.583 47.5315 207.627 47.5042C207.67 47.4769 207.723 47.4632 207.786 47.4632C207.856 47.4632 207.932 47.4853 208.011 47.5305C208.09 47.5746 208.177 47.6198 208.272 47.6639C208.366 47.708 208.465 47.7311 208.569 47.7311C208.673 47.7311 208.761 47.7091 208.844 47.666C208.928 47.6229 208.994 47.5704 209.043 47.5095C209.091 47.4485 209.133 47.3834 209.168 47.312C209.202 47.2416 209.226 47.1806 209.238 47.1302C209.251 47.0798 209.257 47.0409 209.257 47.0146H208.878C208.878 47.0252 208.877 47.0388 208.874 47.0577C208.87 47.0766 208.862 47.1008 208.848 47.1323C208.834 47.1638 208.817 47.1922 208.793 47.2185C208.771 47.2447 208.738 47.2678 208.696 47.2888C208.654 47.3088 208.606 47.3193 208.551 47.3193C208.47 47.3193 208.389 47.2962 208.306 47.251C208.224 47.2059 208.137 47.1596 208.048 47.1144C207.957 47.0693 207.862 47.0462 207.763 47.0462C207.668 47.0462 207.582 47.0672 207.505 47.1081C207.428 47.1502 207.365 47.2006 207.32 47.2605C207.274 47.3204 207.234 47.3845 207.201 47.4548C207.169 47.5242 207.146 47.5862 207.135 47.6387C207.123 47.6912 207.118 47.7332 207.118 47.7627H207.492C207.492 47.749 207.495 47.729 207.501 47.7038L207.5 47.7017ZM215.42 49.6842C215.32 49.4163 215.183 49.1757 215.01 48.9645C214.837 48.7534 214.62 48.5821 214.361 48.4529C214.103 48.3237 213.825 48.2585 213.528 48.2585C213.232 48.2585 212.967 48.3205 212.711 48.4434C212.454 48.5674 212.235 48.7313 212.055 48.9351C211.874 49.14 211.731 49.3774 211.626 49.6506C211.521 49.9227 211.468 50.2042 211.468 50.4963C211.468 50.7211 211.5 50.9428 211.563 51.1624C211.626 51.3819 211.718 51.5857 211.838 51.7738C211.958 51.9618 212.101 52.1278 212.265 52.2718C212.428 52.4157 212.618 52.5281 212.834 52.6101C213.05 52.692 213.277 52.733 213.517 52.733C213.805 52.733 214.078 52.672 214.335 52.5491C214.591 52.4262 214.809 52.2634 214.988 52.0585C215.167 51.8536 215.308 51.6162 215.414 51.3452C215.519 51.0741 215.571 50.7925 215.571 50.5005C215.571 50.2084 215.521 49.95 215.421 49.6821L215.42 49.6842ZM214.786 51.0825C214.724 51.2727 214.637 51.4439 214.525 51.5973C214.413 51.7507 214.271 51.8736 214.095 51.966C213.921 52.0596 213.73 52.1058 213.521 52.1058C213.25 52.1058 213.009 52.0291 212.797 51.8746C212.585 51.7213 212.424 51.5227 212.315 51.28C212.206 51.0373 212.152 50.7757 212.152 50.4963C212.152 50.2956 212.184 50.1002 212.247 49.9101C212.31 49.7199 212.398 49.5487 212.512 49.3963C212.626 49.245 212.771 49.1221 212.946 49.0307C213.121 48.9383 213.313 48.892 213.521 48.892C213.729 48.892 213.907 48.9362 214.079 49.0244C214.251 49.1127 214.394 49.2303 214.509 49.3795C214.624 49.5287 214.714 49.6999 214.78 49.8922C214.845 50.0855 214.878 50.2862 214.878 50.4952C214.878 50.7043 214.848 50.8913 214.786 51.0815V51.0825Z" fill="black"/>
<path d="M120.723 3.75373H122.19C122.061 4.11724 121.693 4.4156 121.115 4.4156C120.289 4.4156 119.721 3.80416 119.721 2.96054C119.721 2.11693 120.29 1.46451 121.092 1.46451C121.605 1.46451 122.046 1.72085 122.286 2.16735L123.537 1.39833C123.032 0.530544 122.11 0.0010484 121.108 0.0010484C119.522 0.0010484 118.255 1.30692 118.255 2.95214C118.255 4.59735 119.512 5.88747 121.116 5.88747C122.623 5.88747 123.761 4.74654 123.761 2.99416V2.55607H120.723V3.75478V3.75373ZM128.64 0C127.045 0 125.778 1.30587 125.778 2.94373C125.778 4.58159 127.044 5.88747 128.64 5.88747C130.235 5.88747 131.485 4.58054 131.485 2.94373C131.485 1.30692 130.219 0 128.64 0ZM128.64 4.33261C127.91 4.33261 127.349 3.73692 127.349 2.94373C127.349 2.15054 127.91 1.55486 128.64 1.55486C129.369 1.55486 129.905 2.15054 129.905 2.94373C129.905 3.73692 129.352 4.33261 128.64 4.33261ZM135.715 3.5972L134.449 0.132371H132.871L134.979 5.7551H136.445L138.576 0.132371H136.998L135.716 3.5972H135.715ZM140.491 5.7551H144.394V4.38304H141.966V3.54782H143.569V2.3407H141.966V1.50548H144.394V0.133423H140.491V5.7551ZM151.181 1.96039C151.181 0.918207 150.363 0.133423 149.298 0.133423H146.662V5.75615H148.112V3.81362H148.729L149.81 5.75615H151.437L150.228 3.58984C150.805 3.27572 151.182 2.68004 151.182 1.96144L151.181 1.96039ZM149.137 2.53086H148.112V1.48132H149.137C149.489 1.48132 149.698 1.72926 149.698 2.01082C149.698 2.29237 149.482 2.5319 149.137 2.5319V2.53086ZM156.894 3.10132L154.69 0.133423H153.456V5.75615H154.906V2.79665L157.101 5.75615H158.344V0.133423H156.894V3.10132ZM163.32 0.0010484C161.725 0.0010484 160.459 1.30693 160.459 2.94479C160.459 4.58265 161.724 5.88852 163.32 5.88852C164.916 5.88852 166.165 4.58159 166.165 2.94479C166.165 1.30798 164.899 0.0010484 163.32 0.0010484ZM163.32 4.33366C162.591 4.33366 162.03 3.73798 162.03 2.94479C162.03 2.1516 162.591 1.55591 163.32 1.55591C164.049 1.55591 164.586 2.1516 164.586 2.94479C164.586 3.73798 164.033 4.33366 163.32 4.33366ZM171.886 5.75615H173.361V3.70541H174.963V2.4321H173.361V1.48132H175.789V0.133423H171.886V5.7551V5.75615ZM177.992 5.75615H181.895V4.38408H179.466V3.54887H181.069V2.34175H179.466V1.50654H181.895V0.134475H177.992V5.75615ZM186.382 0.134475H184.162V5.75615H186.382C188.041 5.75615 189.291 4.55743 189.291 2.94479C189.291 1.33214 188.041 0.133423 186.382 0.133423V0.134475ZM186.309 4.29268H185.644V1.59689H186.309C187.175 1.59689 187.768 2.12638 187.768 2.94479C187.768 3.76319 187.175 4.29268 186.309 4.29268ZM191.406 5.75615H195.309V4.38408H192.881V3.54887H194.483V2.34175H192.881V1.50654H195.309V0.134475H191.406V5.75615ZM202.096 1.96144C202.096 0.919259 201.279 0.134475 200.212 0.134475H197.576V5.7572H199.026V3.81467H199.643L200.725 5.7572H202.352L201.142 3.59089C201.719 3.27677 202.096 2.68109 202.096 1.96249V1.96144ZM200.052 2.5319H199.027V1.48237H200.052C200.405 1.48237 200.614 1.73031 200.614 2.01187C200.614 2.29342 200.398 2.53296 200.052 2.53296V2.5319ZM206.239 0.134475L203.963 5.7572H205.493L205.87 4.78961H208.026L208.411 5.7572H209.933L207.633 0.134475H206.239ZM206.4 3.45012L206.944 2.06965L207.489 3.45012H206.4ZM213.395 4.30949V0.134475H211.849V5.75615H215.688V4.30949H213.395Z" fill="black"/>
<path d="M215.685 11.8464H205.762V31.5112H215.685V11.8464Z" fill="#1D1D1B"/>
<path d="M215.685 31.7214H205.761C205.649 31.7214 205.558 31.6268 205.558 31.5112V11.8464C205.558 11.7308 205.649 11.6363 205.761 11.6363H215.685C215.797 11.6363 215.888 11.7308 215.888 11.8464V31.5112C215.888 31.6268 215.797 31.7214 215.685 31.7214ZM205.965 31.3011H215.481V12.0565H205.965V31.3011Z" fill="white"/>
<path d="M225.608 31.5112H215.685V41.4561H225.608V31.5112Z" fill="#1D1D1B"/>
<path d="M225.609 41.6661H215.685C215.573 41.6661 215.481 41.5716 215.481 41.456V31.5112C215.481 31.3956 215.573 31.3011 215.685 31.3011H225.609C225.721 31.3011 225.812 31.3956 225.812 31.5112V41.456C225.812 41.5716 225.721 41.6661 225.609 41.6661ZM215.889 41.2459H225.405V31.7213H215.889V41.2459Z" fill="white"/>
<path d="M215.685 31.5112H205.762V41.4561H215.685V31.5112Z" fill="#1D1D1B"/>
<path d="M215.685 41.6661H205.761C205.649 41.6661 205.558 41.5716 205.558 41.456V31.5112C205.558 31.3956 205.649 31.3011 205.761 31.3011H215.685C215.797 31.3011 215.888 31.3956 215.888 31.5112V41.456C215.888 41.5716 215.797 41.6661 215.685 41.6661ZM205.965 41.2459H215.481V31.7213H205.965V41.2459Z" fill="white"/>
<path d="M204.087 11.8464H194.164V41.456H204.087V11.8464Z" fill="#1D1D1B"/>
<path d="M204.088 41.6662H194.165C194.053 41.6662 193.961 41.5716 193.961 41.4561V11.8464C193.961 11.7308 194.053 11.6363 194.165 11.6363H204.088C204.2 11.6363 204.292 11.7308 204.292 11.8464V41.4561C204.292 41.5716 204.2 41.6662 204.088 41.6662ZM194.368 41.2459H203.884V12.0565H194.368V41.2459Z" fill="white"/>
<path d="M181.755 25.006H172.373V41.456H181.755V25.006Z" fill="#1D1D1B"/>
<path d="M181.754 41.6662H172.374C172.262 41.6662 172.17 41.5716 172.17 41.4561V25.006C172.17 24.8905 172.262 24.7959 172.374 24.7959H181.754C181.866 24.7959 181.958 24.8905 181.958 25.006V41.4561C181.958 41.5716 181.866 41.6662 181.754 41.6662ZM172.577 41.2459H181.551V25.2161H172.577V41.2459Z" fill="white"/>
<path d="M192.49 11.8464H181.754V22.6138H192.49V11.8464Z" fill="#1D1D1B"/>
<path d="M192.49 22.824H181.754C181.642 22.824 181.551 22.7294 181.551 22.6138V11.8464C181.551 11.7308 181.642 11.6363 181.754 11.6363H192.49C192.602 11.6363 192.694 11.7308 192.694 11.8464V22.6138C192.694 22.7294 192.602 22.824 192.49 22.824ZM181.958 22.4037H192.287V12.0565H181.958V22.4037Z" fill="white"/>
<path d="M185.033 22.6138H181.754V41.4561H185.033C190.077 41.4561 194.165 37.238 194.165 32.0344C194.165 26.8309 190.077 22.6128 185.033 22.6128" fill="#1D1D1B"/>
<path d="M185.033 41.6661H181.754C181.642 41.6661 181.551 41.5716 181.551 41.456V22.6138C181.551 22.4982 181.642 22.4037 181.754 22.4037H185.033C190.181 22.4037 194.369 26.7247 194.369 32.0354C194.369 37.3461 190.181 41.6661 185.033 41.6661ZM181.958 41.2459H185.033C189.956 41.2459 193.962 37.114 193.962 32.0354C193.962 26.9569 189.957 22.8239 185.033 22.8239H181.958V41.2459Z" fill="white"/>
<path d="M178.75 11.8464C175.227 11.8464 172.372 14.7922 172.372 18.4262C172.372 22.0601 175.227 25.006 178.75 25.006H181.754V11.8464H178.75Z" fill="#1D1D1B"/>
<path d="M181.754 25.2161H178.75C175.121 25.2161 172.169 22.1705 172.169 18.4262C172.169 14.6819 175.121 11.6363 178.75 11.6363H181.754C181.866 11.6363 181.958 11.7308 181.958 11.8464V25.006C181.958 25.1216 181.866 25.2161 181.754 25.2161ZM178.75 12.0565C175.346 12.0565 172.576 14.9141 172.576 18.4262C172.576 21.9383 175.346 24.7959 178.75 24.7959H181.551V12.0565H178.75Z" fill="white"/>
<path d="M118.127 23.7274H120.425C123.605 23.7274 126.183 21.0684 126.183 17.7874C126.183 14.5064 123.605 11.8474 120.425 11.8474H118.127V23.7274Z" fill="#1D1D1B"/>
<path d="M120.425 23.9376H118.127C118.014 23.9376 117.923 23.843 117.923 23.7274V11.8474C117.923 11.7319 118.014 11.6373 118.127 11.6373H120.425C123.712 11.6373 126.386 14.3962 126.386 17.7874C126.386 21.1787 123.712 23.9376 120.425 23.9376ZM118.33 23.5173H120.425C123.487 23.5173 125.979 20.9466 125.979 17.7874C125.979 14.6283 123.487 12.0576 120.425 12.0576H118.33V23.5173Z" fill="white"/>
<path d="M118.128 11.8464H108.204V23.7264H118.128V11.8464Z" fill="#1D1D1B"/>
<path d="M118.127 23.9376H108.204C108.092 23.9376 108 23.843 108 23.7274V11.8474C108 11.7319 108.092 11.6373 108.204 11.6373H118.127C118.239 11.6373 118.331 11.7319 118.331 11.8474V23.7274C118.331 23.843 118.239 23.9376 118.127 23.9376ZM108.407 23.5173H117.923V12.0576H108.407V23.5173Z" fill="white"/>
<path d="M118.128 23.7274H108.204V41.456H118.128V23.7274Z" fill="#1D1D1B"/>
<path d="M118.127 41.6662H108.204C108.092 41.6662 108 41.5716 108 41.456V23.7275C108 23.6119 108.092 23.5173 108.204 23.5173H118.127C118.239 23.5173 118.331 23.6119 118.331 23.7275V41.456C118.331 41.5716 118.239 41.6662 118.127 41.6662ZM108.407 41.2459H117.923V23.9376H108.407V41.2459Z" fill="white"/>
<path d="M121.389 23.7274H118.126V41.456H121.389C126.134 41.456 129.981 37.4869 129.981 32.5912C129.981 27.6955 126.134 23.7264 121.389 23.7264V23.7274Z" fill="#1D1D1B"/>
<path d="M121.389 41.6662H118.127C118.014 41.6662 117.923 41.5716 117.923 41.4561V23.7275C117.923 23.6119 118.014 23.5173 118.127 23.5173H121.389C126.239 23.5173 130.185 27.5883 130.185 32.5923C130.185 37.5962 126.239 41.6672 121.389 41.6672V41.6662ZM118.33 41.2459H121.389C126.014 41.2459 129.778 37.364 129.778 32.5912C129.778 27.8184 126.015 23.9365 121.389 23.9365H118.33V41.2449V41.2459Z" fill="white"/>
<path d="M141.244 29.7294H129.981V41.456H148.636L141.244 29.7294Z" fill="#1D1D1B"/>
<path d="M148.635 41.6661H129.981C129.869 41.6661 129.777 41.5716 129.777 41.456V29.7294C129.777 29.6138 129.869 29.5193 129.981 29.5193H141.242C141.312 29.5193 141.376 29.555 141.414 29.6149L148.805 41.3415C148.846 41.4066 148.849 41.4886 148.814 41.5558C148.778 41.6231 148.71 41.6661 148.634 41.6661H148.635ZM130.185 41.2459H148.26L141.132 29.9395H130.185V41.2459Z" fill="white"/>
<path d="M141.244 29.7294L129.981 11.8464V29.7294H141.244Z" fill="#1D1D1B"/>
<path d="M141.243 29.9395H129.982C129.87 29.9395 129.778 29.845 129.778 29.7294V11.8464C129.778 11.7529 129.837 11.6709 129.924 11.6447C130.01 11.6184 130.103 11.6541 130.153 11.7319L141.415 29.6149C141.455 29.68 141.458 29.762 141.423 29.8292C141.387 29.8964 141.319 29.9395 141.243 29.9395ZM130.186 29.5193H140.869L130.186 12.5555V29.5193Z" fill="white"/>
<path d="M141.244 11.8464H129.982L141.244 29.7294C146.03 29.7294 149.911 25.7267 149.911 20.7879C149.911 15.8491 146.03 11.8464 141.244 11.8464Z" fill="#1D1D1B"/>
<path d="M141.244 29.9396C141.174 29.9396 141.11 29.9038 141.073 29.844L129.811 11.9609C129.77 11.8958 129.767 11.8138 129.803 11.7466C129.839 11.6794 129.907 11.6363 129.982 11.6363H141.244C146.135 11.6363 150.114 15.742 150.114 20.7879C150.114 25.8339 146.135 29.9396 141.244 29.9396ZM130.357 12.0565L141.354 29.5183C145.97 29.4573 149.707 25.5639 149.707 20.7879C149.707 16.012 145.911 12.0565 141.244 12.0565H130.357Z" fill="white"/>
<path d="M160.271 11.8464L143.202 41.456H177.34L160.271 11.8464Z" fill="#1D1D1B"/>
<path d="M177.34 41.6662H143.202C143.129 41.6662 143.062 41.6252 143.025 41.5601C142.988 41.4939 142.989 41.414 143.027 41.3489L160.096 11.7392C160.132 11.6752 160.199 11.6363 160.271 11.6363C160.343 11.6363 160.409 11.6752 160.446 11.7392L177.515 41.3489C177.553 41.414 177.554 41.4949 177.517 41.5601C177.48 41.6252 177.413 41.6662 177.34 41.6662ZM143.56 41.2459H176.981L160.271 12.2582L143.561 41.2459H143.56Z" fill="white"/>
<path d="M172.373 32.8402V41.456H177.339L172.373 32.8402Z" fill="#1D1D1B"/>
<path d="M177.34 41.6661H172.373C172.261 41.6661 172.169 41.5716 172.169 41.456V32.8391C172.169 32.7446 172.23 32.6616 172.319 32.6364C172.407 32.6122 172.501 32.65 172.548 32.732L177.515 41.3488C177.553 41.414 177.554 41.4949 177.517 41.56C177.48 41.6251 177.413 41.6661 177.34 41.6661ZM172.576 41.2459H176.981L172.576 33.6039V41.2459Z" fill="white"/>
<path d="M143.202 41.456H148.636L145.799 36.9521L143.202 41.456Z" fill="#1D1D1B"/>
<path d="M148.636 41.6662H143.202C143.129 41.6662 143.062 41.6252 143.025 41.56C142.988 41.4939 142.989 41.414 143.027 41.3489L145.624 36.845C145.659 36.783 145.724 36.7442 145.795 36.7421C145.869 36.7421 145.931 36.7767 145.97 36.8377L148.807 41.3415C148.848 41.4067 148.851 41.4886 148.815 41.5558C148.779 41.6231 148.711 41.6662 148.636 41.6662ZM143.561 41.2459H148.261L145.807 37.3504L143.562 41.2459H143.561Z" fill="white"/>
<path d="M170.741 41.456C170.741 35.4908 166.054 30.6539 160.271 30.6539C154.488 30.6539 149.801 35.4898 149.801 41.456H170.741Z" fill="#1D1D1B"/>
<path d="M170.741 41.6661H149.8C149.688 41.6661 149.597 41.5716 149.597 41.456C149.597 35.3836 154.385 30.4438 160.271 30.4438C166.156 30.4438 170.944 35.3836 170.944 41.456C170.944 41.5716 170.853 41.6661 170.741 41.6661ZM150.006 41.2459H170.535C170.426 35.5023 165.863 30.864 160.271 30.864C154.678 30.864 150.115 35.5023 150.006 41.2459Z" fill="white"/>
</g>
<defs>
<clipPath id="clip0_1198_163009">
<rect width="117.818" height="54" fill="white" transform="translate(108)"/>
</clipPath>
</defs>
</svg>
