<svg width="20" height="18" viewBox="0 0 20 18" fill="none" xmlns="http://www.w3.org/2000/svg">
<path fill-rule="evenodd" clip-rule="evenodd" d="M13.6786 18H15.0893C16.6179 18 17.8571 16.7608 17.8571 15.2321V12H11.7409C12.1022 12.4093 12.3214 12.9469 12.3214 13.5357V16.6429C12.3214 17.3924 12.929 18 13.6786 18ZM8.2591 12H2.14286V15.2321C2.14286 16.7608 3.38207 18 4.91071 18H6.32143C7.07096 18 7.67857 17.3924 7.67857 16.6429V13.5357C7.67857 12.9469 7.8978 12.4093 8.2591 12Z" fill="#AC6DFF"/>
<path d="M1.46172 9.64286H2.14286V12H8.2591C8.68446 11.5182 9.30674 11.2143 10 11.2143C10.6933 11.2143 11.3155 11.5182 11.7409 12H17.8571V9.64286H18.5383C19.031 9.64286 19.4667 9.3991 19.7315 9.02561C19.9006 8.78712 20 8.49574 20 8.18114C20 7.74934 19.8091 7.33963 19.4784 7.0619L11.8918 0.689135C11.3619 0.244018 10.692 0 10 0C9.30796 0 8.63807 0.244018 8.10817 0.689135L0.521551 7.0619C0.190918 7.33963 0 7.74934 0 8.18114C0 8.49574 0.0993848 8.78712 0.26847 9.02561C0.533274 9.3991 0.969029 9.64286 1.46172 9.64286Z" fill="#E6D4FF"/>
</svg>
