<svg width="22" height="20" viewBox="0 0 22 20" fill="none" xmlns="http://www.w3.org/2000/svg">
<path fill-rule="evenodd" clip-rule="evenodd" d="M14.6786 19H16.0893C17.6179 19 18.8571 17.7608 18.8571 16.2321V10.6429H19.5383C20.031 10.6429 20.4667 10.3991 20.7315 10.0256C20.9006 9.78712 21 9.49574 21 9.18114C21 8.74934 20.8091 8.33963 20.4784 8.0619L14.4524 3H7.54762L1.52155 8.0619C1.19092 8.33963 1 8.74934 1 9.18114C1 9.49574 1.09938 9.78712 1.26847 10.0256C1.53327 10.3991 1.96903 10.6429 2.46172 10.6429H3.14286V16.2321C3.14286 17.7608 4.38207 19 5.91071 19H7.32143C8.07096 19 8.67857 18.3924 8.67857 17.6429V14.5357C8.67857 13.2536 9.71791 12.2143 11 12.2143C12.2821 12.2143 13.3214 13.2536 13.3214 14.5357V17.6429C13.3214 18.3924 13.929 19 14.6786 19Z" fill="#AC6DFF"/>
<path d="M11 1C10.308 1 9.63807 1.24402 9.10817 1.68913L7.54762 3H14.4524L12.8918 1.68914C12.3619 1.24402 11.692 1 11 1Z" fill="#E6D4FF"/>
<path d="M7.54762 3L9.10817 1.68913C9.63807 1.24402 10.308 1 11 1C11.692 1 12.3619 1.24402 12.8918 1.68914L14.4524 3M7.54762 3L1.52155 8.0619C1.19092 8.33963 1 8.74934 1 9.18114C1 9.49574 1.09938 9.78712 1.26847 10.0256C1.53327 10.3991 1.96903 10.6429 2.46172 10.6429H3.14286V16.2321C3.14286 17.7608 4.38207 19 5.91071 19H7.32143C8.07096 19 8.67857 18.3924 8.67857 17.6429V14.5357C8.67857 13.2536 9.71791 12.2143 11 12.2143C12.2821 12.2143 13.3214 13.2536 13.3214 14.5357V17.6429C13.3214 18.3924 13.929 19 14.6786 19H16.0893C17.6179 19 18.8571 17.7608 18.8571 16.2321V10.6429H19.5383C20.031 10.6429 20.4667 10.3991 20.7315 10.0256C20.9006 9.78712 21 9.49574 21 9.18114C21 8.74934 20.8091 8.33963 20.4784 8.0619L14.4524 3M7.54762 3H14.4524" stroke="#721ED2"/>
</svg>
