<svg width="176" height="124" viewBox="0 0 176 124" fill="none" xmlns="http://www.w3.org/2000/svg">
<path d="M79.1001 118.46C79.7301 118.5 80.3601 118.56 80.9901 118.66C82.1501 118.84 83.4301 119.11 84.4201 118.49C84.9701 118.15 85.3301 117.59 85.7401 117.09C87.0601 115.5 89.0301 114.47 91.0901 114.31C92.1601 114.23 93.3101 114.35 94.2301 113.79C95.0801 113.28 95.5301 112.31 95.9301 111.4C96.7901 109.47 97.7101 107.52 99.1101 105.95C100.52 104.38 102.51 103.2 104.62 103.23C106.96 103.27 109.01 104.73 110.79 106.25C112.76 107.93 114.61 109.76 116.29 111.74C116.5 111.98 116.71 112.24 117.01 112.36C117.26 112.46 117.55 112.46 117.82 112.45C124.77 112.28 151.47 111.72 151.47 111.71C151.47 107.67 152.1 103.68 153.31 99.8199C151.98 96.9399 152.05 93.2399 152.72 90.1999C153.49 86.6999 155.05 83.4299 156.68 80.2599C159.11 75.5399 174.86 44.5099 174.86 44.5099C170.59 43.2799 166.1 42.0899 162.09 40.1399C159.81 39.0299 157.74 37.5099 155.89 35.7899C151.59 31.7999 148.31 27.2299 146.96 21.4399C145.31 21.3899 138.81 20.8799 137.52 21.8099C136.66 22.4299 136.23 23.4799 136.01 24.5199C135.79 25.5599 135.75 26.6199 135.47 27.6399C135.29 28.2999 135 28.9499 134.5 29.4299C133.4 30.4899 131.66 30.4099 130.16 30.1099C128.66 29.8099 127.09 29.3499 125.66 29.8799C124.6 30.2699 123.76 31.2099 123.49 32.3099C123.26 33.2399 123.42 34.2099 123.46 35.1699C123.5 36.1299 123.37 37.1699 122.7 37.8499C122.09 38.4699 121.14 38.6599 120.28 38.5199C119.42 38.3799 118.64 37.9599 117.91 37.4899C116.52 36.6099 115.24 35.5599 114.1 34.3799C113.29 33.5399 112.52 32.5499 112.4 31.3899C112.25 29.9999 113.05 28.7099 113.37 27.3599C113.91 25.1199 113.13 22.7899 112.34 20.6199C111.17 17.3899 109.94 14.1499 109.45 10.7499C109.04 7.89991 109.2 4.39991 106.32 2.84991C104.22 1.71991 101.32 1.72991 99.2401 2.91991C94.2501 5.78991 91.6101 11.5399 86.4101 14.1099C82.3201 16.1399 77.4201 16.5099 73.1501 14.7999C67.7301 12.6199 65.4101 7.16991 62.8601 2.34991C62.8601 2.34991 45.3701 4.65991 41.6201 7.01991C40.9001 7.51991 40.3001 8.28991 40.2201 9.16991C40.1101 10.3799 40.9701 11.4899 41.9801 12.1699C43.1601 12.9599 44.5601 13.3599 45.8001 14.0299C47.0401 14.6999 48.2201 15.8199 48.3201 17.2399C48.3901 18.2099 47.9001 19.2099 47.0901 19.7399C46.1101 20.3799 44.8301 20.3399 43.7001 20.0199C42.5701 19.6999 41.5301 19.1499 40.4101 18.8199C39.9901 18.6899 39.5401 18.5999 39.1101 18.6899C38.4501 18.8299 37.9301 19.3899 37.7001 20.0199C36.9601 22.0599 38.3601 24.2799 39.3701 25.9599C40.3101 27.5299 41.3801 29.0399 42.0801 30.7399C43.1501 33.3599 43.5901 36.1999 43.6201 39.0199C43.6601 42.1499 43.2101 45.2599 42.5301 48.3099C42.0801 50.3299 41.5301 52.3499 41.0001 54.2999C39.8501 58.5299 38.6701 62.8999 38.4701 67.2799C38.4401 67.8699 37.9601 68.3399 37.3501 68.3399C29.1001 68.2499 21.8101 68.5099 16.2101 72.6099C11.6201 75.9599 5.8001 88.0699 5.8001 88.0699L1.1001 96.9699C9.2401 99.1099 49.3101 111.22 68.9301 122.01C69.9801 120.11 71.9301 119.31 73.9401 118.87C75.6201 118.51 77.3601 118.37 79.0701 118.46H79.1001Z" fill="#EDF0FF"/>
</svg>
