<svg width="176" height="124" viewBox="0 0 176 124" fill="none" xmlns="http://www.w3.org/2000/svg">
<path d="M134.36 31.0601C133.79 29.7401 133.51 28.0501 134.32 26.7601C135.13 25.4701 136.75 25.0001 137.84 24.0401C139.35 22.7101 139.43 20.3201 138.75 18.4301C137.7 15.4801 135.63 12.5101 133.75 10.0201C131.77 7.40011 129.4 5.02011 126.46 3.50011C123.69 2.07011 120.26 1.58011 117.24 2.45011C115.71 2.89011 114.21 3.72011 113.18 4.93011C111.91 6.43011 111.09 8.21011 109.63 9.57011C108.03 11.0601 105.56 11.9501 103.63 10.9001C101.94 9.98011 101.24 7.93011 100.88 6.04011C100.64 4.76011 100.22 3.02011 98.58 3.06011C97.83 3.08011 97.14 3.44011 96.49 3.80011C92.76 5.84011 89.17 8.11011 85.49 10.2101C82.21 12.0901 78.24 13.6801 74.75 11.3601C73.97 10.8401 73.29 10.1801 72.48 9.72011C71.67 9.26011 70.65 9.01011 69.8 9.39011C68.98 9.76011 68.5 10.6201 68.25 11.4801C67.81 13.0101 67.94 14.6401 67.78 16.2301C67.21 21.8001 63.08 25.4901 58.26 27.7001C54.41 29.4701 49.03 30.3101 45.86 26.8201C44.98 25.8501 44.33 24.6801 43.79 23.4901C43.36 22.5501 42.78 21.5101 41.76 22.4101C39.88 24.0501 38.14 25.8501 36.56 27.7801C35.3 29.3101 33.01 31.6101 32.78 33.6701C32.71 34.2601 32.95 34.8501 33.3 35.3201C33.77 35.9601 34.44 36.4101 34.94 37.0101C36.82 39.2701 36.04 42.2601 35.98 44.9201C35.91 48.0601 36.15 51.2701 37.36 54.2101C38 55.7701 38.93 57.3301 38.79 59.0101C38.64 60.8201 37.27 62.4001 37.28 64.2201C37.28 65.1601 37.65 66.0501 38.07 66.8901C39.33 69.4501 41.08 71.9301 41.17 74.8901C41.21 76.3001 40.8 77.7601 39.84 78.7801C39.39 79.2601 38.83 79.6401 38.44 80.1701C37.42 81.5501 38.41 82.4901 39.77 82.2701C41.13 82.0501 42.35 81.2301 43.44 80.5601C45.51 79.3001 47.47 77.8301 49.35 76.3101C50.56 75.3301 51.71 74.3901 52.81 73.6101C55.54 71.6701 58.67 69.6901 62.18 70.3401C64.4 70.7501 66.47 72.4601 66.83 74.6901C66.94 75.3801 66.96 76.2101 67.55 76.5901C68.04 76.9001 68.67 76.7201 69.23 76.5801C71.99 75.8901 74.91 76.4401 77.59 77.3901C80.27 78.3401 82.79 79.6801 85.46 80.6401C87.81 81.4801 90.28 82.0301 92.53 83.1201C93.84 83.7501 95.01 84.6201 95.94 85.7401C96.65 86.5901 97.29 88.7301 98.3 89.1301C98.71 89.2901 99.17 89.2801 99.61 89.2601C101.62 89.1601 103.64 88.9301 105.65 88.9801C108.15 89.0401 110.88 89.5401 112.74 91.3301C114.82 93.3401 114.8 96.3901 113.62 98.8701C112.03 102.22 108.79 104.04 107.68 107.74C107.18 109.41 106.93 111.14 106.55 112.83C106.3 113.94 105.99 115.1 106.32 116.19C106.73 117.54 107.7 117.63 108.84 117.71C110.27 117.81 111.47 118.39 112.6 119.26C113.62 120.05 114.54 120.97 115.62 121.68C115.88 121.85 116.16 122.01 116.46 122.03C117.65 122.1 119.43 119.05 120 118.17C121.06 116.56 121.95 114.75 122.37 112.86C124.62 102.94 124.32 92.3901 124.02 82.2001C123.87 76.9501 123.82 71.7001 123.82 66.4501C123.82 62.7301 124.62 59.6701 127.38 57.0401C129.19 55.3201 131.35 54.0001 133.29 52.4201C136.31 49.9501 138.66 46.8801 140.45 43.4301C140.73 42.8901 143.07 37.1501 143.19 37.1801C139.48 36.3801 135.98 34.8401 134.35 31.1701C134.34 31.1501 134.33 31.1201 134.32 31.0901L134.36 31.0601Z" fill="#EDF0FF"/>
</svg>
