<svg width="822" height="580" viewBox="0 0 822 580" fill="none" xmlns="http://www.w3.org/2000/svg">
<path d="M627.522 145.292C624.86 139.127 623.553 131.234 627.336 125.209C631.119 119.184 638.685 116.989 643.776 112.505C650.828 106.293 651.202 95.131 648.026 86.3038C643.122 72.526 633.454 58.6547 624.673 47.0253C615.426 34.7887 604.357 23.673 590.626 16.5739C577.689 9.89519 561.669 7.60667 547.564 11.67C540.418 13.725 533.413 17.6014 528.602 23.2527C522.671 30.2584 518.841 38.5718 512.022 44.9236C504.549 51.8826 493.013 56.0393 483.999 51.1353C476.106 46.8385 472.837 37.264 471.156 28.4369C470.035 22.4587 468.073 14.3321 460.414 14.5189C456.911 14.6123 453.688 16.2937 450.652 17.9751C433.231 27.5028 416.465 38.1047 399.277 47.9127C383.958 56.6931 365.416 64.1192 349.117 53.2837C345.474 50.8551 342.298 47.7726 338.515 45.6242C334.732 43.4758 329.968 42.3081 325.998 44.0829C322.168 45.811 319.926 49.8276 318.759 53.8442C316.704 60.99 317.311 68.6028 316.563 76.0288C313.901 102.043 294.612 119.277 272.101 129.599C254.119 137.866 228.992 141.789 214.187 125.489C210.077 120.959 207.041 115.494 204.519 109.936C202.511 105.546 199.802 100.689 195.038 104.892C186.258 112.552 178.131 120.959 170.752 129.973C164.867 137.118 154.172 147.86 153.098 157.482C152.771 160.237 153.892 162.993 155.526 165.188C157.721 168.177 160.851 170.279 163.186 173.081C171.966 183.636 168.323 197.601 168.043 210.024C167.716 224.689 168.837 239.682 174.488 253.413C177.477 260.699 181.821 267.984 181.167 275.831C180.466 284.284 174.068 291.664 174.115 300.164C174.115 304.554 175.843 308.711 177.804 312.634C183.689 324.59 191.862 336.173 192.283 349.998C192.469 356.583 190.555 363.402 186.071 368.166C183.969 370.408 181.354 372.182 179.532 374.658C174.768 381.103 179.392 385.493 185.744 384.466C192.096 383.438 197.794 379.608 202.885 376.479C212.552 370.594 221.707 363.729 230.487 356.63C236.138 352.053 241.509 347.662 246.647 344.019C259.397 334.959 274.016 325.711 290.409 328.747C300.777 330.662 310.445 338.648 312.127 349.064C312.64 352.286 312.734 356.163 315.489 357.937C317.778 359.385 320.72 358.545 323.336 357.891C336.226 354.668 349.864 357.237 362.381 361.674C374.897 366.111 386.667 372.369 399.137 376.853C410.113 380.776 421.649 383.345 432.157 388.436C438.276 391.378 443.74 395.441 448.084 400.672C451.4 404.642 454.389 414.637 459.106 416.505C461.021 417.252 463.169 417.206 465.224 417.112C474.612 416.645 484.046 415.571 493.434 415.804C505.11 416.085 517.86 418.42 526.547 426.78C536.262 436.168 536.168 450.412 530.657 461.995C523.231 477.641 508.099 486.141 502.915 503.422C500.579 511.222 499.412 519.302 497.637 527.195C496.469 532.379 495.022 537.797 496.563 542.887C498.478 549.193 503.008 549.613 508.332 549.987C515.011 550.454 520.616 553.162 525.893 557.226C530.657 560.915 534.954 565.212 539.998 568.528C541.212 569.322 542.52 570.069 543.921 570.163C549.479 570.49 557.793 556.245 560.455 552.135C565.405 544.615 569.562 536.162 571.524 527.335C582.032 481.004 580.631 431.731 579.23 384.139C578.529 359.619 578.296 335.099 578.296 310.579C578.296 293.205 582.032 278.913 594.923 266.63C603.376 258.597 613.464 252.432 622.525 245.053C636.63 233.517 647.605 219.178 655.965 203.065C657.273 200.543 668.202 173.735 668.763 173.875C651.435 170.138 635.089 162.946 627.476 145.805C627.429 145.712 627.382 145.572 627.336 145.432L627.522 145.292Z" fill="#EDEEF2"/>
<g filter="url(#filter0_d_711_30839)">
<circle cx="615" cy="223.227" r="8" fill="url(#paint0_linear_711_30839)"/>
</g>
<defs>
<filter id="filter0_d_711_30839" x="597" y="209.227" width="36" height="36" filterUnits="userSpaceOnUse" color-interpolation-filters="sRGB">
<feFlood flood-opacity="0" result="BackgroundImageFix"/>
<feColorMatrix in="SourceAlpha" type="matrix" values="0 0 0 0 0 0 0 0 0 0 0 0 0 0 0 0 0 0 127 0" result="hardAlpha"/>
<feMorphology radius="2" operator="erode" in="SourceAlpha" result="effect1_dropShadow_711_30839"/>
<feOffset dy="4"/>
<feGaussianBlur stdDeviation="6"/>
<feColorMatrix type="matrix" values="0 0 0 0 0.607843 0 0 0 0 0.615686 0 0 0 0 0.698039 0 0 0 0.4 0"/>
<feBlend mode="normal" in2="BackgroundImageFix" result="effect1_dropShadow_711_30839"/>
<feBlend mode="normal" in="SourceGraphic" in2="effect1_dropShadow_711_30839" result="shape"/>
</filter>
<linearGradient id="paint0_linear_711_30839" x1="607" y1="215.227" x2="623" y2="231.227" gradientUnits="userSpaceOnUse">
<stop stop-color="#929AFF"/>
<stop offset="1" stop-color="#AC6DFF"/>
</linearGradient>
</defs>
</svg>
