<svg width="176" height="124" viewBox="0 0 176 124" fill="none" xmlns="http://www.w3.org/2000/svg">
<path d="M53.7901 35.31C53.9901 36.85 54.1201 38.4 54.2201 39.95C54.5001 44.25 54.2801 48.5599 55.8301 52.6699C56.8401 55.34 58.4901 57.72 59.4601 60.4C60.5401 63.39 60.7301 66.62 60.9901 69.8C61.4201 75.04 62.0701 80.2699 62.9401 85.4599C63.1801 86.8899 63.5301 88.4699 64.7301 89.2899C65.6901 89.95 66.9801 89.95 67.9601 90.5799C69.0601 91.2799 69.5601 92.6599 69.5601 93.9599C69.5601 94.6899 67.4501 102.33 67.4501 102.33C67.4501 102.33 71.1401 101.94 72.8301 101.73C75.1201 101.44 77.4301 101.16 79.7301 101.29C82.0201 101.42 84.3601 101.98 86.2601 103.31C88.1601 104.64 89.7201 106.68 91.4601 108.34C92.2501 109.1 93.1601 109.83 94.2501 109.97C96.0101 110.21 97.5601 108.88 98.7701 107.59C100.39 105.87 101.1 104.69 101.36 101.95C101.62 99.2099 99.2801 95.85 99.5601 92.41C100.12 85.7599 103.46 80.31 106.83 74.75C109.61 70.16 112.48 65.63 115.45 61.15C116.84 59.06 118.36 56.95 119.93 55.2099C121.5 53.4699 125.38 50.34 125.38 50.34L119.41 45.74C113.85 41.47 106.93 36.15 102.91 32.68C96.5801 27.21 89.1101 21.06 80.5601 17.37C75.3001 15.1 69.5501 13.77 63.8001 14.04C60.1201 14.21 53.3501 15.0099 51.2801 18.5799C49.8801 20.9999 51.0001 24.02 51.8901 26.67C52.8301 29.47 53.4201 32.38 53.7901 35.31Z" fill="#EDF0FF"/>
</svg>
