<svg width="822" height="580" viewBox="0 0 822 580" fill="none" xmlns="http://www.w3.org/2000/svg">
<path d="M251.224 165.141C252.158 172.333 252.765 179.573 253.232 186.812C254.54 206.895 253.512 227.024 260.751 246.22C265.469 258.69 273.175 269.806 277.705 282.323C282.749 296.287 283.637 311.373 284.851 326.225C286.859 350.698 289.895 375.125 293.958 399.364C295.079 406.043 296.714 413.422 302.319 417.252C306.802 420.335 312.827 420.335 317.404 423.277C322.542 426.546 324.877 432.992 324.877 439.063C324.877 442.473 315.022 478.155 315.022 478.155C315.022 478.155 332.256 476.333 340.149 475.353C350.845 473.998 361.633 472.69 372.375 473.298C383.071 473.905 394 476.52 402.873 482.732C411.747 488.944 419.033 498.471 427.16 506.224C430.849 509.774 435.1 513.183 440.19 513.837C448.41 514.958 455.65 508.746 461.301 502.721C468.867 494.688 472.183 489.177 473.397 476.38C474.612 463.583 463.683 447.89 464.99 431.824C467.606 400.765 483.205 375.311 498.945 349.344C511.929 327.906 525.333 306.749 539.204 285.826C545.696 276.064 552.795 266.21 560.128 258.083C567.46 249.956 585.582 235.338 585.582 235.338L557.699 213.854C531.731 193.911 499.412 169.064 480.636 152.858C451.073 127.31 416.184 98.587 376.252 81.353C351.685 70.7511 324.83 64.5394 297.975 65.8004C280.788 66.5944 249.169 70.3308 239.501 87.0043C232.962 98.3068 238.193 112.412 242.35 124.788C246.74 137.866 249.496 151.457 251.224 165.141Z" fill="#EDEEF2"/>
<g filter="url(#filter0_d_711_30841)">
<circle cx="486" cy="188.227" r="8" fill="url(#paint0_linear_711_30841)"/>
</g>
<defs>
<filter id="filter0_d_711_30841" x="468" y="174.227" width="36" height="36" filterUnits="userSpaceOnUse" color-interpolation-filters="sRGB">
<feFlood flood-opacity="0" result="BackgroundImageFix"/>
<feColorMatrix in="SourceAlpha" type="matrix" values="0 0 0 0 0 0 0 0 0 0 0 0 0 0 0 0 0 0 127 0" result="hardAlpha"/>
<feMorphology radius="2" operator="erode" in="SourceAlpha" result="effect1_dropShadow_711_30841"/>
<feOffset dy="4"/>
<feGaussianBlur stdDeviation="6"/>
<feColorMatrix type="matrix" values="0 0 0 0 0.607843 0 0 0 0 0.615686 0 0 0 0 0.698039 0 0 0 0.4 0"/>
<feBlend mode="normal" in2="BackgroundImageFix" result="effect1_dropShadow_711_30841"/>
<feBlend mode="normal" in="SourceGraphic" in2="effect1_dropShadow_711_30841" result="shape"/>
</filter>
<linearGradient id="paint0_linear_711_30841" x1="478" y1="180.227" x2="494" y2="196.227" gradientUnits="userSpaceOnUse">
<stop stop-color="#929AFF"/>
<stop offset="1" stop-color="#AC6DFF"/>
</linearGradient>
</defs>
</svg>
