<svg width="176" height="124" viewBox="0 0 176 124" fill="none" xmlns="http://www.w3.org/2000/svg">
<path d="M115.99 13.9601C115.49 13.6001 114.99 13.2501 114.49 12.9101C109.85 9.69011 104.89 6.36011 99.25 6.00011C94.78 5.72011 90.44 7.36011 86.33 9.12011C83.61 10.2801 80.58 11.9501 80.1 14.8701C79.55 18.2601 82.75 20.9501 84.2 24.0701C86.24 28.4701 79.87 34.8201 79.87 36.5001C79.87 38.1801 85.57 44.7001 85.84 49.5701C86.02 52.9601 85.03 56.3101 83.73 59.4501C81.05 65.9501 77.02 71.9001 71.98 76.8101C65.47 83.1401 56.94 88.2601 54.03 96.8601C53.47 98.5101 53.15 100.29 53.56 101.98C53.88 103.28 54.62 104.44 55.41 105.52C59.09 110.51 64.33 114.29 70.17 116.34C71.64 116.86 73.16 117.27 74.69 117.55C75.67 117.73 77.51 118.37 78.31 117.59C79.21 116.72 79.68 114.42 80.26 113.27C81 111.82 81.81 110.4 82.69 109.02C87.82 100.93 94.78 94.2501 100.76 86.8201C113.56 70.9101 121.79 51.2201 123.31 30.8501C123.59 27.1301 123.6 23.2001 121.82 19.9201C120.48 17.4501 118.28 15.6201 115.97 13.9601H115.99Z" fill="#EDF0FF"/>
</svg>
