<svg width="328" height="232" viewBox="0 0 328 232" fill="none" xmlns="http://www.w3.org/2000/svg">
<path d="M275.222 28.085C276.508 23.0346 276.526 18.5059 269.426 17.3691C258.449 15.6359 247.286 19.3259 236.924 22.5314C228.37 25.1591 219.536 27.8987 210.33 28.4205C204.329 28.7 193.39 28.1037 187.351 19.8664C186.699 18.9905 186.084 18.0028 185.469 16.9964C184.165 14.8905 182.469 12.4305 181.5 12.6169C180.493 12.71 179.45 14.7228 178.443 16.6609C176.822 19.7732 174.809 23.6496 170.411 24.6932C164.261 26.1469 159.695 20.5187 158.185 18.6737C157.105 17.3319 155.986 15.6919 154.812 13.9214C150.675 7.75276 147.227 3.01913 142.848 3.80186C138.766 4.51004 136.81 9.54186 135.375 12.8405C132.915 18.5059 130.715 24.2459 128.908 30.1537C125.236 42.2487 122.907 54.6978 120.708 67.1282C119.515 73.8187 118.043 81.0682 112.88 85.5037C107.513 90.1255 99.015 90.7778 95.0827 96.6855C93.2936 99.3878 92.8091 102.724 91.6163 105.724C89.5477 110.942 85.3732 114.986 81.3104 118.844C73.3527 126.355 65.19 133.79 58.5368 142.531C49.7963 153.974 39.0245 173.02 49.9268 186.475C52.5173 189.662 56.17 192.215 57.4373 196.129C58.3132 198.85 57.8659 201.795 57.2509 204.571C57.0272 205.596 56.8036 206.733 57.3441 207.628C57.7727 208.336 58.5741 208.69 59.3382 209.025C72.7377 214.71 86.1186 220.394 99.5182 226.078C107.215 229.563 120.335 225.22 126.727 220.45C135.859 213.629 146.053 209.622 156.788 206.006C171.1 201.18 185.916 196.539 200.975 197.62C208.094 198.123 215.474 199.875 222.201 197.49C230.047 194.713 235.284 186.121 234.445 177.847C233.644 169.87 228.24 162.099 236.57 156.117C237.502 155.446 238.564 154.812 238.918 153.731C239.235 152.725 238.825 151.644 238.359 150.712C236.924 147.786 234.986 145.121 233.495 142.214C232.004 139.307 230.96 136.008 231.52 132.803C231.501 132.933 228.295 133.12 228.09 133.12C220.226 133.12 212.51 127.771 209.566 120.521C207.553 115.583 207.684 109.805 209.901 104.96C211.225 102.053 213.33 99.4623 216.07 97.8223C219.164 95.996 222.928 95.4928 226.469 96.0705C233.271 97.1887 239.608 101.885 242.906 107.886C244.304 110.439 245.012 113.086 245.124 115.695C247.528 114.502 249.522 113.365 250.249 111.613C251.05 109.675 250.305 106.917 249.522 103.972C248.087 98.5864 247.174 92.6041 251.945 88.5041C253.809 86.9014 256.175 85.9882 258.188 84.5719C260.462 82.9878 262.251 80.826 264.17 78.8505C266.09 76.875 268.289 74.9928 270.935 74.2287C273.582 73.4646 276.806 74.061 278.427 76.2973C280.757 75.235 282.248 72.7564 282.639 70.2219C283.03 67.6873 282.471 65.0782 281.577 62.6741C280.049 58.4996 277.57 54.7537 275.557 50.8028C273.526 46.8332 272.408 42.5655 272.743 38.0928C272.967 35.1109 274.402 31.4769 275.278 28.0664L275.222 28.085Z" fill="#EDEEF2"/>
<g filter="url(#filter0_d_723_31144)">
<circle cx="182" cy="143.909" r="4" fill="url(#paint0_linear_723_31144)"/>
</g>
<defs>
<filter id="filter0_d_723_31144" x="168" y="133.909" width="28" height="28" filterUnits="userSpaceOnUse" color-interpolation-filters="sRGB">
<feFlood flood-opacity="0" result="BackgroundImageFix"/>
<feColorMatrix in="SourceAlpha" type="matrix" values="0 0 0 0 0 0 0 0 0 0 0 0 0 0 0 0 0 0 127 0" result="hardAlpha"/>
<feMorphology radius="2" operator="erode" in="SourceAlpha" result="effect1_dropShadow_723_31144"/>
<feOffset dy="4"/>
<feGaussianBlur stdDeviation="6"/>
<feColorMatrix type="matrix" values="0 0 0 0 0.607843 0 0 0 0 0.615686 0 0 0 0 0.698039 0 0 0 0.4 0"/>
<feBlend mode="normal" in2="BackgroundImageFix" result="effect1_dropShadow_723_31144"/>
<feBlend mode="normal" in="SourceGraphic" in2="effect1_dropShadow_723_31144" result="shape"/>
</filter>
<linearGradient id="paint0_linear_723_31144" x1="178" y1="139.909" x2="186" y2="147.909" gradientUnits="userSpaceOnUse">
<stop stop-color="#929AFF"/>
<stop offset="1" stop-color="#AC6DFF"/>
</linearGradient>
</defs>
</svg>
