<svg width="176" height="124" viewBox="0 0 176 124" fill="none" xmlns="http://www.w3.org/2000/svg">
<path d="M147.68 15.0699C148.37 12.3599 148.38 9.92989 144.57 9.31989C138.68 8.38989 132.69 10.3699 127.13 12.0899C122.54 13.4999 117.8 14.9699 112.86 15.2499C109.64 15.3999 103.77 15.0799 100.53 10.6599C100.18 10.1899 99.8499 9.65989 99.5199 9.11989C98.8199 7.98989 97.9099 6.6699 97.3899 6.7699C96.8499 6.8199 96.2899 7.89989 95.7499 8.93989C94.8799 10.6099 93.7999 12.6899 91.4399 13.2499C88.1399 14.0299 85.6899 11.0099 84.8799 10.0199C84.2999 9.2999 83.6999 8.41989 83.0699 7.46989C80.8499 4.15989 78.9999 1.6199 76.6499 2.0399C74.4599 2.4199 73.4099 5.11989 72.6399 6.88989C71.3199 9.92989 70.1399 13.0099 69.1699 16.1799C67.1999 22.6699 65.9499 29.3499 64.7699 36.0199C64.1299 39.6099 63.3399 43.4999 60.5699 45.8799C57.6899 48.3599 53.1299 48.7099 51.0199 51.8799C50.0599 53.3299 49.7999 55.1199 49.1599 56.7299C48.0499 59.5299 45.8099 61.6999 43.6299 63.7699C39.3599 67.7999 34.9799 71.7899 31.4099 76.4799C26.7199 82.6199 20.9399 92.8399 26.7899 100.06C28.1799 101.77 30.1399 103.14 30.8199 105.24C31.2899 106.7 31.0499 108.28 30.7199 109.77C30.5999 110.32 30.4799 110.93 30.7699 111.41C30.9999 111.79 31.4299 111.98 31.8399 112.16C39.0299 115.21 46.2099 118.26 53.3999 121.31C57.5299 123.18 64.5699 120.85 67.9999 118.29C72.8999 114.63 78.3699 112.48 84.1299 110.54C91.8099 107.95 99.7599 105.46 107.84 106.04C111.66 106.31 115.62 107.25 119.23 105.97C123.44 104.48 126.25 99.8699 125.8 95.4299C125.37 91.1499 122.47 86.9799 126.94 83.7699C127.44 83.4099 128.01 83.0699 128.2 82.4899C128.37 81.9499 128.15 81.3699 127.9 80.8699C127.13 79.2999 126.09 77.8699 125.29 76.3099C124.49 74.7499 123.93 72.9799 124.23 71.2599C124.22 71.3299 122.5 71.4299 122.39 71.4299C118.17 71.4299 114.03 68.5599 112.45 64.6699C111.37 62.0199 111.44 58.9199 112.63 56.3199C113.34 54.7599 114.47 53.3699 115.94 52.4899C117.6 51.5099 119.62 51.2399 121.52 51.5499C125.17 52.1499 128.57 54.6699 130.34 57.8899C131.09 59.2599 131.47 60.6799 131.53 62.0799C132.82 61.4399 133.89 60.8299 134.28 59.8899C134.71 58.8499 134.31 57.3699 133.89 55.7899C133.12 52.8999 132.63 49.6899 135.19 47.4899C136.19 46.6299 137.46 46.1399 138.54 45.3799C139.76 44.5299 140.72 43.3699 141.75 42.3099C142.78 41.2499 143.96 40.2399 145.38 39.8299C146.8 39.4199 148.53 39.7399 149.4 40.9399C150.65 40.3699 151.45 39.0399 151.66 37.6799C151.87 36.3199 151.57 34.9199 151.09 33.6299C150.27 31.3899 148.94 29.3799 147.86 27.2599C146.77 25.1299 146.17 22.8399 146.35 20.4399C146.47 18.8399 147.24 16.8899 147.71 15.0599L147.68 15.0699Z" fill="#EDF0FF"/>
</svg>
