<svg width="822" height="580" viewBox="0 0 822 580" fill="none" xmlns="http://www.w3.org/2000/svg">
<path d="M689.733 70.7474C692.956 58.0905 693.002 46.7413 675.208 43.8923C647.699 39.5488 619.723 48.7963 593.755 56.8295C572.318 63.4148 550.18 70.2804 527.108 71.5881C512.069 72.2887 484.653 70.7941 469.521 50.1507C467.886 47.9556 466.345 45.4803 464.804 42.9582C461.534 37.6806 457.284 31.5156 454.856 31.9826C452.334 32.2162 449.718 37.2602 447.196 42.1175C443.133 49.9172 438.089 59.6317 427.067 62.2472C411.654 65.8901 400.211 51.7854 396.428 47.1616C393.719 43.7989 390.917 39.6889 387.975 35.252C377.606 19.7927 368.966 7.9298 357.991 9.89139C347.762 11.6662 342.858 24.2764 339.262 32.5431C333.097 46.7413 327.586 61.1263 323.056 75.9316C313.855 106.243 308.017 137.442 302.506 168.593C299.516 185.36 295.827 203.528 282.89 214.644C269.439 226.227 248.141 227.862 238.287 242.667C233.803 249.439 232.589 257.799 229.6 265.319C224.416 278.396 213.954 288.531 203.772 298.199C183.829 317.02 163.373 335.656 146.699 357.56C124.795 386.237 97.7995 433.969 125.122 467.689C131.614 475.676 140.768 482.074 143.944 491.882C146.139 498.701 145.018 506.08 143.477 513.039C142.916 515.608 142.356 518.457 143.71 520.699C144.784 522.474 146.793 523.361 148.707 524.202C182.288 538.447 215.822 552.692 249.402 566.936C268.691 575.67 301.571 564.788 317.591 552.832C340.476 535.738 366.024 525.696 392.926 516.636C428.795 504.539 465.925 492.91 503.662 495.619C521.503 496.88 539.998 501.27 556.858 495.292C576.521 488.333 589.645 466.802 587.543 446.065C585.535 426.076 571.991 406.6 592.868 391.608C595.203 389.926 597.865 388.338 598.752 385.629C599.546 383.107 598.519 380.399 597.351 378.063C593.755 370.731 588.898 364.052 585.161 356.766C581.425 349.48 578.81 341.213 580.211 333.18C580.164 333.507 572.131 333.974 571.617 333.974C551.908 333.974 532.572 320.57 525.193 302.402C520.149 290.025 520.476 275.547 526.033 263.404C529.349 256.118 534.627 249.626 541.493 245.516C549.246 240.939 558.68 239.678 567.554 241.126C584.601 243.928 600.48 255.697 608.747 270.736C612.25 277.135 614.025 283.767 614.305 290.305C620.33 287.316 625.327 284.467 627.149 280.077C629.157 275.22 627.289 268.308 625.327 260.928C621.731 247.431 619.443 232.439 631.399 222.164C636.069 218.147 642.001 215.858 647.045 212.309C652.743 208.339 657.227 202.921 662.037 197.971C666.848 193.02 672.359 188.303 678.991 186.388C685.623 184.473 693.703 185.968 697.766 191.572C703.604 188.91 707.341 182.698 708.321 176.346C709.302 169.995 707.901 163.456 705.659 157.431C701.829 146.969 695.618 137.582 690.574 127.68C685.483 117.732 682.681 107.037 683.521 95.8278C684.082 88.355 687.678 79.2476 689.873 70.7007L689.733 70.7474Z" fill="#EDEEF2"/>
<g filter="url(#filter0_d_711_30847)">
<circle cx="467" cy="366.364" r="8" fill="url(#paint0_linear_711_30847)"/>
</g>
<defs>
<filter id="filter0_d_711_30847" x="449" y="352.364" width="36" height="36" filterUnits="userSpaceOnUse" color-interpolation-filters="sRGB">
<feFlood flood-opacity="0" result="BackgroundImageFix"/>
<feColorMatrix in="SourceAlpha" type="matrix" values="0 0 0 0 0 0 0 0 0 0 0 0 0 0 0 0 0 0 127 0" result="hardAlpha"/>
<feMorphology radius="2" operator="erode" in="SourceAlpha" result="effect1_dropShadow_711_30847"/>
<feOffset dy="4"/>
<feGaussianBlur stdDeviation="6"/>
<feColorMatrix type="matrix" values="0 0 0 0 0.607843 0 0 0 0 0.615686 0 0 0 0 0.698039 0 0 0 0.4 0"/>
<feBlend mode="normal" in2="BackgroundImageFix" result="effect1_dropShadow_711_30847"/>
<feBlend mode="normal" in="SourceGraphic" in2="effect1_dropShadow_711_30847" result="shape"/>
</filter>
<linearGradient id="paint0_linear_711_30847" x1="459" y1="358.364" x2="475" y2="374.364" gradientUnits="userSpaceOnUse">
<stop stop-color="#929AFF"/>
<stop offset="1" stop-color="#AC6DFF"/>
</linearGradient>
</defs>
</svg>
