<svg width="176" height="124" viewBox="0 0 176 124" fill="none" xmlns="http://www.w3.org/2000/svg">
<path d="M69.42 22.4901C65.42 31.9501 60.0201 40.8301 53.2701 48.5801C50.9501 51.2501 46.05 56.4001 46.05 56.4001C46.05 56.4001 52.37 58.5001 53.87 59.5801C57.98 62.5601 58.55 67.8801 57.76 72.5601C57.39 74.7401 56.78 76.8701 56.16 78.9801C55.59 80.9001 54.2 83.6501 54.8 85.6401C54.97 86.2101 55.32 86.7201 55.66 87.2101C57.34 89.6501 59 93.2201 61.73 94.6601C63.22 95.4401 64.3101 94.5201 65.8001 94.2301C67.8101 93.8401 69.7901 95.5501 70.2601 97.5401C70.7301 99.5301 69.98 101.63 68.89 103.36C67.79 105.09 66.3401 106.56 65.1501 108.23C64.6601 108.92 64.1901 109.72 64.2601 110.56C64.3601 111.7 65.3701 112.51 66.2201 113.27C67.5201 114.44 68.63 115.82 69.49 117.35C70.27 118.74 71.39 121.93 71.39 121.93L77.4401 116.81C77.4401 116.81 75.3601 111.15 75.6101 107.84C75.83 105 76.7401 102.27 78.1201 99.7901C80.9601 94.6701 85.56 90.7001 90.27 87.3401C93.49 85.0501 96.71 82.7501 99.95 80.4801C101.68 79.2701 103.45 78.0601 105.44 77.3901C108.82 76.2401 112.22 77.5901 115.61 76.6201C117.12 76.1901 118.53 74.6701 118.05 73.1801C117.79 72.3601 117.06 71.8001 116.5 71.1601C115.03 69.4801 114.67 67.0501 115.03 64.8401C115.43 62.3801 116.72 60.3101 117.51 57.9901C118.31 55.6501 118.75 53.1701 118.51 50.7001C118.35 49.1001 117.91 47.5401 117.73 45.9501C117.03 40.0201 119.9 34.0101 125.41 31.4501C126.88 30.7601 127.71 30.2001 128.49 28.7701C128.61 28.5601 129.98 25.7401 129.98 25.7401C129.98 25.7401 126.5 24.5101 124.83 23.7401C123.16 22.9701 121.46 22.0801 119.76 21.2601C116.37 19.6201 112.77 18.1701 109.01 18.1401C106.77 18.1201 104.73 18.9201 102.55 19.1001C101.08 19.2201 99.49 18.5701 98.27 17.7401C96.15 16.3001 94.7201 14.0801 93.5101 11.8701C92.2601 9.5801 91.32 7.1501 90.34 4.7301C89.38 5.3901 88.4101 6.0601 87.3001 6.4401C86.1901 6.8201 84.9301 6.8701 83.9101 6.3201C82.8401 5.7401 82.21 4.6301 81.46 3.6801C80.22 2.1101 78.68 1.8401 76.78 1.9601C75.28 2.0601 74.78 6.2601 74.52 7.3301C73.73 10.6301 70.21 20.7101 69.45 22.5001L69.42 22.4901Z" fill="#EDF0FF"/>
</svg>
