<svg width="328" height="232" viewBox="0 0 328 232" fill="none" xmlns="http://www.w3.org/2000/svg">
<path d="M296.262 64.8918C299.878 61.0154 304.984 56.9341 305.04 51.9022C305.17 40.7204 287.708 43.3854 280.589 43.7209C277.141 43.8886 273.172 43.6277 271.103 40.8695C270.19 39.6582 269.817 38.1486 269.165 36.7882C267.544 33.4336 264.282 31.1227 260.835 29.6691C257.405 28.2154 253.715 27.4513 250.156 26.2959C239.72 22.8482 229.935 15.6545 218.977 16.605C216.778 16.7913 214.616 17.3132 212.399 17.2759C210.2 17.2386 207.851 16.5118 206.547 14.7227C204.851 12.4118 205.41 9.03861 203.882 6.61588C201.832 3.37316 197.08 3.2427 193.427 4.45407C178.313 9.48588 168.808 28.4018 152.054 29.0913C150.507 29.1472 148.905 28.9795 147.6 28.1968C145.196 26.7432 144.376 23.7054 143.854 20.9472C142.885 15.8036 139.661 20.3509 137.853 22.2518C136.288 23.8918 134.499 25.2895 132.542 26.4077C131.647 26.9295 130.678 27.3954 129.97 28.1595C127.417 30.8804 131.293 37.72 130.902 41.2422C130.604 43.9445 129.15 46.4977 126.951 48.1191C124.454 49.9827 121.155 50.6163 118.807 52.685C116.701 54.5672 115.639 57.5677 116.105 60.3632C116.887 64.9291 121.285 68.2836 121.882 72.8868C122.236 75.5704 121.118 78.4032 119.03 80.1177C117.968 80.9936 116.57 81.7204 116.216 83.0622C115.918 84.1804 116.477 85.3359 116.925 86.3982C119.459 92.3618 118.956 99.22 115.825 104.848C112.545 110.737 106.88 114.222 100.264 115.098C94.9895 115.806 89.6409 115.154 84.3109 115.08C74.4336 114.949 64.6123 116.85 55.2755 120.018C47.2432 122.739 38.2418 125.646 31.9614 131.591C27.0227 136.269 22.5873 145.121 22.9227 152.035C23.0345 154.421 26.3518 152.147 27.7682 151.625C30.0045 150.805 32.2782 150.041 34.6077 149.445C39.2668 148.252 44.1682 147.73 48.9018 148.849C54.8095 150.246 59.8414 154.011 65.1527 156.974C69.1782 159.229 73.7814 161.149 78.4964 160.981C83.1741 160.832 87.9823 158.912 92.3618 157.421C97.6545 155.595 103.134 153.713 108.911 153.545C110.756 153.47 113.514 153.582 115.862 155.129C119.254 157.365 120.242 161.521 120.82 164C122.478 171.045 123.95 178.145 125.889 185.115C126.317 186.643 126.802 188.227 127.864 189.401C129.374 191.097 131.666 191.619 133.38 193.035C135.095 194.452 136.325 196.576 137.108 198.645C138.543 202.465 138.561 206.659 138.263 210.684C137.89 215.585 137.443 221.698 140.723 224.885C148.159 232.079 161.428 221.4 169.2 219.909C172.908 219.201 176.785 219.406 180.456 218.549C184.183 217.691 187.556 215.772 191.097 214.3C198.533 211.187 206.584 210.069 214.523 209.063C221.81 208.15 229.805 207.814 236.346 204.087C243.652 199.931 247.957 192.01 250.92 184.146C253.063 178.443 254.722 172.535 257.629 167.168C262.773 157.701 272.482 152.8 277.626 143.37C279.21 140.481 280.459 137.015 279.322 133.921C278.576 131.871 276.88 130.324 275.744 128.46C273.712 125.143 274.942 121.546 278.744 120.559C278.893 120.521 279.061 120.484 279.191 120.428C279.191 120.316 279.229 119.496 278.893 118.807C276.675 114.204 273.787 110.719 276.936 105.519C279.564 101.158 284.503 100.58 287.671 97.0768C290.634 93.7968 291.007 89.0072 290.802 84.7954C290.485 78.5895 290.448 72.8868 294.045 67.5382C294.641 66.6436 295.405 65.7677 296.244 64.8545L296.262 64.8918Z" fill="#EDEEF2"/>
<g filter="url(#filter0_d_723_31148)">
<circle cx="210" cy="157.909" r="4" fill="url(#paint0_linear_723_31148)"/>
</g>
<defs>
<filter id="filter0_d_723_31148" x="196" y="147.909" width="28" height="28" filterUnits="userSpaceOnUse" color-interpolation-filters="sRGB">
<feFlood flood-opacity="0" result="BackgroundImageFix"/>
<feColorMatrix in="SourceAlpha" type="matrix" values="0 0 0 0 0 0 0 0 0 0 0 0 0 0 0 0 0 0 127 0" result="hardAlpha"/>
<feMorphology radius="2" operator="erode" in="SourceAlpha" result="effect1_dropShadow_723_31148"/>
<feOffset dy="4"/>
<feGaussianBlur stdDeviation="6"/>
<feColorMatrix type="matrix" values="0 0 0 0 0.607843 0 0 0 0 0.615686 0 0 0 0 0.698039 0 0 0 0.4 0"/>
<feBlend mode="normal" in2="BackgroundImageFix" result="effect1_dropShadow_723_31148"/>
<feBlend mode="normal" in="SourceGraphic" in2="effect1_dropShadow_723_31148" result="shape"/>
</filter>
<linearGradient id="paint0_linear_723_31148" x1="206" y1="153.909" x2="214" y2="161.909" gradientUnits="userSpaceOnUse">
<stop stop-color="#929AFF"/>
<stop offset="1" stop-color="#AC6DFF"/>
</linearGradient>
</defs>
</svg>
