<svg width="822" height="580" viewBox="0 0 822 580" fill="none" xmlns="http://www.w3.org/2000/svg">
<path d="M419.827 525.37C420.014 525.089 420.154 524.856 420.341 524.576C426.786 513.787 434.679 503.045 444.254 492.209C482.131 449.428 529.77 416.408 558.96 366.107C583.48 323.839 591.934 249.439 644.616 249.159C654.938 249.112 667.642 196.429 657.133 195.729C649.473 197.504 642.888 200.399 634.715 200.353C626.542 200.306 618.742 198.811 611.129 196.429C597.118 192.039 584.134 185.127 570.683 179.382C556.438 173.311 541.82 168.22 527.621 161.821C519.588 158.225 511.788 151.78 511.181 142.392C510.901 138.095 512.115 133.845 512.115 129.502C512.115 118.806 503.802 108.671 493.293 106.663C489.043 105.823 484.7 106.196 480.356 106.056C466.392 105.496 448.317 98.9102 444.207 83.9648C441.451 73.7832 454.435 60.7993 449.158 48.9364C446.028 42.8648 418.052 53.1865 413.148 54.5409C382.557 62.9477 352.339 70.8408 320.86 61.8735C307.97 58.1839 295.64 52.2057 282.376 50.1507C259.023 46.5544 244.592 61.0796 229.646 76.352C214.561 91.7645 198.775 107.831 186.631 125.672C174.488 143.513 168.043 163.316 164.587 183.866C160.43 208.292 160.757 233.233 161.037 257.986C161.364 283.206 161.645 308.474 161.971 333.694C162.205 353.03 158.282 379.091 172.34 394.877C185.791 410.009 212.039 407.814 230.58 404.872C253.746 401.135 282.609 396.558 303.766 412.578C321.981 426.356 327.025 448.821 328.893 470.352C329.874 481.561 330.108 492.863 331.135 504.072C332.023 513.413 332.63 528.265 343.559 531.721C350.985 534.057 360.092 531.815 367.752 531.628C377.233 531.348 386.667 531.488 396.148 532.002C404.135 532.469 414.783 533.029 419.781 525.37H419.827Z" fill="#EDEEF2"/>
<g filter="url(#filter0_d_711_30853)">
<circle cx="377" cy="290.364" r="8" fill="url(#paint0_linear_711_30853)"/>
</g>
<defs>
<filter id="filter0_d_711_30853" x="359" y="276.364" width="36" height="36" filterUnits="userSpaceOnUse" color-interpolation-filters="sRGB">
<feFlood flood-opacity="0" result="BackgroundImageFix"/>
<feColorMatrix in="SourceAlpha" type="matrix" values="0 0 0 0 0 0 0 0 0 0 0 0 0 0 0 0 0 0 127 0" result="hardAlpha"/>
<feMorphology radius="2" operator="erode" in="SourceAlpha" result="effect1_dropShadow_711_30853"/>
<feOffset dy="4"/>
<feGaussianBlur stdDeviation="6"/>
<feColorMatrix type="matrix" values="0 0 0 0 0.607843 0 0 0 0 0.615686 0 0 0 0 0.698039 0 0 0 0.4 0"/>
<feBlend mode="normal" in2="BackgroundImageFix" result="effect1_dropShadow_711_30853"/>
<feBlend mode="normal" in="SourceGraphic" in2="effect1_dropShadow_711_30853" result="shape"/>
</filter>
<linearGradient id="paint0_linear_711_30853" x1="369" y1="282.364" x2="385" y2="298.364" gradientUnits="userSpaceOnUse">
<stop stop-color="#929AFF"/>
<stop offset="1" stop-color="#AC6DFF"/>
</linearGradient>
</defs>
</svg>
