<svg width="328" height="232" viewBox="0 0 328 232" fill="none" xmlns="http://www.w3.org/2000/svg">
<path d="M293.075 76.0924C290.038 74.266 286.199 74.2846 282.043 74.5083C277.626 74.7506 273.19 74.9556 268.755 75.1233C259.623 75.4587 250.435 75.4215 241.378 74.1728C231.911 72.8683 222.555 70.5387 213.685 66.9978C209.529 65.3392 205.485 63.4569 201.683 61.1087C199.726 59.8974 194.62 56.4124 192.439 58.8351C191.507 59.7669 191.507 63.7551 191.507 66.3642C191.489 71.5265 190.669 76.3719 190.091 81.4224C189.066 90.4983 186.01 102.351 176.337 105.836C172.722 107.141 168.603 106.936 165.137 105.296C161.484 103.562 158.726 100.413 155.502 97.9715C153.042 96.0892 149.93 94.5051 146.761 94.6728C143.425 94.8592 139.922 96.201 136.623 96.7974C129.336 98.1392 121.882 98.456 115.005 95.2319C104.811 90.461 101.736 79.4283 105.91 69.346C107.998 64.3142 111.688 59.9719 115.173 55.7415C118.192 52.0887 124.025 46.1251 124.062 41.0933C124.062 40.9442 112.899 44.8392 111.893 45.2492C107.364 47.0942 102.891 49.0696 98.4932 51.1756C89.79 55.3315 81.3477 60.0092 73.2036 65.1715C68.88 67.911 64.4818 70.8556 59.45 71.7874C54.6791 72.6819 49.7591 71.6756 45.1559 70.166C40.4223 68.6192 35.7445 66.3456 30.8991 65.2646C29.4082 64.9292 25.3455 83.6028 25.0845 85.3733C23.8173 93.946 24.4882 102.798 27.0973 111.054C28.7186 116.179 31.0855 121.136 31.5886 126.485C32.1664 132.616 30.2095 138.711 27.7309 144.32C26.2773 147.6 25.83 148.308 29.3523 149.333C34.4773 150.824 39.5091 152.613 44.3918 154.775C49.4236 156.993 54.8841 158.856 60.3259 158.055C71.1909 156.434 79.0741 145.587 87.3859 139.363C96.7973 132.318 108.165 127.883 119.888 126.709C123.634 126.336 127.417 126.28 131.163 126.597C136.269 127.007 141.636 128.218 145.233 131.852C149.78 136.474 150.209 144.003 147.991 150.097C145.68 156.434 140.965 160.608 137.22 165.976C134.07 170.467 129.43 176.934 131.181 182.767C132.654 187.724 139.083 190.333 144.674 190.203C154.943 189.961 163.646 181.984 171.436 176.226C179.934 169.945 188.73 163.683 198.869 160.366C213.517 155.558 230.085 157.161 243.782 150.097C248.758 147.526 253.082 143.929 257.219 140.183C261.356 136.437 264.841 132.374 269.687 130.007C280.57 124.715 293.43 126.988 303.791 135.71C303.605 125.87 303.176 115.993 302.133 106.209C301.257 97.9528 300.865 88.2246 297.12 80.6583C296.057 78.4965 294.697 77.0428 293.113 76.111L293.075 76.0924Z" fill="#EDEEF2"/>
<g filter="url(#filter0_d_723_31154)">
<circle cx="293" cy="111.909" r="4" fill="url(#paint0_linear_723_31154)"/>
</g>
<defs>
<filter id="filter0_d_723_31154" x="279" y="101.909" width="28" height="28" filterUnits="userSpaceOnUse" color-interpolation-filters="sRGB">
<feFlood flood-opacity="0" result="BackgroundImageFix"/>
<feColorMatrix in="SourceAlpha" type="matrix" values="0 0 0 0 0 0 0 0 0 0 0 0 0 0 0 0 0 0 127 0" result="hardAlpha"/>
<feMorphology radius="2" operator="erode" in="SourceAlpha" result="effect1_dropShadow_723_31154"/>
<feOffset dy="4"/>
<feGaussianBlur stdDeviation="6"/>
<feColorMatrix type="matrix" values="0 0 0 0 0.607843 0 0 0 0 0.615686 0 0 0 0 0.698039 0 0 0 0.4 0"/>
<feBlend mode="normal" in2="BackgroundImageFix" result="effect1_dropShadow_723_31154"/>
<feBlend mode="normal" in="SourceGraphic" in2="effect1_dropShadow_723_31154" result="shape"/>
</filter>
<linearGradient id="paint0_linear_723_31154" x1="289" y1="107.909" x2="297" y2="115.909" gradientUnits="userSpaceOnUse">
<stop stop-color="#929AFF"/>
<stop offset="1" stop-color="#AC6DFF"/>
</linearGradient>
</defs>
</svg>
