<svg width="176" height="124" viewBox="0 0 176 124" fill="none" xmlns="http://www.w3.org/2000/svg">
<path d="M157.26 40.8301C155.63 39.8501 153.57 39.8601 151.34 39.9801C148.97 40.1101 146.59 40.2201 144.21 40.3101C139.31 40.4901 134.38 40.4701 129.52 39.8001C124.44 39.1001 119.42 37.8501 114.66 35.9501C112.43 35.0601 110.26 34.0501 108.22 32.7901C107.17 32.1401 104.43 30.2701 103.26 31.5701C102.76 32.0701 102.76 34.2101 102.76 35.6101C102.75 38.3801 102.31 40.9801 102 43.6901C101.45 48.5601 99.8101 54.9201 94.62 56.7901C92.68 57.4901 90.47 57.3801 88.61 56.5001C86.65 55.5701 85.1701 53.8801 83.44 52.5701C82.12 51.5601 80.45 50.7101 78.75 50.8001C76.96 50.9001 75.08 51.6201 73.31 51.9401C69.4 52.6601 65.4 52.8301 61.71 51.1001C56.24 48.5401 54.59 42.6201 56.8301 37.2101C57.9501 34.5101 59.93 32.1801 61.8 29.9101C63.42 27.9501 66.55 24.7501 66.57 22.0501C66.57 21.9701 60.5801 24.0601 60.0401 24.2801C57.6101 25.2701 55.21 26.3301 52.85 27.4601C48.18 29.6901 43.65 32.2001 39.28 34.9701C36.96 36.4401 34.6 38.0201 31.9 38.5201C29.34 39.0001 26.7 38.4601 24.23 37.6501C21.69 36.8201 19.18 35.6001 16.58 35.0201C15.78 34.8401 13.6 44.8601 13.46 45.8101C12.78 50.4101 13.14 55.1601 14.54 59.5901C15.41 62.3401 16.68 65.0001 16.95 67.8701C17.26 71.1601 16.21 74.4301 14.88 77.4401C14.1 79.2001 13.86 79.5801 15.75 80.1301C18.5 80.9301 21.2 81.8901 23.82 83.0501C26.52 84.2401 29.45 85.2401 32.37 84.8101C38.2 83.9401 42.43 78.1201 46.89 74.7801C51.94 71.0001 58.0401 68.6201 64.3301 67.9901C66.34 67.7901 68.37 67.7601 70.38 67.9301C73.12 68.1501 76 68.8001 77.93 70.7501C80.37 73.2301 80.6001 77.2701 79.41 80.5401C78.1701 83.9401 75.64 86.1801 73.63 89.0601C71.94 91.4701 69.4501 94.9401 70.39 98.0701C71.18 100.73 74.63 102.13 77.63 102.06C83.14 101.93 87.81 97.6501 91.99 94.5601C96.55 91.1901 101.27 87.8301 106.71 86.0501C114.57 83.4701 123.46 84.3301 130.81 80.5401C133.48 79.1601 135.8 77.2301 138.02 75.2201C140.24 73.2101 142.11 71.0301 144.71 69.7601C150.55 66.9201 157.45 68.1401 163.01 72.8201C162.91 67.5401 162.68 62.2401 162.12 56.9901C161.65 52.5601 161.44 47.3401 159.43 43.2801C158.86 42.1201 158.13 41.3401 157.28 40.8401L157.26 40.8301Z" fill="#EDF0FF"/>
</svg>
