<svg width="822" height="580" viewBox="0 0 822 580" fill="none" xmlns="http://www.w3.org/2000/svg">
<path d="M780.526 182.838C773.848 176.533 764.227 172.844 755.399 175.272C747.086 177.561 741.948 184.426 736.11 190.171C729.292 196.85 721.865 203.155 713.505 207.779C689.359 221.089 659.795 219.268 633.641 227.955C598.425 239.678 574.186 275.967 535.795 278.022C515.898 279.096 492.499 268.635 485.821 246.356C481.244 231.084 486.475 215.765 495.348 203.202C500.813 195.449 507.211 188.349 511.975 180.176C519.541 167.286 486.988 175.459 481.571 177.234C467.933 181.671 455.556 189.377 444.767 198.718C430.382 211.141 414.036 225.246 391.851 225.713C363.268 226.274 340.85 200.212 311.893 213.99C307.269 216.185 303.019 219.128 298.302 221.089C269.205 232.952 244.452 213.103 226.003 193.067C218.998 185.454 211.805 177.094 202.464 172.236C192.656 167.146 182.428 168.5 171.593 168.967C147.493 169.995 123.487 172.89 99.8076 177.654C85.1424 180.597 86.7303 203.762 87.571 215.111C88.365 225.573 91.4942 234.727 90.0464 245.422C87.2908 265.645 69.403 281.992 55.3449 295.209C46.8914 303.103 16.1598 323.185 30.5915 336.076C34.935 339.952 40.3994 342.194 45.4435 345.137C61.3698 354.384 62.7242 376.335 66.8809 392.588C69.403 402.49 75.3344 412.158 87.2441 411.27C95.2773 410.663 102.003 405.012 107.467 399.034C128.578 375.822 140.954 348.032 169.864 332.667C195.225 319.216 225.116 315.759 253.372 319.543C271.494 321.971 289.288 327.389 305.541 335.796C327.119 346.958 345.567 361.857 361.773 378.577C382.23 365.827 415.951 358.914 431.55 358.914C431.55 358.914 431.643 358.914 431.69 358.914C451.866 359.008 471.763 364.846 490.304 372.505C508.005 379.838 525.753 388.805 545.229 389.693C573.905 391 599.873 374.607 625.607 361.904C655.638 347.052 688.285 336.543 721.772 335.235C732.607 334.815 744.611 335.235 754.512 330.051C764.88 324.633 771.793 313.051 776.883 302.962C793.65 269.942 812.005 213.57 780.853 183.165C780.713 183.025 780.62 182.932 780.48 182.792L780.526 182.838Z" fill="#EDEEF2"/>
<g filter="url(#filter0_d_711_30859)">
<circle cx="779" cy="247.273" r="8" fill="url(#paint0_linear_711_30859)"/>
</g>
<defs>
<filter id="filter0_d_711_30859" x="761" y="233.273" width="36" height="36" filterUnits="userSpaceOnUse" color-interpolation-filters="sRGB">
<feFlood flood-opacity="0" result="BackgroundImageFix"/>
<feColorMatrix in="SourceAlpha" type="matrix" values="0 0 0 0 0 0 0 0 0 0 0 0 0 0 0 0 0 0 127 0" result="hardAlpha"/>
<feMorphology radius="2" operator="erode" in="SourceAlpha" result="effect1_dropShadow_711_30859"/>
<feOffset dy="4"/>
<feGaussianBlur stdDeviation="6"/>
<feColorMatrix type="matrix" values="0 0 0 0 0.607843 0 0 0 0 0.615686 0 0 0 0 0.698039 0 0 0 0.4 0"/>
<feBlend mode="normal" in2="BackgroundImageFix" result="effect1_dropShadow_711_30859"/>
<feBlend mode="normal" in="SourceGraphic" in2="effect1_dropShadow_711_30859" result="shape"/>
</filter>
<linearGradient id="paint0_linear_711_30859" x1="771" y1="239.273" x2="787" y2="255.273" gradientUnits="userSpaceOnUse">
<stop stop-color="#929AFF"/>
<stop offset="1" stop-color="#AC6DFF"/>
</linearGradient>
</defs>
</svg>
