<svg width="328" height="232" viewBox="0 0 328 232" fill="none" xmlns="http://www.w3.org/2000/svg">
<path d="M197.657 21.653C194.564 23.5353 190.818 24.1876 188.227 26.8153C184.668 30.4308 182.021 35.1644 181.499 40.2894C180.866 46.458 183.046 52.5521 183.326 58.7394C183.643 65.6349 181.574 72.4371 178.816 78.7735C176.952 83.0785 174.716 87.9426 176.561 92.2476C177.772 95.043 180.493 96.9626 181.798 99.7208C184.165 104.734 180.884 110.977 176.039 113.661C171.194 116.344 165.342 116.326 159.825 115.934C157.72 115.785 155.595 115.58 153.526 116.046C150.805 116.643 148.476 118.283 146.221 119.904C136.232 127.042 126.261 134.179 116.272 141.317C108.072 147.188 101.121 155.947 98.0831 165.693C97.0209 169.104 96.4245 172.775 96.555 176.354C96.704 180.882 99.2945 184.665 100.45 188.933C100.748 190.07 100.953 191.281 100.636 192.399C100.115 194.188 98.4559 195.363 96.9277 196.443C92.66 199.463 88.6718 202.892 85.019 206.638L93.8713 215.21C93.8713 215.21 98.9404 210.346 104.699 212.434C110.327 215.714 109.6 223.839 115.657 226.504C121.155 228.927 128.349 227.138 133.567 224.733C138.412 222.497 142.866 219.608 146.463 215.62C150.06 211.632 150.936 206.712 151.327 201.494C151.719 196.276 152.129 190.536 155.632 186.622C158.763 183.137 164.168 181.888 168.51 183.659C173.001 185.485 176.281 190.126 181.108 190.592C184.742 190.946 187.929 188.896 191.004 187.256C194.619 185.336 198.216 183.398 201.776 181.367C213.424 174.713 223.301 167.128 232.489 157.363C234.147 155.593 235.825 153.692 236.477 151.344C237.278 148.511 236.477 145.492 236.402 142.547C236.216 134.068 242.105 126.52 242.776 118.078C242.85 117.034 240.111 116.568 239.291 115.99C237.949 115.077 236.924 113.828 236.123 112.449C234.576 109.766 233.905 106.635 233.365 103.616C231.948 95.9003 231.464 88.073 230.699 80.283C230.42 77.4503 230.103 74.5803 229.19 71.878C228.035 68.5049 225.985 65.523 224.568 62.2617C220.133 52.0303 222.313 40.1403 219.741 29.2939C218.679 24.8026 216.797 20.4603 216.48 15.8571C216.312 13.5462 216.536 11.198 216.089 8.94304C215.567 6.37122 213.666 3.03531 210.628 4.30258C204.59 6.81849 204.124 15.3726 200.117 19.7521C199.409 20.5349 198.589 21.1499 197.732 21.6717L197.657 21.653Z" fill="#EDEEF2"/>
<g filter="url(#filter0_d_723_31158)">
<circle cx="190" cy="69" r="4" fill="url(#paint0_linear_723_31158)"/>
</g>
<defs>
<filter id="filter0_d_723_31158" x="176" y="59" width="28" height="28" filterUnits="userSpaceOnUse" color-interpolation-filters="sRGB">
<feFlood flood-opacity="0" result="BackgroundImageFix"/>
<feColorMatrix in="SourceAlpha" type="matrix" values="0 0 0 0 0 0 0 0 0 0 0 0 0 0 0 0 0 0 127 0" result="hardAlpha"/>
<feMorphology radius="2" operator="erode" in="SourceAlpha" result="effect1_dropShadow_723_31158"/>
<feOffset dy="4"/>
<feGaussianBlur stdDeviation="6"/>
<feColorMatrix type="matrix" values="0 0 0 0 0.607843 0 0 0 0 0.615686 0 0 0 0 0.698039 0 0 0 0.4 0"/>
<feBlend mode="normal" in2="BackgroundImageFix" result="effect1_dropShadow_723_31158"/>
<feBlend mode="normal" in="SourceGraphic" in2="effect1_dropShadow_723_31158" result="shape"/>
</filter>
<linearGradient id="paint0_linear_723_31158" x1="186" y1="65" x2="194" y2="73" gradientUnits="userSpaceOnUse">
<stop stop-color="#929AFF"/>
<stop offset="1" stop-color="#AC6DFF"/>
</linearGradient>
</defs>
</svg>
