<svg width="822" height="580" viewBox="0 0 822 580" fill="none" xmlns="http://www.w3.org/2000/svg">
<path d="M710.983 352.419C706.687 351.204 702.53 349.663 698.653 347.515C692.021 343.825 686.23 338.034 684.128 330.701C682.774 325.937 683.054 320.846 682.027 316.036C678.991 301.557 663.391 303.379 651.902 304.313C640.413 305.247 626.308 306.929 617.808 297.074C612.343 290.722 612.063 282.362 612.857 274.422C614.212 260.084 603.423 249.342 595.53 238.6C585.535 225.009 577.829 209.503 574.84 192.876C572.271 178.584 573.065 163.079 565.359 150.795C558.913 140.52 548.732 137.064 537.943 133.234C482.878 113.759 427.16 94.0959 368.873 87.3705C329.781 82.8868 285.458 82.1395 248.795 98.346C219.698 111.236 196.813 134.962 175.936 158.361C158.002 178.491 140.814 199.835 128.718 224.075C109.429 262.746 103.404 306.555 93.7361 348.262C91.541 357.743 89.9531 369.046 93.9697 378.293C98.2198 388.008 107.327 393.939 117.789 394.686C130.493 395.62 142.449 386.887 155.339 390.81C164.587 393.612 170.939 402.393 174.115 411.547C177.291 420.701 177.991 430.462 179.999 439.943C180.793 443.586 182.008 447.603 185.184 449.517C187.239 450.779 189.714 450.965 192.143 451.105C222.687 453.301 252.111 459.699 281.488 468.106C310.866 476.513 338.468 485.994 367.752 491.692C375.505 493.186 383.258 494.401 391.104 495.288C396.568 495.895 397.549 495.615 401.472 489.823C413.475 472.122 429.915 458.111 449.018 449.284C476.807 436.44 508.799 434.152 539.064 434.432C564.425 434.712 589.738 436.814 615.099 436.861C637.003 436.861 660.402 434.806 680.065 424.437C692.255 418.039 702.296 407.997 710.656 397.208C714.907 391.744 718.736 385.953 722.286 380.021C725.415 374.79 730.179 368.952 730.599 362.694C730.973 357.369 724.715 355.548 720.278 354.567C717.195 353.913 714.066 353.166 711.03 352.325L710.983 352.419Z" fill="#EDEEF2"/>
<g filter="url(#filter0_d_711_30863)">
<circle cx="642" cy="387.409" r="8" fill="url(#paint0_linear_711_30863)"/>
</g>
<defs>
<filter id="filter0_d_711_30863" x="624" y="373.409" width="36" height="36" filterUnits="userSpaceOnUse" color-interpolation-filters="sRGB">
<feFlood flood-opacity="0" result="BackgroundImageFix"/>
<feColorMatrix in="SourceAlpha" type="matrix" values="0 0 0 0 0 0 0 0 0 0 0 0 0 0 0 0 0 0 127 0" result="hardAlpha"/>
<feMorphology radius="2" operator="erode" in="SourceAlpha" result="effect1_dropShadow_711_30863"/>
<feOffset dy="4"/>
<feGaussianBlur stdDeviation="6"/>
<feColorMatrix type="matrix" values="0 0 0 0 0.607843 0 0 0 0 0.615686 0 0 0 0 0.698039 0 0 0 0.4 0"/>
<feBlend mode="normal" in2="BackgroundImageFix" result="effect1_dropShadow_711_30863"/>
<feBlend mode="normal" in="SourceGraphic" in2="effect1_dropShadow_711_30863" result="shape"/>
</filter>
<linearGradient id="paint0_linear_711_30863" x1="634" y1="379.409" x2="650" y2="395.409" gradientUnits="userSpaceOnUse">
<stop stop-color="#929AFF"/>
<stop offset="1" stop-color="#AC6DFF"/>
</linearGradient>
</defs>
</svg>
