<svg width="176" height="124" viewBox="0 0 176 124" fill="none" xmlns="http://www.w3.org/2000/svg">
<path d="M142.18 35.34C140.87 35.02 139.56 34.69 138.27 34.3C131.65 32.28 124.27 22 122.8 22C122.8 22 119.89 28.09 119.14 29.58C117.61 32.63 116.25 35.75 114.78 38.82C112.61 43.36 110.15 47.76 106.73 51.49C103.37 55.16 99.1299 58.05 94.5299 59.93C89.2899 62.07 83.6399 62.88 78.0599 63.58C72.4799 64.28 66.7699 65.08 61.1499 66.04C56.4199 66.85 51.6999 67.76 47.0399 68.9C44.66 69.48 42.2899 70.12 39.9399 70.84C37.7699 71.5 33.0699 73.24 33.0699 73.24C33.0699 73.24 34.4899 73.68 35.1699 73.92C40.4299 75.77 45.1499 79.94 43.9299 86.07C43.2799 89.32 40.9799 92.01 38.3799 94.06C35.1499 96.59 27.5699 99.33 28.6499 101.54C29.7299 103.75 39.5899 97.52 45.2599 96.14C50.9299 94.76 55.2599 94.21 60.1199 93.5C71.9999 91.75 84.0299 90.36 96.0299 89.88C101.3 89.67 106.61 89.78 111.81 90.77C112.59 90.92 113.39 91.09 114.18 91.02C117.92 90.72 118.47 83.93 118.9 81.16C119.46 77.52 120.1 73.39 122.53 69.77C125.35 65.57 130.74 63.99 135.95 62.48C138.08 61.86 140.23 61.26 142.26 60.37C143.77 59.71 146.02 58.62 146.41 56.85C146.57 56.13 146.38 55.39 146.23 54.67C145.63 51.74 145.8 48.72 146.27 45.79C146.7 43.07 147.74 40.36 147.38 37.59C147.19 36.1 145.25 36.13 144 35.82C143.4 35.67 142.79 35.52 142.19 35.38L142.18 35.34Z" fill="#EDF0FF"/>
</svg>
