<svg width="328" height="232" viewBox="0 0 328 232" fill="none" xmlns="http://www.w3.org/2000/svg">
<path d="M281.427 197.639C284.95 194.452 288.509 191.265 290.69 187.016C294.417 179.729 290.187 171.473 288.23 164.317C286.254 157.123 286.049 149.445 287.652 142.158C288.323 139.12 289.087 135.449 286.813 133.343C285.732 132.355 284.204 132.02 282.751 131.74C267.692 128.833 252.467 126.895 237.166 125.944C235.396 125.833 233.495 125.684 232.078 124.603C230.513 123.391 229.954 121.304 229.525 119.366C226.283 104.811 225.052 89.8086 225.817 74.9181C226.208 67.389 227.084 59.8972 228.482 52.4986C229.171 48.7899 230.01 45.1186 230.96 41.4845C231.538 39.2854 231.967 37.5895 228.854 37.7945C224.382 38.0926 219.778 39.5463 215.287 38.8754C210.181 38.1113 205.969 34.5331 202.54 30.6754C198.775 26.4449 194.936 22.494 191.004 18.4499C182.897 10.1008 172.256 0.987645 161.074 4.23037C143.09 9.42992 143.537 40.4781 125.404 45.1558C119.552 46.6654 112.936 44.8204 107.55 47.5599C103.096 49.8336 100.617 54.679 96.8343 57.959C88.597 65.0781 76.6325 63.4381 66.662 62.5808C58.7043 61.8913 50.2993 61.5745 43.1616 65.1526C40.217 66.6249 36.2475 69.7745 37.3843 73.4272C38.4093 76.7258 42.3416 79.1486 45.1184 80.8445C48.827 83.0995 53.0389 84.5158 57.3066 85.2054C65.2829 86.4727 73.0543 85.0004 80.9561 83.8449C82.6893 83.584 84.6089 83.379 86.0066 84.4413C87.4416 85.5222 87.7398 87.5163 87.8889 89.3054C88.8952 101.382 88.4293 113.495 89.7339 125.572C91.0384 137.648 93.4611 149.333 98.1575 160.384C100.804 166.609 105.165 173.262 111.892 174.008C115.359 174.399 118.769 173.094 122.18 172.312C133.939 169.628 146.202 173.337 157.328 177.977C182.655 188.544 205.484 204.068 230.327 215.641C235.768 218.176 241.285 220.524 246.932 222.555C249.746 223.58 252.597 224.512 255.467 225.369C257.592 226.003 261.002 227.643 263.257 227.121C265.549 226.581 265.568 223.897 266.108 222.034C266.835 219.592 267.692 217.169 268.717 214.84C270.749 210.199 273.451 205.82 276.899 202.074C278.315 200.546 279.881 199.111 281.446 197.676L281.427 197.639Z" fill="#EDEEF2"/>
<g filter="url(#filter0_d_723_31126)">
<circle cx="143" cy="45" r="4" fill="url(#paint0_linear_723_31126)"/>
</g>
<defs>
<filter id="filter0_d_723_31126" x="129" y="35" width="28" height="28" filterUnits="userSpaceOnUse" color-interpolation-filters="sRGB">
<feFlood flood-opacity="0" result="BackgroundImageFix"/>
<feColorMatrix in="SourceAlpha" type="matrix" values="0 0 0 0 0 0 0 0 0 0 0 0 0 0 0 0 0 0 127 0" result="hardAlpha"/>
<feMorphology radius="2" operator="erode" in="SourceAlpha" result="effect1_dropShadow_723_31126"/>
<feOffset dy="4"/>
<feGaussianBlur stdDeviation="6"/>
<feColorMatrix type="matrix" values="0 0 0 0 0.607843 0 0 0 0 0.615686 0 0 0 0 0.698039 0 0 0 0.4 0"/>
<feBlend mode="normal" in2="BackgroundImageFix" result="effect1_dropShadow_723_31126"/>
<feBlend mode="normal" in="SourceGraphic" in2="effect1_dropShadow_723_31126" result="shape"/>
</filter>
<linearGradient id="paint0_linear_723_31126" x1="139" y1="41" x2="147" y2="49" gradientUnits="userSpaceOnUse">
<stop stop-color="#929AFF"/>
<stop offset="1" stop-color="#AC6DFF"/>
</linearGradient>
</defs>
</svg>
