<svg width="328" height="232" viewBox="0 0 328 232" fill="none" xmlns="http://www.w3.org/2000/svg">
<path d="M110.588 102.069C117.968 104.436 125.628 106.281 130.399 112.45C135.151 118.581 134.927 127.191 136.083 134.515C137.369 142.734 139.046 150.934 141.748 158.817C144.227 166.029 147.544 172.98 149.52 180.342C151.495 187.703 152.017 195.81 148.961 202.799C148.215 204.495 147.265 206.153 147.134 207.998C146.929 210.831 148.718 213.44 150.787 215.378C154.924 219.273 159.266 223.373 164.317 226.038C165.379 226.597 167.876 228.07 169.051 227.212C171.156 225.703 169.461 218.77 169.423 216.608C169.349 210.868 172.181 205.296 176.505 201.587C185.003 194.282 196.558 197.748 206.51 199.071C207.46 199.202 208.522 199.314 209.324 198.755C210.162 198.195 210.442 197.096 210.647 196.108C212.585 187.181 213.424 175.291 222.313 170.241C226.786 167.706 232.228 167.874 237.371 168.116C241.266 168.303 256.026 170.446 257.368 168.079C257.816 167.278 257.499 144.895 256.884 143.125C255.766 139.92 253.026 137.59 250.231 135.708C242.142 130.247 233.7 123.855 228.333 115.525C222.723 106.803 219.816 96.1427 221.419 85.7809C222.425 79.3327 225.016 73.4436 227.513 67.7595C229.861 62.4295 232.079 57.4164 232.973 52.105C234.259 44.6504 226.488 38.7427 219.63 33.5432C217.132 31.6423 214.784 29.8532 212.995 28.0827C206.528 21.6159 212.585 15.3354 215.474 12.3163C216.275 11.4963 217.412 10.3036 217.841 9.61407C216.536 6.57635 213.442 4.2468 210.144 3.91135C205.28 3.37089 200.788 6.74407 198.571 8.79407C196.278 10.9 194.303 13.36 192.216 15.9691C190.911 17.5718 189.625 19.1932 188.265 20.7213C182.264 27.4491 174.753 32.7977 166.497 36.3759C162.435 38.1277 158.391 39.4509 154.03 40.2709C149.52 41.1095 144.861 41.7245 140.686 43.7932C138.748 44.7623 136.94 46.0482 135.747 47.8559C133.753 50.875 133.735 54.9377 131.48 57.7518C130.324 59.2054 128.628 60.1932 126.802 60.4914C123.149 61.0877 119.608 59.0004 116.794 56.6336C110.57 51.3968 104.55 47.9118 96.5737 45.8432C92.3433 44.7436 87.7587 43.7932 83.7519 43.2154C79.7451 42.6377 71.0046 42.675 71.0046 42.675C71.0046 42.675 85.5037 53.9686 87.0133 69.2505C88.4669 76.1832 89.9392 86.9923 95.5674 93.5895C99.4624 98.1741 104.941 100.28 110.588 102.088V102.069Z" fill="#EDEEF2"/>
<g filter="url(#filter0_d_723_31168)">
<circle cx="196" cy="79.9089" r="4" fill="url(#paint0_linear_723_31168)"/>
</g>
<defs>
<filter id="filter0_d_723_31168" x="182" y="69.9089" width="28" height="28" filterUnits="userSpaceOnUse" color-interpolation-filters="sRGB">
<feFlood flood-opacity="0" result="BackgroundImageFix"/>
<feColorMatrix in="SourceAlpha" type="matrix" values="0 0 0 0 0 0 0 0 0 0 0 0 0 0 0 0 0 0 127 0" result="hardAlpha"/>
<feMorphology radius="2" operator="erode" in="SourceAlpha" result="effect1_dropShadow_723_31168"/>
<feOffset dy="4"/>
<feGaussianBlur stdDeviation="6"/>
<feColorMatrix type="matrix" values="0 0 0 0 0.607843 0 0 0 0 0.615686 0 0 0 0 0.698039 0 0 0 0.4 0"/>
<feBlend mode="normal" in2="BackgroundImageFix" result="effect1_dropShadow_723_31168"/>
<feBlend mode="normal" in="SourceGraphic" in2="effect1_dropShadow_723_31168" result="shape"/>
</filter>
<linearGradient id="paint0_linear_723_31168" x1="192" y1="75.9089" x2="200" y2="83.9089" gradientUnits="userSpaceOnUse">
<stop stop-color="#929AFF"/>
<stop offset="1" stop-color="#AC6DFF"/>
</linearGradient>
</defs>
</svg>
