<svg width="176" height="124" viewBox="0 0 176 124" fill="none" xmlns="http://www.w3.org/2000/svg">
<path d="M59.34 54.7201C63.3 55.9901 67.41 56.9801 69.97 60.2901C72.52 63.5801 72.4 68.2001 73.02 72.1301C73.71 76.5401 74.61 80.9401 76.06 85.1701C77.39 89.0401 79.17 92.7701 80.23 96.7201C81.29 100.67 81.57 105.02 79.93 108.77C79.53 109.68 79.02 110.57 78.95 111.56C78.84 113.08 79.8 114.48 80.91 115.52C83.13 117.61 85.46 119.81 88.17 121.24C88.74 121.54 90.08 122.33 90.71 121.87C91.84 121.06 90.93 117.34 90.91 116.18C90.87 113.1 92.39 110.11 94.71 108.12C99.27 104.2 105.47 106.06 110.81 106.77C111.32 106.84 111.89 106.9 112.32 106.6C112.77 106.3 112.92 105.71 113.03 105.18C114.07 100.39 114.52 94.0101 119.29 91.3001C121.69 89.9401 124.61 90.0301 127.37 90.1601C129.46 90.2601 137.38 91.4101 138.1 90.1401C138.34 89.7101 138.17 77.7001 137.84 76.7501C137.24 75.0301 135.77 73.7801 134.27 72.7701C129.93 69.8401 125.4 66.4101 122.52 61.9401C119.51 57.2601 117.95 51.5401 118.81 45.9801C119.35 42.5201 120.74 39.3601 122.08 36.3101C123.34 33.4501 124.53 30.7601 125.01 27.9101C125.7 23.9101 121.53 20.7401 117.85 17.9501C116.51 16.9301 115.25 15.9701 114.29 15.0201C110.82 11.5501 114.07 8.18007 115.62 6.56007C116.05 6.12007 116.66 5.48007 116.89 5.11007C116.19 3.48007 114.53 2.23007 112.76 2.05007C110.15 1.76007 107.74 3.57007 106.55 4.67007C105.32 5.80007 104.26 7.12007 103.14 8.52007C102.44 9.38007 101.75 10.2501 101.02 11.0701C97.8 14.6801 93.77 17.5501 89.34 19.4701C87.16 20.4101 84.99 21.1201 82.65 21.5601C80.23 22.0101 77.73 22.3401 75.49 23.4501C74.45 23.9701 73.48 24.6601 72.84 25.6301C71.77 27.2501 71.76 29.4301 70.55 30.9401C69.93 31.7201 69.02 32.2501 68.04 32.4101C66.08 32.7301 64.18 31.6101 62.67 30.3401C59.33 27.5301 56.1 25.6601 51.82 24.5501C49.55 23.9601 47.09 23.4501 44.94 23.1401C42.79 22.8301 38.1 22.8501 38.1 22.8501C38.1 22.8501 45.88 28.9101 46.69 37.1101C47.47 40.8301 48.26 46.6301 51.28 50.1701C53.37 52.6301 56.31 53.7601 59.34 54.7301V54.7201Z" fill="#EDF0FF"/>
</svg>
