<svg width="328" height="232" viewBox="0 0 328 232" fill="none" xmlns="http://www.w3.org/2000/svg">
<path d="M277.253 79.3326C273.992 75.1208 276.172 70.4617 279.191 66.809C280.999 64.6285 283.086 62.6903 284.782 60.4167C288.808 54.9935 282.378 52.7199 277.868 52.5894C275.371 52.5149 272.874 52.8503 270.376 52.664C265.997 52.3472 261.841 50.4462 258.244 47.9303C254.014 44.9672 250.584 41.0908 246.727 37.699C237.204 29.3872 225.686 23.7776 213.871 19.5285C201.515 15.0744 188.991 11.7012 175.778 11.3099C167.149 11.049 158.465 11.9622 150.153 14.3849C125.609 21.504 104.997 40.1403 86.454 56.9503C77.2663 65.2808 68.3767 73.9653 59.7294 82.8549C56.1326 86.5449 52.4613 90.2163 49.2744 94.279C47.1499 96.9813 44.9508 99.7394 43.4413 102.852C42.3044 105.181 40.2544 110.567 44.9881 108.443C51.1381 105.684 58.3504 105.535 64.6867 107.828C69.3831 109.542 73.5017 112.543 76.7258 116.326C80.2294 120.444 81.9254 125.793 85.4663 129.986C86.7708 131.533 88.4854 133.043 90.4794 132.912C92.7531 132.763 94.3185 130.583 96.4058 129.651C99.8722 128.123 103.767 130.322 106.917 132.446C126.802 145.827 146.892 158.854 165.435 174.08C170.355 178.124 174.38 182.727 174.269 189.511C174.175 194.599 171.827 199.239 170.411 204.047C168.901 209.172 168.547 214.931 170.318 220.037C193.203 205.669 210.982 185.914 229.171 166.253C230.439 164.874 231.724 163.494 233.01 162.134C249.559 144.523 265.531 125.029 276.098 103.187C276.88 101.566 284.279 83.0972 283.776 83.004C281.39 82.5381 278.893 81.5131 277.234 79.3699L277.253 79.3326Z" fill="#EDEEF2"/>
<g filter="url(#filter0_d_723_31170)">
<circle cx="243" cy="104.909" r="4" fill="url(#paint0_linear_723_31170)"/>
</g>
<defs>
<filter id="filter0_d_723_31170" x="229" y="94.9089" width="28" height="28" filterUnits="userSpaceOnUse" color-interpolation-filters="sRGB">
<feFlood flood-opacity="0" result="BackgroundImageFix"/>
<feColorMatrix in="SourceAlpha" type="matrix" values="0 0 0 0 0 0 0 0 0 0 0 0 0 0 0 0 0 0 127 0" result="hardAlpha"/>
<feMorphology radius="2" operator="erode" in="SourceAlpha" result="effect1_dropShadow_723_31170"/>
<feOffset dy="4"/>
<feGaussianBlur stdDeviation="6"/>
<feColorMatrix type="matrix" values="0 0 0 0 0.607843 0 0 0 0 0.615686 0 0 0 0 0.698039 0 0 0 0.4 0"/>
<feBlend mode="normal" in2="BackgroundImageFix" result="effect1_dropShadow_723_31170"/>
<feBlend mode="normal" in="SourceGraphic" in2="effect1_dropShadow_723_31170" result="shape"/>
</filter>
<linearGradient id="paint0_linear_723_31170" x1="239" y1="100.909" x2="247" y2="108.909" gradientUnits="userSpaceOnUse">
<stop stop-color="#929AFF"/>
<stop offset="1" stop-color="#AC6DFF"/>
</linearGradient>
</defs>
</svg>
