<svg width="176" height="124" viewBox="0 0 176 124" fill="none" xmlns="http://www.w3.org/2000/svg">
<path d="M148.77 42.5199C147.02 40.2599 148.19 37.7599 149.81 35.7999C150.78 34.6299 151.9 33.5899 152.81 32.3699C154.97 29.4599 151.52 28.2399 149.1 28.1699C147.76 28.1299 146.42 28.3099 145.08 28.2099C142.73 28.0399 140.5 27.0199 138.57 25.6699C136.3 24.0799 134.46 21.9999 132.39 20.1799C127.28 15.7199 121.1 12.7099 114.76 10.4299C108.13 8.03992 101.41 6.22992 94.32 6.01992C89.69 5.87992 85.03 6.36992 80.57 7.66992C67.4 11.4899 56.34 21.4899 46.39 30.5099C41.46 34.9799 36.69 39.6399 32.05 44.4099C30.12 46.3899 28.15 48.3599 26.44 50.5399C25.3 51.9899 24.12 53.4699 23.31 55.1399C22.7 56.3899 21.6 59.2799 24.14 58.1399C27.44 56.6599 31.31 56.5799 34.71 57.8099C37.23 58.7299 39.44 60.3399 41.17 62.3699C43.05 64.5799 43.96 67.4499 45.86 69.6999C46.56 70.5299 47.48 71.3399 48.55 71.2699C49.77 71.1899 50.61 70.0199 51.73 69.5199C53.59 68.6999 55.68 69.8799 57.37 71.0199C68.04 78.1999 78.82 85.1899 88.77 93.3599C91.41 95.5299 93.57 97.9999 93.51 101.64C93.46 104.37 92.2 106.86 91.44 109.44C90.63 112.19 90.44 115.28 91.39 118.02C103.67 110.31 113.21 99.7099 122.97 89.1599C123.65 88.4199 124.34 87.6799 125.03 86.9499C133.91 77.4999 142.48 67.0399 148.15 55.3199C148.57 54.4499 152.54 44.5399 152.27 44.4899C150.99 44.2399 149.65 43.6899 148.76 42.5399L148.77 42.5199Z" fill="#EDF0FF"/>
</svg>
