<svg width="822" height="580" viewBox="0 0 822 580" fill="none" xmlns="http://www.w3.org/2000/svg">
<path d="M694.824 199.088C686.65 188.532 692.115 176.856 699.681 167.702C704.211 162.238 709.442 157.381 713.692 151.683C723.78 138.092 707.667 132.394 696.365 132.067C690.106 131.88 683.848 132.721 677.59 132.254C666.614 131.46 656.199 126.696 647.185 120.391C636.583 112.965 627.989 103.25 618.321 94.7498C594.455 73.9195 565.592 59.8615 535.981 49.2128C505.016 38.0504 473.631 29.5969 440.517 28.6161C418.893 27.9623 397.129 30.2508 376.299 36.3224C314.789 54.1635 263.133 100.868 216.662 142.996C193.637 163.872 171.359 185.637 149.688 207.915C140.674 217.162 131.473 226.363 123.487 236.545C118.162 243.317 112.651 250.229 108.868 258.029C106.019 263.867 100.882 277.365 112.745 272.04C128.157 265.128 146.232 264.754 162.111 270.499C173.881 274.796 184.203 282.315 192.283 291.796C201.063 302.118 205.313 315.522 214.187 326.031C217.456 329.907 221.753 333.69 226.751 333.363C232.449 332.99 236.372 327.525 241.603 325.19C250.29 321.36 260.051 326.871 267.944 332.196C317.778 365.729 368.125 398.376 414.596 436.534C426.926 446.668 437.014 458.204 436.734 475.205C436.501 487.955 430.616 499.585 427.066 511.635C423.283 524.478 422.396 538.91 426.833 551.707C484.186 515.698 528.742 466.191 574.326 416.918C577.502 413.462 580.724 410.005 583.947 406.596C625.421 362.46 665.446 313.607 691.928 258.87C693.889 254.806 712.431 208.522 711.17 208.289C705.192 207.121 698.933 204.552 694.777 199.181L694.824 199.088Z" fill="#EDEEF2"/>
<g filter="url(#filter0_d_711_30873)">
<circle cx="609" cy="259.409" r="8" fill="url(#paint0_linear_711_30873)"/>
</g>
<defs>
<filter id="filter0_d_711_30873" x="591" y="245.409" width="36" height="36" filterUnits="userSpaceOnUse" color-interpolation-filters="sRGB">
<feFlood flood-opacity="0" result="BackgroundImageFix"/>
<feColorMatrix in="SourceAlpha" type="matrix" values="0 0 0 0 0 0 0 0 0 0 0 0 0 0 0 0 0 0 127 0" result="hardAlpha"/>
<feMorphology radius="2" operator="erode" in="SourceAlpha" result="effect1_dropShadow_711_30873"/>
<feOffset dy="4"/>
<feGaussianBlur stdDeviation="6"/>
<feColorMatrix type="matrix" values="0 0 0 0 0.607843 0 0 0 0 0.615686 0 0 0 0 0.698039 0 0 0 0.4 0"/>
<feBlend mode="normal" in2="BackgroundImageFix" result="effect1_dropShadow_711_30873"/>
<feBlend mode="normal" in="SourceGraphic" in2="effect1_dropShadow_711_30873" result="shape"/>
</filter>
<linearGradient id="paint0_linear_711_30873" x1="601" y1="251.409" x2="617" y2="267.409" gradientUnits="userSpaceOnUse">
<stop stop-color="#929AFF"/>
<stop offset="1" stop-color="#AC6DFF"/>
</linearGradient>
</defs>
</svg>
