<svg width="176" height="124" viewBox="0 0 176 124" fill="none" xmlns="http://www.w3.org/2000/svg">
<path d="M155.69 49.4701C154.71 47.4301 153.68 45.4101 153.25 43.2001C152.35 38.5501 154.19 33.9801 155.09 29.4901C155.66 26.6401 157.22 20.3501 154.53 18.1301C153.87 17.5901 152.21 18.9201 151.56 19.1601C150.14 19.6901 148.65 20.0801 147.17 20.4101C133.6 23.4801 119.56 19.6201 105.86 21.1701C97.12 22.1601 88.76 25.4701 83.68 32.9701C81.8 35.7401 79.63 37.4601 75.31 37.0201C68.26 36.2501 61.61 34.3201 54.84 32.3401C48.07 30.3601 40.95 28.4701 33.94 26.7801C30.14 25.8701 25.84 24.9201 21.95 25.8101C19.13 26.4601 18.44 32.0401 18.06 35.0401C17.82 37.0101 17.85 38.4301 18.16 39.6301C19.13 43.3101 23.04 45.1701 26.52 45.2101C38.43 45.3301 50.16 48.2601 61.37 52.1201C73.39 56.2701 85.05 61.7701 94.44 70.5001C95.36 71.3501 96.25 72.2301 97.12 73.1201C99.36 75.4201 101.55 77.9501 104.52 79.1701C108.71 80.8801 113.34 79.6701 117.69 80.3901C121.58 81.0401 125.52 83.3801 127.22 87.0601C128.48 89.7801 128.23 92.7601 126.51 95.4401C125.4 97.1701 123.69 98.3601 122.16 99.6801C121.04 100.65 118.09 103.19 119 104.94C119.17 105.27 119.49 105.5 119.83 105.67C121.13 106.3 122.52 105.96 123.62 105.11C131.87 98.7101 139.9 91.8301 146.69 83.8601C151.86 77.7601 156.45 70.7201 157.77 62.6901C158.29 59.5101 158.22 56.1901 157.22 53.1201C156.81 51.8601 156.25 50.6601 155.68 49.4601L155.69 49.4701Z" fill="#EDF0FF"/>
</svg>
