<svg width="822" height="580" viewBox="0 0 822 580" fill="none" xmlns="http://www.w3.org/2000/svg">
<path d="M727.143 231.684C722.566 222.156 717.755 212.722 715.747 202.4C711.544 180.682 720.137 159.338 724.341 138.368C727.003 125.057 734.289 95.68 721.725 85.3116C718.643 82.7895 710.89 89.0012 707.854 90.1221C701.222 92.5975 694.263 94.419 687.351 95.9602C623.973 110.299 558.399 92.2706 494.414 99.5098C453.594 104.134 414.549 119.593 390.823 154.621C382.043 167.558 371.908 175.591 351.732 173.536C318.805 169.94 287.746 160.926 256.128 151.679C224.509 142.431 191.255 133.604 158.515 125.711C140.767 121.461 120.684 117.024 102.516 121.181C89.3456 124.216 86.123 150.278 84.3482 164.289C83.2273 173.49 83.3674 180.122 84.8152 185.726C89.3456 202.914 107.607 211.601 123.86 211.787C179.485 212.348 234.27 226.032 286.626 244.06C342.764 263.443 397.222 289.13 441.078 329.903C445.374 333.873 449.531 337.983 453.594 342.14C464.056 352.882 474.284 364.698 488.156 370.396C507.725 378.383 529.349 372.731 549.666 376.094C567.834 379.13 586.235 390.059 594.175 407.246C600.06 419.95 598.892 433.868 590.859 446.384C585.675 454.464 577.688 460.022 570.543 466.187C565.312 470.717 551.534 482.58 555.784 490.754C556.578 492.295 558.072 493.369 559.66 494.163C565.732 497.106 572.224 495.518 577.361 491.548C615.893 461.657 653.396 429.524 685.109 392.301C709.255 363.811 730.692 330.931 736.857 293.427C739.286 278.575 738.959 263.069 734.289 248.731C732.374 242.846 729.758 237.241 727.096 231.637L727.143 231.684Z" fill="#EDEEF2"/>
<g filter="url(#filter0_d_711_30875)">
<circle cx="721" cy="298.545" r="8" fill="url(#paint0_linear_711_30875)"/>
</g>
<defs>
<filter id="filter0_d_711_30875" x="703" y="284.545" width="36" height="36" filterUnits="userSpaceOnUse" color-interpolation-filters="sRGB">
<feFlood flood-opacity="0" result="BackgroundImageFix"/>
<feColorMatrix in="SourceAlpha" type="matrix" values="0 0 0 0 0 0 0 0 0 0 0 0 0 0 0 0 0 0 127 0" result="hardAlpha"/>
<feMorphology radius="2" operator="erode" in="SourceAlpha" result="effect1_dropShadow_711_30875"/>
<feOffset dy="4"/>
<feGaussianBlur stdDeviation="6"/>
<feColorMatrix type="matrix" values="0 0 0 0 0.607843 0 0 0 0 0.615686 0 0 0 0 0.698039 0 0 0 0.4 0"/>
<feBlend mode="normal" in2="BackgroundImageFix" result="effect1_dropShadow_711_30875"/>
<feBlend mode="normal" in="SourceGraphic" in2="effect1_dropShadow_711_30875" result="shape"/>
</filter>
<linearGradient id="paint0_linear_711_30875" x1="713" y1="290.545" x2="729" y2="306.545" gradientUnits="userSpaceOnUse">
<stop stop-color="#929AFF"/>
<stop offset="1" stop-color="#AC6DFF"/>
</linearGradient>
</defs>
</svg>
