<svg width="822" height="580" viewBox="0 0 822 580" fill="none" xmlns="http://www.w3.org/2000/svg">
<path d="M742.462 162.989C751.523 153.274 764.32 143.046 764.46 130.436C764.787 102.413 721.025 109.092 703.184 109.933C694.543 110.353 684.595 109.699 679.411 102.787C677.123 99.7509 676.188 95.9679 674.554 92.5584C670.49 84.1516 662.317 78.3603 653.677 74.7173C645.083 71.0743 635.836 69.1595 626.915 66.2638C600.761 57.6234 576.241 39.5955 548.778 41.9774C543.267 42.4445 537.85 43.7522 532.292 43.6588C526.781 43.5654 520.896 41.7439 517.627 37.2603C513.376 31.4689 514.778 23.0154 510.948 16.9438C505.81 8.81719 493.901 8.49026 484.747 11.5261C446.869 24.1363 423.05 71.5414 381.062 73.2695C377.186 73.4096 373.169 72.9892 369.9 71.0276C363.875 67.3847 361.82 59.7718 360.512 52.8596C358.084 39.9691 350.004 51.365 345.474 56.1289C341.55 60.2389 337.067 63.7417 332.163 66.544C329.921 67.8517 327.492 69.0193 325.718 70.9342C319.319 77.7531 329.034 94.8937 328.053 103.721C327.306 110.493 323.663 116.892 318.151 120.955C311.893 125.625 303.626 127.213 297.742 132.397C292.464 137.115 289.802 144.634 290.969 151.64C292.931 163.082 303.953 171.489 305.448 183.025C306.335 189.751 303.533 196.85 298.302 201.147C295.64 203.342 292.137 205.163 291.25 208.526C290.502 211.328 291.903 214.224 293.024 216.886C299.376 231.831 298.115 249.019 290.269 263.123C282.049 277.882 267.851 286.616 251.271 288.811C238.053 290.586 224.649 288.951 211.291 288.764C186.538 288.437 161.925 293.201 138.526 301.141C118.396 307.96 95.8378 315.246 80.0984 330.144C67.7217 341.867 56.606 364.052 57.4467 381.379C57.7269 387.358 66.0403 381.66 69.5898 380.352C75.1944 378.297 80.8923 376.382 86.7304 374.887C98.4065 371.898 110.69 370.591 122.553 373.393C137.358 376.896 149.968 386.33 163.279 393.756C173.367 399.407 184.903 404.218 196.72 403.798C208.442 403.424 220.492 398.613 231.468 394.877C244.732 390.3 258.463 385.583 272.941 385.162C277.565 384.976 284.477 385.256 290.362 389.132C298.862 394.737 301.338 405.152 302.786 411.364C306.942 429.018 310.632 446.812 315.489 464.28C316.564 468.11 317.778 472.08 320.44 475.022C324.223 479.272 329.968 480.58 334.264 484.129C338.561 487.679 341.644 493.003 343.605 498.187C347.202 507.762 347.248 518.27 346.501 528.359C345.567 540.642 344.446 555.961 352.666 563.947C371.301 581.975 404.555 555.214 424.031 551.477C433.325 549.703 443.039 550.216 452.24 548.068C461.581 545.919 470.035 541.109 478.908 537.419C497.544 529.62 517.72 526.817 537.616 524.295C555.878 522.007 575.914 521.166 592.307 511.825C610.615 501.41 621.404 481.561 628.83 461.851C634.201 447.56 638.358 432.754 645.644 419.303C658.534 395.578 682.867 383.294 695.758 359.662C699.728 352.423 702.857 343.736 700.008 335.983C698.14 330.845 693.89 326.969 691.041 322.298C685.95 313.985 689.032 304.971 698.56 302.495C698.934 302.402 699.354 302.309 699.681 302.168C699.681 301.888 699.774 299.833 698.934 298.105C693.376 286.569 686.137 277.835 694.03 264.805C700.615 253.876 712.992 252.428 720.931 243.648C728.357 235.428 729.292 223.425 728.778 212.869C727.984 197.317 727.89 183.025 736.904 169.621C738.399 167.379 740.314 165.184 742.416 162.895L742.462 162.989Z" fill="#EDEEF2"/>
<g filter="url(#filter0_d_711_30851)">
<circle cx="540" cy="399.273" r="8" fill="url(#paint0_linear_711_30851)"/>
</g>
<defs>
<filter id="filter0_d_711_30851" x="522" y="385.273" width="36" height="36" filterUnits="userSpaceOnUse" color-interpolation-filters="sRGB">
<feFlood flood-opacity="0" result="BackgroundImageFix"/>
<feColorMatrix in="SourceAlpha" type="matrix" values="0 0 0 0 0 0 0 0 0 0 0 0 0 0 0 0 0 0 127 0" result="hardAlpha"/>
<feMorphology radius="2" operator="erode" in="SourceAlpha" result="effect1_dropShadow_711_30851"/>
<feOffset dy="4"/>
<feGaussianBlur stdDeviation="6"/>
<feColorMatrix type="matrix" values="0 0 0 0 0.607843 0 0 0 0 0.615686 0 0 0 0 0.698039 0 0 0 0.4 0"/>
<feBlend mode="normal" in2="BackgroundImageFix" result="effect1_dropShadow_711_30851"/>
<feBlend mode="normal" in="SourceGraphic" in2="effect1_dropShadow_711_30851" result="shape"/>
</filter>
<linearGradient id="paint0_linear_711_30851" x1="532" y1="391.273" x2="548" y2="407.273" gradientUnits="userSpaceOnUse">
<stop stop-color="#929AFF"/>
<stop offset="1" stop-color="#AC6DFF"/>
</linearGradient>
</defs>
</svg>
