<svg width="176" height="124" viewBox="0 0 176 124" fill="none" xmlns="http://www.w3.org/2000/svg">
<path d="M158.97 34.82C160.91 32.74 163.65 30.55 163.68 27.85C163.75 21.85 154.38 23.28 150.56 23.46C148.71 23.55 146.58 23.41 145.47 21.93C144.98 21.28 144.78 20.47 144.43 19.74C143.56 17.94 141.81 16.7 139.96 15.92C138.12 15.14 136.14 14.73 134.23 14.11C128.63 12.26 123.38 8.4 117.5 8.91C116.32 9.01 115.16 9.29 113.97 9.27C112.79 9.25 111.53 8.86 110.83 7.9C109.92 6.66 110.22 4.85 109.4 3.55C108.3 1.81 105.75 1.74 103.79 2.39C95.6801 5.09 90.5801 15.24 81.5901 15.61C80.7601 15.64 79.9001 15.55 79.2001 15.13C77.9101 14.35 77.4701 12.72 77.1901 11.24C76.6701 8.48 74.9401 10.92 73.9701 11.94C73.1301 12.82 72.1701 13.57 71.1201 14.17C70.6401 14.45 70.1201 14.7 69.7401 15.11C68.3701 16.57 70.4501 20.24 70.2401 22.13C70.0801 23.58 69.3001 24.95 68.1201 25.82C66.7801 26.82 65.0101 27.16 63.7501 28.27C62.6201 29.28 62.0501 30.89 62.3001 32.39C62.7201 34.84 65.0801 36.64 65.4001 39.11C65.5901 40.55 64.9901 42.07 63.8701 42.99C63.3001 43.46 62.5501 43.85 62.3601 44.57C62.2001 45.17 62.5001 45.79 62.7401 46.36C64.1001 49.56 63.8301 53.24 62.1501 56.26C60.3901 59.42 57.3501 61.29 53.8001 61.76C50.9701 62.14 48.1001 61.79 45.2401 61.75C39.9401 61.68 34.6701 62.7 29.6601 64.4C25.3501 65.86 20.5201 67.42 17.1501 70.61C14.5001 73.12 12.1201 77.87 12.3001 81.58C12.3601 82.86 14.1401 81.64 14.9001 81.36C16.1001 80.92 17.3201 80.51 18.5701 80.19C21.0701 79.55 23.7001 79.27 26.2401 79.87C29.4101 80.62 32.1101 82.64 34.9601 84.23C37.1201 85.44 39.5901 86.47 42.1201 86.38C44.6301 86.3 47.2101 85.27 49.5601 84.47C52.4001 83.49 55.3401 82.48 58.4401 82.39C59.4301 82.35 60.9101 82.41 62.1701 83.24C63.9901 84.44 64.5201 86.67 64.8301 88C65.7201 91.78 66.5101 95.59 67.5501 99.33C67.7801 100.15 68.0401 101 68.6101 101.63C69.4201 102.54 70.6501 102.82 71.5701 103.58C72.4901 104.34 73.1501 105.48 73.5701 106.59C74.3401 108.64 74.3501 110.89 74.1901 113.05C73.9901 115.68 73.7501 118.96 75.5101 120.67C79.5001 124.53 86.6201 118.8 90.7901 118C92.7801 117.62 94.8601 117.73 96.8301 117.27C98.8301 116.81 100.64 115.78 102.54 114.99C106.53 113.32 110.85 112.72 115.11 112.18C119.02 111.69 123.31 111.51 126.82 109.51C130.74 107.28 133.05 103.03 134.64 98.81C135.79 95.75 136.68 92.58 138.24 89.7C141 84.62 146.21 81.99 148.97 76.93C149.82 75.38 150.49 73.52 149.88 71.86C149.48 70.76 148.57 69.93 147.96 68.93C146.87 67.15 147.53 65.22 149.57 64.69C149.65 64.67 149.74 64.65 149.81 64.62C149.81 64.56 149.83 64.12 149.65 63.75C148.46 61.28 146.91 59.41 148.6 56.62C150.01 54.28 152.66 53.97 154.36 52.09C155.95 50.33 156.15 47.76 156.04 45.5C155.87 42.17 155.85 39.11 157.78 36.24C158.1 35.76 158.51 35.29 158.96 34.8L158.97 34.82Z" fill="#EDF0FF"/>
</svg>
