<svg width="822" height="580" viewBox="0 0 822 580" fill="none" xmlns="http://www.w3.org/2000/svg">
<path d="M734.476 191.058C726.863 186.481 717.242 186.528 706.827 187.088C695.758 187.696 684.642 188.209 673.526 188.63C650.641 189.47 627.616 189.377 604.917 186.248C581.191 182.978 557.746 177.14 535.514 168.267C525.099 164.11 514.964 159.393 505.437 153.508C500.533 150.472 487.736 141.738 482.271 147.81C479.936 150.145 479.936 160.14 479.936 166.679C479.889 179.616 477.834 191.759 476.386 204.416C473.818 227.161 466.158 256.865 441.918 265.599C432.858 268.868 422.536 268.354 413.849 264.244C404.695 259.901 397.783 252.008 389.703 245.889C383.538 241.172 375.738 237.202 367.798 237.623C359.438 238.09 350.658 241.453 342.391 242.947C324.13 246.31 305.448 247.104 288.214 239.024C262.666 227.068 254.96 199.418 265.422 174.151C270.653 161.541 279.9 150.659 288.634 140.057C296.2 130.903 310.819 115.957 310.912 103.347C310.912 102.974 282.936 112.735 280.414 113.762C269.065 118.386 257.856 123.337 246.833 128.614C225.022 139.029 203.865 150.752 183.455 163.689C172.62 170.555 161.598 177.934 148.987 180.27C137.031 182.511 124.701 179.989 113.165 176.206C101.302 172.33 89.5793 166.632 77.4361 163.923C73.6998 163.082 63.5182 209.88 62.8643 214.317C59.6884 235.801 61.3698 257.986 67.9084 278.676C71.9717 291.52 77.9032 303.943 79.1642 317.347C80.612 332.713 75.7081 347.986 69.4963 362.044C65.8534 370.264 64.7325 372.038 73.5596 374.607C86.4034 378.344 99.0136 382.827 111.25 388.245C123.86 393.803 137.545 398.473 151.183 396.465C178.411 392.402 198.167 365.22 218.998 349.62C242.583 331.966 271.073 320.85 300.45 317.908C309.838 316.974 319.319 316.834 328.707 317.628C341.504 318.655 354.955 321.691 363.969 330.798C375.364 342.381 376.439 361.25 370.881 376.522C365.089 392.402 353.273 402.863 343.886 416.314C335.992 427.57 324.363 443.777 328.753 458.395C332.443 470.819 348.556 477.357 362.567 477.03C388.302 476.423 410.113 456.434 429.635 442.002C450.932 426.262 472.977 410.57 498.384 402.256C535.094 390.207 576.614 394.223 610.942 376.522C623.412 370.077 634.248 361.063 644.616 351.675C654.985 342.288 663.718 332.106 675.861 326.175C703.137 312.91 735.363 318.608 761.331 340.466C760.864 315.806 759.789 291.053 757.174 266.533C754.979 245.843 753.998 221.463 744.61 202.501C741.948 197.083 738.539 193.44 734.569 191.105L734.476 191.058Z" fill="#EDEEF2"/>
<g filter="url(#filter0_d_711_30857)">
<circle cx="741" cy="282.273" r="8" fill="url(#paint0_linear_711_30857)"/>
</g>
<defs>
<filter id="filter0_d_711_30857" x="723" y="268.273" width="36" height="36" filterUnits="userSpaceOnUse" color-interpolation-filters="sRGB">
<feFlood flood-opacity="0" result="BackgroundImageFix"/>
<feColorMatrix in="SourceAlpha" type="matrix" values="0 0 0 0 0 0 0 0 0 0 0 0 0 0 0 0 0 0 127 0" result="hardAlpha"/>
<feMorphology radius="2" operator="erode" in="SourceAlpha" result="effect1_dropShadow_711_30857"/>
<feOffset dy="4"/>
<feGaussianBlur stdDeviation="6"/>
<feColorMatrix type="matrix" values="0 0 0 0 0.607843 0 0 0 0 0.615686 0 0 0 0 0.698039 0 0 0 0.4 0"/>
<feBlend mode="normal" in2="BackgroundImageFix" result="effect1_dropShadow_711_30857"/>
<feBlend mode="normal" in="SourceGraphic" in2="effect1_dropShadow_711_30857" result="shape"/>
</filter>
<linearGradient id="paint0_linear_711_30857" x1="733" y1="274.273" x2="749" y2="290.273" gradientUnits="userSpaceOnUse">
<stop stop-color="#929AFF"/>
<stop offset="1" stop-color="#AC6DFF"/>
</linearGradient>
</defs>
</svg>
