<svg width="328" height="232" viewBox="0 0 328 232" fill="none" xmlns="http://www.w3.org/2000/svg">
<path d="M311.451 72.8124C308.786 70.2965 304.947 68.8242 301.425 69.7933C298.107 70.7065 296.057 73.446 293.728 75.7383C291.007 78.4033 288.044 80.9192 284.708 82.7642C275.073 88.0756 263.276 87.3488 252.84 90.8151C238.788 95.4928 229.115 109.973 213.796 110.793C205.857 111.222 196.52 107.047 193.855 98.1578C192.029 92.0638 194.116 85.951 197.657 80.9378C199.838 77.8442 202.391 75.0115 204.292 71.7501C207.311 66.6065 194.321 69.8678 192.16 70.576C186.718 72.3465 181.779 75.4215 177.474 79.1488C171.734 84.106 165.211 89.7342 156.359 89.9206C144.954 90.1442 136.008 79.7451 124.454 85.2428C122.609 86.1188 120.913 87.2928 119.03 88.0756C107.42 92.8092 97.5427 84.8888 90.1814 76.8938C87.3859 73.856 84.5159 70.5201 80.7886 68.5819C76.875 66.5506 72.7936 67.091 68.47 67.2774C58.8536 67.6874 49.2746 68.8428 39.8259 70.7438C33.9741 71.9178 34.6077 81.1615 34.9432 85.6901C35.26 89.8647 36.5086 93.5174 35.9309 97.7851C34.8314 105.855 27.6936 112.377 22.0841 117.651C18.7109 120.801 6.4482 128.815 12.2068 133.958C13.94 135.505 16.1205 136.4 18.1332 137.574C24.4882 141.264 25.0286 150.023 26.6873 156.508C27.6936 160.459 30.0605 164.317 34.8127 163.963C38.0182 163.721 40.7018 161.466 42.8823 159.08C51.3059 149.818 56.2446 138.729 67.7805 132.598C77.9 127.231 89.8273 125.851 101.102 127.361C108.333 128.33 115.434 130.492 121.919 133.846C130.529 138.301 137.89 144.246 144.357 150.917C152.52 145.83 165.975 143.071 172.2 143.071C172.2 143.071 172.237 143.071 172.256 143.071C180.307 143.109 188.246 145.438 195.645 148.495C202.708 151.421 209.79 154.999 217.561 155.353C229.004 155.875 239.365 149.333 249.634 144.264C261.617 138.338 274.644 134.145 288.006 133.623C292.33 133.455 297.12 133.623 301.07 131.554C305.208 129.392 307.966 124.771 309.997 120.745C316.688 107.569 324.012 85.0751 311.581 72.9428C311.525 72.8869 311.488 72.8497 311.432 72.7938L311.451 72.8124Z" fill="#EDEEF2"/>
<g filter="url(#filter0_d_723_31156)">
<circle cx="308" cy="101.909" r="4" fill="url(#paint0_linear_723_31156)"/>
</g>
<defs>
<filter id="filter0_d_723_31156" x="294" y="91.9092" width="28" height="28" filterUnits="userSpaceOnUse" color-interpolation-filters="sRGB">
<feFlood flood-opacity="0" result="BackgroundImageFix"/>
<feColorMatrix in="SourceAlpha" type="matrix" values="0 0 0 0 0 0 0 0 0 0 0 0 0 0 0 0 0 0 127 0" result="hardAlpha"/>
<feMorphology radius="2" operator="erode" in="SourceAlpha" result="effect1_dropShadow_723_31156"/>
<feOffset dy="4"/>
<feGaussianBlur stdDeviation="6"/>
<feColorMatrix type="matrix" values="0 0 0 0 0.607843 0 0 0 0 0.615686 0 0 0 0 0.698039 0 0 0 0.4 0"/>
<feBlend mode="normal" in2="BackgroundImageFix" result="effect1_dropShadow_723_31156"/>
<feBlend mode="normal" in="SourceGraphic" in2="effect1_dropShadow_723_31156" result="shape"/>
</filter>
<linearGradient id="paint0_linear_723_31156" x1="304" y1="97.9092" x2="312" y2="105.909" gradientUnits="userSpaceOnUse">
<stop stop-color="#929AFF"/>
<stop offset="1" stop-color="#AC6DFF"/>
</linearGradient>
</defs>
</svg>
