<svg width="176" height="124" viewBox="0 0 176 124" fill="none" xmlns="http://www.w3.org/2000/svg">
<path d="M151.01 106.05C152.9 104.34 154.81 102.63 155.98 100.35C157.98 96.44 155.71 92.01 154.66 88.17C153.6 84.31 153.49 80.19 154.35 76.28C154.71 74.65 155.12 72.68 153.9 71.55C153.32 71.02 152.5 70.84 151.72 70.69C143.64 69.13 135.47 68.09 127.26 67.58C126.31 67.52 125.29 67.44 124.53 66.86C123.69 66.21 123.39 65.09 123.16 64.05C121.42 56.24 120.76 48.19 121.17 40.2C121.38 36.16 121.85 32.14 122.6 28.17C122.97 26.18 123.42 24.21 123.93 22.26C124.24 21.08 124.47 20.17 122.8 20.28C120.4 20.44 117.93 21.22 115.52 20.86C112.78 20.45 110.52 18.53 108.68 16.46C106.66 14.19 104.6 12.07 102.49 9.9C98.14 5.42 92.43 0.530004 86.43 2.27C76.78 5.06 77.02 21.72 67.29 24.23C64.15 25.04 60.6 24.05 57.71 25.52C55.32 26.74 53.99 29.34 51.96 31.1C47.54 34.92 41.12 34.04 35.77 33.58C31.5 33.21 26.99 33.04 23.16 34.96C21.58 35.75 19.45 37.44 20.06 39.4C20.61 41.17 22.72 42.47 24.21 43.38C26.2 44.59 28.46 45.35 30.75 45.72C35.03 46.4 39.2 45.61 43.44 44.99C44.37 44.85 45.4 44.74 46.15 45.31C46.92 45.89 47.08 46.96 47.16 47.92C47.7 54.4 47.45 60.9 48.15 67.38C48.85 73.86 50.15 80.13 52.67 86.06C54.09 89.4 56.43 92.97 60.04 93.37C61.9 93.58 63.73 92.88 65.56 92.46C71.87 91.02 78.45 93.01 84.42 95.5C98.01 101.17 110.26 109.5 123.59 115.71C126.51 117.07 129.47 118.33 132.5 119.42C134.01 119.97 135.54 120.47 137.08 120.93C138.22 121.27 140.05 122.15 141.26 121.87C142.49 121.58 142.5 120.14 142.79 119.14C143.18 117.83 143.64 116.53 144.19 115.28C145.28 112.79 146.73 110.44 148.58 108.43C149.34 107.61 150.18 106.84 151.02 106.07L151.01 106.05Z" fill="#EDF0FF"/>
</svg>
