<svg width="328" height="232" viewBox="0 0 328 232" fill="none" xmlns="http://www.w3.org/2000/svg">
<path d="M283.702 140.516C281.987 140.031 280.328 139.416 278.782 138.559C276.135 137.087 273.824 134.776 272.986 131.85C272.445 129.949 272.557 127.918 272.147 125.998C270.936 120.221 264.711 120.948 260.127 121.32C255.542 121.693 249.914 122.364 246.522 118.432C244.342 115.897 244.23 112.561 244.547 109.393C245.087 103.672 240.782 99.3853 237.633 95.099C233.644 89.6758 230.569 83.4885 229.377 76.854C228.352 71.1512 228.668 64.964 225.593 60.0626C223.022 55.9626 218.959 54.5835 214.654 53.0553C192.682 45.284 170.448 37.4381 147.19 34.7544C131.592 32.9653 113.906 32.6671 99.2761 39.134C87.6657 44.2776 78.5339 53.7449 70.2034 63.0817C63.047 71.114 56.1889 79.6308 51.362 89.3031C43.6652 104.734 41.2611 122.215 37.4034 138.857C36.5275 142.64 35.8939 147.15 37.4966 150.84C39.1925 154.717 42.8266 157.084 47.0011 157.382C52.0702 157.754 56.8411 154.269 61.9848 155.835C65.6748 156.953 68.2093 160.457 69.4766 164.109C70.7439 167.762 71.0234 171.657 71.8248 175.44C72.1416 176.894 72.6261 178.497 73.8934 179.261C74.7134 179.764 75.7011 179.839 76.6702 179.894C88.8584 180.77 100.599 183.324 112.322 186.678C124.044 190.033 135.058 193.816 146.743 196.089C149.837 196.686 152.93 197.17 156.061 197.524C158.242 197.767 158.633 197.655 160.198 195.344C164.988 188.281 171.548 182.69 179.17 179.168C190.259 174.043 203.025 173.129 215.101 173.241C225.221 173.353 235.322 174.192 245.441 174.21C254.182 174.21 263.518 173.39 271.364 169.253C276.228 166.7 280.235 162.693 283.571 158.388C285.267 156.208 286.795 153.897 288.212 151.53C289.46 149.443 291.361 147.113 291.529 144.616C291.678 142.491 289.181 141.764 287.41 141.373C286.18 141.112 284.932 140.814 283.72 140.479L283.702 140.516Z" fill="#EDEEF2"/>
<g filter="url(#filter0_d_723_31160)">
<circle cx="254" cy="156" r="4" fill="url(#paint0_linear_723_31160)"/>
</g>
<defs>
<filter id="filter0_d_723_31160" x="240" y="146" width="28" height="28" filterUnits="userSpaceOnUse" color-interpolation-filters="sRGB">
<feFlood flood-opacity="0" result="BackgroundImageFix"/>
<feColorMatrix in="SourceAlpha" type="matrix" values="0 0 0 0 0 0 0 0 0 0 0 0 0 0 0 0 0 0 127 0" result="hardAlpha"/>
<feMorphology radius="2" operator="erode" in="SourceAlpha" result="effect1_dropShadow_723_31160"/>
<feOffset dy="4"/>
<feGaussianBlur stdDeviation="6"/>
<feColorMatrix type="matrix" values="0 0 0 0 0.607843 0 0 0 0 0.615686 0 0 0 0 0.698039 0 0 0 0.4 0"/>
<feBlend mode="normal" in2="BackgroundImageFix" result="effect1_dropShadow_723_31160"/>
<feBlend mode="normal" in="SourceGraphic" in2="effect1_dropShadow_723_31160" result="shape"/>
</filter>
<linearGradient id="paint0_linear_723_31160" x1="250" y1="152" x2="258" y2="160" gradientUnits="userSpaceOnUse">
<stop stop-color="#929AFF"/>
<stop offset="1" stop-color="#AC6DFF"/>
</linearGradient>
</defs>
</svg>
