<svg width="822" height="580" viewBox="0 0 822 580" fill="none" xmlns="http://www.w3.org/2000/svg">
<path d="M128.438 88.7754C128.438 92.5584 128.624 96.2481 128.624 99.4707C128.671 111.334 129.885 123.383 134.369 134.359C139.647 147.249 149.034 157.711 158.982 167.192C168.697 176.486 178.505 186.808 190.555 192.973C207.975 201.94 228.292 203.575 246.32 211.281C249.122 212.496 252.064 214.037 253.325 216.746C255.1 220.435 253.232 224.779 251.364 228.422C240.715 249.626 170.752 381.66 161.084 406.927C155.573 421.358 152.257 436.911 153.705 452.324C154.032 455.593 154.592 458.956 156.273 461.758C157.768 464.233 160.01 466.101 162.018 468.11C181.26 487.305 181.634 520.606 202.604 537.886C223.154 554.793 464.57 567.217 506.557 570.206C511.695 559.043 517.159 548.208 525.006 538.68C532.572 529.479 541.399 520.652 545.229 509.07C549.339 496.646 547.004 483.195 546.49 470.118C545.976 457.041 548.078 442.422 558.213 434.202C565.732 428.084 574.793 425.609 580.538 417.482C586.282 409.355 591.186 399.688 594.409 389.833C595.063 387.778 595.67 385.536 595.109 383.481C593.101 376.335 582.406 376.055 584.741 366.948C586.796 358.914 594.549 352.656 599.92 346.771C607.766 338.084 616.266 330.004 623.786 320.99C635.836 306.465 646.765 290.913 655.545 274.192C665.353 255.464 672.452 235.521 679.364 215.625C682.867 205.49 686.277 195.262 690.013 185.22C693.376 176.253 688.659 173.544 680.579 170.041C668.949 164.95 655.919 164.063 643.495 162.288C600.247 156.17 560.875 136.881 524.539 113.435C518.374 109.465 509.313 96.7618 501.98 104.094C489.417 116.565 478.161 130.296 468.4 145.054C460.367 157.198 453.735 178.121 438.462 182.932C430.429 185.454 421.415 182.558 414.83 177.234C399.137 164.53 392.318 141.365 385.733 123.15C379.241 105.075 373.076 88.0281 361.493 74.1568C353.927 65.0495 344.726 57.2965 333.19 54.1206C323.382 51.4117 311.146 50.571 304.654 41.6038C298.489 33.1035 300.217 19.9329 292.184 13.2541C284.524 6.8556 270.793 10.3584 263.367 15.4025C260.705 17.224 258.37 19.7928 257.529 22.922C256.455 26.8451 257.856 31.0953 257.015 35.0651C256.221 38.9883 253.325 42.3043 249.823 44.2192C240.295 49.4968 230.02 45.5737 220.119 43.939C213.393 42.8648 206.481 42.8648 199.755 43.939C189.48 45.5737 179.859 49.7304 170.145 53.2332C160.43 56.736 149.828 57.4366 140.441 61.2664C129.792 65.6099 128.391 77.613 128.438 88.7287V88.7754Z" fill="#EDEEF2"/>
<g filter="url(#filter0_d_711_30855)">
<circle cx="617" cy="197.364" r="8" fill="url(#paint0_linear_711_30855)"/>
</g>
<defs>
<filter id="filter0_d_711_30855" x="599" y="183.364" width="36" height="36" filterUnits="userSpaceOnUse" color-interpolation-filters="sRGB">
<feFlood flood-opacity="0" result="BackgroundImageFix"/>
<feColorMatrix in="SourceAlpha" type="matrix" values="0 0 0 0 0 0 0 0 0 0 0 0 0 0 0 0 0 0 127 0" result="hardAlpha"/>
<feMorphology radius="2" operator="erode" in="SourceAlpha" result="effect1_dropShadow_711_30855"/>
<feOffset dy="4"/>
<feGaussianBlur stdDeviation="6"/>
<feColorMatrix type="matrix" values="0 0 0 0 0.607843 0 0 0 0 0.615686 0 0 0 0 0.698039 0 0 0 0.4 0"/>
<feBlend mode="normal" in2="BackgroundImageFix" result="effect1_dropShadow_711_30855"/>
<feBlend mode="normal" in="SourceGraphic" in2="effect1_dropShadow_711_30855" result="shape"/>
</filter>
<linearGradient id="paint0_linear_711_30855" x1="609" y1="189.364" x2="625" y2="205.364" gradientUnits="userSpaceOnUse">
<stop stop-color="#929AFF"/>
<stop offset="1" stop-color="#AC6DFF"/>
</linearGradient>
</defs>
</svg>
