<svg width="176" height="124" viewBox="0 0 176 124" fill="none" xmlns="http://www.w3.org/2000/svg">
<path d="M152.93 26.5901C145.28 27.4701 137.75 29.3001 130.5 31.9001C123.22 34.5101 116.63 38.1801 109.74 41.5901C106.18 43.3601 102.43 44.7901 98.6899 46.1301C93.2299 48.0901 87.4699 49.3601 81.6399 49.1101C72.3599 48.7101 63.7299 44.5501 55.0999 41.1101C48.3899 38.4301 41.2399 36.1001 33.9299 36.3601C27.3399 36.6001 20.0399 38.7301 14.1699 41.7001C16.8199 44.9801 19.3399 48.3701 21.7399 51.8401C22.9199 53.5401 23.9699 55.3401 25.1899 57.0101C26.1699 58.3501 28.2799 58.0801 29.9299 58.3601C37.7699 59.6701 45.4599 61.8901 52.7999 64.9401C57.2799 66.8001 61.5299 69.0701 65.8599 71.2301C76.8399 77.2601 86.5999 85.1501 96.2699 93.0301C97.9899 94.4301 99.6999 95.84 101.42 97.2401C102.27 97.9301 102.53 98.2801 103.54 97.6901C104.36 97.2101 104.99 96.3401 105.57 95.6101C116.17 82.2201 153.97 37.5901 161.33 27.8901C161.66 27.4501 162.01 26.8501 161.71 26.3801C161.46 25.9901 160.91 25.9701 160.45 25.9901C157.93 26.0901 155.42 26.2901 152.93 26.5701V26.5901Z" fill="#EDF0FF"/>
</svg>
