<svg width="328" height="232" viewBox="0 0 328 232" fill="none" xmlns="http://www.w3.org/2000/svg">
<path d="M129.374 41.9131C121.919 59.5431 111.855 76.0922 99.2759 90.5354C94.9523 95.5113 85.8204 105.109 85.8204 105.109C85.8204 105.109 97.5986 109.023 100.394 111.035C108.054 116.589 109.116 126.504 107.644 135.225C106.954 139.288 105.817 143.258 104.662 147.19C103.6 150.768 101.009 155.893 102.127 159.602C102.444 160.664 103.096 161.614 103.73 162.528C106.861 167.075 109.955 173.728 115.042 176.412C117.819 177.865 119.85 176.151 122.627 175.61C126.373 174.884 130.063 178.07 130.939 181.779C131.815 185.488 130.417 189.401 128.386 192.625C126.336 195.849 123.634 198.589 121.416 201.701C120.503 202.987 119.627 204.478 119.757 206.044C119.944 208.168 121.826 209.678 123.41 211.094C125.833 213.274 127.901 215.846 129.504 218.698C130.958 221.288 133.045 227.233 133.045 227.233L144.32 217.691C144.32 217.691 140.444 207.143 140.91 200.974C141.32 195.682 143.015 190.594 145.587 185.972C150.88 176.43 159.453 169.032 168.23 162.77C174.231 158.502 180.232 154.216 186.27 149.985C189.495 147.73 192.793 145.475 196.502 144.227C202.801 142.084 209.137 144.599 215.455 142.792C218.269 141.99 220.897 139.158 220.002 136.381C219.518 134.853 218.157 133.809 217.114 132.616C214.374 129.485 213.703 124.957 214.374 120.838C215.12 116.254 217.524 112.396 218.996 108.072C220.487 103.711 221.307 99.0895 220.86 94.4863C220.561 91.5045 219.741 88.5972 219.406 85.634C218.101 74.5826 223.45 63.3822 233.719 58.6113C236.458 57.3254 238.005 56.2817 239.459 53.6167C239.682 53.2254 242.235 47.9699 242.235 47.9699C242.235 47.9699 235.75 45.6776 232.638 44.2426C229.525 42.8076 226.357 41.149 223.189 39.6208C216.871 36.5644 210.162 33.8622 203.155 33.8063C198.98 33.769 195.179 35.2599 191.116 35.5954C188.376 35.819 185.413 34.6076 183.14 33.0608C179.189 30.3772 176.524 26.2399 174.269 22.1213C171.939 17.8535 170.187 13.3249 168.361 8.8149C166.572 10.0449 164.764 11.2935 162.695 12.0017C160.627 12.7099 158.279 12.8031 156.378 11.7781C154.384 10.6972 153.21 8.62854 151.812 6.85808C149.501 3.93217 146.631 3.42899 143.09 3.65263C140.295 3.83899 139.363 11.6663 138.878 13.6604C137.406 19.8104 130.846 38.5958 129.43 41.9317L129.374 41.9131Z" fill="#EDEEF2"/>
<g filter="url(#filter0_d_723_31146)">
<circle cx="201" cy="57" r="4" fill="url(#paint0_linear_723_31146)"/>
</g>
<defs>
<filter id="filter0_d_723_31146" x="187" y="47" width="28" height="28" filterUnits="userSpaceOnUse" color-interpolation-filters="sRGB">
<feFlood flood-opacity="0" result="BackgroundImageFix"/>
<feColorMatrix in="SourceAlpha" type="matrix" values="0 0 0 0 0 0 0 0 0 0 0 0 0 0 0 0 0 0 127 0" result="hardAlpha"/>
<feMorphology radius="2" operator="erode" in="SourceAlpha" result="effect1_dropShadow_723_31146"/>
<feOffset dy="4"/>
<feGaussianBlur stdDeviation="6"/>
<feColorMatrix type="matrix" values="0 0 0 0 0.607843 0 0 0 0 0.615686 0 0 0 0 0.698039 0 0 0 0.4 0"/>
<feBlend mode="normal" in2="BackgroundImageFix" result="effect1_dropShadow_723_31146"/>
<feBlend mode="normal" in="SourceGraphic" in2="effect1_dropShadow_723_31146" result="shape"/>
</filter>
<linearGradient id="paint0_linear_723_31146" x1="197" y1="53" x2="205" y2="61" gradientUnits="userSpaceOnUse">
<stop stop-color="#929AFF"/>
<stop offset="1" stop-color="#AC6DFF"/>
</linearGradient>
</defs>
</svg>
