<svg width="176" height="124" viewBox="0 0 176 124" fill="none" xmlns="http://www.w3.org/2000/svg">
<path d="M127.13 52.6001C118.41 45.4301 109.55 38.3501 100.13 32.1401C94.52 28.4401 88.69 25.2701 82.68 22.2701C77.55 19.8801 72.25 17.8201 66.84 16.1301L59.25 14.0801C64.09 22.0301 67.96 31.1801 68.97 40.4901C70.13 51.2301 66.8 63.5101 58.22 70.6001C55.02 73.2401 51.23 75.0501 47.47 76.7501C46.31 77.2801 45.1 77.8401 44.34 78.8601C43.45 80.0701 43.38 81.6901 43.53 83.1801C43.87 86.5901 45.19 89.8501 47.01 92.7501C50.68 98.5801 56.1 103.34 62.27 106.37C68.34 109.35 74.97 110.52 81.27 109.93C88.77 102.09 95.2 93.1501 101.51 84.3501C103.71 81.2701 105.92 78.1901 108.12 75.1101C110.14 72.2801 111.42 68.7601 114.32 66.6501C115.53 65.7701 116.95 65.2201 118.34 64.6801C121.23 63.5601 124.13 62.4501 126.89 61.0301C128.06 60.4301 133.65 58.0001 131.52 56.2401C130.06 55.0301 128.59 53.8201 127.12 52.6101L127.13 52.6001Z" fill="#EDF0FF"/>
</svg>
