<svg width="176" height="124" viewBox="0 0 176 124" fill="none" xmlns="http://www.w3.org/2000/svg">
<path d="M50.22 36.2499C46.16 41.3299 42.93 46.8699 39.37 52.3999C36.27 57.2199 21.03 81.8899 21.03 81.8899C21.06 81.8299 26.91 84.0899 27.47 84.2499C29.87 84.9499 31.31 84.7699 33.41 83.3499C39.69 79.0999 46.44 75.5499 53.41 72.5599C56.86 71.0899 60.37 69.8599 63.92 68.6799C66.9 67.6899 70.07 67.7599 72.43 70.1499C73.89 71.6199 74.68 73.6799 74.81 75.7499C75.09 80.0299 72.8 83.5599 70.22 86.7599C68.91 88.3899 67.52 89.9599 66.35 91.6899C65.56 92.8499 63.25 96.0099 64.27 97.4199C65.33 98.8899 68.8 98.2199 70.25 97.9599C72.58 97.5399 74.85 96.7699 77.22 96.5699C81.66 96.1999 86.24 98.0599 89.16 101.43C89.6 101.94 90.22 102.37 90.82 101.75C91.14 101.42 91.26 100.96 91.36 100.52C92.22 96.6899 92.39 92.7699 92.52 88.8599C92.62 85.8199 93.28 82.5899 95.5 80.3499C100.09 75.7199 106.47 77.9799 111.48 80.5499C117.89 83.8399 124.54 85.7799 131.74 86.3599C136.06 86.7099 140.41 86.6499 144.74 86.4099C145.62 86.3599 155 86.2799 155 86.2799C155 86.2799 151.94 71.1199 148.97 63.9599C145.21 54.8899 139.34 47.2199 130.68 42.3899C124.64 39.0199 117.98 36.9299 111.38 34.8699C104.66 32.7699 97.94 30.6699 91.22 28.5799C85.07 26.6599 78.95 24.6399 72.7 23.0599C69.88 22.3499 67.36 21.3899 64.61 22.7299C62.26 23.8699 60.48 25.8899 58.48 27.5099C55.39 30.0099 52.7 33.1499 50.23 36.2399L50.22 36.2499Z" fill="#EDF0FF"/>
</svg>
