<svg width="822" height="580" viewBox="0 0 822 580" fill="none" xmlns="http://www.w3.org/2000/svg">
<path d="M355.889 544.374C363.688 537.836 371.348 530.55 380.969 528.215C392.178 525.506 403.667 530.036 414.643 533.586C431.27 538.957 449.251 542.226 466.718 539.47C484.186 536.715 500.766 525.506 519.401 526.346C524.399 526.58 529.63 528.775 532.152 533.072C534.347 536.808 534.207 541.479 533.226 545.682C531.311 554.042 525.099 562.216 535.514 567.493C538.877 569.221 542.52 570.435 546.256 571.136C555.597 572.911 549.806 560.581 549.712 555.864C549.012 515.371 584.881 484.499 611.176 458.812C616.92 453.207 622.665 447.229 625.841 439.85C628.41 433.871 629.25 427.006 633.36 421.962C639.946 413.835 652.369 413.275 660.262 406.456C668.435 399.357 669.93 387.494 671.424 376.752C675.067 350.457 682.073 324.676 692.208 300.156C693.422 297.261 694.683 293.945 693.469 291.049C692.628 288.994 690.76 287.593 689.219 286.052C683.988 280.914 681.513 273.488 681.046 266.155C680.345 255.553 682.914 244.625 684.175 234.116C685.576 222.627 704.912 133.374 704.912 133.374C704.912 133.374 411.514 113.105 383.024 109.228C368.546 107.267 353.974 103.157 342.251 94.3761C328.847 84.3814 321.514 69.2958 315.209 54.2569C311.986 46.5507 308.997 38.751 305.354 31.2316C302.459 25.3468 297.508 13.5306 291.343 10.8684L283.17 71.7244L141.748 76.8619C137.965 76.9553 134.042 77.0487 130.633 78.6834C126.149 80.7851 123.16 85.2687 121.665 89.9859C117.135 104.324 117.135 122.399 117.135 137.298C117.135 145.424 117.509 153.551 118.303 161.631C118.536 163.966 120.218 185.403 121.852 185.637C142.075 188.346 162.298 190.914 182.475 193.53C190.088 194.511 198.214 197.64 201.577 204.505C205.593 212.679 201.39 222.3 200.83 231.361C199.849 248.268 211.945 264.848 207.648 281.241C203.352 297.494 186.211 304.687 177.617 318.044C167.202 334.297 170.285 356.529 172.667 374.51C176.029 399.73 179.392 424.904 182.755 450.125C183.269 453.954 183.782 457.924 185.557 461.38C188.173 466.565 193.263 470.208 198.728 472.169C209.75 476.092 223.902 476.606 235.531 476.933C248.982 477.307 262.386 476.513 275.837 476.466C280.274 476.466 285.178 477.54 287.7 481.136C289.381 483.518 289.755 486.554 289.755 489.45C289.755 495.521 288.541 501.593 288.727 507.665C289.428 527.934 310.539 557.452 332.817 556.097C341.737 555.537 348.883 550.259 355.889 544.374Z" fill="#EDEEF2"/>
<g filter="url(#filter0_d_711_30869)">
<circle cx="419" cy="452.409" r="8" fill="url(#paint0_linear_711_30869)"/>
</g>
<defs>
<filter id="filter0_d_711_30869" x="401" y="438.409" width="36" height="36" filterUnits="userSpaceOnUse" color-interpolation-filters="sRGB">
<feFlood flood-opacity="0" result="BackgroundImageFix"/>
<feColorMatrix in="SourceAlpha" type="matrix" values="0 0 0 0 0 0 0 0 0 0 0 0 0 0 0 0 0 0 127 0" result="hardAlpha"/>
<feMorphology radius="2" operator="erode" in="SourceAlpha" result="effect1_dropShadow_711_30869"/>
<feOffset dy="4"/>
<feGaussianBlur stdDeviation="6"/>
<feColorMatrix type="matrix" values="0 0 0 0 0.607843 0 0 0 0 0.615686 0 0 0 0 0.698039 0 0 0 0.4 0"/>
<feBlend mode="normal" in2="BackgroundImageFix" result="effect1_dropShadow_711_30869"/>
<feBlend mode="normal" in="SourceGraphic" in2="effect1_dropShadow_711_30869" result="shape"/>
</filter>
<linearGradient id="paint0_linear_711_30869" x1="411" y1="444.409" x2="427" y2="460.409" gradientUnits="userSpaceOnUse">
<stop stop-color="#929AFF"/>
<stop offset="1" stop-color="#AC6DFF"/>
</linearGradient>
</defs>
</svg>
