<svg width="176" height="124" viewBox="0 0 176 124" fill="none" xmlns="http://www.w3.org/2000/svg">
<path d="M152.23 75.3499C151.31 75.09 150.42 74.76 149.59 74.3C148.17 73.51 146.93 72.2699 146.48 70.6999C146.19 69.6799 146.25 68.5899 146.03 67.5599C145.38 64.4599 142.04 64.85 139.58 65.05C137.12 65.25 134.1 65.61 132.28 63.5C131.11 62.1399 131.05 60.35 131.22 58.65C131.51 55.58 129.2 53.2799 127.51 50.9799C125.37 48.07 123.72 44.7499 123.08 41.1899C122.53 38.1299 122.7 34.8099 121.05 32.1799C119.67 29.9799 117.49 29.2399 115.18 28.4199C103.39 24.2499 91.46 20.0399 78.98 18.5999C70.61 17.6399 61.12 17.4799 53.27 20.9499C47.04 23.7099 42.14 28.7899 37.67 33.7999C33.83 38.1099 30.15 42.6799 27.56 47.8699C23.43 56.1499 22.14 65.5299 20.07 74.4599C19.6 76.4899 19.26 78.91 20.12 80.8899C21.03 82.9699 22.98 84.2399 25.22 84.3999C27.94 84.5999 30.5 82.7299 33.26 83.5699C35.24 84.1699 36.6 86.0499 37.28 88.0099C37.96 89.9699 38.11 92.0599 38.54 94.0899C38.71 94.8699 38.97 95.7299 39.65 96.1399C40.09 96.4099 40.62 96.45 41.14 96.4799C47.68 96.95 53.98 98.3199 60.27 100.12C66.56 101.92 72.47 103.95 78.74 105.17C80.4 105.49 82.06 105.75 83.74 105.94C84.91 106.07 85.12 106.01 85.96 104.77C88.53 100.98 92.05 97.9799 96.14 96.0899C102.09 93.3399 108.94 92.85 115.42 92.91C120.85 92.9699 126.27 93.4199 131.7 93.4299C136.39 93.4299 141.4 92.9899 145.61 90.7699C148.22 89.3999 150.37 87.2499 152.16 84.9399C153.07 83.77 153.89 82.53 154.65 81.26C155.32 80.14 156.34 78.89 156.43 77.55C156.51 76.41 155.17 76.0199 154.22 75.8099C153.56 75.6699 152.89 75.51 152.24 75.33L152.23 75.3499Z" fill="#EDF0FF"/>
</svg>
