<svg width="176" height="124" viewBox="0 0 176 124" fill="none" xmlns="http://www.w3.org/2000/svg">
<path d="M106.06 11.5701C104.4 12.5801 102.39 12.9301 101 14.3401C99.09 16.2801 97.67 18.8201 97.39 21.5701C97.05 24.8801 98.22 28.1501 98.37 31.4701C98.54 35.1701 97.43 38.8201 95.95 42.2201C94.95 44.5301 93.75 47.1401 94.74 49.4501C95.39 50.9501 96.85 51.9801 97.55 53.4601C98.82 56.1501 97.06 59.5001 94.46 60.9401C91.86 62.3801 88.72 62.3701 85.76 62.1601C84.63 62.0801 83.49 61.9701 82.38 62.2201C80.92 62.5401 79.67 63.4201 78.46 64.2901C73.1 68.1201 67.75 71.9501 62.39 75.7801C57.99 78.9301 54.26 83.6301 52.63 88.8601C52.06 90.6901 51.74 92.6601 51.81 94.5801C51.89 97.0101 53.28 99.0401 53.9 101.33C54.06 101.94 54.17 102.59 54 103.19C53.72 104.15 52.83 104.78 52.01 105.36C49.72 106.98 47.58 108.82 45.62 110.83L50.37 115.43C50.37 115.43 53.09 112.82 56.18 113.94C59.2 115.7 58.81 120.06 62.06 121.49C65.01 122.79 68.87 121.83 71.67 120.54C74.27 119.34 76.66 117.79 78.59 115.65C80.52 113.51 80.99 110.87 81.2 108.07C81.41 105.27 81.63 102.19 83.51 100.09C85.19 98.2201 88.09 97.5501 90.42 98.5001C92.83 99.4801 94.59 101.97 97.18 102.22C99.13 102.41 100.84 101.31 102.49 100.43C104.43 99.4001 106.36 98.3601 108.27 97.2701C114.52 93.7001 119.82 89.6301 124.75 84.3901C125.64 83.4401 126.54 82.4201 126.89 81.1601C127.32 79.6401 126.89 78.0201 126.85 76.4401C126.75 71.8901 129.91 67.8401 130.27 63.3101C130.31 62.7501 128.84 62.5001 128.4 62.1901C127.68 61.7001 127.13 61.0301 126.7 60.2901C125.87 58.8501 125.51 57.1701 125.22 55.5501C124.46 51.4101 124.2 47.2101 123.79 43.0301C123.64 41.5101 123.47 39.9701 122.98 38.5201C122.36 36.7101 121.26 35.1101 120.5 33.3601C118.12 27.8701 119.29 21.4901 117.91 15.6701C117.34 13.2601 116.33 10.9301 116.16 8.46008C116.07 7.22008 116.19 5.96008 115.95 4.75008C115.67 3.37008 114.65 1.58008 113.02 2.26008C109.78 3.61008 109.53 8.20008 107.38 10.5501C107 10.9701 106.56 11.3001 106.1 11.5801L106.06 11.5701Z" fill="#EDF0FF"/>
</svg>
