<svg width="328" height="232" viewBox="0 0 328 232" fill="none" xmlns="http://www.w3.org/2000/svg">
<path d="M147.414 220.766C148.588 220.841 149.762 220.953 150.936 221.139C153.098 221.474 155.483 221.978 157.328 220.822C158.353 220.189 159.024 219.145 159.788 218.213C162.248 215.25 165.92 213.33 169.759 213.032C171.753 212.883 173.896 213.107 175.611 212.063C177.195 211.113 178.033 209.305 178.779 207.609C180.381 204.012 182.096 200.378 184.705 197.452C187.333 194.526 191.041 192.327 194.974 192.383C199.335 192.458 203.155 195.179 206.472 198.011C210.144 201.142 213.591 204.553 216.722 208.243C217.114 208.69 217.505 209.174 218.064 209.398C218.53 209.584 219.071 209.584 219.574 209.566C232.526 209.249 282.285 208.205 282.285 208.187C282.285 200.658 283.459 193.222 285.714 186.028C283.236 180.661 283.366 173.765 284.615 168.1C286.05 161.577 288.957 155.483 291.995 149.575C296.523 140.779 325.876 82.9503 325.876 82.9503C317.918 80.6581 309.55 78.4404 302.077 74.8063C297.828 72.7376 293.97 69.9049 290.522 66.6994C282.509 59.2635 276.396 50.7467 273.88 39.9563C270.805 39.8631 258.691 38.9126 256.287 40.6458C254.685 41.8013 253.883 43.7581 253.473 45.6963C253.063 47.6344 252.989 49.6099 252.467 51.5108C252.131 52.7408 251.591 53.9522 250.659 54.8467C248.609 56.8222 245.366 56.6731 242.571 56.114C239.776 55.5549 236.85 54.6976 234.185 55.6853C232.209 56.4122 230.644 58.164 230.141 60.214C229.712 61.9472 230.01 63.7549 230.085 65.544C230.159 67.3331 229.917 69.2713 228.668 70.5385C227.531 71.694 225.761 72.0481 224.158 71.7872C222.556 71.5263 221.102 70.7435 219.741 69.8676C217.151 68.2276 214.766 66.2708 212.641 64.0717C211.131 62.5063 209.696 60.6613 209.473 58.4994C209.193 55.909 210.684 53.5049 211.281 50.989C212.287 46.8144 210.833 42.4722 209.361 38.4281C207.181 32.4085 204.888 26.3703 203.975 20.034C203.211 14.7226 203.509 8.19989 198.142 5.31126C194.228 3.20535 188.824 3.22398 184.947 5.44171C175.648 10.7903 170.728 21.5063 161.037 26.2958C153.415 30.079 144.283 30.7685 136.325 27.5817C126.224 23.519 121.901 13.3622 117.148 4.37944C117.148 4.37944 84.5532 8.68444 77.5646 13.0826C76.2228 14.0144 75.1046 15.4494 74.9555 17.0894C74.7505 19.3444 76.3532 21.4131 78.2355 22.6803C80.4346 24.1526 83.0437 24.8981 85.3546 26.1467C87.6655 27.3953 89.8646 29.4826 90.051 32.129C90.1814 33.9367 89.2682 35.8003 87.7587 36.7881C85.9323 37.9808 83.5469 37.9063 81.441 37.3099C79.3351 36.7135 77.3969 35.6885 75.3096 35.0735C74.5269 34.8313 73.6882 34.6635 72.8869 34.8313C71.6569 35.0922 70.6878 36.1358 70.2591 37.3099C68.8801 41.1117 71.4891 45.249 73.3714 48.3799C75.1232 51.3058 77.1173 54.1199 78.4219 57.2881C80.416 62.1708 81.236 67.4635 81.2919 72.719C81.3664 78.5522 80.5278 84.3481 79.2605 90.0322C78.4219 93.7967 77.3969 97.5613 76.4091 101.195C74.266 109.079 72.0669 117.223 71.6942 125.385C71.6382 126.485 70.7437 127.361 69.6069 127.361C54.2319 127.193 40.646 127.678 30.2096 135.319C21.6555 141.562 10.8091 164.13 10.8091 164.13L2.05005 180.717C17.2201 184.705 91.896 207.274 128.461 227.382C130.417 223.841 134.051 222.35 137.797 221.53C140.928 220.859 144.171 220.599 147.358 220.766H147.414Z" fill="#EDEEF2"/>
<g filter="url(#filter0_d_723_31132)">
<circle cx="256" cy="97.9092" r="4" fill="url(#paint0_linear_723_31132)"/>
</g>
<defs>
<filter id="filter0_d_723_31132" x="242" y="87.9092" width="28" height="28" filterUnits="userSpaceOnUse" color-interpolation-filters="sRGB">
<feFlood flood-opacity="0" result="BackgroundImageFix"/>
<feColorMatrix in="SourceAlpha" type="matrix" values="0 0 0 0 0 0 0 0 0 0 0 0 0 0 0 0 0 0 127 0" result="hardAlpha"/>
<feMorphology radius="2" operator="erode" in="SourceAlpha" result="effect1_dropShadow_723_31132"/>
<feOffset dy="4"/>
<feGaussianBlur stdDeviation="6"/>
<feColorMatrix type="matrix" values="0 0 0 0 0.607843 0 0 0 0 0.615686 0 0 0 0 0.698039 0 0 0 0.4 0"/>
<feBlend mode="normal" in2="BackgroundImageFix" result="effect1_dropShadow_723_31132"/>
<feBlend mode="normal" in="SourceGraphic" in2="effect1_dropShadow_723_31132" result="shape"/>
</filter>
<linearGradient id="paint0_linear_723_31132" x1="252" y1="93.9092" x2="260" y2="101.909" gradientUnits="userSpaceOnUse">
<stop stop-color="#929AFF"/>
<stop offset="1" stop-color="#AC6DFF"/>
</linearGradient>
</defs>
</svg>
