<svg width="176" height="124" viewBox="0 0 176 124" fill="none" xmlns="http://www.w3.org/2000/svg">
<path d="M167.12 39.07C165.69 37.72 163.63 36.93 161.74 37.45C159.96 37.94 158.86 39.41 157.61 40.64C156.15 42.07 154.56 43.42 152.77 44.41C147.6 47.26 141.27 46.87 135.67 48.73C128.13 51.24 122.94 59.01 114.72 59.45C110.46 59.68 105.45 57.44 104.02 52.67C103.04 49.4 104.16 46.12 106.06 43.43C107.23 41.77 108.6 40.25 109.62 38.5C111.24 35.74 104.27 37.49 103.11 37.87C100.19 38.82 97.54 40.47 95.23 42.47C92.15 45.13 88.65 48.15 83.9 48.25C77.78 48.37 72.98 42.79 66.78 45.74C65.79 46.21 64.88 46.84 63.87 47.26C57.64 49.8 52.34 45.55 48.39 41.26C46.89 39.63 45.35 37.84 43.35 36.8C41.25 35.71 39.06 36 36.74 36.1C31.58 36.32 26.44 36.94 21.37 37.96C18.23 38.59 18.57 43.55 18.75 45.98C18.92 48.22 19.59 50.18 19.28 52.47C18.69 56.8 14.86 60.3 11.85 63.13C10.04 64.82 3.45997 69.12 6.54997 71.88C7.47997 72.71 8.64997 73.19 9.72997 73.82C13.14 75.8 13.43 80.5 14.32 83.98C14.86 86.1 16.13 88.17 18.68 87.98C20.4 87.85 21.84 86.64 23.01 85.36C27.53 80.39 30.18 74.44 36.37 71.15C41.8 68.27 48.2 67.53 54.25 68.34C58.13 68.86 61.94 70.02 65.42 71.82C70.04 74.21 73.99 77.4 77.46 80.98C81.84 78.25 89.06 76.77 92.4 76.77C92.4 76.77 92.42 76.77 92.43 76.77C96.75 76.79 101.01 78.04 104.98 79.68C108.77 81.25 112.57 83.17 116.74 83.36C122.88 83.64 128.44 80.13 133.95 77.41C140.38 74.23 147.37 71.98 154.54 71.7C156.86 71.61 159.43 71.7 161.55 70.59C163.77 69.43 165.25 66.95 166.34 64.79C169.93 57.72 173.86 45.65 167.19 39.14C167.16 39.11 167.14 39.09 167.11 39.06L167.12 39.07Z" fill="#EDF0FF"/>
</svg>
