<svg width="176" height="124" viewBox="0 0 176 124" fill="none" xmlns="http://www.w3.org/2000/svg">
<path d="M122.05 80.47C118.93 78.21 116.44 75.08 114.93 71.54C114.04 69.45 113.47 67.19 112.14 65.35C110.46 63.03 107.61 61.4 107.04 58.6C106.52 56.03 108.15 53.84 109.67 51.96C111.19 50.08 114.1 47.28 113.62 44.59C113.55 44.18 113.34 43.77 112.97 43.6C112.56 43.42 112.09 43.57 111.66 43.69C108.66 44.5 105.5 43.25 103.26 41.25C100.98 39.22 99.45 36.51 97.97 33.84C97.28 32.61 96.58 31.33 96.42 29.92C96.25 28.34 96.79 26.78 97.27 25.27C98.25 22.23 99.07 19.14 99.7 16.01C100.19 13.62 100.57 11.09 99.81 8.77002C98.36 4.33002 93.22 2.14002 88.56 2.02002C90.58 2.78002 91.63 5.13002 91.56 7.28002C91.49 9.43002 90.55 11.45 89.63 13.4C88.08 16.67 86.44 20.05 83.61 22.31C81.72 23.81 79.38 24.74 77.74 26.51C75.3 29.15 74.94 33.08 75.19 36.67C75.44 40.26 76.17 43.88 75.44 47.4C74.36 52.59 70.34 56.57 67.16 60.81C57.03 74.35 54.86 92.12 53.98 109.01C53.9 110.54 54.15 112.53 55.64 112.88C56.9 113.18 57.98 112.01 59.14 111.43C61.52 110.25 64.43 111.66 66.23 113.63C68.03 115.6 69.19 118.08 71.1 119.93C71.4 120.22 71.77 120.51 72.19 120.47C72.7 120.41 73.01 119.89 73.23 119.43C74.21 117.43 75.6 115.15 77.82 115.03C80.12 114.91 81.73 117.15 83.09 119C85.06 121.69 87.2 122.04 90.31 122.02C93.45 122 96.55 121.24 99.55 120.39C105.55 118.67 111.73 116.15 118.1 117.13C116.97 113 116.67 108.64 117.23 104.4C117.37 103.37 117.55 102.32 117.28 101.32C116.81 99.58 115.11 98.48 114.2 96.93C112.55 94.13 113.78 90.47 115.75 87.89C117.72 85.31 120.37 83.27 122.06 80.5L122.05 80.47Z" fill="#EDF0FF"/>
</svg>
