<svg width="822" height="580" viewBox="0 0 822 580" fill="none" xmlns="http://www.w3.org/2000/svg">
<path d="M277.145 256.067C295.64 261.999 314.835 266.623 326.792 282.082C338.701 297.448 338.141 319.025 341.037 337.38C344.259 357.977 348.463 378.527 355.235 398.283C361.446 416.357 369.76 433.778 374.711 452.226C379.661 470.675 380.969 490.991 373.309 508.505C371.441 512.755 369.059 516.912 368.732 521.536C368.219 528.635 372.702 535.174 377.887 540.031C388.255 549.792 399.137 560.067 411.794 566.746C414.456 568.147 420.715 571.837 423.657 569.688C428.935 565.905 424.684 548.531 424.591 543.113C424.404 528.728 431.503 514.764 442.339 505.47C463.636 487.161 492.593 495.848 517.533 499.164C519.915 499.491 522.577 499.772 524.585 498.371C526.687 496.969 527.388 494.214 527.901 491.738C532.759 469.367 534.86 439.569 557.139 426.913C568.348 420.561 581.985 420.981 594.876 421.588C604.637 422.055 641.627 427.426 644.99 421.495C646.111 419.487 645.317 363.394 643.775 358.957C640.973 350.924 634.108 345.086 627.102 340.369C606.832 326.685 585.675 310.665 572.224 289.788C558.166 267.93 550.88 241.215 554.897 215.248C557.419 199.088 563.911 184.329 570.169 170.084C576.054 156.727 581.612 144.163 583.854 130.852C587.076 112.171 567.6 97.3652 550.413 84.3347C544.155 79.5708 538.27 75.0872 533.786 70.6502C517.58 54.4438 532.759 38.7043 539.998 31.1382C542.006 29.0832 544.855 26.0941 545.929 24.366C542.66 16.7532 534.907 10.9151 526.64 10.0744C514.451 8.72 503.195 17.1735 497.637 22.311C491.892 27.5886 486.942 33.7536 481.711 40.2923C478.441 44.3089 475.219 48.3722 471.809 52.2019C456.77 69.0623 437.949 82.4665 417.258 91.4338C407.077 95.824 396.942 99.14 386.013 101.195C374.711 103.297 363.034 104.838 352.573 110.022C347.715 112.451 343.185 115.673 340.196 120.204C335.199 127.77 335.152 137.951 329.501 145.004C326.605 148.647 322.355 151.122 317.778 151.869C308.624 153.364 299.75 148.133 292.697 142.202C277.098 129.078 262.013 120.344 242.023 115.16C231.421 112.404 219.932 110.022 209.89 108.574C199.849 107.126 177.944 107.22 177.944 107.22C177.944 107.22 214.28 135.523 218.064 173.821C221.706 191.195 225.396 218.283 239.501 234.817C249.262 246.306 262.993 251.584 277.145 256.114V256.067Z" fill="#EDEEF2"/>
<g filter="url(#filter0_d_711_30871)">
<circle cx="501" cy="189.409" r="8" fill="url(#paint0_linear_711_30871)"/>
</g>
<defs>
<filter id="filter0_d_711_30871" x="483" y="175.409" width="36" height="36" filterUnits="userSpaceOnUse" color-interpolation-filters="sRGB">
<feFlood flood-opacity="0" result="BackgroundImageFix"/>
<feColorMatrix in="SourceAlpha" type="matrix" values="0 0 0 0 0 0 0 0 0 0 0 0 0 0 0 0 0 0 127 0" result="hardAlpha"/>
<feMorphology radius="2" operator="erode" in="SourceAlpha" result="effect1_dropShadow_711_30871"/>
<feOffset dy="4"/>
<feGaussianBlur stdDeviation="6"/>
<feColorMatrix type="matrix" values="0 0 0 0 0.607843 0 0 0 0 0.615686 0 0 0 0 0.698039 0 0 0 0.4 0"/>
<feBlend mode="normal" in2="BackgroundImageFix" result="effect1_dropShadow_711_30871"/>
<feBlend mode="normal" in="SourceGraphic" in2="effect1_dropShadow_711_30871" result="shape"/>
</filter>
<linearGradient id="paint0_linear_711_30871" x1="493" y1="181.409" x2="509" y2="197.409" gradientUnits="userSpaceOnUse">
<stop stop-color="#929AFF"/>
<stop offset="1" stop-color="#AC6DFF"/>
</linearGradient>
</defs>
</svg>
