<svg width="822" height="580" viewBox="0 0 822 580" fill="none" xmlns="http://www.w3.org/2000/svg">
<path d="M234.55 169.804C215.588 193.53 200.503 219.404 183.876 245.232C169.397 267.743 98.2197 382.964 98.2197 382.964C98.3598 382.683 125.682 393.239 128.297 393.986C139.507 397.255 146.232 396.414 156.04 389.782C185.37 369.933 216.896 353.353 249.449 339.388C265.562 332.523 281.955 326.778 298.536 321.267C312.453 316.643 327.259 316.97 338.281 328.132C345.1 334.998 348.79 344.619 349.397 354.287C350.704 374.276 340.009 390.763 327.959 405.709C321.841 413.321 315.349 420.654 309.885 428.734C306.195 434.152 295.406 448.91 300.17 455.496C305.121 462.361 321.327 459.232 328.1 458.018C338.982 456.056 349.584 452.46 360.653 451.526C381.389 449.798 402.78 458.485 416.418 474.224C418.473 476.606 421.368 478.614 424.171 475.719C425.665 474.177 426.226 472.029 426.693 469.974C430.709 452.086 431.503 433.778 432.111 415.517C432.578 401.318 435.66 386.233 446.028 375.771C467.466 354.147 497.263 364.702 520.662 376.705C550.6 392.071 581.659 401.132 615.286 403.84C635.462 405.475 655.779 405.195 676.002 404.074C680.112 403.84 723.921 403.467 723.921 403.467C723.921 403.467 709.629 332.663 695.758 299.222C678.197 256.861 650.781 221.039 610.335 198.481C582.125 182.741 551.02 172.98 520.195 163.359C488.81 153.551 457.424 143.743 426.039 133.982C397.316 125.014 368.732 115.58 339.542 108.201C326.371 104.885 314.602 100.401 301.758 106.659C290.783 111.984 282.469 121.418 273.128 128.984C258.697 140.66 246.133 155.326 234.597 169.757L234.55 169.804Z" fill="#EDEEF2"/>
<g filter="url(#filter0_d_711_30867)">
<circle cx="655" cy="271.409" r="8" fill="url(#paint0_linear_711_30867)"/>
</g>
<defs>
<filter id="filter0_d_711_30867" x="637" y="257.409" width="36" height="36" filterUnits="userSpaceOnUse" color-interpolation-filters="sRGB">
<feFlood flood-opacity="0" result="BackgroundImageFix"/>
<feColorMatrix in="SourceAlpha" type="matrix" values="0 0 0 0 0 0 0 0 0 0 0 0 0 0 0 0 0 0 127 0" result="hardAlpha"/>
<feMorphology radius="2" operator="erode" in="SourceAlpha" result="effect1_dropShadow_711_30867"/>
<feOffset dy="4"/>
<feGaussianBlur stdDeviation="6"/>
<feColorMatrix type="matrix" values="0 0 0 0 0.607843 0 0 0 0 0.615686 0 0 0 0 0.698039 0 0 0 0.4 0"/>
<feBlend mode="normal" in2="BackgroundImageFix" result="effect1_dropShadow_711_30867"/>
<feBlend mode="normal" in="SourceGraphic" in2="effect1_dropShadow_711_30867" result="shape"/>
</filter>
<linearGradient id="paint0_linear_711_30867" x1="647" y1="263.409" x2="663" y2="279.409" gradientUnits="userSpaceOnUse">
<stop stop-color="#929AFF"/>
<stop offset="1" stop-color="#AC6DFF"/>
</linearGradient>
</defs>
</svg>
