<svg width="176" height="124" viewBox="0 0 176 124" fill="none" xmlns="http://www.w3.org/2000/svg">
<path d="M40.7101 53.82C41.8501 56.18 44.0401 56.91 46.4301 57.47C53.8501 59.2 60.6201 62.48 65.8801 68.1C75.7401 78.62 78.1401 93.91 84.4201 106.89C87.1201 112.48 93.6401 122.35 100.52 115.87C102.52 113.99 103.66 111.4 104.89 108.95C109.46 99.79 115.84 91.53 123.53 84.78C128.81 80.15 135.13 75.53 136.26 68.6C137.03 63.88 134.96 58.9 131.32 55.81C128.72 53.61 125.44 52.33 122.84 50.14C116.63 44.91 115.56 35.93 114.77 27.85C113.98 19.77 112.51 10.74 105.92 5.98999C98.8101 16.24 92.7201 27.19 87.7501 38.63C86.0101 42.64 84.2001 46.97 80.5101 49.33C78.2901 50.75 75.6101 51.28 72.9801 51.43C62.2001 52.05 51.5601 46.81 40.8801 48.38C40.5001 48.44 40.1001 48.51 39.8401 48.79C39.4601 49.2 39.5501 49.85 39.6701 50.4C39.9201 51.56 40.1901 52.76 40.7001 53.82H40.7101Z" fill="#EDF0FF"/>
</svg>
