<svg width="822" height="580" viewBox="0 0 822 580" fill="none" xmlns="http://www.w3.org/2000/svg">
<path d="M324.223 105.402C305.541 149.585 280.321 191.058 248.795 227.254C237.96 239.724 215.074 263.777 215.074 263.777C215.074 263.777 244.592 273.585 251.597 278.629C270.793 292.547 273.455 317.394 269.765 339.252C268.037 349.433 265.188 359.381 262.293 369.236C259.631 378.203 253.139 391.047 255.941 400.341C256.735 403.004 258.37 405.385 259.958 407.674C267.804 419.07 275.557 435.743 288.307 442.469C295.266 446.112 300.357 441.815 307.316 440.461C316.704 438.639 325.951 446.626 328.146 455.92C330.341 465.214 326.838 475.022 321.748 483.102C316.61 491.182 309.838 498.047 304.28 505.847C301.992 509.07 299.797 512.806 300.123 516.729C300.591 522.053 305.308 525.836 309.278 529.386C315.349 534.85 320.533 541.296 324.55 548.441C328.193 554.933 333.424 569.832 333.424 569.832L361.68 545.919C361.68 545.919 351.965 519.485 353.133 504.025C354.161 490.761 358.411 478.011 364.856 466.428C378.12 442.516 399.604 423.974 421.602 408.281C436.641 397.586 451.68 386.844 466.812 376.242C474.892 370.591 483.159 364.939 492.453 361.81C508.239 356.439 524.118 362.744 539.951 358.214C547.004 356.206 553.589 349.106 551.347 342.147C550.133 338.318 546.723 335.702 544.108 332.713C537.242 324.867 535.561 313.518 537.242 303.196C539.111 291.707 545.136 282.039 548.825 271.203C552.562 260.274 554.617 248.692 553.496 237.156C552.748 229.683 550.693 222.397 549.853 214.971C546.583 187.275 559.988 159.206 585.722 147.249C592.587 144.027 596.464 141.411 600.107 134.733C600.667 133.752 607.066 120.581 607.066 120.581C607.066 120.581 590.813 114.836 583.013 111.24C575.213 107.644 567.273 103.487 559.334 99.6575C543.501 91.9979 526.687 85.2258 509.126 85.0857C498.664 84.9923 489.137 88.7286 478.955 89.5693C472.09 90.1298 464.664 87.094 458.966 83.2175C449.064 76.492 442.386 66.1236 436.734 55.8019C430.896 45.1066 426.506 33.7574 421.929 22.4549C417.445 25.5374 412.915 28.6666 407.731 30.4414C402.547 32.2161 396.662 32.4497 391.898 29.8809C386.901 27.172 383.958 21.9878 380.455 17.5509C374.664 10.2183 367.471 8.95726 358.598 9.51772C351.592 9.98476 349.257 29.6007 348.042 34.5981C344.353 50.0106 327.913 97.0887 324.363 105.449L324.223 105.402Z" fill="#EDEEF2"/>
<g filter="url(#filter0_d_711_30849)">
<circle cx="507" cy="142.273" r="8" fill="url(#paint0_linear_711_30849)"/>
</g>
<defs>
<filter id="filter0_d_711_30849" x="489" y="128.273" width="36" height="36" filterUnits="userSpaceOnUse" color-interpolation-filters="sRGB">
<feFlood flood-opacity="0" result="BackgroundImageFix"/>
<feColorMatrix in="SourceAlpha" type="matrix" values="0 0 0 0 0 0 0 0 0 0 0 0 0 0 0 0 0 0 127 0" result="hardAlpha"/>
<feMorphology radius="2" operator="erode" in="SourceAlpha" result="effect1_dropShadow_711_30849"/>
<feOffset dy="4"/>
<feGaussianBlur stdDeviation="6"/>
<feColorMatrix type="matrix" values="0 0 0 0 0.607843 0 0 0 0 0.615686 0 0 0 0 0.698039 0 0 0 0.4 0"/>
<feBlend mode="normal" in2="BackgroundImageFix" result="effect1_dropShadow_711_30849"/>
<feBlend mode="normal" in="SourceGraphic" in2="effect1_dropShadow_711_30849" result="shape"/>
</filter>
<linearGradient id="paint0_linear_711_30849" x1="499" y1="134.273" x2="515" y2="150.273" gradientUnits="userSpaceOnUse">
<stop stop-color="#929AFF"/>
<stop offset="1" stop-color="#AC6DFF"/>
</linearGradient>
</defs>
</svg>
