<svg width="822" height="580" viewBox="0 0 822 580" fill="none" xmlns="http://www.w3.org/2000/svg">
<path d="M705.285 495.392C714.113 487.406 723.033 479.419 728.498 468.771C737.838 450.509 727.237 429.819 722.333 411.885C717.382 393.857 716.868 374.615 720.885 356.353C722.566 348.74 724.481 339.539 718.783 334.262C716.074 331.786 712.244 330.946 708.601 330.245C670.864 322.959 632.707 318.102 594.362 315.72C589.925 315.44 585.161 315.066 581.612 312.357C577.689 309.322 576.287 304.091 575.213 299.233C567.087 262.757 564.004 225.16 565.919 187.843C566.9 168.974 569.095 150.199 572.598 131.657C574.326 122.363 576.428 113.162 578.809 104.055C580.257 98.5439 581.332 94.2938 573.532 94.8076C562.323 95.5549 550.787 99.1978 539.531 97.5164C526.734 95.6016 516.179 86.6343 507.585 76.9664C498.151 66.3645 488.53 56.4632 478.675 46.3283C458.358 25.4046 431.69 2.56611 403.667 10.6927C358.598 23.7233 359.718 101.533 314.275 113.256C299.61 117.039 283.03 112.415 269.532 119.281C258.37 124.979 252.158 137.122 242.677 145.342C222.033 163.183 192.049 159.073 167.062 156.925C147.119 155.197 126.056 154.403 108.168 163.37C100.788 167.06 90.8403 174.953 93.6893 184.107C96.258 192.373 106.113 198.445 113.072 202.695C122.366 208.346 132.921 211.896 143.616 213.624C163.606 216.8 183.082 213.11 202.885 210.215C207.228 209.561 212.039 209.047 215.541 211.709C219.138 214.418 219.885 219.415 220.259 223.899C222.781 254.163 221.613 284.521 224.882 314.786C228.152 345.051 234.223 374.334 245.993 402.03C252.625 417.629 263.554 434.303 280.414 436.171C289.101 437.152 297.648 433.883 306.195 431.921C335.666 425.196 366.397 434.49 394.28 446.119C457.751 472.601 514.964 511.506 577.221 540.509C590.859 546.861 604.684 552.746 618.835 557.836C625.888 560.405 633.033 562.74 640.226 564.889C645.55 566.477 654.097 570.587 659.748 569.279C665.493 567.925 665.54 561.199 666.894 556.529C668.716 550.41 670.864 544.339 673.433 538.501C678.524 526.871 685.296 515.896 693.936 506.508C697.486 502.678 701.409 499.082 705.332 495.486L705.285 495.392Z" fill="#EDEEF2"/>
<g filter="url(#filter0_d_711_30829)">
<circle cx="369" cy="114.909" r="8" fill="url(#paint0_linear_711_30829)"/>
</g>
<defs>
<filter id="filter0_d_711_30829" x="351" y="100.909" width="36" height="36" filterUnits="userSpaceOnUse" color-interpolation-filters="sRGB">
<feFlood flood-opacity="0" result="BackgroundImageFix"/>
<feColorMatrix in="SourceAlpha" type="matrix" values="0 0 0 0 0 0 0 0 0 0 0 0 0 0 0 0 0 0 127 0" result="hardAlpha"/>
<feMorphology radius="2" operator="erode" in="SourceAlpha" result="effect1_dropShadow_711_30829"/>
<feOffset dy="4"/>
<feGaussianBlur stdDeviation="6"/>
<feColorMatrix type="matrix" values="0 0 0 0 0.607843 0 0 0 0 0.615686 0 0 0 0 0.698039 0 0 0 0.4 0"/>
<feBlend mode="normal" in2="BackgroundImageFix" result="effect1_dropShadow_711_30829"/>
<feBlend mode="normal" in="SourceGraphic" in2="effect1_dropShadow_711_30829" result="shape"/>
</filter>
<linearGradient id="paint0_linear_711_30829" x1="361" y1="106.909" x2="377" y2="122.909" gradientUnits="userSpaceOnUse">
<stop stop-color="#929AFF"/>
<stop offset="1" stop-color="#AC6DFF"/>
</linearGradient>
</defs>
</svg>
