<svg width="822" height="580" viewBox="0 0 822 580" fill="none" xmlns="http://www.w3.org/2000/svg">
<path d="M664.045 165.554C657.927 164.059 651.809 162.518 645.784 160.697C614.865 151.262 580.397 103.25 573.532 103.25C573.532 103.25 559.941 131.693 556.438 138.652C549.292 152.897 542.94 167.469 536.075 181.807C525.94 203.011 514.451 223.561 498.478 240.982C482.785 258.122 462.982 271.62 441.498 280.4C417.025 290.395 390.637 294.178 364.576 297.448C338.514 300.717 311.846 304.453 285.598 308.937C263.507 312.72 241.462 316.97 219.698 322.294C208.582 325.003 197.513 327.992 186.538 331.355C176.403 334.437 154.452 342.564 154.452 342.564C154.452 342.564 161.084 344.619 164.26 345.74C188.826 354.38 210.871 373.856 205.173 402.486C202.137 417.665 191.395 430.229 179.252 439.803C164.166 451.619 128.764 464.416 133.808 474.738C138.853 485.06 184.903 455.963 211.385 449.517C237.866 443.072 258.089 440.504 280.788 437.188C336.273 429.014 392.458 422.522 448.504 420.28C473.117 419.3 497.917 419.813 522.203 424.437C525.846 425.138 529.583 425.932 533.272 425.605C550.74 424.204 553.309 392.491 555.317 379.554C557.932 362.554 560.922 343.265 572.271 326.358C585.441 306.742 610.615 299.362 634.948 292.31C644.896 289.414 654.938 286.612 664.419 282.455C671.471 279.373 681.98 274.282 683.801 266.015C684.548 262.653 683.661 259.196 682.961 255.834C680.158 242.149 680.952 228.045 683.147 214.36C685.156 201.656 690.013 189 688.332 176.062C687.444 169.103 678.383 169.244 672.545 167.796C669.743 167.095 666.894 166.395 664.092 165.741L664.045 165.554Z" fill="#EDEEF2"/>
<g filter="url(#filter0_d_711_30865)">
<circle cx="358" cy="412.409" r="8" fill="url(#paint0_linear_711_30865)"/>
</g>
<defs>
<filter id="filter0_d_711_30865" x="340" y="398.409" width="36" height="36" filterUnits="userSpaceOnUse" color-interpolation-filters="sRGB">
<feFlood flood-opacity="0" result="BackgroundImageFix"/>
<feColorMatrix in="SourceAlpha" type="matrix" values="0 0 0 0 0 0 0 0 0 0 0 0 0 0 0 0 0 0 127 0" result="hardAlpha"/>
<feMorphology radius="2" operator="erode" in="SourceAlpha" result="effect1_dropShadow_711_30865"/>
<feOffset dy="4"/>
<feGaussianBlur stdDeviation="6"/>
<feColorMatrix type="matrix" values="0 0 0 0 0.607843 0 0 0 0 0.615686 0 0 0 0 0.698039 0 0 0 0.4 0"/>
<feBlend mode="normal" in2="BackgroundImageFix" result="effect1_dropShadow_711_30865"/>
<feBlend mode="normal" in="SourceGraphic" in2="effect1_dropShadow_711_30865" result="shape"/>
</filter>
<linearGradient id="paint0_linear_711_30865" x1="350" y1="404.409" x2="366" y2="420.409" gradientUnits="userSpaceOnUse">
<stop stop-color="#929AFF"/>
<stop offset="1" stop-color="#AC6DFF"/>
</linearGradient>
</defs>
</svg>
