<svg width="328" height="232" viewBox="0 0 328 232" fill="none" xmlns="http://www.w3.org/2000/svg">
<path d="M167.522 209.491C167.597 209.38 167.653 209.286 167.727 209.175C170.299 204.87 173.449 200.583 177.269 196.26C192.383 179.189 211.392 166.013 223.04 145.941C232.824 129.076 236.197 99.3878 257.219 99.276C261.338 99.2574 266.407 78.2355 262.214 77.956C259.157 78.6642 256.53 79.8196 253.268 79.801C250.007 79.7824 246.895 79.186 243.857 78.2355C238.266 76.4837 233.085 73.7255 227.718 71.4333C222.034 69.0105 216.2 66.9792 210.535 64.426C207.33 62.991 204.217 60.4192 203.975 56.6733C203.863 54.9587 204.348 53.2628 204.348 51.5296C204.348 47.2619 201.03 43.2178 196.837 42.4165C195.141 42.081 193.408 42.2301 191.675 42.1742C186.103 41.9505 178.89 39.3228 177.25 33.3592C176.151 29.2965 181.332 24.1155 179.226 19.3819C177.977 16.9592 166.814 21.0778 164.857 21.6183C152.65 24.9728 140.593 28.1224 128.032 24.5442C122.888 23.0719 117.968 20.6865 112.675 19.8665C103.357 18.4315 97.5987 24.2274 91.635 30.3215C85.6155 36.4715 79.3164 42.8824 74.4709 50.0015C69.6255 57.1205 67.0537 65.0224 65.6746 73.2224C64.0159 82.9692 64.1464 92.921 64.2582 102.798C64.3887 112.862 64.5005 122.944 64.6309 133.008C64.7241 140.723 63.1587 151.122 68.7682 157.421C74.1355 163.46 84.6091 162.584 92.0077 161.41C101.251 159.919 112.769 158.092 121.211 164.485C128.479 169.982 130.492 178.946 131.237 187.538C131.629 192.011 131.722 196.521 132.132 200.993C132.486 204.721 132.728 210.647 137.089 212.026C140.052 212.958 143.686 212.063 146.743 211.989C150.526 211.877 154.29 211.933 158.074 212.138C161.26 212.324 165.51 212.548 167.504 209.491H167.522Z" fill="#EDEEF2"/>
<g filter="url(#filter0_d_723_31150)">
<circle cx="149" cy="115.909" r="4" fill="url(#paint0_linear_723_31150)"/>
</g>
<defs>
<filter id="filter0_d_723_31150" x="135" y="105.909" width="28" height="28" filterUnits="userSpaceOnUse" color-interpolation-filters="sRGB">
<feFlood flood-opacity="0" result="BackgroundImageFix"/>
<feColorMatrix in="SourceAlpha" type="matrix" values="0 0 0 0 0 0 0 0 0 0 0 0 0 0 0 0 0 0 127 0" result="hardAlpha"/>
<feMorphology radius="2" operator="erode" in="SourceAlpha" result="effect1_dropShadow_723_31150"/>
<feOffset dy="4"/>
<feGaussianBlur stdDeviation="6"/>
<feColorMatrix type="matrix" values="0 0 0 0 0.607843 0 0 0 0 0.615686 0 0 0 0 0.698039 0 0 0 0.4 0"/>
<feBlend mode="normal" in2="BackgroundImageFix" result="effect1_dropShadow_723_31150"/>
<feBlend mode="normal" in="SourceGraphic" in2="effect1_dropShadow_723_31150" result="shape"/>
</filter>
<linearGradient id="paint0_linear_723_31150" x1="145" y1="111.909" x2="153" y2="119.909" gradientUnits="userSpaceOnUse">
<stop stop-color="#929AFF"/>
<stop offset="1" stop-color="#AC6DFF"/>
</linearGradient>
</defs>
</svg>
