<svg width="328" height="232" viewBox="0 0 328 232" fill="none" xmlns="http://www.w3.org/2000/svg">
<path d="M93.5919 67.6475C86.0256 77.1148 80.006 87.4394 73.3715 97.7453C67.5942 106.728 39.1924 152.704 39.1924 152.704C39.2483 152.592 50.1506 156.804 51.1942 157.102C55.6669 158.407 58.3506 158.071 62.2642 155.425C73.9678 147.504 86.5474 140.888 99.5369 135.316C105.966 132.577 112.508 130.284 119.124 128.085C124.677 126.24 130.585 126.371 134.983 130.825C137.704 133.564 139.176 137.403 139.419 141.261C139.941 149.238 135.673 155.816 130.865 161.78C128.423 164.818 125.833 167.743 123.652 170.968C122.18 173.129 117.875 179.018 119.776 181.646C121.751 184.386 128.218 183.137 130.921 182.653C135.263 181.87 139.493 180.435 143.91 180.062C152.185 179.373 160.72 182.839 166.162 189.119C166.982 190.07 168.137 190.871 169.256 189.716C169.852 189.101 170.076 188.243 170.262 187.423C171.865 180.286 172.181 172.98 172.424 165.693C172.61 160.028 173.84 154.008 177.977 149.834C186.531 141.205 198.421 145.417 207.758 150.207C219.704 156.338 232.097 159.953 245.516 161.034C253.566 161.687 261.673 161.575 269.743 161.128C271.383 161.034 288.864 160.885 288.864 160.885C288.864 160.885 283.161 132.633 277.626 119.289C270.619 102.386 259.679 88.0916 243.54 79.0903C232.284 72.8098 219.872 68.9148 207.572 65.0757C195.048 61.1621 182.525 57.2485 170.001 53.3535C158.54 49.7753 147.134 46.0107 135.486 43.0662C130.231 41.743 125.535 39.9539 120.41 42.4512C116.03 44.5757 112.713 48.3403 108.986 51.3594C103.227 56.0185 98.2137 61.8703 93.6106 67.6289L93.5919 67.6475Z" fill="#EDEEF2"/>
<g filter="url(#filter0_d_723_31164)">
<circle cx="256" cy="108.909" r="4" fill="url(#paint0_linear_723_31164)"/>
</g>
<defs>
<filter id="filter0_d_723_31164" x="242" y="98.9089" width="28" height="28" filterUnits="userSpaceOnUse" color-interpolation-filters="sRGB">
<feFlood flood-opacity="0" result="BackgroundImageFix"/>
<feColorMatrix in="SourceAlpha" type="matrix" values="0 0 0 0 0 0 0 0 0 0 0 0 0 0 0 0 0 0 127 0" result="hardAlpha"/>
<feMorphology radius="2" operator="erode" in="SourceAlpha" result="effect1_dropShadow_723_31164"/>
<feOffset dy="4"/>
<feGaussianBlur stdDeviation="6"/>
<feColorMatrix type="matrix" values="0 0 0 0 0.607843 0 0 0 0 0.615686 0 0 0 0 0.698039 0 0 0 0.4 0"/>
<feBlend mode="normal" in2="BackgroundImageFix" result="effect1_dropShadow_723_31164"/>
<feBlend mode="normal" in="SourceGraphic" in2="effect1_dropShadow_723_31164" result="shape"/>
</filter>
<linearGradient id="paint0_linear_723_31164" x1="252" y1="104.909" x2="260" y2="112.909" gradientUnits="userSpaceOnUse">
<stop stop-color="#929AFF"/>
<stop offset="1" stop-color="#AC6DFF"/>
</linearGradient>
</defs>
</svg>
