<svg width="822" height="580" viewBox="0 0 822 580" fill="none" xmlns="http://www.w3.org/2000/svg">
<path d="M369.433 553.489C372.376 553.676 375.318 553.956 378.26 554.423C383.678 555.264 389.656 556.525 394.28 553.629C396.849 552.042 398.53 549.426 400.445 547.091C406.61 539.665 415.811 534.854 425.432 534.107C430.429 533.733 435.8 534.294 440.097 531.678C444.067 529.296 446.169 524.766 448.037 520.516C452.053 511.502 456.35 502.395 462.889 495.062C469.474 487.729 478.768 482.218 488.623 482.358C499.552 482.545 509.126 489.364 517.44 496.463C526.641 504.309 535.281 512.856 543.127 522.104C544.108 523.225 545.089 524.439 546.49 525C547.658 525.467 549.012 525.467 550.273 525.42C582.733 524.626 707.434 522.01 707.434 521.964C707.434 503.095 710.376 484.46 716.028 466.432C709.816 452.981 710.143 435.701 713.272 421.502C716.868 405.156 724.154 389.883 731.767 375.078C743.116 353.033 816.676 208.109 816.676 208.109C796.733 202.365 775.763 196.807 757.034 187.699C746.385 182.515 736.718 175.416 728.077 167.383C707.994 148.748 692.675 127.404 686.37 100.362C678.664 100.128 648.306 97.7464 642.281 102.09C638.265 104.986 636.256 109.89 635.229 114.747C634.201 119.604 634.014 124.555 632.707 129.319C631.866 132.401 630.512 135.437 628.176 137.679C623.039 142.629 614.912 142.256 607.907 140.855C600.901 139.454 593.568 137.305 586.89 139.781C581.939 141.602 578.016 145.992 576.755 151.13C575.68 155.473 576.428 160.004 576.615 164.487C576.801 168.971 576.194 173.828 573.065 177.004C570.216 179.9 565.779 180.787 561.762 180.133C557.746 179.479 554.103 177.518 550.693 175.323C544.202 171.213 538.223 166.309 532.899 160.798C529.116 156.874 525.52 152.251 524.959 146.833C524.259 140.341 527.995 134.316 529.49 128.011C532.012 117.549 528.369 106.667 524.679 96.5321C519.215 81.4465 513.47 66.3143 511.181 50.4347C509.267 37.1239 510.014 20.7773 496.563 13.5381C486.755 8.26051 473.211 8.30721 463.496 13.8651C440.191 27.2693 427.861 54.1244 403.574 66.1274C384.472 75.6085 361.587 77.3365 341.644 69.3501C316.33 59.1685 305.495 33.7145 293.585 11.2029C293.585 11.2029 211.899 21.9916 194.385 33.0139C191.022 35.3491 188.22 38.9454 187.846 43.0554C187.332 48.7066 191.349 53.8909 196.066 57.0668C201.577 60.7564 208.116 62.6246 213.907 65.7538C219.698 68.883 225.21 74.1139 225.677 80.746C226.003 85.2763 223.715 89.9468 219.932 92.4221C215.355 95.4112 209.377 95.2244 204.099 93.7298C198.821 92.2353 193.964 89.6665 188.733 88.1253C186.772 87.5181 184.67 87.0978 182.662 87.5181C179.579 88.172 177.151 90.7874 176.076 93.7298C172.62 103.258 179.159 113.626 183.876 121.472C188.266 128.805 193.264 135.857 196.533 143.797C201.53 156.034 203.585 169.298 203.725 182.468C203.912 197.087 201.811 211.612 198.635 225.857C196.533 235.291 193.964 244.726 191.489 253.833C186.118 273.589 180.607 293.999 179.673 314.456C179.532 317.211 177.291 319.406 174.442 319.406C135.91 318.986 101.863 320.2 75.7083 339.349C54.2709 354.995 27.0888 411.554 27.0888 411.554L5.1377 453.121C43.1552 463.116 230.3 519.675 321.935 570.07C326.839 561.196 335.946 557.459 345.334 555.404C353.18 553.723 361.307 553.069 369.293 553.489H369.433Z" fill="#EDEEF2"/>
<g filter="url(#filter0_d_711_30835)">
<circle cx="657" cy="226.227" r="8" fill="url(#paint0_linear_711_30835)"/>
</g>
<defs>
<filter id="filter0_d_711_30835" x="639" y="212.227" width="36" height="36" filterUnits="userSpaceOnUse" color-interpolation-filters="sRGB">
<feFlood flood-opacity="0" result="BackgroundImageFix"/>
<feColorMatrix in="SourceAlpha" type="matrix" values="0 0 0 0 0 0 0 0 0 0 0 0 0 0 0 0 0 0 127 0" result="hardAlpha"/>
<feMorphology radius="2" operator="erode" in="SourceAlpha" result="effect1_dropShadow_711_30835"/>
<feOffset dy="4"/>
<feGaussianBlur stdDeviation="6"/>
<feColorMatrix type="matrix" values="0 0 0 0 0.607843 0 0 0 0 0.615686 0 0 0 0 0.698039 0 0 0 0.4 0"/>
<feBlend mode="normal" in2="BackgroundImageFix" result="effect1_dropShadow_711_30835"/>
<feBlend mode="normal" in="SourceGraphic" in2="effect1_dropShadow_711_30835" result="shape"/>
</filter>
<linearGradient id="paint0_linear_711_30835" x1="649" y1="218.227" x2="665" y2="234.227" gradientUnits="userSpaceOnUse">
<stop stop-color="#929AFF"/>
<stop offset="1" stop-color="#AC6DFF"/>
</linearGradient>
</defs>
</svg>
