<svg width="822" height="580" viewBox="0 0 822 580" fill="none" xmlns="http://www.w3.org/2000/svg">
<path d="M750.776 311.829C754.185 309.166 756.754 305.991 756.38 302.441C755.353 291.886 726.396 289.784 718.876 289.27C703.838 288.196 688.472 290.158 674.274 295.295C668.903 297.257 663.625 299.592 658.394 301.974C650.127 305.664 641.58 309.493 632.333 311.922C612.53 317.106 593.662 313.463 582.032 302.161C565.592 286.235 567.46 261.341 568.815 243.173C569.702 231.03 570.543 212.768 560.548 203.754C557.139 200.672 552.655 199.131 548.778 196.702C541.96 192.452 537.056 185.68 533.74 178.347C530.424 171.014 528.602 163.168 526.827 155.322C522.484 136.5 518.14 117.678 513.797 98.8092C512.723 94.092 511.415 89.0947 507.725 85.9655C500.86 80.2208 488.483 82.9297 480.543 84.4709C469.521 86.6193 458.919 90.3557 448.317 93.9519C433.231 99.1361 417.212 105.254 401.099 105.955C384.986 106.656 368.452 102.125 354.021 94.6992C334.918 84.8445 317.684 69.8524 296.434 66.6298C280.414 64.2011 264.301 68.9183 248.935 74.0091C230.674 80.0807 212.366 86.8528 196.86 98.2954C172.48 116.277 157.301 143.926 144.364 171.341C134.649 191.845 125.682 212.862 113.072 231.87C83.1809 275.773 60.6226 275.119 66.4606 286.561C72.2987 298.004 82.1534 284.46 102.143 281.798C122.132 279.135 272.334 311.969 291.156 321.356C309.978 330.744 318.338 332.986 325.204 346.904C332.536 361.896 329.828 380.064 335.993 395.57C344.82 417.755 367.471 431.766 363.502 458.341C375.038 459.462 386.994 455.819 398.203 458.995C409.412 462.171 418.193 472.586 419.407 484.168C419.781 487.811 419.687 491.921 422.303 494.443C423.657 495.704 425.478 496.312 427.207 496.872C438.135 500.375 453.128 502.29 458.032 514.386C477.881 490.52 500.626 471.138 523.231 450.074C543.174 431.439 564.144 413.131 589.084 401.455C591.84 400.194 594.596 398.979 597.398 397.858C614.585 391.086 633.22 387.91 651.669 388.564C667.595 389.125 685.529 391.88 697.673 381.605C707.807 373.012 709.909 358.44 715.327 346.343C720.184 335.508 728.217 326.167 738.119 319.628C741.061 317.713 746.526 315.098 750.729 311.782L750.776 311.829Z" fill="#EDEEF2"/>
<g filter="url(#filter0_d_711_30879)">
<circle cx="550" cy="384.545" r="8" fill="url(#paint0_linear_711_30879)"/>
</g>
<defs>
<filter id="filter0_d_711_30879" x="532" y="370.545" width="36" height="36" filterUnits="userSpaceOnUse" color-interpolation-filters="sRGB">
<feFlood flood-opacity="0" result="BackgroundImageFix"/>
<feColorMatrix in="SourceAlpha" type="matrix" values="0 0 0 0 0 0 0 0 0 0 0 0 0 0 0 0 0 0 127 0" result="hardAlpha"/>
<feMorphology radius="2" operator="erode" in="SourceAlpha" result="effect1_dropShadow_711_30879"/>
<feOffset dy="4"/>
<feGaussianBlur stdDeviation="6"/>
<feColorMatrix type="matrix" values="0 0 0 0 0.607843 0 0 0 0 0.615686 0 0 0 0 0.698039 0 0 0 0.4 0"/>
<feBlend mode="normal" in2="BackgroundImageFix" result="effect1_dropShadow_711_30879"/>
<feBlend mode="normal" in="SourceGraphic" in2="effect1_dropShadow_711_30879" result="shape"/>
</filter>
<linearGradient id="paint0_linear_711_30879" x1="542" y1="376.545" x2="558" y2="392.545" gradientUnits="userSpaceOnUse">
<stop stop-color="#929AFF"/>
<stop offset="1" stop-color="#AC6DFF"/>
</linearGradient>
</defs>
</svg>
