<svg width="328" height="232" viewBox="0 0 328 232" fill="none" xmlns="http://www.w3.org/2000/svg">
<path d="M100.245 65.8051C100.618 68.6751 100.86 71.5637 101.046 74.4523C101.568 82.466 101.158 90.4982 104.047 98.1578C105.929 103.134 109.004 107.569 110.812 112.564C112.825 118.136 113.179 124.156 113.663 130.082C114.465 139.847 115.676 149.594 117.297 159.266C117.745 161.931 118.397 164.876 120.633 166.404C122.422 167.634 124.826 167.634 126.653 168.808C128.703 170.113 129.635 172.685 129.635 175.107C129.635 176.468 125.702 190.706 125.702 190.706C125.702 190.706 132.579 189.979 135.729 189.588C139.996 189.047 144.301 188.526 148.588 188.768C152.855 189.01 157.216 190.054 160.757 192.532C164.298 195.011 167.205 198.813 170.448 201.906C171.92 203.323 173.616 204.683 175.648 204.944C178.928 205.391 181.816 202.913 184.071 200.509C187.09 197.303 188.414 195.104 188.898 189.998C189.383 184.891 185.022 178.63 185.544 172.219C186.587 159.826 192.812 149.669 199.092 139.307C204.273 130.753 209.622 122.311 215.157 113.961C217.747 110.066 220.58 106.134 223.506 102.891C226.432 99.6487 233.663 93.8155 233.663 93.8155L222.537 85.2428C212.175 77.2851 199.279 67.3705 191.787 60.9037C179.99 50.7096 166.069 39.2482 150.135 32.3714C140.332 28.141 129.616 25.6623 118.9 26.1655C112.042 26.4823 99.425 27.9732 95.5673 34.6264C92.9582 39.1364 95.0455 44.7646 96.7041 49.7032C98.4559 54.9214 99.5555 60.3446 100.245 65.8051Z" fill="#EDEEF2"/>
<g filter="url(#filter0_d_723_31138)">
<circle cx="184" cy="66.9092" r="4" fill="url(#paint0_linear_723_31138)"/>
</g>
<defs>
<filter id="filter0_d_723_31138" x="170" y="56.9092" width="28" height="28" filterUnits="userSpaceOnUse" color-interpolation-filters="sRGB">
<feFlood flood-opacity="0" result="BackgroundImageFix"/>
<feColorMatrix in="SourceAlpha" type="matrix" values="0 0 0 0 0 0 0 0 0 0 0 0 0 0 0 0 0 0 127 0" result="hardAlpha"/>
<feMorphology radius="2" operator="erode" in="SourceAlpha" result="effect1_dropShadow_723_31138"/>
<feOffset dy="4"/>
<feGaussianBlur stdDeviation="6"/>
<feColorMatrix type="matrix" values="0 0 0 0 0.607843 0 0 0 0 0.615686 0 0 0 0 0.698039 0 0 0 0.4 0"/>
<feBlend mode="normal" in2="BackgroundImageFix" result="effect1_dropShadow_723_31138"/>
<feBlend mode="normal" in="SourceGraphic" in2="effect1_dropShadow_723_31138" result="shape"/>
</filter>
<linearGradient id="paint0_linear_723_31138" x1="180" y1="62.9092" x2="188" y2="70.9092" gradientUnits="userSpaceOnUse">
<stop stop-color="#929AFF"/>
<stop offset="1" stop-color="#AC6DFF"/>
</linearGradient>
</defs>
</svg>
