<svg width="328" height="232" viewBox="0 0 328 232" fill="none" xmlns="http://www.w3.org/2000/svg">
<path d="M236.924 98.1181C220.673 84.7558 204.161 71.5613 186.606 59.9881C176.151 53.0926 165.286 47.1849 154.085 41.594C144.525 37.1399 134.648 33.3008 124.565 30.1513L110.42 26.3308C119.44 41.1467 126.653 58.199 128.535 75.5494C130.697 95.5649 124.491 118.45 108.501 131.664C102.537 136.584 95.4741 139.957 88.4669 143.125C86.305 144.113 84.05 145.156 82.6337 147.057C80.975 149.312 80.8446 152.331 81.1241 155.108C81.7578 161.463 84.2178 167.539 87.6096 172.943C94.4491 183.808 104.55 192.679 116.049 198.326C127.361 203.879 139.717 206.06 151.458 204.96C165.435 190.349 177.418 173.689 189.178 157.289C193.278 151.549 197.396 145.809 201.496 140.069C205.261 134.794 207.646 128.234 213.051 124.302C215.306 122.662 217.952 121.637 220.543 120.631C225.929 118.544 231.333 116.475 236.477 113.829C238.657 112.71 249.075 108.182 245.106 104.902C242.385 102.647 239.645 100.392 236.906 98.1367L236.924 98.1181Z" fill="#EDEEF2"/>
<g filter="url(#filter0_d_723_31174)">
<circle cx="185" cy="138.909" r="4" fill="url(#paint0_linear_723_31174)"/>
</g>
<defs>
<filter id="filter0_d_723_31174" x="171" y="128.909" width="28" height="28" filterUnits="userSpaceOnUse" color-interpolation-filters="sRGB">
<feFlood flood-opacity="0" result="BackgroundImageFix"/>
<feColorMatrix in="SourceAlpha" type="matrix" values="0 0 0 0 0 0 0 0 0 0 0 0 0 0 0 0 0 0 127 0" result="hardAlpha"/>
<feMorphology radius="2" operator="erode" in="SourceAlpha" result="effect1_dropShadow_723_31174"/>
<feOffset dy="4"/>
<feGaussianBlur stdDeviation="6"/>
<feColorMatrix type="matrix" values="0 0 0 0 0.607843 0 0 0 0 0.615686 0 0 0 0 0.698039 0 0 0 0.4 0"/>
<feBlend mode="normal" in2="BackgroundImageFix" result="effect1_dropShadow_723_31174"/>
<feBlend mode="normal" in="SourceGraphic" in2="effect1_dropShadow_723_31174" result="shape"/>
</filter>
<linearGradient id="paint0_linear_723_31174" x1="181" y1="134.909" x2="189" y2="142.909" gradientUnits="userSpaceOnUse">
<stop stop-color="#929AFF"/>
<stop offset="1" stop-color="#AC6DFF"/>
</linearGradient>
</defs>
</svg>
