<svg width="176" height="124" viewBox="0 0 176 124" fill="none" xmlns="http://www.w3.org/2000/svg">
<path d="M160.75 66.63C161.48 66.06 162.03 65.38 161.95 64.62C161.73 62.36 155.53 61.91 153.92 61.8C150.7 61.57 147.41 61.99 144.37 63.09C143.22 63.51 142.09 64.01 140.97 64.52C139.2 65.31 137.37 66.13 135.39 66.65C131.15 67.76 127.11 66.9799 124.62 64.56C121.1 61.15 121.5 55.82 121.79 51.93C121.98 49.33 122.16 45.42 120.02 43.49C119.29 42.83 118.33 42.5 117.5 41.98C116.04 41.07 114.99 39.62 114.28 38.05C113.57 36.48 113.18 34.8 112.8 33.12C111.87 29.09 110.94 25.06 110.01 21.02C109.78 20.01 109.5 18.94 108.71 18.27C107.24 17.04 104.59 17.62 102.89 17.95C100.53 18.41 98.26 19.21 95.99 19.98C92.76 21.09 89.33 22.4 85.88 22.55C82.43 22.7 78.89 21.73 75.8 20.14C71.71 18.03 68.02 14.82 63.47 14.13C60.04 13.61 56.59 14.62 53.3 15.71C49.39 17.01 45.47 18.46 42.15 20.91C36.93 24.76 33.68 30.68 30.91 36.55C28.83 40.94 26.91 45.44 24.21 49.51C17.81 58.91 12.98 58.77 14.23 61.22C15.48 63.67 17.59 60.77 21.87 60.2C26.15 59.63 58.31 66.66 62.34 68.67C66.37 70.68 68.16 71.16 69.63 74.14C71.2 77.35 70.62 81.24 71.94 84.56C73.83 89.31 78.68 92.31 77.83 98C80.3 98.24 82.86 97.46 85.26 98.14C87.66 98.82 89.54 101.05 89.8 103.53C89.88 104.31 89.86 105.19 90.42 105.73C90.71 106 91.1 106.13 91.47 106.25C93.81 107 97.02 107.41 98.07 110C102.32 104.89 107.19 100.74 112.03 96.23C116.3 92.24 120.79 88.32 126.13 85.82C126.72 85.55 127.31 85.29 127.91 85.05C131.59 83.6 135.58 82.92 139.53 83.06C142.94 83.18 146.78 83.77 149.38 81.57C151.55 79.73 152 76.61 153.16 74.02C154.2 71.7 155.92 69.7 158.04 68.3C158.67 67.89 159.84 67.33 160.74 66.62L160.75 66.63Z" fill="#EDF0FF"/>
</svg>
