<svg width="822" height="580" viewBox="0 0 822 580" fill="none" xmlns="http://www.w3.org/2000/svg">
<path d="M495.348 54.5371C487.595 59.2543 478.208 60.889 471.716 67.4743C462.795 76.535 456.163 88.3979 454.855 101.242C453.267 116.701 458.732 131.973 459.432 147.479C460.226 164.76 455.042 181.807 448.13 197.687C443.459 208.475 437.855 220.665 442.479 231.454C445.514 238.46 452.333 243.27 455.603 250.182C461.534 262.746 453.314 278.392 441.171 285.117C429.028 291.843 414.363 291.796 400.538 290.815C395.26 290.442 389.936 289.928 384.752 291.096C377.933 292.59 372.095 296.7 366.444 300.764C341.41 318.651 316.423 336.539 291.389 354.427C270.839 369.139 253.419 391.09 245.806 415.517C243.144 424.064 241.649 433.264 241.976 442.232C242.35 453.581 248.842 463.062 251.737 473.757C252.485 476.606 252.998 479.642 252.204 482.444C250.897 486.928 246.74 489.87 242.91 492.579C232.215 500.145 222.22 508.739 213.066 518.126L235.251 539.611C235.251 539.611 247.954 527.421 262.386 532.652C276.491 540.872 274.669 561.235 289.848 567.914C303.626 573.985 321.654 569.501 334.731 563.477C346.874 557.872 358.037 550.633 367.051 540.638C376.065 530.643 378.26 518.313 379.241 505.236C380.221 492.159 381.249 477.774 390.029 467.966C397.876 459.232 411.42 456.103 422.302 460.54C433.558 465.117 441.778 476.746 453.875 477.914C462.982 478.801 470.968 473.664 478.675 469.554C487.735 464.743 496.749 459.886 505.67 454.795C534.86 438.122 559.614 419.113 582.639 394.64C586.796 390.203 590.999 385.439 592.634 379.554C594.642 372.455 592.634 364.889 592.447 357.51C591.98 336.259 606.739 317.344 608.42 296.186C608.607 293.571 601.741 292.403 599.686 290.956C596.323 288.667 593.755 285.538 591.746 282.082C587.87 275.356 586.189 267.51 584.834 259.944C581.285 240.608 580.07 220.992 578.155 201.47C577.455 194.371 576.661 187.178 574.372 180.406C571.477 171.952 566.339 164.48 562.79 156.306C551.674 130.666 557.138 100.868 550.693 73.686C548.031 62.4302 543.314 51.5481 542.52 40.012C542.099 34.2207 542.66 28.3359 541.539 22.6846C540.231 16.2394 535.467 7.8793 527.855 11.0552C512.722 17.3603 511.555 38.7977 501.513 49.7733C499.738 51.7349 497.683 53.2761 495.535 54.5838L495.348 54.5371Z" fill="#EDEEF2"/>
<g filter="url(#filter0_d_711_30861)">
<circle cx="476" cy="163.409" r="8" fill="url(#paint0_linear_711_30861)"/>
</g>
<defs>
<filter id="filter0_d_711_30861" x="458" y="149.409" width="36" height="36" filterUnits="userSpaceOnUse" color-interpolation-filters="sRGB">
<feFlood flood-opacity="0" result="BackgroundImageFix"/>
<feColorMatrix in="SourceAlpha" type="matrix" values="0 0 0 0 0 0 0 0 0 0 0 0 0 0 0 0 0 0 127 0" result="hardAlpha"/>
<feMorphology radius="2" operator="erode" in="SourceAlpha" result="effect1_dropShadow_711_30861"/>
<feOffset dy="4"/>
<feGaussianBlur stdDeviation="6"/>
<feColorMatrix type="matrix" values="0 0 0 0 0.607843 0 0 0 0 0.615686 0 0 0 0 0.698039 0 0 0 0.4 0"/>
<feBlend mode="normal" in2="BackgroundImageFix" result="effect1_dropShadow_711_30861"/>
<feBlend mode="normal" in="SourceGraphic" in2="effect1_dropShadow_711_30861" result="shape"/>
</filter>
<linearGradient id="paint0_linear_711_30861" x1="468" y1="155.409" x2="484" y2="171.409" gradientUnits="userSpaceOnUse">
<stop stop-color="#929AFF"/>
<stop offset="1" stop-color="#AC6DFF"/>
</linearGradient>
</defs>
</svg>
