<svg width="328" height="232" viewBox="0 0 328 232" fill="none" xmlns="http://www.w3.org/2000/svg">
<path d="M250.398 57.8845C249.336 55.4245 248.814 52.275 250.324 49.8709C251.833 47.4668 254.852 46.5909 256.884 44.8018C259.698 42.3231 259.847 37.8691 258.58 34.3468C256.623 28.8491 252.765 23.3141 249.261 18.6736C245.571 13.7909 241.155 9.35542 235.676 6.52269C230.513 3.85769 224.121 2.94451 218.493 4.56587C215.641 5.38587 212.846 6.93269 210.926 9.18769C208.56 11.9831 207.031 15.3004 204.311 17.835C201.329 20.6118 196.726 22.2704 193.129 20.3136C189.979 18.5991 188.675 14.7786 188.004 11.2563C187.556 8.87087 186.774 5.62815 183.717 5.70269C182.32 5.73996 181.034 6.41087 179.822 7.08178C172.871 10.8836 166.181 15.1141 159.322 19.0277C153.21 22.5313 145.811 25.4945 139.307 21.1709C137.853 20.2018 136.586 18.9718 135.076 18.1145C133.567 17.2572 131.666 16.7913 130.082 17.4995C128.554 18.1891 127.659 19.7918 127.193 21.3945C126.373 24.2459 126.616 27.2836 126.317 30.2468C125.255 40.6272 117.558 47.5041 108.576 51.6227C101.401 54.9213 91.3741 56.4868 85.4664 49.9827C83.8264 48.175 82.615 45.9945 81.6087 43.7768C80.8073 42.025 79.7264 40.0868 77.8255 41.7641C74.3219 44.8204 71.0791 48.175 68.1346 51.7718C65.7864 54.6231 61.5187 58.9095 61.09 62.7486C60.9596 63.8481 61.4069 64.9477 62.0591 65.8236C62.935 67.0163 64.1837 67.855 65.1155 68.9731C68.6191 73.185 67.1655 78.7572 67.0537 83.7145C66.9232 89.5663 67.3705 95.5486 69.6255 101.028C70.8182 103.935 72.5514 106.842 72.2905 109.973C72.011 113.346 69.4578 116.291 69.4764 119.683C69.4764 121.435 70.166 123.093 70.9487 124.659C73.2969 129.43 76.5582 134.051 76.726 139.568C76.8005 142.195 76.0364 144.916 74.2473 146.817C73.4087 147.712 72.365 148.42 71.6382 149.408C69.7373 151.979 71.5823 153.731 74.1169 153.321C76.6514 152.911 78.925 151.383 80.9564 150.134C84.8141 147.786 88.4669 145.047 91.9705 142.214C94.2255 140.388 96.3687 138.636 98.4187 137.182C103.506 133.567 109.34 129.877 115.881 131.088C120.018 131.852 123.876 135.039 124.547 139.195C124.752 140.481 124.789 142.028 125.889 142.736C126.802 143.314 127.976 142.978 129.02 142.717C134.163 141.431 139.605 142.456 144.6 144.227C149.594 145.997 154.291 148.495 159.266 150.284C163.646 151.849 168.249 152.874 172.442 154.905C174.884 156.08 177.064 157.701 178.797 159.788C180.121 161.372 181.313 165.36 183.196 166.106C183.96 166.404 184.817 166.385 185.637 166.348C189.383 166.162 193.147 165.733 196.893 165.826C201.552 165.938 206.64 166.87 210.106 170.206C213.983 173.952 213.946 179.636 211.746 184.258C208.783 190.501 202.745 193.893 200.676 200.788C199.745 203.9 199.279 207.124 198.571 210.274C198.105 212.343 197.527 214.505 198.142 216.536C198.906 219.052 200.714 219.219 202.838 219.369C205.503 219.555 207.74 220.636 209.846 222.257C211.746 223.73 213.461 225.444 215.474 226.767C215.958 227.084 216.48 227.382 217.039 227.419C219.257 227.55 222.574 221.866 223.636 220.226C225.612 217.225 227.271 213.852 228.053 210.33C232.246 191.843 231.687 172.181 231.128 153.191C230.849 143.407 230.756 133.623 230.756 123.839C230.756 116.906 232.246 111.203 237.39 106.302C240.763 103.096 244.789 100.636 248.404 97.6918C254.032 93.0886 258.412 87.3672 261.748 80.9377C262.27 79.9313 266.631 69.2341 266.854 69.29C259.94 67.7991 253.417 64.9291 250.38 58.0895C250.361 58.0522 250.342 57.9963 250.324 57.9404L250.398 57.8845Z" fill="#EDEEF2"/>
<g filter="url(#filter0_d_723_31136)">
<circle cx="244" cy="91.9092" r="4" fill="url(#paint0_linear_723_31136)"/>
</g>
<defs>
<filter id="filter0_d_723_31136" x="230" y="81.9092" width="28" height="28" filterUnits="userSpaceOnUse" color-interpolation-filters="sRGB">
<feFlood flood-opacity="0" result="BackgroundImageFix"/>
<feColorMatrix in="SourceAlpha" type="matrix" values="0 0 0 0 0 0 0 0 0 0 0 0 0 0 0 0 0 0 127 0" result="hardAlpha"/>
<feMorphology radius="2" operator="erode" in="SourceAlpha" result="effect1_dropShadow_723_31136"/>
<feOffset dy="4"/>
<feGaussianBlur stdDeviation="6"/>
<feColorMatrix type="matrix" values="0 0 0 0 0.607843 0 0 0 0 0.615686 0 0 0 0 0.698039 0 0 0 0.4 0"/>
<feBlend mode="normal" in2="BackgroundImageFix" result="effect1_dropShadow_723_31136"/>
<feBlend mode="normal" in="SourceGraphic" in2="effect1_dropShadow_723_31136" result="shape"/>
</filter>
<linearGradient id="paint0_linear_723_31136" x1="240" y1="87.9092" x2="248" y2="95.9092" gradientUnits="userSpaceOnUse">
<stop stop-color="#929AFF"/>
<stop offset="1" stop-color="#AC6DFF"/>
</linearGradient>
</defs>
</svg>
