<svg width="328" height="232" viewBox="0 0 328 232" fill="none" xmlns="http://www.w3.org/2000/svg">
<path d="M290.149 92.2848C288.323 88.483 286.404 84.7184 285.602 80.5998C283.925 71.9339 287.354 63.4171 289.031 55.0494C290.094 49.738 293.001 38.0157 287.988 33.8784C286.758 32.8721 283.664 35.3507 282.453 35.798C279.806 36.7857 277.029 37.5125 274.271 38.1275C248.982 43.8489 222.816 36.6553 197.284 39.5439C180.996 41.3889 165.416 47.5575 155.949 61.5348C152.445 66.6971 148.401 69.9025 140.35 69.0825C127.212 67.6475 114.819 64.0507 102.202 60.3607C89.5849 56.6707 76.3158 53.1484 63.2517 49.9989C56.1699 48.303 48.1563 46.5325 40.9067 48.1912C35.6513 49.4025 34.3653 59.8016 33.6572 65.3925C33.2099 69.0639 33.2658 71.7103 33.8435 73.9466C35.6513 80.8048 42.9381 84.2712 49.4235 84.3457C71.6194 84.5693 93.4799 90.0298 114.371 97.2234C136.772 104.958 158.502 115.208 176.002 131.477C177.716 133.061 179.375 134.701 180.996 136.36C185.171 140.646 189.252 145.361 194.787 147.635C202.596 150.822 211.224 148.567 219.331 149.908C226.581 151.12 233.924 155.481 237.092 162.339C239.44 167.408 238.974 172.962 235.769 177.956C233.7 181.18 230.513 183.398 227.662 185.858C225.574 187.666 220.077 192.399 221.773 195.661C222.089 196.276 222.686 196.704 223.319 197.021C225.742 198.195 228.333 197.562 230.383 195.978C245.758 184.05 260.723 171.228 273.377 156.375C283.012 145.007 291.566 131.887 294.026 116.922C294.995 110.996 294.864 104.808 293.001 99.0871C292.237 96.7389 291.193 94.5025 290.131 92.2662L290.149 92.2848Z" fill="#EDEEF2"/>
<g filter="url(#filter0_d_723_31172)">
<circle cx="287" cy="115.909" r="4" fill="url(#paint0_linear_723_31172)"/>
</g>
<defs>
<filter id="filter0_d_723_31172" x="273" y="105.909" width="28" height="28" filterUnits="userSpaceOnUse" color-interpolation-filters="sRGB">
<feFlood flood-opacity="0" result="BackgroundImageFix"/>
<feColorMatrix in="SourceAlpha" type="matrix" values="0 0 0 0 0 0 0 0 0 0 0 0 0 0 0 0 0 0 127 0" result="hardAlpha"/>
<feMorphology radius="2" operator="erode" in="SourceAlpha" result="effect1_dropShadow_723_31172"/>
<feOffset dy="4"/>
<feGaussianBlur stdDeviation="6"/>
<feColorMatrix type="matrix" values="0 0 0 0 0.607843 0 0 0 0 0.615686 0 0 0 0 0.698039 0 0 0 0.4 0"/>
<feBlend mode="normal" in2="BackgroundImageFix" result="effect1_dropShadow_723_31172"/>
<feBlend mode="normal" in="SourceGraphic" in2="effect1_dropShadow_723_31172" result="shape"/>
</filter>
<linearGradient id="paint0_linear_723_31172" x1="283" y1="111.909" x2="291" y2="119.909" gradientUnits="userSpaceOnUse">
<stop stop-color="#929AFF"/>
<stop offset="1" stop-color="#AC6DFF"/>
</linearGradient>
</defs>
</svg>
