<svg width="176" height="124" viewBox="0 0 176 124" fill="none" xmlns="http://www.w3.org/2000/svg">
<path d="M27.5 18.9301C27.5 19.7401 27.54 20.5301 27.54 21.2201C27.55 23.7601 27.81 26.3401 28.77 28.6901C29.9 31.4501 31.91 33.6901 34.04 35.7201C36.12 37.7101 38.22 39.9201 40.8 41.2401C44.53 43.1601 48.88 43.5101 52.74 45.1601C53.34 45.4201 53.97 45.7501 54.24 46.3301C54.62 47.1201 54.22 48.0501 53.82 48.8301C51.54 53.3701 36.56 81.6401 34.49 87.0501C33.31 90.1401 32.6 93.4701 32.91 96.7701C32.98 97.4701 33.1 98.1901 33.46 98.7901C33.78 99.3201 34.26 99.7201 34.69 100.15C38.81 104.26 38.89 111.39 43.38 115.09C47.78 118.71 99.47 121.37 108.46 122.01C109.56 119.62 110.73 117.3 112.41 115.26C114.03 113.29 115.92 111.4 116.74 108.92C117.62 106.26 117.12 103.38 117.01 100.58C116.9 97.7801 117.35 94.6501 119.52 92.8901C121.13 91.5801 123.07 91.0501 124.3 89.3101C125.53 87.5701 126.58 85.5001 127.27 83.3901C127.41 82.9501 127.54 82.4701 127.42 82.0301C126.99 80.5001 124.7 80.4401 125.2 78.4901C125.64 76.7701 127.3 75.4301 128.45 74.1701C130.13 72.3101 131.95 70.5801 133.56 68.6501C136.14 65.5401 138.48 62.2101 140.36 58.6301C142.46 54.6201 143.98 50.3501 145.46 46.0901C146.21 43.9201 146.94 41.7301 147.74 39.5801C148.46 37.6601 147.45 37.0801 145.72 36.3301C143.23 35.2401 140.44 35.0501 137.78 34.6701C128.52 33.3601 120.09 29.2301 112.31 24.2101C110.99 23.3601 109.05 20.6401 107.48 22.2101C104.79 24.8801 102.38 27.8201 100.29 30.9801C98.57 33.5801 97.15 38.0601 93.88 39.0901C92.16 39.6301 90.23 39.0101 88.82 37.8701C85.46 35.1501 84 30.1901 82.59 26.2901C81.2 22.4201 79.88 18.7701 77.4 15.8001C75.78 13.8501 73.81 12.1901 71.34 11.5101C69.24 10.9301 66.62 10.7501 65.23 8.8301C63.91 7.0101 64.28 4.1901 62.56 2.7601C60.92 1.3901 57.98 2.1401 56.39 3.2201C55.82 3.6101 55.32 4.1601 55.14 4.8301C54.91 5.6701 55.21 6.5801 55.03 7.4301C54.86 8.2701 54.24 8.9801 53.49 9.3901C51.45 10.5201 49.25 9.6801 47.13 9.3301C45.69 9.1001 44.21 9.1001 42.77 9.3301C40.57 9.6801 38.51 10.5701 36.43 11.3201C34.35 12.0701 32.08 12.2201 30.07 13.0401C27.79 13.9701 27.49 16.5401 27.5 18.9201V18.9301Z" fill="#EDF0FF"/>
</svg>
