<svg width="328" height="232" viewBox="0 0 328 232" fill="none" xmlns="http://www.w3.org/2000/svg">
<path d="M264.972 65.9517C262.531 65.3554 260.089 64.7404 257.685 64.0135C245.348 60.249 231.594 41.0908 228.855 41.0908C228.855 41.0908 223.432 52.4404 222.034 55.2172C219.182 60.9013 216.648 66.7158 213.908 72.4372C209.864 80.8981 205.28 89.0981 198.906 96.0495C192.644 102.889 184.742 108.275 176.17 111.779C166.404 115.767 155.875 117.276 145.476 118.581C135.076 119.885 124.435 121.376 113.962 123.165C105.147 124.675 96.3501 126.371 87.6656 128.495C83.2301 129.576 78.8133 130.769 74.4338 132.111C70.3897 133.341 61.6306 136.584 61.6306 136.584C61.6306 136.584 64.277 137.404 65.5442 137.851C75.347 141.299 84.1433 149.07 81.8697 160.494C80.6583 166.551 76.372 171.564 71.5265 175.384C65.507 180.099 51.3806 185.206 53.3933 189.324C55.4061 193.443 73.7815 181.833 84.3483 179.261C94.9151 176.689 102.985 175.664 112.042 174.341C134.182 171.079 156.602 168.489 178.965 167.594C188.786 167.203 198.682 167.408 208.373 169.253C209.827 169.533 211.318 169.849 212.79 169.719C219.76 169.16 220.785 156.506 221.587 151.344C222.63 144.56 223.823 136.863 228.352 130.117C233.607 122.289 243.652 119.345 253.361 116.531C257.331 115.375 261.338 114.257 265.121 112.599C267.935 111.369 272.128 109.337 272.855 106.039C273.153 104.697 272.799 103.318 272.52 101.976C271.401 96.5154 271.718 90.8872 272.594 85.4267C273.396 80.3576 275.334 75.3072 274.663 70.1449C274.309 67.3681 270.693 67.424 268.364 66.8463C267.246 66.5667 266.109 66.2872 264.991 66.0263L264.972 65.9517Z" fill="#EDEEF2"/>
<g filter="url(#filter0_d_723_31162)">
<circle cx="139" cy="162.909" r="4" fill="url(#paint0_linear_723_31162)"/>
</g>
<defs>
<filter id="filter0_d_723_31162" x="125" y="152.909" width="28" height="28" filterUnits="userSpaceOnUse" color-interpolation-filters="sRGB">
<feFlood flood-opacity="0" result="BackgroundImageFix"/>
<feColorMatrix in="SourceAlpha" type="matrix" values="0 0 0 0 0 0 0 0 0 0 0 0 0 0 0 0 0 0 127 0" result="hardAlpha"/>
<feMorphology radius="2" operator="erode" in="SourceAlpha" result="effect1_dropShadow_723_31162"/>
<feOffset dy="4"/>
<feGaussianBlur stdDeviation="6"/>
<feColorMatrix type="matrix" values="0 0 0 0 0.607843 0 0 0 0 0.615686 0 0 0 0 0.698039 0 0 0 0.4 0"/>
<feBlend mode="normal" in2="BackgroundImageFix" result="effect1_dropShadow_723_31162"/>
<feBlend mode="normal" in="SourceGraphic" in2="effect1_dropShadow_723_31162" result="shape"/>
</filter>
<linearGradient id="paint0_linear_723_31162" x1="135" y1="158.909" x2="143" y2="166.909" gradientUnits="userSpaceOnUse">
<stop stop-color="#929AFF"/>
<stop offset="1" stop-color="#AC6DFF"/>
</linearGradient>
</defs>
</svg>
