<svg width="328" height="232" viewBox="0 0 328 232" fill="none" xmlns="http://www.w3.org/2000/svg">
<path d="M142.009 217.111C145.121 214.502 148.178 211.595 152.017 210.663C156.49 209.582 161.074 211.39 165.454 212.806C172.088 214.949 179.263 216.254 186.233 215.154C193.203 214.055 199.819 209.582 207.255 209.918C209.249 210.011 211.336 210.887 212.343 212.601C213.219 214.092 213.163 215.956 212.771 217.633C212.007 220.969 209.529 224.23 213.685 226.336C215.026 227.026 216.48 227.51 217.971 227.79C221.698 228.498 219.387 223.578 219.35 221.696C219.07 205.538 233.383 193.219 243.875 182.969C246.168 180.733 248.46 178.348 249.727 175.403C250.752 173.018 251.088 170.278 252.728 168.265C255.355 165.023 260.313 164.799 263.462 162.078C266.724 159.245 267.32 154.512 267.916 150.225C269.37 139.733 272.165 129.446 276.21 119.662C276.694 118.506 277.197 117.183 276.713 116.028C276.377 115.208 275.632 114.648 275.017 114.033C272.93 111.983 271.942 109.02 271.755 106.094C271.476 101.864 272.501 97.503 273.004 93.3098C273.563 88.7253 281.279 53.1112 281.279 53.1112C281.279 53.1112 164.205 45.023 152.837 43.4762C147.06 42.6935 141.245 41.0535 136.567 37.5498C131.219 33.5617 128.293 27.5421 125.777 21.5412C124.491 18.4662 123.298 15.3539 121.845 12.3535C120.689 10.0053 118.714 5.2903 116.254 4.22803L112.992 28.5112L56.5614 30.5612C55.0518 30.5985 53.4864 30.6358 52.1259 31.288C50.3368 32.1267 49.1441 33.9158 48.5477 35.798C46.74 41.5194 46.74 48.7317 46.74 54.6767C46.74 57.9194 46.8891 61.1621 47.2059 64.3862C47.2991 65.318 47.97 73.8721 48.6223 73.9653C56.6918 75.0462 64.7614 76.0712 72.8123 77.1148C75.85 77.5062 79.0927 78.7548 80.4345 81.4944C82.0373 84.7558 80.36 88.5948 80.1364 92.2103C79.745 98.9567 84.5718 105.573 82.8573 112.114C81.1427 118.599 74.3032 121.469 70.8741 126.799C66.7182 133.285 67.9482 142.156 68.8986 149.331C70.2404 159.394 71.5823 169.439 72.9241 179.503C73.1291 181.031 73.3341 182.615 74.0423 183.994C75.0859 186.063 77.1173 187.517 79.2977 188.299C83.6959 189.865 89.3427 190.07 93.9832 190.2C99.3504 190.349 104.699 190.033 110.066 190.014C111.837 190.014 113.794 190.443 114.8 191.878C115.471 192.828 115.62 194.039 115.62 195.195C115.62 197.618 115.135 200.04 115.21 202.463C115.49 210.551 123.913 222.329 132.803 221.789C136.362 221.565 139.214 219.459 142.009 217.111Z" fill="#EDEEF2"/>
<g filter="url(#filter0_d_723_31166)">
<circle cx="164" cy="181.909" r="4" fill="url(#paint0_linear_723_31166)"/>
</g>
<defs>
<filter id="filter0_d_723_31166" x="150" y="171.909" width="28" height="28" filterUnits="userSpaceOnUse" color-interpolation-filters="sRGB">
<feFlood flood-opacity="0" result="BackgroundImageFix"/>
<feColorMatrix in="SourceAlpha" type="matrix" values="0 0 0 0 0 0 0 0 0 0 0 0 0 0 0 0 0 0 127 0" result="hardAlpha"/>
<feMorphology radius="2" operator="erode" in="SourceAlpha" result="effect1_dropShadow_723_31166"/>
<feOffset dy="4"/>
<feGaussianBlur stdDeviation="6"/>
<feColorMatrix type="matrix" values="0 0 0 0 0.607843 0 0 0 0 0.615686 0 0 0 0 0.698039 0 0 0 0.4 0"/>
<feBlend mode="normal" in2="BackgroundImageFix" result="effect1_dropShadow_723_31166"/>
<feBlend mode="normal" in="SourceGraphic" in2="effect1_dropShadow_723_31166" result="shape"/>
</filter>
<linearGradient id="paint0_linear_723_31166" x1="160" y1="177.909" x2="168" y2="185.909" gradientUnits="userSpaceOnUse">
<stop stop-color="#929AFF"/>
<stop offset="1" stop-color="#AC6DFF"/>
</linearGradient>
</defs>
</svg>
