<svg width="328" height="232" viewBox="0 0 328 232" fill="none" xmlns="http://www.w3.org/2000/svg">
<path d="M51.25 35.2787C51.25 36.7882 51.3245 38.2605 51.3245 39.5464C51.3432 44.28 51.8277 49.0882 53.6168 53.4678C55.7227 58.6114 59.4686 62.7859 63.4382 66.5691C67.3145 70.2778 71.2282 74.3964 76.0364 76.8564C82.9877 80.4346 91.0945 81.0868 98.2882 84.1618C99.4064 84.6464 100.58 85.2614 101.084 86.3423C101.792 87.8146 101.046 89.5478 100.301 91.0014C96.0518 99.4623 68.1345 152.147 64.2768 162.23C62.0777 167.988 60.7545 174.194 61.3323 180.344C61.4627 181.649 61.6864 182.99 62.3573 184.109C62.9536 185.096 63.8482 185.842 64.6495 186.643C72.3277 194.303 72.4768 207.59 80.8445 214.486C89.0445 221.232 185.376 226.19 202.13 227.382C204.18 222.928 206.36 218.605 209.491 214.803C212.51 211.131 216.033 207.609 217.561 202.987C219.201 198.03 218.269 192.663 218.064 187.445C217.859 182.226 218.698 176.393 222.742 173.113C225.742 170.672 229.358 169.684 231.65 166.441C233.942 163.199 235.899 159.341 237.185 155.409C237.446 154.589 237.688 153.694 237.465 152.874C236.663 150.023 232.395 149.911 233.327 146.277C234.147 143.071 237.241 140.574 239.384 138.226C242.515 134.76 245.907 131.535 248.907 127.939C253.715 122.143 258.076 115.937 261.58 109.265C265.494 101.792 268.326 93.8341 271.085 85.895C272.482 81.8509 273.843 77.7696 275.334 73.7628C276.675 70.1846 274.793 69.1037 271.569 67.7059C266.929 65.6746 261.729 65.3205 256.772 64.6123C239.515 62.1709 223.804 54.4741 209.305 45.1187C206.845 43.5346 203.23 38.4655 200.304 41.3914C195.29 46.3673 190.799 51.8464 186.904 57.7355C183.699 62.5809 181.052 70.93 174.958 72.8496C171.753 73.8559 168.156 72.7005 165.528 70.5759C159.266 65.5068 156.545 56.2632 153.918 48.995C151.327 41.7828 148.867 34.9805 144.245 29.4455C141.226 25.8114 137.555 22.7178 132.952 21.4505C129.038 20.3696 124.155 20.0341 121.565 16.4559C119.105 13.0641 119.795 7.80866 116.589 5.14366C113.533 2.59048 108.054 3.98821 105.09 6.00094C104.028 6.72775 103.096 7.75275 102.761 9.00139C102.332 10.5668 102.891 12.2628 102.556 13.8468C102.239 15.4123 101.084 16.7355 99.6859 17.4996C95.8841 19.6055 91.7841 18.04 87.8332 17.3878C85.1495 16.9591 82.3914 16.9591 79.7077 17.3878C75.6077 18.04 71.7686 19.6987 67.8923 21.0964C64.0159 22.4941 59.7854 22.7737 56.0395 24.3018C51.7905 26.035 51.2314 30.8246 51.25 35.26V35.2787Z" fill="#EDEEF2"/>
<g filter="url(#filter0_d_723_31152)">
<circle cx="242" cy="78.9092" r="4" fill="url(#paint0_linear_723_31152)"/>
</g>
<defs>
<filter id="filter0_d_723_31152" x="228" y="68.9092" width="28" height="28" filterUnits="userSpaceOnUse" color-interpolation-filters="sRGB">
<feFlood flood-opacity="0" result="BackgroundImageFix"/>
<feColorMatrix in="SourceAlpha" type="matrix" values="0 0 0 0 0 0 0 0 0 0 0 0 0 0 0 0 0 0 127 0" result="hardAlpha"/>
<feMorphology radius="2" operator="erode" in="SourceAlpha" result="effect1_dropShadow_723_31152"/>
<feOffset dy="4"/>
<feGaussianBlur stdDeviation="6"/>
<feColorMatrix type="matrix" values="0 0 0 0 0.607843 0 0 0 0 0.615686 0 0 0 0 0.698039 0 0 0 0.4 0"/>
<feBlend mode="normal" in2="BackgroundImageFix" result="effect1_dropShadow_723_31152"/>
<feBlend mode="normal" in="SourceGraphic" in2="effect1_dropShadow_723_31152" result="shape"/>
</filter>
<linearGradient id="paint0_linear_723_31152" x1="238" y1="74.9092" x2="246" y2="82.9092" gradientUnits="userSpaceOnUse">
<stop stop-color="#929AFF"/>
<stop offset="1" stop-color="#AC6DFF"/>
</linearGradient>
</defs>
</svg>
