<svg width="328" height="232" viewBox="0 0 328 232" fill="none" xmlns="http://www.w3.org/2000/svg">
<path d="M299.58 124.265C300.94 123.203 301.965 121.935 301.816 120.519C301.406 116.307 289.851 115.469 286.851 115.264C280.85 114.835 274.719 115.618 269.053 117.668C266.91 118.45 264.804 119.382 262.717 120.333C259.418 121.805 256.008 123.333 252.318 124.302C244.416 126.371 236.887 124.917 232.246 120.407C225.686 114.052 226.432 104.119 226.972 96.8695C227.326 92.0241 227.662 84.7373 223.674 81.1404C222.313 79.9104 220.524 79.2954 218.977 78.3263C216.256 76.6304 214.3 73.9282 212.976 71.0022C211.653 68.0763 210.926 64.9454 210.218 61.8145C208.485 54.3041 206.752 46.7936 205.019 39.2645C204.59 37.3823 204.068 35.3882 202.596 34.1395C199.856 31.8473 194.918 32.9282 191.75 33.5432C187.351 34.4004 183.121 35.8913 178.89 37.3263C172.871 39.395 166.479 41.8363 160.049 42.1159C153.62 42.3954 147.022 40.5877 141.264 37.6245C133.641 33.6923 126.765 27.71 118.285 26.4241C111.893 25.455 105.463 27.3373 99.3318 29.3686C92.045 31.7913 84.7395 34.4936 78.5523 39.0595C68.8241 46.2345 62.7673 57.2672 57.605 68.2068C53.7286 76.3882 50.1504 84.7745 45.1186 92.3595C33.1914 109.878 24.19 109.617 26.5195 114.183C28.8491 118.749 32.7814 113.344 40.7577 112.282C48.7341 111.22 108.669 124.321 116.179 128.067C123.69 131.813 127.025 132.707 129.765 138.261C132.691 144.243 131.61 151.493 134.07 157.68C137.592 166.532 146.631 172.123 145.047 182.727C149.65 183.175 154.421 181.721 158.894 182.988C163.366 184.255 166.87 188.411 167.355 193.033C167.504 194.487 167.466 196.127 168.51 197.133C169.05 197.636 169.777 197.879 170.467 198.102C174.828 199.5 180.81 200.264 182.767 205.091C190.687 195.568 199.763 187.834 208.783 179.429C216.741 171.993 225.109 164.687 235.06 160.028C236.16 159.525 237.26 159.04 238.378 158.593C245.236 155.891 252.672 154.624 260.033 154.885C266.388 155.108 273.545 156.208 278.39 152.108C282.434 148.679 283.273 142.864 285.435 138.037C287.373 133.714 290.578 129.986 294.529 127.377C295.703 126.613 297.884 125.57 299.561 124.246L299.58 124.265Z" fill="#EDEEF2"/>
<g filter="url(#filter0_d_723_31176)">
<circle cx="217" cy="153.909" r="4" fill="url(#paint0_linear_723_31176)"/>
</g>
<defs>
<filter id="filter0_d_723_31176" x="203" y="143.909" width="28" height="28" filterUnits="userSpaceOnUse" color-interpolation-filters="sRGB">
<feFlood flood-opacity="0" result="BackgroundImageFix"/>
<feColorMatrix in="SourceAlpha" type="matrix" values="0 0 0 0 0 0 0 0 0 0 0 0 0 0 0 0 0 0 127 0" result="hardAlpha"/>
<feMorphology radius="2" operator="erode" in="SourceAlpha" result="effect1_dropShadow_723_31176"/>
<feOffset dy="4"/>
<feGaussianBlur stdDeviation="6"/>
<feColorMatrix type="matrix" values="0 0 0 0 0.607843 0 0 0 0 0.615686 0 0 0 0 0.698039 0 0 0 0.4 0"/>
<feBlend mode="normal" in2="BackgroundImageFix" result="effect1_dropShadow_723_31176"/>
<feBlend mode="normal" in="SourceGraphic" in2="effect1_dropShadow_723_31176" result="shape"/>
</filter>
<linearGradient id="paint0_linear_723_31176" x1="213" y1="149.909" x2="221" y2="157.909" gradientUnits="userSpaceOnUse">
<stop stop-color="#929AFF"/>
<stop offset="1" stop-color="#AC6DFF"/>
</linearGradient>
</defs>
</svg>
