<svg width="328" height="232" viewBox="0 0 328 232" fill="none" xmlns="http://www.w3.org/2000/svg">
<path d="M285.006 49.5541C270.749 51.1941 256.716 54.6046 243.205 59.45C229.637 64.3141 217.356 71.1537 204.515 77.5087C197.881 80.8073 190.892 83.4723 183.922 85.9696C173.747 89.6223 163.012 91.9891 152.147 91.5232C134.853 90.7778 118.77 83.025 102.686 76.6141C90.1814 71.6196 76.8563 67.2773 63.2332 67.7619C50.9518 68.2091 37.3473 72.1787 26.4077 77.7137C31.3464 83.8264 36.0427 90.1441 40.5154 96.6109C42.7145 99.7791 44.6714 103.134 46.945 106.246C48.7714 108.743 52.7036 108.24 55.7786 108.762C70.3895 111.203 84.7209 115.34 98.4 121.025C106.749 124.491 114.67 128.721 122.739 132.747C143.202 143.985 161.391 158.689 179.412 173.374C182.618 175.983 185.805 178.611 189.01 181.22C190.594 182.506 191.079 183.158 192.961 182.059C194.489 181.164 195.663 179.543 196.744 178.182C216.499 153.228 286.944 70.0541 300.66 51.9768C301.275 51.1568 301.928 50.0387 301.369 49.1628C300.903 48.4359 299.878 48.3987 299.02 48.4359C294.324 48.6223 289.646 48.995 285.006 49.5168V49.5541Z" fill="#EDEEF2"/>
<g filter="url(#filter0_d_723_31130)">
<circle cx="229" cy="119.909" r="4" fill="url(#paint0_linear_723_31130)"/>
</g>
<defs>
<filter id="filter0_d_723_31130" x="215" y="109.909" width="28" height="28" filterUnits="userSpaceOnUse" color-interpolation-filters="sRGB">
<feFlood flood-opacity="0" result="BackgroundImageFix"/>
<feColorMatrix in="SourceAlpha" type="matrix" values="0 0 0 0 0 0 0 0 0 0 0 0 0 0 0 0 0 0 127 0" result="hardAlpha"/>
<feMorphology radius="2" operator="erode" in="SourceAlpha" result="effect1_dropShadow_723_31130"/>
<feOffset dy="4"/>
<feGaussianBlur stdDeviation="6"/>
<feColorMatrix type="matrix" values="0 0 0 0 0.607843 0 0 0 0 0.615686 0 0 0 0 0.698039 0 0 0 0.4 0"/>
<feBlend mode="normal" in2="BackgroundImageFix" result="effect1_dropShadow_723_31130"/>
<feBlend mode="normal" in="SourceGraphic" in2="effect1_dropShadow_723_31130" result="shape"/>
</filter>
<linearGradient id="paint0_linear_723_31130" x1="225" y1="115.909" x2="233" y2="123.909" gradientUnits="userSpaceOnUse">
<stop stop-color="#929AFF"/>
<stop offset="1" stop-color="#AC6DFF"/>
</linearGradient>
</defs>
</svg>
