<svg width="176" height="124" viewBox="0 0 176 124" fill="none" xmlns="http://www.w3.org/2000/svg">
<path d="M22.76 26.6701C22.01 27.3301 21.89 28.6901 22.1 29.7601C22.49 31.7201 23.63 33.4501 24.37 35.3001C25.21 37.4301 25.88 39.6301 26.51 41.8401C28.42 48.5501 29.82 56.7201 35.67 61.2601C38.92 63.7901 43.04 64.8001 46.75 66.4301C50.07 67.8901 52.89 70.0401 55.92 72.0001C59.38 74.2401 62.96 75.5001 67.07 74.5701C69.87 73.9301 72.46 72.5801 74.82 70.9801C76.85 69.6101 79.2 66.7301 81.72 66.4801C82.67 66.3901 83.66 66.7101 84.37 67.3601C85.03 67.9601 85.43 68.7901 85.71 69.6401C86.94 73.3001 86.36 77.4301 85.9 81.1801C85.43 85.0601 85.15 88.2501 86.02 91.1601C89.17 101.69 105.73 97.5801 113.21 95.9101C125.73 93.1101 137.92 88.0701 148.16 80.2701C149.64 79.1401 151.09 78.0301 152.29 76.6101C152.41 76.4701 154.26 74.0001 153.99 73.8501C116.8 53.2001 75.48 37.7201 27.74 26.5401C25.86 26.1001 23.79 25.7701 22.76 26.6701Z" fill="#EDF0FF"/>
</svg>
