<svg width="176" height="124" viewBox="0 0 176 124" fill="none" xmlns="http://www.w3.org/2000/svg">
<path d="M76.2 116.45C77.87 115.05 79.51 113.49 81.57 112.99C83.97 112.41 86.43 113.38 88.78 114.14C92.34 115.29 96.19 115.99 99.93 115.4C103.67 114.81 107.22 112.41 111.21 112.59C112.28 112.64 113.4 113.11 113.94 114.03C114.41 114.83 114.38 115.83 114.17 116.73C113.76 118.52 112.43 120.27 114.66 121.4C115.38 121.77 116.16 122.03 116.96 122.18C118.96 122.56 117.72 119.92 117.7 118.91C117.55 110.24 125.23 103.63 130.86 98.13C132.09 96.93 133.32 95.65 134 94.07C134.55 92.79 134.73 91.32 135.61 90.24C137.02 88.5 139.68 88.38 141.37 86.92C143.12 85.4 143.44 82.86 143.76 80.56C144.54 74.93 146.04 69.41 148.21 64.16C148.47 63.54 148.74 62.83 148.48 62.21C148.3 61.77 147.9 61.47 147.57 61.14C146.45 60.04 145.92 58.45 145.82 56.88C145.67 54.61 146.22 52.27 146.49 50.02C146.79 47.56 150.93 28.45 150.93 28.45C150.93 28.45 88.11 24.11 82.01 23.28C78.91 22.86 75.79 21.98 73.28 20.1C70.41 17.96 68.84 14.73 67.49 11.51C66.8 9.85997 66.16 8.18997 65.38 6.57997C64.76 5.31997 63.7 2.78997 62.38 2.21997L60.63 15.25L30.35 16.35C29.54 16.37 28.7 16.39 27.97 16.74C27.01 17.19 26.37 18.15 26.05 19.16C25.08 22.23 25.08 26.1 25.08 29.29C25.08 31.03 25.16 32.77 25.33 34.5C25.38 35 25.74 39.59 26.09 39.64C30.42 40.22 34.75 40.77 39.07 41.33C40.7 41.54 42.44 42.21 43.16 43.68C44.02 45.43 43.12 47.49 43 49.43C42.79 53.05 45.38 56.6 44.46 60.11C43.54 63.59 39.87 65.13 38.03 67.99C35.8 71.47 36.46 76.23 36.97 80.08C37.69 85.48 38.41 90.87 39.13 96.27C39.24 97.09 39.35 97.94 39.73 98.68C40.29 99.79 41.38 100.57 42.55 100.99C44.91 101.83 47.94 101.94 50.43 102.01C53.31 102.09 56.18 101.92 59.06 101.91C60.01 101.91 61.06 102.14 61.6 102.91C61.96 103.42 62.04 104.07 62.04 104.69C62.04 105.99 61.78 107.29 61.82 108.59C61.97 112.93 66.49 119.25 71.26 118.96C73.17 118.84 74.7 117.71 76.2 116.45Z" fill="#EDF0FF"/>
</svg>
