<svg width="176" height="124" viewBox="0 0 176 124" fill="none" xmlns="http://www.w3.org/2000/svg">
<path d="M89.89 112.41C89.93 112.35 89.96 112.3 90 112.24C91.38 109.93 93.07 107.63 95.12 105.31C103.23 96.1499 113.43 89.0799 119.68 78.3099C124.93 69.2599 126.74 53.3299 138.02 53.2699C140.23 53.2599 142.95 41.9799 140.7 41.8299C139.06 42.2099 137.65 42.8299 135.9 42.8199C134.15 42.8099 132.48 42.4899 130.85 41.9799C127.85 41.0399 125.07 39.5599 122.19 38.3299C119.14 37.0299 116.01 35.9399 112.97 34.5699C111.25 33.7999 109.58 32.4199 109.45 30.4099C109.39 29.4899 109.65 28.5799 109.65 27.6499C109.65 25.3599 107.87 23.1899 105.62 22.7599C104.71 22.5799 103.78 22.6599 102.85 22.6299C99.86 22.5099 95.99 21.0999 95.11 17.8999C94.52 15.7199 97.3 12.9399 96.17 10.3999C95.5 9.09993 89.51 11.3099 88.46 11.5999C81.91 13.3999 75.44 15.0899 68.7 13.1699C65.94 12.3799 63.3 11.0999 60.46 10.6599C55.46 9.88993 52.37 12.9999 49.17 16.2699C45.94 19.5699 42.56 23.0099 39.96 26.8299C37.36 30.6499 35.98 34.8899 35.24 39.2899C34.35 44.5199 34.42 49.8599 34.48 55.1599C34.55 60.5599 34.61 65.9699 34.68 71.3699C34.73 75.5099 33.89 81.0899 36.9 84.4699C39.78 87.7099 45.4 87.2399 49.37 86.6099C54.33 85.8099 60.51 84.8299 65.04 88.2599C68.94 91.2099 70.02 96.0199 70.42 100.63C70.63 103.03 70.68 105.45 70.9 107.85C71.09 109.85 71.22 113.03 73.56 113.77C75.15 114.27 77.1 113.79 78.74 113.75C80.77 113.69 82.79 113.72 84.82 113.83C86.53 113.93 88.81 114.05 89.88 112.41H89.89Z" fill="#EDF0FF"/>
</svg>
