<svg width="328" height="232" viewBox="0 0 328 232" fill="none" xmlns="http://www.w3.org/2000/svg">
<path d="M227.457 150.058C221.642 145.846 217.002 140.013 214.188 133.415C212.529 129.52 211.467 125.309 208.988 121.88C205.857 117.556 200.546 114.518 199.484 109.3C198.515 104.51 201.552 100.429 204.385 96.9255C207.218 93.4218 212.641 88.2037 211.746 83.1905C211.616 82.4264 211.225 81.6623 210.535 81.3455C209.771 81.01 208.895 81.2896 208.094 81.5132C202.503 83.0227 196.614 80.6932 192.439 76.9659C188.19 73.1827 185.339 68.1323 182.58 63.1564C181.295 60.8641 179.99 58.4786 179.692 55.8509C179.375 52.9064 180.381 49.9991 181.276 47.185C183.102 41.5196 184.63 35.7609 185.805 29.9277C186.718 25.4736 187.426 20.7587 186.01 16.435C183.307 8.16047 173.728 4.07911 165.044 3.85547C168.808 5.27183 170.765 9.65138 170.635 13.6582C170.504 17.665 168.752 21.4296 167.038 25.0636C164.149 31.1577 161.093 37.4568 155.819 41.6686C152.296 44.4641 147.935 46.1973 144.879 49.4959C140.332 54.4159 139.661 61.74 140.127 68.4305C140.593 75.1209 141.953 81.8673 140.593 88.4273C138.58 98.0996 131.088 105.517 125.162 113.419C106.283 138.652 102.239 171.769 100.599 203.246C100.45 206.097 100.916 209.806 103.693 210.458C106.041 211.017 108.054 208.837 110.215 207.756C114.651 205.557 120.074 208.185 123.429 211.856C126.783 215.527 128.945 220.149 132.505 223.597C133.064 224.137 133.753 224.678 134.536 224.603C135.486 224.491 136.064 223.522 136.474 222.665C138.3 218.938 140.891 214.689 145.028 214.465C149.315 214.241 152.315 218.416 154.85 221.864C158.521 226.877 162.509 227.529 168.305 227.492C174.157 227.455 179.934 226.038 185.525 224.454C196.707 221.249 208.224 216.552 220.095 218.379C217.99 210.682 217.431 202.556 218.474 194.655C218.735 192.735 219.07 190.778 218.567 188.915C217.691 185.672 214.523 183.622 212.827 180.733C209.752 175.515 212.045 168.694 215.716 163.886C219.387 159.078 224.326 155.276 227.475 150.114L227.457 150.058Z" fill="#EDEEF2"/>
<g filter="url(#filter0_d_723_31178)">
<circle cx="164" cy="142.909" r="4" fill="url(#paint0_linear_723_31178)"/>
</g>
<defs>
<filter id="filter0_d_723_31178" x="150" y="132.909" width="28" height="28" filterUnits="userSpaceOnUse" color-interpolation-filters="sRGB">
<feFlood flood-opacity="0" result="BackgroundImageFix"/>
<feColorMatrix in="SourceAlpha" type="matrix" values="0 0 0 0 0 0 0 0 0 0 0 0 0 0 0 0 0 0 127 0" result="hardAlpha"/>
<feMorphology radius="2" operator="erode" in="SourceAlpha" result="effect1_dropShadow_723_31178"/>
<feOffset dy="4"/>
<feGaussianBlur stdDeviation="6"/>
<feColorMatrix type="matrix" values="0 0 0 0 0.607843 0 0 0 0 0.615686 0 0 0 0 0.698039 0 0 0 0.4 0"/>
<feBlend mode="normal" in2="BackgroundImageFix" result="effect1_dropShadow_723_31178"/>
<feBlend mode="normal" in="SourceGraphic" in2="effect1_dropShadow_723_31178" result="shape"/>
</filter>
<linearGradient id="paint0_linear_723_31178" x1="160" y1="138.909" x2="168" y2="146.909" gradientUnits="userSpaceOnUse">
<stop stop-color="#929AFF"/>
<stop offset="1" stop-color="#AC6DFF"/>
</linearGradient>
</defs>
</svg>
