<svg width="822" height="580" viewBox="0 0 822 580" fill="none" xmlns="http://www.w3.org/2000/svg">
<path d="M570.029 376.468C555.457 365.913 543.828 351.294 536.775 334.761C532.619 324.999 529.956 314.444 523.745 305.85C515.898 295.015 502.588 287.402 499.925 274.325C497.497 262.322 505.11 252.094 512.209 243.313C519.308 234.533 532.899 221.455 530.657 208.892C530.33 206.977 529.349 205.062 527.621 204.268C525.706 203.427 523.511 204.128 521.503 204.688C507.492 208.471 492.733 202.633 482.271 193.292C471.622 183.811 464.477 171.155 457.564 158.684C454.342 152.94 451.072 146.962 450.325 140.376C449.531 132.997 452.053 125.711 454.295 118.659C458.872 104.46 462.702 90.0287 465.644 75.4102C467.933 64.2478 469.708 52.4316 466.158 41.5961C459.386 20.8593 435.38 10.631 413.615 10.0706C423.05 13.6201 427.954 24.5957 427.627 34.6371C427.3 44.6786 422.91 54.1129 418.613 63.2203C411.374 78.4927 403.714 94.2788 390.497 104.834C381.67 111.84 370.741 116.183 363.081 124.45C351.685 136.78 350.004 155.135 351.171 171.902C352.339 188.669 355.749 205.576 352.339 222.016C347.295 246.255 328.52 264.844 313.668 284.647C266.356 347.885 256.221 430.879 252.111 509.763C251.737 516.908 252.905 526.203 259.864 527.837C265.749 529.238 270.793 523.774 276.211 521.065C287.326 515.554 300.917 522.139 309.324 531.34C317.731 540.541 323.149 552.124 332.069 560.764C333.47 562.118 335.199 563.473 337.16 563.286C339.542 563.006 340.99 560.577 342.017 558.429C346.594 549.088 353.086 538.439 363.455 537.879C374.197 537.318 381.716 547.78 388.068 556.42C397.269 568.984 407.264 570.619 421.789 570.525C436.454 570.432 450.932 566.882 464.944 562.912C492.966 554.879 521.83 543.11 551.581 547.687C546.303 528.398 544.902 508.034 547.517 488.232C548.171 483.421 549.012 478.517 547.751 473.847C545.556 465.72 537.616 460.583 533.366 453.343C525.66 440.266 531.404 423.172 540.605 411.122C549.806 399.073 562.183 389.545 570.076 376.608L570.029 376.468Z" fill="#EDEEF2"/>
<g filter="url(#filter0_d_711_30881)">
<circle cx="411" cy="363.545" r="8" fill="url(#paint0_linear_711_30881)"/>
</g>
<defs>
<filter id="filter0_d_711_30881" x="393" y="349.545" width="36" height="36" filterUnits="userSpaceOnUse" color-interpolation-filters="sRGB">
<feFlood flood-opacity="0" result="BackgroundImageFix"/>
<feColorMatrix in="SourceAlpha" type="matrix" values="0 0 0 0 0 0 0 0 0 0 0 0 0 0 0 0 0 0 127 0" result="hardAlpha"/>
<feMorphology radius="2" operator="erode" in="SourceAlpha" result="effect1_dropShadow_711_30881"/>
<feOffset dy="4"/>
<feGaussianBlur stdDeviation="6"/>
<feColorMatrix type="matrix" values="0 0 0 0 0.607843 0 0 0 0 0.615686 0 0 0 0 0.698039 0 0 0 0.4 0"/>
<feBlend mode="normal" in2="BackgroundImageFix" result="effect1_dropShadow_711_30881"/>
<feBlend mode="normal" in="SourceGraphic" in2="effect1_dropShadow_711_30881" result="shape"/>
</filter>
<linearGradient id="paint0_linear_711_30881" x1="403" y1="355.545" x2="419" y2="371.545" gradientUnits="userSpaceOnUse">
<stop stop-color="#929AFF"/>
<stop offset="1" stop-color="#AC6DFF"/>
</linearGradient>
</defs>
</svg>
