<svg width="328" height="222" viewBox="0 0 328 222" fill="none" xmlns="http://www.w3.org/2000/svg">
<path d="M15.6299 204.29H47.2599H98.3299H189.77H217.39H312.37" stroke="#C5CBFF" stroke-width="0.71" stroke-linecap="round" stroke-linejoin="round"/>
<path d="M291.39 10.67H36.6099C34.5388 10.67 32.8599 12.349 32.8599 14.42V119.33C32.8599 121.401 34.5388 123.08 36.6099 123.08H291.39C293.461 123.08 295.14 121.401 295.14 119.33V14.42C295.14 12.349 293.461 10.67 291.39 10.67Z" fill="white" stroke="#C5CBFF" stroke-width="0.71" stroke-linecap="round" stroke-linejoin="round"/>
<mask id="mask0_338_14716" style="mask-type:luminance" maskUnits="userSpaceOnUse" x="36" y="14" width="256" height="106">
<path d="M289.52 14.41H38.4799C37.4471 14.41 36.6099 15.2473 36.6099 16.28V117.45C36.6099 118.483 37.4471 119.32 38.4799 119.32H289.52C290.553 119.32 291.39 118.483 291.39 117.45V16.28C291.39 15.2473 290.553 14.41 289.52 14.41Z" fill="white"/>
</mask>
<g mask="url(#mask0_338_14716)">
<path d="M182.78 18.65C182.32 18.64 181.83 18.57 181.37 18.61C180.63 18.66 179.91 19.25 179.28 19.64C177.75 20.6 176.28 21.65 174.84 22.74C174.26 23.18 173.7 23.67 173.08 24.05C172.53 24.39 171.93 24.71 171.45 25.17C168.89 27.64 167.11 30.61 167.65 34.04C168.12 35.13 168.7 36.58 168.45 36.65C168.22 36.9 165.22 38.98 164.84 39.94" stroke="#C5CBFF" stroke-width="0.71" stroke-linecap="round" stroke-linejoin="round"/>
<path d="M194.09 33.9301C196.19 32.7201 197.8 31.0101 199.55 29.3701C200.16 28.8001 200.81 27.9601 200.89 27.0901C200.93 26.6401 200.75 26.1601 200.73 25.7001C200.71 25.1701 200.77 24.6401 200.92 24.1401C201.03 23.7501 201.18 23.3701 201.33 22.9901C201.72 21.9601 202.05 20.9101 202.26 19.8301" stroke="#C5CBFF" stroke-width="0.71" stroke-linecap="round" stroke-linejoin="round"/>
<path d="M166.05 59.5101C165.33 57.2501 165.17 55.5601 165.17 54.4401C165.17 53.3201 165.7 51.8601 165.07 50.8001C164.7 50.1901 163.99 49.8001 163.73 49.1301C163.4 48.2601 163.96 47.3301 164.52 46.5901C165.66 45.0801 166.9 43.6401 168.22 42.2801C168.43 42.0601 168.66 41.8401 168.96 41.7601C169.51 41.6101 170.07 42.0301 170.36 42.5201C170.65 43.0101 170.78 43.5901 171.08 44.0701C172.21 45.9101 174.99 45.6201 176.95 44.7201C178.87 43.8401 180.74 42.4201 181.22 40.3701C181.45 39.4001 181.34 38.3801 181.52 37.4001C181.7 36.4201 182.33 35.4001 183.32 35.2601C184.73 35.0601 185.73 36.6901 187.12 36.9901C188.13 37.2101 189.14 36.6801 190.04 36.1701C192.06 35.0301 194.09 33.9001 196.11 32.7601C196.85 32.3501 197.74 31.9301 198.49 32.3201C199.81 33.0101 199.22 35.3701 200.48 36.1701C201.23 36.6501 202.26 36.2601 202.89 35.6201C203.52 34.9801 203.89 34.1501 204.47 33.4701C206.26 31.3401 209.67 31.2001 212.14 32.4801C214.61 33.7601 216.33 36.1301 217.75 38.5301C218.3 39.4601 218.83 40.4301 218.95 41.5101C219.07 42.5901 218.67 43.7801 217.74 44.3201C217.33 44.5601 216.83 44.6701 216.53 45.0301C216.12 45.5101 216.22 46.2401 216.47 46.8201C216.89 47.7901 217.68 48.5601 218.62 49.0301C219.43 49.4301 220.36 49.6001 221.25 49.4501C220.21 53.6601 217.56 57.4601 213.97 59.8901C213.22 60.4001 212.41 60.8701 211.91 61.6301C211.37 62.4501 211.29 63.4801 211.25 64.4601L211.17 71.8401" stroke="#C5CBFF" stroke-width="0.71" stroke-linecap="round" stroke-linejoin="round"/>
<path d="M215.29 34.91C215.92 34.22 217.93 33.71 218.86 33.72C219.79 33.73 220.7 34.01 221.56 34.36C222.53 34.75 223.5 35.23 224.54 35.29C226.14 35.38 227.6 34.49 229.03 33.79C230.4 33.13 231.86 32.61 233.38 32.53C234.02 32.5 234.69 32.53 235.29 32.3C236.06 31.99 236.58 31.26 236.96 30.51C237.81 28.83 238.4 26.49 237.7 24.66C237.55 24.28 237.3 23.91 236.99 23.62C236.39 23.07 235.57 22.77 234.79 23.15C234.24 23.42 233.89 23.96 233.42 24.35C231.98 25.56 229.78 25.21 228.08 26.03C227.39 26.37 226.8 26.89 226.18 27.34C225.56 27.8 224.86 28.2 224.09 28.24C223.32 28.28 222.48 27.87 222.26 27.13C221.97 26.15 222.81 25.24 223.42 24.41C223.69 24.05 223.91 23.52 223.61 23.19C223.46 23.03 223.23 22.97 223.02 22.95C221.95 22.81 220.84 23.07 219.95 23.68C218.92 24.38 218.06 25.57 216.81 25.59C215.71 25.61 214.74 24.68 213.64 24.74C212.72 24.79 211.93 25.53 211.01 25.5C209.44 25.45 208.74 23.32 207.24 22.82C206.82 22.68 206.38 22.68 205.94 22.7C204.89 22.73 202.27 23.1 201.23 23.23" stroke="#C5CBFF" stroke-width="0.71" stroke-linecap="round" stroke-linejoin="round"/>
<path d="M221.26 49.41C222.28 48.42 224.04 45.91 224.81 44.73C225.46 44.46 226.28 44.19 226.81 43.69C227.4 43.14 226.65 42.43 226.19 42.11C225.75 41.8 225.34 41.47 224.92 41.13C224.76 41 224.59 40.87 224.43 40.73C223.75 40.19 223.04 39.69 222.27 39.28C221.5 38.87 219.85 38.23 219.85 38.23C219.85 38.23 217.41 37.45 217.36 37.85" stroke="#C5CBFF" stroke-width="0.71" stroke-linecap="round" stroke-linejoin="round"/>
<path d="M226.97 43.5C228.82 41.21 233.91 35.53 233.91 35.53C233.91 35.53 236.07 32.86 235.09 32.35" stroke="#C5CBFF" stroke-width="0.71" stroke-linecap="round" stroke-linejoin="round"/>
<path d="M167.61 42.9C167.17 42.44 165.65 41.05 165.22 40.58C164.05 39.3 164.05 37.25 162.89 35.95C161.67 34.59 160.11 33.9 161.52 31.88C162.05 31.12 162.78 30.52 163.24 29.73C163.83 28.71 164.31 26.19 162.35 26.66C161.98 26.75 161.62 26.91 161.24 26.94C159.26 27.12 157.26 23.07 156.4 21.67" stroke="#C5CBFF" stroke-width="0.71" stroke-linecap="round" stroke-linejoin="round"/>
<path d="M162.43 114.26C162.15 114.08 161.83 113.96 161.56 113.77C160.9 113.29 160.66 112.42 160.48 111.62C160.12 110.1 159.76 108.58 159.4 107.05C159.25 106.41 159.05 105.7 158.5 105.33C158.13 105.09 157.67 105.05 157.23 105.06C154.26 105.15 151.48 107.32 148.58 106.73C146.73 106.35 145.28 104.92 143.52 104.24C140.79 103.09 138.73 104.37 136.33 105.16" stroke="#C5CBFF" stroke-width="0.71" stroke-linecap="round" stroke-linejoin="round"/>
<path d="M166.11 71.7501C169.3 70.3001 167.4 67.5701 166.56 65.8301C166.29 65.2801 165.96 64.7301 165.9 64.1201C165.83 63.3701 166.19 62.6501 166.44 61.9401C166.75 61.0801 166.85 60.1201 166.05 59.5001C165.85 59.3401 165.62 59.2301 165.38 59.1501C165.02 59.0201 164.62 58.9701 164.24 58.9401C160.59 58.7001 157.17 60.8801 153.52 61.0801C152.15 61.1601 150.6 60.8601 149.79 59.7501C149.29 59.0701 148.9 58.0201 148.06 58.1001C146.97 58.2101 146.95 60.1401 145.88 60.3901C145.25 60.5401 144.68 60.0001 144.28 59.4901C143.42 58.4201 141.84 56.4401 140.74 56.4401" stroke="#C5CBFF" stroke-width="0.71" stroke-linecap="round" stroke-linejoin="round"/>
<path d="M154.13 76.43C152.59 79.64 157.1 82.47 159.01 79.65C160.92 76.82 155.67 73.22 154.13 76.43Z" stroke="#C5CBFF" stroke-width="0.71" stroke-linecap="round" stroke-linejoin="round"/>
<path d="M199.31 92.2101C200.43 91.7101 201.82 90.8801 201.66 87.8101C201.5 84.7401 201.86 84.6901 202.82 83.4701C203.7 82.3401 205.07 81.3601 205.08 79.9301C205.12 76.3501 200.01 77.2801 197.89 77.2501C197.52 77.2501 197.13 77.2101 196.86 76.9601C196.6 76.7201 196.53 76.3601 196.4 76.0301C196.04 75.1301 195.23 74.4901 194.35 74.0801C193.48 73.6701 192.53 73.4601 191.61 73.1501C188.73 72.1701 185.92 70.2001 182.94 70.7801C182.49 70.8701 181.99 71.0101 181.58 70.7901C180.78 70.3601 181.11 69.1601 180.57 68.4901C180.03 67.8201 179 67.5101 178.15 67.6101C176.93 67.7501 175.88 68.4801 174.88 69.1901C172.88 70.6101 170.36 73.2101 167.9 73.6901C167.5 73.7701 167.03 73.7801 166.74 73.5001C166.4 73.1801 166.32 72.3601 166.11 71.7501C165.88 71.0601 165.5 70.6401 164.42 71.5201C163.9 71.9401 163.56 72.5501 163.01 72.9201C162.56 73.2301 161.98 73.3701 161.64 73.8101C160.82 74.8801 162.21 76.4701 161.7 77.7201C161.31 78.6601 160.09 78.8701 159.27 79.4701C158.3 80.1901 157.93 81.6001 158.42 82.7001C158.9 83.7701 160.1 84.8901 159.46 85.8701C159.19 86.2901 158.64 86.4801 158.39 86.9201C158.04 87.5401 158.43 88.2901 158.65 88.9701C159.38 91.1901 157.89 93.8701 155.62 94.4201C154.23 94.7601 152.78 94.3701 151.34 94.3101C149.18 94.2101 147.05 94.8401 144.98 95.4601C142.7 96.1501 140.36 96.8601 138.49 98.3501C136.63 99.8401 134.94 104.28 136.31 105.17" stroke="#C5CBFF" stroke-width="0.71" stroke-linecap="round" stroke-linejoin="round"/>
<path d="M198.38 113.83C198.38 113.83 199.79 111.21 200.14 110.58C200.42 110.08 200.85 109.67 201.25 109.27C204.81 105.68 207.26 100.8 207.17 95.74C207.17 95.22 207.12 94.69 206.86 94.24C206.47 93.57 205.66 93.2 205.05 92.78C204.6 92.46 204.13 92.16 203.65 91.9C203.48 91.81 203.32 91.73 203.15 91.65C202.45 91.33 201.71 91.48 200.99 91.67C200.26 91.86 199.5 92.03 198.89 92.47C198.28 92.91 197.83 93.68 198.02 94.41C198.15 94.9 198.53 95.27 198.75 95.73C198.95 96.15 198.98 96.83 198.48 97.05C198.29 97.13 198.06 97.13 197.91 97.28C197.79 97.41 197.78 97.62 197.84 97.79C197.9 97.96 198.02 98.1 198.14 98.24C198.66 98.88 199.09 99.62 199.04 100.47C199.01 101.04 198.76 101.57 198.5 102.08C198.05 102.95 197.54 103.8 196.85 104.49C196.26 105.09 195.55 105.56 194.92 106.12C194.29 106.68 193.71 107.35 193.49 108.16L192.84 110.06" stroke="#C5CBFF" stroke-width="0.71" stroke-linecap="round" stroke-linejoin="round"/>
</g>
<path d="M289.52 14.41H38.4799C37.4471 14.41 36.6099 15.2473 36.6099 16.28V117.45C36.6099 118.483 37.4471 119.32 38.4799 119.32H289.52C290.553 119.32 291.39 118.483 291.39 117.45V16.28C291.39 15.2473 290.553 14.41 289.52 14.41Z" stroke="#C5CBFF" stroke-width="0.71" stroke-linecap="round" stroke-linejoin="round"/>
<path d="M55.2399 204.05H21.9299L19.6599 196.59L22.2499 191.9L20.0199 184.56L18.4099 181.19L17.1899 173.3H50.4999L51.5399 181.19L53.1099 184.56L55.1499 191.9L52.7899 196.59L55.2399 204.05Z" fill="#DFE3FF"/>
<path d="M38.5398 176.73H20.5398C20.5398 176.73 15.9498 181.45 15.8198 185.86C15.8198 185.86 24.1298 178.87 38.5398 176.73Z" fill="#DFE3FF" stroke="#C5CBFF" stroke-width="0.71" stroke-linecap="round" stroke-linejoin="round"/>
<path d="M45.3296 191.9H55.1496C55.1496 191.9 55.3296 195.37 52.7896 196.59C52.7896 196.59 52.8196 192.65 45.3296 191.9Z" fill="#DFE3FF" stroke="#C5CBFF" stroke-width="0.71" stroke-linecap="round" stroke-linejoin="round"/>
<path d="M19.6597 196.59H32.6797" stroke="#C5CBFF" stroke-width="0.71" stroke-linecap="round" stroke-linejoin="round"/>
<path d="M53.1097 184.56H40.6797" stroke="#C5CBFF" stroke-width="0.71" stroke-linecap="round" stroke-linejoin="round"/>
<path d="M51.5399 181.19H46.1499" stroke="#C5CBFF" stroke-width="0.71" stroke-linecap="round" stroke-linejoin="round"/>
<path d="M24.1196 191.9H34.3796" stroke="#C5CBFF" stroke-width="0.71" stroke-linecap="round" stroke-linejoin="round"/>
<path d="M178.21 173.3H211.52L213.79 165.84L211.21 161.15L213.43 153.81L215.05 150.44L216.26 142.55H182.95L181.92 150.44L180.35 153.81L178.3 161.15L180.67 165.84L178.21 173.3Z" fill="#DFE3FF"/>
<path d="M194.92 145.98H212.92C212.92 145.98 217.51 150.7 217.64 155.11C217.64 155.11 209.33 148.12 194.92 145.98Z" fill="#DFE3FF" stroke="#C5CBFF" stroke-width="0.71" stroke-linecap="round" stroke-linejoin="round"/>
<path d="M188.12 161.15H178.3C178.3 161.15 178.12 164.62 180.66 165.84C180.66 165.84 180.63 161.9 188.12 161.15Z" fill="#DFE3FF" stroke="#C5CBFF" stroke-width="0.71" stroke-linecap="round" stroke-linejoin="round"/>
<path d="M213.79 165.84H200.77" stroke="#C5CBFF" stroke-width="0.71" stroke-linecap="round" stroke-linejoin="round"/>
<path d="M180.35 153.81H192.78" stroke="#C5CBFF" stroke-width="0.71" stroke-linecap="round" stroke-linejoin="round"/>
<path d="M181.92 150.44H187.3" stroke="#C5CBFF" stroke-width="0.71" stroke-linecap="round" stroke-linejoin="round"/>
<path d="M209.33 161.15H199.07" stroke="#C5CBFF" stroke-width="0.71" stroke-linecap="round" stroke-linejoin="round"/>
<path d="M216.26 204.05H182.95L180.68 196.59L183.26 191.9L181.04 184.56L179.43 181.19L178.21 173.3H211.52L212.56 181.19L214.13 184.56L216.17 191.9L213.81 196.59L216.26 204.05Z" fill="#DFE3FF"/>
<path d="M206.35 191.9H216.17C216.17 191.9 216.35 195.37 213.81 196.59C213.81 196.59 213.84 192.65 206.35 191.9Z" fill="#DFE3FF" stroke="#C5CBFF" stroke-width="0.71" stroke-linecap="round" stroke-linejoin="round"/>
<path d="M180.68 196.59H193.7" stroke="#C5CBFF" stroke-width="0.71" stroke-linecap="round" stroke-linejoin="round"/>
<path d="M214.13 184.56H201.7" stroke="#C5CBFF" stroke-width="0.71" stroke-linecap="round" stroke-linejoin="round"/>
<path d="M212.56 181.19H207.17" stroke="#C5CBFF" stroke-width="0.71" stroke-linecap="round" stroke-linejoin="round"/>
<path d="M185.14 191.9H195.4" stroke="#C5CBFF" stroke-width="0.71" stroke-linecap="round" stroke-linejoin="round"/>
<path d="M191.52 177.22H178.86" stroke="#C5CBFF" stroke-width="0.71" stroke-linecap="round" stroke-linejoin="round"/>
<path d="M304.03 186.72H271.71V193.28H304.03V186.72Z" fill="#EDF0FF"/>
<path d="M304.02 185.32H271.7C271.313 185.32 271 185.633 271 186.02V186.03C271 186.417 271.313 186.73 271.7 186.73H304.02C304.407 186.73 304.72 186.417 304.72 186.03V186.02C304.72 185.633 304.407 185.32 304.02 185.32Z" fill="#EDF0FF" stroke="#C5CBFF" stroke-width="0.71" stroke-linecap="round" stroke-linejoin="round"/>
<path d="M304.02 193.28H271.7C271.313 193.28 271 193.593 271 193.98V193.99C271 194.377 271.313 194.69 271.7 194.69H304.02C304.407 194.69 304.72 194.377 304.72 193.99V193.98C304.72 193.593 304.407 193.28 304.02 193.28Z" fill="#EDF0FF" stroke="#C5CBFF" stroke-width="0.71" stroke-linecap="round" stroke-linejoin="round"/>
<path d="M271.71 188.12H294.5" stroke="#C5CBFF" stroke-width="0.71" stroke-linecap="round" stroke-linejoin="round"/>
<path d="M271.71 189.24H285.81" stroke="#C5CBFF" stroke-width="0.71" stroke-linecap="round" stroke-linejoin="round"/>
<path d="M285.54 190.81H304.01" stroke="#C5CBFF" stroke-width="0.71" stroke-linecap="round" stroke-linejoin="round"/>
<path d="M292.51 191.93H302.25" stroke="#C5CBFF" stroke-width="0.71" stroke-linecap="round" stroke-linejoin="round"/>
<path d="M277.57 196.09H306.01V202.65H277.57C275.82 202.65 274.4 201.23 274.4 199.48V199.27C274.4 197.52 275.82 196.1 277.57 196.1V196.09Z" fill="#EDF0FF"/>
<path d="M277.62 196.09H306C306.39 196.09 306.7 195.78 306.7 195.39C306.7 195 306.39 194.69 306 194.69H277.88C275.3 194.69 273.05 196.67 272.98 199.25C272.91 201.83 275.03 204.06 277.66 204.06H306C306.39 204.06 306.7 203.75 306.7 203.36C306.7 202.97 306.39 202.66 306 202.66H277.62C275.84 202.66 274.39 201.21 274.39 199.43V199.34C274.39 197.56 275.84 196.11 277.62 196.11V196.09Z" fill="#EDF0FF" stroke="#C5CBFF" stroke-width="0.71" stroke-linecap="round" stroke-linejoin="round"/>
<path d="M283.21 197.79H306.01" stroke="#C5CBFF" stroke-width="0.71" stroke-linecap="round" stroke-linejoin="round"/>
<path d="M278.93 198.91H293.04" stroke="#C5CBFF" stroke-width="0.71" stroke-linecap="round" stroke-linejoin="round"/>
<path d="M287.54 200.03H306.01" stroke="#C5CBFF" stroke-width="0.71" stroke-linecap="round" stroke-linejoin="round"/>
<path d="M294.51 201.16H304.24" stroke="#C5CBFF" stroke-width="0.71" stroke-linecap="round" stroke-linejoin="round"/>
<path d="M278.89 149.25H307.33V155.81H278.89C277.14 155.81 275.72 154.39 275.72 152.64V152.43C275.72 150.68 277.14 149.26 278.89 149.26V149.25Z" fill="#EDF0FF"/>
<path d="M278.95 149.25H307.33C307.72 149.25 308.03 148.94 308.03 148.55C308.03 148.16 307.72 147.85 307.33 147.85H279.21C276.63 147.85 274.38 149.83 274.31 152.41C274.24 154.99 276.36 157.22 278.99 157.22H307.33C307.72 157.22 308.03 156.91 308.03 156.52C308.03 156.13 307.72 155.82 307.33 155.82H278.95C277.17 155.82 275.72 154.37 275.72 152.59V152.5C275.72 150.72 277.17 149.27 278.95 149.27V149.25Z" fill="#EDF0FF" stroke="#C5CBFF" stroke-width="0.71" stroke-linecap="round" stroke-linejoin="round"/>
<path d="M284.54 150.95H307.33" stroke="#C5CBFF" stroke-width="0.71" stroke-linecap="round" stroke-linejoin="round"/>
<path d="M280.26 152.08H294.36" stroke="#C5CBFF" stroke-width="0.71" stroke-linecap="round" stroke-linejoin="round"/>
<path d="M288.87 153.2H307.33" stroke="#C5CBFF" stroke-width="0.71" stroke-linecap="round" stroke-linejoin="round"/>
<path d="M295.83 154.32H305.57" stroke="#C5CBFF" stroke-width="0.71" stroke-linecap="round" stroke-linejoin="round"/>
<path d="M301.47 165.18H273.03V158.62H301.47C303.22 158.62 304.64 160.04 304.64 161.79V162C304.64 163.75 303.22 165.17 301.47 165.17V165.18Z" fill="#EDF0FF"/>
<path d="M301.41 158.62H273.03C272.64 158.62 272.33 158.31 272.33 157.92C272.33 157.53 272.64 157.22 273.03 157.22H301.15C303.73 157.22 305.98 159.2 306.05 161.78C306.12 164.42 304 166.59 301.37 166.59H273.03C272.64 166.59 272.33 166.28 272.33 165.89C272.33 165.5 272.64 165.19 273.03 165.19H301.41C303.19 165.19 304.64 163.74 304.64 161.96V161.87C304.64 160.09 303.19 158.64 301.41 158.64V158.62Z" fill="#EDF0FF" stroke="#C5CBFF" stroke-width="0.71" stroke-linecap="round" stroke-linejoin="round"/>
<path d="M295.82 160.32H273.03" stroke="#C5CBFF" stroke-width="0.71" stroke-linecap="round" stroke-linejoin="round"/>
<path d="M300.1 161.44H286" stroke="#C5CBFF" stroke-width="0.71" stroke-linecap="round" stroke-linejoin="round"/>
<path d="M291.49 162.57H273.03" stroke="#C5CBFF" stroke-width="0.71" stroke-linecap="round" stroke-linejoin="round"/>
<path d="M284.53 163.69H274.79" stroke="#C5CBFF" stroke-width="0.71" stroke-linecap="round" stroke-linejoin="round"/>
<path d="M305.77 175.95H273.93C273.411 175.95 272.99 176.371 272.99 176.89V184.38C272.99 184.899 273.411 185.32 273.93 185.32H305.77C306.289 185.32 306.71 184.899 306.71 184.38V176.89C306.71 176.371 306.289 175.95 305.77 175.95Z" fill="#EDF0FF" stroke="#C5CBFF" stroke-width="0.71" stroke-linecap="round" stroke-linejoin="round"/>
<path d="M302.41 175.95H299.6V185.32H302.41V175.95Z" fill="#C5CBFF"/>
<path d="M275.25 175.95H307.09C307.609 175.95 308.03 175.529 308.03 175.01V167.52C308.03 167.001 307.609 166.58 307.09 166.58H275.25C274.731 166.58 274.31 167.001 274.31 167.52V175.01C274.31 175.529 274.731 175.95 275.25 175.95Z" fill="#EDF0FF" stroke="#C5CBFF" stroke-width="0.71" stroke-linecap="round" stroke-linejoin="round"/>
<path d="M278.62 175.95H281.43V166.58H278.62V175.95Z" fill="#C5CBFF"/>
<path d="M149.91 204.05H183.22L185.49 196.59L182.91 191.9L185.13 184.56L186.75 181.19L187.96 173.3H154.65L153.61 181.19L152.05 184.56L150 191.9L152.36 196.59L149.91 204.05Z" fill="#EDF0FF"/>
<path d="M159.82 191.9H150C150 191.9 149.82 195.37 152.36 196.59C152.36 196.59 152.33 192.65 159.82 191.9Z" fill="#EDF0FF" stroke="#C5CBFF" stroke-width="0.71" stroke-linecap="round" stroke-linejoin="round"/>
<path d="M185.49 196.59H172.47" stroke="#C5CBFF" stroke-width="0.71" stroke-linecap="round" stroke-linejoin="round"/>
<path d="M152.05 184.56H164.48" stroke="#C5CBFF" stroke-width="0.71" stroke-linecap="round" stroke-linejoin="round"/>
<path d="M153.61 181.19H159" stroke="#C5CBFF" stroke-width="0.71" stroke-linecap="round" stroke-linejoin="round"/>
<path d="M181.03 191.9H170.77" stroke="#C5CBFF" stroke-width="0.71" stroke-linecap="round" stroke-linejoin="round"/>
<path d="M174.66 177.22H187.32" stroke="#C5CBFF" stroke-width="0.71" stroke-linecap="round" stroke-linejoin="round"/>
<path d="M199.59 177.36H228.03V183.92H199.59C197.84 183.92 196.42 182.5 196.42 180.75V180.54C196.42 178.79 197.84 177.37 199.59 177.37V177.36Z" fill="#EDF0FF"/>
<path d="M199.65 177.36H228.03C228.42 177.36 228.73 177.05 228.73 176.66C228.73 176.27 228.42 175.96 228.03 175.96H199.91C197.33 175.96 195.08 177.94 195.01 180.52C194.94 183.1 197.06 185.33 199.69 185.33H228.03C228.42 185.33 228.73 185.02 228.73 184.63C228.73 184.24 228.42 183.93 228.03 183.93H199.65C197.87 183.93 196.42 182.48 196.42 180.7V180.61C196.42 178.83 197.87 177.38 199.65 177.38V177.36Z" fill="#EDF0FF" stroke="#C5CBFF" stroke-width="0.71" stroke-linecap="round" stroke-linejoin="round"/>
<path d="M205.24 179.05H228.03" stroke="#C5CBFF" stroke-width="0.71" stroke-linecap="round" stroke-linejoin="round"/>
<path d="M200.96 180.18H215.07" stroke="#C5CBFF" stroke-width="0.71" stroke-linecap="round" stroke-linejoin="round"/>
<path d="M209.57 181.3H228.03" stroke="#C5CBFF" stroke-width="0.71" stroke-linecap="round" stroke-linejoin="round"/>
<path d="M216.54 182.42H226.27" stroke="#C5CBFF" stroke-width="0.71" stroke-linecap="round" stroke-linejoin="round"/>
<path d="M222.17 193.28H193.73V186.72H222.17C223.92 186.72 225.34 188.14 225.34 189.89V190.1C225.34 191.85 223.92 193.27 222.17 193.27V193.28Z" fill="#EDF0FF"/>
<path d="M222.11 186.72H193.73C193.34 186.72 193.03 186.41 193.03 186.02C193.03 185.63 193.34 185.32 193.73 185.32H221.85C224.43 185.32 226.68 187.3 226.75 189.88C226.82 192.52 224.7 194.69 222.07 194.69H193.73C193.34 194.69 193.03 194.38 193.03 193.99C193.03 193.6 193.34 193.29 193.73 193.29H222.11C223.89 193.29 225.34 191.84 225.34 190.06V189.97C225.34 188.19 223.89 186.74 222.11 186.74V186.72Z" fill="#EDF0FF" stroke="#C5CBFF" stroke-width="0.71" stroke-linecap="round" stroke-linejoin="round"/>
<path d="M216.53 188.42H193.73" stroke="#C5CBFF" stroke-width="0.71" stroke-linecap="round" stroke-linejoin="round"/>
<path d="M220.81 189.54H206.7" stroke="#C5CBFF" stroke-width="0.71" stroke-linecap="round" stroke-linejoin="round"/>
<path d="M212.2 190.67H193.73" stroke="#C5CBFF" stroke-width="0.71" stroke-linecap="round" stroke-linejoin="round"/>
<path d="M205.23 191.79H195.49" stroke="#C5CBFF" stroke-width="0.71" stroke-linecap="round" stroke-linejoin="round"/>
<path d="M195.96 204.06H227.8C228.319 204.06 228.74 203.639 228.74 203.12V195.63C228.74 195.111 228.319 194.69 227.8 194.69H195.96C195.441 194.69 195.02 195.111 195.02 195.63V203.12C195.02 203.639 195.441 204.06 195.96 204.06Z" fill="#EDF0FF" stroke="#C5CBFF" stroke-width="0.71" stroke-linecap="round" stroke-linejoin="round"/>
<path d="M199.31 204.06H202.12V194.69H199.31V204.06Z" fill="#C5CBFF"/>
<path d="M198.27 167.99H226.71V174.55H198.27C196.52 174.55 195.1 173.13 195.1 171.38V171.17C195.1 169.42 196.52 168 198.27 168V167.99Z" fill="#EDF0FF"/>
<path d="M198.33 167.99H226.71C227.1 167.99 227.41 167.68 227.41 167.29C227.41 166.9 227.1 166.59 226.71 166.59H198.59C196.01 166.59 193.76 168.57 193.69 171.15C193.62 173.79 195.74 175.96 198.37 175.96H226.71C227.1 175.96 227.41 175.65 227.41 175.26C227.41 174.87 227.1 174.56 226.71 174.56H198.33C196.55 174.56 195.1 173.11 195.1 171.33V171.24C195.1 169.46 196.55 168.01 198.33 168.01V167.99Z" fill="#EDF0FF" stroke="#C5CBFF" stroke-width="0.71" stroke-linecap="round" stroke-linejoin="round"/>
<path d="M203.919 169.69H226.709" stroke="#C5CBFF" stroke-width="0.71" stroke-linecap="round" stroke-linejoin="round"/>
<path d="M199.64 170.81H213.74" stroke="#C5CBFF" stroke-width="0.71" stroke-linecap="round" stroke-linejoin="round"/>
<path d="M208.25 171.93H226.71" stroke="#C5CBFF" stroke-width="0.71" stroke-linecap="round" stroke-linejoin="round"/>
<path d="M215.209 173.06H224.949" stroke="#C5CBFF" stroke-width="0.71" stroke-linecap="round" stroke-linejoin="round"/>
<path d="M219 79.6901L220.28 77.9101L213.37 72.3401L211.09 71.6901L212.01 73.9201L219 79.6901Z" fill="#402CA7" stroke="#22194D" stroke-width="0.71" stroke-linecap="round" stroke-linejoin="round"/>
<path d="M258.16 54.0801C258.45 54.2801 258.27 54.7301 257.92 54.6801C250.9 53.6701 244.77 56.8101 242.82 61.6601C241.31 65.4101 242.51 69.6601 244.6 72.3301C250.64 80.0401 263.43 77.8801 269.66 71.6401C274.77 66.5201 275.01 57.7801 269.58 52.8101C266.45 49.9401 262.17 48.2001 257.94 47.9601C253.02 47.6901 249.14 49.7201 247.04 51.1101C246.75 51.3101 246.92 51.7601 247.27 51.7101C249.92 51.3301 254.19 51.3301 258.16 54.0701V54.0801Z" fill="#929AFF"/>
<path d="M232.37 179.61L225.71 193.04C220.47 202.41 209.53 194.8 208.1 204.06H235.72C235.72 204.06 236.62 200.22 233.77 195.77L240.87 180.22L232.37 179.61Z" fill="#929AFF"/>
<path d="M225.72 193.04C220.48 202.41 209.54 194.8 208.11 204.06H235.73C235.73 204.06 236.63 200.22 233.78 195.77C230.28 196.44 228.39 196.12 225.72 193.04Z" fill="#402CA7"/>
<path d="M222.23 194.93L224.54 198.59L220.72 196.03L222.63 198.99L219.43 196.72L220.48 198.99" stroke="#22194D" stroke-width="0.71" stroke-linecap="round" stroke-linejoin="round"/>
<path d="M271.36 187.45C271.36 187.45 269.65 191.19 269.65 192.95C269.65 194.71 274.19 200.14 274.19 200.14C274.19 200.14 275.41 209.39 277.74 210.67C280.07 211.95 286.03 210.55 283.77 204.28C283.77 204.28 281.12 199.5 280.75 195.75L278.84 187.65L277.8 137.53L267.12 138.14L271.37 187.45H271.36Z" fill="#929AFF"/>
<path d="M271.36 187.45C271.36 187.45 269.65 191.19 269.65 192.95C269.65 194.71 274.19 200.14 274.19 200.14C274.19 200.14 275.41 209.39 277.74 210.67C280.07 211.95 286.03 210.55 283.77 204.28C283.77 204.28 281.12 199.5 280.75 195.75C277.74 196.35 274.61 193.66 271.36 187.45Z" fill="#402CA7"/>
<path d="M279.23 198.89L282.51 198.25L279.79 200.44L282.76 199.91L280.61 201.57H282.76" stroke="#22194D" stroke-width="0.71" stroke-linecap="round" stroke-linejoin="round"/>
<path d="M223.09 85.52L218.65 82.05L215.5 78.46C216.29 77.15 218.28 77.94 220 79.46L219.22 77.88C214.6 75.33 214.31 72.82 215.14 71.87L218.98 74.55C218.98 74.55 215.1 73.35 216.29 71.28L220.89 73.98C220.89 73.98 216.12 73.42 217.48 70.9L224.63 75.86C224.63 75.86 227.03 79.43 227.18 82.95L236.41 97.04C238.12 87.24 238.38 77.59 246.91 81.41L247.28 90.83C247.28 90.83 242.97 101.11 240.74 106.52C239.01 110.25 234.29 109.75 232.5 105.7C230.71 101.65 223.1 85.53 223.1 85.53L223.09 85.52Z" fill="#929AFF"/>
<path d="M272.27 80.93C272.27 80.93 262.18 82.31 256.21 82.31C250.24 82.31 244.05 80.9 244.05 80.9L240.99 82.8C240.99 82.8 239.38 85.04 239.48 88.15C239.58 91.26 242.51 100.4 242.51 100.4C241.84 108.74 237.27 123.03 237.27 123.03C237.27 123.03 265.53 119.05 277.35 111.44L270.29 98.57L273.44 90.11L272.27 80.93Z" fill="url(#paint0_linear_338_14716)"/>
<path d="M220.72 196.03C226.41 199.64 235.27 202.28 239.78 202.8L259.2 139.45L265.45 202.3C272.89 203.42 280.33 204.77 287.68 201.39C287.68 201.39 285.13 149.34 284.78 145.01C284.44 140.69 283.68 132.04 281.49 124.37C279.3 116.7 276.55 109.33 276.55 109.33C276.55 109.33 259.27 118.23 238.33 119.32C233.65 133.43 226.02 172.89 220.72 196.03Z" fill="#DFE3FF"/>
<path d="M272.27 80.9301C272.27 80.9301 277.1 80.4801 278.56 84.1401C280.02 87.8001 281.48 107.1 281.48 107.1C281.89 109.75 281.78 112.26 281.48 114.73L277.29 136.58C277.27 138.6 277.82 140.75 277.45 144.08C277.45 144.08 276.26 148.57 274.18 149.4C272.1 150.24 271.26 152.03 269.94 151.39C269.94 151.39 271.73 147.31 271.04 143C271.04 143 269.8 147.36 268.12 146.48C268.12 146.48 269.23 139.4 272.25 136.3C273.74 135.24 275.65 111.72 275.65 111.72L272.08 89.4301L272.28 80.9201L272.27 80.9301Z" fill="#929AFF"/>
<path d="M273.44 143.59C273.4 148.12 272.81 151.6 270.29 151.39" stroke="#22194D" stroke-width="0.71" stroke-linecap="round" stroke-linejoin="round"/>
<path d="M273.57 149.71C275 148.82 275.67 146.91 275.86 143.3" stroke="#22194D" stroke-width="0.71" stroke-linecap="round" stroke-linejoin="round"/>
<path d="M272.27 80.9301C272.27 80.9301 277.1 80.4801 278.56 84.1401C280.02 87.8001 281.48 107.1 281.48 107.1C281.89 109.75 281.78 112.26 281.48 114.73L280.67 118.95L274.3 118.31C274.68 114.42 274.92 111.43 274.92 111.43L271.35 89.1401L272.26 80.9401L272.27 80.9301Z" fill="url(#paint1_linear_338_14716)"/>
<path d="M271.36 89.1301L274.93 111.42L274.31 118.3L278.43 118.72" stroke="#22194D" stroke-width="0.71" stroke-linecap="round" stroke-linejoin="round"/>
<path d="M241.91 98.44C241.91 98.44 239.27 91.4 239.58 86.52" stroke="#22194D" stroke-width="0.36" stroke-linecap="round" stroke-linejoin="round"/>
<path d="M260.26 150.06L259.21 139.45L258.27 130.2" stroke="#22194D" stroke-width="0.71" stroke-linecap="round" stroke-linejoin="round"/>
<path d="M235.11 95.0501L236.4 97.0301C238.11 87.2301 238.37 77.5801 246.9 81.4001L247.27 90.8201C247.27 90.8201 242.96 101.1 240.73 106.51C239 110.24 233.66 110.66 231.87 106.61C231.51 105.79 230.9 104.47 230.17 102.88L235.11 95.0501Z" fill="url(#paint2_linear_338_14716)"/>
<path d="M237.14 92.4801L235.8 100.49" stroke="#22194D" stroke-width="0.71" stroke-linecap="round" stroke-linejoin="round"/>
<path d="M241.28 108.06C241.87 105.37 242.3 102.79 242.51 100.39C239.6 92.1101 240.94 87.4601 243.28 84.8701" stroke="#22194D" stroke-width="0.71" stroke-linecap="round" stroke-linejoin="round"/>
<path d="M221.1 76.3801L215.14 71.8601C213.95 73.8101 215.97 75.8301 219.22 77.8701L220.79 81.0501" stroke="#22194D" stroke-width="0.71" stroke-linecap="round" stroke-linejoin="round"/>
<path d="M221.7 75.4001L216.36 71.1901C215.92 71.8401 215.91 72.2201 216.02 72.5201" stroke="#22194D" stroke-width="0.71" stroke-linecap="round" stroke-linejoin="round"/>
<path d="M140.179 203.85C143.084 203.85 145.439 199.704 145.439 194.59C145.439 189.476 143.084 185.33 140.179 185.33C137.274 185.33 134.919 189.476 134.919 194.59C134.919 199.704 137.274 203.85 140.179 203.85Z" fill="#F1E7FF" stroke="#E6D4FF" stroke-width="0.71" stroke-linecap="round" stroke-linejoin="round"/>
<path d="M89.8999 203.85C102.752 203.85 113.17 185.516 113.17 162.9C113.17 140.284 102.752 121.95 89.8999 121.95C77.0482 121.95 66.6299 140.284 66.6299 162.9C66.6299 185.516 77.0482 203.85 89.8999 203.85Z" fill="#F1E7FF" stroke="#E6D4FF" stroke-width="0.71" stroke-linecap="round" stroke-linejoin="round"/>
<path d="M89.8999 162.9H102.74L130.18 194.59H140.18L99.4699 198.96" stroke="#E6D4FF" stroke-width="0.71" stroke-linecap="round" stroke-linejoin="round"/>
<path d="M32.4497 150.86H71.8497L112.46 146.49H75.9297L32.4497 150.86Z" fill="#E6D4FF" stroke="#E6D4FF" stroke-width="0.47" stroke-linecap="round" stroke-linejoin="round"/>
<path d="M121.71 168.29L126.13 181.77C132.4 190.25 141.17 181.13 143.94 190.06L118.75 194.12C118.75 194.12 117.32 190.46 119.21 185.65L114.04 170.14L121.7 168.29H121.71Z" fill="#AC6DFF"/>
<path d="M126.129 181.77C132.399 190.25 141.169 181.13 143.939 190.06L118.749 194.12C118.749 194.12 117.319 190.46 119.209 185.65C122.509 185.79 124.179 185.2 126.119 181.77H126.129Z" fill="#862EEF"/>
<path d="M129.96 183.6L128.26 187.58L131.62 184.44L130.21 187.67L133.01 184.92L132.33 187.33" stroke="#22194D" stroke-width="0.71" stroke-linecap="round" stroke-linejoin="round"/>
<path d="M101.75 173.62L103.97 187.63C108.81 197 118.92 189.39 120.24 198.65H94.7297C94.7297 198.65 93.8996 194.81 96.5296 190.36L93.8896 174.23L101.74 173.62H101.75Z" fill="#AC6DFF"/>
<path d="M103.98 187.63C108.82 197 118.93 189.39 120.25 198.65H94.7395C94.7395 198.65 93.9095 194.81 96.5395 190.36C99.7695 191.03 101.52 190.71 103.98 187.63Z" fill="#862EEF"/>
<path d="M107.469 190.05L105.149 193.71L108.969 191.15L107.059 194.11L110.269 191.84L109.209 194.11" stroke="#22194D" stroke-width="0.71" stroke-linecap="round" stroke-linejoin="round"/>
<path d="M75.9694 112.89C75.9694 112.89 65.6994 129.81 71.8594 140.47C78.0194 151.13 106.959 147.74 106.959 147.74L114.229 188.32C120.779 188.15 126.539 186.49 131.369 183.13C131.369 183.13 125.879 143.83 120.819 137.09C115.769 130.35 84.9094 126.45 84.9094 126.45C83.2594 122.26 80.9594 117.69 78.2294 112.87L75.9494 112.89H75.9694Z" fill="#611EAB"/>
<path d="M60.4598 112.87C60.4598 112.87 50.6698 129.81 56.8398 140.47C62.9998 151.13 91.9398 147.74 91.9398 147.74L90.4598 191.15C96.8998 192.5 103.03 192.29 108.97 191.15C108.97 191.15 110.86 143.83 105.81 137.09C100.76 130.35 78.4498 129.81 78.4498 129.81L75.9698 112.89L60.4698 112.87H60.4598Z" fill="#611EAB"/>
<path d="M74.3198 121.2L78.4498 129.81C78.4498 129.81 101.55 130.54 105.81 137.09C110.22 143.87 109.32 176.14 109.32 176.14" stroke="#22194D" stroke-width="0.71" stroke-linecap="round" stroke-linejoin="round"/>
<path d="M49.1797 208.22C62.0313 208.22 72.4497 189.886 72.4497 167.27C72.4497 144.654 62.0313 126.32 49.1797 126.32C36.328 126.32 25.9097 144.654 25.9097 167.27C25.9097 189.886 36.328 208.22 49.1797 208.22Z" fill="#F9F5FF" stroke="#E6D4FF" stroke-width="0.71" stroke-linecap="round" stroke-linejoin="round"/>
<path d="M99.4695 208.22C102.374 208.22 104.729 204.074 104.729 198.96C104.729 193.846 102.374 189.7 99.4695 189.7C96.5645 189.7 94.2095 193.846 94.2095 198.96C94.2095 204.074 96.5645 208.22 99.4695 208.22Z" fill="#F9F5FF" stroke="#E6D4FF" stroke-width="0.71" stroke-linecap="round" stroke-linejoin="round"/>
<path d="M49.1798 203.09C60.4243 203.09 69.5398 187.053 69.5398 167.27C69.5398 147.487 60.4243 131.45 49.1798 131.45C37.9353 131.45 28.8198 147.487 28.8198 167.27C28.8198 187.053 37.9353 203.09 49.1798 203.09Z" stroke="#E6D4FF" stroke-width="0.71" stroke-linecap="round" stroke-linejoin="round"/>
<path d="M49.1797 173.77C51.2177 173.77 52.8697 170.86 52.8697 167.27C52.8697 163.68 51.2177 160.77 49.1797 160.77C47.1418 160.77 45.4897 163.68 45.4897 167.27C45.4897 170.86 47.1418 173.77 49.1797 173.77Z" fill="#F9F5FF" stroke="#E6D4FF" stroke-width="0.71" stroke-linecap="round" stroke-linejoin="round"/>
<path d="M99.4694 205.21C101.43 205.21 103.019 202.412 103.019 198.96C103.019 195.508 101.43 192.71 99.4694 192.71C97.5088 192.71 95.9194 195.508 95.9194 198.96C95.9194 202.412 97.5088 205.21 99.4694 205.21Z" stroke="#E6D4FF" stroke-width="0.71" stroke-linecap="round" stroke-linejoin="round"/>
<path d="M49.1797 167.27H62.0197L89.4697 198.96H99.4697" stroke="#E6D4FF" stroke-width="0.71" stroke-linecap="round" stroke-linejoin="round"/>
<path d="M67.1901 75.86C66.9001 75.66 67.0801 75.21 67.4301 75.26C74.4501 76.27 80.5801 73.13 82.5301 68.28C84.0401 64.53 82.8401 60.28 80.7501 57.61C74.7101 49.9 61.9201 52.06 55.6901 58.3C50.5801 63.42 50.3401 72.16 55.7701 77.13C58.9001 80 63.1801 81.74 67.4101 81.98C72.3301 82.25 76.2101 80.22 78.3101 78.83C78.6001 78.63 78.4301 78.18 78.0801 78.23C75.4301 78.61 71.1601 78.61 67.1901 75.87V75.86Z" fill="#AC6DFF"/>
<path d="M66.1399 50.1601C66.4799 50.2601 66.4499 50.7401 66.0999 50.8101C61.4499 51.6401 56.9799 53.8501 53.9099 56.9401C52.9699 57.8901 52.1599 58.9401 51.5099 60.0701C51.3299 60.3801 50.8599 60.2301 50.8999 59.8701C51.4699 54.5901 54.2599 49.0101 54.2599 49.0101C54.2599 49.0101 61.2299 48.7901 66.1499 50.1701L66.1399 50.1601Z" fill="#AC6DFF"/>
<path d="M76.8896 85.67C76.8896 85.67 80.9496 84.7 83.9496 91.23C86.9496 97.77 95.3596 108 95.3596 108L116.3 92.07C116.3 92.07 119.6 88.84 125.32 89.76C125.32 89.76 125.88 91.41 122.05 91L130.5 90.26C130.69 90.59 130.65 90.92 130.37 91.25L131.01 91.14C131.43 91.9 131.28 92.4 130.7 92.72C130.62 94.37 125.66 95.63 123.67 95.99C121.68 96.35 120.69 96.43 118.32 95.83C114.22 97.39 99.6396 114.3 99.6396 114.3C99.6396 114.3 94.3996 119.29 90.0596 113.61C85.7196 107.93 77.1897 98.17 77.1897 98.17L76.9097 85.68L76.8896 85.67Z" fill="#AC6DFF"/>
<path d="M99.5694 104.83C99.5694 104.83 94.9494 108.21 93.1694 109.82" stroke="#22194D" stroke-width="0.71" stroke-linecap="round" stroke-linejoin="round"/>
<path d="M54.0795 124.52L48.3495 107.33L57.4995 95.0701L59.6795 87.5301C59.6795 87.5301 56.8195 85.6901 52.4395 89.2901C48.0595 92.8901 40.6695 102.84 40.4595 106.59C40.2495 110.34 48.4495 123.72 48.4495 123.72C48.4495 123.72 47.3495 124.41 46.5095 125.37C45.0495 127.17 45.4995 131.11 45.3595 131.29C46.8095 131.64 47.5895 129.81 48.0695 127.03L48.1895 131.25C49.8095 131.44 50.5195 129.45 50.7895 126.36L50.7295 131.04C52.5995 130.72 53.0295 129 52.9095 126.58L54.1895 127.05C55.0695 126.23 54.1095 124.52 54.1095 124.52H54.0795Z" fill="#AC6DFF"/>
<path d="M51.9094 123.59C51.9094 123.59 50.3194 123.01 48.4394 123.71C46.5594 124.41 45.5794 127.3 45.5794 127.3L45.3394 131.28C45.3394 131.28 46.4694 131.84 47.2694 129.89" stroke="#22194D" stroke-width="0.71" stroke-linecap="round" stroke-linejoin="round"/>
<path d="M48.0596 127.02L48.1796 131.24C50.0296 131.29 50.5396 129.06 50.7796 126.35L50.7196 131.03" stroke="#22194D" stroke-width="0.71" stroke-linecap="round" stroke-linejoin="round"/>
<path d="M52.8596 125.08C52.8596 125.08 52.9896 126.21 52.8296 128.38" stroke="#22194D" stroke-width="0.71" stroke-linecap="round" stroke-linejoin="round"/>
<path d="M49.6495 111.21L47.7095 105.51" stroke="#22194D" stroke-width="0.71" stroke-linecap="round" stroke-linejoin="round"/>
<path d="M92.5898 102.91L88.0298 95.93C83.0098 88.03 82.2298 85.07 76.8798 85.68C70.0398 87.36 67.0498 87.98 57.2898 86.57C57.2198 86.6 54.0398 86.11 50.9998 89.78C45.9198 94.92 42.0498 100.98 42.0498 100.98L50.5498 105.88L57.4998 97.94L60.4598 112.88H78.2398L79.4698 101.76C79.4998 101.81 84.7598 108.29 84.7598 108.29L92.5898 102.92V102.91Z" fill="url(#paint3_linear_338_14716)"/>
<path d="M78.4497 91.6901C80.8897 94.1701 79.7297 99.4701 79.7297 99.4701L79.0197 105.86" stroke="#22194D" stroke-width="0.71" stroke-linecap="round" stroke-linejoin="round"/>
<path d="M124.63 93.5001L130.69 92.2201C130.82 93.1301 130.15 93.8001 129.06 94.3401" stroke="#22194D" stroke-width="0.71" stroke-linecap="round" stroke-linejoin="round"/>
<path d="M125.31 92.07L130.99 91.13C131.46 91.82 131.21 92.35 130.71 92.83" stroke="#22194D" stroke-width="0.71" stroke-linecap="round" stroke-linejoin="round"/>
<path d="M130.35 91.24C130.61 90.98 130.68 90.66 130.48 90.25L121.11 91.17" stroke="#22194D" stroke-width="0.71" stroke-linecap="round" stroke-linejoin="round"/>
<path d="M183.61 131.06C191.17 132.29 195.79 137.16 199.23 141.63L184.78 138.9L183.61 131.06Z" fill="#EDF0FF"/>
<path d="M183.09 131.86C191.66 133.61 194.83 137.61 199.23 141.64L183.73 138.82L183.09 131.86Z" fill="white" stroke="#C5CBFF" stroke-width="0.71" stroke-linecap="round" stroke-linejoin="round"/>
<path d="M216.21 134.52C209.77 134.48 203.879 137.6 199.229 141.63L216.939 141.37L216.21 134.52Z" fill="#EDF0FF"/>
<path d="M217.639 137.32C210.549 136.94 203.969 139 199.229 141.64L217.579 141.43L217.639 137.32Z" fill="white" stroke="#C5CBFF" stroke-width="0.71" stroke-linecap="round" stroke-linejoin="round"/>
<path d="M218.169 141.47L217.91 140.61C213.35 139.43 206.869 140.96 199.229 141.64L218.16 141.48L218.169 141.47Z" fill="white" stroke="#C5CBFF" stroke-width="0.71" stroke-linecap="round" stroke-linejoin="round"/>
<path d="M181.82 134.29C192.89 133.79 194.58 139.17 199.24 141.63L183.1 138.76L181.83 134.28L181.82 134.29Z" fill="white" stroke="#C5CBFF" stroke-width="0.71" stroke-linecap="round" stroke-linejoin="round"/>
<path d="M180.55 138.57L180.61 137.73C186.08 136.88 192.64 140.17 199.23 141.63L180.55 138.57Z" fill="#EDF0FF"/>
<path d="M218.1 142.37L199.17 142.53L180.49 139.47C180.24 139.45 180.06 139.23 180.07 138.98C180.09 138.73 180.31 138.55 180.56 138.56L199.24 141.62L218.17 141.46C218.42 141.48 218.6 141.7 218.59 141.95C218.57 142.2 218.35 142.38 218.1 142.37Z" fill="#C5CBFF" stroke="#C5CBFF" stroke-width="0.38" stroke-linecap="round" stroke-linejoin="round"/>
<path d="M181.82 134.29L182.73 137.53" stroke="#C5CBFF" stroke-width="0.38" stroke-linecap="round" stroke-linejoin="round"/>
<path d="M124.54 88.1601C128.676 88.1601 132.03 84.8067 132.03 80.6701C132.03 76.5334 128.676 73.1801 124.54 73.1801C120.403 73.1801 117.05 76.5334 117.05 80.6701C117.05 84.8067 120.403 88.1601 124.54 88.1601Z" fill="#F9F5FF" stroke="#E6D4FF" stroke-width="0.71" stroke-linecap="round" stroke-linejoin="round"/>
<path d="M124.54 87.0001C128.036 87.0001 130.87 84.1661 130.87 80.6701C130.87 77.1741 128.036 74.3401 124.54 74.3401C121.044 74.3401 118.21 77.1741 118.21 80.6701C118.21 84.1661 121.044 87.0001 124.54 87.0001Z" fill="#F9F5FF" stroke="#E6D4FF" stroke-width="0.71" stroke-linecap="round" stroke-linejoin="round"/>
<path d="M123.22 84.84L123.38 83.92C121.85 83.48 121.12 82.56 121.36 81.21V81.15L122.84 81.41L122.81 81.59C122.7 82.2 122.96 82.5 124.3 82.73C125.48 82.94 125.78 82.81 125.86 82.37C125.93 81.97 125.73 81.78 125.07 81.54L123.27 80.95C122.12 80.56 121.53 79.84 121.72 78.77C121.88 77.87 122.72 77.03 124.56 77.2L124.72 76.3L126.09 76.54L125.92 77.48C127.32 77.97 127.85 78.93 127.64 80.11V80.17L126.15 79.91L126.17 79.77C126.28 79.14 126 78.82 124.7 78.59C123.64 78.4 123.28 78.55 123.21 78.97C123.14 79.35 123.33 79.53 123.87 79.72L125.66 80.34C127.09 80.84 127.49 81.65 127.34 82.55C127.19 83.45 126.37 84.24 124.75 84.15L124.59 85.07L123.22 84.83V84.84Z" fill="#F9F5FF" stroke="#E6D4FF" stroke-width="0.71" stroke-linecap="round" stroke-linejoin="round"/>
<defs>
<linearGradient id="paint0_linear_338_14716" x1="242.97" y1="81.52" x2="264.53" y2="118.88" gradientUnits="userSpaceOnUse">
<stop stop-color="#6A5EF6"/>
<stop offset="1" stop-color="#4E33CF"/>
</linearGradient>
<linearGradient id="paint1_linear_338_14716" x1="259.44" y1="71.7201" x2="281.19" y2="109.4" gradientUnits="userSpaceOnUse">
<stop stop-color="#6A5EF6"/>
<stop offset="1" stop-color="#4E33CF"/>
</linearGradient>
<linearGradient id="paint2_linear_338_14716" x1="235.29" y1="86.9301" x2="253.75" y2="118.91" gradientUnits="userSpaceOnUse">
<stop stop-color="#6A5EF6"/>
<stop offset="1" stop-color="#4E33CF"/>
</linearGradient>
<linearGradient id="paint3_linear_338_14716" x1="57.6498" y1="85.18" x2="74.7898" y2="114.87" gradientUnits="userSpaceOnUse">
<stop stop-color="#E6D4FF"/>
<stop offset="1" stop-color="#D3B2FF"/>
</linearGradient>
</defs>
</svg>
