<svg width="704" height="476" viewBox="0 0 704 476" fill="none" xmlns="http://www.w3.org/2000/svg">
<path d="M23.3398 444.91H93.4099H206.52H409.09H470.26H680.66" stroke="#C5CBFF" stroke-width="0.99" stroke-linecap="round" stroke-linejoin="round"/>
<path d="M634.19 16H69.8098C65.2258 16 61.5098 19.716 61.5098 24.3V256.69C61.5098 261.274 65.2258 264.99 69.8098 264.99H634.19C638.774 264.99 642.49 261.274 642.49 256.69V24.3C642.49 19.716 638.774 16 634.19 16Z" fill="white" stroke="#C5CBFF" stroke-width="0.99" stroke-linecap="round" stroke-linejoin="round"/>
<mask id="mask0_314_16380" style="mask-type:luminance" maskUnits="userSpaceOnUse" x="69" y="24" width="566" height="233">
<path d="M630.04 24.3H73.9601C71.6681 24.3 69.8101 26.1581 69.8101 28.4501V252.54C69.8101 254.832 71.6681 256.69 73.9601 256.69H630.04C632.332 256.69 634.19 254.832 634.19 252.54V28.4501C634.19 26.1581 632.332 24.3 630.04 24.3Z" fill="white"/>
</mask>
<g mask="url(#mask0_314_16380)">
<path d="M393.6 33.67C392.58 33.64 391.5 33.5 390.48 33.57C388.83 33.69 387.25 34.98 385.84 35.86C382.45 37.98 379.2 40.32 376 42.72C374.72 43.68 373.47 44.78 372.11 45.63C370.9 46.39 369.56 47.1 368.51 48.12C362.84 53.59 358.9 60.18 360.08 67.77C361.12 70.18 362.41 73.4 361.86 73.55C361.35 74.1 354.72 78.72 353.85 80.84" stroke="#C5CBFF" stroke-width="0.99" stroke-linecap="round" stroke-linejoin="round"/>
<path d="M418.66 67.5401C423.31 64.8501 426.88 61.0801 430.75 57.4401C432.09 56.1801 433.54 54.3101 433.73 52.4001C433.83 51.4001 433.42 50.3401 433.38 49.3201C433.34 48.1501 433.48 46.9801 433.79 45.8501C434.03 44.9801 434.37 44.1501 434.69 43.3101C435.55 41.0401 436.29 38.7001 436.74 36.3101" stroke="#C5CBFF" stroke-width="0.99" stroke-linecap="round" stroke-linejoin="round"/>
<path d="M356.54 124.19C354.94 119.18 354.58 115.44 354.58 112.96C354.58 110.48 355.76 107.25 354.35 104.91C353.53 103.55 351.95 102.7 351.38 101.22C350.64 99.3001 351.89 97.2301 353.13 95.5801C355.66 92.2301 358.4 89.0301 361.33 86.0301C361.8 85.5401 362.32 85.0501 362.97 84.8701C364.19 84.5401 365.43 85.4701 366.08 86.5601C366.73 87.6501 367.01 88.9201 367.68 90.0001C370.18 94.0801 376.34 93.4401 380.69 91.4401C384.93 89.4901 389.1 86.3401 390.16 81.8001C390.66 79.6501 390.42 77.3901 390.83 75.2201C391.24 73.0501 392.63 70.7801 394.82 70.4701C397.94 70.0301 400.17 73.6401 403.25 74.3001C405.49 74.7801 407.73 73.6201 409.73 72.4901C414.21 69.9701 418.7 67.4501 423.18 64.9301C424.81 64.0101 426.8 63.0801 428.46 63.9501C431.39 65.4801 430.07 70.7101 432.87 72.4701C434.54 73.5201 436.82 72.6601 438.2 71.2601C439.58 69.8601 440.43 68.0001 441.7 66.4901C445.67 61.7701 453.21 61.4501 458.69 64.2901C464.17 67.1301 467.96 72.3801 471.11 77.6901C472.33 79.7401 473.5 81.9101 473.76 84.2801C474.02 86.6501 473.15 89.3001 471.08 90.4901C470.18 91.0101 469.07 91.2601 468.4 92.0501C467.5 93.1101 467.72 94.7301 468.28 96.0101C469.21 98.1501 470.96 99.8701 473.05 100.89C474.85 101.77 476.9 102.14 478.88 101.83C476.58 111.16 470.71 119.57 462.75 124.96C461.09 126.08 459.29 127.13 458.19 128.8C457 130.62 456.82 132.89 456.72 135.06L456.54 151.41" stroke="#C5CBFF" stroke-width="0.99" stroke-linecap="round" stroke-linejoin="round"/>
<path d="M465.61 69.69C467 68.16 471.46 67.04 473.52 67.05C475.58 67.06 477.6 67.69 479.51 68.46C481.66 69.33 483.8 70.39 486.11 70.53C489.65 70.73 492.88 68.75 496.06 67.2C499.09 65.73 502.33 64.59 505.69 64.41C507.12 64.33 508.6 64.43 509.92 63.89C511.63 63.2 512.79 61.58 513.62 59.93C515.51 56.21 516.8 51.02 515.25 46.97C514.93 46.13 514.37 45.31 513.67 44.66C512.35 43.43 510.52 42.78 508.79 43.62C507.58 44.21 506.79 45.4 505.76 46.27C502.57 48.96 497.69 48.17 493.94 49.98C492.4 50.72 491.11 51.88 489.74 52.89C488.37 53.9 486.81 54.8 485.11 54.89C483.41 54.99 481.55 54.06 481.06 52.43C480.41 50.25 482.28 48.23 483.64 46.41C484.23 45.62 484.74 44.45 484.07 43.71C483.74 43.35 483.23 43.23 482.75 43.17C480.39 42.86 477.92 43.44 475.95 44.78C473.66 46.33 471.77 48.96 469 49.02C466.56 49.07 464.42 47 461.98 47.14C459.94 47.25 458.19 48.89 456.15 48.83C452.66 48.71 451.12 44 447.81 42.9C446.89 42.59 445.89 42.6 444.92 42.62C442.59 42.68 436.8 43.5 434.48 43.78" stroke="#C5CBFF" stroke-width="0.99" stroke-linecap="round" stroke-linejoin="round"/>
<path d="M478.85 101.83C481.11 99.63 485.02 94.09 486.72 91.46C488.16 90.86 489.98 90.26 491.15 89.17C492.46 87.95 490.8 86.39 489.78 85.66C488.81 84.97 487.89 84.23 486.96 83.49C486.6 83.2 486.23 82.9 485.86 82.61C484.35 81.42 482.77 80.3 481.07 79.4C479.33 78.48 475.72 77.08 475.72 77.08C475.72 77.08 470.31 75.36 470.21 76.24" stroke="#C5CBFF" stroke-width="0.99" stroke-linecap="round" stroke-linejoin="round"/>
<path d="M491.49 88.73C495.6 83.65 506.86 71.08 506.86 71.08C506.86 71.08 511.65 65.17 509.48 64.04" stroke="#C5CBFF" stroke-width="0.99" stroke-linecap="round" stroke-linejoin="round"/>
<path d="M360 87.41C359.02 86.4 355.66 83.31 354.71 82.26C352.11 79.42 352.12 74.88 349.54 72.01C346.83 69 343.38 67.48 346.5 63C347.67 61.33 349.29 59.99 350.31 58.23C351.62 55.98 352.68 50.39 348.34 51.43C347.51 51.63 346.72 51.99 345.88 52.06C341.5 52.45 337.06 43.49 335.16 40.39" stroke="#C5CBFF" stroke-width="0.99" stroke-linecap="round" stroke-linejoin="round"/>
<path d="M348.52 245.47C347.9 245.06 347.19 244.81 346.6 244.38C345.13 243.31 344.62 241.39 344.2 239.63C343.4 236.26 342.61 232.89 341.81 229.52C341.47 228.09 341.04 226.53 339.82 225.72C339 225.18 337.97 225.09 337 225.12C330.43 225.31 324.27 230.13 317.83 228.81C313.73 227.97 310.53 224.8 306.63 223.28C300.58 220.73 296.02 223.57 290.7 225.31" stroke="#C5CBFF" stroke-width="0.99" stroke-linecap="round" stroke-linejoin="round"/>
<path d="M356.67 151.31C363.73 148.1 359.53 142.04 357.67 138.2C357.08 136.97 356.33 135.77 356.2 134.41C356.04 132.75 356.84 131.16 357.4 129.59C358.08 127.69 358.31 125.56 356.53 124.18C356.08 123.83 355.58 123.58 355.05 123.4C354.25 123.12 353.38 122.99 352.52 122.94C344.43 122.41 336.87 127.23 328.77 127.68C325.73 127.85 322.31 127.2 320.51 124.74C319.41 123.23 318.53 120.91 316.67 121.1C314.25 121.35 314.21 125.61 311.84 126.18C310.44 126.51 309.19 125.31 308.28 124.19C306.36 121.83 302.88 117.44 300.45 117.44" stroke="#C5CBFF" stroke-width="0.99" stroke-linecap="round" stroke-linejoin="round"/>
<path d="M330.13 161.67C326.72 168.79 336.71 175.05 340.94 168.79C345.17 162.53 333.54 154.55 330.13 161.67Z" stroke="#C5CBFF" stroke-width="0.99" stroke-linecap="round" stroke-linejoin="round"/>
<path d="M430.22 196.62C432.69 195.5 435.78 193.67 435.43 186.86C435.07 180.06 435.88 179.95 437.99 177.25C439.95 174.75 442.97 172.58 443.01 169.41C443.1 161.48 431.79 163.53 427.08 163.48C426.27 163.48 425.39 163.38 424.8 162.83C424.23 162.31 424.06 161.5 423.78 160.78C422.99 158.8 421.18 157.37 419.24 156.47C417.3 155.57 415.2 155.09 413.18 154.41C406.8 152.25 400.59 147.88 393.97 149.17C392.97 149.37 391.87 149.68 390.97 149.2C389.19 148.26 389.92 145.58 388.73 144.12C387.54 142.66 385.25 141.95 383.36 142.17C380.66 142.48 378.32 144.1 376.11 145.67C371.67 148.82 366.1 154.57 360.65 155.64C359.76 155.81 358.73 155.83 358.07 155.21C357.31 154.5 357.13 152.68 356.68 151.33C356.17 149.81 355.33 148.88 352.94 150.81C351.8 151.74 351.03 153.09 349.82 153.91C348.82 154.59 347.53 154.91 346.79 155.87C344.98 158.23 348.05 161.77 346.92 164.52C346.06 166.61 343.35 167.06 341.54 168.4C339.39 169.98 338.57 173.13 339.66 175.56C340.73 177.94 343.38 180.4 341.96 182.59C341.35 183.52 340.15 183.95 339.6 184.91C338.82 186.28 339.68 187.95 340.18 189.45C341.8 194.37 338.49 200.31 333.46 201.53C330.38 202.27 327.16 201.42 323.99 201.28C319.2 201.06 314.49 202.45 309.9 203.83C304.85 205.35 299.66 206.94 295.53 210.23C291.4 213.52 287.66 223.36 290.71 225.33" stroke="#C5CBFF" stroke-width="0.99" stroke-linecap="round" stroke-linejoin="round"/>
<path d="M428.15 244.52C428.15 244.52 431.27 238.72 432.04 237.33C432.66 236.22 433.61 235.32 434.5 234.42C442.38 226.47 447.81 215.66 447.61 204.46C447.59 203.32 447.5 202.13 446.92 201.14C446.05 199.67 444.26 198.85 442.9 197.9C441.9 197.2 440.87 196.52 439.8 195.95C439.43 195.75 439.06 195.57 438.68 195.4C437.14 194.7 435.48 195.03 433.9 195.43C432.28 195.84 430.61 196.23 429.24 197.2C427.87 198.17 426.89 199.88 427.32 201.5C427.6 202.58 428.45 203.41 428.93 204.42C429.37 205.34 429.43 206.86 428.34 207.35C427.92 207.54 427.4 207.53 427.09 207.86C426.81 208.15 426.79 208.61 426.93 208.98C427.07 209.35 427.33 209.66 427.58 209.97C428.74 211.38 429.69 213.03 429.57 214.92C429.49 216.18 428.95 217.36 428.38 218.48C427.39 220.41 426.25 222.29 424.73 223.83C423.42 225.16 421.85 226.21 420.44 227.44C419.03 228.67 417.75 230.16 417.27 231.96L415.84 236.16" stroke="#C5CBFF" stroke-width="0.99" stroke-linecap="round" stroke-linejoin="round"/>
</g>
<path d="M630.04 24.3H73.9601C71.6681 24.3 69.8101 26.1581 69.8101 28.4501V252.54C69.8101 254.832 71.6681 256.69 73.9601 256.69H630.04C632.332 256.69 634.19 254.832 634.19 252.54V28.4501C634.19 26.1581 632.332 24.3 630.04 24.3Z" stroke="#C5CBFF" stroke-width="0.99" stroke-linecap="round" stroke-linejoin="round"/>
<path d="M111.09 444.37H37.2998L32.2798 427.84L37.9898 417.45L33.0698 401.2L29.4998 393.74L26.7998 376.26H100.59L102.89 393.74L106.36 401.2L110.89 417.45L105.66 427.84L111.09 444.37Z" fill="#DFE3FF"/>
<path d="M74.0798 383.84H34.1997C34.1997 383.84 24.0197 394.3 23.7397 404.06C23.7397 404.06 42.1397 388.58 74.0697 383.84H74.0798Z" fill="#DFE3FF" stroke="#C5CBFF" stroke-width="0.99" stroke-linecap="round" stroke-linejoin="round"/>
<path d="M89.1396 417.45H110.89C110.89 417.45 111.3 425.13 105.66 427.84C105.66 427.84 105.73 419.12 89.1396 417.45Z" fill="#DFE3FF" stroke="#C5CBFF" stroke-width="0.99" stroke-linecap="round" stroke-linejoin="round"/>
<path d="M32.2798 427.84H61.1098" stroke="#C5CBFF" stroke-width="0.99" stroke-linecap="round" stroke-linejoin="round"/>
<path d="M106.36 401.2H78.8198" stroke="#C5CBFF" stroke-width="0.99" stroke-linecap="round" stroke-linejoin="round"/>
<path d="M102.89 393.74H90.9497" stroke="#C5CBFF" stroke-width="0.99" stroke-linecap="round" stroke-linejoin="round"/>
<path d="M42.1499 417.45H64.8799" stroke="#C5CBFF" stroke-width="0.99" stroke-linecap="round" stroke-linejoin="round"/>
<path d="M383.48 376.26H457.27L462.29 359.72L456.58 349.33L461.5 333.09L465.08 325.62L467.77 308.14H393.98L391.68 325.62L388.21 333.09L383.68 349.33L388.92 359.72L383.48 376.26Z" fill="#DFE3FF"/>
<path d="M420.49 315.73H460.37C460.37 315.73 470.55 326.19 470.83 335.95C470.83 335.95 452.43 320.47 420.5 315.73H420.49Z" fill="#DFE3FF" stroke="#C5CBFF" stroke-width="0.99" stroke-linecap="round" stroke-linejoin="round"/>
<path d="M405.43 349.33H383.68C383.68 349.33 383.27 357.01 388.91 359.72C388.91 359.72 388.84 351 405.43 349.33Z" fill="#DFE3FF" stroke="#C5CBFF" stroke-width="0.99" stroke-linecap="round" stroke-linejoin="round"/>
<path d="M462.29 359.72H433.46" stroke="#C5CBFF" stroke-width="0.99" stroke-linecap="round" stroke-linejoin="round"/>
<path d="M388.21 333.09H415.75" stroke="#C5CBFF" stroke-width="0.99" stroke-linecap="round" stroke-linejoin="round"/>
<path d="M391.68 325.62H403.62" stroke="#C5CBFF" stroke-width="0.99" stroke-linecap="round" stroke-linejoin="round"/>
<path d="M452.42 349.33H429.69" stroke="#C5CBFF" stroke-width="0.99" stroke-linecap="round" stroke-linejoin="round"/>
<path d="M467.77 444.37H393.98L388.96 427.84L394.67 417.45L389.75 401.2L386.17 393.74L383.48 376.26H457.27L459.57 393.74L463.04 401.2L467.57 417.45L462.34 427.84L467.77 444.37Z" fill="#DFE3FF"/>
<path d="M445.82 417.45H467.57C467.57 417.45 467.98 425.13 462.34 427.84C462.34 427.84 462.41 419.12 445.82 417.45Z" fill="#DFE3FF" stroke="#C5CBFF" stroke-width="0.99" stroke-linecap="round" stroke-linejoin="round"/>
<path d="M388.96 427.84H417.79" stroke="#C5CBFF" stroke-width="0.99" stroke-linecap="round" stroke-linejoin="round"/>
<path d="M463.04 401.2H435.5" stroke="#C5CBFF" stroke-width="0.99" stroke-linecap="round" stroke-linejoin="round"/>
<path d="M459.57 393.74H447.63" stroke="#C5CBFF" stroke-width="0.99" stroke-linecap="round" stroke-linejoin="round"/>
<path d="M398.83 417.45H421.56" stroke="#C5CBFF" stroke-width="0.99" stroke-linecap="round" stroke-linejoin="round"/>
<path d="M412.95 384.94H384.91" stroke="#C5CBFF" stroke-width="0.99" stroke-linecap="round" stroke-linejoin="round"/>
<path d="M662.17 405.99H590.58V420.51H662.17V405.99Z" fill="#EDF0FF"/>
<path d="M662.17 402.88H590.59C589.728 402.88 589.03 403.576 589.03 404.435C589.03 405.294 589.728 405.99 590.59 405.99H662.17C663.031 405.99 663.73 405.294 663.73 404.435C663.73 403.576 663.031 402.88 662.17 402.88Z" fill="#EDF0FF" stroke="#C5CBFF" stroke-width="0.99" stroke-linecap="round" stroke-linejoin="round"/>
<path d="M662.17 420.51H590.59C589.728 420.51 589.03 421.206 589.03 422.065C589.03 422.924 589.728 423.62 590.59 423.62H662.17C663.031 423.62 663.73 422.924 663.73 422.065C663.73 421.206 663.031 420.51 662.17 420.51Z" fill="#EDF0FF" stroke="#C5CBFF" stroke-width="0.99" stroke-linecap="round" stroke-linejoin="round"/>
<path d="M590.58 409.08H641.08" stroke="#C5CBFF" stroke-width="0.99" stroke-linecap="round" stroke-linejoin="round"/>
<path d="M590.58 411.57H621.83" stroke="#C5CBFF" stroke-width="0.99" stroke-linecap="round" stroke-linejoin="round"/>
<path d="M621.24 415.03H662.14" stroke="#C5CBFF" stroke-width="0.99" stroke-linecap="round" stroke-linejoin="round"/>
<path d="M636.67 417.52H658.23" stroke="#C5CBFF" stroke-width="0.99" stroke-linecap="round" stroke-linejoin="round"/>
<path d="M603.57 426.74H666.57V441.26H603.57C599.69 441.26 596.54 438.11 596.54 434.23V433.77C596.54 429.89 599.69 426.74 603.57 426.74Z" fill="#EDF0FF"/>
<path d="M603.69 426.74H666.56C667.42 426.74 668.12 426.04 668.12 425.18C668.12 424.32 667.42 423.62 666.56 423.62H604.27C598.56 423.62 593.56 428.02 593.42 433.72C593.28 439.42 597.97 444.37 603.79 444.37H666.56C667.42 444.37 668.12 443.67 668.12 442.81C668.12 441.95 667.42 441.25 666.56 441.25H603.69C599.74 441.25 596.53 438.05 596.53 434.09V433.88C596.53 429.93 599.73 426.72 603.69 426.72V426.74Z" fill="#EDF0FF" stroke="#C5CBFF" stroke-width="0.99" stroke-linecap="round" stroke-linejoin="round"/>
<path d="M616.069 430.5H666.559" stroke="#C5CBFF" stroke-width="1.04" stroke-linecap="round" stroke-linejoin="round"/>
<path d="M606.59 432.99H637.84" stroke="#C5CBFF" stroke-width="0.99" stroke-linecap="round" stroke-linejoin="round"/>
<path d="M625.669 435.48H666.559" stroke="#C5CBFF" stroke-width="0.99" stroke-linecap="round" stroke-linejoin="round"/>
<path d="M641.1 437.97H662.66" stroke="#C5CBFF" stroke-width="0.99" stroke-linecap="round" stroke-linejoin="round"/>
<path d="M606.5 322.99H669.5V337.51H606.5C602.62 337.51 599.47 334.36 599.47 330.48V330.02C599.47 326.14 602.62 322.99 606.5 322.99Z" fill="#EDF0FF"/>
<path d="M606.62 322.99H669.49C670.35 322.99 671.05 322.29 671.05 321.43C671.05 320.57 670.35 319.87 669.49 319.87H607.2C601.49 319.87 596.49 324.27 596.35 329.97C596.21 335.67 600.9 340.62 606.72 340.62H669.49C670.35 340.62 671.05 339.92 671.05 339.06C671.05 338.2 670.35 337.5 669.49 337.5H606.62C602.67 337.5 599.46 334.3 599.46 330.34V330.13C599.46 326.18 602.66 322.97 606.62 322.97V322.99Z" fill="#EDF0FF" stroke="#C5CBFF" stroke-width="0.99" stroke-linecap="round" stroke-linejoin="round"/>
<path d="M619 326.75H669.49" stroke="#C5CBFF" stroke-width="0.99" stroke-linecap="round" stroke-linejoin="round"/>
<path d="M609.52 329.24H640.77" stroke="#C5CBFF" stroke-width="0.99" stroke-linecap="round" stroke-linejoin="round"/>
<path d="M628.6 331.73H669.49" stroke="#C5CBFF" stroke-width="0.99" stroke-linecap="round" stroke-linejoin="round"/>
<path d="M644.03 334.22H665.59" stroke="#C5CBFF" stroke-width="0.99" stroke-linecap="round" stroke-linejoin="round"/>
<path d="M656.51 358.26H593.51V343.74H656.51C660.39 343.74 663.54 346.89 663.54 350.77V351.23C663.54 355.11 660.39 358.26 656.51 358.26Z" fill="#EDF0FF"/>
<path d="M656.39 343.74H593.52C592.66 343.74 591.96 343.04 591.96 342.18C591.96 341.32 592.66 340.62 593.52 340.62H655.81C661.52 340.62 666.52 345.02 666.66 350.72C666.81 356.57 662.11 361.37 656.29 361.37H593.52C592.66 361.37 591.96 360.67 591.96 359.81C591.96 358.95 592.66 358.25 593.52 358.25H656.39C660.34 358.25 663.55 355.05 663.55 351.09V350.88C663.55 346.93 660.35 343.72 656.39 343.72V343.74Z" fill="#EDF0FF" stroke="#C5CBFF" stroke-width="0.99" stroke-linecap="round" stroke-linejoin="round"/>
<path d="M644 347.5H593.51" stroke="#C5CBFF" stroke-width="0.99" stroke-linecap="round" stroke-linejoin="round"/>
<path d="M653.49 349.99H622.24" stroke="#C5CBFF" stroke-width="0.99" stroke-linecap="round" stroke-linejoin="round"/>
<path d="M634.41 352.48H593.51" stroke="#C5CBFF" stroke-width="0.99" stroke-linecap="round" stroke-linejoin="round"/>
<path d="M618.98 354.97H597.42" stroke="#C5CBFF" stroke-width="0.99" stroke-linecap="round" stroke-linejoin="round"/>
<path d="M666.05 382.13H595.49C594.347 382.13 593.42 383.057 593.42 384.2V400.81C593.42 401.953 594.347 402.88 595.49 402.88H666.05C667.193 402.88 668.12 401.953 668.12 400.81V384.2C668.12 383.057 667.193 382.13 666.05 382.13Z" fill="#EDF0FF" stroke="#C5CBFF" stroke-width="0.99" stroke-linecap="round" stroke-linejoin="round"/>
<path d="M658.58 382.13H652.36V402.88H658.58V382.13Z" fill="#C5CBFF"/>
<path d="M598.42 382.12H668.98C670.123 382.12 671.05 381.193 671.05 380.05V363.44C671.05 362.297 670.123 361.37 668.98 361.37H598.42C597.277 361.37 596.35 362.297 596.35 363.44V380.05C596.35 381.193 597.277 382.12 598.42 382.12Z" fill="#EDF0FF" stroke="#C5CBFF" stroke-width="0.99" stroke-linecap="round" stroke-linejoin="round"/>
<path d="M605.889 382.12H612.109V361.37H605.889V382.12Z" fill="#C5CBFF"/>
<path d="M320.79 444.37H394.58L399.6 427.84L393.89 417.45L398.81 401.2L402.39 393.74L405.08 376.26H331.29L328.99 393.74L325.52 401.2L320.99 417.45L326.23 427.84L320.79 444.37Z" fill="#EDF0FF"/>
<path d="M342.74 417.45H320.99C320.99 417.45 320.58 425.13 326.22 427.84C326.22 427.84 326.15 419.12 342.74 417.45Z" fill="#EDF0FF" stroke="#C5CBFF" stroke-width="0.99" stroke-linecap="round" stroke-linejoin="round"/>
<path d="M399.6 427.84H370.77" stroke="#C5CBFF" stroke-width="0.99" stroke-linecap="round" stroke-linejoin="round"/>
<path d="M325.52 401.2H353.06" stroke="#C5CBFF" stroke-width="0.99" stroke-linecap="round" stroke-linejoin="round"/>
<path d="M328.99 393.74H340.93" stroke="#C5CBFF" stroke-width="0.99" stroke-linecap="round" stroke-linejoin="round"/>
<path d="M389.73 417.45H367" stroke="#C5CBFF" stroke-width="0.99" stroke-linecap="round" stroke-linejoin="round"/>
<path d="M375.61 384.94H403.65" stroke="#C5CBFF" stroke-width="0.99" stroke-linecap="round" stroke-linejoin="round"/>
<path d="M430.84 385.24H493.84V399.76H430.84C426.96 399.76 423.81 396.61 423.81 392.73V392.27C423.81 388.39 426.96 385.24 430.84 385.24Z" fill="#EDF0FF"/>
<path d="M430.97 385.24H493.84C494.7 385.24 495.4 384.54 495.4 383.68C495.4 382.82 494.7 382.12 493.84 382.12H431.55C425.84 382.12 420.84 386.52 420.7 392.22C420.55 398.07 425.25 402.87 431.07 402.87H493.84C494.7 402.87 495.4 402.17 495.4 401.31C495.4 400.45 494.7 399.75 493.84 399.75H430.97C427.02 399.75 423.81 396.55 423.81 392.59V392.38C423.81 388.43 427.01 385.22 430.97 385.22V385.24Z" fill="#EDF0FF" stroke="#C5CBFF" stroke-width="0.99" stroke-linecap="round" stroke-linejoin="round"/>
<path d="M443.35 389H493.84" stroke="#C5CBFF" stroke-width="0.99" stroke-linecap="round" stroke-linejoin="round"/>
<path d="M433.87 391.49H465.12" stroke="#C5CBFF" stroke-width="0.99" stroke-linecap="round" stroke-linejoin="round"/>
<path d="M452.94 393.98H493.84" stroke="#C5CBFF" stroke-width="0.99" stroke-linecap="round" stroke-linejoin="round"/>
<path d="M468.37 396.47H489.94" stroke="#C5CBFF" stroke-width="0.99" stroke-linecap="round" stroke-linejoin="round"/>
<path d="M480.86 420.51H417.86V405.99H480.86C484.74 405.99 487.89 409.14 487.89 413.02V413.48C487.89 417.36 484.74 420.51 480.86 420.51Z" fill="#EDF0FF"/>
<path d="M480.73 405.99H417.86C417 405.99 416.3 405.29 416.3 404.43C416.3 403.57 417 402.87 417.86 402.87H480.15C485.86 402.87 490.86 407.27 491 412.97C491.15 418.82 486.45 423.62 480.63 423.62H417.86C417 423.62 416.3 422.92 416.3 422.06C416.3 421.2 417 420.5 417.86 420.5H480.73C484.68 420.5 487.89 417.3 487.89 413.34V413.13C487.89 409.18 484.69 405.97 480.73 405.97V405.99Z" fill="#EDF0FF" stroke="#C5CBFF" stroke-width="0.99" stroke-linecap="round" stroke-linejoin="round"/>
<path d="M468.35 409.75H417.86" stroke="#C5CBFF" stroke-width="0.99" stroke-linecap="round" stroke-linejoin="round"/>
<path d="M477.83 412.24H446.58" stroke="#C5CBFF" stroke-width="0.99" stroke-linecap="round" stroke-linejoin="round"/>
<path d="M458.76 414.73H417.86" stroke="#C5CBFF" stroke-width="0.99" stroke-linecap="round" stroke-linejoin="round"/>
<path d="M443.33 417.22H421.76" stroke="#C5CBFF" stroke-width="0.99" stroke-linecap="round" stroke-linejoin="round"/>
<path d="M422.77 444.38H493.33C494.473 444.38 495.4 443.453 495.4 442.31V425.7C495.4 424.557 494.473 423.63 493.33 423.63H422.77C421.627 423.63 420.7 424.557 420.7 425.7V442.31C420.7 443.453 421.627 444.38 422.77 444.38Z" fill="#EDF0FF" stroke="#C5CBFF" stroke-width="0.99" stroke-linecap="round" stroke-linejoin="round"/>
<path d="M430.239 444.38H436.459V423.63H430.239V444.38Z" fill="#C5CBFF"/>
<path d="M427.909 364.49H490.909V379.01H427.909C424.029 379.01 420.879 375.86 420.879 371.98V371.52C420.879 367.64 424.029 364.49 427.909 364.49Z" fill="#EDF0FF"/>
<path d="M428.04 364.49H490.91C491.77 364.49 492.47 363.79 492.47 362.93C492.47 362.07 491.77 361.37 490.91 361.37H428.62C422.91 361.37 417.91 365.77 417.77 371.47C417.62 377.32 422.32 382.12 428.14 382.12H490.91C491.77 382.12 492.47 381.42 492.47 380.56C492.47 379.7 491.77 379 490.91 379H428.04C424.09 379 420.88 375.8 420.88 371.84V371.63C420.88 367.68 424.08 364.47 428.04 364.47V364.49Z" fill="#EDF0FF" stroke="#C5CBFF" stroke-width="0.99" stroke-linecap="round" stroke-linejoin="round"/>
<path d="M440.419 368.25H490.909" stroke="#C5CBFF" stroke-width="0.99" stroke-linecap="round" stroke-linejoin="round"/>
<path d="M430.939 370.74H462.189" stroke="#C5CBFF" stroke-width="0.99" stroke-linecap="round" stroke-linejoin="round"/>
<path d="M450.01 373.23H490.91" stroke="#C5CBFF" stroke-width="0.99" stroke-linecap="round" stroke-linejoin="round"/>
<path d="M465.439 375.72H487.009" stroke="#C5CBFF" stroke-width="0.99" stroke-linecap="round" stroke-linejoin="round"/>
<path d="M473.84 168.89L476.67 164.95L461.35 152.61L456.32 151.18L458.35 156.11L473.84 168.89Z" fill="#402CA7" stroke="#22194D" stroke-width="0.99" stroke-linecap="round" stroke-linejoin="round"/>
<path d="M560.57 112.17C561.21 112.61 560.82 113.61 560.04 113.5C544.5 111.27 530.92 118.22 526.59 128.97C523.25 137.27 525.9 146.69 530.53 152.6C543.9 169.67 572.24 164.89 586.03 151.06C597.34 139.72 597.87 120.35 585.86 109.34C578.93 102.99 569.44 99.12 560.07 98.61C549.18 98.02 540.58 102.5 535.93 105.6C535.28 106.03 535.67 107.04 536.44 106.93C542.31 106.1 551.76 106.1 560.57 112.17Z" fill="#929AFF"/>
<path d="M503.46 390.23L488.71 419.97C477.1 440.73 452.86 423.87 449.7 444.38H510.88C510.88 444.38 512.88 435.88 506.56 426.02L522.3 391.58L503.47 390.23H503.46Z" fill="#929AFF"/>
<path d="M488.71 419.97C477.1 440.73 452.86 423.87 449.7 444.38H510.88C510.88 444.38 512.88 435.88 506.56 426.02C498.81 427.49 494.61 426.79 488.71 419.97Z" fill="#402CA7"/>
<path d="M480.98 424.17L486.11 432.27L477.65 426.6L481.88 433.17L474.78 428.13L477.11 433.17" stroke="#22194D" stroke-width="0.99" stroke-linecap="round" stroke-linejoin="round"/>
<path d="M589.81 407.6C589.81 407.6 586.02 415.87 586.02 419.79C586.02 423.71 596.07 435.71 596.07 435.71C596.07 435.71 598.78 456.21 603.94 459.04C609.1 461.87 622.31 458.77 617.3 444.88C617.3 444.88 611.43 434.29 610.6 425.99L606.36 408.05L604.05 297.03L580.4 298.38L589.81 407.6Z" fill="#929AFF"/>
<path d="M589.81 407.6C589.81 407.6 586.02 415.87 586.02 419.79C586.02 423.71 596.07 435.71 596.07 435.71C596.07 435.71 598.78 456.21 603.94 459.04C609.1 461.87 622.31 458.77 617.3 444.88C617.3 444.88 611.43 434.28 610.6 425.99C603.93 427.32 597.01 421.35 589.81 407.6Z" fill="#402CA7"/>
<path d="M607.24 432.95L614.53 431.51L608.5 436.37L615.07 435.2L610.3 438.89H615.07" stroke="#22194D" stroke-width="0.99" stroke-linecap="round" stroke-linejoin="round"/>
<path d="M482.9 181.8L473.07 174.11L466.09 166.16C467.85 163.26 472.24 165.01 476.05 168.37L474.32 164.86C464.08 159.22 463.44 153.66 465.28 151.55L473.78 157.49C473.78 157.49 465.18 154.83 467.82 150.24L478.01 156.23C478.01 156.23 467.45 154.99 470.47 149.4L486.31 160.38C486.31 160.38 491.62 168.28 491.96 176.09L512.4 207.3C516.19 185.6 516.76 164.21 535.65 172.67L536.47 193.54C536.47 193.54 526.92 216.31 521.98 228.3C518.15 236.57 507.69 235.46 503.72 226.49C499.75 217.52 482.9 181.8 482.9 181.8Z" fill="#929AFF"/>
<path d="M591.84 171.64C591.84 171.64 569.49 174.7 556.27 174.7C543.05 174.7 529.32 171.57 529.32 171.57L522.54 175.78C522.54 175.78 518.97 180.74 519.2 187.64C519.42 194.53 525.91 214.77 525.91 214.77C524.43 233.25 514.31 264.9 514.31 264.9C514.31 264.9 576.91 256.09 603.08 239.23L587.44 210.72L594.41 191.97L591.82 171.64H591.84Z" fill="url(#paint0_linear_314_16380)"/>
<path d="M477.65 426.6C490.25 434.6 509.88 440.44 519.87 441.6L562.89 301.27L576.72 440.49C593.2 442.98 609.69 445.97 625.96 438.47C625.96 438.47 620.3 323.16 619.54 313.59C618.78 304.01 617.11 284.86 612.26 267.86C607.4 250.86 601.33 234.54 601.33 234.54C601.33 234.54 563.06 254.25 516.67 256.66C506.3 287.91 489.41 375.33 477.65 426.59V426.6Z" fill="#DFE3FF"/>
<path d="M591.84 171.64C591.84 171.64 602.54 170.65 605.78 178.74C609.02 186.83 612.25 229.6 612.25 229.6C613.16 235.47 612.9 241.04 612.25 246.51L602.96 294.91C602.91 299.39 604.13 304.14 603.31 311.52C603.31 311.52 600.68 321.46 596.06 323.31C591.44 325.16 589.58 329.13 586.66 327.73C586.66 327.73 590.63 318.69 589.09 309.15C589.09 309.15 586.35 318.81 582.62 316.86C582.62 316.86 585.09 301.19 591.77 294.31C595.07 291.96 599.3 239.86 599.3 239.86L591.39 190.49L591.84 171.65V171.64Z" fill="#929AFF"/>
<path d="M594.42 310.44C594.34 320.47 593.03 328.18 587.45 327.72" stroke="#22194D" stroke-width="0.99" stroke-linecap="round" stroke-linejoin="round"/>
<path d="M594.709 323.99C597.869 322.02 599.349 317.79 599.789 309.78" stroke="#22194D" stroke-width="0.99" stroke-linecap="round" stroke-linejoin="round"/>
<path d="M591.84 171.64C591.84 171.64 602.54 170.65 605.78 178.74C609.02 186.83 612.25 229.6 612.25 229.6C613.16 235.47 612.9 241.04 612.25 246.51L610.46 255.85L596.36 254.43C597.2 245.8 597.74 239.18 597.74 239.18L589.83 189.81L591.85 171.64H591.84Z" fill="url(#paint1_linear_314_16380)"/>
<path d="M589.82 189.8L597.73 239.18L596.36 254.42L605.48 255.34" stroke="#22194D" stroke-width="0.99" stroke-linecap="round" stroke-linejoin="round"/>
<path d="M524.58 210.43C524.58 210.43 518.74 194.84 519.43 184.03" stroke="#22194D" stroke-width="0.8" stroke-linecap="round" stroke-linejoin="round"/>
<path d="M565.23 324.77L562.89 301.28L560.82 280.77" stroke="#22194D" stroke-width="0.99" stroke-linecap="round" stroke-linejoin="round"/>
<path d="M509.52 202.92L512.39 207.3C516.18 185.6 516.75 164.21 535.64 172.67L536.46 193.54C536.46 193.54 526.91 216.31 521.97 228.3C518.14 236.57 506.32 237.49 502.35 228.52C501.54 226.7 500.21 223.77 498.59 220.26L509.53 202.92H509.52Z" fill="url(#paint2_linear_314_16380)"/>
<path d="M514.01 197.23L511.04 214.96" stroke="#22194D" stroke-width="0.99" stroke-linecap="round" stroke-linejoin="round"/>
<path d="M523.19 231.75C524.49 225.79 525.45 220.08 525.92 214.77C519.47 196.43 522.44 186.13 527.63 180.39" stroke="#22194D" stroke-width="0.99" stroke-linecap="round" stroke-linejoin="round"/>
<path d="M478.48 161.56L465.28 151.56C462.64 155.89 467.13 160.35 474.32 164.87L477.8 171.91" stroke="#22194D" stroke-width="0.99" stroke-linecap="round" stroke-linejoin="round"/>
<path d="M479.81 159.4L467.99 150.08C467.01 151.53 466.99 152.36 467.23 153.03" stroke="#22194D" stroke-width="0.99" stroke-linecap="round" stroke-linejoin="round"/>
<path d="M299.23 443.93C305.664 443.93 310.88 434.747 310.88 423.42C310.88 412.093 305.664 402.91 299.23 402.91C292.795 402.91 287.58 412.093 287.58 423.42C287.58 434.747 292.795 443.93 299.23 443.93Z" fill="#F1E7FF" stroke="#E6D4FF" stroke-width="0.99" stroke-linecap="round" stroke-linejoin="round"/>
<path d="M187.85 443.93C216.32 443.93 239.4 403.313 239.4 353.21C239.4 303.107 216.32 262.49 187.85 262.49C159.38 262.49 136.3 303.107 136.3 353.21C136.3 403.313 159.38 443.93 187.85 443.93Z" fill="#F1E7FF" stroke="#E6D4FF" stroke-width="0.99" stroke-linecap="round" stroke-linejoin="round"/>
<path d="M187.85 353.21H216.29L277.08 423.42H299.23L209.05 433.1" stroke="#E6D4FF" stroke-width="0.99" stroke-linecap="round" stroke-linejoin="round"/>
<path d="M60.6099 326.54H147.88L237.83 316.86H156.92L60.6099 326.54Z" fill="#E6D4FF" stroke="#E6D4FF" stroke-width="1.04" stroke-linecap="round" stroke-linejoin="round"/>
<path d="M258.31 365.15L268.11 395.01C282 413.8 301.42 393.59 307.57 413.37L251.78 422.36C251.78 422.36 248.61 414.26 252.8 403.6L241.35 369.25L258.31 365.15Z" fill="#AC6DFF"/>
<path d="M268.11 395.01C282 413.8 301.42 393.59 307.57 413.37L251.78 422.36C251.78 422.36 248.61 414.26 252.8 403.6C260.1 403.92 263.82 402.61 268.11 395V395.01Z" fill="#862EEF"/>
<path d="M276.6 399.07L272.83 407.88L280.27 400.94L277.15 408.09L283.36 401.99L281.85 407.33" stroke="#22194D" stroke-width="0.99" stroke-linecap="round" stroke-linejoin="round"/>
<path d="M214.109 376.97L219.039 408.01C229.759 428.77 252.149 411.91 255.069 432.42H198.559C198.559 432.42 196.719 423.92 202.549 414.06L196.709 378.32L214.109 376.97Z" fill="#AC6DFF"/>
<path d="M219.04 408.01C229.76 428.77 252.15 411.91 255.07 432.42H198.56C198.56 432.42 196.72 423.92 202.55 414.06C209.71 415.53 213.59 414.83 219.04 408.01Z" fill="#862EEF"/>
<path d="M226.769 413.37L221.649 421.46L230.099 415.8L225.869 422.36L232.979 417.32L230.639 422.36" stroke="#22194D" stroke-width="0.99" stroke-linecap="round" stroke-linejoin="round"/>
<path d="M156.99 242.44C156.99 242.44 134.25 279.92 147.89 303.54C161.54 327.16 225.65 319.64 225.65 319.64L241.76 409.53C256.27 409.15 269.02 405.48 279.73 398.03C279.73 398.03 267.56 310.97 256.37 296.04C245.18 281.11 176.83 272.48 176.83 272.48C173.17 263.2 168.08 253.07 162.04 242.39L156.99 242.43V242.44Z" fill="#611EAB"/>
<path d="M122.65 242.4C122.65 242.4 100.97 279.93 114.62 303.55C128.27 327.17 192.38 319.65 192.38 319.65L189.089 415.8C203.359 418.79 216.939 418.33 230.1 415.8C230.1 415.8 234.289 310.98 223.089 296.05C211.899 281.12 162.49 279.92 162.49 279.92L156.99 242.45L122.65 242.41V242.4Z" fill="#611EAB"/>
<path d="M153.35 260.84L162.49 279.92C162.49 279.92 213.65 281.53 223.09 296.05C232.85 311.07 230.86 382.56 230.86 382.56" stroke="#22194D" stroke-width="0.99" stroke-linecap="round" stroke-linejoin="round"/>
<path d="M97.6696 453.61C126.14 453.61 149.22 412.993 149.22 362.89C149.22 312.787 126.14 272.17 97.6696 272.17C69.1993 272.17 46.1196 312.787 46.1196 362.89C46.1196 412.993 69.1993 453.61 97.6696 453.61Z" fill="#F9F5FF" stroke="#E6D4FF" stroke-width="0.99" stroke-linecap="round" stroke-linejoin="round"/>
<path d="M209.049 453.61C215.484 453.61 220.699 444.427 220.699 433.1C220.699 421.773 215.484 412.59 209.049 412.59C202.615 412.59 197.399 421.773 197.399 433.1C197.399 444.427 202.615 453.61 209.049 453.61Z" fill="#F9F5FF" stroke="#E6D4FF" stroke-width="0.99" stroke-linecap="round" stroke-linejoin="round"/>
<path d="M97.6696 442.24C122.572 442.24 142.76 406.714 142.76 362.89C142.76 319.066 122.572 283.54 97.6696 283.54C72.7671 283.54 52.5796 319.066 52.5796 362.89C52.5796 406.714 72.7671 442.24 97.6696 442.24Z" stroke="#E6D4FF" stroke-width="0.99" stroke-linecap="round" stroke-linejoin="round"/>
<path d="M97.6697 377.29C102.187 377.29 105.85 370.843 105.85 362.89C105.85 354.937 102.187 348.49 97.6697 348.49C93.1521 348.49 89.4897 354.937 89.4897 362.89C89.4897 370.843 93.1521 377.29 97.6697 377.29Z" fill="#F9F5FF" stroke="#E6D4FF" stroke-width="0.99" stroke-linecap="round" stroke-linejoin="round"/>
<path d="M209.05 446.95C213.396 446.95 216.92 440.749 216.92 433.1C216.92 425.451 213.396 419.25 209.05 419.25C204.703 419.25 201.18 425.451 201.18 433.1C201.18 440.749 204.703 446.95 209.05 446.95Z" stroke="#E6D4FF" stroke-width="0.99" stroke-linecap="round" stroke-linejoin="round"/>
<path d="M97.6694 362.89H126.109L186.899 433.1H209.049" stroke="#E6D4FF" stroke-width="0.99" stroke-linecap="round" stroke-linejoin="round"/>
<path d="M137.559 160.42C136.919 159.98 137.309 158.98 138.089 159.09C153.629 161.32 167.209 154.37 171.539 143.62C174.879 135.32 172.229 125.9 167.599 119.99C154.229 102.92 125.889 107.7 112.099 121.53C100.789 132.87 100.259 152.24 112.269 163.25C119.199 169.6 128.689 173.47 138.059 173.98C148.949 174.57 157.549 170.09 162.199 166.99C162.849 166.56 162.459 165.55 161.689 165.66C155.819 166.49 146.369 166.49 137.559 160.42Z" fill="#AC6DFF"/>
<path d="M135.229 103.48C135.989 103.69 135.919 104.77 135.139 104.91C124.839 106.74 114.939 111.65 108.129 118.49C106.039 120.59 104.259 122.93 102.819 125.42C102.429 126.1 101.379 125.77 101.459 124.98C102.729 113.29 108.889 100.91 108.889 100.91C108.889 100.91 124.329 100.43 135.219 103.47L135.229 103.48Z" fill="#AC6DFF"/>
<path d="M159.03 182.14C159.03 182.14 168.02 179.98 174.68 194.46C181.33 208.94 199.95 231.6 199.95 231.6L246.33 196.31C246.33 196.31 253.65 189.16 266.31 191.19C266.31 191.19 267.56 194.85 259.06 193.93L277.77 192.29C278.19 193.02 278.09 193.75 277.47 194.48L278.89 194.24C279.82 195.92 279.48 197.04 278.19 197.74C278.01 201.4 267.02 204.18 262.63 204.98C258.24 205.78 256.03 205.96 250.78 204.62C241.7 208.08 209.4 245.54 209.4 245.54C209.4 245.54 197.8 256.6 188.18 244.01C178.56 231.42 159.67 209.8 159.67 209.8L159.04 182.14H159.03Z" fill="#AC6DFF"/>
<path d="M209.29 224.59C209.29 224.59 199.06 232.08 195.11 235.65" stroke="#22194D" stroke-width="0.99" stroke-linecap="round" stroke-linejoin="round"/>
<path d="M108.519 268.19L95.8194 230.12L116.089 202.96L120.909 186.26C120.909 186.26 114.569 182.18 104.869 190.15C95.1694 198.12 78.7894 220.17 78.3294 228.47C77.8694 236.77 96.0294 266.41 96.0294 266.41C96.0294 266.41 93.5894 267.94 91.7194 270.06C88.4794 274.04 89.4794 282.78 89.1594 283.18C92.3594 283.95 94.0894 279.91 95.1594 273.74L95.4094 283.09C98.9894 283.51 100.579 279.11 101.159 272.27L101.019 282.64C105.169 281.92 106.109 278.11 105.849 272.77L108.679 273.81C110.639 271.99 108.499 268.2 108.499 268.2L108.519 268.19Z" fill="#AC6DFF"/>
<path d="M103.709 266.14C103.709 266.14 100.189 264.85 96.0294 266.41C91.8694 267.97 89.6994 274.36 89.6994 274.36L89.1694 283.18C89.1694 283.18 91.6794 284.42 93.4494 280.09" stroke="#22194D" stroke-width="0.99" stroke-linecap="round" stroke-linejoin="round"/>
<path d="M95.1694 273.74L95.4194 283.09C99.5194 283.21 100.659 278.27 101.169 272.27L101.029 282.64" stroke="#22194D" stroke-width="0.99" stroke-linecap="round" stroke-linejoin="round"/>
<path d="M105.799 269.45C105.799 269.45 106.079 271.95 105.739 276.77" stroke="#22194D" stroke-width="0.99" stroke-linecap="round" stroke-linejoin="round"/>
<path d="M98.6992 238.73L94.4092 226.1" stroke="#22194D" stroke-width="0.99" stroke-linecap="round" stroke-linejoin="round"/>
<path d="M193.829 220.32L183.729 204.85C172.609 187.35 170.889 180.79 159.029 182.14C143.869 185.87 137.249 187.24 115.639 184.12C115.479 184.18 108.439 183.09 101.699 191.22C90.4494 202.62 81.8794 216.03 81.8794 216.03L100.699 226.88L116.089 209.3L122.649 242.4H162.039L164.769 217.76C164.839 217.88 176.489 232.22 176.489 232.22L193.819 220.32H193.829Z" fill="url(#paint3_linear_314_16380)"/>
<path d="M162.49 195.48C167.89 200.97 165.32 212.72 165.32 212.72L163.75 226.87" stroke="#22194D" stroke-width="0.99" stroke-linecap="round" stroke-linejoin="round"/>
<path d="M264.79 199.5L278.2 196.66C278.49 198.68 277.01 200.15 274.58 201.35" stroke="#22194D" stroke-width="0.99" stroke-linecap="round" stroke-linejoin="round"/>
<path d="M266.3 196.32L278.88 194.24C279.91 195.77 279.37 196.95 278.27 198" stroke="#22194D" stroke-width="0.99" stroke-linecap="round" stroke-linejoin="round"/>
<path d="M277.46 194.47C278.03 193.9 278.2 193.19 277.76 192.28L257 194.32" stroke="#22194D" stroke-width="0.99" stroke-linecap="round" stroke-linejoin="round"/>
<path d="M395.44 282.69C412.18 285.41 422.42 296.19 430.04 306.11L398.03 300.05L395.44 282.69Z" fill="#EDF0FF"/>
<path d="M394.28 284.45C413.27 288.33 420.28 297.19 430.04 306.11L395.7 299.87L394.28 284.45Z" fill="white" stroke="#C5CBFF" stroke-width="0.99" stroke-linecap="round" stroke-linejoin="round"/>
<path d="M467.65 290.35C453.38 290.27 440.34 297.16 430.05 306.11L469.28 305.54L467.65 290.36V290.35Z" fill="#EDF0FF"/>
<path d="M470.83 296.55C455.12 295.71 440.56 300.27 430.05 306.11L470.71 305.65L470.84 296.55H470.83Z" fill="white" stroke="#C5CBFF" stroke-width="0.99" stroke-linecap="round" stroke-linejoin="round"/>
<path d="M471.98 305.74L471.41 303.83C461.31 301.22 446.95 304.6 430.04 306.1L471.98 305.73V305.74Z" fill="white" stroke="#C5CBFF" stroke-width="0.99" stroke-linecap="round" stroke-linejoin="round"/>
<path d="M391.46 289.84C415.98 288.73 419.73 300.66 430.04 306.11L394.28 299.76L391.46 289.84Z" fill="white" stroke="#C5CBFF" stroke-width="0.99" stroke-linecap="round" stroke-linejoin="round"/>
<path d="M388.65 299.33L388.79 297.48C400.91 295.59 415.45 302.87 430.04 306.11L388.65 299.33Z" fill="#EDF0FF"/>
<path d="M471.83 307.74L429.89 308.11L388.5 301.33C387.95 301.29 387.54 300.81 387.58 300.26C387.62 299.71 388.1 299.3 388.65 299.34L430.04 306.12L471.98 305.75C472.53 305.79 472.94 306.27 472.9 306.82C472.86 307.37 472.38 307.78 471.83 307.74Z" fill="#C5CBFF" stroke="#C5CBFF" stroke-width="0.85" stroke-linecap="round" stroke-linejoin="round"/>
<path d="M391.46 289.84L393.5 297.01" stroke="#C5CBFF" stroke-width="0.85" stroke-linecap="round" stroke-linejoin="round"/>
<path d="M264.59 187.67C273.758 187.67 281.19 180.238 281.19 171.07C281.19 161.902 273.758 154.47 264.59 154.47C255.422 154.47 247.99 161.902 247.99 171.07C247.99 180.238 255.422 187.67 264.59 187.67Z" fill="#F9F5FF" stroke="#E6D4FF" stroke-width="0.99" stroke-linecap="round" stroke-linejoin="round"/>
<path d="M264.59 185.09C272.333 185.09 278.61 178.813 278.61 171.07C278.61 163.327 272.333 157.05 264.59 157.05C256.847 157.05 250.57 163.327 250.57 171.07C250.57 178.813 256.847 185.09 264.59 185.09Z" fill="#F9F5FF" stroke="#E6D4FF" stroke-width="0.99" stroke-linecap="round" stroke-linejoin="round"/>
<path d="M261.67 180.31L262.03 178.27C258.64 177.29 257.02 175.26 257.55 172.28L257.57 172.15L260.83 172.73L260.76 173.12C260.52 174.47 261.1 175.13 264.06 175.65C266.67 176.11 267.35 175.83 267.52 174.85C267.68 173.96 267.23 173.54 265.78 173.02L261.8 171.71C259.26 170.84 257.95 169.26 258.37 166.89C258.72 164.89 260.6 163.04 264.66 163.4L265.01 161.4L268.05 161.94L267.68 164.03C270.78 165.12 271.96 167.25 271.5 169.86L271.48 169.99L268.2 169.41L268.25 169.11C268.5 167.72 267.88 167 264.99 166.49C262.64 166.08 261.84 166.41 261.68 167.34C261.53 168.19 261.96 168.58 263.13 169.01L267.1 170.38C270.27 171.48 271.16 173.27 270.81 175.27C270.44 177.36 268.67 179.02 265.07 178.81L264.71 180.85L261.67 180.31Z" fill="#F9F5FF" stroke="#E6D4FF" stroke-width="0.99" stroke-linecap="round" stroke-linejoin="round"/>
<defs>
<linearGradient id="paint0_linear_314_16380" x1="526.92" y1="172.96" x2="574.69" y2="255.7" gradientUnits="userSpaceOnUse">
<stop stop-color="#6A5EF6"/>
<stop offset="1" stop-color="#4E33CF"/>
</linearGradient>
<linearGradient id="paint1_linear_314_16380" x1="563.4" y1="151.24" x2="611.59" y2="234.7" gradientUnits="userSpaceOnUse">
<stop stop-color="#6A5EF6"/>
<stop offset="1" stop-color="#4E33CF"/>
</linearGradient>
<linearGradient id="paint2_linear_314_16380" x1="509.91" y1="184.93" x2="550.82" y2="255.78" gradientUnits="userSpaceOnUse">
<stop stop-color="#6A5EF6"/>
<stop offset="1" stop-color="#4E33CF"/>
</linearGradient>
<linearGradient id="paint3_linear_314_16380" x1="116.419" y1="181.06" x2="154.389" y2="246.82" gradientUnits="userSpaceOnUse">
<stop stop-color="#E6D4FF"/>
<stop offset="1" stop-color="#D3B2FF"/>
</linearGradient>
</defs>
</svg>
