<svg width="328" height="222" viewBox="0 0 328 222" fill="none" xmlns="http://www.w3.org/2000/svg">
<path d="M291.61 15.11H36.5C34.4289 15.11 32.75 16.7889 32.75 18.86V123.91C32.75 125.981 34.4289 127.66 36.5 127.66H291.61C293.681 127.66 295.36 125.981 295.36 123.91V18.86C295.36 16.7889 293.681 15.11 291.61 15.11Z" fill="white" stroke="#C5CBFF" stroke-width="0.71" stroke-linecap="round" stroke-linejoin="round"/>
<path d="M289.74 18.86H38.3898C37.3515 18.86 36.5098 19.7017 36.5098 20.74V122.02C36.5098 123.058 37.3515 123.9 38.3898 123.9H289.74C290.778 123.9 291.62 123.058 291.62 122.02V20.74C291.62 19.7017 290.778 18.86 289.74 18.86Z" stroke="#C5CBFF" stroke-width="0.71" stroke-linecap="round" stroke-linejoin="round"/>
<path d="M164.871 138.767L161.506 86.4456L126.788 88.6785L130.153 141L164.871 138.767Z" fill="#EDF0FF" stroke="#C5CBFF" stroke-width="0.71" stroke-linecap="round" stroke-linejoin="round"/>
<path d="M132.76 134.76L161.69 132.9" stroke="#C5CBFF" stroke-width="0.71" stroke-linecap="round" stroke-linejoin="round"/>
<path d="M132.76 136.57L161.69 134.71" stroke="#C5CBFF" stroke-width="0.71" stroke-linecap="round" stroke-linejoin="round"/>
<path d="M132.96 138.17L151.98 136.95" stroke="#C5CBFF" stroke-width="0.71" stroke-linecap="round" stroke-linejoin="round"/>
<path d="M161.613 129.945L159.084 90.626L129.745 92.513L132.274 131.832L161.613 129.945Z" stroke="#C5CBFF" stroke-width="0.71" stroke-linecap="round" stroke-linejoin="round"/>
<path d="M157.5 111.12L104.31 102.08L105.55 68.3199L158.74 77.3599L157.5 111.12Z" fill="#DFE3FF" stroke="#C5CBFF" stroke-width="0.71" stroke-linecap="round" stroke-linejoin="round"/>
<path d="M110.2 73.0199C110.719 73.0199 111.14 72.599 111.14 72.0799C111.14 71.5607 110.719 71.1399 110.2 71.1399C109.681 71.1399 109.26 71.5607 109.26 72.0799C109.26 72.599 109.681 73.0199 110.2 73.0199Z" fill="#C5CBFF" stroke="#C5CBFF" stroke-width="0.15" stroke-linecap="round" stroke-linejoin="round"/>
<path d="M153.98 81.08C154.499 81.08 154.92 80.6591 154.92 80.14C154.92 79.6208 154.499 79.2 153.98 79.2C153.461 79.2 153.04 79.6208 153.04 80.14C153.04 80.6591 153.461 81.08 153.98 81.08Z" fill="#C5CBFF" stroke="#C5CBFF" stroke-width="0.15" stroke-linecap="round" stroke-linejoin="round"/>
<path d="M155.37 108.59L106.89 100.24L107.84 74.4199L156.32 82.7599L155.37 108.59Z" stroke="#C5CBFF" stroke-width="0.71" stroke-linecap="round" stroke-linejoin="round"/>
<path d="M156.06 89.42L107.58 81.08" stroke="#C5CBFF" stroke-width="0.71" stroke-linecap="round" stroke-linejoin="round"/>
<path d="M155.84 95.68L107.37 87.33" stroke="#C5CBFF" stroke-width="0.71" stroke-linecap="round" stroke-linejoin="round"/>
<path d="M155.58 102.14L107.1 93.7999" stroke="#C5CBFF" stroke-width="0.71" stroke-linecap="round" stroke-linejoin="round"/>
<path d="M132 78.59L131.05 104.41" stroke="#C5CBFF" stroke-width="0.71" stroke-linecap="round" stroke-linejoin="round"/>
<path d="M123.57 77.0499L122.62 102.87" stroke="#C5CBFF" stroke-width="0.71" stroke-linecap="round" stroke-linejoin="round"/>
<path d="M115.57 75.7799L114.62 101.6" stroke="#C5CBFF" stroke-width="0.71" stroke-linecap="round" stroke-linejoin="round"/>
<path d="M140.24 80.1399L139.29 105.96" stroke="#C5CBFF" stroke-width="0.71" stroke-linecap="round" stroke-linejoin="round"/>
<path d="M148.54 81.4099L147.59 107.24" stroke="#C5CBFF" stroke-width="0.71" stroke-linecap="round" stroke-linejoin="round"/>
<path d="M86.2599 64.47H19.6699V109.17H86.2599V64.47Z" fill="#DFE3FF" stroke="#C5CBFF" stroke-width="0.71" stroke-linecap="round" stroke-linejoin="round"/>
<path d="M53.46 68.3199C53.9792 68.3199 54.4 67.8991 54.4 67.3799C54.4 66.8608 53.9792 66.4399 53.46 66.4399C52.9409 66.4399 52.52 66.8608 52.52 67.3799C52.52 67.8991 52.9409 68.3199 53.46 68.3199Z" fill="#C5CBFF" stroke="#C5CBFF" stroke-width="0.15" stroke-linecap="round" stroke-linejoin="round"/>
<path d="M38.73 107.07C39.2492 107.07 39.67 106.649 39.67 106.13C39.67 105.611 39.2492 105.19 38.73 105.19C38.2109 105.19 37.79 105.611 37.79 106.13C37.79 106.649 38.2109 107.07 38.73 107.07Z" fill="#C5CBFF" stroke="#C5CBFF" stroke-width="0.15" stroke-linecap="round" stroke-linejoin="round"/>
<path d="M53.4596 86.7999L51.8296 73.5399C52.3596 73.4799 52.9296 73.4399 53.4596 73.4399V86.7999Z" fill="#DFE3FF" stroke="#C5CBFF" stroke-width="0.71" stroke-linecap="round" stroke-linejoin="round"/>
<path d="M53.4598 86.7999L49.5498 74.0199C50.3198 73.7799 51.0298 73.6299 51.8298 73.5399L53.4598 86.7999Z" fill="#DFE3FF" stroke="#C5CBFF" stroke-width="0.71" stroke-linecap="round" stroke-linejoin="round"/>
<path d="M51.5796 85.25L38.3496 83.39C39.0996 78.08 42.5396 74.04 47.6796 72.47L51.5896 85.25H51.5796Z" fill="#DFE3FF" stroke="#C5CBFF" stroke-width="0.71" stroke-linecap="round" stroke-linejoin="round"/>
<path d="M50.3097 86.5L37.1097 88.59C36.8997 87.27 36.8897 85.96 37.0797 84.64L50.3097 86.5Z" fill="#DFE3FF" stroke="#C5CBFF" stroke-width="0.71" stroke-linecap="round" stroke-linejoin="round"/>
<path d="M51.9295 87.33L44.8495 98.66C41.4395 96.53 39.3595 93.39 38.7295 89.42L51.9295 87.33Z" fill="#DFE3FF" stroke="#C5CBFF" stroke-width="0.71" stroke-linecap="round" stroke-linejoin="round"/>
<path d="M53.4599 86.7999L63.6999 95.3899C59.3899 100.53 52.0699 101.69 46.3799 98.1299L53.4599 86.7999Z" fill="#DFE3FF" stroke="#C5CBFF" stroke-width="0.71" stroke-linecap="round" stroke-linejoin="round"/>
<path d="M53.4597 86.8L60.5397 75.47C66.7997 79.38 68.6997 87.62 64.7897 93.88C64.4397 94.44 64.1197 94.88 63.6897 95.39L53.4497 86.8H53.4597Z" fill="#DFE3FF" stroke="#C5CBFF" stroke-width="0.71" stroke-linecap="round" stroke-linejoin="round"/>
<path d="M53.4595 86.7999V73.4399C56.1395 73.4399 58.2695 74.0499 60.5395 75.4699L53.4595 86.7999Z" fill="#DFE3FF" stroke="#C5CBFF" stroke-width="0.71" stroke-linecap="round" stroke-linejoin="round"/>
<path d="M51.0374 44.9509L27.2607 42.9585L25.3276 66.0276L49.1043 68.02L51.0374 44.9509Z" fill="#EDF0FF" stroke="#C5CBFF" stroke-width="0.71" stroke-linecap="round" stroke-linejoin="round"/>
<path d="M45.46 48.34C45.9792 48.34 46.4 47.9191 46.4 47.4C46.4 46.8808 45.9792 46.46 45.46 46.46C44.9409 46.46 44.52 46.8808 44.52 47.4C44.52 47.9191 44.9409 48.34 45.46 48.34Z" fill="#C5CBFF" stroke="#C5CBFF" stroke-width="0.15" stroke-linecap="round" stroke-linejoin="round"/>
<path d="M29.1899 50.2499L47.4999 51.7799" stroke="#C5CBFF" stroke-width="0.71" stroke-linecap="round" stroke-linejoin="round"/>
<path d="M29.0298 51.9399L47.3398 53.4799" stroke="#C5CBFF" stroke-width="0.71" stroke-linecap="round" stroke-linejoin="round"/>
<path d="M29.0298 53.8099L41.8998 54.8899" stroke="#C5CBFF" stroke-width="0.71" stroke-linecap="round" stroke-linejoin="round"/>
<path d="M28.96 55.5999L47.27 57.1299" stroke="#C5CBFF" stroke-width="0.71" stroke-linecap="round" stroke-linejoin="round"/>
<path d="M28.6401 57.34L46.9501 58.87" stroke="#C5CBFF" stroke-width="0.71" stroke-linecap="round" stroke-linejoin="round"/>
<path d="M28.6401 59.2699L46.9501 60.8099" stroke="#C5CBFF" stroke-width="0.71" stroke-linecap="round" stroke-linejoin="round"/>
<path d="M28.0801 60.9899L35.1501 61.5799" stroke="#C5CBFF" stroke-width="0.71" stroke-linecap="round" stroke-linejoin="round"/>
<path d="M113.595 51.6423L101.726 48.0881L89.4629 89.0415L101.332 92.5957L113.595 51.6423Z" fill="#EDF0FF" stroke="#C5CBFF" stroke-width="0.71" stroke-linecap="round" stroke-linejoin="round"/>
<path d="M107 53.0299C107.519 53.0299 107.94 52.609 107.94 52.0899C107.94 51.5708 107.519 51.1499 107 51.1499C106.481 51.1499 106.06 51.5708 106.06 52.0899C106.06 52.609 106.481 53.0299 107 53.0299Z" fill="#C5CBFF" stroke="#C5CBFF" stroke-width="0.15" stroke-linecap="round" stroke-linejoin="round"/>
<path d="M309.07 45.0599H242.48V89.7599H309.07V45.0599Z" fill="#EDF0FF" stroke="#C5CBFF" stroke-width="0.71" stroke-linecap="round" stroke-linejoin="round"/>
<path d="M254.81 49.4099C255.329 49.4099 255.75 48.9891 255.75 48.4699C255.75 47.9508 255.329 47.5299 254.81 47.5299C254.291 47.5299 253.87 47.9508 253.87 48.4699C253.87 48.9891 254.291 49.4099 254.81 49.4099Z" fill="#C5CBFF" stroke="#C5CBFF" stroke-width="0.15" stroke-linecap="round" stroke-linejoin="round"/>
<path d="M293.07 49.1299C293.589 49.1299 294.01 48.709 294.01 48.1899C294.01 47.6707 293.589 47.2499 293.07 47.2499C292.551 47.2499 292.13 47.6707 292.13 48.1899C292.13 48.709 292.551 49.1299 293.07 49.1299Z" fill="#C5CBFF" stroke="#C5CBFF" stroke-width="0.15" stroke-linecap="round" stroke-linejoin="round"/>
<path d="M306.56 109.62C298.06 110.31 288.86 110.07 278.84 108.73C276.43 102.81 276.38 93.8299 276.96 84.0499L304.68 84.9399C304.18 92.4699 304.17 100.31 306.56 109.62Z" fill="#DFE3FF" stroke="#C5CBFF" stroke-width="0.71" stroke-linecap="round" stroke-linejoin="round"/>
<path d="M284.82 87.9499C285.339 87.9499 285.76 87.5291 285.76 87.0099C285.76 86.4908 285.339 86.0699 284.82 86.0699C284.301 86.0699 283.88 86.4908 283.88 87.0099C283.88 87.5291 284.301 87.9499 284.82 87.9499Z" fill="#C5CBFF" stroke="#C5CBFF" stroke-width="0.15" stroke-linecap="round" stroke-linejoin="round"/>
<path d="M280.09 90.8999L300.6 91.4899" stroke="#C5CBFF" stroke-width="0.71" stroke-linecap="round" stroke-linejoin="round"/>
<path d="M280.62 92.9199L301.14 93.5099" stroke="#C5CBFF" stroke-width="0.71" stroke-linecap="round" stroke-linejoin="round"/>
<path d="M281.12 94.7L295.53 95.11" stroke="#C5CBFF" stroke-width="0.71" stroke-linecap="round" stroke-linejoin="round"/>
<path d="M281.36 96.58L301.87 97.17" stroke="#C5CBFF" stroke-width="0.71" stroke-linecap="round" stroke-linejoin="round"/>
<path d="M281.12 98.33L301.63 98.92" stroke="#C5CBFF" stroke-width="0.71" stroke-linecap="round" stroke-linejoin="round"/>
<path d="M281.68 100.02L302.19 100.61" stroke="#C5CBFF" stroke-width="0.71" stroke-linecap="round" stroke-linejoin="round"/>
<path d="M282.19 102.23L290.11 102.46" stroke="#C5CBFF" stroke-width="0.71" stroke-linecap="round" stroke-linejoin="round"/>
<path d="M213.07 36.39L187.05 45.96C183.54 40.51 179.76 31.54 175.83 20.47L201.85 10.9C206.47 22.42 210.25 31.08 213.07 36.39Z" fill="#EDF0FF" stroke="#C5CBFF" stroke-width="0.71" stroke-linecap="round" stroke-linejoin="round"/>
<path d="M194.1 18.29C194.619 18.29 195.04 17.8692 195.04 17.35C195.04 16.8309 194.619 16.41 194.1 16.41C193.581 16.41 193.16 16.8309 193.16 17.35C193.16 17.8692 193.581 18.29 194.1 18.29Z" fill="#C5CBFF" stroke="#C5CBFF" stroke-width="0.15" stroke-linecap="round" stroke-linejoin="round"/>
<path d="M194.09 35.9301C198.232 35.9301 201.59 32.5722 201.59 28.4301C201.59 24.2879 198.232 20.9301 194.09 20.9301C189.948 20.9301 186.59 24.2879 186.59 28.4301C186.59 32.5722 189.948 35.9301 194.09 35.9301Z" stroke="#C5CBFF" stroke-width="0.71" stroke-linecap="round" stroke-linejoin="round"/>
<path d="M194.09 34.7701C197.591 34.7701 200.43 31.9316 200.43 28.4301C200.43 24.9286 197.591 22.0901 194.09 22.0901C190.589 22.0901 187.75 24.9286 187.75 28.4301C187.75 31.9316 190.589 34.7701 194.09 34.7701Z" stroke="#C5CBFF" stroke-width="0.71" stroke-linecap="round" stroke-linejoin="round"/>
<path d="M195.17 32.6801L194.82 31.8101C193.28 32.2401 192.18 31.8501 191.67 30.5801L191.65 30.5201L193.04 29.9601L193.11 30.1301C193.34 30.7001 193.72 30.8201 194.98 30.3201C196.09 29.8701 196.28 29.6001 196.12 29.1901C195.97 28.8101 195.7 28.7601 195.02 28.9001L193.18 29.3501C192 29.6201 191.12 29.3301 190.71 28.3201C190.37 27.4701 190.65 26.3101 192.29 25.4801L191.95 24.6301L193.25 24.1101L193.61 25.0001C195.06 24.6801 196.02 25.2201 196.46 26.3301L196.48 26.3901L195.08 26.9501L195.03 26.8201C194.79 26.2301 194.39 26.1001 193.15 26.5901C192.15 26.9901 191.92 27.3101 192.08 27.7101C192.22 28.0701 192.48 28.1201 193.04 28.0001L194.89 27.5801C196.37 27.2501 197.14 27.7201 197.48 28.5701C197.84 29.4601 197.55 30.5201 196.12 31.3001L196.47 32.1701L195.17 32.6901V32.6801Z" stroke="#C5CBFF" stroke-width="0.71" stroke-linecap="round" stroke-linejoin="round"/>
<path d="M116.46 137.45H92.1L90.77 113.08H115.14L116.46 137.45Z" fill="#DFE3FF" stroke="#C5CBFF" stroke-width="0.71" stroke-linecap="round" stroke-linejoin="round"/>
<path d="M102.68 116.81C103.199 116.81 103.62 116.389 103.62 115.87C103.62 115.351 103.199 114.93 102.68 114.93C102.161 114.93 101.74 115.351 101.74 115.87C101.74 116.389 102.161 116.81 102.68 116.81Z" fill="#C5CBFF" stroke="#C5CBFF" stroke-width="0.15" stroke-linecap="round" stroke-linejoin="round"/>
<path d="M15.5 197.76H67.57H107.58H191.71H217.25H312.62" stroke="#C5CBFF" stroke-width="0.71" stroke-linecap="round" stroke-linejoin="round"/>
<path d="M258.32 166.72H291.68L293.95 159.24L291.36 154.54L293.59 147.2L295.21 143.83L296.42 135.93H263.07L262.03 143.83L260.46 147.2L258.41 154.54L260.78 159.24L258.32 166.72Z" fill="#DFE3FF"/>
<path d="M275.05 139.36H293.07C293.07 139.36 297.67 144.09 297.8 148.5C297.8 148.5 289.48 141.5 275.05 139.36Z" fill="#DFE3FF" stroke="#C5CBFF" stroke-width="0.71" stroke-linecap="round" stroke-linejoin="round"/>
<path d="M268.25 154.54H258.42C258.42 154.54 258.24 158.01 260.79 159.24C260.79 159.24 260.76 155.3 268.26 154.54H268.25Z" fill="#DFE3FF" stroke="#C5CBFF" stroke-width="0.71" stroke-linecap="round" stroke-linejoin="round"/>
<path d="M293.95 159.24H280.91" stroke="#C5CBFF" stroke-width="0.71" stroke-linecap="round" stroke-linejoin="round"/>
<path d="M260.46 147.2H272.91" stroke="#C5CBFF" stroke-width="0.71" stroke-linecap="round" stroke-linejoin="round"/>
<path d="M262.03 143.83H267.43" stroke="#C5CBFF" stroke-width="0.71" stroke-linecap="round" stroke-linejoin="round"/>
<path d="M289.48 154.54H279.21" stroke="#C5CBFF" stroke-width="0.71" stroke-linecap="round" stroke-linejoin="round"/>
<path d="M296.42 197.5H263.07L260.8 190.03L263.38 185.33L261.16 177.99L259.54 174.62L258.32 166.72H291.68L292.72 174.62L294.28 177.99L296.33 185.33L293.97 190.03L296.42 197.5Z" fill="#DFE3FF"/>
<path d="M286.5 185.33H296.33C296.33 185.33 296.51 188.8 293.96 190.03C293.96 190.03 293.99 186.09 286.49 185.33H286.5Z" fill="#DFE3FF" stroke="#C5CBFF" stroke-width="0.71" stroke-linecap="round" stroke-linejoin="round"/>
<path d="M260.8 190.03H273.83" stroke="#C5CBFF" stroke-width="0.71" stroke-linecap="round" stroke-linejoin="round"/>
<path d="M294.28 177.99H281.84" stroke="#C5CBFF" stroke-width="0.71" stroke-linecap="round" stroke-linejoin="round"/>
<path d="M292.72 174.62H287.32" stroke="#C5CBFF" stroke-width="0.71" stroke-linecap="round" stroke-linejoin="round"/>
<path d="M265.26 185.33H275.53" stroke="#C5CBFF" stroke-width="0.71" stroke-linecap="round" stroke-linejoin="round"/>
<path d="M271.64 170.64H258.97" stroke="#C5CBFF" stroke-width="0.71" stroke-linecap="round" stroke-linejoin="round"/>
<path d="M230.65 197.5H264L266.27 190.03L263.69 185.33L265.91 177.99L267.53 174.62L268.75 166.72H235.39L234.36 174.62L232.79 177.99L230.74 185.33L233.11 190.03L230.65 197.5Z" fill="#EDF0FF"/>
<path d="M240.57 185.33H230.74C230.74 185.33 230.56 188.8 233.11 190.03C233.11 190.03 233.08 186.09 240.58 185.33H240.57Z" fill="#EDF0FF" stroke="#C5CBFF" stroke-width="0.71" stroke-linecap="round" stroke-linejoin="round"/>
<path d="M266.27 190.03H253.24" stroke="#C5CBFF" stroke-width="0.71" stroke-linecap="round" stroke-linejoin="round"/>
<path d="M232.79 177.99H245.23" stroke="#C5CBFF" stroke-width="0.71" stroke-linecap="round" stroke-linejoin="round"/>
<path d="M234.36 174.62H239.75" stroke="#C5CBFF" stroke-width="0.71" stroke-linecap="round" stroke-linejoin="round"/>
<path d="M261.81 185.33H251.54" stroke="#C5CBFF" stroke-width="0.71" stroke-linecap="round" stroke-linejoin="round"/>
<path d="M255.43 170.64H268.1" stroke="#C5CBFF" stroke-width="0.71" stroke-linecap="round" stroke-linejoin="round"/>
<path d="M41.22 170.77H69.7V177.34H41.22C39.47 177.34 38.04 175.92 38.04 174.16V173.95C38.04 172.2 39.46 170.77 41.22 170.77Z" fill="#EDF0FF"/>
<path d="M41.2799 170.77H69.6999C70.0899 170.77 70.3999 170.46 70.3999 170.07C70.3999 169.68 70.0899 169.37 69.6999 169.37H41.5499C38.9699 169.37 36.7099 171.36 36.6399 173.94C36.5699 176.59 38.6999 178.75 41.3299 178.75H69.6999C70.0899 178.75 70.3999 178.44 70.3999 178.05C70.3999 177.66 70.0899 177.35 69.6999 177.35H41.2799C39.4899 177.35 38.0399 175.9 38.0399 174.11V174.02C38.0399 172.23 39.4899 170.78 41.2799 170.78V170.77Z" fill="#EDF0FF" stroke="#C5CBFF" stroke-width="0.71" stroke-linecap="round" stroke-linejoin="round"/>
<path d="M46.8696 172.47H69.6996" stroke="#C5CBFF" stroke-width="0.71" stroke-linecap="round" stroke-linejoin="round"/>
<path d="M42.5898 173.6H56.7098" stroke="#C5CBFF" stroke-width="0.71" stroke-linecap="round" stroke-linejoin="round"/>
<path d="M51.21 174.72H69.7" stroke="#C5CBFF" stroke-width="0.71" stroke-linecap="round" stroke-linejoin="round"/>
<path d="M58.1797 175.85H67.9297" stroke="#C5CBFF" stroke-width="0.71" stroke-linecap="round" stroke-linejoin="round"/>
<path d="M63.8298 186.72H35.3498V180.15H63.8298C65.5798 180.15 67.0098 181.57 67.0098 183.33V183.54C67.0098 185.29 65.5898 186.72 63.8298 186.72Z" fill="#EDF0FF"/>
<path d="M63.7699 180.15H35.3499C34.9599 180.15 34.6499 179.84 34.6499 179.45C34.6499 179.06 34.9599 178.75 35.3499 178.75H63.4999C66.0799 178.75 68.3399 180.74 68.4099 183.32C68.4799 185.9 66.3499 188.13 63.7199 188.13H35.3499C34.9599 188.13 34.6499 187.82 34.6499 187.43C34.6499 187.04 34.9599 186.73 35.3499 186.73H63.7699C65.5599 186.73 67.0099 185.28 67.0099 183.49V183.4C67.0099 181.61 65.5599 180.16 63.7699 180.16V180.15Z" fill="#EDF0FF" stroke="#C5CBFF" stroke-width="0.71" stroke-linecap="round" stroke-linejoin="round"/>
<path d="M58.1701 181.85H35.3501" stroke="#C5CBFF" stroke-width="0.71" stroke-linecap="round" stroke-linejoin="round"/>
<path d="M62.4598 182.98H48.3398" stroke="#C5CBFF" stroke-width="0.71" stroke-linecap="round" stroke-linejoin="round"/>
<path d="M53.8401 184.1H35.3501" stroke="#C5CBFF" stroke-width="0.71" stroke-linecap="round" stroke-linejoin="round"/>
<path d="M46.8601 185.23H37.1201" stroke="#C5CBFF" stroke-width="0.71" stroke-linecap="round" stroke-linejoin="round"/>
<path d="M37.5799 197.5H69.4599C69.979 197.5 70.3999 197.079 70.3999 196.56V189.06C70.3999 188.541 69.979 188.12 69.4599 188.12H37.5799C37.0608 188.12 36.6399 188.541 36.6399 189.06V196.56C36.6399 197.079 37.0608 197.5 37.5799 197.5Z" fill="#EDF0FF" stroke="#C5CBFF" stroke-width="0.71" stroke-linecap="round" stroke-linejoin="round"/>
<path d="M40.9503 197.5H43.7603V188.12H40.9503V197.5Z" fill="#C5CBFF"/>
<path d="M39.8997 161.4H68.3797V167.97H39.8997C38.1497 167.97 36.7197 166.55 36.7197 164.79V164.58C36.7197 162.83 38.1397 161.4 39.8997 161.4Z" fill="#EDF0FF"/>
<path d="M39.9498 161.4H68.3698C68.7598 161.4 69.0698 161.09 69.0698 160.7C69.0698 160.31 68.7598 160 68.3698 160H40.2198C37.6398 160 35.3798 161.99 35.3098 164.57C35.2398 167.22 37.3698 169.38 39.9998 169.38H68.3698C68.7598 169.38 69.0698 169.07 69.0698 168.68C69.0698 168.29 68.7598 167.98 68.3698 167.98H39.9498C38.1598 167.98 36.7098 166.53 36.7098 164.74V164.65C36.7098 162.86 38.1598 161.41 39.9498 161.41V161.4Z" fill="#EDF0FF" stroke="#C5CBFF" stroke-width="0.71" stroke-linecap="round" stroke-linejoin="round"/>
<path d="M45.5498 163.09H68.3698" stroke="#C5CBFF" stroke-width="0.71" stroke-linecap="round" stroke-linejoin="round"/>
<path d="M41.2598 164.22H55.3898" stroke="#C5CBFF" stroke-width="0.71" stroke-linecap="round" stroke-linejoin="round"/>
<path d="M49.8896 165.35H68.3697" stroke="#C5CBFF" stroke-width="0.71" stroke-linecap="round" stroke-linejoin="round"/>
<path d="M56.8599 166.47H66.6099" stroke="#C5CBFF" stroke-width="0.71" stroke-linecap="round" stroke-linejoin="round"/>
<path d="M237.08 19.9C237.37 20.1 237.19 20.55 236.84 20.5C229.81 19.49 223.68 22.64 221.72 27.49C220.21 31.24 221.41 35.5 223.5 38.17C229.55 45.89 242.35 43.72 248.59 37.48C253.7 32.35 253.94 23.6 248.51 18.62C245.38 15.75 241.09 14 236.85 13.77C231.93 13.5 228.04 15.53 225.94 16.93C225.65 17.13 225.82 17.58 226.17 17.53C228.83 17.15 233.1 17.15 237.08 19.9Z" fill="#AC6DFF"/>
<path d="M276.42 41.1001L264.73 66.8901C264.73 66.8901 254.6 58.3401 250.45 52.4501C246.31 46.5601 242.48 48.2601 242.48 48.2601L244.32 56.6401C244.32 56.6401 255.2 68.5601 260.51 73.3701C264.08 76.5101 267.81 75.8901 270.07 72.3101C272.33 68.7301 274.84 60.6101 280.2 44.4001C281.21 42.6001 284.2 39.3001 285.12 36.1701C285.35 35.4601 284.94 34.1501 284.01 33.9201C284.1 32.9901 283.35 32.1101 282.61 32.0201L285.29 25.2401C283.76 24.7601 280.52 30.7001 278.59 33.9701C277.75 32.7501 278.81 28.4901 277.24 28.2901C274.77 34.4101 276.42 41.1101 276.42 41.1101V41.1001Z" fill="#AC6DFF"/>
<path d="M278.18 30.6201C278.18 30.6201 278.03 32.5701 278.58 33.9701C279.13 35.3701 278.94 36.1901 278.94 36.1901" stroke="#22194D" stroke-width="0.71" stroke-linecap="round" stroke-linejoin="round"/>
<path d="M283.86 33.1C283.55 32.47 283.13 32.11 282.6 32.02L280.45 37.04C280.06 38.03 280.75 38.31 281.02 37.96L284 33.92C284.32 34 284.59 34.21 284.82 34.55" stroke="#22194D" stroke-width="0.71" stroke-linecap="round" stroke-linejoin="round"/>
<path d="M281.02 37.96C280.11 39.04 280.73 39.94 281.55 39.36L284.41 36.51" stroke="#22194D" stroke-width="0.71" stroke-linecap="round" stroke-linejoin="round"/>
<path d="M208.36 63.3601L207.7 65.7601L221.65 54.9801L226.22 47.7201C226.22 47.7201 223.2 44.8301 217.3 48.9601L202.64 59.5201C197.53 63.3901 197.7 66.7801 200.76 68.9501C202.26 69.8601 204.53 69.9701 204.53 69.9701C205.37 72.4401 210.24 74.7901 210.24 74.7901C211.31 73.7501 209.36 71.7001 207.26 69.8001L211.72 72.3701C212.75 71.1001 210.62 69.0201 208.15 67.1401L212.9 70.1101C213.63 68.3501 211.47 66.5901 209.37 65.4001L211.43 64.9501C211.5 63.3001 208.37 63.3501 208.37 63.3501L208.36 63.3601Z" fill="#AC6DFF"/>
<path d="M208.36 63.15C208.36 63.15 211.23 63.25 211.42 64.96L209.46 65.26" stroke="#22194D" stroke-width="0.71" stroke-linecap="round" stroke-linejoin="round"/>
<path d="M208.14 67.1501L212.89 70.1201C212.89 70.1201 214.5 67.7101 208.23 64.7101" stroke="#22194D" stroke-width="0.71" stroke-linecap="round" stroke-linejoin="round"/>
<path d="M211.72 72.38L207.26 69.81C207.26 69.81 211.86 73.23 210.24 74.8C204 72.14 201.77 66.82 205.73 64.04" stroke="#22194D" stroke-width="0.71" stroke-linecap="round" stroke-linejoin="round"/>
<path d="M244.8 47.69C235.03 49.1 232.04 48.48 225.19 46.8C217.94 44.96 207.94 55.09 207.94 55.09L215.62 60.68L222.26 55.68C221.07 56.83 222.9 66.76 223.82 74.04L221.26 80.98L242.3 80.93L239.07 74.04L244.19 57.61L250.75 64.81L259.15 60.98C252.22 53.86 250.66 47.37 244.8 47.7V47.69Z" fill="#E6D4FF"/>
<path d="M210.22 172.44L207.99 186.47C203.14 195.86 193.02 188.23 191.7 197.5H217.24C217.24 197.5 218.07 193.66 215.43 189.2L218.07 173.05L210.21 172.44H210.22Z" fill="#AC6DFF"/>
<path d="M238.09 187.42C238.09 187.42 236.57 191.16 236.57 192.93C236.57 194.7 240.61 200.13 240.61 200.13C240.61 200.13 241.7 209.39 243.77 210.68C245.84 211.96 251.15 210.56 249.14 204.28C249.14 204.28 246.78 199.49 246.45 195.74L244.75 187.63L243.82 137.45L234.32 138.06L238.1 187.43L238.09 187.42Z" fill="#AC6DFF"/>
<path d="M223.82 74.03C228.87 75 233.96 74.93 239.06 74.03C239.06 74.03 245.15 79.27 246.07 105.62C246.99 131.97 248.6 178.18 248.6 178.18C245.83 178.65 242.88 179.01 239.85 179.27L236.05 143.79L230.4 179.64C221.68 179.64 214.84 179.1 207.7 178.18C210.49 133.4 213.46 89.34 223.82 74.04V74.03Z" fill="url(#paint0_linear_338_14715)"/>
<path d="M238.09 187.42C238.09 187.42 236.57 191.16 236.57 192.93C236.57 194.7 240.61 200.13 240.61 200.13C240.61 200.13 241.7 209.39 243.77 210.68C245.84 211.96 251.15 210.56 249.14 204.28C249.14 204.28 246.78 199.49 246.45 195.74C243.77 196.34 240.99 193.64 238.1 187.43L238.09 187.42Z" fill="#611EAB"/>
<path d="M208 186.47C203.15 195.86 193.03 188.23 191.71 197.5H217.25C217.25 197.5 218.08 193.66 215.44 189.2C212.2 189.87 210.45 189.55 207.99 186.47H208Z" fill="#611EAB"/>
<path d="M223.44 52.42C221 54.9 222.16 60.21 222.16 60.21L222.87 66.61" stroke="#22194D" stroke-width="0.71" stroke-linecap="round" stroke-linejoin="round"/>
<path d="M204.5 188.9L206.82 192.55L203 189.99L204.91 192.96L201.7 190.68L202.75 192.96" stroke="#22194D" stroke-width="0.71" stroke-linecap="round" stroke-linejoin="round"/>
<path d="M244.67 198.88L247.97 198.23L245.24 200.42L248.21 199.9L246.05 201.56H248.21" stroke="#22194D" stroke-width="0.71" stroke-linecap="round" stroke-linejoin="round"/>
<path d="M230.4 179.64L237.5 134.58" stroke="#22194D" stroke-width="0.71" stroke-linecap="round" stroke-linejoin="round"/>
<path d="M77.4701 37.57C77.1801 37.37 77.3601 36.92 77.7101 36.97C84.7401 37.98 90.8701 34.83 92.8301 29.98C94.3401 26.23 93.1401 21.97 91.0501 19.3C85.0001 11.58 72.2001 13.75 65.9601 19.99C60.8501 25.12 60.6101 33.87 66.0401 38.85C69.1701 41.72 73.4601 43.47 77.7001 43.7C82.6201 43.97 86.5101 41.94 88.6101 40.54C88.9001 40.34 88.7301 39.89 88.3801 39.94C85.7201 40.32 81.4501 40.32 77.4701 37.57Z" fill="#929AFF"/>
<path d="M76.4201 11.84C76.7601 11.94 76.7301 12.43 76.3801 12.49C71.7201 13.32 67.2501 15.54 64.1701 18.63C63.2201 19.58 62.4201 20.64 61.7701 21.76C61.5901 22.07 61.1201 21.92 61.1601 21.56C61.7301 16.28 64.5201 10.68 64.5201 10.68C64.5201 10.68 71.5001 10.46 76.4201 11.84Z" fill="#929AFF"/>
<path d="M91.7002 172.67L91.2902 186.48C96.1402 195.87 106.26 188.24 107.58 197.51H82.0402C82.0402 197.51 81.2102 193.67 83.8502 189.21V173.28L91.7102 172.67H91.7002Z" fill="#929AFF"/>
<path d="M91.2902 186.47C96.1402 195.86 106.26 188.23 107.58 197.5H82.0402C82.0402 197.5 81.2102 193.66 83.8502 189.2C87.0902 189.87 88.8402 189.55 91.3002 186.47H91.2902Z" fill="#372B84"/>
<path d="M94.7802 188.9L92.4702 192.55L96.2902 189.99L94.3802 192.96L97.5902 190.68L96.5302 192.96" stroke="#22194D" stroke-width="0.71" stroke-linecap="round" stroke-linejoin="round"/>
<path d="M65.74 47.89C65.74 47.89 60.9 47.44 59.44 51.1C57.98 54.76 56.51 77.93 56.51 77.93C56.1 80.58 56.21 83.1 56.51 85.57L60.71 111.29C60.73 113.31 60.18 115.46 60.55 118.8C60.55 118.8 61.74 123.29 63.83 124.13C65.92 124.97 66.76 126.76 68.08 126.13C68.08 126.13 66.29 122.04 66.98 117.73C66.98 117.73 68.22 122.1 69.91 121.21C69.91 121.21 68.79 114.13 65.78 111.02C64.29 109.96 62.38 82.56 62.38 82.56L65.96 56.4L65.76 47.88L65.74 47.89Z" fill="#929AFF"/>
<path d="M71.7899 88.6699L89.4599 90.3599C89.4599 90.3599 83.7799 47.1899 83.0599 47.3499C78.7799 48.3499 75.7899 48.7599 70.3799 48.2499L71.7899 88.6699Z" fill="#DFE3FF"/>
<path d="M62.4402 179.48C62.0902 180.13 61.7702 180.8 61.4702 181.47C60.9702 182.58 60.2902 183.92 60.3702 185.17L67.5702 197.51H78.5602C79.9702 196.23 78.4902 193.99 76.9702 192.77C75.4502 191.55 71.5202 190.97 71.5202 190.97C71.4402 190.87 70.5302 187.22 70.3702 185.62C70.2102 184.02 69.8502 181.93 69.8502 181.93L69.6902 180.38L82.6702 137.41L73.1602 137.03L62.4402 179.48Z" fill="#929AFF"/>
<path d="M61.4702 181.47C60.9702 182.58 60.2902 183.92 60.3702 185.17L67.5702 197.51H78.5602C79.9702 196.23 78.4902 193.99 76.9702 192.77C75.4502 191.55 71.5202 190.97 71.5202 190.97C71.4402 190.87 70.5302 187.22 70.3702 185.62C70.2102 184.02 69.8502 181.93 69.8502 181.93C66.8002 183.3 64.0502 182.93 61.4702 181.48V181.47Z" fill="#372B84"/>
<path d="M64.5801 118.32C64.6201 122.85 65.2101 126.34 67.7301 126.13" stroke="#22194D" stroke-width="0.71" stroke-linecap="round" stroke-linejoin="round"/>
<path d="M64.4499 124.45C63.0199 123.56 62.3499 121.65 62.1499 118.03" stroke="#22194D" stroke-width="0.71" stroke-linecap="round" stroke-linejoin="round"/>
<path d="M68.8901 187.6L72.2301 187.3L69.2901 189.2L72.3001 188.98L69.9801 190.41L72.1201 190.64" stroke="#22194D" stroke-width="0.71" stroke-linecap="round" stroke-linejoin="round"/>
<path d="M66.8903 84.64C65.8903 88.04 65.0103 91.63 64.6303 96.93C64.2503 102.23 68.3403 120.88 71.5603 137.73L58.7803 184.64C62.7903 186.09 66.8103 186.28 70.8303 185.2C70.8303 185.2 84.3303 145.64 85.3103 137.49C86.2903 129.33 79.7103 100.52 79.7103 100.52L82.7503 187.22C85.2803 187.7 89.0503 186.95 93.3103 185.72C93.3103 185.72 94.7003 96.37 91.7303 86.87C83.5403 87.61 75.2703 87.04 66.8903 84.64Z" fill="url(#paint1_linear_338_14715)"/>
<path d="M74.0201 48.2499C72.2601 48.3999 70.3101 48.1999 68.3001 47.9799C66.4401 47.7899 64.5101 47.5699 62.6801 48.1299C59.8301 48.9999 59.1401 51.5299 58.3901 54.0899C57.4301 57.3799 56.7001 60.7599 56.3901 64.1799L55.1101 79.1499C54.7001 81.7999 54.8101 84.3199 55.1101 86.7899L59.3101 112.51L66.3201 110.69C64.9601 102.23 64.3401 91.6399 64.3401 91.6399L63.3001 83.6599L65.6301 66.0699L66.4901 61.5199C66.4901 61.5199 67.1601 72.3699 67.1901 73.8699C67.2201 75.3599 66.5401 82.0399 64.9401 88.1099C64.1001 91.6899 63.4101 100.67 63.0801 105.93C67.5701 108.05 71.0401 109.22 73.7801 109.72C73.7801 109.72 78.1601 92.9899 74.0201 48.2499Z" fill="#402CA7"/>
<path d="M65.5701 85.45C65.5701 85.45 64.6901 89.09 64.0501 94.05C63.4101 99.01 63.0801 105.94 63.0801 105.94C64.7701 106.77 66.8901 107.65 69.5101 108.59" stroke="#22194D" stroke-width="0.71" stroke-linecap="round" stroke-linejoin="round"/>
<path d="M87.2599 47.3999C85.2099 46.5599 82.6699 47.0999 80.5999 47.6899C80.3699 47.7599 81.1499 54.2899 81.2099 54.9299C81.4399 57.3899 81.6999 59.8499 81.9799 62.2999C82.5499 67.2099 83.2199 72.1099 83.9899 76.9899C85.5399 86.7499 90.2599 108.84 90.2599 108.84C93.0299 107.99 95.8999 105.78 96.9199 104.56C95.8199 97.6799 94.0899 90.8999 91.7599 84.3299C90.4399 80.5999 89.5599 76.2599 88.9099 72.3499C88.2299 68.2899 88.1699 60.6899 88.1699 60.6899L88.2999 57.0299L87.2499 47.3899L87.2599 47.3999Z" fill="#402CA7"/>
<path d="M65.9502 55.33C65.9502 55.33 66.3302 59.04 66.4802 61.53C66.6302 64.02 66.9702 69.8 66.9702 69.8" stroke="#22194D" stroke-width="0.71" stroke-linecap="round" stroke-linejoin="round"/>
<path d="M79.9202 100.91C79.9202 100.91 86.6802 130.44 85.3102 137.49C83.9402 144.54 78.0103 163.45 78.0103 163.45" stroke="#22194D" stroke-width="0.71" stroke-linecap="round" stroke-linejoin="round"/>
<path d="M79.1502 45.42L75.6302 40.39C75.6302 40.39 73.2202 41.59 76.0202 44.32L66.7602 39.48C66.7602 39.48 65.4702 41.13 70.2702 43.74C70.2702 43.74 69.6802 44.67 70.0602 45.38C70.0602 45.38 69.4302 46.56 69.7002 47.21C69.9702 47.86 72.4602 50.54 72.4602 50.54L77.3202 52.32L79.3002 58.4L85.5802 54.69L79.1402 45.41L79.1502 45.42Z" fill="#929AFF"/>
<path d="M77.3301 53.53C77.3301 53.53 80.7801 64.9 82.0001 69.79C83.2101 74.68 90.5301 80.19 94.1701 75.99C95.0101 74.58 95.2401 71.85 95.2101 69.85C95.1801 67.85 91.9101 53.28 90.7601 50.93C89.6001 48.58 88.0801 47.76 87.2701 47.4L86.3701 55.36L82.9601 49.15L77.3301 53.54V53.53Z" fill="#402CA7"/>
<path d="M80.77 50.85L82.96 49.15C82.96 49.15 87.88 57.48 90.78 65.68" stroke="#22194D" stroke-width="0.71" stroke-linecap="round" stroke-linejoin="round"/>
<path d="M82 69.7999C84.45 77.4899 92.35 78.9799 94.17 75.9999" stroke="#22194D" stroke-width="0.71" stroke-linecap="round" stroke-linejoin="round"/>
<path d="M73.2202 48.09L70.0602 45.38C70.0602 45.38 69.6502 44.65 70.2702 43.74" stroke="#22194D" stroke-width="0.71" stroke-linecap="round" stroke-linejoin="round"/>
<path d="M75.11 46.42C71 44.09 65.93 41.75 66.76 39.47L76.02 44.31C73.22 41.44 75.63 40.38 75.63 40.38L79.15 45.41" stroke="#22194D" stroke-width="0.71" stroke-linecap="round" stroke-linejoin="round"/>
<path d="M267.26 51.1H210.99C209.952 51.1 209.11 51.9417 209.11 52.98V94.24C209.11 95.2783 209.952 96.12 210.99 96.12H267.26C268.298 96.12 269.14 95.2783 269.14 94.24V52.98C269.14 51.9417 268.298 51.1 267.26 51.1Z" fill="#F9F5FF" stroke="#E6D4FF" stroke-width="0.71" stroke-linecap="round" stroke-linejoin="round"/>
<path d="M239.13 74.03L234.99 59.61C236.33 59.23 237.73 59.03 239.13 59.03V74.03Z" fill="#9C51FB" stroke="#E6D4FF" stroke-width="0.71" stroke-linecap="round" stroke-linejoin="round"/>
<path d="M239.13 74.03L229.09 62.88C230.86 61.29 232.71 60.26 234.99 59.61L239.13 74.03Z" fill="#AC6DFF" stroke="#E6D4FF" stroke-width="0.71" stroke-linecap="round" stroke-linejoin="round"/>
<path d="M239.13 74.03L224.15 73.24C224.37 69.03 225.96 65.7 229.09 62.88L239.13 74.03Z" fill="#D3B2FF" stroke="#E6D4FF" stroke-width="0.71" stroke-linecap="round" stroke-linejoin="round"/>
<path d="M239.13 74.03L248.57 85.69C242.13 90.9 232.68 89.91 227.47 83.47C225.06 80.49 223.95 77.07 224.15 73.24L239.13 74.03Z" fill="#E6D4FF" stroke="#E6D4FF" stroke-width="0.71" stroke-linecap="round" stroke-linejoin="round"/>
<path d="M240.93 74.07L249.1 61.49C256.05 66 258.02 75.3 253.51 82.24C252.61 83.62 251.65 84.69 250.37 85.73L240.93 74.07Z" fill="#F1E7FF" stroke="#E6D4FF" stroke-width="0.71" stroke-linecap="round" stroke-linejoin="round"/>
<path d="M240.63 72V57C243.72 57 246.21 57.74 248.8 59.42L240.63 72Z" fill="white" stroke="#E6D4FF" stroke-width="0.71" stroke-linecap="round" stroke-linejoin="round"/>
<path d="M205.74 64.03C205.74 64.03 202.22 66.41 204.43 70.01C206.63 73.61 210.25 74.79 210.25 74.79C211.39 73.6 209.45 71.54 207.27 69.8L211.73 72.37C212.76 71.1 210.63 69.02 208.16 67.14L212.91 70.11C213.6 68.51 212.14 66.96 210.05 65.66C210.05 65.66 206.58 63.58 205.75 64.01L205.74 64.03Z" fill="#AC6DFF"/>
<path d="M208.14 67.15L212.89 70.12C212.89 70.12 214.5 67.71 208.23 64.71" stroke="#22194D" stroke-width="0.71" stroke-linecap="round" stroke-linejoin="round"/>
<path d="M211.72 72.3799L207.26 69.8099C207.26 69.8099 211.86 73.2299 210.24 74.7999C204 72.1399 201.77 66.8199 205.73 64.0399" stroke="#22194D" stroke-width="0.71" stroke-linecap="round" stroke-linejoin="round"/>
<defs>
<linearGradient id="paint0_linear_338_14715" x1="206.69" y1="96.94" x2="248.01" y2="168.52" gradientUnits="userSpaceOnUse">
<stop stop-color="#721ED2"/>
<stop offset="1" stop-color="#611EAB"/>
</linearGradient>
<linearGradient id="paint1_linear_338_14715" x1="51.0303" y1="93.8" x2="101.4" y2="181.05" gradientUnits="userSpaceOnUse">
<stop stop-color="#4E33CF"/>
<stop offset="1" stop-color="#5B41EA"/>
</linearGradient>
</defs>
</svg>
