<svg width="704" height="476" viewBox="0 0 704 476" fill="none" xmlns="http://www.w3.org/2000/svg">
<path d="M634.55 26.1H69.4501C64.8606 26.1 61.1401 29.8205 61.1401 34.41V267.1C61.1401 271.689 64.8606 275.41 69.4501 275.41H634.55C639.14 275.41 642.86 271.689 642.86 267.1V34.41C642.86 29.8205 639.14 26.1 634.55 26.1Z" fill="white" stroke="#C5CBFF" stroke-width="0.99" stroke-linecap="round" stroke-linejoin="round"/>
<path d="M630.39 34.4099H73.6097C71.3122 34.4099 69.4497 36.2724 69.4497 38.5699V262.94C69.4497 265.237 71.3122 267.1 73.6097 267.1H630.39C632.687 267.1 634.55 265.237 634.55 262.94V38.5699C634.55 36.2724 632.687 34.4099 630.39 34.4099Z" stroke="#C5CBFF" stroke-width="0.99" stroke-linecap="round" stroke-linejoin="round"/>
<path d="M353.792 300.02L346.337 184.109L269.436 189.055L276.891 304.966L353.792 300.02Z" fill="#EDF0FF" stroke="#C5CBFF" stroke-width="0.99" stroke-linecap="round" stroke-linejoin="round"/>
<path d="M282.68 291.13L346.75 287.01" stroke="#C5CBFF" stroke-width="0.99" stroke-linecap="round" stroke-linejoin="round"/>
<path d="M282.68 295.16L346.75 291.04" stroke="#C5CBFF" stroke-width="0.99" stroke-linecap="round" stroke-linejoin="round"/>
<path d="M283.1 298.7L325.25 295.99" stroke="#C5CBFF" stroke-width="0.99" stroke-linecap="round" stroke-linejoin="round"/>
<path d="M346.575 280.49L340.974 193.4L275.988 197.579L281.589 284.669L346.575 280.49Z" stroke="#C5CBFF" stroke-width="0.99" stroke-linecap="round" stroke-linejoin="round"/>
<path d="M337.46 238.77L219.64 218.75L222.39 143.97L340.21 163.99L337.46 238.77Z" fill="#DFE3FF" stroke="#C5CBFF" stroke-width="0.99" stroke-linecap="round" stroke-linejoin="round"/>
<path d="M232.68 154.37C233.829 154.37 234.76 153.439 234.76 152.29C234.76 151.141 233.829 150.21 232.68 150.21C231.531 150.21 230.6 151.141 230.6 152.29C230.6 153.439 231.531 154.37 232.68 154.37Z" fill="#C5CBFF" stroke="#C5CBFF" stroke-width="0.32" stroke-linecap="round" stroke-linejoin="round"/>
<path d="M329.68 172.23C330.829 172.23 331.76 171.299 331.76 170.15C331.76 169.001 330.829 168.07 329.68 168.07C328.531 168.07 327.6 169.001 327.6 170.15C327.6 171.299 328.531 172.23 329.68 172.23Z" fill="#C5CBFF" stroke="#C5CBFF" stroke-width="0.32" stroke-linecap="round" stroke-linejoin="round"/>
<path d="M332.75 233.16L225.37 214.68L227.47 157.48L334.86 175.96L332.75 233.16Z" stroke="#C5CBFF" stroke-width="0.99" stroke-linecap="round" stroke-linejoin="round"/>
<path d="M334.28 190.71L226.89 172.23" stroke="#C5CBFF" stroke-width="0.99" stroke-linecap="round" stroke-linejoin="round"/>
<path d="M333.8 204.56L226.42 186.08" stroke="#C5CBFF" stroke-width="0.99" stroke-linecap="round" stroke-linejoin="round"/>
<path d="M333.22 218.88L225.84 200.4" stroke="#C5CBFF" stroke-width="0.99" stroke-linecap="round" stroke-linejoin="round"/>
<path d="M280.98 166.72L278.87 223.92" stroke="#C5CBFF" stroke-width="0.99" stroke-linecap="round" stroke-linejoin="round"/>
<path d="M262.31 163.29L260.2 220.49" stroke="#C5CBFF" stroke-width="0.99" stroke-linecap="round" stroke-linejoin="round"/>
<path d="M244.59 160.49L242.49 217.69" stroke="#C5CBFF" stroke-width="0.99" stroke-linecap="round" stroke-linejoin="round"/>
<path d="M299.23 170.15L297.13 227.35" stroke="#C5CBFF" stroke-width="0.99" stroke-linecap="round" stroke-linejoin="round"/>
<path d="M317.62 172.97L315.52 230.17" stroke="#C5CBFF" stroke-width="0.99" stroke-linecap="round" stroke-linejoin="round"/>
<path d="M179.68 135.43H32.1699V234.44H179.68V135.43Z" fill="#DFE3FF" stroke="#C5CBFF" stroke-width="0.99" stroke-linecap="round" stroke-linejoin="round"/>
<path d="M107.01 143.97C108.158 143.97 109.09 143.039 109.09 141.89C109.09 140.741 108.158 139.81 107.01 139.81C105.861 139.81 104.93 140.741 104.93 141.89C104.93 143.039 105.861 143.97 107.01 143.97Z" fill="#C5CBFF" stroke="#C5CBFF" stroke-width="0.32" stroke-linecap="round" stroke-linejoin="round"/>
<path d="M74.3798 229.81C75.5286 229.81 76.4598 228.879 76.4598 227.73C76.4598 226.581 75.5286 225.65 74.3798 225.65C73.231 225.65 72.2998 226.581 72.2998 227.73C72.2998 228.879 73.231 229.81 74.3798 229.81Z" fill="#C5CBFF" stroke="#C5CBFF" stroke-width="0.32" stroke-linecap="round" stroke-linejoin="round"/>
<path d="M107 185.16L103.35 155.45C104.53 155.3 105.81 155.23 107 155.23V185.17V185.16Z" fill="#DFE3FF" stroke="#C5CBFF" stroke-width="0.99" stroke-linecap="round" stroke-linejoin="round"/>
<path d="M107 185.16L98.25 156.53C99.97 156 101.57 155.66 103.35 155.45L107 185.16Z" fill="#DFE3FF" stroke="#C5CBFF" stroke-width="0.99" stroke-linecap="round" stroke-linejoin="round"/>
<path d="M104.34 183.35L74.7002 179.18C76.3702 167.28 84.1002 158.23 95.5902 154.72L104.34 183.35Z" fill="#DFE3FF" stroke="#C5CBFF" stroke-width="0.99" stroke-linecap="round" stroke-linejoin="round"/>
<path d="M100.44 185.55L70.8701 190.23C70.4001 187.27 70.3801 184.34 70.7901 181.38L100.43 185.55H100.44Z" fill="#DFE3FF" stroke="#C5CBFF" stroke-width="0.99" stroke-linecap="round" stroke-linejoin="round"/>
<path d="M102.05 188.3L86.1902 213.69C78.5502 208.92 73.9002 201.89 72.4902 192.99L102.06 188.31L102.05 188.3Z" fill="#DFE3FF" stroke="#C5CBFF" stroke-width="0.99" stroke-linecap="round" stroke-linejoin="round"/>
<path d="M107 185.16L129.93 204.4C120.27 215.91 103.88 218.51 91.1401 210.54L107 185.15V185.16Z" fill="#DFE3FF" stroke="#C5CBFF" stroke-width="0.99" stroke-linecap="round" stroke-linejoin="round"/>
<path d="M107 185.16L122.86 159.77C136.88 168.53 141.14 187 132.38 201.02C131.59 202.28 130.88 203.26 129.93 204.4L107 185.16Z" fill="#DFE3FF" stroke="#C5CBFF" stroke-width="0.99" stroke-linecap="round" stroke-linejoin="round"/>
<path d="M107 185.16V155.22C113 155.22 117.77 156.59 122.86 159.77L107 185.16Z" fill="#DFE3FF" stroke="#C5CBFF" stroke-width="0.99" stroke-linecap="round" stroke-linejoin="round"/>
<path d="M101.653 92.2128L48.978 87.7988L44.6951 138.91L97.3705 143.324L101.653 92.2128Z" fill="#EDF0FF" stroke="#C5CBFF" stroke-width="0.99" stroke-linecap="round" stroke-linejoin="round"/>
<path d="M89.2802 99.7099C90.4289 99.7099 91.3602 98.7787 91.3602 97.6299C91.3602 96.4812 90.4289 95.5499 89.2802 95.5499C88.1314 95.5499 87.2002 96.4812 87.2002 97.6299C87.2002 98.7787 88.1314 99.7099 89.2802 99.7099Z" fill="#C5CBFF" stroke="#C5CBFF" stroke-width="0.32" stroke-linecap="round" stroke-linejoin="round"/>
<path d="M53.25 103.94L93.81 107.34" stroke="#C5CBFF" stroke-width="0.99" stroke-linecap="round" stroke-linejoin="round"/>
<path d="M52.8901 107.69L93.4601 111.09" stroke="#C5CBFF" stroke-width="0.99" stroke-linecap="round" stroke-linejoin="round"/>
<path d="M52.8901 111.82L81.4001 114.21" stroke="#C5CBFF" stroke-width="0.99" stroke-linecap="round" stroke-linejoin="round"/>
<path d="M52.73 115.79L93.3 119.19" stroke="#C5CBFF" stroke-width="0.99" stroke-linecap="round" stroke-linejoin="round"/>
<path d="M52.02 119.64L92.59 123.04" stroke="#C5CBFF" stroke-width="0.99" stroke-linecap="round" stroke-linejoin="round"/>
<path d="M52.02 123.93L92.59 127.33" stroke="#C5CBFF" stroke-width="0.99" stroke-linecap="round" stroke-linejoin="round"/>
<path d="M50.79 127.72L66.46 129.03" stroke="#C5CBFF" stroke-width="0.99" stroke-linecap="round" stroke-linejoin="round"/>
<path d="M240.226 107.031L213.93 99.1564L186.764 189.876L213.06 197.751L240.226 107.031Z" fill="#EDF0FF" stroke="#C5CBFF" stroke-width="0.99" stroke-linecap="round" stroke-linejoin="round"/>
<path d="M225.6 110.1C226.748 110.1 227.68 109.169 227.68 108.02C227.68 106.871 226.748 105.94 225.6 105.94C224.451 105.94 223.52 106.871 223.52 108.02C223.52 109.169 224.451 110.1 225.6 110.1Z" fill="#C5CBFF" stroke="#C5CBFF" stroke-width="0.32" stroke-linecap="round" stroke-linejoin="round"/>
<path d="M673.22 92.45H525.71V191.46H673.22V92.45Z" fill="#EDF0FF" stroke="#C5CBFF" stroke-width="0.99" stroke-linecap="round" stroke-linejoin="round"/>
<path d="M553.03 102.08C554.179 102.08 555.11 101.149 555.11 99.9999C555.11 98.8512 554.179 97.9199 553.03 97.9199C551.881 97.9199 550.95 98.8512 550.95 99.9999C550.95 101.149 551.881 102.08 553.03 102.08Z" fill="#C5CBFF" stroke="#C5CBFF" stroke-width="0.32" stroke-linecap="round" stroke-linejoin="round"/>
<path d="M637.78 101.45C638.929 101.45 639.86 100.519 639.86 99.3699C639.86 98.2212 638.929 97.2899 637.78 97.2899C636.631 97.2899 635.7 98.2212 635.7 99.3699C635.7 100.519 636.631 101.45 637.78 101.45Z" fill="#C5CBFF" stroke="#C5CBFF" stroke-width="0.32" stroke-linecap="round" stroke-linejoin="round"/>
<path d="M667.67 235.44C648.85 236.98 628.47 236.44 606.28 233.47C600.94 220.35 600.84 200.47 602.12 178.8L663.51 180.77C662.4 197.46 662.37 214.81 667.67 235.44Z" fill="#DFE3FF" stroke="#C5CBFF" stroke-width="0.99" stroke-linecap="round" stroke-linejoin="round"/>
<path d="M619.51 187.44C620.658 187.44 621.59 186.509 621.59 185.36C621.59 184.211 620.658 183.28 619.51 183.28C618.361 183.28 617.43 184.211 617.43 185.36C617.43 186.509 618.361 187.44 619.51 187.44Z" fill="#C5CBFF" stroke="#C5CBFF" stroke-width="0.32" stroke-linecap="round" stroke-linejoin="round"/>
<path d="M609.02 193.97L654.46 195.29" stroke="#C5CBFF" stroke-width="0.99" stroke-linecap="round" stroke-linejoin="round"/>
<path d="M610.2 198.46L655.64 199.77" stroke="#C5CBFF" stroke-width="0.99" stroke-linecap="round" stroke-linejoin="round"/>
<path d="M611.3 202.39L643.23 203.31" stroke="#C5CBFF" stroke-width="0.99" stroke-linecap="round" stroke-linejoin="round"/>
<path d="M611.83 206.56L657.27 207.87" stroke="#C5CBFF" stroke-width="0.99" stroke-linecap="round" stroke-linejoin="round"/>
<path d="M611.3 210.44L656.74 211.75" stroke="#C5CBFF" stroke-width="0.99" stroke-linecap="round" stroke-linejoin="round"/>
<path d="M612.55 214.18L657.99 215.49" stroke="#C5CBFF" stroke-width="0.99" stroke-linecap="round" stroke-linejoin="round"/>
<path d="M613.66 219.08L631.21 219.59" stroke="#C5CBFF" stroke-width="0.99" stroke-linecap="round" stroke-linejoin="round"/>
<path d="M460.56 73.2399L402.91 94.4499C395.14 82.3699 386.77 62.5099 378.05 37.9899L435.7 16.7799C445.93 42.2999 454.32 61.4799 460.56 73.2399Z" fill="#EDF0FF" stroke="#C5CBFF" stroke-width="0.99" stroke-linecap="round" stroke-linejoin="round"/>
<path d="M418.53 33.1399C419.678 33.1399 420.61 32.2086 420.61 31.0599C420.61 29.9111 419.678 28.9799 418.53 28.9799C417.381 28.9799 416.45 29.9111 416.45 31.0599C416.45 32.2086 417.381 33.1399 418.53 33.1399Z" fill="#C5CBFF" stroke="#C5CBFF" stroke-width="0.32" stroke-linecap="round" stroke-linejoin="round"/>
<path d="M418.52 72.2299C427.699 72.2299 435.14 64.7888 435.14 55.6099C435.14 46.4309 427.699 38.9899 418.52 38.9899C409.341 38.9899 401.9 46.4309 401.9 55.6099C401.9 64.7888 409.341 72.2299 418.52 72.2299Z" stroke="#C5CBFF" stroke-width="0.99" stroke-linecap="round" stroke-linejoin="round"/>
<path d="M418.52 69.6498C426.274 69.6498 432.56 63.3639 432.56 55.6098C432.56 47.8557 426.274 41.5698 418.52 41.5698C410.766 41.5698 404.48 47.8557 404.48 55.6098C404.48 63.3639 410.766 69.6498 418.52 69.6498Z" stroke="#C5CBFF" stroke-width="0.99" stroke-linecap="round" stroke-linejoin="round"/>
<path d="M420.92 65.0099L420.15 63.0799C416.75 64.0399 414.3 63.1599 413.17 60.3499L413.12 60.2299L416.2 58.9999L416.35 59.3699C416.86 60.6399 417.7 60.8999 420.49 59.7799C422.95 58.7899 423.38 58.1899 423.01 57.2699C422.67 56.4299 422.08 56.3099 420.56 56.6299L416.48 57.6199C413.86 58.2199 411.91 57.5699 411.01 55.3299C410.25 53.4399 410.87 50.8799 414.52 49.0399L413.76 47.1499L416.63 45.9999L417.42 47.9699C420.63 47.2499 422.76 48.4499 423.74 50.9199L423.79 51.0399L420.69 52.2799L420.57 51.9899C420.04 50.6799 419.14 50.3899 416.42 51.4899C414.2 52.3799 413.7 53.0799 414.05 53.9599C414.37 54.7599 414.94 54.8699 416.17 54.6099L420.28 53.6799C423.56 52.9399 425.26 53.9899 426.02 55.8799C426.81 57.8499 426.18 60.1999 423.01 61.9199L423.78 63.8499L420.91 64.9999L420.92 65.0099Z" stroke="#C5CBFF" stroke-width="0.99" stroke-linecap="round" stroke-linejoin="round"/>
<path d="M246.57 297.09H192.59L189.66 243.11H243.64L246.57 297.09Z" fill="#DFE3FF" stroke="#C5CBFF" stroke-width="0.99" stroke-linecap="round" stroke-linejoin="round"/>
<path d="M216.04 251.38C217.189 251.38 218.12 250.449 218.12 249.3C218.12 248.151 217.189 247.22 216.04 247.22C214.891 247.22 213.96 248.151 213.96 249.3C213.96 250.449 214.891 251.38 216.04 251.38Z" fill="#C5CBFF" stroke="#C5CBFF" stroke-width="0.32" stroke-linecap="round" stroke-linejoin="round"/>
<path d="M22.9199 430.68H138.25H226.88H413.25H469.83H681.08" stroke="#C5CBFF" stroke-width="0.99" stroke-linecap="round" stroke-linejoin="round"/>
<path d="M560.81 361.93H634.69L639.72 345.37L634 334.96L638.92 318.7L642.51 311.23L645.2 293.73H571.32L569.02 311.23L565.55 318.7L561.01 334.96L566.25 345.37L560.81 361.93Z" fill="#DFE3FF"/>
<path d="M597.86 301.32H637.79C637.79 301.32 647.98 311.79 648.26 321.56C648.26 321.56 629.83 306.06 597.86 301.32Z" fill="#DFE3FF" stroke="#C5CBFF" stroke-width="0.99" stroke-linecap="round" stroke-linejoin="round"/>
<path d="M582.79 334.96H561.01C561.01 334.96 560.6 342.65 566.25 345.37C566.25 345.37 566.18 336.64 582.79 334.96Z" fill="#DFE3FF" stroke="#C5CBFF" stroke-width="0.99" stroke-linecap="round" stroke-linejoin="round"/>
<path d="M639.72 345.37H610.85" stroke="#C5CBFF" stroke-width="0.99" stroke-linecap="round" stroke-linejoin="round"/>
<path d="M565.55 318.7H593.12" stroke="#C5CBFF" stroke-width="0.99" stroke-linecap="round" stroke-linejoin="round"/>
<path d="M569.02 311.23H580.97" stroke="#C5CBFF" stroke-width="0.99" stroke-linecap="round" stroke-linejoin="round"/>
<path d="M629.83 334.96H607.08" stroke="#C5CBFF" stroke-width="0.99" stroke-linecap="round" stroke-linejoin="round"/>
<path d="M645.2 430.13H571.32L566.29 413.57L572.01 403.17L567.09 386.9L563.5 379.43L560.81 361.93H634.69L636.99 379.43L640.47 386.9L645 403.17L639.76 413.57L645.2 430.13Z" fill="#DFE3FF"/>
<path d="M623.22 403.17H645C645 403.17 645.41 410.86 639.76 413.58C639.76 413.58 639.83 404.85 623.22 403.17Z" fill="#DFE3FF" stroke="#C5CBFF" stroke-width="0.99" stroke-linecap="round" stroke-linejoin="round"/>
<path d="M566.29 413.57H595.16" stroke="#C5CBFF" stroke-width="0.99" stroke-linecap="round" stroke-linejoin="round"/>
<path d="M640.47 386.9H612.89" stroke="#C5CBFF" stroke-width="0.99" stroke-linecap="round" stroke-linejoin="round"/>
<path d="M636.99 379.43H625.04" stroke="#C5CBFF" stroke-width="0.99" stroke-linecap="round" stroke-linejoin="round"/>
<path d="M576.18 403.17H598.93" stroke="#C5CBFF" stroke-width="0.99" stroke-linecap="round" stroke-linejoin="round"/>
<path d="M590.31 370.62H562.24" stroke="#C5CBFF" stroke-width="0.99" stroke-linecap="round" stroke-linejoin="round"/>
<path d="M499.5 430.13H573.39L578.42 413.57L572.69 403.17L577.62 386.9L581.2 379.43L583.9 361.93H510.02L507.72 379.43L504.24 386.9L499.71 403.17L504.95 413.57L499.5 430.13Z" fill="#EDF0FF"/>
<path d="M521.48 403.17H499.7C499.7 403.17 499.29 410.86 504.94 413.58C504.94 413.58 504.87 404.85 521.48 403.17Z" fill="#EDF0FF" stroke="#C5CBFF" stroke-width="0.99" stroke-linecap="round" stroke-linejoin="round"/>
<path d="M578.42 413.57H549.54" stroke="#C5CBFF" stroke-width="0.99" stroke-linecap="round" stroke-linejoin="round"/>
<path d="M504.24 386.9H531.82" stroke="#C5CBFF" stroke-width="0.99" stroke-linecap="round" stroke-linejoin="round"/>
<path d="M507.72 379.43H519.67" stroke="#C5CBFF" stroke-width="0.99" stroke-linecap="round" stroke-linejoin="round"/>
<path d="M568.53 403.17H545.78" stroke="#C5CBFF" stroke-width="0.99" stroke-linecap="round" stroke-linejoin="round"/>
<path d="M554.39 370.62H582.47" stroke="#C5CBFF" stroke-width="0.99" stroke-linecap="round" stroke-linejoin="round"/>
<path d="M79.8999 370.92H142.98V385.46H79.8999C76.0099 385.46 72.8599 382.31 72.8599 378.42V377.96C72.8599 374.07 76.0099 370.92 79.8999 370.92Z" fill="#EDF0FF"/>
<path d="M80.0198 370.92H142.97C143.83 370.92 144.53 370.22 144.53 369.36C144.53 368.5 143.83 367.8 142.97 367.8H80.6098C74.8998 367.8 69.8898 372.2 69.7398 377.91C69.5898 383.77 74.2998 388.57 80.1198 388.57H142.97C143.83 388.57 144.53 387.87 144.53 387.01C144.53 386.15 143.83 385.45 142.97 385.45H80.0198C76.0598 385.45 72.8498 382.24 72.8498 378.28V378.07C72.8498 374.11 76.0598 370.9 80.0198 370.9V370.92Z" fill="#EDF0FF" stroke="#C5CBFF" stroke-width="0.99" stroke-linecap="round" stroke-linejoin="round"/>
<path d="M92.4199 374.68H142.97" stroke="#C5CBFF" stroke-width="0.99" stroke-linecap="round" stroke-linejoin="round"/>
<path d="M82.9297 377.17H114.22" stroke="#C5CBFF" stroke-width="0.99" stroke-linecap="round" stroke-linejoin="round"/>
<path d="M102.02 379.67H142.97" stroke="#C5CBFF" stroke-width="0.99" stroke-linecap="round" stroke-linejoin="round"/>
<path d="M117.47 382.16H139.06" stroke="#C5CBFF" stroke-width="0.99" stroke-linecap="round" stroke-linejoin="round"/>
<path d="M129.97 406.24H66.8898V391.7H129.97C133.86 391.7 137.01 394.85 137.01 398.74V399.2C137.01 403.09 133.86 406.24 129.97 406.24Z" fill="#EDF0FF"/>
<path d="M129.85 391.69H66.8998C66.0398 391.69 65.3398 390.99 65.3398 390.13C65.3398 389.27 66.0398 388.57 66.8998 388.57H129.26C134.97 388.57 139.98 392.97 140.13 398.68C140.28 404.54 135.57 409.34 129.75 409.34H66.8998C66.0398 409.34 65.3398 408.64 65.3398 407.78C65.3398 406.92 66.0398 406.22 66.8998 406.22H129.85C133.81 406.22 137.02 403.01 137.02 399.05V398.84C137.02 394.88 133.81 391.67 129.85 391.67V391.69Z" fill="#EDF0FF" stroke="#C5CBFF" stroke-width="0.99" stroke-linecap="round" stroke-linejoin="round"/>
<path d="M117.45 395.46H66.8999" stroke="#C5CBFF" stroke-width="0.99" stroke-linecap="round" stroke-linejoin="round"/>
<path d="M126.94 397.95H95.6597" stroke="#C5CBFF" stroke-width="0.99" stroke-linecap="round" stroke-linejoin="round"/>
<path d="M107.85 400.44H66.8999" stroke="#C5CBFF" stroke-width="0.99" stroke-linecap="round" stroke-linejoin="round"/>
<path d="M92.4001 402.94H70.8101" stroke="#C5CBFF" stroke-width="0.99" stroke-linecap="round" stroke-linejoin="round"/>
<path d="M71.8198 430.13H142.45C143.599 430.13 144.53 429.199 144.53 428.05V411.43C144.53 410.281 143.599 409.35 142.45 409.35H71.8198C70.671 409.35 69.7398 410.281 69.7398 411.43V428.05C69.7398 429.199 70.671 430.13 71.8198 430.13Z" fill="#EDF0FF" stroke="#C5CBFF" stroke-width="0.99" stroke-linecap="round" stroke-linejoin="round"/>
<path d="M79.2895 430.13H85.5195V409.35H79.2895V430.13Z" fill="#C5CBFF"/>
<path d="M76.9594 350.14H140.039V364.68H76.9594C73.0694 364.68 69.9194 361.53 69.9194 357.64V357.18C69.9194 353.29 73.0694 350.14 76.9594 350.14Z" fill="#EDF0FF"/>
<path d="M77.0896 350.14H140.04C140.9 350.14 141.6 349.44 141.6 348.58C141.6 347.72 140.9 347.02 140.04 347.02H77.6796C71.9696 347.02 66.9596 351.42 66.8096 357.13C66.6596 362.99 71.3696 367.79 77.1896 367.79H140.04C140.9 367.79 141.6 367.09 141.6 366.23C141.6 365.37 140.9 364.67 140.04 364.67H77.0896C73.1296 364.67 69.9196 361.46 69.9196 357.5V357.29C69.9196 353.33 73.1296 350.12 77.0896 350.12V350.14Z" fill="#EDF0FF" stroke="#C5CBFF" stroke-width="0.99" stroke-linecap="round" stroke-linejoin="round"/>
<path d="M89.4897 353.91H140.04" stroke="#C5CBFF" stroke-width="0.99" stroke-linecap="round" stroke-linejoin="round"/>
<path d="M79.9897 356.4H111.28" stroke="#C5CBFF" stroke-width="0.99" stroke-linecap="round" stroke-linejoin="round"/>
<path d="M99.0898 358.89H140.04" stroke="#C5CBFF" stroke-width="0.99" stroke-linecap="round" stroke-linejoin="round"/>
<path d="M114.54 361.38H136.13" stroke="#C5CBFF" stroke-width="0.99" stroke-linecap="round" stroke-linejoin="round"/>
<path d="M513.76 36.7C514.41 37.14 514.01 38.15 513.23 38.03C497.67 35.8 484.07 42.76 479.74 53.52C476.4 61.83 479.05 71.27 483.68 77.18C497.07 94.27 525.44 89.48 539.25 75.64C550.58 64.28 551.11 44.89 539.08 33.87C532.14 27.51 522.64 23.64 513.26 23.12C502.36 22.53 493.74 27.01 489.08 30.12C488.43 30.55 488.82 31.56 489.59 31.45C495.47 30.61 504.93 30.62 513.75 36.69L513.76 36.7Z" fill="#AC6DFF"/>
<path d="M600.89 83.6699L574.99 140.8C574.99 140.8 552.55 121.87 543.36 108.82C534.18 95.7699 525.72 99.5299 525.72 99.5299L529.79 118.1C529.79 118.1 553.89 144.51 565.65 155.16C573.56 162.11 581.83 160.74 586.83 152.81C591.83 144.88 597.41 126.9 609.28 90.9799C611.53 86.9899 618.14 79.6799 620.17 72.7599C620.68 71.1799 619.77 68.2799 617.7 67.7699C617.9 65.7199 616.23 63.7699 614.61 63.5599L620.54 48.5499C617.15 47.4899 609.97 60.6299 605.7 67.8799C603.84 65.1699 606.2 55.7499 602.71 55.2899C597.24 68.8499 600.9 83.6799 600.9 83.6799L600.89 83.6699Z" fill="#AC6DFF"/>
<path d="M604.79 60.46C604.79 60.46 604.45 64.78 605.68 67.88C606.92 70.97 606.48 72.8 606.48 72.8" stroke="#22194D" stroke-width="0.99" stroke-linecap="round" stroke-linejoin="round"/>
<path d="M617.38 65.9499C616.7 64.5599 615.77 63.7499 614.59 63.5599L609.83 74.6699C608.96 76.8699 610.5 77.4899 611.08 76.7099L617.68 67.7699C618.38 67.9399 618.99 68.3999 619.5 69.1599" stroke="#22194D" stroke-width="0.99" stroke-linecap="round" stroke-linejoin="round"/>
<path d="M611.08 76.7099C609.06 79.1099 610.45 81.0999 612.25 79.8199L618.6 73.4999" stroke="#22194D" stroke-width="0.99" stroke-linecap="round" stroke-linejoin="round"/>
<path d="M450.13 132.99L448.68 138.3L479.59 114.41L489.72 98.3299C489.72 98.3299 483.04 91.9199 469.97 101.07L437.49 124.46C426.16 133.03 426.54 140.53 433.32 145.35C436.65 147.37 441.67 147.62 441.67 147.62C443.52 153.08 454.31 158.3 454.31 158.3C456.67 156 452.36 151.46 447.7 147.25L457.57 152.95C459.84 150.14 455.14 145.52 449.66 141.38L460.18 147.96C461.79 144.07 457.02 140.17 452.36 137.53L456.92 136.53C457.07 132.87 450.13 132.99 450.13 132.99Z" fill="#AC6DFF"/>
<path d="M450.13 132.52C450.13 132.52 456.5 132.75 456.92 136.52L452.59 137.19" stroke="#22194D" stroke-width="0.99" stroke-linecap="round" stroke-linejoin="round"/>
<path d="M449.66 141.38L460.18 147.96C460.18 147.96 463.76 142.61 449.86 135.97" stroke="#22194D" stroke-width="0.99" stroke-linecap="round" stroke-linejoin="round"/>
<path d="M457.57 152.95L447.7 147.25C447.7 147.25 457.88 154.82 454.31 158.3C440.48 152.4 435.54 140.62 444.33 134.45" stroke="#22194D" stroke-width="0.99" stroke-linecap="round" stroke-linejoin="round"/>
<path d="M530.84 98.27C509.2 101.39 502.57 100.02 487.39 96.29C471.33 92.22 449.18 114.65 449.18 114.65L466.2 127.03L480.92 115.95C478.28 118.51 482.34 140.5 484.37 156.61L478.7 171.99L525.3 171.87L518.14 156.61L529.49 120.21L544.03 136.17L562.64 127.68C547.28 111.9 543.84 97.53 530.84 98.27Z" fill="#E6D4FF"/>
<path d="M454.26 374.61L449.33 405.68C438.59 426.47 416.17 409.59 413.25 430.12H469.84C469.84 430.12 471.69 421.61 465.84 411.74L471.69 375.96L454.27 374.61H454.26Z" fill="#AC6DFF"/>
<path d="M515.98 407.79C515.98 407.79 512.61 416.07 512.61 419.99C512.61 423.91 521.55 435.93 521.55 435.93C521.55 435.93 523.96 456.45 528.55 459.29C533.14 462.13 544.89 459.02 540.44 445.11C540.44 445.11 535.22 434.5 534.48 426.2L530.71 408.24L528.65 297.08L507.61 298.43L515.98 407.79Z" fill="#AC6DFF"/>
<path d="M484.38 156.62C495.57 158.77 506.83 158.61 518.15 156.62C518.15 156.62 531.64 168.23 533.68 226.59C535.72 284.95 539.29 387.31 539.29 387.31C533.16 388.34 526.62 389.16 519.9 389.72L511.48 311.13L498.97 390.55C479.66 390.55 464.51 389.35 448.68 387.31C454.85 288.11 461.43 190.51 484.38 156.62Z" fill="url(#paint0_linear_314_16381)"/>
<path d="M515.98 407.79C515.98 407.79 512.61 416.07 512.61 419.99C512.61 423.91 521.55 435.93 521.55 435.93C521.55 435.93 523.96 456.45 528.55 459.29C533.14 462.13 544.89 459.02 540.44 445.11C540.44 445.11 535.22 434.5 534.48 426.2C528.55 427.53 522.39 421.56 515.99 407.79H515.98Z" fill="#611EAB"/>
<path d="M449.33 405.69C438.59 426.48 416.17 409.6 413.25 430.13H469.84C469.84 430.13 471.69 421.62 465.84 411.75C458.67 413.23 454.79 412.52 449.33 405.69Z" fill="#611EAB"/>
<path d="M483.53 108.75C478.13 114.24 480.69 126.02 480.69 126.02L482.26 140.19" stroke="#22194D" stroke-width="0.99" stroke-linecap="round" stroke-linejoin="round"/>
<path d="M441.58 411.06L446.72 419.16L438.25 413.49L442.48 420.06L435.37 415.02L437.71 420.06" stroke="#22194D" stroke-width="0.99" stroke-linecap="round" stroke-linejoin="round"/>
<path d="M530.57 433.17L537.86 431.73L531.83 436.59L538.4 435.42L533.63 439.12H538.4" stroke="#22194D" stroke-width="0.99" stroke-linecap="round" stroke-linejoin="round"/>
<path d="M498.96 390.55L514.69 290.75" stroke="#22194D" stroke-width="0.99" stroke-linecap="round" stroke-linejoin="round"/>
<path d="M160.19 75.8599C159.54 75.4199 159.94 74.4099 160.72 74.5299C176.28 76.7599 189.88 69.7999 194.21 59.0399C197.55 50.7299 194.9 41.2899 190.27 35.3799C176.88 18.2899 148.51 23.0799 134.7 36.9199C123.37 48.2799 122.84 67.6699 134.87 78.6899C141.81 85.0499 151.31 88.9199 160.69 89.4399C171.59 90.0299 180.21 85.5499 184.87 82.4399C185.52 82.0099 185.13 80.9999 184.36 81.1099C178.48 81.9499 169.02 81.9399 160.2 75.8699L160.19 75.8599Z" fill="#929AFF"/>
<path d="M157.86 18.85C158.62 19.06 158.55 20.15 157.77 20.28C147.46 22.11 137.55 27.03 130.72 33.87C128.62 35.97 126.85 38.31 125.4 40.81C125.01 41.49 123.96 41.16 124.04 40.37C125.31 28.67 131.48 16.27 131.48 16.27C131.48 16.27 146.94 15.79 157.84 18.83L157.86 18.85Z" fill="#929AFF"/>
<path d="M191.72 375.11L190.81 405.69C201.55 426.48 223.97 409.6 226.89 430.13H170.3C170.3 430.13 168.45 421.62 174.3 411.75V376.46L191.72 375.11Z" fill="#929AFF"/>
<path d="M190.8 405.69C201.54 426.48 223.96 409.6 226.88 430.13H170.29C170.29 430.13 168.44 421.62 174.29 411.75C181.46 413.23 185.34 412.52 190.8 405.69Z" fill="#372B84"/>
<path d="M198.55 411.06L193.41 419.16L201.88 413.49L197.64 420.06L204.76 415.02L202.42 420.06" stroke="#22194D" stroke-width="0.99" stroke-linecap="round" stroke-linejoin="round"/>
<path d="M134.22 98.72C134.22 98.72 123.5 97.73 120.26 105.83C117.02 113.93 113.78 165.27 113.78 165.27C112.87 171.14 113.12 176.72 113.78 182.2L123.08 239.17C123.13 243.65 121.91 248.42 122.73 255.8C122.73 255.8 125.36 265.75 129.99 267.6C134.61 269.45 136.47 273.43 139.4 272.02C139.4 272.02 135.43 262.97 136.96 253.42C136.96 253.42 139.7 263.09 143.44 261.14C143.44 261.14 140.97 245.45 134.28 238.56C130.97 236.21 126.74 175.53 126.74 175.53L134.66 117.58L134.21 98.72H134.22Z" fill="#929AFF"/>
<path d="M147.61 189.05L186.76 192.78C186.76 192.78 174.18 97.1399 172.57 97.5199C163.1 99.7299 156.46 100.64 144.48 99.5199L147.61 189.05Z" fill="#DFE3FF"/>
<path d="M126.9 390.21C126.13 391.65 125.42 393.13 124.75 394.62C123.64 397.08 122.14 400.04 122.31 402.81L138.25 430.13H162.6C165.73 427.29 162.45 422.32 159.08 419.63C155.71 416.94 147.01 415.64 147.01 415.64C146.84 415.43 144.83 407.33 144.46 403.79C144.08 400.09 143.32 395.62 143.32 395.62C143.32 395.62 143.09 393.34 142.97 392.2L171.72 297.02L150.65 296.17L126.9 390.21Z" fill="#929AFF"/>
<path d="M124.75 394.62C123.64 397.08 122.14 400.04 122.31 402.81L138.25 430.13H162.6C165.73 427.29 162.45 422.32 159.08 419.63C155.71 416.94 147.01 415.64 147.01 415.64C146.84 415.43 144.83 407.33 144.46 403.79C144.08 400.09 143.32 395.62 143.32 395.62C136.57 398.65 130.47 397.83 124.75 394.62Z" fill="#372B84"/>
<path d="M131.63 254.72C131.71 264.76 133.02 272.48 138.61 272.02" stroke="#22194D" stroke-width="0.99" stroke-linecap="round" stroke-linejoin="round"/>
<path d="M131.34 268.29C128.17 266.32 126.69 262.08 126.26 254.07" stroke="#22194D" stroke-width="0.99" stroke-linecap="round" stroke-linejoin="round"/>
<path d="M141.18 408.19L148.58 407.51L142.08 411.72L148.73 411.24L143.6 414.42L148.35 414.91" stroke="#22194D" stroke-width="0.99" stroke-linecap="round" stroke-linejoin="round"/>
<path d="M136.75 180.12C134.54 187.64 132.59 195.6 131.75 207.34C130.91 219.09 139.96 260.4 147.09 297.72L118.78 401.63C127.67 404.85 136.57 405.27 145.46 402.87C145.46 402.87 175.36 315.25 177.54 297.18C179.71 279.11 165.14 215.29 165.14 215.29L171.87 407.35C177.47 408.41 185.83 406.76 195.26 404.03C195.26 404.03 198.33 206.11 191.75 185.06C173.6 186.69 155.28 185.44 136.73 180.12H136.75Z" fill="url(#paint1_linear_314_16381)"/>
<path d="M152.55 99.51C148.65 99.84 144.33 99.41 139.88 98.91C135.75 98.49 131.48 98.01 127.43 99.24C121.12 101.16 119.58 106.78 117.93 112.44C115.8 119.73 114.19 127.22 113.5 134.79L110.67 167.94C109.76 173.81 110.01 179.39 110.67 184.87L119.97 241.84L135.51 237.82C132.5 219.08 131.12 195.62 131.12 195.62L128.81 177.95L133.96 138.99L135.86 128.92C135.86 128.92 137.35 152.96 137.41 156.27C137.48 159.58 135.96 174.37 132.44 187.81C130.58 195.73 129.04 215.63 128.33 227.29C138.27 231.98 145.97 234.58 152.04 235.68C152.04 235.68 161.75 198.63 152.56 99.51H152.55Z" fill="#402CA7"/>
<path d="M133.84 181.92C133.84 181.92 131.89 189.98 130.47 200.96C129.05 211.94 128.32 227.3 128.32 227.3C132.06 229.14 136.75 231.09 142.57 233.16" stroke="#22194D" stroke-width="0.99" stroke-linecap="round" stroke-linejoin="round"/>
<path d="M181.87 97.6299C177.34 95.7799 171.71 96.9599 167.12 98.2799C166.61 98.4299 168.33 112.91 168.47 114.31C168.98 119.76 169.56 125.2 170.18 130.64C171.44 141.51 172.92 152.36 174.64 163.17C178.07 184.79 188.53 233.73 188.53 233.73C194.67 231.84 201.03 226.96 203.28 224.24C200.83 209 197.01 193.98 191.86 179.43C188.93 171.16 186.99 161.55 185.55 152.89C184.05 143.9 183.9 127.05 183.9 127.05L184.19 118.95L181.87 97.5999V97.6299Z" fill="#402CA7"/>
<path d="M134.68 115.2C134.68 115.2 135.52 123.43 135.85 128.93C136.18 134.44 136.94 147.24 136.94 147.24" stroke="#22194D" stroke-width="0.99" stroke-linecap="round" stroke-linejoin="round"/>
<path d="M165.62 216.15C165.62 216.15 180.6 281.56 177.55 297.18C174.5 312.8 161.37 354.7 161.37 354.7" stroke="#22194D" stroke-width="0.99" stroke-linecap="round" stroke-linejoin="round"/>
<path d="M163.91 93.24L156.12 82.09C156.12 82.09 150.78 84.74 156.98 90.79L136.47 80.08C136.47 80.08 133.61 83.74 144.24 89.52C144.24 89.52 142.94 91.58 143.78 93.16C143.78 93.16 142.38 95.77 142.99 97.21C143.6 98.65 149.1 104.6 149.1 104.6L159.87 108.54L164.25 122.01L178.15 113.8L163.89 93.25L163.91 93.24Z" fill="#929AFF"/>
<path d="M159.88 111.21C159.88 111.21 167.53 136.4 170.22 147.24C172.91 158.07 189.1 170.29 197.17 160.96C199.04 157.84 199.54 151.79 199.47 147.35C199.4 142.91 192.17 110.65 189.61 105.44C187.05 100.23 183.66 98.41 181.87 97.63L179.88 115.26L172.34 101.5L159.87 111.21H159.88Z" fill="#402CA7"/>
<path d="M167.5 105.27L172.34 101.5C172.34 101.5 183.24 119.96 189.66 138.11" stroke="#22194D" stroke-width="0.99" stroke-linecap="round" stroke-linejoin="round"/>
<path d="M170.22 147.24C175.64 164.27 193.15 167.57 197.17 160.96" stroke="#22194D" stroke-width="0.99" stroke-linecap="round" stroke-linejoin="round"/>
<path d="M150.78 99.16L143.78 93.16C143.78 93.16 142.87 91.53 144.24 89.52" stroke="#22194D" stroke-width="0.99" stroke-linecap="round" stroke-linejoin="round"/>
<path d="M154.97 95.4599C145.87 90.2999 134.63 85.1099 136.47 80.0699L156.98 90.7799C150.78 84.4299 156.12 82.0799 156.12 82.0799L163.91 93.2299" stroke="#22194D" stroke-width="0.99" stroke-linecap="round" stroke-linejoin="round"/>
<path d="M580.6 105.83H455.96C453.662 105.83 451.8 107.692 451.8 109.99V201.39C451.8 203.687 453.662 205.55 455.96 205.55H580.6C582.897 205.55 584.76 203.687 584.76 201.39V109.99C584.76 107.692 582.897 105.83 580.6 105.83Z" fill="#F9F5FF" stroke="#E6D4FF" stroke-width="0.99" stroke-linecap="round" stroke-linejoin="round"/>
<path d="M518.44 155.76L509.19 123.51C512.18 122.65 515.33 122.21 518.44 122.21V155.76Z" fill="#9C51FB" stroke="#E6D4FF" stroke-width="0.99" stroke-linecap="round" stroke-linejoin="round"/>
<path d="M518.44 155.76L495.99 130.83C499.94 127.27 504.08 124.98 509.19 123.51L518.44 155.76Z" fill="#AC6DFF" stroke="#E6D4FF" stroke-width="0.99" stroke-linecap="round" stroke-linejoin="round"/>
<path d="M518.44 155.76L484.93 154C485.42 144.58 488.98 137.13 495.99 130.82L518.44 155.75V155.76Z" fill="#D3B2FF" stroke="#E6D4FF" stroke-width="0.99" stroke-linecap="round" stroke-linejoin="round"/>
<path d="M518.44 155.76L539.56 181.83C525.16 193.49 504.03 191.27 492.37 176.87C486.98 170.22 484.49 162.55 484.94 154L518.45 155.76H518.44Z" fill="#E6D4FF" stroke="#E6D4FF" stroke-width="0.99" stroke-linecap="round" stroke-linejoin="round"/>
<path d="M521.96 156.52L540.23 128.38C555.77 138.47 560.19 159.25 550.1 174.79C548.09 177.88 545.94 180.27 543.08 182.59L521.96 156.52Z" fill="#F1E7FF" stroke="#E6D4FF" stroke-width="0.99" stroke-linecap="round" stroke-linejoin="round"/>
<path d="M520.92 152.62V119.07C527.83 119.07 533.4 120.72 539.19 124.48L520.92 152.62Z" fill="white" stroke="#E6D4FF" stroke-width="0.99" stroke-linecap="round" stroke-linejoin="round"/>
<path d="M444.32 134.46C444.32 134.46 436.53 139.74 441.42 147.71C446.3 155.69 454.3 158.3 454.3 158.3C456.84 155.66 452.53 151.1 447.69 147.25L457.56 152.95C459.83 150.14 455.13 145.52 449.65 141.38L460.17 147.96C461.7 144.41 458.46 140.98 453.84 138.11C453.84 138.11 446.15 133.5 444.31 134.46H444.32Z" fill="#AC6DFF"/>
<path d="M449.66 141.38L460.18 147.96C460.18 147.96 463.76 142.61 449.86 135.97" stroke="#22194D" stroke-width="0.99" stroke-linecap="round" stroke-linejoin="round"/>
<path d="M457.57 152.95L447.7 147.25C447.7 147.25 457.88 154.82 454.31 158.3C440.48 152.4 435.54 140.62 444.33 134.45" stroke="#22194D" stroke-width="0.99" stroke-linecap="round" stroke-linejoin="round"/>
<defs>
<linearGradient id="paint0_linear_314_16381" x1="446.42" y1="207.37" x2="537.96" y2="365.92" gradientUnits="userSpaceOnUse">
<stop stop-color="#721ED2"/>
<stop offset="1" stop-color="#611EAB"/>
</linearGradient>
<linearGradient id="paint1_linear_314_16381" x1="101.62" y1="200.41" x2="213.21" y2="393.68" gradientUnits="userSpaceOnUse">
<stop stop-color="#4E33CF"/>
<stop offset="1" stop-color="#5B41EA"/>
</linearGradient>
</defs>
</svg>
