<svg width="96" height="24" viewBox="0 0 96 24" fill="none" xmlns="http://www.w3.org/2000/svg">
<path fill-rule="evenodd" clip-rule="evenodd" d="M86 0H6C4.89543 0 4 0.895431 4 2C4 3.10457 4.89543 4 6 4H86C87.1046 4 88 3.10457 88 2C88 0.895431 87.1046 0 86 0ZM6 20C4.89543 20 4 20.8954 4 22C4 23.1046 4.89543 24 6 24H86C87.1046 24 88 23.1046 88 22C88 20.8954 87.1046 20 86 20H6Z" fill="#7E7DFC"/>
<path d="M6 4V20H86V4H6Z" fill="#DFE3FF"/>
<path d="M6 7H63M41 12H86M26 17H51" stroke="#7E7DFC" stroke-linecap="round" stroke-linejoin="round"/>
</svg>
