<svg width="96" height="24" viewBox="0 0 96 24" fill="none" xmlns="http://www.w3.org/2000/svg">
<path fill-rule="evenodd" clip-rule="evenodd" d="M84 0H14C12.8954 0 12 0.895431 12 2C12 3.10457 12.8954 4 14 4H84C88.4183 4 92 7.58172 92 12C92 16.4183 88.4183 20 84 20H14C12.8954 20 12 20.8954 12 22C12 23.1046 12.8954 24 14 24H84C90.6274 24 96 18.6274 96 12C96 5.37258 90.6274 0 84 0Z" fill="#B3B6C6"/>
<path d="M84 20C88.4183 20 92 16.4183 92 12C92 7.58172 88.4183 4 84 4H14V20H84Z" fill="#EDEEF2"/>
<path d="M71 7H14M82 12H47M60 16H14" stroke="#B3B6C6" stroke-linecap="round" stroke-linejoin="round"/>
</svg>
