<svg width="96" height="24" viewBox="0 0 96 24" fill="none" xmlns="http://www.w3.org/2000/svg">
<path fill-rule="evenodd" clip-rule="evenodd" d="M90 0H20.0042C13.3767 0 8.00416 5.37259 8.00416 12C8.00417 18.6274 13.3768 24 20.0042 24H90C91.1046 24 92 23.1046 92 22C92 20.8954 91.1046 20 90 20H20.0001C15.5818 20 12.0001 16.4183 12.0001 12C12.0001 7.58173 15.5818 4 20.0001 4H90C91.1046 4 92 3.10457 92 2C92 0.895431 91.1046 0 90 0Z" fill="#7E7DFC"/>
<path d="M20.0001 4C15.5818 4 12.0001 7.58173 12.0001 12C12.0001 16.4183 15.5818 20 20.0001 20H90V4H20.0001Z" fill="#DFE3FF"/>
<path d="M34 8H90.0002M45 13H90.0002M61 17H86" stroke="#7E7DFC" stroke-linecap="round" stroke-linejoin="round"/>
</svg>
