<svg width="96" height="24" viewBox="0 0 96 24" fill="none" xmlns="http://www.w3.org/2000/svg">
<path fill-rule="evenodd" clip-rule="evenodd" d="M82 0H12.0042C5.37675 0 0.00415599 5.37259 0.00416291 12C0.00416982 18.6274 5.37675 24 12.0042 24H82C83.1046 24 84 23.1046 84 22C84 20.8954 83.1046 20 82 20H12.0001C7.58178 20 4.00007 16.4183 4.00006 12C4.00006 7.58173 7.58178 4 12.0001 4H82C83.1046 4 84 3.10457 84 2C84 0.895431 83.1046 0 82 0Z" fill="#7E7DFC"/>
<path d="M12.0001 4C7.58178 4 4.00006 7.58173 4.00006 12C4.00007 16.4183 7.58178 20 12.0001 20H82V4H12.0001Z" fill="#DFE3FF"/>
<path d="M26 8H82.0002M37 13H82.0002M53 17H78" stroke="#7E7DFC" stroke-linecap="round" stroke-linejoin="round"/>
</svg>
