<svg width="201" height="56" viewBox="0 0 201 56" fill="none" xmlns="http://www.w3.org/2000/svg">
<g clip-path="url(#clip0_314_16773)">
<path d="M107.81 19.5286C107.427 18.531 106.852 17.6235 106.089 16.8137C105.322 16.0039 104.364 15.3623 103.206 14.889C102.048 14.4156 100.691 14.1809 99.1297 14.1809H93.6882C92.6945 14.1809 91.8848 14.9868 91.8848 15.9843V31.6127H99.1297C100.691 31.6127 102.048 31.3662 103.206 30.8694C104.364 30.3726 105.322 29.7154 106.089 28.8939C106.852 28.0763 107.427 27.1609 107.81 26.1555C108.194 25.1462 108.389 24.1408 108.389 23.1315V22.6151C108.389 21.5589 108.194 20.534 107.81 19.5325V19.5286ZM105.319 25.3848C105.037 26.1633 104.614 26.8362 104.055 27.4034C103.496 27.9706 102.827 28.4127 102.048 28.7374C101.27 29.0582 100.378 29.2186 99.3684 29.2186H94.4588V17.4396C94.4588 16.9428 94.8618 16.5398 95.3586 16.5398H99.3684C100.378 16.5398 101.27 16.6885 102.048 16.9897C102.827 17.2909 103.496 17.7252 104.055 18.2885C104.61 18.8557 105.033 19.5247 105.319 20.2953C105.6 21.066 105.745 21.9227 105.745 22.8655C105.745 23.8083 105.6 24.6024 105.319 25.3809V25.3848Z" fill="#22194D"/>
<path d="M116.741 31.6087H109.919V25.0092C109.927 24.1564 110.079 23.4366 110.392 22.5603C112.477 17.0131 121.025 17.0092 123.11 22.5603C123.427 23.4288 123.583 24.1407 123.595 24.9896C123.642 28.6669 120.951 31.6713 116.749 31.6048L116.741 31.6087ZM116.741 29.3906C119.484 29.4845 121.049 27.3916 121.052 25.0248C121.052 24.2346 120.88 23.5931 120.52 22.8615C119.167 19.9158 114.336 19.9158 112.974 22.8615C112.626 23.597 112.454 24.2385 112.454 25.0248V29.3906H116.741Z" fill="#22194D"/>
<path d="M131.611 31.9412C130.508 31.9412 129.561 31.7534 128.767 31.374C127.973 30.9945 127.312 30.4938 126.784 29.8639C126.255 29.2341 125.864 28.53 125.602 27.7515C125.344 26.973 125.211 26.1906 125.211 25.4004V24.974C125.211 24.1564 125.34 23.3544 125.602 22.5759C125.86 21.7974 126.259 21.0972 126.795 20.4752C127.331 19.8532 127.996 19.3525 128.79 18.9769C129.585 18.5974 130.512 18.4097 131.564 18.4097C132.616 18.4097 133.594 18.6131 134.443 19.0238C135.292 19.4346 135.977 20.0058 136.497 20.7373C137.017 21.4688 137.307 22.3256 137.369 23.2996H134.936C134.827 22.5446 134.482 21.9148 133.907 21.4102C133.332 20.9055 132.55 20.6551 131.556 20.6551C130.707 20.6551 129.999 20.8507 129.432 21.2459C128.865 21.641 128.438 22.1769 128.157 22.8654C127.875 23.55 127.73 24.3246 127.73 25.193C127.73 26.0615 127.867 26.793 128.145 27.4855C128.419 28.1779 128.845 28.7256 129.42 29.1285C129.995 29.5314 130.723 29.7309 131.603 29.7309C132.264 29.7309 132.843 29.6097 133.34 29.3632C133.837 29.1207 134.232 28.7921 134.533 28.3813C134.83 27.9705 135.014 27.5089 135.077 26.9886H137.487C137.44 27.9979 137.15 28.8703 136.626 29.6097C136.098 30.349 135.402 30.9241 134.537 31.3349C133.673 31.7456 132.695 31.949 131.607 31.949L131.611 31.9412Z" fill="#22194D"/>
<path d="M151.272 24.6415C151.272 23.5696 151.049 22.5642 150.6 21.6175C150.15 20.6708 149.481 19.9001 148.581 19.3055C147.685 18.7031 146.551 18.4058 145.181 18.4058C144.125 18.4058 143.206 18.5896 142.42 18.9613C141.633 19.329 140.984 19.8336 140.471 20.4596C139.959 21.0894 139.58 21.7896 139.329 22.5603C139.075 23.3309 138.95 24.1329 138.95 24.9701V25.3965C138.95 26.1984 139.075 26.9886 139.329 27.7671C139.58 28.5456 139.963 29.2498 140.471 29.8718C140.984 30.4899 141.645 30.9906 142.455 31.3701C143.265 31.7495 144.223 31.9373 145.326 31.9373C146.336 31.9373 147.231 31.7652 148.029 31.4287C148.824 31.0884 149.485 30.6033 150.013 29.9618C150.541 29.328 150.889 28.573 151.061 27.7085H148.698C148.573 28.26 148.217 28.7373 147.623 29.1481C147.032 29.5588 146.265 29.7622 145.322 29.7622C144.38 29.7622 143.656 29.5666 143.065 29.1715C142.474 28.7803 142.04 28.2366 141.755 27.5442C141.528 26.9926 141.391 26.3745 141.348 25.7016H151.272V24.6415ZM141.434 23.9334C141.504 23.5187 141.614 23.1393 141.759 22.7872C142.04 22.1026 142.467 21.5627 143.034 21.1676C143.601 20.7764 144.317 20.5808 145.181 20.5808C146.003 20.5808 146.684 20.7569 147.239 21.1129C147.791 21.4649 148.198 21.9618 148.468 22.5994C148.636 22.9984 148.749 23.4444 148.812 23.9334H141.438H141.434Z" fill="#22194D"/>
<path d="M164.796 24.2857V31.6089H162.269V23.8632C162.269 22.9321 162.007 22.1849 161.483 21.6177C160.951 21.0504 160.235 20.7649 159.323 20.7649C158.412 20.7649 157.614 21.0583 157.031 21.6372C156.448 22.2201 156.158 23.0025 156.158 23.9766V31.605H153.631V18.6837H155.615V21.8915C155.681 21.6099 155.767 21.3399 155.861 21.0935C156.202 20.2289 156.718 19.5717 157.41 19.1218C158.103 18.672 158.967 18.449 160.008 18.449H160.125C161.702 18.449 162.875 18.9458 163.642 19.9355C164.413 20.9253 164.8 22.3766 164.8 24.2817L164.796 24.2857Z" fill="#22194D"/>
<path d="M170.554 20.5574V27.3095C170.554 27.9706 170.734 28.4831 171.098 28.843C171.462 29.2068 171.971 29.3867 172.632 29.3867H174.807V31.6087H172.894C171.885 31.6087 171.028 31.4679 170.32 31.1941C169.612 30.9202 169.072 30.4469 168.7 29.7779C168.332 29.109 168.145 28.1975 168.145 27.0474V20.5535H166.021V18.6875C167.194 18.6875 168.145 17.7368 168.145 16.5633V15.3818H170.554V18.6875H174.807V20.5535H170.554V20.5574Z" fill="#22194D"/>
<path d="M188.096 24.6415C188.096 23.5696 187.873 22.5642 187.427 21.6175C186.977 20.6708 186.304 19.9001 185.405 19.3055C184.509 18.7031 183.374 18.4058 182.005 18.4058C180.949 18.4058 180.03 18.5896 179.243 18.9613C178.457 19.329 177.808 19.8336 177.295 20.4596C176.783 21.0894 176.403 21.7896 176.153 22.5603C175.899 23.3309 175.773 24.1329 175.773 24.9701V25.3965C175.773 26.1984 175.899 26.9886 176.153 27.7671C176.403 28.5456 176.787 29.2498 177.295 29.8718C177.808 30.4899 178.469 30.9906 179.279 31.3701C180.088 31.7495 181.047 31.9373 182.15 31.9373C183.159 31.9373 184.055 31.7652 184.853 31.4287C185.647 31.0884 186.308 30.6033 186.837 29.9618C187.365 29.328 187.713 28.573 187.885 27.7085H185.522C185.397 28.26 185.041 28.7373 184.446 29.1481C183.859 29.5588 183.089 29.7622 182.146 29.7622C181.203 29.7622 180.48 29.5666 179.889 29.1715C179.302 28.7803 178.864 28.2366 178.578 27.5442C178.351 26.9926 178.215 26.3745 178.171 25.7016H188.092V24.6415H188.096ZM178.258 23.9334C178.328 23.5187 178.437 23.1393 178.582 22.7872C178.864 22.1026 179.29 21.5627 179.858 21.1676C180.425 20.7764 181.141 20.5808 182.005 20.5808C182.827 20.5808 183.507 20.7569 184.063 21.1129C184.615 21.4649 185.021 21.9618 185.291 22.5994C185.459 22.9984 185.573 23.4444 185.636 23.9334H178.261H178.258Z" fill="#22194D"/>
<path d="M194.856 31.8944C193.17 31.8944 191.863 31.5345 190.936 30.8186C190.009 30.1027 189.528 29.1208 189.497 27.8768H191.836C191.867 28.3502 192.114 28.7883 192.579 29.1991C193.045 29.6098 193.812 29.8132 194.883 29.8132C195.826 29.8132 196.562 29.6294 197.078 29.2577C197.598 28.8861 197.856 28.4284 197.856 27.8768C197.856 27.3722 197.665 26.9849 197.278 26.7071C196.89 26.4333 196.264 26.2455 195.4 26.1516L194.078 26.0108C192.818 25.8856 191.812 25.514 191.054 24.8998C190.299 24.2856 189.919 23.4445 189.919 22.3727C189.919 21.555 190.126 20.8548 190.545 20.2719C190.964 19.689 191.539 19.2431 192.282 18.9379C193.021 18.6289 193.87 18.4763 194.833 18.4763C196.28 18.4763 197.457 18.801 198.361 19.4465C199.265 20.092 199.742 21.0465 199.789 22.3022H197.45C197.418 21.8132 197.188 21.4025 196.753 21.0621C196.319 20.7257 195.67 20.5536 194.805 20.5536C193.988 20.5536 193.358 20.7218 192.916 21.0621C192.474 21.4025 192.255 21.8289 192.255 22.3492C192.255 22.7912 192.411 23.1433 192.728 23.4132C193.041 23.6793 193.569 23.8553 194.308 23.9335L195.607 24.0744C197.008 24.2152 198.123 24.6025 198.948 25.2323C199.773 25.8621 200.188 26.7345 200.188 27.8533C200.188 28.6396 199.965 29.3399 199.515 29.9541C199.065 30.5683 198.439 31.0455 197.637 31.3819C196.835 31.7223 195.904 31.8905 194.852 31.8905L194.856 31.8944Z" fill="#22194D"/>
<path d="M102.51 37.9619V44.5262C102.044 43.7712 101.446 43.2079 100.726 42.8284C99.9472 42.4177 99.0709 42.2142 98.0929 42.2142C97.1775 42.2142 96.3482 42.3825 95.601 42.7189C94.8538 43.0592 94.2083 43.5248 93.6646 44.1233C93.1208 44.7257 92.7022 45.4181 92.4127 46.2005C92.1194 46.9869 91.9746 47.8397 91.9746 48.7512V49.201C91.9746 50.1125 92.1233 50.9653 92.4245 51.7516C92.7218 52.538 93.1521 53.2343 93.7076 53.8289C94.267 54.4314 94.9242 54.893 95.6832 55.2255C96.4382 55.5541 97.2675 55.7223 98.1634 55.7223C99.1061 55.7223 99.9864 55.515 100.8 55.1081C101.61 54.6974 102.275 54.048 102.791 53.16C102.881 53.0113 102.959 52.8548 103.03 52.6905V55.3937H105.037V37.9619H102.51ZM102.603 49.3692C102.603 50.2338 102.424 50.9771 102.06 51.5991C101.696 52.2211 101.215 52.7023 100.608 53.0387C100.002 53.379 99.3291 53.5472 98.5898 53.5472C97.8035 53.5472 97.0954 53.3595 96.4773 52.98C95.8553 52.6005 95.3702 52.0724 95.026 51.3839C94.6778 50.6993 94.5057 49.8935 94.5057 48.9663C94.5057 48.0392 94.6778 47.2529 95.0142 46.5683C95.3546 45.8837 95.8318 45.3516 96.446 44.9644C97.0602 44.581 97.7683 44.3854 98.5702 44.3854C99.2939 44.3854 99.9668 44.5458 100.577 44.8587C101.191 45.1717 101.684 45.6216 102.052 46.2045C102.424 46.7873 102.607 47.4993 102.607 48.3326V49.3732L102.603 49.3692Z" fill="#22194D"/>
<path d="M114.246 55.3897H107.423V48.7902C107.431 47.9374 107.584 47.2176 107.897 46.3413C109.982 40.7941 118.529 40.7902 120.615 46.3413C120.931 47.2098 121.088 47.9217 121.1 48.7706C121.147 52.4479 118.455 55.4523 114.254 55.3858L114.246 55.3897ZM114.246 53.1716C116.988 53.2655 118.553 51.1726 118.557 48.8059C118.557 48.0156 118.385 47.3741 118.025 46.6425C116.671 43.6968 111.84 43.6968 110.479 46.6425C110.13 47.378 109.958 48.0195 109.958 48.8059V53.1716H114.246Z" fill="#22194D"/>
<path d="M143.468 47.7653C143.007 47.1668 142.377 46.7326 141.583 46.4626C142.048 46.2123 142.443 45.8798 142.76 45.4729C143.249 44.8431 143.496 44.002 143.496 42.9458V42.6172C143.496 41.1189 143.018 39.9727 142.064 39.1668C141.109 38.3609 139.681 37.9619 137.776 37.9619H131.271C130.277 37.9619 129.467 38.7678 129.467 39.7653V55.3937H138.484C139.764 55.3937 140.824 55.2098 141.673 54.8382C142.525 54.4705 143.155 53.9306 143.578 53.2186C143.992 52.5106 144.204 51.6499 144.204 50.6446V50.3159C144.204 49.2441 143.957 48.3952 143.468 47.7653ZM138.156 40.1604C139.087 40.1604 139.771 40.4108 140.213 40.9155C140.652 41.4201 140.875 42.0734 140.875 42.8754C140.875 43.6773 140.652 44.3032 140.213 44.8001C139.771 45.2969 139.087 45.5433 138.156 45.5433H132.022V41.0602C132.022 40.5634 132.425 40.1604 132.922 40.1604H138.152H138.156ZM140.859 52.4402C140.378 52.9409 139.689 53.1952 138.793 53.1952H132.022V47.6675H138.793C139.689 47.6675 140.378 47.914 140.859 48.3991C141.34 48.8881 141.579 49.557 141.579 50.4059C141.579 51.2548 141.336 51.9316 140.859 52.4362V52.4402Z" fill="#22194D"/>
<path d="M154.093 42.4724V44.7179H153.268C152.039 44.7179 151.096 45.0465 150.447 45.6998C149.794 46.3531 149.469 47.292 149.469 48.5203V55.3937H146.942V42.4724H148.925V46.6152C149.07 45.4025 149.453 44.4597 150.056 43.7947C150.862 42.9145 152.055 42.4724 153.647 42.4724H154.097H154.093Z" fill="#22194D"/>
<path d="M164.671 44.4949C164.26 43.7907 163.638 43.2822 162.805 42.9614C161.968 42.6367 160.908 42.4763 159.617 42.4763C159.222 42.4763 158.811 42.4841 158.388 42.4881C157.966 42.4959 157.547 42.5115 157.141 42.535C156.73 42.5585 156.354 42.5859 156.006 42.6171V44.8118C156.386 44.7805 156.82 44.757 157.317 44.7414C157.813 44.7257 158.326 44.7101 158.85 44.6944C159.378 44.6788 159.871 44.6709 160.329 44.6709C161.162 44.6709 161.792 44.8822 162.218 45.2969C162.645 45.7154 162.856 46.3374 162.856 47.1746V47.4367H159.809C158.721 47.4367 157.782 47.5893 156.988 47.8983C156.194 48.2035 155.587 48.6572 155.169 49.2558C154.754 49.8543 154.543 50.6093 154.543 51.5208C154.543 52.4323 154.735 53.1247 155.11 53.7428C155.486 54.357 156.018 54.8225 156.702 55.1472C157.391 55.468 158.201 55.6284 159.147 55.6284C160.028 55.6284 160.783 55.468 161.405 55.155C162.023 54.8421 162.516 54.3766 162.868 53.7624C163.036 53.469 163.177 53.1443 163.282 52.7883V55.3937H165.289V47.3154C165.289 46.1379 165.086 45.1951 164.675 44.4949H164.671ZM161.201 53.4103C160.743 53.5981 160.254 53.692 159.734 53.692C158.866 53.692 158.201 53.4846 157.727 53.0739C157.258 52.667 157.019 52.1311 157.019 51.47C157.019 50.8088 157.258 50.2651 157.727 49.8426C158.201 49.4162 158.87 49.2049 159.734 49.2049H162.852V50.5976C162.821 51.3839 162.653 52.002 162.343 52.4519C162.034 52.9017 161.655 53.2186 161.201 53.4103Z" fill="#22194D"/>
<path d="M172.714 55.6752C171.028 55.6752 169.721 55.3153 168.794 54.5994C167.867 53.8835 167.386 52.9016 167.354 51.6576H169.694C169.725 52.1309 169.972 52.5691 170.437 52.9798C170.903 53.3906 171.669 53.594 172.741 53.594C173.684 53.594 174.42 53.4101 174.936 53.0385C175.456 52.6669 175.714 52.2092 175.714 51.6576C175.714 51.1529 175.523 50.7656 175.135 50.4879C174.748 50.214 174.122 50.0263 173.258 49.9324L171.935 49.7916C170.676 49.6664 169.67 49.2947 168.911 48.6806C168.156 48.0664 167.777 47.2253 167.777 46.1534C167.777 45.3358 167.984 44.6356 168.403 44.0527C168.821 43.4698 169.397 43.0238 170.14 42.7187C170.879 42.4096 171.728 42.2571 172.69 42.2571C174.138 42.2571 175.315 42.5818 176.219 43.2273C177.123 43.8727 177.6 44.8273 177.647 46.083H175.308C175.276 45.594 175.045 45.1832 174.611 44.8429C174.177 44.5065 173.528 44.3343 172.663 44.3343C171.845 44.3343 171.216 44.5026 170.774 44.8429C170.332 45.1832 170.112 45.6096 170.112 46.1299C170.112 46.572 170.269 46.9241 170.586 47.194C170.899 47.46 171.427 47.6361 172.166 47.7143L173.465 47.8551C174.866 47.996 175.98 48.3832 176.806 49.0131C177.631 49.6429 178.046 50.5153 178.046 51.6341C178.046 52.4204 177.823 53.1207 177.373 53.7348C176.923 54.349 176.297 54.8263 175.495 55.1627C174.693 55.503 173.762 55.6713 172.71 55.6713L172.714 55.6752Z" fill="#22194D"/>
<path d="M182.553 42.4724H180.025V55.3937H182.553V42.4724Z" fill="#22194D"/>
<path d="M182.553 39.1667H180.025V41.6939H182.553V39.1667Z" fill="#22194D"/>
<path d="M187.611 37.9619H185.084V55.3937H187.611V37.9619Z" fill="#22194D"/>
<path style="mix-blend-mode:multiply" d="M25.3927 41.2989C24.9467 40.9937 25.2206 40.3052 25.7565 40.3795C36.4675 41.917 45.8289 37.1248 48.8059 29.7194C51.1062 23.9962 49.2793 17.5023 46.091 13.4338C36.8744 1.6705 17.3458 4.96438 7.83965 14.494C0.0469834 22.3101 -0.316831 35.6578 7.96092 43.2431C12.7414 47.6206 19.2744 50.2886 25.737 50.6407C33.2441 51.0514 39.1707 47.961 42.3785 45.825C42.8245 45.5277 42.5585 44.8314 42.0304 44.9096C37.9815 45.4847 31.4719 45.4847 25.3966 41.3028L25.3927 41.2989Z" fill="url(#paint0_linear_314_16773)"/>
<path style="mix-blend-mode:multiply" d="M23.7889 2.06163C24.3092 2.20638 24.2623 2.95357 23.7302 3.04745C16.6339 4.30711 9.81141 7.69489 5.11312 12.4049C3.6696 13.8523 2.44907 15.4641 1.45542 17.1854C1.1855 17.6548 0.461779 17.424 0.520459 16.8841C1.39283 8.82545 5.64515 0.297331 5.64515 0.297331C5.64515 0.297331 16.2857 -0.0312753 23.7889 2.06163Z" fill="url(#paint1_linear_314_16773)"/>
<path style="mix-blend-mode:multiply" d="M60.049 20.3189C60.495 20.624 60.2211 21.3125 59.6852 21.2382C48.9742 19.7008 39.6128 24.4929 36.6358 31.8983C34.3355 37.6215 36.1624 44.1154 39.3507 48.1839C48.5673 59.9472 68.0959 56.6533 77.602 47.1237C85.3986 39.3076 85.7624 25.956 77.4847 18.3707C72.7042 13.9932 66.1712 11.3252 59.7086 10.9731C52.2016 10.5624 46.2749 13.6528 43.0671 15.7888C42.6211 16.0861 42.8871 16.7824 43.4152 16.7042C47.4641 16.1291 53.9737 16.1291 60.049 20.311V20.3189Z" fill="url(#paint2_linear_314_16773)"/>
</g>
<defs>
<linearGradient id="paint0_linear_314_16773" x1="15.4876" y1="9.04458" x2="38.1653" y2="48.3287" gradientUnits="userSpaceOnUse">
<stop stop-color="#929AFF"/>
<stop offset="0.18" stop-color="#8E94FD"/>
<stop offset="0.42" stop-color="#8483F9"/>
<stop offset="0.69" stop-color="#7368F3"/>
<stop offset="0.98" stop-color="#5C43EA"/>
<stop offset="1" stop-color="#5B41EA"/>
</linearGradient>
<linearGradient id="paint1_linear_314_16773" x1="6.5762" y1="-0.242522" x2="34.496" y2="48.1174" gradientUnits="userSpaceOnUse">
<stop stop-color="#929AFF"/>
<stop offset="0.14" stop-color="#8383F9"/>
<stop offset="0.36" stop-color="#7266F2"/>
<stop offset="0.58" stop-color="#6551ED"/>
<stop offset="0.79" stop-color="#5D45EA"/>
<stop offset="1" stop-color="#5B41EA"/>
</linearGradient>
<linearGradient id="paint2_linear_314_16773" x1="47.2764" y1="13.289" x2="69.9541" y2="52.5731" gradientUnits="userSpaceOnUse">
<stop stop-color="#AC6DFF"/>
<stop offset="0.23" stop-color="#A867FD"/>
<stop offset="0.53" stop-color="#9E56F9"/>
<stop offset="0.86" stop-color="#8E3BF2"/>
<stop offset="1" stop-color="#862EEF"/>
</linearGradient>
<clipPath id="clip0_314_16773">
<rect width="200.712" height="56" fill="white"/>
</clipPath>
</defs>
</svg>
