<svg width="61" height="40" viewBox="0 0 61 40" fill="none" xmlns="http://www.w3.org/2000/svg">
<g clip-path="url(#clip0_314_16793)">
<g style="mix-blend-mode:multiply">
<path d="M18.4386 29.4992C18.12 29.2812 18.3156 28.7894 18.6984 28.8425C26.3492 29.9406 33.0359 26.5177 35.1623 21.2281C36.8053 17.1401 35.5004 12.5016 33.2231 9.59555C26.6398 1.19318 12.6908 3.54595 5.90068 10.3528C0.331697 15.9358 0.0718302 25.4726 5.98451 30.8907C9.39911 34.0175 14.0655 35.9232 18.6817 36.1747C24.0439 36.4681 28.2772 34.2606 30.5685 32.7349C30.8871 32.5226 30.6971 32.0252 30.3198 32.0811C27.4278 32.4918 22.7781 32.4918 18.4386 29.5047V29.4992Z" fill="#929AFF"/>
</g>
<g style="mix-blend-mode:multiply">
<path d="M17.2931 1.4726C17.6648 1.57598 17.6313 2.10969 17.2512 2.17675C12.1824 3.07651 7.30921 5.49635 3.95329 8.86065C2.92221 9.89453 2.05039 11.0458 1.34065 12.2753C1.14784 12.6106 0.630903 12.4457 0.672817 12.0601C1.29594 6.30389 4.33052 0.212379 4.33052 0.212379C4.33052 0.212379 11.9309 -0.0223395 17.2904 1.4726H17.2931Z" fill="#929AFF"/>
</g>
<g style="mix-blend-mode:multiply">
<path d="M43.1931 14.5135C43.5117 14.7315 43.3161 15.2233 42.9333 15.1702C35.2825 14.072 28.5958 17.495 26.4694 22.7846C24.8264 26.8726 26.1313 31.5111 28.4086 34.4171C34.9919 42.8195 48.9409 40.4667 55.731 33.6599C61.3 28.0769 61.5599 18.5401 55.6472 13.122C52.2326 9.9952 47.5662 8.08951 42.95 7.83802C37.5878 7.54462 33.3545 9.7521 31.0632 11.2778C30.7446 11.4901 30.9347 11.9875 31.3119 11.9316C34.204 11.5209 38.8536 11.5209 43.1931 14.5079V14.5135Z" fill="#AC6DFF"/>
</g>
</g>
<defs>
<clipPath id="clip0_314_16793">
<rect width="59.4062" height="40" fill="white" transform="translate(0.62793)"/>
</clipPath>
</defs>
</svg>
