<svg width="32" height="32" viewBox="0 0 32 32" fill="none" xmlns="http://www.w3.org/2000/svg">
<g clip-path="url(#clip0_314_16769)">
<g style="mix-blend-mode:multiply">
<path d="M16.1398 25.97C15.8598 25.78 16.0298 25.34 16.3698 25.39C23.1198 26.36 29.0098 23.34 30.8898 18.67C32.3398 15.07 31.1898 10.98 29.1798 8.40995C23.3698 0.999955 11.0698 3.07995 5.08982 9.07995C0.169818 14 -0.0601819 22.41 5.14982 27.19C8.15982 29.95 12.2798 31.63 16.3498 31.85C21.0798 32.11 24.8098 30.16 26.8298 28.82C27.1098 28.63 26.9398 28.19 26.6098 28.24C24.0598 28.6 19.9598 28.6 16.1298 25.97H16.1398Z" fill="#929AFF"/>
</g>
<g style="mix-blend-mode:multiply">
<path d="M15.12 1.24992C15.45 1.33992 15.42 1.80992 15.08 1.86992C10.61 2.65992 6.30997 4.79992 3.34997 7.75992C2.43997 8.66992 1.66997 9.68992 1.04997 10.7699C0.879973 11.0699 0.419973 10.9199 0.459973 10.5799C1.01997 5.50992 3.69997 0.139921 3.69997 0.139921C3.69997 0.139921 10.4 -0.0700791 15.13 1.24992H15.12Z" fill="#929AFF"/>
</g>
</g>
<defs>
<clipPath id="clip0_314_16769">
<rect width="32" height="32" fill="white"/>
</clipPath>
</defs>
</svg>
