<svg width="144" height="40" viewBox="0 0 144 40" fill="none" xmlns="http://www.w3.org/2000/svg">
<g clip-path="url(#clip0_314_16801)">
<path d="M77.3447 13.9489C77.0709 13.2364 76.6601 12.5881 76.1152 12.0097C75.5676 11.4313 74.883 10.973 74.0559 10.6349C73.2288 10.2968 72.2591 10.1292 71.1442 10.1292H67.2574C66.5477 10.1292 65.9692 10.7048 65.9692 11.4173V22.5804H71.1442C72.2591 22.5804 73.2288 22.4044 74.0559 22.0495C74.883 21.6946 75.5676 21.2252 76.1152 20.6384C76.6601 20.0544 77.0709 19.4005 77.3447 18.6824C77.6186 17.9615 77.7583 17.2434 77.7583 16.5224V16.1536C77.7583 15.3991 77.6186 14.667 77.3447 13.9517V13.9489ZM75.5648 18.1319C75.3636 18.688 75.0618 19.1686 74.6622 19.5738C74.2626 19.979 73.7848 20.2947 73.2288 20.5266C72.6727 20.7558 72.0356 20.8703 71.3147 20.8703H67.8079V12.4568C67.8079 12.1019 68.0957 11.8141 68.4505 11.8141H71.3147C72.0356 11.8141 72.6727 11.9203 73.2288 12.1354C73.7848 12.3506 74.2626 12.6608 74.6622 13.0631C75.059 13.4683 75.3608 13.9461 75.5648 14.4966C75.766 15.0471 75.8693 15.659 75.8693 16.3324C75.8693 17.0059 75.766 17.5731 75.5648 18.1292V18.1319Z" fill="#22194D"/>
<path d="M83.7243 22.5778H78.8511V17.8638C78.8567 17.2547 78.9656 16.7405 79.1892 16.1146C80.6785 12.1523 86.784 12.1495 88.2734 16.1146C88.4997 16.7349 88.6115 17.2435 88.6198 17.8498C88.6534 20.4765 86.7309 22.6225 83.7299 22.575L83.7243 22.5778ZM83.7243 20.9934C85.6831 21.0605 86.8008 19.5655 86.8036 17.875C86.8036 17.3106 86.6806 16.8523 86.4235 16.3298C85.4567 14.2257 82.0058 14.2257 81.0334 16.3298C80.7847 16.8551 80.6618 17.3133 80.6618 17.875V20.9934H83.7243Z" fill="#22194D"/>
<path d="M94.3449 22.815C93.5569 22.815 92.8807 22.6809 92.3134 22.4099C91.7462 22.1388 91.274 21.7812 90.8967 21.3313C90.5195 20.8814 90.2401 20.3784 90.0529 19.8224C89.8684 19.2663 89.7734 18.7075 89.7734 18.143V17.8384C89.7734 17.2544 89.8656 16.6816 90.0529 16.1256C90.2373 15.5695 90.5223 15.0693 90.9051 14.625C91.2879 14.1807 91.763 13.8231 92.3302 13.5548C92.8974 13.2838 93.5597 13.1497 94.3113 13.1497C95.063 13.1497 95.7616 13.295 96.3679 13.5884C96.9743 13.8818 97.4633 14.2897 97.8349 14.8122C98.2066 15.3348 98.4133 15.9467 98.458 16.6425H96.72C96.6418 16.1032 96.3959 15.6533 95.9851 15.2929C95.5743 14.9324 95.0155 14.7536 94.3057 14.7536C93.6994 14.7536 93.1936 14.8933 92.7885 15.1755C92.3833 15.4577 92.0787 15.8405 91.8775 16.3323C91.6763 16.8213 91.5729 17.3746 91.5729 17.9949C91.5729 18.6153 91.6707 19.1378 91.8691 19.6324C92.0647 20.127 92.3693 20.5182 92.7801 20.806C93.1908 21.0938 93.7106 21.2363 94.3393 21.2363C94.8115 21.2363 95.2251 21.1497 95.5799 20.9736C95.9348 20.8004 96.217 20.5657 96.4322 20.2723C96.6445 19.9789 96.7759 19.6491 96.8206 19.2775H98.5419C98.5083 19.9984 98.3016 20.6215 97.9271 21.1497C97.5499 21.6778 97.0525 22.0885 96.435 22.3819C95.8174 22.6753 95.1189 22.8206 94.3421 22.8206L94.3449 22.815Z" fill="#22194D"/>
<path d="M108.389 17.601C108.389 16.8354 108.23 16.1173 107.908 15.4411C107.587 14.7649 107.109 14.2144 106.466 13.7897C105.827 13.3593 105.016 13.147 104.038 13.147C103.284 13.147 102.627 13.2783 102.065 13.5438C101.504 13.8064 101.04 14.1669 100.674 14.614C100.308 15.0638 100.037 15.564 99.858 16.1145C99.6763 16.665 99.5869 17.2378 99.5869 17.8358V18.1403C99.5869 18.7132 99.6763 19.2776 99.858 19.8337C100.037 20.3897 100.311 20.8927 100.674 21.337C101.04 21.7785 101.512 22.1361 102.091 22.4072C102.669 22.6782 103.354 22.8124 104.142 22.8124C104.862 22.8124 105.502 22.6894 106.072 22.4491C106.64 22.206 107.112 21.8595 107.489 21.4013C107.866 20.9486 108.115 20.4093 108.238 19.7918H106.55C106.461 20.1857 106.207 20.5266 105.782 20.82C105.36 21.1134 104.812 21.2587 104.139 21.2587C103.465 21.2587 102.948 21.119 102.526 20.8368C102.105 20.5574 101.794 20.169 101.59 19.6744C101.428 19.2804 101.331 18.8389 101.3 18.3583H108.389V17.601ZM101.361 17.0953C101.412 16.7991 101.49 16.528 101.593 16.2766C101.794 15.7876 102.099 15.402 102.504 15.1197C102.909 14.8403 103.421 14.7006 104.038 14.7006C104.625 14.7006 105.111 14.8263 105.508 15.0806C105.902 15.3321 106.193 15.687 106.385 16.1424C106.506 16.4274 106.587 16.746 106.631 17.0953H101.364H101.361Z" fill="#22194D"/>
<path d="M118.049 17.3468V22.5777H116.244V17.045C116.244 16.38 116.057 15.8463 115.682 15.4411C115.302 15.0359 114.791 14.8319 114.14 14.8319C113.489 14.8319 112.919 15.0415 112.502 15.4551C112.086 15.8714 111.879 16.4303 111.879 17.126V22.5749H110.074V13.3454H111.491V15.6367C111.538 15.4355 111.6 15.2427 111.667 15.0667C111.91 14.4491 112.279 13.9797 112.773 13.6583C113.268 13.337 113.886 13.1777 114.629 13.1777H114.713C115.839 13.1777 116.677 13.5326 117.225 14.2396C117.775 14.9465 118.052 15.9832 118.052 17.344L118.049 17.3468Z" fill="#22194D"/>
<path d="M122.162 14.6839V19.5068C122.162 19.979 122.29 20.3451 122.55 20.6022C122.81 20.862 123.173 20.9906 123.646 20.9906H125.199V22.5777H123.833C123.112 22.5777 122.5 22.4771 121.994 22.2815C121.488 22.0859 121.103 21.7478 120.837 21.27C120.575 20.7922 120.441 20.1411 120.441 19.3196V14.6811H118.923V13.3482C119.762 13.3482 120.441 12.6692 120.441 11.8309V10.9871H122.162V13.3482H125.199V14.6811H122.162V14.6839Z" fill="#22194D"/>
<path d="M134.692 17.601C134.692 16.8354 134.532 16.1173 134.214 15.4411C133.892 14.7649 133.412 14.2144 132.769 13.7897C132.129 13.3593 131.319 13.147 130.341 13.147C129.586 13.147 128.93 13.2783 128.368 13.5438C127.807 13.8064 127.343 14.1669 126.977 14.614C126.611 15.0638 126.34 15.564 126.161 16.1145C125.979 16.665 125.89 17.2378 125.89 17.8358V18.1403C125.89 18.7132 125.979 19.2776 126.161 19.8337C126.34 20.3897 126.613 20.8927 126.977 21.337C127.343 21.7785 127.815 22.1361 128.393 22.4072C128.972 22.6782 129.656 22.8124 130.444 22.8124C131.165 22.8124 131.805 22.6894 132.375 22.4491C132.942 22.206 133.415 21.8595 133.792 21.4013C134.169 20.9486 134.418 20.4093 134.541 19.7918H132.853C132.764 20.1857 132.509 20.5266 132.085 20.82C131.665 21.1134 131.115 21.2587 130.442 21.2587C129.768 21.2587 129.251 21.119 128.829 20.8368C128.41 20.5574 128.097 20.169 127.893 19.6744C127.731 19.2804 127.633 18.8389 127.603 18.3583H134.689V17.601H134.692ZM127.664 17.0953C127.714 16.7991 127.793 16.528 127.896 16.2766C128.097 15.7876 128.402 15.402 128.807 15.1197C129.212 14.8403 129.723 14.7006 130.341 14.7006C130.928 14.7006 131.414 14.8263 131.811 15.0806C132.205 15.3321 132.495 15.687 132.688 16.1424C132.808 16.4274 132.889 16.746 132.934 17.0953H127.667H127.664Z" fill="#22194D"/>
<path d="M139.52 22.7816C138.316 22.7816 137.382 22.5245 136.72 22.0132C136.058 21.5018 135.714 20.8005 135.692 19.9119H137.363C137.385 20.25 137.561 20.563 137.894 20.8564C138.226 21.1498 138.774 21.2951 139.54 21.2951C140.213 21.2951 140.738 21.1637 141.107 20.8983C141.479 20.6328 141.663 20.3059 141.663 19.9119C141.663 19.5514 141.526 19.2748 141.25 19.0764C140.973 18.8808 140.526 18.7467 139.908 18.6796L138.964 18.579C138.064 18.4896 137.346 18.2242 136.804 17.7855C136.265 17.3468 135.994 16.746 135.994 15.9804C135.994 15.3964 136.142 14.8962 136.441 14.4798C136.74 14.0635 137.151 13.7449 137.681 13.527C138.21 13.3062 138.816 13.1973 139.503 13.1973C140.537 13.1973 141.378 13.4292 142.024 13.8902C142.669 14.3513 143.01 15.0331 143.044 15.9301H141.373C141.35 15.5808 141.185 15.2874 140.875 15.0443C140.565 14.804 140.101 14.681 139.484 14.681C138.9 14.681 138.45 14.8012 138.134 15.0443C137.818 15.2874 137.662 15.592 137.662 15.9636C137.662 16.2793 137.774 16.5308 138 16.7236C138.224 16.9136 138.601 17.0394 139.129 17.0953L140.057 17.1959C141.057 17.2965 141.853 17.5731 142.443 18.023C143.032 18.4729 143.329 19.096 143.329 19.8951C143.329 20.4568 143.169 20.957 142.848 21.3957C142.527 21.8344 142.08 22.1753 141.507 22.4156C140.934 22.6587 140.269 22.7788 139.517 22.7788L139.52 22.7816Z" fill="#22194D"/>
<path d="M73.5587 27.1155V31.8043C73.2261 31.265 72.7986 30.8626 72.2845 30.5916C71.7284 30.2982 71.1025 30.1529 70.4039 30.1529C69.7501 30.1529 69.1577 30.273 68.624 30.5133C68.0903 30.7564 67.6292 31.0889 67.2408 31.5165C66.8524 31.9468 66.5534 32.4414 66.3466 33.0002C66.1371 33.5619 66.0337 34.171 66.0337 34.8221V35.1434C66.0337 35.7945 66.1399 36.4036 66.355 36.9653C66.5674 37.5269 66.8748 38.0243 67.2716 38.449C67.6711 38.8794 68.1406 39.2091 68.6827 39.4466C69.222 39.6813 69.8143 39.8015 70.4542 39.8015C71.1276 39.8015 71.7564 39.6534 72.3376 39.3628C72.916 39.0694 73.391 38.6055 73.7599 37.9712C73.8241 37.865 73.88 37.7533 73.9303 37.6359V39.5668H75.3638V27.1155H73.5587ZM73.6257 35.2636C73.6257 35.8811 73.4972 36.412 73.2373 36.8563C72.9775 37.3006 72.6338 37.6443 72.2006 37.8846C71.7675 38.1277 71.2869 38.2479 70.7588 38.2479C70.1972 38.2479 69.6914 38.1137 69.2499 37.8427C68.8056 37.5716 68.4591 37.1944 68.2132 36.7026C67.9645 36.2136 67.8416 35.638 67.8416 34.9758C67.8416 34.3135 67.9645 33.7519 68.2048 33.2629C68.4479 32.7739 68.7888 32.3939 69.2275 32.1172C69.6662 31.8434 70.172 31.7037 70.7448 31.7037C71.2618 31.7037 71.7424 31.8182 72.1783 32.0418C72.617 32.2653 72.9691 32.5867 73.2317 33.003C73.4972 33.4194 73.6285 33.9279 73.6285 34.5231V35.2664L73.6257 35.2636Z" fill="#22194D"/>
<path d="M81.9411 39.5641H77.0679V34.8501C77.0735 34.241 77.1824 33.7268 77.406 33.1009C78.8953 29.1387 85.0008 29.1359 86.4902 33.1009C86.7165 33.7213 86.8283 34.2298 86.8366 34.8362C86.8702 37.4628 84.9477 39.6088 81.9467 39.5613L81.9411 39.5641ZM81.9411 37.9797C83.8999 38.0468 85.0176 36.5519 85.0204 34.8613C85.0204 34.2969 84.8974 33.8386 84.6403 33.3161C83.6735 31.212 80.2226 31.212 79.2502 33.3161C79.0015 33.8414 78.8786 34.2997 78.8786 34.8613V37.9797H81.9411Z" fill="#22194D"/>
<path d="M102.815 34.1179C102.485 33.6904 102.035 33.3802 101.468 33.1874C101.8 33.0086 102.083 32.7711 102.309 32.4805C102.658 32.0306 102.834 31.4298 102.834 30.6754V30.4407C102.834 29.3705 102.493 28.5517 101.812 27.9761C101.13 27.4005 100.11 27.1155 98.749 27.1155H94.1021C93.3924 27.1155 92.814 27.6911 92.814 28.4036V39.5668H99.2548C100.168 39.5668 100.926 39.4354 101.532 39.17C102.141 38.9073 102.591 38.5217 102.893 38.0131C103.189 37.5074 103.34 36.8926 103.34 36.1745V35.9398C103.34 35.1742 103.164 34.5678 102.815 34.1179ZM99.02 28.6859C99.6851 28.6859 100.174 28.8647 100.49 29.2252C100.803 29.5856 100.962 30.0523 100.962 30.6251C100.962 31.1979 100.803 31.645 100.49 31.9999C100.174 32.3547 99.6851 32.5308 99.02 32.5308H94.6386V29.3285C94.6386 28.9737 94.9264 28.6859 95.2813 28.6859H99.0172H99.02ZM100.951 37.4571C100.607 37.8147 100.115 37.9964 99.4755 37.9964H94.6386V34.0481H99.4755C100.115 34.0481 100.607 34.2241 100.951 34.5706C101.295 34.9199 101.465 35.3977 101.465 36.0041C101.465 36.6104 101.292 37.0938 100.951 37.4543V37.4571Z" fill="#22194D"/>
<path d="M110.404 30.3374V31.9413H109.814C108.937 31.9413 108.263 32.176 107.8 32.6427C107.333 33.1093 107.101 33.7799 107.101 34.6573V39.5669H105.296V30.3374H106.713V33.2965C106.816 32.4303 107.09 31.7569 107.52 31.2819C108.096 30.6532 108.948 30.3374 110.085 30.3374H110.407H110.404Z" fill="#22194D"/>
<path d="M117.959 31.7819C117.666 31.279 117.222 30.9157 116.627 30.6866C116.029 30.4547 115.271 30.3401 114.349 30.3401C114.067 30.3401 113.774 30.3457 113.472 30.3485C113.17 30.3541 112.871 30.3652 112.58 30.382C112.287 30.3988 112.019 30.4183 111.77 30.4407V32.0083C112.041 31.9859 112.351 31.9691 112.706 31.958C113.061 31.9468 113.427 31.9356 113.802 31.9244C114.179 31.9133 114.531 31.9077 114.858 31.9077C115.453 31.9077 115.903 32.0586 116.207 32.3548C116.512 32.6537 116.663 33.098 116.663 33.696V33.8832H114.486C113.709 33.8832 113.039 33.9922 112.472 34.2129C111.904 34.4309 111.471 34.755 111.172 35.1826C110.876 35.6101 110.725 36.1494 110.725 36.8004C110.725 37.4515 110.862 37.9461 111.13 38.3876C111.399 38.8263 111.779 39.1588 112.268 39.3907C112.759 39.6199 113.338 39.7344 114.014 39.7344C114.643 39.7344 115.182 39.6199 115.626 39.3963C116.068 39.1728 116.42 38.8403 116.671 38.4016C116.791 38.192 116.892 37.9601 116.968 37.7058V39.5668H118.401V33.7966C118.401 32.9555 118.256 32.2821 117.962 31.7819H117.959ZM115.481 38.1501C115.154 38.2842 114.805 38.3513 114.433 38.3513C113.813 38.3513 113.338 38.2032 113 37.9098C112.664 37.6192 112.494 37.2364 112.494 36.7641C112.494 36.2919 112.664 35.9035 113 35.6017C113.338 35.2971 113.816 35.1462 114.433 35.1462H116.66V36.141C116.638 36.7026 116.518 37.1441 116.297 37.4655C116.076 37.7868 115.805 38.0132 115.481 38.1501Z" fill="#22194D"/>
<path d="M123.705 39.7679C122.5 39.7679 121.567 39.5109 120.905 38.9995C120.243 38.4882 119.899 37.7868 119.876 36.8982H121.547C121.57 37.2363 121.746 37.5493 122.078 37.8427C122.411 38.1361 122.959 38.2814 123.724 38.2814C124.398 38.2814 124.923 38.1501 125.292 37.8846C125.663 37.6192 125.848 37.2922 125.848 36.8982C125.848 36.5378 125.711 36.2611 125.434 36.0627C125.158 35.8671 124.711 35.733 124.093 35.666L123.149 35.5654C122.249 35.4759 121.531 35.2105 120.989 34.7718C120.449 34.3331 120.178 33.7323 120.178 32.9667C120.178 32.3827 120.326 31.8825 120.625 31.4662C120.924 31.0498 121.335 30.7313 121.866 30.5133C122.394 30.2926 123 30.1836 123.688 30.1836C124.722 30.1836 125.563 30.4155 126.208 30.8766C126.854 31.3376 127.195 32.0194 127.228 32.9164H125.557C125.535 32.5671 125.37 32.2737 125.06 32.0306C124.75 31.7903 124.286 31.6674 123.668 31.6674C123.084 31.6674 122.634 31.7875 122.319 32.0306C122.003 32.2737 121.846 32.5783 121.846 32.9499C121.846 33.2657 121.958 33.5172 122.185 33.71C122.408 33.9 122.785 34.0257 123.313 34.0816L124.241 34.1822C125.241 34.2828 126.038 34.5594 126.627 35.0093C127.217 35.4592 127.513 36.0823 127.513 36.8815C127.513 37.4431 127.354 37.9433 127.033 38.382C126.711 38.8207 126.264 39.1616 125.691 39.4019C125.119 39.645 124.453 39.7652 123.702 39.7652L123.705 39.7679Z" fill="#22194D"/>
<path d="M130.732 30.3374H128.927V39.5669H130.732V30.3374Z" fill="#22194D"/>
<path d="M130.732 27.9761H128.927V29.7812H130.732V27.9761Z" fill="#22194D"/>
<path d="M134.345 27.1155H132.54V39.5668H134.345V27.1155Z" fill="#22194D"/>
<path style="mix-blend-mode:multiply" d="M18.4747 29.4991C18.1562 29.2812 18.3518 28.7894 18.7346 28.8425C26.3853 29.9406 33.072 26.5177 35.1984 21.2281C36.8415 17.1401 35.5365 12.5016 33.2592 9.59555C26.6759 1.19318 12.7269 3.54595 5.9368 10.3528C0.370613 15.9358 0.110746 25.4698 6.02343 30.8879C9.43803 34.0147 14.1045 35.9204 18.7206 36.1719C24.0828 36.4653 28.3161 34.2578 30.6074 32.7321C30.926 32.5198 30.736 32.0224 30.3587 32.0783C27.4667 32.489 22.817 32.489 18.4775 29.5019L18.4747 29.4991Z" fill="url(#paint0_linear_314_16801)"/>
<path style="mix-blend-mode:multiply" d="M17.3293 1.4726C17.7009 1.57598 17.6674 2.10969 17.2874 2.17675C12.2186 3.07651 7.34534 5.49635 3.98942 8.86065C2.95834 9.89453 2.08653 11.0458 1.37678 12.2753C1.18398 12.6106 0.667035 12.4457 0.708949 12.0601C1.33207 6.30389 4.36945 0.212379 4.36945 0.212379C4.36945 0.212379 11.9699 -0.0223395 17.3293 1.4726Z" fill="url(#paint1_linear_314_16801)"/>
<path style="mix-blend-mode:multiply" d="M43.2293 14.5135C43.5478 14.7315 43.3522 15.2233 42.9694 15.1702C35.3187 14.072 28.632 17.495 26.5055 22.7846C24.8625 26.8726 26.1674 31.5111 28.4448 34.4171C35.0281 42.8195 48.9771 40.4667 55.7672 33.6599C61.3361 28.0769 61.596 18.5401 55.6833 13.122C52.2687 9.9952 47.6023 8.08951 42.9862 7.83802C37.6239 7.54462 33.3906 9.7521 31.0993 11.2778C30.7808 11.4901 30.9708 11.9875 31.348 11.9316C34.2401 11.5209 38.8898 11.5209 43.2293 14.5079V14.5135Z" fill="url(#paint2_linear_314_16801)"/>
</g>
<defs>
<linearGradient id="paint0_linear_314_16801" x1="11.3996" y1="6.46038" x2="27.598" y2="34.5205" gradientUnits="userSpaceOnUse">
<stop stop-color="#929AFF"/>
<stop offset="0.18" stop-color="#8E94FD"/>
<stop offset="0.42" stop-color="#8483F9"/>
<stop offset="0.69" stop-color="#7368F3"/>
<stop offset="0.98" stop-color="#5C43EA"/>
<stop offset="1" stop-color="#5B41EA"/>
</linearGradient>
<linearGradient id="paint1_linear_314_16801" x1="5.03448" y1="-0.17323" x2="24.9772" y2="34.3696" gradientUnits="userSpaceOnUse">
<stop stop-color="#929AFF"/>
<stop offset="0.14" stop-color="#8383F9"/>
<stop offset="0.36" stop-color="#7266F2"/>
<stop offset="0.58" stop-color="#6551ED"/>
<stop offset="0.79" stop-color="#5D45EA"/>
<stop offset="1" stop-color="#5B41EA"/>
</linearGradient>
<linearGradient id="paint2_linear_314_16801" x1="34.106" y1="9.49223" x2="50.3044" y2="37.5523" gradientUnits="userSpaceOnUse">
<stop stop-color="#AC6DFF"/>
<stop offset="0.23" stop-color="#A867FD"/>
<stop offset="0.53" stop-color="#9E56F9"/>
<stop offset="0.86" stop-color="#8E3BF2"/>
<stop offset="1" stop-color="#862EEF"/>
</linearGradient>
<clipPath id="clip0_314_16801">
<rect width="143.366" height="40" fill="white" transform="translate(0.337402)"/>
</clipPath>
</defs>
</svg>
