<svg width="33" height="32" viewBox="0 0 33 32" fill="none" xmlns="http://www.w3.org/2000/svg">
<g clip-path="url(#clip0_314_16783)">
<path style="mix-blend-mode:multiply" d="M9.86179 21.0799C9.69179 20.9599 9.79179 20.6999 10.0018 20.7299C14.0918 21.3199 17.6718 19.4899 18.8118 16.6499C19.6918 14.4599 18.9918 11.9799 17.7718 10.4199C14.2518 5.91994 6.78179 7.17993 3.15179 10.8199C0.171793 13.8099 0.0317931 18.9099 3.19179 21.8099C5.02179 23.4799 7.51179 24.4999 9.98179 24.6399C12.8518 24.7999 15.1218 23.6199 16.3418 22.7999C16.5118 22.6899 16.4118 22.4199 16.2118 22.4499C14.6618 22.6699 12.1718 22.6699 9.85179 21.0699L9.86179 21.0799Z" fill="url(#paint0_linear_314_16783)"/>
<path style="mix-blend-mode:multiply" d="M9.24184 6.07993C9.44184 6.13993 9.42184 6.41993 9.22184 6.45993C6.51184 6.93993 3.90184 8.23993 2.10184 10.0399C1.55184 10.5899 1.08184 11.2099 0.701839 11.8699C0.601839 12.0499 0.321839 11.9599 0.341839 11.7599C0.671839 8.67993 2.30184 5.41993 2.30184 5.41993C2.30184 5.41993 6.37184 5.28993 9.24184 6.08993V6.07993Z" fill="url(#paint1_linear_314_16783)"/>
<path style="mix-blend-mode:multiply" d="M23.1018 13.0598C23.2718 13.1798 23.1718 13.4398 22.9618 13.4098C18.8718 12.8198 15.2918 14.6498 14.1518 17.4898C13.2718 19.6798 13.9718 22.1598 15.1918 23.7198C18.7118 28.2198 26.1818 26.9598 29.8118 23.3198C32.7918 20.3298 32.9318 15.2298 29.7718 12.3298C27.9418 10.6598 25.4518 9.63982 22.9818 9.49982C20.1118 9.33982 17.8418 10.5198 16.6218 11.3398C16.4518 11.4498 16.5518 11.7198 16.7518 11.6898C18.3018 11.4698 20.7918 11.4698 23.1118 13.0698L23.1018 13.0598Z" fill="url(#paint2_linear_314_16783)"/>
</g>
<defs>
<linearGradient id="paint0_linear_314_16783" x1="6.07179" y1="8.74994" x2="14.7418" y2="23.7699" gradientUnits="userSpaceOnUse">
<stop stop-color="#929AFF"/>
<stop offset="0.18" stop-color="#8E94FD"/>
<stop offset="0.42" stop-color="#8483F9"/>
<stop offset="0.69" stop-color="#7368F3"/>
<stop offset="0.98" stop-color="#5C43EA"/>
<stop offset="1" stop-color="#5B41EA"/>
</linearGradient>
<linearGradient id="paint1_linear_314_16783" x1="2.66184" y1="5.19993" x2="13.3318" y2="23.6899" gradientUnits="userSpaceOnUse">
<stop stop-color="#929AFF"/>
<stop offset="0.14" stop-color="#8383F9"/>
<stop offset="0.36" stop-color="#7266F2"/>
<stop offset="0.58" stop-color="#6551ED"/>
<stop offset="0.79" stop-color="#5D45EA"/>
<stop offset="1" stop-color="#5B41EA"/>
</linearGradient>
<linearGradient id="paint2_linear_314_16783" x1="18.2218" y1="10.3798" x2="26.8918" y2="25.3898" gradientUnits="userSpaceOnUse">
<stop stop-color="#AC6DFF"/>
<stop offset="0.23" stop-color="#A867FD"/>
<stop offset="0.53" stop-color="#9E56F9"/>
<stop offset="0.86" stop-color="#8E3BF2"/>
<stop offset="1" stop-color="#862EEF"/>
</linearGradient>
<clipPath id="clip0_314_16783">
<rect width="32" height="32" fill="white" transform="translate(0.22168)"/>
</clipPath>
</defs>
</svg>
