<svg width="316" height="88" viewBox="0 0 316 88" fill="none" xmlns="http://www.w3.org/2000/svg">
<path d="M169.821 30.6879C169.219 29.1203 168.315 27.6941 167.116 26.4216C165.911 25.1491 164.405 24.1409 162.585 23.3971C160.766 22.6533 158.633 22.2844 156.18 22.2844H147.629C146.067 22.2844 144.795 23.5508 144.795 25.1184V49.6772H156.18C158.633 49.6772 160.766 49.2899 162.585 48.5092C164.405 47.7285 165.911 46.6957 167.116 45.4048C168.315 44.12 169.219 42.6815 169.821 41.1016C170.423 39.5156 170.731 37.9357 170.731 36.3497V35.5382C170.731 33.8784 170.423 32.2678 169.821 30.6941V30.6879ZM165.905 39.8906C165.462 41.1139 164.799 42.1713 163.919 43.0626C163.04 43.954 161.989 44.6487 160.766 45.1589C159.543 45.663 158.141 45.915 156.555 45.915H148.84V27.4052C148.84 26.6245 149.473 25.9913 150.254 25.9913H156.555C158.141 25.9913 159.543 26.2249 160.766 26.6983C161.989 27.1716 163.04 27.854 163.919 28.7392C164.792 29.6306 165.456 30.6818 165.905 31.8928C166.348 33.1038 166.575 34.4501 166.575 35.9316C166.575 37.4132 166.348 38.6611 165.905 39.8844V39.8906Z" fill="#22194D"/>
<path d="M183.855 49.6711H173.134V39.3004C173.147 37.9603 173.386 36.8292 173.878 35.4522C177.155 26.7352 190.587 26.729 193.863 35.4522C194.361 36.8169 194.607 37.9357 194.626 39.2697C194.699 45.0483 190.47 49.7695 183.868 49.665L183.855 49.6711ZM183.855 46.1855C188.165 46.3331 190.624 43.0442 190.63 39.325C190.63 38.0833 190.359 37.0751 189.794 35.9255C187.667 31.2965 180.075 31.2965 177.935 35.9255C177.388 37.0812 177.118 38.0894 177.118 39.325V46.1855H183.855Z" fill="#22194D"/>
<path d="M207.222 50.1935C205.488 50.1935 204 49.8985 202.753 49.3022C201.505 48.7059 200.466 47.919 199.636 46.9293C198.806 45.9395 198.191 44.833 197.779 43.6097C197.374 42.3863 197.165 41.1569 197.165 39.9151V39.245C197.165 37.9602 197.367 36.7 197.779 35.4767C198.185 34.2533 198.812 33.1529 199.654 32.1755C200.496 31.1981 201.541 30.4112 202.789 29.8211C204.037 29.2248 205.494 28.9297 207.148 28.9297C208.802 28.9297 210.338 29.2494 211.672 29.8948C213.006 30.5403 214.082 31.4378 214.9 32.5874C215.717 33.737 216.172 35.0832 216.271 36.6139H212.447C212.275 35.4275 211.734 34.4378 210.83 33.6447C209.927 32.8517 208.697 32.4583 207.136 32.4583C205.802 32.4583 204.689 32.7657 203.798 33.3866C202.906 34.0074 202.236 34.8496 201.794 35.9316C201.351 37.0074 201.123 38.2246 201.123 39.5893C201.123 40.954 201.339 42.1036 201.775 43.1917C202.205 44.2797 202.875 45.1404 203.779 45.7736C204.683 46.4067 205.826 46.7203 207.209 46.7203C208.248 46.7203 209.158 46.5297 209.939 46.1424C210.72 45.7613 211.34 45.2449 211.814 44.5994C212.281 43.9539 212.57 43.2285 212.668 42.4109H216.455C216.381 43.997 215.926 45.3678 215.103 46.5297C214.273 47.6915 213.179 48.5952 211.82 49.2407C210.461 49.8862 208.925 50.2058 207.216 50.2058L207.222 50.1935Z" fill="#22194D"/>
<path d="M238.119 38.7225C238.119 37.0382 237.768 35.4583 237.061 33.9706C236.354 32.4829 235.303 31.2719 233.889 30.3375C232.482 29.3908 230.699 28.9236 228.547 28.9236C226.887 28.9236 225.443 29.2125 224.207 29.7965C222.972 30.3744 221.951 31.1674 221.146 32.151C220.34 33.1407 219.744 34.2411 219.351 35.4521C218.951 36.6632 218.754 37.9234 218.754 39.2389V39.909C218.754 41.1692 218.951 42.411 219.351 43.6343C219.744 44.8576 220.347 45.9642 221.146 46.9416C221.951 47.9129 222.99 48.6998 224.262 49.2961C225.535 49.8924 227.041 50.1874 228.775 50.1874C230.361 50.1874 231.768 49.9169 233.023 49.3883C234.27 48.8534 235.309 48.0912 236.139 47.083C236.969 46.0871 237.516 44.9007 237.787 43.5421H234.074C233.877 44.4089 233.318 45.1589 232.383 45.8043C231.455 46.4498 230.25 46.7695 228.769 46.7695C227.287 46.7695 226.15 46.4621 225.221 45.8412C224.293 45.2265 223.611 44.372 223.162 43.2839C222.806 42.4171 222.59 41.4458 222.523 40.3885H238.119V38.7225ZM222.658 37.6099C222.769 36.9582 222.941 36.3619 223.168 35.8087C223.611 34.7329 224.281 33.8845 225.172 33.2636C226.064 32.6489 227.189 32.3415 228.547 32.3415C229.838 32.3415 230.908 32.6182 231.781 33.1776C232.648 33.7309 233.287 34.5116 233.711 35.5136C233.975 36.1406 234.154 36.8414 234.252 37.6099H222.664H222.658Z" fill="#22194D"/>
<path d="M259.37 38.1631V49.6711H255.399V37.4992C255.399 36.0361 254.987 34.862 254.164 33.9706C253.327 33.0792 252.202 32.6305 250.77 32.6305C249.338 32.6305 248.084 33.0915 247.168 34.0013C246.252 34.9173 245.797 36.1468 245.797 37.6775V49.6649H241.826V29.3601H244.942V34.4009C245.047 33.9583 245.182 33.5341 245.33 33.1469C245.865 31.7883 246.676 30.7555 247.764 30.0486C248.852 29.3416 250.211 28.9912 251.846 28.9912H252.03C254.508 28.9912 256.352 29.7719 257.557 31.3272C258.768 32.8825 259.376 35.1632 259.376 38.157L259.37 38.1631Z" fill="#22194D"/>
<path d="M268.419 32.3046V42.915C268.419 43.954 268.702 44.7593 269.274 45.3248C269.845 45.8965 270.645 46.1793 271.684 46.1793H275.101V49.671H272.095C270.509 49.671 269.163 49.4497 268.05 49.0194C266.938 48.5891 266.089 47.8453 265.505 46.7941C264.928 45.7429 264.632 44.3105 264.632 42.5032V32.2985H261.294V29.3662C263.139 29.3662 264.632 27.8724 264.632 26.0281V24.1716H268.419V29.3662H275.101V32.2985H268.419V32.3046Z" fill="#22194D"/>
<path d="M295.984 38.7225C295.984 37.0382 295.634 35.4583 294.933 33.9706C294.226 32.4829 293.168 31.2719 291.755 30.3375C290.347 29.3908 288.564 28.9236 286.412 28.9236C284.753 28.9236 283.308 29.2125 282.072 29.7965C280.837 30.3744 279.816 31.1674 279.011 32.151C278.206 33.1407 277.609 34.2411 277.216 35.4521C276.816 36.6632 276.62 37.9234 276.62 39.2389V39.909C276.62 41.1692 276.816 42.411 277.216 43.6343C277.609 44.8576 278.212 45.9642 279.011 46.9416C279.816 47.9129 280.855 48.6998 282.128 49.2961C283.4 49.8924 284.906 50.1874 286.64 50.1874C288.226 50.1874 289.634 49.9169 290.888 49.3883C292.136 48.8534 293.175 48.0912 294.004 47.083C294.834 46.0871 295.381 44.9007 295.652 43.5421H291.939C291.742 44.4089 291.183 45.1589 290.248 45.8043C289.326 46.4498 288.115 46.7695 286.634 46.7695C285.152 46.7695 284.015 46.4621 283.087 45.8412C282.165 45.2265 281.476 44.372 281.027 43.2839C280.671 42.4171 280.456 41.4458 280.388 40.3885H295.978V38.7225H295.984ZM280.523 37.6099C280.634 36.9582 280.806 36.3619 281.033 35.8087C281.476 34.7329 282.146 33.8845 283.038 33.2636C283.929 32.6489 285.054 32.3415 286.412 32.3415C287.703 32.3415 288.773 32.6182 289.646 33.1776C290.513 33.7309 291.152 34.5116 291.576 35.5136C291.841 36.1406 292.019 36.8414 292.117 37.6099H280.529H280.523Z" fill="#22194D"/>
<path d="M306.607 50.1198C303.957 50.1198 301.904 49.5542 300.447 48.4292C298.99 47.3042 298.234 45.7613 298.185 43.8064H301.861C301.91 44.5502 302.297 45.2387 303.029 45.8842C303.76 46.5297 304.965 46.8493 306.65 46.8493C308.131 46.8493 309.287 46.5604 310.098 45.9764C310.916 45.3924 311.322 44.6732 311.322 43.8064C311.322 43.0134 311.02 42.4048 310.412 41.9683C309.803 41.538 308.82 41.2429 307.461 41.0954L305.383 40.8741C303.404 40.6774 301.824 40.0934 300.631 39.1282C299.445 38.1631 298.848 36.8414 298.848 35.157C298.848 33.8722 299.174 32.7718 299.832 31.8558C300.49 30.9399 301.394 30.2391 302.562 29.7596C303.723 29.2739 305.057 29.0342 306.57 29.0342C308.844 29.0342 310.695 29.5444 312.115 30.5587C313.535 31.5731 314.285 33.073 314.358 35.0463H310.682C310.633 34.2779 310.27 33.6324 309.588 33.0976C308.906 32.5689 307.885 32.2984 306.527 32.2984C305.242 32.2984 304.252 32.5628 303.557 33.0976C302.863 33.6324 302.518 34.3025 302.518 35.1201C302.518 35.8148 302.764 36.368 303.262 36.7922C303.754 37.2102 304.584 37.4869 305.746 37.6098L307.787 37.8311C309.988 38.0524 311.74 38.661 313.037 39.6507C314.334 40.6405 314.985 42.0113 314.985 43.7695C314.985 45.0051 314.635 46.1055 313.928 47.0706C313.221 48.0358 312.238 48.7858 310.977 49.3144C309.717 49.8493 308.254 50.1136 306.6 50.1136L306.607 50.1198Z" fill="#22194D"/>
<path d="M161.491 59.6545V69.9699C160.76 68.7834 159.819 67.8982 158.688 67.3019C157.465 66.6564 156.088 66.3368 154.551 66.3368C153.113 66.3368 151.809 66.6011 150.635 67.1298C149.461 67.6646 148.447 68.3961 147.592 69.3367C146.738 70.2834 146.08 71.3715 145.625 72.601C145.164 73.8366 144.937 75.1767 144.937 76.6091V77.316C144.937 78.7484 145.17 80.0885 145.643 81.3241C146.111 82.5597 146.787 83.654 147.66 84.5884C148.539 85.5351 149.572 86.2605 150.764 86.783C151.951 87.2994 153.254 87.5637 154.662 87.5637C156.143 87.5637 157.526 87.2379 158.805 86.5986C160.078 85.9531 161.123 84.9326 161.934 83.5372C162.075 83.3036 162.198 83.0577 162.309 82.7995V87.0474H165.463V59.6545H161.491ZM161.639 77.5804C161.639 78.9389 161.356 80.1069 160.785 81.0844C160.213 82.0618 159.457 82.8179 158.504 83.3466C157.551 83.8814 156.494 84.1458 155.332 84.1458C154.096 84.1458 152.983 83.8507 152.012 83.2544C151.035 82.6581 150.272 81.8282 149.731 80.7463C149.184 79.6705 148.914 78.4041 148.914 76.9472C148.914 75.4902 149.184 74.2546 149.713 73.1788C150.248 72.103 150.998 71.267 151.963 70.6584C152.928 70.0559 154.041 69.7486 155.301 69.7486C156.438 69.7486 157.496 70.0006 158.455 70.4924C159.42 70.9842 160.194 71.6911 160.772 72.6071C161.356 73.5231 161.645 74.6419 161.645 75.9513V77.5865L161.639 77.5804Z" fill="#22194D"/>
<path d="M179.933 87.0412H169.212V76.6706C169.225 75.3304 169.464 74.1993 169.956 72.8223C173.233 64.1053 186.665 64.0991 189.941 72.8223C190.439 74.187 190.685 75.3058 190.704 76.6398C190.777 82.4184 186.548 87.1396 179.946 87.0351L179.933 87.0412ZM179.933 83.5556C184.243 83.7032 186.702 80.4143 186.708 76.6952C186.708 75.4534 186.437 74.4452 185.872 73.2956C183.745 68.6667 176.153 68.6667 174.014 73.2956C173.466 74.4514 173.196 75.4595 173.196 76.6952V83.5556H179.933Z" fill="#22194D"/>
<path d="M225.855 75.0599C225.129 74.1194 224.139 73.437 222.892 73.0128C223.623 72.6194 224.244 72.0969 224.742 71.4575C225.51 70.4678 225.898 69.1461 225.898 67.4863V66.9699C225.898 64.6155 225.148 62.8143 223.648 61.5479C222.148 60.2816 219.904 59.6545 216.91 59.6545H206.687C205.126 59.6545 203.853 60.9209 203.853 62.4885V87.0473H218.023C220.033 87.0473 221.699 86.7584 223.033 86.1744C224.373 85.5966 225.363 84.7482 226.027 83.6294C226.678 82.5167 227.01 81.1643 227.01 79.5844V79.068C227.01 77.3836 226.623 76.0497 225.855 75.0599ZM217.506 63.1094C218.969 63.1094 220.045 63.5028 220.74 64.2958C221.428 65.0888 221.779 66.1155 221.779 67.3757C221.779 68.6359 221.428 69.6195 220.74 70.4002C220.045 71.1809 218.969 71.5682 217.506 71.5682H207.867V64.5233C207.867 63.7426 208.5 63.1094 209.281 63.1094H217.5H217.506ZM221.754 82.4061C220.998 83.1929 219.916 83.5925 218.508 83.5925H207.867V74.9062H218.508C219.916 74.9062 220.998 75.2935 221.754 76.0558C222.51 76.8242 222.885 77.8754 222.885 79.2094C222.885 80.5434 222.504 81.6069 221.754 82.3999V82.4061Z" fill="#22194D"/>
<path d="M242.551 66.7424V70.271H241.254C239.324 70.271 237.842 70.7874 236.822 71.814C235.795 72.8407 235.285 74.316 235.285 76.2463V87.0473H231.313V66.7424H234.43V73.2525C234.658 71.3468 235.26 69.8653 236.207 68.8203C237.473 67.4371 239.348 66.7424 241.85 66.7424H242.557H242.551Z" fill="#22194D"/>
<path d="M259.173 69.9206C258.528 68.8141 257.551 68.0149 256.241 67.5108C254.926 67.0006 253.26 66.7485 251.231 66.7485C250.61 66.7485 249.965 66.7608 249.301 66.767C248.637 66.7793 247.979 66.8039 247.34 66.8407C246.694 66.8776 246.104 66.9207 245.557 66.9698V70.4185C246.153 70.3694 246.836 70.3325 247.616 70.3079C248.397 70.2833 249.202 70.2587 250.026 70.2341C250.856 70.2095 251.631 70.1972 252.35 70.1972C253.659 70.1972 254.649 70.5292 255.319 71.1808C255.989 71.8386 256.321 72.816 256.321 74.1316V74.5434H251.532C249.823 74.5434 248.348 74.7832 247.1 75.2688C245.852 75.7483 244.899 76.4614 244.241 77.402C243.59 78.3425 243.258 79.529 243.258 80.9613C243.258 82.3937 243.559 83.4818 244.149 84.453C244.739 85.4182 245.575 86.1497 246.651 86.66C247.733 87.164 249.006 87.4161 250.493 87.4161C251.876 87.4161 253.063 87.164 254.04 86.6723C255.012 86.1805 255.786 85.4489 256.339 84.4838C256.604 84.0227 256.825 83.5125 256.991 82.9531V87.0472H260.145V74.3529C260.145 72.5025 259.825 71.021 259.18 69.9206H259.173ZM253.721 83.9305C253.001 84.2256 252.233 84.3731 251.415 84.3731C250.051 84.3731 249.006 84.0473 248.262 83.4018C247.524 82.7625 247.149 81.9203 247.149 80.8814C247.149 79.8425 247.524 78.988 248.262 78.3241C249.006 77.654 250.057 77.3221 251.415 77.3221H256.315V79.5105C256.266 80.7462 256.001 81.7174 255.516 82.4244C255.03 83.1313 254.434 83.6293 253.721 83.9305Z" fill="#22194D"/>
<path d="M271.813 87.4899C269.163 87.4899 267.11 86.9243 265.653 85.7993C264.196 84.6744 263.44 83.1314 263.391 81.1765H267.067C267.116 81.9203 267.503 82.6088 268.235 83.2543C268.966 83.8998 270.171 84.2195 271.856 84.2195C273.337 84.2195 274.493 83.9305 275.304 83.3465C276.122 82.7625 276.528 82.0433 276.528 81.1765C276.528 80.3835 276.226 79.7749 275.618 79.3384C275.009 78.9081 274.026 78.613 272.667 78.4655L270.589 78.2442C268.61 78.0475 267.03 77.4635 265.837 76.4983C264.651 75.5332 264.055 74.2115 264.055 72.5271C264.055 71.2423 264.38 70.1419 265.038 69.226C265.696 68.31 266.6 67.6092 267.768 67.1297C268.929 66.644 270.263 66.4043 271.776 66.4043C274.05 66.4043 275.901 66.9145 277.321 67.9289C278.741 68.9432 279.491 70.4431 279.564 72.4165H275.888C275.839 71.648 275.476 71.0026 274.794 70.4677C274.112 69.9391 273.091 69.6686 271.733 69.6686C270.448 69.6686 269.458 69.9329 268.763 70.4677C268.069 71.0026 267.725 71.6726 267.725 72.4902C267.725 73.1849 267.97 73.7381 268.468 74.1623C268.96 74.5803 269.79 74.857 270.952 74.9799L272.993 75.2012C275.194 75.4225 276.946 76.0311 278.243 77.0209C279.54 78.0106 280.191 79.3815 280.191 81.1396C280.191 82.3752 279.841 83.4756 279.134 84.4408C278.427 85.4059 277.444 86.1559 276.183 86.6846C274.923 87.2194 273.46 87.4837 271.806 87.4837L271.813 87.4899Z" fill="#22194D"/>
<path d="M287.273 66.7424H283.302V87.0473H287.273V66.7424Z" fill="#22194D"/>
<path d="M287.273 61.5479H283.302V65.5191H287.273V61.5479Z" fill="#22194D"/>
<path d="M295.222 59.6545H291.25V87.0473H295.222V59.6545Z" fill="#22194D"/>
<g style="mix-blend-mode:multiply">
<path d="M40.3078 64.898C39.607 64.4185 40.0373 63.3366 40.8795 63.4534C57.7111 65.8693 72.4218 58.3388 77.1 46.7017C80.7147 37.7081 77.8438 27.5034 72.8337 21.1101C58.3504 2.62489 27.6626 7.801 12.7244 22.7761C0.478825 35.0586 -0.0928836 56.0335 12.915 67.9533C20.4271 74.8322 30.6933 79.0247 40.8488 79.578C52.6457 80.2235 61.959 75.3671 66.9998 72.0106C67.7006 71.5434 67.2826 70.4491 66.4527 70.5721C60.0902 71.4757 49.8609 71.4757 40.314 64.9042L40.3078 64.898Z" fill="#929AFF"/>
</g>
<g style="mix-blend-mode:multiply">
<path d="M37.7873 3.23971C38.6049 3.46716 38.5311 4.64132 37.6951 4.78885C26.5437 6.76832 15.8227 12.092 8.43963 19.4934C6.17124 21.768 4.25325 24.3007 2.69181 27.0055C2.26764 27.7432 1.13037 27.3805 1.22258 26.5322C2.59345 13.8686 9.27567 0.467234 9.27567 0.467234C9.27567 0.467234 25.9966 -0.0491469 37.7873 3.23971Z" fill="#929AFF"/>
</g>
<g style="mix-blend-mode:multiply">
<path d="M94.7676 31.9297C95.4684 32.4092 95.038 33.4912 94.1959 33.3744C77.3643 30.9584 62.6535 38.489 57.9754 50.126C54.3607 59.1197 57.2315 69.3244 62.2417 75.7177C76.7249 94.2029 107.413 89.0268 122.351 74.0517C134.603 61.7692 135.174 40.7881 122.167 28.8683C114.654 21.9894 104.388 17.7969 94.2327 17.2436C82.4359 16.5981 73.1226 21.4546 68.0817 24.811C67.3809 25.2782 67.7989 26.3725 68.6288 26.2495C74.9914 25.3459 85.2206 25.3459 94.7676 31.9174V31.9297Z" fill="#AC6DFF"/>
</g>
</svg>
