<svg width="64" height="64" viewBox="0 0 64 64" fill="none" xmlns="http://www.w3.org/2000/svg">
<g clip-path="url(#clip0_314_16771)">
<g style="mix-blend-mode:multiply">
<path d="M32.1861 51.8518C31.6266 51.469 31.9701 50.6051 32.6426 50.6984C46.0816 52.6273 57.8273 46.6146 61.5626 37.3231C64.4487 30.1422 62.1565 21.9943 58.1562 16.8896C46.5921 2.13022 22.0896 6.26305 10.1623 18.2198C0.384889 28.0267 -0.0764954 44.774 10.3145 54.2913C16.3125 59.7837 24.5094 63.1312 32.618 63.573C42.0372 64.0883 49.4733 60.2107 53.4982 57.5308C54.0577 57.1578 53.724 56.2841 53.0613 56.3822C47.9812 57.1038 39.8137 57.1038 32.191 51.8567L32.1861 51.8518Z" fill="#929AFF"/>
</g>
<g style="mix-blend-mode:multiply">
<path d="M30.1737 2.61609C30.8265 2.7977 30.7676 3.7352 30.1001 3.853C21.1963 5.43349 12.6362 9.68412 6.74124 15.5938C4.93006 17.4099 3.39865 19.4321 2.15193 21.5918C1.81326 22.1808 0.905211 21.8912 0.978836 21.2138C2.0734 11.1075 7.40878 0.407335 7.40878 0.407335C7.40878 0.407335 20.7595 -0.00496614 30.1737 2.621V2.61609Z" fill="#929AFF"/>
</g>
</g>
<defs>
<clipPath id="clip0_314_16771">
<rect width="62.6109" height="64" fill="white" transform="translate(0.61084)"/>
</clipPath>
</defs>
</svg>
