<svg width="84" height="56" viewBox="0 0 84 56" fill="none" xmlns="http://www.w3.org/2000/svg">
<g clip-path="url(#clip0_314_16780)">
<g style="mix-blend-mode:multiply">
<path d="M25.1037 41.2989C24.6577 40.9937 24.9315 40.3052 25.4675 40.3795C36.1785 41.917 45.5398 37.1248 48.5169 29.7194C50.8171 23.9962 48.9902 17.5023 45.802 13.4338C36.5853 1.6705 17.0567 4.96438 7.5506 14.494C-0.245975 22.3101 -0.60979 35.6617 7.66796 43.247C12.4484 47.6245 18.9814 50.2925 25.444 50.6446C32.9511 51.0553 38.8777 47.9649 42.0856 45.8289C42.5315 45.5316 42.2655 44.8353 41.7374 44.9135C37.6885 45.4886 31.179 45.4886 25.1037 41.3067V41.2989Z" fill="#929AFF"/>
</g>
<g style="mix-blend-mode:multiply">
<path d="M23.4999 2.06163C24.0202 2.20638 23.9732 2.95357 23.4412 3.04745C16.3448 4.30711 9.52235 7.69489 4.82406 12.4049C3.38054 13.8523 2.16 15.4641 1.16636 17.1854C0.896433 17.6548 0.172717 17.424 0.231396 16.8841C1.10377 8.82545 5.35218 0.297331 5.35218 0.297331C5.35218 0.297331 15.9928 -0.0312753 23.4959 2.06163H23.4999Z" fill="#929AFF"/>
</g>
<g style="mix-blend-mode:multiply">
<path d="M59.7599 20.3189C60.2059 20.624 59.9321 21.3125 59.3961 21.2382C48.6851 19.7008 39.3237 24.4929 36.3467 31.8983C34.0465 37.6215 35.8734 44.1154 39.0616 48.1839C48.2783 59.9472 67.8069 56.6533 77.313 47.1237C85.1096 39.3076 85.4734 25.956 77.1956 18.3707C72.4152 13.9932 65.8822 11.3252 59.4196 10.9731C51.9125 10.5624 45.9858 13.6528 42.778 15.7888C42.3321 16.0861 42.5981 16.7824 43.1262 16.7042C47.1751 16.1291 53.6846 16.1291 59.7599 20.311V20.3189Z" fill="#AC6DFF"/>
</g>
</g>
<defs>
<clipPath id="clip0_314_16780">
<rect width="83.1687" height="56" fill="white" transform="translate(0.168945)"/>
</clipPath>
</defs>
</svg>
