<svg width="145" height="40" viewBox="0 0 145 40" fill="none" xmlns="http://www.w3.org/2000/svg">
<path d="M77.7104 13.9489C77.4366 13.2364 77.0258 12.5881 76.481 12.0097C75.9333 11.4313 75.2487 10.973 74.4216 10.6349C73.5945 10.2968 72.6249 10.1292 71.5099 10.1292H67.6231C66.9134 10.1292 66.335 10.7048 66.335 11.4173V22.5804H71.5099C72.6249 22.5804 73.5945 22.4044 74.4216 22.0495C75.2487 21.6946 75.9333 21.2252 76.481 20.6384C77.0258 20.0544 77.4366 19.4005 77.7104 18.6824C77.9843 17.9615 78.124 17.2434 78.124 16.5224V16.1536C78.124 15.3991 77.9843 14.667 77.7104 13.9517V13.9489ZM75.9305 18.1319C75.7293 18.688 75.4275 19.1686 75.0279 19.5738C74.6284 19.979 74.1505 20.2947 73.5945 20.5266C73.0384 20.7558 72.4013 20.8703 71.6804 20.8703H68.1736V12.4568C68.1736 12.1019 68.4614 11.8141 68.8163 11.8141H71.6804C72.4013 11.8141 73.0384 11.9203 73.5945 12.1354C74.1505 12.3506 74.6284 12.6608 75.0279 13.0631C75.4247 13.4683 75.7265 13.9461 75.9305 14.4966C76.1317 15.0471 76.2351 15.659 76.2351 16.3324C76.2351 17.0059 76.1317 17.5731 75.9305 18.1292V18.1319Z" fill="#22194D"/>
<path d="M84.09 22.5778H79.2168V17.8638C79.2224 17.2547 79.3314 16.7405 79.5549 16.1146C81.0442 12.1523 87.1497 12.1495 88.6391 16.1146C88.8654 16.7349 88.9772 17.2435 88.9856 17.8498C89.0191 20.4765 87.0966 22.6225 84.0956 22.575L84.09 22.5778ZM84.09 20.9934C86.0488 21.0605 87.1665 19.5655 87.1693 17.875C87.1693 17.3106 87.0463 16.8523 86.7893 16.3298C85.8224 14.2257 82.3715 14.2257 81.3991 16.3298C81.1504 16.8551 81.0275 17.3133 81.0275 17.875V20.9934H84.09Z" fill="#22194D"/>
<path d="M94.7106 22.815C93.9226 22.815 93.2464 22.6809 92.6792 22.4099C92.1119 22.1388 91.6397 21.7812 91.2625 21.3313C90.8852 20.8814 90.6058 20.3784 90.4186 19.8224C90.2342 19.2663 90.1392 18.7075 90.1392 18.143V17.8384C90.1392 17.2544 90.2314 16.6816 90.4186 16.1256C90.603 15.5695 90.888 15.0693 91.2708 14.625C91.6537 14.1807 92.1287 13.8231 92.6959 13.5548C93.2632 13.2838 93.9254 13.1497 94.6771 13.1497C95.4287 13.1497 96.1273 13.295 96.7336 13.5884C97.34 13.8818 97.829 14.2897 98.2006 14.8122C98.5723 15.3348 98.779 15.9467 98.8238 16.6425H97.0857C97.0075 16.1032 96.7616 15.6533 96.3508 15.2929C95.9401 14.9324 95.3812 14.7536 94.6715 14.7536C94.0651 14.7536 93.5593 14.8933 93.1542 15.1755C92.749 15.4577 92.4444 15.8405 92.2432 16.3323C92.0421 16.8213 91.9387 17.3746 91.9387 17.9949C91.9387 18.6153 92.0365 19.1378 92.2349 19.6324C92.4305 20.127 92.735 20.5182 93.1458 20.806C93.5565 21.0938 94.0763 21.2363 94.705 21.2363C95.1772 21.2363 95.5908 21.1497 95.9457 20.9736C96.3005 20.8004 96.5827 20.5657 96.7979 20.2723C97.0103 19.9789 97.1416 19.6491 97.1863 19.2775H98.9076C98.8741 19.9984 98.6673 20.6215 98.2928 21.1497C97.9156 21.6778 97.4182 22.0885 96.8007 22.3819C96.1832 22.6753 95.4846 22.8206 94.7078 22.8206L94.7106 22.815Z" fill="#22194D"/>
<path d="M108.755 17.601C108.755 16.8354 108.595 16.1173 108.274 15.4411C107.953 14.7649 107.475 14.2144 106.832 13.7897C106.192 13.3593 105.382 13.147 104.404 13.147C103.649 13.147 102.993 13.2783 102.431 13.5438C101.87 13.8064 101.406 14.1669 101.04 14.614C100.674 15.0638 100.403 15.564 100.224 16.1145C100.042 16.665 99.9526 17.2378 99.9526 17.8358V18.1403C99.9526 18.7132 100.042 19.2776 100.224 19.8337C100.403 20.3897 100.676 20.8927 101.04 21.337C101.406 21.7785 101.878 22.1361 102.456 22.4072C103.035 22.6782 103.719 22.8124 104.507 22.8124C105.228 22.8124 105.868 22.6894 106.438 22.4491C107.005 22.206 107.478 21.8595 107.855 21.4013C108.232 20.9486 108.481 20.4093 108.604 19.7918H106.916C106.827 20.1857 106.572 20.5266 106.148 20.82C105.726 21.1134 105.178 21.2587 104.505 21.2587C103.831 21.2587 103.314 21.119 102.892 20.8368C102.47 20.5574 102.16 20.169 101.956 19.6744C101.794 19.2804 101.696 18.8389 101.666 18.3583H108.755V17.601ZM101.727 17.0953C101.777 16.7991 101.856 16.528 101.959 16.2766C102.16 15.7876 102.465 15.402 102.87 15.1197C103.275 14.8403 103.786 14.7006 104.404 14.7006C104.991 14.7006 105.477 14.8263 105.874 15.0806C106.268 15.3321 106.558 15.687 106.751 16.1424C106.871 16.4274 106.952 16.746 106.997 17.0953H101.73H101.727Z" fill="#22194D"/>
<path d="M118.415 17.3468V22.5777H116.61V17.045C116.61 16.38 116.422 15.8463 116.048 15.4411C115.668 15.0359 115.157 14.8319 114.506 14.8319C113.855 14.8319 113.285 15.0415 112.868 15.4551C112.452 15.8714 112.245 16.4303 112.245 17.126V22.5749H110.44V13.3454H111.857V15.6367C111.904 15.4355 111.966 15.2427 112.033 15.0667C112.276 14.4491 112.645 13.9797 113.139 13.6583C113.634 13.337 114.251 13.1777 114.995 13.1777H115.078C116.205 13.1777 117.043 13.5326 117.59 14.2396C118.141 14.9465 118.418 15.9832 118.418 17.344L118.415 17.3468Z" fill="#22194D"/>
<path d="M122.528 14.6839V19.5068C122.528 19.979 122.656 20.3451 122.916 20.6022C123.176 20.862 123.539 20.9906 124.011 20.9906H125.565V22.5777H124.199C123.478 22.5777 122.866 22.4771 122.36 22.2815C121.854 22.0859 121.469 21.7478 121.203 21.27C120.94 20.7922 120.806 20.1411 120.806 19.3196V14.6811H119.289V13.3482C120.127 13.3482 120.806 12.6692 120.806 11.8309V10.9871H122.528V13.3482H125.565V14.6811H122.528V14.6839Z" fill="#22194D"/>
<path d="M135.057 17.601C135.057 16.8354 134.898 16.1173 134.58 15.4411C134.258 14.7649 133.778 14.2144 133.135 13.7897C132.495 13.3593 131.685 13.147 130.707 13.147C129.952 13.147 129.296 13.2783 128.734 13.5438C128.172 13.8064 127.708 14.1669 127.342 14.614C126.976 15.0638 126.705 15.564 126.526 16.1145C126.345 16.665 126.255 17.2378 126.255 17.8358V18.1403C126.255 18.7132 126.345 19.2776 126.526 19.8337C126.705 20.3897 126.979 20.8927 127.342 21.337C127.708 21.7785 128.181 22.1361 128.759 22.4072C129.337 22.6782 130.022 22.8124 130.81 22.8124C131.531 22.8124 132.171 22.6894 132.741 22.4491C133.308 22.206 133.78 21.8595 134.158 21.4013C134.535 20.9486 134.783 20.4093 134.906 19.7918H133.219C133.129 20.1857 132.875 20.5266 132.45 20.82C132.031 21.1134 131.481 21.2587 130.807 21.2587C130.134 21.2587 129.617 21.119 129.195 20.8368C128.776 20.5574 128.463 20.169 128.259 19.6744C128.097 19.2804 127.999 18.8389 127.968 18.3583H135.055V17.601H135.057ZM128.03 17.0953C128.08 16.7991 128.158 16.528 128.262 16.2766C128.463 15.7876 128.767 15.402 129.173 15.1197C129.578 14.8403 130.089 14.7006 130.707 14.7006C131.293 14.7006 131.78 14.8263 132.176 15.0806C132.57 15.3321 132.861 15.687 133.054 16.1424C133.174 16.4274 133.255 16.746 133.3 17.0953H128.033H128.03Z" fill="#22194D"/>
<path d="M139.886 22.7816C138.681 22.7816 137.748 22.5245 137.086 22.0132C136.424 21.5018 136.08 20.8005 136.058 19.9119H137.729C137.751 20.25 137.927 20.563 138.26 20.8564C138.592 21.1498 139.14 21.2951 139.905 21.2951C140.579 21.2951 141.104 21.1637 141.473 20.8983C141.845 20.6328 142.029 20.3059 142.029 19.9119C142.029 19.5514 141.892 19.2748 141.615 19.0764C141.339 18.8808 140.892 18.7467 140.274 18.6796L139.33 18.579C138.43 18.4896 137.712 18.2242 137.17 17.7855C136.63 17.3468 136.359 16.746 136.359 15.9804C136.359 15.3964 136.507 14.8962 136.806 14.4798C137.105 14.0635 137.516 13.7449 138.047 13.527C138.575 13.3062 139.182 13.1973 139.869 13.1973C140.903 13.1973 141.744 13.4292 142.389 13.8902C143.035 14.3513 143.376 15.0331 143.409 15.9301H141.738C141.716 15.5808 141.551 15.2874 141.241 15.0443C140.931 14.804 140.467 14.681 139.849 14.681C139.265 14.681 138.816 14.8012 138.5 15.0443C138.184 15.2874 138.028 15.592 138.028 15.9636C138.028 16.2793 138.139 16.5308 138.366 16.7236C138.589 16.9136 138.966 17.0394 139.495 17.0953L140.422 17.1959C141.423 17.2965 142.219 17.5731 142.809 18.023C143.398 18.4729 143.694 19.096 143.694 19.8951C143.694 20.4568 143.535 20.957 143.214 21.3957C142.892 21.8344 142.445 22.1753 141.872 22.4156C141.3 22.6587 140.635 22.7788 139.883 22.7788L139.886 22.7816Z" fill="#22194D"/>
<path d="M73.9244 27.1155V31.8043C73.5919 31.265 73.1643 30.8626 72.6502 30.5916C72.0941 30.2982 71.4682 30.1529 70.7697 30.1529C70.1158 30.1529 69.5234 30.273 68.9897 30.5133C68.456 30.7564 67.9949 31.0889 67.6065 31.5165C67.2181 31.9468 66.9191 32.4414 66.7124 33.0002C66.5028 33.5619 66.3994 34.171 66.3994 34.8221V35.1434C66.3994 35.7945 66.5056 36.4036 66.7208 36.9653C66.9331 37.5269 67.2405 38.0243 67.6373 38.449C68.0369 38.8794 68.5063 39.2091 69.0484 39.4466C69.5877 39.6813 70.1801 39.8015 70.8199 39.8015C71.4934 39.8015 72.1221 39.6534 72.7033 39.3628C73.2817 39.0694 73.7567 38.6055 74.1256 37.9712C74.1898 37.865 74.2457 37.7533 74.296 37.6359V39.5668H75.7295V27.1155H73.9244ZM73.9914 35.2636C73.9914 35.8811 73.8629 36.412 73.6031 36.8563C73.3432 37.3006 72.9995 37.6443 72.5664 37.8846C72.1333 38.1277 71.6526 38.2479 71.1245 38.2479C70.5629 38.2479 70.0571 38.1137 69.6156 37.8427C69.1713 37.5716 68.8248 37.1944 68.5789 36.7026C68.3303 36.2136 68.2073 35.638 68.2073 34.9758C68.2073 34.3135 68.3303 33.7519 68.5706 33.2629C68.8137 32.7739 69.1546 32.3939 69.5933 32.1172C70.032 31.8434 70.5377 31.7037 71.1106 31.7037C71.6275 31.7037 72.1081 31.8182 72.544 32.0418C72.9827 32.2653 73.3348 32.5867 73.5975 33.003C73.8629 33.4194 73.9942 33.9279 73.9942 34.5231V35.2664L73.9914 35.2636Z" fill="#22194D"/>
<path d="M82.3068 39.5641H77.4336V34.8501C77.4392 34.241 77.5482 33.7268 77.7717 33.1009C79.261 29.1387 85.3665 29.1359 86.8559 33.1009C87.0822 33.7213 87.194 34.2298 87.2024 34.8362C87.2359 37.4628 85.3134 39.6088 82.3124 39.5613L82.3068 39.5641ZM82.3068 37.9797C84.2656 38.0468 85.3833 36.5519 85.3861 34.8613C85.3861 34.2969 85.2631 33.8386 85.0061 33.3161C84.0393 31.212 80.5883 31.212 79.6159 33.3161C79.3672 33.8414 79.2443 34.2997 79.2443 34.8613V37.9797H82.3068Z" fill="#22194D"/>
<path d="M103.18 34.1179C102.851 33.6904 102.401 33.3802 101.834 33.1874C102.166 33.0086 102.448 32.7711 102.675 32.4805C103.024 32.0306 103.2 31.4298 103.2 30.6754V30.4407C103.2 29.3705 102.859 28.5517 102.177 27.9761C101.495 27.4005 100.476 27.1155 99.1147 27.1155H94.4678C93.7581 27.1155 93.1797 27.6911 93.1797 28.4036V39.5668H99.6205C100.534 39.5668 101.291 39.4354 101.898 39.17C102.507 38.9073 102.957 38.5217 103.259 38.0131C103.555 37.5074 103.706 36.8926 103.706 36.1745V35.9398C103.706 35.1742 103.53 34.5678 103.18 34.1179ZM99.3858 28.6859C100.051 28.6859 100.54 28.8647 100.856 29.2252C101.169 29.5856 101.328 30.0523 101.328 30.6251C101.328 31.1979 101.169 31.645 100.856 31.9999C100.54 32.3547 100.051 32.5308 99.3858 32.5308H95.0043V29.3285C95.0043 28.9737 95.2922 28.6859 95.647 28.6859H99.383H99.3858ZM101.317 37.4571C100.973 37.8147 100.481 37.9964 99.8412 37.9964H95.0043V34.0481H99.8412C100.481 34.0481 100.973 34.2241 101.317 34.5706C101.66 34.9199 101.831 35.3977 101.831 36.0041C101.831 36.6104 101.658 37.0938 101.317 37.4543V37.4571Z" fill="#22194D"/>
<path d="M110.77 30.3374V31.9413H110.18C109.303 31.9413 108.629 32.176 108.165 32.6427C107.699 33.1093 107.467 33.7799 107.467 34.6573V39.5669H105.662V30.3374H107.078V33.2965C107.182 32.4303 107.456 31.7569 107.886 31.2819C108.461 30.6532 109.314 30.3374 110.451 30.3374H110.772H110.77Z" fill="#22194D"/>
<path d="M118.325 31.7819C118.032 31.279 117.588 30.9157 116.992 30.6866C116.394 30.4547 115.637 30.3401 114.715 30.3401C114.433 30.3401 114.139 30.3457 113.838 30.3485C113.536 30.3541 113.237 30.3652 112.946 30.382C112.653 30.3988 112.385 30.4183 112.136 30.4407V32.0083C112.407 31.9859 112.717 31.9691 113.072 31.958C113.427 31.9468 113.793 31.9356 114.167 31.9244C114.545 31.9133 114.897 31.9077 115.224 31.9077C115.819 31.9077 116.269 32.0586 116.573 32.3548C116.878 32.6537 117.029 33.098 117.029 33.696V33.8832H114.852C114.075 33.8832 113.404 33.9922 112.837 34.2129C112.27 34.4309 111.837 34.755 111.538 35.1826C111.242 35.6101 111.091 36.1494 111.091 36.8004C111.091 37.4515 111.228 37.9461 111.496 38.3876C111.764 38.8263 112.144 39.1588 112.633 39.3907C113.125 39.6199 113.703 39.7344 114.38 39.7344C115.008 39.7344 115.548 39.6199 115.992 39.3963C116.433 39.1728 116.786 38.8403 117.037 38.4016C117.157 38.192 117.258 37.9601 117.333 37.7058V39.5668H118.767V33.7966C118.767 32.9555 118.621 32.2821 118.328 31.7819H118.325ZM115.847 38.1501C115.52 38.2842 115.17 38.3513 114.799 38.3513C114.178 38.3513 113.703 38.2032 113.365 37.9098C113.03 37.6192 112.86 37.2364 112.86 36.7641C112.86 36.2919 113.03 35.9035 113.365 35.6017C113.703 35.2971 114.181 35.1462 114.799 35.1462H117.026V36.141C117.004 36.7026 116.883 37.1441 116.663 37.4655C116.442 37.7868 116.171 38.0132 115.847 38.1501Z" fill="#22194D"/>
<path d="M124.07 39.7679C122.866 39.7679 121.933 39.5109 121.27 38.9995C120.608 38.4882 120.265 37.7868 120.242 36.8982H121.913C121.936 37.2363 122.112 37.5493 122.444 37.8427C122.777 38.1361 123.324 38.2814 124.09 38.2814C124.763 38.2814 125.289 38.1501 125.657 37.8846C126.029 37.6192 126.214 37.2922 126.214 36.8982C126.214 36.5378 126.077 36.2611 125.8 36.0627C125.523 35.8671 125.076 35.733 124.459 35.666L123.514 35.5654C122.615 35.4759 121.896 35.2105 121.354 34.7718C120.815 34.3331 120.544 33.7323 120.544 32.9667C120.544 32.3827 120.692 31.8825 120.991 31.4662C121.29 31.0498 121.701 30.7313 122.232 30.5133C122.76 30.2926 123.366 30.1836 124.054 30.1836C125.087 30.1836 125.929 30.4155 126.574 30.8766C127.219 31.3376 127.56 32.0194 127.594 32.9164H125.923C125.901 32.5671 125.736 32.2737 125.426 32.0306C125.115 31.7903 124.652 31.6674 124.034 31.6674C123.45 31.6674 123 31.7875 122.684 32.0306C122.369 32.2737 122.212 32.5783 122.212 32.9499C122.212 33.2657 122.324 33.5172 122.55 33.71C122.774 33.9 123.151 34.0257 123.679 34.0816L124.607 34.1822C125.607 34.2828 126.404 34.5594 126.993 35.0093C127.583 35.4592 127.879 36.0823 127.879 36.8815C127.879 37.4431 127.72 37.9433 127.398 38.382C127.077 38.8207 126.63 39.1616 126.057 39.4019C125.484 39.645 124.819 39.7652 124.068 39.7652L124.07 39.7679Z" fill="#22194D"/>
<path d="M131.098 30.3374H129.292V39.5669H131.098V30.3374Z" fill="#22194D"/>
<path d="M131.098 27.9761H129.292V29.7812H131.098V27.9761Z" fill="#22194D"/>
<path d="M134.711 27.1155H132.906V39.5668H134.711V27.1155Z" fill="#22194D"/>
<g style="mix-blend-mode:multiply">
<path d="M18.8404 29.4991C18.5219 29.2812 18.7175 28.7894 19.1003 28.8425C26.751 29.9406 33.4377 26.5177 35.5641 21.2281C37.2072 17.1401 35.9022 12.5016 33.6249 9.59555C27.0416 1.19318 13.0926 3.54595 6.30253 10.3528C0.736336 15.9358 0.476468 25.4698 6.38915 30.8879C9.80375 34.0147 14.4702 35.9204 19.0863 36.1719C24.4485 36.4653 28.6819 34.2578 30.9732 32.7321C31.2917 32.5198 31.1017 32.0224 30.7245 32.0783C27.8324 32.489 23.1827 32.489 18.8432 29.5019L18.8404 29.4991Z" fill="#929AFF"/>
</g>
<g style="mix-blend-mode:multiply">
<path d="M17.695 1.4726C18.0666 1.57598 18.0331 2.10969 17.6531 2.17675C12.5843 3.07651 7.71107 5.49635 4.35515 8.86065C3.32406 9.89453 2.45225 11.0458 1.7425 12.2753C1.5497 12.6106 1.03276 12.4457 1.07467 12.0601C1.69779 6.30389 4.73517 0.212379 4.73517 0.212379C4.73517 0.212379 12.3356 -0.0223395 17.695 1.4726Z" fill="#929AFF"/>
</g>
<g style="mix-blend-mode:multiply">
<path d="M43.595 14.5135C43.9135 14.7315 43.7179 15.2233 43.3351 15.1702C35.6844 14.072 28.9977 17.495 26.8713 22.7846C25.2282 26.8726 26.5332 31.5111 28.8105 34.4171C35.3938 42.8195 49.3428 40.4667 56.1329 33.6599C61.7019 28.0769 61.9617 18.5401 56.049 13.122C52.6345 9.9952 47.968 8.08951 43.3519 7.83802C37.9897 7.54462 33.7563 9.7521 31.465 11.2778C31.1465 11.4901 31.3365 11.9875 31.7137 11.9316C34.6058 11.5209 39.2555 11.5209 43.595 14.5079V14.5135Z" fill="#AC6DFF"/>
</g>
</svg>
