<svg width="202" height="56" viewBox="0 0 202 56" fill="none" xmlns="http://www.w3.org/2000/svg">
<path d="M108.522 19.5286C108.139 18.531 107.564 17.6235 106.801 16.8137C106.034 16.0039 105.076 15.3623 103.918 14.889C102.76 14.4156 101.403 14.1809 99.8417 14.1809H94.4001C93.4065 14.1809 92.5967 14.9868 92.5967 15.9843V31.6127H99.8417C101.403 31.6127 102.76 31.3662 103.918 30.8694C105.076 30.3726 106.034 29.7154 106.801 28.8939C107.564 28.0763 108.139 27.1609 108.522 26.1555C108.906 25.1462 109.101 24.1408 109.101 23.1315V22.6151C109.101 21.5589 108.906 20.534 108.522 19.5325V19.5286ZM106.03 25.3848C105.749 26.1633 105.326 26.8362 104.767 27.4034C104.207 27.9706 103.538 28.4127 102.76 28.7374C101.982 29.0582 101.09 29.2186 100.08 29.2186H95.1708V17.4396C95.1708 16.9428 95.5737 16.5398 96.0705 16.5398H100.08C101.09 16.5398 101.982 16.6885 102.76 16.9897C103.538 17.2909 104.207 17.7252 104.767 18.2885C105.322 18.8557 105.745 19.5247 106.03 20.2953C106.312 21.066 106.457 21.9227 106.457 22.8655C106.457 23.8083 106.312 24.6024 106.03 25.3809V25.3848Z" fill="#22194D"/>
<path d="M117.453 31.6087H110.631V25.0092C110.639 24.1564 110.791 23.4366 111.104 22.5603C113.189 17.0131 121.737 17.0092 123.822 22.5603C124.139 23.4288 124.295 24.1407 124.307 24.9896C124.354 28.6669 121.663 31.6713 117.461 31.6048L117.453 31.6087ZM117.453 29.3906C120.196 29.4845 121.76 27.3916 121.764 25.0248C121.764 24.2346 121.592 23.5931 121.232 22.8615C119.879 19.9158 115.047 19.9158 113.686 22.8615C113.338 23.597 113.166 24.2385 113.166 25.0248V29.3906H117.453Z" fill="#22194D"/>
<path d="M132.323 31.9412C131.22 31.9412 130.273 31.7534 129.479 31.374C128.685 30.9945 128.024 30.4938 127.495 29.8639C126.967 29.2341 126.576 28.53 126.314 27.7515C126.056 26.973 125.923 26.1906 125.923 25.4004V24.974C125.923 24.1564 126.052 23.3544 126.314 22.5759C126.572 21.7974 126.971 21.0972 127.507 20.4752C128.043 19.8532 128.708 19.3525 129.502 18.9769C130.296 18.5974 131.224 18.4097 132.276 18.4097C133.328 18.4097 134.306 18.6131 135.155 19.0238C136.004 19.4346 136.689 20.0058 137.209 20.7373C137.729 21.4688 138.019 22.3256 138.081 23.2996H135.648C135.538 22.5446 135.194 21.9148 134.619 21.4102C134.044 20.9055 133.262 20.6551 132.268 20.6551C131.419 20.6551 130.711 20.8507 130.144 21.2459C129.577 21.641 129.15 22.1769 128.869 22.8654C128.587 23.55 128.442 24.3246 128.442 25.193C128.442 26.0615 128.579 26.793 128.857 27.4855C129.131 28.1779 129.557 28.7256 130.132 29.1285C130.707 29.5314 131.435 29.7309 132.315 29.7309C132.976 29.7309 133.555 29.6097 134.052 29.3632C134.549 29.1207 134.944 28.7921 135.245 28.3813C135.542 27.9705 135.726 27.5089 135.789 26.9886H138.199C138.152 27.9979 137.862 28.8703 137.338 29.6097C136.81 30.349 136.114 30.9241 135.249 31.3349C134.384 31.7456 133.406 31.949 132.319 31.949L132.323 31.9412Z" fill="#22194D"/>
<path d="M151.984 24.6415C151.984 23.5696 151.761 22.5642 151.311 21.6175C150.862 20.6708 150.193 19.9001 149.293 19.3055C148.397 18.7031 147.263 18.4058 145.893 18.4058C144.837 18.4058 143.918 18.5896 143.132 18.9613C142.345 19.329 141.696 19.8336 141.183 20.4596C140.671 21.0894 140.291 21.7896 140.041 22.5603C139.787 23.3309 139.662 24.1329 139.662 24.9701V25.3965C139.662 26.1984 139.787 26.9886 140.041 27.7671C140.291 28.5456 140.675 29.2498 141.183 29.8718C141.696 30.4899 142.357 30.9906 143.167 31.3701C143.977 31.7495 144.935 31.9373 146.038 31.9373C147.047 31.9373 147.943 31.7652 148.741 31.4287C149.535 31.0884 150.197 30.6033 150.725 29.9618C151.253 29.328 151.601 28.573 151.773 27.7085H149.41C149.285 28.26 148.929 28.7373 148.334 29.1481C147.744 29.5588 146.977 29.7622 146.034 29.7622C145.091 29.7622 144.368 29.5666 143.777 29.1715C143.186 28.7803 142.752 28.2366 142.467 27.5442C142.24 26.9926 142.103 26.3745 142.06 25.7016H151.984V24.6415ZM142.146 23.9334C142.216 23.5187 142.326 23.1393 142.47 22.7872C142.752 22.1026 143.178 21.5627 143.746 21.1676C144.313 20.7764 145.029 20.5808 145.893 20.5808C146.715 20.5808 147.396 20.7569 147.951 21.1129C148.503 21.4649 148.91 21.9618 149.179 22.5994C149.348 22.9984 149.461 23.4444 149.524 23.9334H142.15H142.146Z" fill="#22194D"/>
<path d="M165.508 24.2857V31.6089H162.981V23.8632C162.981 22.9321 162.719 22.1849 162.195 21.6177C161.663 21.0504 160.947 20.7649 160.035 20.7649C159.124 20.7649 158.326 21.0583 157.743 21.6372C157.16 22.2201 156.87 23.0025 156.87 23.9766V31.605H154.343V18.6837H156.327V21.8915C156.393 21.6099 156.479 21.3399 156.573 21.0935C156.913 20.2289 157.43 19.5717 158.122 19.1218C158.815 18.672 159.679 18.449 160.72 18.449H160.837C162.414 18.449 163.587 18.9458 164.354 19.9355C165.125 20.9253 165.512 22.3766 165.512 24.2817L165.508 24.2857Z" fill="#22194D"/>
<path d="M171.266 20.5574V27.3095C171.266 27.9706 171.446 28.4831 171.81 28.843C172.174 29.2068 172.683 29.3867 173.344 29.3867H175.519V31.6087H173.606C172.596 31.6087 171.74 31.4679 171.032 31.1941C170.324 30.9202 169.784 30.4469 169.412 29.7779C169.044 29.109 168.857 28.1975 168.857 27.0474V20.5535H166.732V18.6875C167.906 18.6875 168.857 17.7368 168.857 16.5633V15.3818H171.266V18.6875H175.519V20.5535H171.266V20.5574Z" fill="#22194D"/>
<path d="M188.808 24.6415C188.808 23.5696 188.585 22.5642 188.139 21.6175C187.689 20.6708 187.016 19.9001 186.117 19.3055C185.221 18.7031 184.086 18.4058 182.717 18.4058C181.661 18.4058 180.742 18.5896 179.955 18.9613C179.169 19.329 178.52 19.8336 178.007 20.4596C177.495 21.0894 177.115 21.7896 176.865 22.5603C176.611 23.3309 176.485 24.1329 176.485 24.9701V25.3965C176.485 26.1984 176.611 26.9886 176.865 27.7671C177.115 28.5456 177.499 29.2498 178.007 29.8718C178.52 30.4899 179.181 30.9906 179.99 31.3701C180.8 31.7495 181.759 31.9373 182.862 31.9373C183.871 31.9373 184.767 31.7652 185.565 31.4287C186.359 31.0884 187.02 30.6033 187.548 29.9618C188.077 29.328 188.425 28.573 188.597 27.7085H186.234C186.109 28.26 185.753 28.7373 185.158 29.1481C184.571 29.5588 183.801 29.7622 182.858 29.7622C181.915 29.7622 181.191 29.5666 180.601 29.1715C180.014 28.7803 179.576 28.2366 179.29 27.5442C179.063 26.9926 178.926 26.3745 178.883 25.7016H188.804V24.6415H188.808ZM178.969 23.9334C179.04 23.5187 179.149 23.1393 179.294 22.7872C179.576 22.1026 180.002 21.5627 180.569 21.1676C181.137 20.7764 181.853 20.5808 182.717 20.5808C183.539 20.5808 184.219 20.7569 184.775 21.1129C185.326 21.4649 185.733 21.9618 186.003 22.5994C186.171 22.9984 186.285 23.4444 186.347 23.9334H178.973H178.969Z" fill="#22194D"/>
<path d="M195.568 31.8944C193.882 31.8944 192.575 31.5345 191.648 30.8186C190.721 30.1027 190.24 29.1208 190.208 27.8768H192.548C192.579 28.3502 192.826 28.7883 193.291 29.1991C193.757 29.6098 194.523 29.8132 195.595 29.8132C196.538 29.8132 197.274 29.6294 197.79 29.2577C198.31 28.8861 198.568 28.4284 198.568 27.8768C198.568 27.3722 198.377 26.9849 197.989 26.7071C197.602 26.4333 196.976 26.2455 196.112 26.1516L194.789 26.0108C193.53 25.8856 192.524 25.514 191.765 24.8998C191.01 24.2856 190.631 23.4445 190.631 22.3727C190.631 21.555 190.838 20.8548 191.257 20.2719C191.675 19.689 192.251 19.2431 192.994 18.9379C193.733 18.6289 194.582 18.4763 195.544 18.4763C196.992 18.4763 198.169 18.801 199.073 19.4465C199.977 20.092 200.454 21.0465 200.501 22.3022H198.162C198.13 21.8132 197.899 21.4025 197.465 21.0621C197.031 20.7257 196.382 20.5536 195.517 20.5536C194.699 20.5536 194.07 20.7218 193.628 21.0621C193.186 21.4025 192.966 21.8289 192.966 22.3492C192.966 22.7912 193.123 23.1433 193.44 23.4132C193.753 23.6793 194.281 23.8553 195.02 23.9335L196.319 24.0744C197.719 24.2152 198.834 24.6025 199.66 25.2323C200.485 25.8621 200.9 26.7345 200.9 27.8533C200.9 28.6396 200.677 29.3399 200.227 29.9541C199.777 30.5683 199.151 31.0455 198.349 31.3819C197.547 31.7223 196.616 31.8905 195.564 31.8905L195.568 31.8944Z" fill="#22194D"/>
<path d="M103.221 37.9619V44.5262C102.756 43.7712 102.157 43.2079 101.438 42.8284C100.659 42.4177 99.7829 42.2142 98.8049 42.2142C97.8895 42.2142 97.0601 42.3825 96.3129 42.7189C95.5657 43.0592 94.9203 43.5248 94.3765 44.1233C93.8327 44.7257 93.4141 45.4181 93.1247 46.2005C92.8313 46.9869 92.6865 47.8397 92.6865 48.7512V49.201C92.6865 50.1125 92.8352 50.9653 93.1364 51.7516C93.4337 52.538 93.864 53.2343 94.4195 53.8289C94.9789 54.4314 95.6362 54.893 96.3951 55.2255C97.1501 55.5541 97.9794 55.7223 98.8753 55.7223C99.8181 55.7223 100.698 55.515 101.512 55.1081C102.322 54.6974 102.987 54.048 103.503 53.16C103.593 53.0113 103.671 52.8548 103.742 52.6905V55.3937H105.749V37.9619H103.221ZM103.315 49.3692C103.315 50.2338 103.135 50.9771 102.772 51.5991C102.408 52.2211 101.927 52.7023 101.32 53.0387C100.714 53.379 100.041 53.5472 99.3017 53.5472C98.5154 53.5472 97.8073 53.3595 97.1892 52.98C96.5672 52.6005 96.0821 52.0724 95.7379 51.3839C95.3897 50.6993 95.2176 49.8935 95.2176 48.9663C95.2176 48.0392 95.3897 47.2529 95.7261 46.5683C96.0665 45.8837 96.5437 45.3516 97.1579 44.9644C97.7721 44.581 98.4802 44.3854 99.2821 44.3854C100.006 44.3854 100.679 44.5458 101.289 44.8587C101.903 45.1717 102.396 45.6216 102.764 46.2045C103.135 46.7873 103.319 47.4993 103.319 48.3326V49.3732L103.315 49.3692Z" fill="#22194D"/>
<path d="M114.958 55.3897H108.135V48.7902C108.143 47.9374 108.296 47.2176 108.609 46.3413C110.694 40.7941 119.241 40.7902 121.326 46.3413C121.643 47.2098 121.8 47.9217 121.812 48.7706C121.858 52.4479 119.167 55.4523 114.966 55.3858L114.958 55.3897ZM114.958 53.1716C117.7 53.2655 119.265 51.1726 119.269 48.8059C119.269 48.0156 119.097 47.3741 118.737 46.6425C117.383 43.6968 112.552 43.6968 111.191 46.6425C110.842 47.378 110.67 48.0195 110.67 48.8059V53.1716H114.958Z" fill="#22194D"/>
<path d="M144.18 47.7653C143.719 47.1668 143.089 46.7326 142.295 46.4626C142.76 46.2123 143.155 45.8798 143.472 45.4729C143.961 44.8431 144.208 44.002 144.208 42.9458V42.6172C144.208 41.1189 143.73 39.9727 142.776 39.1668C141.821 38.3609 140.393 37.9619 138.488 37.9619H131.983C130.989 37.9619 130.179 38.7678 130.179 39.7653V55.3937H139.196C140.476 55.3937 141.536 55.2098 142.385 54.8382C143.237 54.4705 143.867 53.9306 144.29 53.2186C144.704 52.5106 144.916 51.6499 144.916 50.6446V50.3159C144.916 49.2441 144.669 48.3952 144.18 47.7653ZM138.868 40.1604C139.799 40.1604 140.483 40.4108 140.925 40.9155C141.364 41.4201 141.587 42.0734 141.587 42.8754C141.587 43.6773 141.364 44.3032 140.925 44.8001C140.483 45.2969 139.799 45.5433 138.868 45.5433H132.734V41.0602C132.734 40.5634 133.137 40.1604 133.633 40.1604H138.864H138.868ZM141.571 52.4402C141.09 52.9409 140.401 53.1952 139.505 53.1952H132.734V47.6675H139.505C140.401 47.6675 141.09 47.914 141.571 48.3991C142.052 48.8881 142.291 49.557 142.291 50.4059C142.291 51.2548 142.048 51.9316 141.571 52.4362V52.4402Z" fill="#22194D"/>
<path d="M154.805 42.4724V44.7179H153.979C152.751 44.7179 151.808 45.0465 151.159 45.6998C150.506 46.3531 150.181 47.292 150.181 48.5203V55.3937H147.654V42.4724H149.637V46.6152C149.782 45.4025 150.165 44.4597 150.768 43.7947C151.574 42.9145 152.767 42.4724 154.359 42.4724H154.809H154.805Z" fill="#22194D"/>
<path d="M165.383 44.4949C164.972 43.7907 164.35 43.2822 163.517 42.9614C162.68 42.6367 161.62 42.4763 160.329 42.4763C159.934 42.4763 159.523 42.4841 159.1 42.4881C158.678 42.4959 158.259 42.5115 157.852 42.535C157.442 42.5585 157.066 42.5859 156.718 42.6171V44.8118C157.097 44.7805 157.532 44.757 158.028 44.7414C158.525 44.7257 159.038 44.7101 159.562 44.6944C160.09 44.6788 160.583 44.6709 161.041 44.6709C161.874 44.6709 162.504 44.8822 162.93 45.2969C163.357 45.7154 163.568 46.3374 163.568 47.1746V47.4367H160.52C159.433 47.4367 158.494 47.5893 157.7 47.8983C156.906 48.2035 156.299 48.6572 155.881 49.2558C155.466 49.8543 155.255 50.6093 155.255 51.5208C155.255 52.4323 155.447 53.1247 155.822 53.7428C156.198 54.357 156.73 54.8225 157.414 55.1472C158.103 55.468 158.913 55.6284 159.859 55.6284C160.739 55.6284 161.494 55.468 162.117 55.155C162.735 54.8421 163.227 54.3766 163.58 53.7624C163.748 53.469 163.889 53.1443 163.994 52.7883V55.3937H166.001V47.3154C166.001 46.1379 165.798 45.1951 165.387 44.4949H165.383ZM161.913 53.4103C161.455 53.5981 160.966 53.692 160.446 53.692C159.578 53.692 158.913 53.4846 158.439 53.0739C157.97 52.667 157.731 52.1311 157.731 51.47C157.731 50.8088 157.97 50.2651 158.439 49.8426C158.913 49.4162 159.582 49.2049 160.446 49.2049H163.564V50.5976C163.533 51.3839 163.364 52.002 163.055 52.4519C162.746 52.9017 162.367 53.2186 161.913 53.4103Z" fill="#22194D"/>
<path d="M173.426 55.6752C171.74 55.6752 170.433 55.3153 169.506 54.5994C168.579 53.8835 168.098 52.9016 168.066 51.6576H170.406C170.437 52.1309 170.684 52.5691 171.149 52.9798C171.615 53.3906 172.381 53.594 173.453 53.594C174.396 53.594 175.131 53.4101 175.648 53.0385C176.168 52.6669 176.426 52.2092 176.426 51.6576C176.426 51.1529 176.235 50.7656 175.847 50.4879C175.46 50.214 174.834 50.0263 173.97 49.9324L172.647 49.7916C171.388 49.6664 170.382 49.2947 169.623 48.6806C168.868 48.0664 168.489 47.2253 168.489 46.1534C168.489 45.3358 168.696 44.6356 169.115 44.0527C169.533 43.4698 170.108 43.0238 170.852 42.7187C171.591 42.4096 172.44 42.2571 173.402 42.2571C174.85 42.2571 176.027 42.5818 176.931 43.2273C177.835 43.8727 178.312 44.8273 178.359 46.083H176.019C175.988 45.594 175.757 45.1832 175.323 44.8429C174.889 44.5065 174.24 44.3343 173.375 44.3343C172.557 44.3343 171.928 44.5026 171.485 44.8429C171.043 45.1832 170.824 45.6096 170.824 46.1299C170.824 46.572 170.981 46.9241 171.298 47.194C171.611 47.46 172.139 47.6361 172.878 47.7143L174.177 47.8551C175.577 47.996 176.692 48.3832 177.518 49.0131C178.343 49.6429 178.758 50.5153 178.758 51.6341C178.758 52.4204 178.535 53.1207 178.085 53.7348C177.635 54.349 177.009 54.8263 176.207 55.1627C175.405 55.503 174.474 55.6713 173.422 55.6713L173.426 55.6752Z" fill="#22194D"/>
<path d="M183.264 42.4724H180.737V55.3937H183.264V42.4724Z" fill="#22194D"/>
<path d="M183.264 39.1667H180.737V41.6939H183.264V39.1667Z" fill="#22194D"/>
<path d="M188.323 37.9619H185.796V55.3937H188.323V37.9619Z" fill="#22194D"/>
<g style="mix-blend-mode:multiply">
<path d="M26.1046 41.2989C25.6587 40.9937 25.9325 40.3052 26.4684 40.3795C37.1794 41.917 46.5408 37.1248 49.5178 29.7194C51.8181 23.9962 49.9912 17.5023 46.8029 13.4338C37.5863 1.6705 18.0577 4.96438 8.55156 14.494C0.758897 22.3101 0.395083 35.6578 8.67283 43.2431C13.4533 47.6206 19.9863 50.2886 26.4489 50.6407C33.956 51.0514 39.8826 47.961 43.0904 45.825C43.5364 45.5277 43.2704 44.8314 42.7423 44.9096C38.6934 45.4847 32.1838 45.4847 26.1085 41.3028L26.1046 41.2989Z" fill="#929AFF"/>
</g>
<g style="mix-blend-mode:multiply">
<path d="M24.5008 2.06163C25.0211 2.20638 24.9742 2.95357 24.4422 3.04745C17.3458 4.30711 10.5233 7.69489 5.82504 12.4049C4.38152 13.8523 3.16098 15.4641 2.16734 17.1854C1.89741 17.6548 1.17369 17.424 1.23237 16.8841C2.10474 8.82545 6.35707 0.297331 6.35707 0.297331C6.35707 0.297331 16.9977 -0.0312753 24.5008 2.06163Z" fill="#929AFF"/>
</g>
<g style="mix-blend-mode:multiply">
<path d="M60.7609 20.3189C61.2069 20.624 60.933 21.3125 60.3971 21.2382C49.6861 19.7008 40.3247 24.4929 37.3477 31.8983C35.0475 37.6215 36.8743 44.1154 40.0626 48.1839C49.2792 59.9472 68.8078 56.6533 78.314 47.1237C86.1105 39.3076 86.4743 25.956 78.1966 18.3707C73.4162 13.9932 66.8832 11.3252 60.4206 10.9731C52.9135 10.5624 46.9868 13.6528 43.779 15.7888C43.333 16.0861 43.599 16.7824 44.1272 16.7042C48.1761 16.1291 54.6856 16.1291 60.7609 20.311V20.3189Z" fill="#AC6DFF"/>
</g>
</svg>
