<svg width="63" height="64" viewBox="0 0 63 64" fill="none" xmlns="http://www.w3.org/2000/svg">
<g clip-path="url(#clip0_314_16764)">
<path style="mix-blend-mode:multiply" d="M31.5753 51.8518C31.0157 51.469 31.3593 50.6051 32.0317 50.6984C45.4708 52.6273 57.2165 46.6146 60.9518 37.3231C63.8379 30.1422 61.5457 21.9943 57.5454 16.8896C45.9813 2.13022 21.4788 6.26305 9.55149 18.2198C-0.225951 28.0267 -0.687335 44.774 9.70365 54.2913C15.7017 59.7837 23.8986 63.1312 32.0072 63.573C41.4263 64.0883 48.8625 60.2107 52.8873 57.5308C53.4469 57.1578 53.1131 56.2841 52.4505 56.3822C47.3703 57.1038 39.2028 57.1038 31.5802 51.8567L31.5753 51.8518Z" fill="url(#paint0_linear_314_16764)"/>
<path style="mix-blend-mode:multiply" d="M29.5629 2.61609C30.2157 2.7977 30.1568 3.7352 29.4893 3.853C20.5855 5.43349 12.0253 9.68412 6.1304 15.5938C4.31922 17.4099 2.78781 19.4321 1.54109 21.5918C1.20242 22.1808 0.294371 21.8912 0.367997 21.2138C1.46256 11.1075 6.79794 0.407335 6.79794 0.407335C6.79794 0.407335 20.1487 -0.00496614 29.5629 2.621V2.61609Z" fill="url(#paint1_linear_314_16764)"/>
</g>
<defs>
<linearGradient id="paint0_linear_314_16764" x1="19.1473" y1="11.3825" x2="47.601" y2="60.6721" gradientUnits="userSpaceOnUse">
<stop stop-color="#929AFF"/>
<stop offset="0.18" stop-color="#8E94FD"/>
<stop offset="0.42" stop-color="#8483F9"/>
<stop offset="0.69" stop-color="#7368F3"/>
<stop offset="0.98" stop-color="#5C43EA"/>
<stop offset="1" stop-color="#5B41EA"/>
</linearGradient>
<linearGradient id="paint1_linear_314_16764" x1="7.96122" y1="-0.270017" x2="42.9921" y2="60.407" gradientUnits="userSpaceOnUse">
<stop stop-color="#929AFF"/>
<stop offset="0.14" stop-color="#8383F9"/>
<stop offset="0.36" stop-color="#7266F2"/>
<stop offset="0.58" stop-color="#6551ED"/>
<stop offset="0.79" stop-color="#5D45EA"/>
<stop offset="1" stop-color="#5B41EA"/>
</linearGradient>
<clipPath id="clip0_314_16764">
<rect width="62.6109" height="64" fill="white"/>
</clipPath>
</defs>
</svg>
