<svg width="316" height="88" viewBox="0 0 316 88" fill="none" xmlns="http://www.w3.org/2000/svg">
<path d="M169.416 30.6879C168.814 29.1203 167.91 27.6941 166.711 26.4216C165.506 25.1491 164 24.1409 162.181 23.3971C160.361 22.6533 158.228 22.2844 155.775 22.2844H147.224C145.663 22.2844 144.39 23.5508 144.39 25.1184V49.6772H155.775C158.228 49.6772 160.361 49.2899 162.181 48.5092C164 47.7285 165.506 46.6957 166.711 45.4048C167.91 44.12 168.814 42.6815 169.416 41.1016C170.019 39.5156 170.326 37.9357 170.326 36.3497V35.5382C170.326 33.8784 170.019 32.2678 169.416 30.6941V30.6879ZM165.5 39.8906C165.058 41.1139 164.394 42.1713 163.515 43.0626C162.636 43.954 161.584 44.6487 160.361 45.1589C159.138 45.663 157.736 45.915 156.15 45.915H148.435V27.4052C148.435 26.6245 149.068 25.9913 149.849 25.9913H156.15C157.736 25.9913 159.138 26.2249 160.361 26.6983C161.584 27.1716 162.636 27.854 163.515 28.7392C164.388 29.6306 165.052 30.6818 165.5 31.8928C165.943 33.1038 166.17 34.4501 166.17 35.9316C166.17 37.4132 165.943 38.6611 165.5 39.8844V39.8906Z" fill="#22194D"/>
<path d="M183.451 49.6711H172.729V39.3004C172.742 37.9603 172.982 36.8292 173.473 35.4522C176.75 26.7352 190.182 26.729 193.459 35.4522C193.956 36.8169 194.202 37.9357 194.221 39.2697C194.295 45.0483 190.065 49.7695 183.463 49.665L183.451 49.6711ZM183.451 46.1855C187.76 46.3331 190.219 43.0442 190.225 39.325C190.225 38.0833 189.954 37.0751 189.389 35.9255C187.262 31.2965 179.67 31.2965 177.531 35.9255C176.983 37.0812 176.713 38.0894 176.713 39.325V46.1855H183.451Z" fill="#22194D"/>
<path d="M206.817 50.1935C205.083 50.1935 203.596 49.8985 202.348 49.3022C201.1 48.7059 200.061 47.919 199.231 46.9293C198.401 45.9395 197.786 44.833 197.375 43.6097C196.969 42.3863 196.76 41.1569 196.76 39.9151V39.245C196.76 37.9602 196.963 36.7 197.375 35.4767C197.78 34.2533 198.407 33.1529 199.249 32.1755C200.092 31.1981 201.137 30.4112 202.385 29.8211C203.633 29.2248 205.089 28.9297 206.743 28.9297C208.397 28.9297 209.934 29.2494 211.268 29.8948C212.602 30.5403 213.677 31.4378 214.495 32.5874C215.313 33.737 215.768 35.0832 215.866 36.6139H212.042C211.87 35.4275 211.329 34.4378 210.425 33.6447C209.522 32.8517 208.292 32.4583 206.731 32.4583C205.397 32.4583 204.284 32.7657 203.393 33.3866C202.501 34.0074 201.831 34.8496 201.389 35.9316C200.946 37.0074 200.719 38.2246 200.719 39.5893C200.719 40.954 200.934 42.1036 201.37 43.1917C201.801 44.2797 202.471 45.1404 203.374 45.7736C204.278 46.4067 205.421 46.7203 206.805 46.7203C207.844 46.7203 208.753 46.5297 209.534 46.1424C210.315 45.7613 210.936 45.2449 211.409 44.5994C211.876 43.9539 212.165 43.2285 212.264 42.4109H216.05C215.977 43.997 215.522 45.3678 214.698 46.5297C213.868 47.6915 212.774 48.5952 211.415 49.2407C210.057 49.8862 208.52 50.2058 206.811 50.2058L206.817 50.1935Z" fill="#22194D"/>
<path d="M237.714 38.7225C237.714 37.0382 237.364 35.4583 236.657 33.9706C235.95 32.4829 234.898 31.2719 233.485 30.3375C232.077 29.3908 230.294 28.9236 228.142 28.9236C226.483 28.9236 225.038 29.2125 223.802 29.7965C222.567 30.3744 221.546 31.1674 220.741 32.151C219.936 33.1407 219.339 34.2411 218.946 35.4521C218.546 36.6632 218.35 37.9234 218.35 39.2389V39.909C218.35 41.1692 218.546 42.411 218.946 43.6343C219.339 44.8576 219.942 45.9642 220.741 46.9416C221.546 47.9129 222.585 48.6998 223.858 49.2961C225.13 49.8924 226.636 50.1874 228.37 50.1874C229.956 50.1874 231.364 49.9169 232.618 49.3883C233.866 48.8534 234.905 48.0912 235.734 47.083C236.564 46.0871 237.111 44.9007 237.382 43.5421H233.669C233.472 44.4089 232.913 45.1589 231.978 45.8043C231.05 46.4498 229.845 46.7695 228.364 46.7695C226.882 46.7695 225.745 46.4621 224.817 45.8412C223.888 45.2265 223.206 44.372 222.757 43.2839C222.401 42.4171 222.186 41.4458 222.118 40.3885H237.714V38.7225ZM222.253 37.6099C222.364 36.9582 222.536 36.3619 222.763 35.8087C223.206 34.7329 223.876 33.8845 224.767 33.2636C225.659 32.6489 226.784 32.3415 228.142 32.3415C229.433 32.3415 230.503 32.6182 231.376 33.1776C232.243 33.7309 232.882 34.5116 233.306 35.5136C233.571 36.1406 233.749 36.8414 233.847 37.6099H222.259H222.253Z" fill="#22194D"/>
<path d="M258.966 38.1631V49.6711H254.994V37.4992C254.994 36.0361 254.582 34.862 253.759 33.9706C252.923 33.0792 251.798 32.6305 250.365 32.6305C248.933 32.6305 247.679 33.0915 246.763 34.0013C245.847 34.9173 245.392 36.1468 245.392 37.6775V49.6649H241.421V29.3601H244.538V34.4009C244.642 33.9583 244.777 33.5341 244.925 33.1469C245.46 31.7883 246.271 30.7555 247.359 30.0486C248.447 29.3416 249.806 28.9912 251.441 28.9912H251.626C254.103 28.9912 255.947 29.7719 257.152 31.3272C258.363 32.8825 258.972 35.1632 258.972 38.157L258.966 38.1631Z" fill="#22194D"/>
<path d="M268.014 32.3046V42.915C268.014 43.954 268.297 44.7593 268.869 45.3248C269.441 45.8965 270.24 46.1793 271.279 46.1793H274.697V49.671H271.691C270.105 49.671 268.758 49.4497 267.646 49.0194C266.533 48.5891 265.685 47.8453 265.101 46.7941C264.523 45.7429 264.228 44.3105 264.228 42.5032V32.2985H260.89V29.3662C262.734 29.3662 264.228 27.8724 264.228 26.0281V24.1716H268.014V29.3662H274.697V32.2985H268.014V32.3046Z" fill="#22194D"/>
<path d="M295.579 38.7225C295.579 37.0382 295.229 35.4583 294.528 33.9706C293.821 32.4829 292.764 31.2719 291.35 30.3375C289.942 29.3908 288.159 28.9236 286.008 28.9236C284.348 28.9236 282.903 29.2125 281.668 29.7965C280.432 30.3744 279.411 31.1674 278.606 32.151C277.801 33.1407 277.205 34.2411 276.811 35.4521C276.412 36.6632 276.215 37.9234 276.215 39.2389V39.909C276.215 41.1692 276.412 42.411 276.811 43.6343C277.205 44.8576 277.807 45.9642 278.606 46.9416C279.411 47.9129 280.45 48.6998 281.723 49.2961C282.995 49.8924 284.502 50.1874 286.235 50.1874C287.821 50.1874 289.229 49.9169 290.483 49.3883C291.731 48.8534 292.77 48.0912 293.6 47.083C294.43 46.0871 294.977 44.9007 295.247 43.5421H291.534C291.337 44.4089 290.778 45.1589 289.844 45.8043C288.922 46.4498 287.71 46.7695 286.229 46.7695C284.747 46.7695 283.61 46.4621 282.682 45.8412C281.76 45.2265 281.071 44.372 280.623 43.2839C280.266 42.4171 280.051 41.4458 279.983 40.3885H295.573V38.7225H295.579ZM280.118 37.6099C280.229 36.9582 280.401 36.3619 280.629 35.8087C281.071 34.7329 281.741 33.8845 282.633 33.2636C283.524 32.6489 284.649 32.3415 286.008 32.3415C287.299 32.3415 288.368 32.6182 289.241 33.1776C290.108 33.7309 290.747 34.5116 291.171 35.5136C291.436 36.1406 291.614 36.8414 291.712 37.6099H280.125H280.118Z" fill="#22194D"/>
<path d="M306.202 50.1198C303.553 50.1198 301.499 49.5542 300.043 48.4292C298.586 47.3042 297.829 45.7613 297.78 43.8064H301.456C301.506 44.5502 301.893 45.2387 302.624 45.8842C303.356 46.5297 304.561 46.8493 306.245 46.8493C307.727 46.8493 308.882 46.5604 309.694 45.9764C310.512 45.3924 310.917 44.6732 310.917 43.8064C310.917 43.0134 310.616 42.4048 310.007 41.9683C309.399 41.538 308.415 41.2429 307.057 41.0954L304.979 40.8741C302.999 40.6774 301.42 40.0934 300.227 39.1282C299.04 38.1631 298.444 36.8414 298.444 35.157C298.444 33.8722 298.77 32.7718 299.428 31.8558C300.086 30.9399 300.989 30.2391 302.157 29.7596C303.319 29.2739 304.653 29.0342 306.165 29.0342C308.44 29.0342 310.29 29.5444 311.71 30.5587C313.13 31.5731 313.88 33.073 313.954 35.0463H310.278C310.229 34.2779 309.866 33.6324 309.184 33.0976C308.501 32.5689 307.481 32.2984 306.122 32.2984C304.837 32.2984 303.848 32.5628 303.153 33.0976C302.458 33.6324 302.114 34.3025 302.114 35.1201C302.114 35.8148 302.36 36.368 302.858 36.7922C303.35 37.2102 304.18 37.4869 305.342 37.6098L307.383 37.8311C309.583 38.0524 311.335 38.661 312.632 39.6507C313.929 40.6405 314.581 42.0113 314.581 43.7695C314.581 45.0051 314.231 46.1055 313.524 47.0706C312.817 48.0358 311.833 48.7858 310.573 49.3144C309.313 49.8493 307.85 50.1136 306.196 50.1136L306.202 50.1198Z" fill="#22194D"/>
<path d="M161.087 59.6545V69.9699C160.355 68.7834 159.415 67.8982 158.283 67.3019C157.06 66.6564 155.683 66.3368 154.146 66.3368C152.708 66.3368 151.405 66.6011 150.23 67.1298C149.056 67.6646 148.042 68.3961 147.187 69.3367C146.333 70.2834 145.675 71.3715 145.22 72.601C144.759 73.8366 144.532 75.1767 144.532 76.6091V77.316C144.532 78.7484 144.765 80.0885 145.239 81.3241C145.706 82.5597 146.382 83.654 147.255 84.5884C148.134 85.5351 149.167 86.2605 150.359 86.783C151.546 87.2994 152.849 87.5637 154.257 87.5637C155.738 87.5637 157.122 87.2379 158.4 86.5986C159.673 85.9531 160.718 84.9326 161.529 83.5372C161.671 83.3036 161.794 83.0577 161.904 82.7995V87.0474H165.058V59.6545H161.087ZM161.234 77.5804C161.234 78.9389 160.951 80.1069 160.38 81.0844C159.808 82.0618 159.052 82.8179 158.099 83.3466C157.146 83.8814 156.089 84.1458 154.927 84.1458C153.691 84.1458 152.579 83.8507 151.607 83.2544C150.63 82.6581 149.868 81.8282 149.327 80.7463C148.78 79.6705 148.509 78.4041 148.509 76.9472C148.509 75.4902 148.78 74.2546 149.308 73.1788C149.843 72.103 150.593 71.267 151.558 70.6584C152.523 70.0559 153.636 69.7486 154.896 69.7486C156.034 69.7486 157.091 70.0006 158.05 70.4924C159.015 70.9842 159.79 71.6911 160.367 72.6071C160.951 73.5231 161.24 74.6419 161.24 75.9513V77.5865L161.234 77.5804Z" fill="#22194D"/>
<path d="M179.529 87.0412H168.808V76.6706C168.82 75.3304 169.06 74.1993 169.551 72.8223C172.828 64.1053 186.26 64.0991 189.537 72.8223C190.035 74.187 190.28 75.3058 190.299 76.6398C190.373 82.4184 186.143 87.1396 179.541 87.0351L179.529 87.0412ZM179.529 83.5556C183.838 83.7032 186.297 80.4143 186.303 76.6952C186.303 75.4534 186.033 74.4452 185.467 73.2956C183.34 68.6667 175.748 68.6667 173.609 73.2956C173.062 74.4514 172.791 75.4595 172.791 76.6952V83.5556H179.529Z" fill="#22194D"/>
<path d="M225.45 75.0599C224.724 74.1194 223.735 73.437 222.487 73.0128C223.218 72.6194 223.839 72.0969 224.337 71.4575C225.106 70.4678 225.493 69.1461 225.493 67.4863V66.9699C225.493 64.6155 224.743 62.8143 223.243 61.5479C221.743 60.2816 219.499 59.6545 216.505 59.6545H206.282C204.721 59.6545 203.448 60.9209 203.448 62.4885V87.0473H217.618C219.628 87.0473 221.294 86.7584 222.628 86.1744C223.968 85.5966 224.958 84.7482 225.622 83.6294C226.274 82.5167 226.605 81.1643 226.605 79.5844V79.068C226.605 77.3836 226.218 76.0497 225.45 75.0599ZM217.102 63.1094C218.565 63.1094 219.64 63.5028 220.335 64.2958C221.024 65.0888 221.374 66.1155 221.374 67.3757C221.374 68.6359 221.024 69.6195 220.335 70.4002C219.64 71.1809 218.565 71.5682 217.102 71.5682H207.462V64.5233C207.462 63.7426 208.096 63.1094 208.876 63.1094H217.095H217.102ZM221.349 82.4061C220.593 83.1929 219.511 83.5925 218.104 83.5925H207.462V74.9062H218.104C219.511 74.9062 220.593 75.2935 221.349 76.0558C222.106 76.8242 222.481 77.8754 222.481 79.2094C222.481 80.5434 222.099 81.6069 221.349 82.3999V82.4061Z" fill="#22194D"/>
<path d="M242.146 66.7424V70.271H240.849C238.919 70.271 237.437 70.7874 236.417 71.814C235.39 72.8407 234.88 74.316 234.88 76.2463V87.0473H230.909V66.7424H234.025V73.2525C234.253 71.3468 234.855 69.8653 235.802 68.8203C237.068 67.4371 238.943 66.7424 241.445 66.7424H242.152H242.146Z" fill="#22194D"/>
<path d="M258.769 69.9206C258.123 68.8141 257.146 68.0149 255.836 67.5108C254.521 67.0006 252.855 66.7485 250.826 66.7485C250.205 66.7485 249.56 66.7608 248.896 66.767C248.232 66.7793 247.574 66.8039 246.935 66.8407C246.289 66.8776 245.699 66.9207 245.152 66.9698V70.4185C245.748 70.3694 246.431 70.3325 247.212 70.3079C247.992 70.2833 248.798 70.2587 249.621 70.2341C250.451 70.2095 251.226 70.1972 251.945 70.1972C253.254 70.1972 254.244 70.5292 254.914 71.1808C255.584 71.8386 255.916 72.816 255.916 74.1316V74.5434H251.127C249.418 74.5434 247.943 74.7832 246.695 75.2688C245.447 75.7483 244.494 76.4614 243.837 77.402C243.185 78.3425 242.853 79.529 242.853 80.9613C242.853 82.3937 243.154 83.4818 243.744 84.453C244.335 85.4182 245.171 86.1497 246.246 86.66C247.328 87.164 248.601 87.4161 250.089 87.4161C251.472 87.4161 252.658 87.164 253.636 86.6723C254.607 86.1805 255.381 85.4489 255.935 84.4838C256.199 84.0227 256.42 83.5125 256.586 82.9531V87.0472H259.74V74.3529C259.74 72.5025 259.42 71.021 258.775 69.9206H258.769ZM253.316 83.9305C252.597 84.2256 251.828 84.3731 251.011 84.3731C249.646 84.3731 248.601 84.0473 247.857 83.4018C247.119 82.7625 246.744 81.9203 246.744 80.8814C246.744 79.8425 247.119 78.988 247.857 78.3241C248.601 77.654 249.652 77.3221 251.011 77.3221H255.91V79.5105C255.861 80.7462 255.597 81.7174 255.111 82.4244C254.625 83.1313 254.029 83.6293 253.316 83.9305Z" fill="#22194D"/>
<path d="M271.408 87.4899C268.758 87.4899 266.705 86.9243 265.248 85.7993C263.791 84.6744 263.035 83.1314 262.986 81.1765H266.662C266.711 81.9203 267.098 82.6088 267.83 83.2543C268.562 83.8998 269.766 84.2195 271.451 84.2195C272.932 84.2195 274.088 83.9305 274.9 83.3465C275.717 82.7625 276.123 82.0433 276.123 81.1765C276.123 80.3835 275.822 79.7749 275.213 79.3384C274.604 78.9081 273.621 78.613 272.262 78.4655L270.184 78.2442C268.205 78.0475 266.625 77.4635 265.433 76.4983C264.246 75.5332 263.65 74.2115 263.65 72.5271C263.65 71.2423 263.976 70.1419 264.633 69.226C265.291 68.31 266.195 67.6092 267.363 67.1297C268.525 66.644 269.859 66.4043 271.371 66.4043C273.645 66.4043 275.496 66.9145 276.916 67.9289C278.336 68.9432 279.086 70.4431 279.16 72.4165H275.484C275.434 71.648 275.072 71.0026 274.389 70.4677C273.707 69.9391 272.686 69.6686 271.328 69.6686C270.043 69.6686 269.053 69.9329 268.359 70.4677C267.664 71.0026 267.32 71.6726 267.32 72.4902C267.32 73.1849 267.566 73.7381 268.064 74.1623C268.555 74.5803 269.385 74.857 270.547 74.9799L272.588 75.2012C274.789 75.4225 276.541 76.0311 277.838 77.0209C279.135 78.0106 279.787 79.3815 279.787 81.1396C279.787 82.3752 279.436 83.4756 278.729 84.4408C278.022 85.4059 277.039 86.1559 275.779 86.6846C274.518 87.2194 273.055 87.4837 271.402 87.4837L271.408 87.4899Z" fill="#22194D"/>
<path d="M286.868 66.7424H282.897V87.0473H286.868V66.7424Z" fill="#22194D"/>
<path d="M286.868 61.5479H282.897V65.5191H286.868V61.5479Z" fill="#22194D"/>
<path d="M294.817 59.6545H290.846V87.0473H294.817V59.6545Z" fill="#22194D"/>
<path style="mix-blend-mode:multiply" d="M39.903 64.898C39.2022 64.4185 39.6326 63.3366 40.4747 63.4534C57.3063 65.8693 72.0171 58.3388 76.6952 46.7017C80.3099 37.7081 77.4391 27.5034 72.4289 21.1101C57.9457 2.62489 27.2578 7.801 12.3197 22.7761C0.0740397 35.0586 -0.497669 56.0335 12.5102 67.9533C20.0224 74.8322 30.2885 79.0247 40.444 79.578C52.2409 80.2235 61.5542 75.3671 66.5951 72.0106C67.2959 71.5434 66.8778 70.4491 66.0479 70.5721C59.6854 71.4757 49.4561 71.4757 39.9092 64.9042L39.903 64.898Z" fill="url(#paint0_linear_800_12473)"/>
<path style="mix-blend-mode:multiply" d="M37.3825 3.23971C38.2001 3.46716 38.1264 4.64132 37.2903 4.78885C26.1389 6.76832 15.4179 12.092 8.03484 19.4934C5.76645 21.768 3.84846 24.3007 2.28702 27.0055C1.86285 27.7432 0.725583 27.3805 0.817794 26.5322C2.18866 13.8686 8.87089 0.467234 8.87089 0.467234C8.87089 0.467234 25.5918 -0.0491469 37.3825 3.23971Z" fill="url(#paint1_linear_800_12473)"/>
<path style="mix-blend-mode:multiply" d="M94.3628 31.9297C95.0636 32.4092 94.6333 33.4912 93.7911 33.3744C76.9595 30.9584 62.2488 38.489 57.5706 50.126C53.9559 59.1197 56.8268 69.3244 61.8369 75.7177C76.3202 94.2029 107.008 89.0268 121.946 74.0517C134.198 61.7692 134.77 40.7881 121.762 28.8683C114.25 21.9894 103.983 17.7969 93.8279 17.2436C82.0311 16.5981 72.7178 21.4546 67.6769 24.811C66.9761 25.2782 67.3941 26.3725 68.224 26.2495C74.5866 25.3459 84.8159 25.3459 94.3628 31.9174V31.9297Z" fill="url(#paint2_linear_800_12473)"/>
<defs>
<linearGradient id="paint0_linear_800_12473" x1="24.3378" y1="14.2127" x2="59.9743" y2="75.9449" gradientUnits="userSpaceOnUse">
<stop stop-color="#929AFF"/>
<stop offset="0.18" stop-color="#8E94FD"/>
<stop offset="0.42" stop-color="#8483F9"/>
<stop offset="0.69" stop-color="#7368F3"/>
<stop offset="0.98" stop-color="#5C43EA"/>
<stop offset="1" stop-color="#5B41EA"/>
</linearGradient>
<linearGradient id="paint1_linear_800_12473" x1="10.334" y1="-0.381106" x2="54.2079" y2="75.613" gradientUnits="userSpaceOnUse">
<stop stop-color="#929AFF"/>
<stop offset="0.14" stop-color="#8383F9"/>
<stop offset="0.36" stop-color="#7266F2"/>
<stop offset="0.58" stop-color="#6551ED"/>
<stop offset="0.79" stop-color="#5D45EA"/>
<stop offset="1" stop-color="#5B41EA"/>
</linearGradient>
<linearGradient id="paint2_linear_800_12473" x1="74.2915" y1="20.8829" x2="109.928" y2="82.615" gradientUnits="userSpaceOnUse">
<stop stop-color="#AC6DFF"/>
<stop offset="0.23" stop-color="#A867FD"/>
<stop offset="0.53" stop-color="#9E56F9"/>
<stop offset="0.86" stop-color="#8E3BF2"/>
<stop offset="1" stop-color="#862EEF"/>
</linearGradient>
</defs>
</svg>
