<svg width="16" height="16" viewBox="0 0 16 16" fill="none" xmlns="http://www.w3.org/2000/svg">
<path fill-rule="evenodd" clip-rule="evenodd" d="M8 16C12.4183 16 16 12.4183 16 8C16 6.54285 15.6104 5.17669 14.9297 4H1.07026C0.389577 5.17669 0 6.54285 0 8C0 12.4183 3.58172 16 8 16Z" fill="#6A5EF6"/>
<path d="M14.9297 4C13.5465 1.60879 10.9611 0 8 0C5.03887 0 2.4535 1.60879 1.07026 4H14.9297Z" fill="#C5CBFF"/>
<path d="M15.5 8C15.5 12.1421 12.1421 15.5 8 15.5C3.85786 15.5 0.5 12.1421 0.5 8C0.5 6.73504 0.812771 5.54443 1.36493 4.5H14.6351C15.1872 5.54443 15.5 6.73504 15.5 8ZM8 0.5C10.4532 0.5 12.6318 1.6776 14.0006 3.5H1.99938C3.36824 1.6776 5.54683 0.5 8 0.5Z" stroke="#4E33CF"/>
</svg>
