<svg width="16" height="16" viewBox="0 0 16 16" fill="none" xmlns="http://www.w3.org/2000/svg">
<path fill-rule="evenodd" clip-rule="evenodd" d="M8 16C10.0289 16 11.8814 15.2447 13.2916 14H2.70835C4.11862 15.2447 5.97111 16 8 16Z" fill="#6A5EF6"/>
<path d="M8 0C3.58172 0 0 3.58172 0 8C0 10.3894 1.04751 12.5341 2.70835 14H13.2916C14.9525 12.5341 16 10.3894 16 8C16 3.58172 12.4183 0 8 0Z" fill="#C5CBFF"/>
<path d="M15.5 8C15.5 10.1729 14.5765 12.1296 13.0991 13.5H2.90093C1.4235 12.1296 0.5 10.1729 0.5 8C0.5 3.85786 3.85786 0.5 8 0.5C12.1421 0.5 15.5 3.85786 15.5 8ZM8 15.5C6.63592 15.5 5.35745 15.1362 4.25563 14.5H11.7444C10.6426 15.1362 9.36408 15.5 8 15.5Z" stroke="#4E33CF"/>
</svg>
