<svg width="16" height="16" viewBox="0 0 16 16" fill="none" xmlns="http://www.w3.org/2000/svg">
<path fill-rule="evenodd" clip-rule="evenodd" d="M8 16C12.4183 16 16 12.4183 16 8C16 5.61061 14.9525 3.46589 13.2916 2H2.70835C1.04751 3.46589 0 5.61061 0 8C0 12.4183 3.58172 16 8 16Z" fill="#6A5EF6"/>
<path d="M13.2916 2C11.8814 0.755273 10.0289 0 8 0C5.97111 0 4.11862 0.755273 2.70835 2H13.2916Z" fill="#C5CBFF"/>
<path d="M15.5 8C15.5 12.1421 12.1421 15.5 8 15.5C3.85786 15.5 0.5 12.1421 0.5 8C0.5 5.82705 1.4235 3.87038 2.90093 2.5H13.0991C14.5765 3.87038 15.5 5.82705 15.5 8ZM11.7444 1.5H4.25563C5.35745 0.863824 6.63592 0.5 8 0.5C9.36408 0.5 10.6426 0.863824 11.7444 1.5Z" stroke="#4E33CF"/>
</svg>
