<svg width="16" height="16" viewBox="0 0 16 16" fill="none" xmlns="http://www.w3.org/2000/svg">
<path fill-rule="evenodd" clip-rule="evenodd" d="M8 16C11.7277 16 14.8599 13.4505 15.748 10H0.252035C1.14012 13.4505 4.27232 16 8 16Z" fill="#6A5EF6"/>
<path d="M8 0C3.58172 0 0 3.58172 0 8C0 8.6906 0.087506 9.36076 0.252035 10H15.748C15.9125 9.36076 16 8.6906 16 8C16 3.58172 12.4183 0 8 0Z" fill="#C5CBFF"/>
<path d="M15.5 8C15.5 8.51411 15.4483 9.01569 15.3501 9.5H0.649927C0.551654 9.01569 0.5 8.51411 0.5 8C0.5 3.85786 3.85786 0.5 8 0.5C12.1421 0.5 15.5 3.85786 15.5 8ZM0.926612 10.5H15.0734C14.0438 13.4132 11.2651 15.5 8 15.5C4.73495 15.5 1.95619 13.4132 0.926612 10.5Z" stroke="#4E33CF"/>
</svg>
