<svg width="16" height="16" viewBox="0 0 16 16" fill="none" xmlns="http://www.w3.org/2000/svg">
<path fill-rule="evenodd" clip-rule="evenodd" d="M8 16C12.4183 16 16 12.4183 16 8H0C0 12.4183 3.58172 16 8 16Z" fill="#6A5EF6"/>
<path d="M8 0C3.58172 0 0 3.58172 0 8H16C16 3.58172 12.4183 0 8 0Z" fill="#C5CBFF"/>
<path d="M15.4836 7.5H0.516402C0.773695 3.59098 4.02588 0.5 8 0.5C11.9741 0.5 15.2263 3.59098 15.4836 7.5ZM15.4836 8.5C15.2263 12.409 11.9741 15.5 8 15.5C4.02588 15.5 0.773695 12.409 0.516402 8.5H15.4836Z" stroke="#4E33CF"/>
</svg>
