<svg width="16" height="16" viewBox="0 0 16 16" fill="none" xmlns="http://www.w3.org/2000/svg">
<path fill-rule="evenodd" clip-rule="evenodd" d="M8 16C12.4183 16 16 12.4183 16 8C16 7.3094 15.9125 6.63924 15.748 6H0.252035C0.087506 6.63924 0 7.3094 0 8C0 12.4183 3.58172 16 8 16Z" fill="#6A5EF6"/>
<path d="M15.748 6C14.8599 2.54955 11.7277 0 8 0C4.27232 0 1.14012 2.54955 0.252035 6H15.748Z" fill="#C5CBFF"/>
<path d="M15.5 8C15.5 12.1421 12.1421 15.5 8 15.5C3.85786 15.5 0.5 12.1421 0.5 8C0.5 7.48589 0.551654 6.98431 0.649927 6.5H15.3501C15.4483 6.98431 15.5 7.48589 15.5 8ZM8 0.5C11.2651 0.5 14.0438 2.58679 15.0734 5.5H0.926612C1.95619 2.58679 4.73495 0.5 8 0.5Z" stroke="#4E33CF"/>
</svg>
