<svg width="16" height="16" viewBox="0 0 16 16" fill="none" xmlns="http://www.w3.org/2000/svg">
<path fill-rule="evenodd" clip-rule="evenodd" d="M8 16C10.9611 16 13.5465 14.3912 14.9297 12H1.07026C2.4535 14.3912 5.03887 16 8 16Z" fill="#6A5EF6"/>
<path d="M8 0C3.58172 0 0 3.58172 0 8C0 9.45715 0.389577 10.8233 1.07026 12H14.9297C15.6104 10.8233 16 9.45715 16 8C16 3.58172 12.4183 0 8 0Z" fill="#C5CBFF"/>
<path d="M15.5 8C15.5 9.26496 15.1872 10.4556 14.6351 11.5H1.36493C0.812771 10.4556 0.5 9.26496 0.5 8C0.5 3.85786 3.85786 0.5 8 0.5C12.1421 0.5 15.5 3.85786 15.5 8ZM1.99938 12.5H14.0006C12.6318 14.3224 10.4532 15.5 8 15.5C5.54683 15.5 3.36824 14.3224 1.99938 12.5Z" stroke="#4E33CF"/>
</svg>
