<svg width="544" height="112" viewBox="0 0 544 112" fill="none" xmlns="http://www.w3.org/2000/svg">
<circle cx="8" cy="8" r="8" fill="#6A5EF6"/>
<circle cx="32" cy="8" r="8" fill="#6A5EF6"/>
<circle cx="56" cy="8" r="8" fill="#6A5EF6"/>
<circle cx="80" cy="8" r="8" fill="#6A5EF6"/>
<circle cx="104" cy="8" r="8" fill="#6A5EF6"/>
<circle cx="128" cy="8" r="8" fill="#6A5EF6"/>
<circle cx="152" cy="8" r="8" fill="#6A5EF6"/>
<circle cx="176" cy="8" r="8" fill="#6A5EF6"/>
<circle cx="200" cy="8" r="8" fill="#6A5EF6"/>
<circle cx="224" cy="8" r="8" fill="#6A5EF6"/>
<circle cx="248" cy="8" r="8" fill="#6A5EF6"/>
<circle cx="272" cy="8" r="8" fill="#6A5EF6"/>
<circle cx="296" cy="8" r="8" fill="#6A5EF6"/>
<circle cx="320" cy="8" r="8" fill="#6A5EF6"/>
<circle cx="344" cy="8" r="8" fill="#6A5EF6"/>
<circle cx="368" cy="8" r="8" fill="#6A5EF6"/>
<circle cx="392" cy="8" r="8" fill="#6A5EF6"/>
<circle cx="416" cy="8" r="8" fill="#6A5EF6"/>
<circle cx="440" cy="8" r="8" fill="#6A5EF6"/>
<circle cx="464" cy="8" r="8" fill="#6A5EF6"/>
<circle cx="488" cy="8" r="8" fill="#6A5EF6"/>
<circle cx="512" cy="8" r="8" fill="#6A5EF6"/>
<circle cx="536" cy="8" r="8" fill="#6A5EF6"/>
<circle cx="8" cy="32" r="8" fill="#6A5EF6"/>
<circle cx="32" cy="32" r="8" fill="#6A5EF6"/>
<circle cx="56" cy="32" r="8" fill="#6A5EF6"/>
<circle cx="80" cy="32" r="8" fill="#6A5EF6"/>
<circle cx="104" cy="32" r="8" fill="#6A5EF6"/>
<circle cx="128" cy="32" r="8" fill="#6A5EF6"/>
<circle cx="152" cy="32" r="8" fill="#6A5EF6"/>
<circle cx="176" cy="32" r="8" fill="#6A5EF6"/>
<circle cx="200" cy="32" r="8" fill="#6A5EF6"/>
<circle cx="224" cy="32" r="8" fill="#6A5EF6"/>
<circle cx="248" cy="32" r="8" fill="#6A5EF6"/>
<circle cx="272" cy="32" r="8" fill="#6A5EF6"/>
<circle cx="296" cy="32" r="8" fill="#6A5EF6"/>
<circle cx="320" cy="32" r="8" fill="#6A5EF6"/>
<circle cx="344" cy="32" r="8" fill="#6A5EF6"/>
<circle cx="368" cy="32" r="8" fill="#6A5EF6"/>
<circle cx="392" cy="32" r="8" fill="#6A5EF6"/>
<circle cx="416" cy="32" r="8" fill="#6A5EF6"/>
<circle cx="440" cy="32" r="8" fill="#6A5EF6"/>
<circle cx="464" cy="32" r="8" fill="#6A5EF6"/>
<circle cx="488" cy="32" r="8" fill="#6A5EF6"/>
<circle cx="512" cy="32" r="8" fill="#6A5EF6"/>
<circle cx="536" cy="32" r="8" fill="#6A5EF6"/>
<circle cx="8" cy="56" r="8" fill="#6A5EF6"/>
<circle cx="32" cy="56" r="8" fill="#6A5EF6"/>
<circle cx="56" cy="56" r="8" fill="#6A5EF6"/>
<circle cx="80" cy="56" r="8" fill="#6A5EF6"/>
<circle cx="104" cy="56" r="8" fill="#6A5EF6"/>
<circle cx="128" cy="56" r="8" fill="#6A5EF6"/>
<circle cx="152" cy="56" r="8" fill="#6A5EF6"/>
<circle cx="176" cy="56" r="8" fill="#6A5EF6"/>
<circle cx="200" cy="56" r="8" fill="#6A5EF6"/>
<circle cx="224" cy="56" r="8" fill="#6A5EF6"/>
<circle cx="248" cy="56" r="8" fill="#6A5EF6"/>
<circle cx="272" cy="56" r="8" fill="#6A5EF6"/>
<circle cx="296" cy="56" r="8" fill="#6A5EF6"/>
<circle cx="320" cy="56" r="8" fill="#6A5EF6"/>
<circle cx="344" cy="56" r="8" fill="#6A5EF6"/>
<circle cx="368" cy="56" r="8" fill="#6A5EF6"/>
<circle cx="392" cy="56" r="8" fill="#6A5EF6"/>
<circle cx="416" cy="56" r="8" fill="#6A5EF6"/>
<circle cx="440" cy="56" r="8" fill="#6A5EF6"/>
<circle cx="464" cy="56" r="8" fill="#6A5EF6"/>
<circle cx="488" cy="56" r="8" fill="#6A5EF6"/>
<circle cx="512" cy="56" r="8" fill="#6A5EF6"/>
<circle cx="536" cy="56" r="8" fill="#6A5EF6"/>
<circle cx="8" cy="80" r="8" fill="#6A5EF6"/>
<circle cx="32" cy="80" r="8" fill="#6A5EF6"/>
<circle cx="56" cy="80" r="8" fill="#6A5EF6"/>
<circle cx="80" cy="80" r="8" fill="#6A5EF6"/>
<circle cx="104" cy="80" r="8" fill="#6A5EF6"/>
<circle cx="128" cy="80" r="8" fill="#6A5EF6"/>
<circle cx="152" cy="80" r="8" fill="#6A5EF6"/>
<circle cx="176" cy="80" r="8" fill="#6A5EF6"/>
<circle cx="200" cy="80" r="8" fill="#6A5EF6"/>
<circle cx="224" cy="80" r="8" fill="#6A5EF6"/>
<circle cx="248" cy="80" r="8" fill="#6A5EF6"/>
<circle cx="272" cy="80" r="8" fill="#6A5EF6"/>
<circle cx="296" cy="80" r="8" fill="#6A5EF6"/>
<circle cx="320" cy="80" r="8" fill="#6A5EF6"/>
<circle cx="344" cy="80" r="8" fill="#6A5EF6"/>
<circle cx="368" cy="80" r="8" fill="#6A5EF6"/>
<circle cx="392" cy="80" r="8" fill="#6A5EF6"/>
<circle cx="416" cy="80" r="8" fill="#6A5EF6"/>
<circle cx="440" cy="80" r="8" fill="#6A5EF6"/>
<circle cx="464" cy="80" r="8" fill="#6A5EF6"/>
<circle cx="488" cy="80" r="8" fill="#6A5EF6"/>
<circle cx="512" cy="80" r="8" fill="#6A5EF6"/>
<circle cx="536" cy="80" r="8" fill="#6A5EF6"/>
<circle cx="8" cy="104" r="8" fill="#6A5EF6"/>
<circle cx="32" cy="104" r="8" fill="#6A5EF6"/>
<circle cx="56" cy="104" r="8" fill="#6A5EF6"/>
<circle cx="80" cy="104" r="8" fill="#6A5EF6"/>
<circle cx="104" cy="104" r="8" fill="#6A5EF6"/>
<circle cx="128" cy="104" r="8" fill="#6A5EF6"/>
<circle cx="152" cy="104" r="8" fill="#6A5EF6"/>
<circle cx="176" cy="104" r="8" fill="#6A5EF6"/>
<circle cx="200" cy="104" r="8" fill="#6A5EF6"/>
<circle cx="224" cy="104" r="8" fill="#6A5EF6"/>
<circle cx="248" cy="104" r="8" fill="#6A5EF6"/>
<circle cx="272" cy="104" r="8" fill="#6A5EF6"/>
<circle cx="296" cy="104" r="8" fill="#6A5EF6"/>
<circle cx="320" cy="104" r="8" fill="#6A5EF6"/>
<circle cx="344" cy="104" r="8" fill="#6A5EF6"/>
<circle cx="368" cy="104" r="8" fill="#6A5EF6"/>
<circle cx="392" cy="104" r="8" fill="#6A5EF6"/>
<circle cx="416" cy="104" r="8" fill="#6A5EF6"/>
<circle cx="440" cy="104" r="8" fill="#6A5EF6"/>
<circle cx="464" cy="104" r="8" fill="#6A5EF6"/>
<circle cx="488" cy="104" r="8" fill="#6A5EF6"/>
<circle cx="512" cy="104" r="8" fill="#6A5EF6"/>
<circle cx="536" cy="104" r="8" fill="#6A5EF6"/>
</svg>
