<svg width="272" height="252" viewBox="0 0 272 252" fill="none" xmlns="http://www.w3.org/2000/svg">
<path d="M13.6786 18H15.0893C16.6179 18 17.8571 16.7608 17.8571 15.2321V9.64286H18.5383C19.031 9.64286 19.4667 9.3991 19.7315 9.02561C19.9006 8.78712 20 8.49574 20 8.18114C20 7.74934 19.8091 7.33963 19.4784 7.0619L11.8918 0.689135C11.3619 0.244018 10.692 0 10 0C9.30796 0 8.63807 0.244018 8.10817 0.689135L0.521551 7.0619C0.190918 7.33963 0 7.74934 0 8.18114C0 8.49574 0.0993848 8.78712 0.26847 9.02561C0.533274 9.3991 0.969029 9.64286 1.46172 9.64286H2.14286V15.2321C2.14286 16.7608 3.38207 18 4.91071 18H6.32143C7.07096 18 7.67857 17.3924 7.67857 16.6429V13.5357C7.67857 12.2536 8.71791 11.2143 10 11.2143C11.2821 11.2143 12.3214 12.2536 12.3214 13.5357V16.6429C12.3214 17.3924 12.929 18 13.6786 18Z" fill="#AC6DFF"/>
<path d="M41.6786 18H43.0893C44.6179 18 45.8571 16.7608 45.8571 15.2321V9.64286H46.5383C47.031 9.64286 47.4667 9.3991 47.7315 9.02561C47.9006 8.78712 48 8.49574 48 8.18114C48 7.74934 47.8091 7.33963 47.4784 7.0619L39.8918 0.689135C39.3619 0.244018 38.692 0 38 0C37.308 0 36.6381 0.244018 36.1082 0.689135L28.5216 7.0619C28.1909 7.33963 28 7.74934 28 8.18114C28 8.49574 28.0994 8.78712 28.2685 9.02561C28.5333 9.3991 28.969 9.64286 29.4617 9.64286H30.1429V15.2321C30.1429 16.7608 31.3821 18 32.9107 18H34.3214C35.071 18 35.6786 17.3924 35.6786 16.6429V13.5357C35.6786 12.2536 36.7179 11.2143 38 11.2143C39.2821 11.2143 40.3214 12.2536 40.3214 13.5357V16.6429C40.3214 17.3924 40.929 18 41.6786 18Z" fill="#AC6DFF"/>
<path d="M69.6786 18H71.0893C72.6179 18 73.8571 16.7608 73.8571 15.2321V9.64286H74.5383C75.031 9.64286 75.4667 9.3991 75.7315 9.02561C75.9006 8.78712 76 8.49574 76 8.18114C76 7.74934 75.8091 7.33963 75.4784 7.0619L67.8918 0.689135C67.3619 0.244018 66.692 0 66 0C65.308 0 64.6381 0.244018 64.1082 0.689135L56.5216 7.0619C56.1909 7.33963 56 7.74934 56 8.18114C56 8.49574 56.0994 8.78712 56.2685 9.02561C56.5333 9.3991 56.969 9.64286 57.4617 9.64286H58.1429V15.2321C58.1429 16.7608 59.3821 18 60.9107 18H62.3214C63.071 18 63.6786 17.3924 63.6786 16.6429V13.5357C63.6786 12.2536 64.7179 11.2143 66 11.2143C67.2821 11.2143 68.3214 12.2536 68.3214 13.5357V16.6429C68.3214 17.3924 68.929 18 69.6786 18Z" fill="#AC6DFF"/>
<path d="M97.6786 18H99.0893C100.618 18 101.857 16.7608 101.857 15.2321V9.64286H102.538C103.031 9.64286 103.467 9.3991 103.732 9.02561C103.901 8.78712 104 8.49574 104 8.18114C104 7.74934 103.809 7.33963 103.478 7.0619L95.8918 0.689135C95.3619 0.244018 94.692 0 94 0C93.308 0 92.6381 0.244018 92.1082 0.689135L84.5216 7.0619C84.1909 7.33963 84 7.74934 84 8.18114C84 8.49574 84.0994 8.78712 84.2685 9.02561C84.5333 9.3991 84.969 9.64286 85.4617 9.64286H86.1429V15.2321C86.1429 16.7608 87.3821 18 88.9107 18H90.3214C91.071 18 91.6786 17.3924 91.6786 16.6429V13.5357C91.6786 12.2536 92.7179 11.2143 94 11.2143C95.2821 11.2143 96.3214 12.2536 96.3214 13.5357V16.6429C96.3214 17.3924 96.929 18 97.6786 18Z" fill="#AC6DFF"/>
<path d="M125.679 18H127.089C128.618 18 129.857 16.7608 129.857 15.2321V9.64286H130.538C131.031 9.64286 131.467 9.3991 131.732 9.02561C131.901 8.78712 132 8.49574 132 8.18114C132 7.74934 131.809 7.33963 131.478 7.0619L123.892 0.689135C123.362 0.244018 122.692 0 122 0C121.308 0 120.638 0.244018 120.108 0.689135L112.522 7.0619C112.191 7.33963 112 7.74934 112 8.18114C112 8.49574 112.099 8.78712 112.268 9.02561C112.533 9.3991 112.969 9.64286 113.462 9.64286H114.143V15.2321C114.143 16.7608 115.382 18 116.911 18H118.321C119.071 18 119.679 17.3924 119.679 16.6429V13.5357C119.679 12.2536 120.718 11.2143 122 11.2143C123.282 11.2143 124.321 12.2536 124.321 13.5357V16.6429C124.321 17.3924 124.929 18 125.679 18Z" fill="#AC6DFF"/>
<path d="M153.679 18H155.089C156.618 18 157.857 16.7608 157.857 15.2321V9.64286H158.538C159.031 9.64286 159.467 9.3991 159.732 9.02561C159.901 8.78712 160 8.49574 160 8.18114C160 7.74934 159.809 7.33963 159.478 7.0619L151.892 0.689135C151.362 0.244018 150.692 0 150 0C149.308 0 148.638 0.244018 148.108 0.689135L140.522 7.0619C140.191 7.33963 140 7.74934 140 8.18114C140 8.49574 140.099 8.78712 140.268 9.02561C140.533 9.3991 140.969 9.64286 141.462 9.64286H142.143V15.2321C142.143 16.7608 143.382 18 144.911 18H146.321C147.071 18 147.679 17.3924 147.679 16.6429V13.5357C147.679 12.2536 148.718 11.2143 150 11.2143C151.282 11.2143 152.321 12.2536 152.321 13.5357V16.6429C152.321 17.3924 152.929 18 153.679 18Z" fill="#AC6DFF"/>
<path d="M181.679 18H183.089C184.618 18 185.857 16.7608 185.857 15.2321V9.64286H186.538C187.031 9.64286 187.467 9.3991 187.732 9.02561C187.901 8.78712 188 8.49574 188 8.18114C188 7.74934 187.809 7.33963 187.478 7.0619L179.892 0.689135C179.362 0.244018 178.692 0 178 0C177.308 0 176.638 0.244018 176.108 0.689135L168.522 7.0619C168.191 7.33963 168 7.74934 168 8.18114C168 8.49574 168.099 8.78712 168.268 9.02561C168.533 9.3991 168.969 9.64286 169.462 9.64286H170.143V15.2321C170.143 16.7608 171.382 18 172.911 18H174.321C175.071 18 175.679 17.3924 175.679 16.6429V13.5357C175.679 12.2536 176.718 11.2143 178 11.2143C179.282 11.2143 180.321 12.2536 180.321 13.5357V16.6429C180.321 17.3924 180.929 18 181.679 18Z" fill="#AC6DFF"/>
<path d="M209.679 18H211.089C212.618 18 213.857 16.7608 213.857 15.2321V9.64286H214.538C215.031 9.64286 215.467 9.3991 215.732 9.02561C215.901 8.78712 216 8.49574 216 8.18114C216 7.74934 215.809 7.33963 215.478 7.0619L207.892 0.689135C207.362 0.244018 206.692 0 206 0C205.308 0 204.638 0.244018 204.108 0.689135L196.522 7.0619C196.191 7.33963 196 7.74934 196 8.18114C196 8.49574 196.099 8.78712 196.268 9.02561C196.533 9.3991 196.969 9.64286 197.462 9.64286H198.143V15.2321C198.143 16.7608 199.382 18 200.911 18H202.321C203.071 18 203.679 17.3924 203.679 16.6429V13.5357C203.679 12.2536 204.718 11.2143 206 11.2143C207.282 11.2143 208.321 12.2536 208.321 13.5357V16.6429C208.321 17.3924 208.929 18 209.679 18Z" fill="#AC6DFF"/>
<path d="M237.679 18H239.089C240.618 18 241.857 16.7608 241.857 15.2321V9.64286H242.538C243.031 9.64286 243.467 9.3991 243.732 9.02561C243.901 8.78712 244 8.49574 244 8.18114C244 7.74934 243.809 7.33963 243.478 7.0619L235.892 0.689135C235.362 0.244018 234.692 0 234 0C233.308 0 232.638 0.244018 232.108 0.689135L224.522 7.0619C224.191 7.33963 224 7.74934 224 8.18114C224 8.49574 224.099 8.78712 224.268 9.02561C224.533 9.3991 224.969 9.64286 225.462 9.64286H226.143V15.2321C226.143 16.7608 227.382 18 228.911 18H230.321C231.071 18 231.679 17.3924 231.679 16.6429V13.5357C231.679 12.2536 232.718 11.2143 234 11.2143C235.282 11.2143 236.321 12.2536 236.321 13.5357V16.6429C236.321 17.3924 236.929 18 237.679 18Z" fill="#AC6DFF"/>
<path d="M265.679 18H267.089C268.618 18 269.857 16.7608 269.857 15.2321V9.64286H270.538C271.031 9.64286 271.467 9.3991 271.732 9.02561C271.901 8.78712 272 8.49574 272 8.18114C272 7.74934 271.809 7.33963 271.478 7.0619L263.892 0.689135C263.362 0.244018 262.692 0 262 0C261.308 0 260.638 0.244018 260.108 0.689135L252.522 7.0619C252.191 7.33963 252 7.74934 252 8.18114C252 8.49574 252.099 8.78712 252.268 9.02561C252.533 9.3991 252.969 9.64286 253.462 9.64286H254.143V15.2321C254.143 16.7608 255.382 18 256.911 18H258.321C259.071 18 259.679 17.3924 259.679 16.6429V13.5357C259.679 12.2536 260.718 11.2143 262 11.2143C263.282 11.2143 264.321 12.2536 264.321 13.5357V16.6429C264.321 17.3924 264.929 18 265.679 18Z" fill="#AC6DFF"/>
<path d="M13.6786 44H15.0893C16.6179 44 17.8571 42.7608 17.8571 41.2321V35.6429H18.5383C19.031 35.6429 19.4667 35.3991 19.7315 35.0256C19.9006 34.7871 20 34.4957 20 34.1811C20 33.7493 19.8091 33.3396 19.4784 33.0619L11.8918 26.6891C11.3619 26.244 10.692 26 10 26C9.30796 26 8.63807 26.244 8.10817 26.6891L0.521551 33.0619C0.190918 33.3396 0 33.7493 0 34.1811C0 34.4957 0.0993848 34.7871 0.26847 35.0256C0.533274 35.3991 0.969029 35.6429 1.46172 35.6429H2.14286V41.2321C2.14286 42.7608 3.38207 44 4.91071 44H6.32143C7.07096 44 7.67857 43.3924 7.67857 42.6429V39.5357C7.67857 38.2536 8.71791 37.2143 10 37.2143C11.2821 37.2143 12.3214 38.2536 12.3214 39.5357V42.6429C12.3214 43.3924 12.929 44 13.6786 44Z" fill="#AC6DFF"/>
<path d="M41.6786 44H43.0893C44.6179 44 45.8571 42.7608 45.8571 41.2321V35.6429H46.5383C47.031 35.6429 47.4667 35.3991 47.7315 35.0256C47.9006 34.7871 48 34.4957 48 34.1811C48 33.7493 47.8091 33.3396 47.4784 33.0619L39.8918 26.6891C39.3619 26.244 38.692 26 38 26C37.308 26 36.6381 26.244 36.1082 26.6891L28.5216 33.0619C28.1909 33.3396 28 33.7493 28 34.1811C28 34.4957 28.0994 34.7871 28.2685 35.0256C28.5333 35.3991 28.969 35.6429 29.4617 35.6429H30.1429V41.2321C30.1429 42.7608 31.3821 44 32.9107 44H34.3214C35.071 44 35.6786 43.3924 35.6786 42.6429V39.5357C35.6786 38.2536 36.7179 37.2143 38 37.2143C39.2821 37.2143 40.3214 38.2536 40.3214 39.5357V42.6429C40.3214 43.3924 40.929 44 41.6786 44Z" fill="#AC6DFF"/>
<path d="M69.6786 44H71.0893C72.6179 44 73.8571 42.7608 73.8571 41.2321V35.6429H74.5383C75.031 35.6429 75.4667 35.3991 75.7315 35.0256C75.9006 34.7871 76 34.4957 76 34.1811C76 33.7493 75.8091 33.3396 75.4784 33.0619L67.8918 26.6891C67.3619 26.244 66.692 26 66 26C65.308 26 64.6381 26.244 64.1082 26.6891L56.5216 33.0619C56.1909 33.3396 56 33.7493 56 34.1811C56 34.4957 56.0994 34.7871 56.2685 35.0256C56.5333 35.3991 56.969 35.6429 57.4617 35.6429H58.1429V41.2321C58.1429 42.7608 59.3821 44 60.9107 44H62.3214C63.071 44 63.6786 43.3924 63.6786 42.6429V39.5357C63.6786 38.2536 64.7179 37.2143 66 37.2143C67.2821 37.2143 68.3214 38.2536 68.3214 39.5357V42.6429C68.3214 43.3924 68.929 44 69.6786 44Z" fill="#AC6DFF"/>
<path d="M97.6786 44H99.0893C100.618 44 101.857 42.7608 101.857 41.2321V35.6429H102.538C103.031 35.6429 103.467 35.3991 103.732 35.0256C103.901 34.7871 104 34.4957 104 34.1811C104 33.7493 103.809 33.3396 103.478 33.0619L95.8918 26.6891C95.3619 26.244 94.692 26 94 26C93.308 26 92.6381 26.244 92.1082 26.6891L84.5216 33.0619C84.1909 33.3396 84 33.7493 84 34.1811C84 34.4957 84.0994 34.7871 84.2685 35.0256C84.5333 35.3991 84.969 35.6429 85.4617 35.6429H86.1429V41.2321C86.1429 42.7608 87.3821 44 88.9107 44H90.3214C91.071 44 91.6786 43.3924 91.6786 42.6429V39.5357C91.6786 38.2536 92.7179 37.2143 94 37.2143C95.2821 37.2143 96.3214 38.2536 96.3214 39.5357V42.6429C96.3214 43.3924 96.929 44 97.6786 44Z" fill="#AC6DFF"/>
<path d="M125.679 44H127.089C128.618 44 129.857 42.7608 129.857 41.2321V35.6429H130.538C131.031 35.6429 131.467 35.3991 131.732 35.0256C131.901 34.7871 132 34.4957 132 34.1811C132 33.7493 131.809 33.3396 131.478 33.0619L123.892 26.6891C123.362 26.244 122.692 26 122 26C121.308 26 120.638 26.244 120.108 26.6891L112.522 33.0619C112.191 33.3396 112 33.7493 112 34.1811C112 34.4957 112.099 34.7871 112.268 35.0256C112.533 35.3991 112.969 35.6429 113.462 35.6429H114.143V41.2321C114.143 42.7608 115.382 44 116.911 44H118.321C119.071 44 119.679 43.3924 119.679 42.6429V39.5357C119.679 38.2536 120.718 37.2143 122 37.2143C123.282 37.2143 124.321 38.2536 124.321 39.5357V42.6429C124.321 43.3924 124.929 44 125.679 44Z" fill="#AC6DFF"/>
<path d="M153.679 44H155.089C156.618 44 157.857 42.7608 157.857 41.2321V35.6429H158.538C159.031 35.6429 159.467 35.3991 159.732 35.0256C159.901 34.7871 160 34.4957 160 34.1811C160 33.7493 159.809 33.3396 159.478 33.0619L151.892 26.6891C151.362 26.244 150.692 26 150 26C149.308 26 148.638 26.244 148.108 26.6891L140.522 33.0619C140.191 33.3396 140 33.7493 140 34.1811C140 34.4957 140.099 34.7871 140.268 35.0256C140.533 35.3991 140.969 35.6429 141.462 35.6429H142.143V41.2321C142.143 42.7608 143.382 44 144.911 44H146.321C147.071 44 147.679 43.3924 147.679 42.6429V39.5357C147.679 38.2536 148.718 37.2143 150 37.2143C151.282 37.2143 152.321 38.2536 152.321 39.5357V42.6429C152.321 43.3924 152.929 44 153.679 44Z" fill="#AC6DFF"/>
<path d="M181.679 44H183.089C184.618 44 185.857 42.7608 185.857 41.2321V35.6429H186.538C187.031 35.6429 187.467 35.3991 187.732 35.0256C187.901 34.7871 188 34.4957 188 34.1811C188 33.7493 187.809 33.3396 187.478 33.0619L179.892 26.6891C179.362 26.244 178.692 26 178 26C177.308 26 176.638 26.244 176.108 26.6891L168.522 33.0619C168.191 33.3396 168 33.7493 168 34.1811C168 34.4957 168.099 34.7871 168.268 35.0256C168.533 35.3991 168.969 35.6429 169.462 35.6429H170.143V41.2321C170.143 42.7608 171.382 44 172.911 44H174.321C175.071 44 175.679 43.3924 175.679 42.6429V39.5357C175.679 38.2536 176.718 37.2143 178 37.2143C179.282 37.2143 180.321 38.2536 180.321 39.5357V42.6429C180.321 43.3924 180.929 44 181.679 44Z" fill="#AC6DFF"/>
<path d="M209.679 44H211.089C212.618 44 213.857 42.7608 213.857 41.2321V35.6429H214.538C215.031 35.6429 215.467 35.3991 215.732 35.0256C215.901 34.7871 216 34.4957 216 34.1811C216 33.7493 215.809 33.3396 215.478 33.0619L207.892 26.6891C207.362 26.244 206.692 26 206 26C205.308 26 204.638 26.244 204.108 26.6891L196.522 33.0619C196.191 33.3396 196 33.7493 196 34.1811C196 34.4957 196.099 34.7871 196.268 35.0256C196.533 35.3991 196.969 35.6429 197.462 35.6429H198.143V41.2321C198.143 42.7608 199.382 44 200.911 44H202.321C203.071 44 203.679 43.3924 203.679 42.6429V39.5357C203.679 38.2536 204.718 37.2143 206 37.2143C207.282 37.2143 208.321 38.2536 208.321 39.5357V42.6429C208.321 43.3924 208.929 44 209.679 44Z" fill="#AC6DFF"/>
<path d="M237.679 44H239.089C240.618 44 241.857 42.7608 241.857 41.2321V35.6429H242.538C243.031 35.6429 243.467 35.3991 243.732 35.0256C243.901 34.7871 244 34.4957 244 34.1811C244 33.7493 243.809 33.3396 243.478 33.0619L235.892 26.6891C235.362 26.244 234.692 26 234 26C233.308 26 232.638 26.244 232.108 26.6891L224.522 33.0619C224.191 33.3396 224 33.7493 224 34.1811C224 34.4957 224.099 34.7871 224.268 35.0256C224.533 35.3991 224.969 35.6429 225.462 35.6429H226.143V41.2321C226.143 42.7608 227.382 44 228.911 44H230.321C231.071 44 231.679 43.3924 231.679 42.6429V39.5357C231.679 38.2536 232.718 37.2143 234 37.2143C235.282 37.2143 236.321 38.2536 236.321 39.5357V42.6429C236.321 43.3924 236.929 44 237.679 44Z" fill="#AC6DFF"/>
<path d="M265.679 44H267.089C268.618 44 269.857 42.7608 269.857 41.2321V35.6429H270.538C271.031 35.6429 271.467 35.3991 271.732 35.0256C271.901 34.7871 272 34.4957 272 34.1811C272 33.7493 271.809 33.3396 271.478 33.0619L263.892 26.6891C263.362 26.244 262.692 26 262 26C261.308 26 260.638 26.244 260.108 26.6891L252.522 33.0619C252.191 33.3396 252 33.7493 252 34.1811C252 34.4957 252.099 34.7871 252.268 35.0256C252.533 35.3991 252.969 35.6429 253.462 35.6429H254.143V41.2321C254.143 42.7608 255.382 44 256.911 44H258.321C259.071 44 259.679 43.3924 259.679 42.6429V39.5357C259.679 38.2536 260.718 37.2143 262 37.2143C263.282 37.2143 264.321 38.2536 264.321 39.5357V42.6429C264.321 43.3924 264.929 44 265.679 44Z" fill="#AC6DFF"/>
<path d="M13.6786 70H15.0893C16.6179 70 17.8571 68.7608 17.8571 67.2321V61.6429H18.5383C19.031 61.6429 19.4667 61.3991 19.7315 61.0256C19.9006 60.7871 20 60.4957 20 60.1811C20 59.7493 19.8091 59.3396 19.4784 59.0619L11.8918 52.6891C11.3619 52.244 10.692 52 10 52C9.30796 52 8.63807 52.244 8.10817 52.6891L0.521551 59.0619C0.190918 59.3396 0 59.7493 0 60.1811C0 60.4957 0.0993848 60.7871 0.26847 61.0256C0.533274 61.3991 0.969029 61.6429 1.46172 61.6429H2.14286V67.2321C2.14286 68.7608 3.38207 70 4.91071 70H6.32143C7.07096 70 7.67857 69.3924 7.67857 68.6429V65.5357C7.67857 64.2536 8.71791 63.2143 10 63.2143C11.2821 63.2143 12.3214 64.2536 12.3214 65.5357V68.6429C12.3214 69.3924 12.929 70 13.6786 70Z" fill="#AC6DFF"/>
<path d="M41.6786 70H43.0893C44.6179 70 45.8571 68.7608 45.8571 67.2321V61.6429H46.5383C47.031 61.6429 47.4667 61.3991 47.7315 61.0256C47.9006 60.7871 48 60.4957 48 60.1811C48 59.7493 47.8091 59.3396 47.4784 59.0619L39.8918 52.6891C39.3619 52.244 38.692 52 38 52C37.308 52 36.6381 52.244 36.1082 52.6891L28.5216 59.0619C28.1909 59.3396 28 59.7493 28 60.1811C28 60.4957 28.0994 60.7871 28.2685 61.0256C28.5333 61.3991 28.969 61.6429 29.4617 61.6429H30.1429V67.2321C30.1429 68.7608 31.3821 70 32.9107 70H34.3214C35.071 70 35.6786 69.3924 35.6786 68.6429V65.5357C35.6786 64.2536 36.7179 63.2143 38 63.2143C39.2821 63.2143 40.3214 64.2536 40.3214 65.5357V68.6429C40.3214 69.3924 40.929 70 41.6786 70Z" fill="#AC6DFF"/>
<path d="M69.6786 70H71.0893C72.6179 70 73.8571 68.7608 73.8571 67.2321V61.6429H74.5383C75.031 61.6429 75.4667 61.3991 75.7315 61.0256C75.9006 60.7871 76 60.4957 76 60.1811C76 59.7493 75.8091 59.3396 75.4784 59.0619L67.8918 52.6891C67.3619 52.244 66.692 52 66 52C65.308 52 64.6381 52.244 64.1082 52.6891L56.5216 59.0619C56.1909 59.3396 56 59.7493 56 60.1811C56 60.4957 56.0994 60.7871 56.2685 61.0256C56.5333 61.3991 56.969 61.6429 57.4617 61.6429H58.1429V67.2321C58.1429 68.7608 59.3821 70 60.9107 70H62.3214C63.071 70 63.6786 69.3924 63.6786 68.6429V65.5357C63.6786 64.2536 64.7179 63.2143 66 63.2143C67.2821 63.2143 68.3214 64.2536 68.3214 65.5357V68.6429C68.3214 69.3924 68.929 70 69.6786 70Z" fill="#AC6DFF"/>
<path d="M97.6786 70H99.0893C100.618 70 101.857 68.7608 101.857 67.2321V61.6429H102.538C103.031 61.6429 103.467 61.3991 103.732 61.0256C103.901 60.7871 104 60.4957 104 60.1811C104 59.7493 103.809 59.3396 103.478 59.0619L95.8918 52.6891C95.3619 52.244 94.692 52 94 52C93.308 52 92.6381 52.244 92.1082 52.6891L84.5216 59.0619C84.1909 59.3396 84 59.7493 84 60.1811C84 60.4957 84.0994 60.7871 84.2685 61.0256C84.5333 61.3991 84.969 61.6429 85.4617 61.6429H86.1429V67.2321C86.1429 68.7608 87.3821 70 88.9107 70H90.3214C91.071 70 91.6786 69.3924 91.6786 68.6429V65.5357C91.6786 64.2536 92.7179 63.2143 94 63.2143C95.2821 63.2143 96.3214 64.2536 96.3214 65.5357V68.6429C96.3214 69.3924 96.929 70 97.6786 70Z" fill="#AC6DFF"/>
<path d="M125.679 70H127.089C128.618 70 129.857 68.7608 129.857 67.2321V61.6429H130.538C131.031 61.6429 131.467 61.3991 131.732 61.0256C131.901 60.7871 132 60.4957 132 60.1811C132 59.7493 131.809 59.3396 131.478 59.0619L123.892 52.6891C123.362 52.244 122.692 52 122 52C121.308 52 120.638 52.244 120.108 52.6891L112.522 59.0619C112.191 59.3396 112 59.7493 112 60.1811C112 60.4957 112.099 60.7871 112.268 61.0256C112.533 61.3991 112.969 61.6429 113.462 61.6429H114.143V67.2321C114.143 68.7608 115.382 70 116.911 70H118.321C119.071 70 119.679 69.3924 119.679 68.6429V65.5357C119.679 64.2536 120.718 63.2143 122 63.2143C123.282 63.2143 124.321 64.2536 124.321 65.5357V68.6429C124.321 69.3924 124.929 70 125.679 70Z" fill="#AC6DFF"/>
<path d="M153.679 70H155.089C156.618 70 157.857 68.7608 157.857 67.2321V61.6429H158.538C159.031 61.6429 159.467 61.3991 159.732 61.0256C159.901 60.7871 160 60.4957 160 60.1811C160 59.7493 159.809 59.3396 159.478 59.0619L151.892 52.6891C151.362 52.244 150.692 52 150 52C149.308 52 148.638 52.244 148.108 52.6891L140.522 59.0619C140.191 59.3396 140 59.7493 140 60.1811C140 60.4957 140.099 60.7871 140.268 61.0256C140.533 61.3991 140.969 61.6429 141.462 61.6429H142.143V67.2321C142.143 68.7608 143.382 70 144.911 70H146.321C147.071 70 147.679 69.3924 147.679 68.6429V65.5357C147.679 64.2536 148.718 63.2143 150 63.2143C151.282 63.2143 152.321 64.2536 152.321 65.5357V68.6429C152.321 69.3924 152.929 70 153.679 70Z" fill="#AC6DFF"/>
<path d="M181.679 70H183.089C184.618 70 185.857 68.7608 185.857 67.2321V61.6429H186.538C187.031 61.6429 187.467 61.3991 187.732 61.0256C187.901 60.7871 188 60.4957 188 60.1811C188 59.7493 187.809 59.3396 187.478 59.0619L179.892 52.6891C179.362 52.244 178.692 52 178 52C177.308 52 176.638 52.244 176.108 52.6891L168.522 59.0619C168.191 59.3396 168 59.7493 168 60.1811C168 60.4957 168.099 60.7871 168.268 61.0256C168.533 61.3991 168.969 61.6429 169.462 61.6429H170.143V67.2321C170.143 68.7608 171.382 70 172.911 70H174.321C175.071 70 175.679 69.3924 175.679 68.6429V65.5357C175.679 64.2536 176.718 63.2143 178 63.2143C179.282 63.2143 180.321 64.2536 180.321 65.5357V68.6429C180.321 69.3924 180.929 70 181.679 70Z" fill="#AC6DFF"/>
<path d="M209.679 70H211.089C212.618 70 213.857 68.7608 213.857 67.2321V61.6429H214.538C215.031 61.6429 215.467 61.3991 215.732 61.0256C215.901 60.7871 216 60.4957 216 60.1811C216 59.7493 215.809 59.3396 215.478 59.0619L207.892 52.6891C207.362 52.244 206.692 52 206 52C205.308 52 204.638 52.244 204.108 52.6891L196.522 59.0619C196.191 59.3396 196 59.7493 196 60.1811C196 60.4957 196.099 60.7871 196.268 61.0256C196.533 61.3991 196.969 61.6429 197.462 61.6429H198.143V67.2321C198.143 68.7608 199.382 70 200.911 70H202.321C203.071 70 203.679 69.3924 203.679 68.6429V65.5357C203.679 64.2536 204.718 63.2143 206 63.2143C207.282 63.2143 208.321 64.2536 208.321 65.5357V68.6429C208.321 69.3924 208.929 70 209.679 70Z" fill="#AC6DFF"/>
<path d="M237.679 70H239.089C240.618 70 241.857 68.7608 241.857 67.2321V61.6429H242.538C243.031 61.6429 243.467 61.3991 243.732 61.0256C243.901 60.7871 244 60.4957 244 60.1811C244 59.7493 243.809 59.3396 243.478 59.0619L235.892 52.6891C235.362 52.244 234.692 52 234 52C233.308 52 232.638 52.244 232.108 52.6891L224.522 59.0619C224.191 59.3396 224 59.7493 224 60.1811C224 60.4957 224.099 60.7871 224.268 61.0256C224.533 61.3991 224.969 61.6429 225.462 61.6429H226.143V67.2321C226.143 68.7608 227.382 70 228.911 70H230.321C231.071 70 231.679 69.3924 231.679 68.6429V65.5357C231.679 64.2536 232.718 63.2143 234 63.2143C235.282 63.2143 236.321 64.2536 236.321 65.5357V68.6429C236.321 69.3924 236.929 70 237.679 70Z" fill="#AC6DFF"/>
<path d="M265.679 70H267.089C268.618 70 269.857 68.7608 269.857 67.2321V61.6429H270.538C271.031 61.6429 271.467 61.3991 271.732 61.0256C271.901 60.7871 272 60.4957 272 60.1811C272 59.7493 271.809 59.3396 271.478 59.0619L263.892 52.6891C263.362 52.244 262.692 52 262 52C261.308 52 260.638 52.244 260.108 52.6891L252.522 59.0619C252.191 59.3396 252 59.7493 252 60.1811C252 60.4957 252.099 60.7871 252.268 61.0256C252.533 61.3991 252.969 61.6429 253.462 61.6429H254.143V67.2321C254.143 68.7608 255.382 70 256.911 70H258.321C259.071 70 259.679 69.3924 259.679 68.6429V65.5357C259.679 64.2536 260.718 63.2143 262 63.2143C263.282 63.2143 264.321 64.2536 264.321 65.5357V68.6429C264.321 69.3924 264.929 70 265.679 70Z" fill="#AC6DFF"/>
<path d="M13.6786 96H15.0893C16.6179 96 17.8571 94.7608 17.8571 93.2321V87.6429H18.5383C19.031 87.6429 19.4667 87.3991 19.7315 87.0256C19.9006 86.7871 20 86.4957 20 86.1811C20 85.7493 19.8091 85.3396 19.4784 85.0619L11.8918 78.6891C11.3619 78.244 10.692 78 10 78C9.30796 78 8.63807 78.244 8.10817 78.6891L0.521551 85.0619C0.190918 85.3396 0 85.7493 0 86.1811C0 86.4957 0.0993848 86.7871 0.26847 87.0256C0.533274 87.3991 0.969029 87.6429 1.46172 87.6429H2.14286V93.2321C2.14286 94.7608 3.38207 96 4.91071 96H6.32143C7.07096 96 7.67857 95.3924 7.67857 94.6429V91.5357C7.67857 90.2536 8.71791 89.2143 10 89.2143C11.2821 89.2143 12.3214 90.2536 12.3214 91.5357V94.6429C12.3214 95.3924 12.929 96 13.6786 96Z" fill="#AC6DFF"/>
<path d="M41.6786 96H43.0893C44.6179 96 45.8571 94.7608 45.8571 93.2321V87.6429H46.5383C47.031 87.6429 47.4667 87.3991 47.7315 87.0256C47.9006 86.7871 48 86.4957 48 86.1811C48 85.7493 47.8091 85.3396 47.4784 85.0619L39.8918 78.6891C39.3619 78.244 38.692 78 38 78C37.308 78 36.6381 78.244 36.1082 78.6891L28.5216 85.0619C28.1909 85.3396 28 85.7493 28 86.1811C28 86.4957 28.0994 86.7871 28.2685 87.0256C28.5333 87.3991 28.969 87.6429 29.4617 87.6429H30.1429V93.2321C30.1429 94.7608 31.3821 96 32.9107 96H34.3214C35.071 96 35.6786 95.3924 35.6786 94.6429V91.5357C35.6786 90.2536 36.7179 89.2143 38 89.2143C39.2821 89.2143 40.3214 90.2536 40.3214 91.5357V94.6429C40.3214 95.3924 40.929 96 41.6786 96Z" fill="#AC6DFF"/>
<path d="M69.6786 96H71.0893C72.6179 96 73.8571 94.7608 73.8571 93.2321V87.6429H74.5383C75.031 87.6429 75.4667 87.3991 75.7315 87.0256C75.9006 86.7871 76 86.4957 76 86.1811C76 85.7493 75.8091 85.3396 75.4784 85.0619L67.8918 78.6891C67.3619 78.244 66.692 78 66 78C65.308 78 64.6381 78.244 64.1082 78.6891L56.5216 85.0619C56.1909 85.3396 56 85.7493 56 86.1811C56 86.4957 56.0994 86.7871 56.2685 87.0256C56.5333 87.3991 56.969 87.6429 57.4617 87.6429H58.1429V93.2321C58.1429 94.7608 59.3821 96 60.9107 96H62.3214C63.071 96 63.6786 95.3924 63.6786 94.6429V91.5357C63.6786 90.2536 64.7179 89.2143 66 89.2143C67.2821 89.2143 68.3214 90.2536 68.3214 91.5357V94.6429C68.3214 95.3924 68.929 96 69.6786 96Z" fill="#AC6DFF"/>
<path d="M97.6786 96H99.0893C100.618 96 101.857 94.7608 101.857 93.2321V87.6429H102.538C103.031 87.6429 103.467 87.3991 103.732 87.0256C103.901 86.7871 104 86.4957 104 86.1811C104 85.7493 103.809 85.3396 103.478 85.0619L95.8918 78.6891C95.3619 78.244 94.692 78 94 78C93.308 78 92.6381 78.244 92.1082 78.6891L84.5216 85.0619C84.1909 85.3396 84 85.7493 84 86.1811C84 86.4957 84.0994 86.7871 84.2685 87.0256C84.5333 87.3991 84.969 87.6429 85.4617 87.6429H86.1429V93.2321C86.1429 94.7608 87.3821 96 88.9107 96H90.3214C91.071 96 91.6786 95.3924 91.6786 94.6429V91.5357C91.6786 90.2536 92.7179 89.2143 94 89.2143C95.2821 89.2143 96.3214 90.2536 96.3214 91.5357V94.6429C96.3214 95.3924 96.929 96 97.6786 96Z" fill="#AC6DFF"/>
<path d="M125.679 96H127.089C128.618 96 129.857 94.7608 129.857 93.2321V87.6429H130.538C131.031 87.6429 131.467 87.3991 131.732 87.0256C131.901 86.7871 132 86.4957 132 86.1811C132 85.7493 131.809 85.3396 131.478 85.0619L123.892 78.6891C123.362 78.244 122.692 78 122 78C121.308 78 120.638 78.244 120.108 78.6891L112.522 85.0619C112.191 85.3396 112 85.7493 112 86.1811C112 86.4957 112.099 86.7871 112.268 87.0256C112.533 87.3991 112.969 87.6429 113.462 87.6429H114.143V93.2321C114.143 94.7608 115.382 96 116.911 96H118.321C119.071 96 119.679 95.3924 119.679 94.6429V91.5357C119.679 90.2536 120.718 89.2143 122 89.2143C123.282 89.2143 124.321 90.2536 124.321 91.5357V94.6429C124.321 95.3924 124.929 96 125.679 96Z" fill="#AC6DFF"/>
<path d="M153.679 96H155.089C156.618 96 157.857 94.7608 157.857 93.2321V87.6429H158.538C159.031 87.6429 159.467 87.3991 159.732 87.0256C159.901 86.7871 160 86.4957 160 86.1811C160 85.7493 159.809 85.3396 159.478 85.0619L151.892 78.6891C151.362 78.244 150.692 78 150 78C149.308 78 148.638 78.244 148.108 78.6891L140.522 85.0619C140.191 85.3396 140 85.7493 140 86.1811C140 86.4957 140.099 86.7871 140.268 87.0256C140.533 87.3991 140.969 87.6429 141.462 87.6429H142.143V93.2321C142.143 94.7608 143.382 96 144.911 96H146.321C147.071 96 147.679 95.3924 147.679 94.6429V91.5357C147.679 90.2536 148.718 89.2143 150 89.2143C151.282 89.2143 152.321 90.2536 152.321 91.5357V94.6429C152.321 95.3924 152.929 96 153.679 96Z" fill="#AC6DFF"/>
<path d="M181.679 96H183.089C184.618 96 185.857 94.7608 185.857 93.2321V87.6429H186.538C187.031 87.6429 187.467 87.3991 187.732 87.0256C187.901 86.7871 188 86.4957 188 86.1811C188 85.7493 187.809 85.3396 187.478 85.0619L179.892 78.6891C179.362 78.244 178.692 78 178 78C177.308 78 176.638 78.244 176.108 78.6891L168.522 85.0619C168.191 85.3396 168 85.7493 168 86.1811C168 86.4957 168.099 86.7871 168.268 87.0256C168.533 87.3991 168.969 87.6429 169.462 87.6429H170.143V93.2321C170.143 94.7608 171.382 96 172.911 96H174.321C175.071 96 175.679 95.3924 175.679 94.6429V91.5357C175.679 90.2536 176.718 89.2143 178 89.2143C179.282 89.2143 180.321 90.2536 180.321 91.5357V94.6429C180.321 95.3924 180.929 96 181.679 96Z" fill="#AC6DFF"/>
<path d="M209.679 96H211.089C212.618 96 213.857 94.7608 213.857 93.2321V87.6429H214.538C215.031 87.6429 215.467 87.3991 215.732 87.0256C215.901 86.7871 216 86.4957 216 86.1811C216 85.7493 215.809 85.3396 215.478 85.0619L207.892 78.6891C207.362 78.244 206.692 78 206 78C205.308 78 204.638 78.244 204.108 78.6891L196.522 85.0619C196.191 85.3396 196 85.7493 196 86.1811C196 86.4957 196.099 86.7871 196.268 87.0256C196.533 87.3991 196.969 87.6429 197.462 87.6429H198.143V93.2321C198.143 94.7608 199.382 96 200.911 96H202.321C203.071 96 203.679 95.3924 203.679 94.6429V91.5357C203.679 90.2536 204.718 89.2143 206 89.2143C207.282 89.2143 208.321 90.2536 208.321 91.5357V94.6429C208.321 95.3924 208.929 96 209.679 96Z" fill="#AC6DFF"/>
<path d="M237.679 96H239.089C240.618 96 241.857 94.7608 241.857 93.2321V87.6429H242.538C243.031 87.6429 243.467 87.3991 243.732 87.0256C243.901 86.7871 244 86.4957 244 86.1811C244 85.7493 243.809 85.3396 243.478 85.0619L235.892 78.6891C235.362 78.244 234.692 78 234 78C233.308 78 232.638 78.244 232.108 78.6891L224.522 85.0619C224.191 85.3396 224 85.7493 224 86.1811C224 86.4957 224.099 86.7871 224.268 87.0256C224.533 87.3991 224.969 87.6429 225.462 87.6429H226.143V93.2321C226.143 94.7608 227.382 96 228.911 96H230.321C231.071 96 231.679 95.3924 231.679 94.6429V91.5357C231.679 90.2536 232.718 89.2143 234 89.2143C235.282 89.2143 236.321 90.2536 236.321 91.5357V94.6429C236.321 95.3924 236.929 96 237.679 96Z" fill="#AC6DFF"/>
<path d="M265.679 96H267.089C268.618 96 269.857 94.7608 269.857 93.2321V87.6429H270.538C271.031 87.6429 271.467 87.3991 271.732 87.0256C271.901 86.7871 272 86.4957 272 86.1811C272 85.7493 271.809 85.3396 271.478 85.0619L263.892 78.6891C263.362 78.244 262.692 78 262 78C261.308 78 260.638 78.244 260.108 78.6891L252.522 85.0619C252.191 85.3396 252 85.7493 252 86.1811C252 86.4957 252.099 86.7871 252.268 87.0256C252.533 87.3991 252.969 87.6429 253.462 87.6429H254.143V93.2321C254.143 94.7608 255.382 96 256.911 96H258.321C259.071 96 259.679 95.3924 259.679 94.6429V91.5357C259.679 90.2536 260.718 89.2143 262 89.2143C263.282 89.2143 264.321 90.2536 264.321 91.5357V94.6429C264.321 95.3924 264.929 96 265.679 96Z" fill="#AC6DFF"/>
<path d="M13.6786 122H15.0893C16.6179 122 17.8571 120.761 17.8571 119.232V113.643H18.5383C19.031 113.643 19.4667 113.399 19.7315 113.026C19.9006 112.787 20 112.496 20 112.181C20 111.749 19.8091 111.34 19.4784 111.062L11.8918 104.689C11.3619 104.244 10.692 104 10 104C9.30796 104 8.63807 104.244 8.10817 104.689L0.521551 111.062C0.190918 111.34 0 111.749 0 112.181C0 112.496 0.0993848 112.787 0.26847 113.026C0.533274 113.399 0.969029 113.643 1.46172 113.643H2.14286V119.232C2.14286 120.761 3.38207 122 4.91071 122H6.32143C7.07096 122 7.67857 121.392 7.67857 120.643V117.536C7.67857 116.254 8.71791 115.214 10 115.214C11.2821 115.214 12.3214 116.254 12.3214 117.536V120.643C12.3214 121.392 12.929 122 13.6786 122Z" fill="#AC6DFF"/>
<path d="M41.6786 122H43.0893C44.6179 122 45.8571 120.761 45.8571 119.232V113.643H46.5383C47.031 113.643 47.4667 113.399 47.7315 113.026C47.9006 112.787 48 112.496 48 112.181C48 111.749 47.8091 111.34 47.4784 111.062L39.8918 104.689C39.3619 104.244 38.692 104 38 104C37.308 104 36.6381 104.244 36.1082 104.689L28.5216 111.062C28.1909 111.34 28 111.749 28 112.181C28 112.496 28.0994 112.787 28.2685 113.026C28.5333 113.399 28.969 113.643 29.4617 113.643H30.1429V119.232C30.1429 120.761 31.3821 122 32.9107 122H34.3214C35.071 122 35.6786 121.392 35.6786 120.643V117.536C35.6786 116.254 36.7179 115.214 38 115.214C39.2821 115.214 40.3214 116.254 40.3214 117.536V120.643C40.3214 121.392 40.929 122 41.6786 122Z" fill="#AC6DFF"/>
<path d="M69.6786 122H71.0893C72.6179 122 73.8571 120.761 73.8571 119.232V113.643H74.5383C75.031 113.643 75.4667 113.399 75.7315 113.026C75.9006 112.787 76 112.496 76 112.181C76 111.749 75.8091 111.34 75.4784 111.062L67.8918 104.689C67.3619 104.244 66.692 104 66 104C65.308 104 64.6381 104.244 64.1082 104.689L56.5216 111.062C56.1909 111.34 56 111.749 56 112.181C56 112.496 56.0994 112.787 56.2685 113.026C56.5333 113.399 56.969 113.643 57.4617 113.643H58.1429V119.232C58.1429 120.761 59.3821 122 60.9107 122H62.3214C63.071 122 63.6786 121.392 63.6786 120.643V117.536C63.6786 116.254 64.7179 115.214 66 115.214C67.2821 115.214 68.3214 116.254 68.3214 117.536V120.643C68.3214 121.392 68.929 122 69.6786 122Z" fill="#AC6DFF"/>
<path d="M97.6786 122H99.0893C100.618 122 101.857 120.761 101.857 119.232V113.643H102.538C103.031 113.643 103.467 113.399 103.732 113.026C103.901 112.787 104 112.496 104 112.181C104 111.749 103.809 111.34 103.478 111.062L95.8918 104.689C95.3619 104.244 94.692 104 94 104C93.308 104 92.6381 104.244 92.1082 104.689L84.5216 111.062C84.1909 111.34 84 111.749 84 112.181C84 112.496 84.0994 112.787 84.2685 113.026C84.5333 113.399 84.969 113.643 85.4617 113.643H86.1429V119.232C86.1429 120.761 87.3821 122 88.9107 122H90.3214C91.071 122 91.6786 121.392 91.6786 120.643V117.536C91.6786 116.254 92.7179 115.214 94 115.214C95.2821 115.214 96.3214 116.254 96.3214 117.536V120.643C96.3214 121.392 96.929 122 97.6786 122Z" fill="#AC6DFF"/>
<path d="M125.679 122H127.089C128.618 122 129.857 120.761 129.857 119.232V113.643H130.538C131.031 113.643 131.467 113.399 131.732 113.026C131.901 112.787 132 112.496 132 112.181C132 111.749 131.809 111.34 131.478 111.062L123.892 104.689C123.362 104.244 122.692 104 122 104C121.308 104 120.638 104.244 120.108 104.689L112.522 111.062C112.191 111.34 112 111.749 112 112.181C112 112.496 112.099 112.787 112.268 113.026C112.533 113.399 112.969 113.643 113.462 113.643H114.143V119.232C114.143 120.761 115.382 122 116.911 122H118.321C119.071 122 119.679 121.392 119.679 120.643V117.536C119.679 116.254 120.718 115.214 122 115.214C123.282 115.214 124.321 116.254 124.321 117.536V120.643C124.321 121.392 124.929 122 125.679 122Z" fill="#AC6DFF"/>
<path d="M153.679 122H155.089C156.618 122 157.857 120.761 157.857 119.232V113.643H158.538C159.031 113.643 159.467 113.399 159.732 113.026C159.901 112.787 160 112.496 160 112.181C160 111.749 159.809 111.34 159.478 111.062L151.892 104.689C151.362 104.244 150.692 104 150 104C149.308 104 148.638 104.244 148.108 104.689L140.522 111.062C140.191 111.34 140 111.749 140 112.181C140 112.496 140.099 112.787 140.268 113.026C140.533 113.399 140.969 113.643 141.462 113.643H142.143V119.232C142.143 120.761 143.382 122 144.911 122H146.321C147.071 122 147.679 121.392 147.679 120.643V117.536C147.679 116.254 148.718 115.214 150 115.214C151.282 115.214 152.321 116.254 152.321 117.536V120.643C152.321 121.392 152.929 122 153.679 122Z" fill="#AC6DFF"/>
<path d="M181.679 122H183.089C184.618 122 185.857 120.761 185.857 119.232V113.643H186.538C187.031 113.643 187.467 113.399 187.732 113.026C187.901 112.787 188 112.496 188 112.181C188 111.749 187.809 111.34 187.478 111.062L179.892 104.689C179.362 104.244 178.692 104 178 104C177.308 104 176.638 104.244 176.108 104.689L168.522 111.062C168.191 111.34 168 111.749 168 112.181C168 112.496 168.099 112.787 168.268 113.026C168.533 113.399 168.969 113.643 169.462 113.643H170.143V119.232C170.143 120.761 171.382 122 172.911 122H174.321C175.071 122 175.679 121.392 175.679 120.643V117.536C175.679 116.254 176.718 115.214 178 115.214C179.282 115.214 180.321 116.254 180.321 117.536V120.643C180.321 121.392 180.929 122 181.679 122Z" fill="#AC6DFF"/>
<path d="M209.679 122H211.089C212.618 122 213.857 120.761 213.857 119.232V113.643H214.538C215.031 113.643 215.467 113.399 215.732 113.026C215.901 112.787 216 112.496 216 112.181C216 111.749 215.809 111.34 215.478 111.062L207.892 104.689C207.362 104.244 206.692 104 206 104C205.308 104 204.638 104.244 204.108 104.689L196.522 111.062C196.191 111.34 196 111.749 196 112.181C196 112.496 196.099 112.787 196.268 113.026C196.533 113.399 196.969 113.643 197.462 113.643H198.143V119.232C198.143 120.761 199.382 122 200.911 122H202.321C203.071 122 203.679 121.392 203.679 120.643V117.536C203.679 116.254 204.718 115.214 206 115.214C207.282 115.214 208.321 116.254 208.321 117.536V120.643C208.321 121.392 208.929 122 209.679 122Z" fill="#AC6DFF"/>
<path d="M237.679 122H239.089C240.618 122 241.857 120.761 241.857 119.232V113.643H242.538C243.031 113.643 243.467 113.399 243.732 113.026C243.901 112.787 244 112.496 244 112.181C244 111.749 243.809 111.34 243.478 111.062L235.892 104.689C235.362 104.244 234.692 104 234 104C233.308 104 232.638 104.244 232.108 104.689L224.522 111.062C224.191 111.34 224 111.749 224 112.181C224 112.496 224.099 112.787 224.268 113.026C224.533 113.399 224.969 113.643 225.462 113.643H226.143V119.232C226.143 120.761 227.382 122 228.911 122H230.321C231.071 122 231.679 121.392 231.679 120.643V117.536C231.679 116.254 232.718 115.214 234 115.214C235.282 115.214 236.321 116.254 236.321 117.536V120.643C236.321 121.392 236.929 122 237.679 122Z" fill="#AC6DFF"/>
<path d="M265.679 122H267.089C268.618 122 269.857 120.761 269.857 119.232V113.643H270.538C271.031 113.643 271.467 113.399 271.732 113.026C271.901 112.787 272 112.496 272 112.181C272 111.749 271.809 111.34 271.478 111.062L263.892 104.689C263.362 104.244 262.692 104 262 104C261.308 104 260.638 104.244 260.108 104.689L252.522 111.062C252.191 111.34 252 111.749 252 112.181C252 112.496 252.099 112.787 252.268 113.026C252.533 113.399 252.969 113.643 253.462 113.643H254.143V119.232C254.143 120.761 255.382 122 256.911 122H258.321C259.071 122 259.679 121.392 259.679 120.643V117.536C259.679 116.254 260.718 115.214 262 115.214C263.282 115.214 264.321 116.254 264.321 117.536V120.643C264.321 121.392 264.929 122 265.679 122Z" fill="#AC6DFF"/>
<path d="M13.6786 148H15.0893C16.6179 148 17.8571 146.761 17.8571 145.232V139.643H18.5383C19.031 139.643 19.4667 139.399 19.7315 139.026C19.9006 138.787 20 138.496 20 138.181C20 137.749 19.8091 137.34 19.4784 137.062L11.8918 130.689C11.3619 130.244 10.692 130 10 130C9.30796 130 8.63807 130.244 8.10817 130.689L0.521551 137.062C0.190918 137.34 0 137.749 0 138.181C0 138.496 0.0993848 138.787 0.26847 139.026C0.533274 139.399 0.969029 139.643 1.46172 139.643H2.14286V145.232C2.14286 146.761 3.38207 148 4.91071 148H6.32143C7.07096 148 7.67857 147.392 7.67857 146.643V143.536C7.67857 142.254 8.71791 141.214 10 141.214C11.2821 141.214 12.3214 142.254 12.3214 143.536V146.643C12.3214 147.392 12.929 148 13.6786 148Z" fill="#AC6DFF"/>
<path d="M41.6786 148H43.0893C44.6179 148 45.8571 146.761 45.8571 145.232V139.643H46.5383C47.031 139.643 47.4667 139.399 47.7315 139.026C47.9006 138.787 48 138.496 48 138.181C48 137.749 47.8091 137.34 47.4784 137.062L39.8918 130.689C39.3619 130.244 38.692 130 38 130C37.308 130 36.6381 130.244 36.1082 130.689L28.5216 137.062C28.1909 137.34 28 137.749 28 138.181C28 138.496 28.0994 138.787 28.2685 139.026C28.5333 139.399 28.969 139.643 29.4617 139.643H30.1429V145.232C30.1429 146.761 31.3821 148 32.9107 148H34.3214C35.071 148 35.6786 147.392 35.6786 146.643V143.536C35.6786 142.254 36.7179 141.214 38 141.214C39.2821 141.214 40.3214 142.254 40.3214 143.536V146.643C40.3214 147.392 40.929 148 41.6786 148Z" fill="#AC6DFF"/>
<path d="M69.6786 148H71.0893C72.6179 148 73.8571 146.761 73.8571 145.232V139.643H74.5383C75.031 139.643 75.4667 139.399 75.7315 139.026C75.9006 138.787 76 138.496 76 138.181C76 137.749 75.8091 137.34 75.4784 137.062L67.8918 130.689C67.3619 130.244 66.692 130 66 130C65.308 130 64.6381 130.244 64.1082 130.689L56.5216 137.062C56.1909 137.34 56 137.749 56 138.181C56 138.496 56.0994 138.787 56.2685 139.026C56.5333 139.399 56.969 139.643 57.4617 139.643H58.1429V145.232C58.1429 146.761 59.3821 148 60.9107 148H62.3214C63.071 148 63.6786 147.392 63.6786 146.643V143.536C63.6786 142.254 64.7179 141.214 66 141.214C67.2821 141.214 68.3214 142.254 68.3214 143.536V146.643C68.3214 147.392 68.929 148 69.6786 148Z" fill="#AC6DFF"/>
<path d="M97.6786 148H99.0893C100.618 148 101.857 146.761 101.857 145.232V139.643H102.538C103.031 139.643 103.467 139.399 103.732 139.026C103.901 138.787 104 138.496 104 138.181C104 137.749 103.809 137.34 103.478 137.062L95.8918 130.689C95.3619 130.244 94.692 130 94 130C93.308 130 92.6381 130.244 92.1082 130.689L84.5216 137.062C84.1909 137.34 84 137.749 84 138.181C84 138.496 84.0994 138.787 84.2685 139.026C84.5333 139.399 84.969 139.643 85.4617 139.643H86.1429V145.232C86.1429 146.761 87.3821 148 88.9107 148H90.3214C91.071 148 91.6786 147.392 91.6786 146.643V143.536C91.6786 142.254 92.7179 141.214 94 141.214C95.2821 141.214 96.3214 142.254 96.3214 143.536V146.643C96.3214 147.392 96.929 148 97.6786 148Z" fill="#AC6DFF"/>
<path d="M125.679 148H127.089C128.618 148 129.857 146.761 129.857 145.232V139.643H130.538C131.031 139.643 131.467 139.399 131.732 139.026C131.901 138.787 132 138.496 132 138.181C132 137.749 131.809 137.34 131.478 137.062L123.892 130.689C123.362 130.244 122.692 130 122 130C121.308 130 120.638 130.244 120.108 130.689L112.522 137.062C112.191 137.34 112 137.749 112 138.181C112 138.496 112.099 138.787 112.268 139.026C112.533 139.399 112.969 139.643 113.462 139.643H114.143V145.232C114.143 146.761 115.382 148 116.911 148H118.321C119.071 148 119.679 147.392 119.679 146.643V143.536C119.679 142.254 120.718 141.214 122 141.214C123.282 141.214 124.321 142.254 124.321 143.536V146.643C124.321 147.392 124.929 148 125.679 148Z" fill="#AC6DFF"/>
<path d="M153.679 148H155.089C156.618 148 157.857 146.761 157.857 145.232V139.643H158.538C159.031 139.643 159.467 139.399 159.732 139.026C159.901 138.787 160 138.496 160 138.181C160 137.749 159.809 137.34 159.478 137.062L151.892 130.689C151.362 130.244 150.692 130 150 130C149.308 130 148.638 130.244 148.108 130.689L140.522 137.062C140.191 137.34 140 137.749 140 138.181C140 138.496 140.099 138.787 140.268 139.026C140.533 139.399 140.969 139.643 141.462 139.643H142.143V145.232C142.143 146.761 143.382 148 144.911 148H146.321C147.071 148 147.679 147.392 147.679 146.643V143.536C147.679 142.254 148.718 141.214 150 141.214C151.282 141.214 152.321 142.254 152.321 143.536V146.643C152.321 147.392 152.929 148 153.679 148Z" fill="#AC6DFF"/>
<path d="M181.679 148H183.089C184.618 148 185.857 146.761 185.857 145.232V139.643H186.538C187.031 139.643 187.467 139.399 187.732 139.026C187.901 138.787 188 138.496 188 138.181C188 137.749 187.809 137.34 187.478 137.062L179.892 130.689C179.362 130.244 178.692 130 178 130C177.308 130 176.638 130.244 176.108 130.689L168.522 137.062C168.191 137.34 168 137.749 168 138.181C168 138.496 168.099 138.787 168.268 139.026C168.533 139.399 168.969 139.643 169.462 139.643H170.143V145.232C170.143 146.761 171.382 148 172.911 148H174.321C175.071 148 175.679 147.392 175.679 146.643V143.536C175.679 142.254 176.718 141.214 178 141.214C179.282 141.214 180.321 142.254 180.321 143.536V146.643C180.321 147.392 180.929 148 181.679 148Z" fill="#AC6DFF"/>
<path d="M209.679 148H211.089C212.618 148 213.857 146.761 213.857 145.232V139.643H214.538C215.031 139.643 215.467 139.399 215.732 139.026C215.901 138.787 216 138.496 216 138.181C216 137.749 215.809 137.34 215.478 137.062L207.892 130.689C207.362 130.244 206.692 130 206 130C205.308 130 204.638 130.244 204.108 130.689L196.522 137.062C196.191 137.34 196 137.749 196 138.181C196 138.496 196.099 138.787 196.268 139.026C196.533 139.399 196.969 139.643 197.462 139.643H198.143V145.232C198.143 146.761 199.382 148 200.911 148H202.321C203.071 148 203.679 147.392 203.679 146.643V143.536C203.679 142.254 204.718 141.214 206 141.214C207.282 141.214 208.321 142.254 208.321 143.536V146.643C208.321 147.392 208.929 148 209.679 148Z" fill="#AC6DFF"/>
<path d="M237.679 148H239.089C240.618 148 241.857 146.761 241.857 145.232V139.643H242.538C243.031 139.643 243.467 139.399 243.732 139.026C243.901 138.787 244 138.496 244 138.181C244 137.749 243.809 137.34 243.478 137.062L235.892 130.689C235.362 130.244 234.692 130 234 130C233.308 130 232.638 130.244 232.108 130.689L224.522 137.062C224.191 137.34 224 137.749 224 138.181C224 138.496 224.099 138.787 224.268 139.026C224.533 139.399 224.969 139.643 225.462 139.643H226.143V145.232C226.143 146.761 227.382 148 228.911 148H230.321C231.071 148 231.679 147.392 231.679 146.643V143.536C231.679 142.254 232.718 141.214 234 141.214C235.282 141.214 236.321 142.254 236.321 143.536V146.643C236.321 147.392 236.929 148 237.679 148Z" fill="#AC6DFF"/>
<path d="M265.679 148H267.089C268.618 148 269.857 146.761 269.857 145.232V139.643H270.538C271.031 139.643 271.467 139.399 271.732 139.026C271.901 138.787 272 138.496 272 138.181C272 137.749 271.809 137.34 271.478 137.062L263.892 130.689C263.362 130.244 262.692 130 262 130C261.308 130 260.638 130.244 260.108 130.689L252.522 137.062C252.191 137.34 252 137.749 252 138.181C252 138.496 252.099 138.787 252.268 139.026C252.533 139.399 252.969 139.643 253.462 139.643H254.143V145.232C254.143 146.761 255.382 148 256.911 148H258.321C259.071 148 259.679 147.392 259.679 146.643V143.536C259.679 142.254 260.718 141.214 262 141.214C263.282 141.214 264.321 142.254 264.321 143.536V146.643C264.321 147.392 264.929 148 265.679 148Z" fill="#AC6DFF"/>
<path d="M13.6786 174H15.0893C16.6179 174 17.8571 172.761 17.8571 171.232V165.643H18.5383C19.031 165.643 19.4667 165.399 19.7315 165.026C19.9006 164.787 20 164.496 20 164.181C20 163.749 19.8091 163.34 19.4784 163.062L11.8918 156.689C11.3619 156.244 10.692 156 10 156C9.30796 156 8.63807 156.244 8.10817 156.689L0.521551 163.062C0.190918 163.34 0 163.749 0 164.181C0 164.496 0.0993848 164.787 0.26847 165.026C0.533274 165.399 0.969029 165.643 1.46172 165.643H2.14286V171.232C2.14286 172.761 3.38207 174 4.91071 174H6.32143C7.07096 174 7.67857 173.392 7.67857 172.643V169.536C7.67857 168.254 8.71791 167.214 10 167.214C11.2821 167.214 12.3214 168.254 12.3214 169.536V172.643C12.3214 173.392 12.929 174 13.6786 174Z" fill="#AC6DFF"/>
<path d="M41.6786 174H43.0893C44.6179 174 45.8571 172.761 45.8571 171.232V165.643H46.5383C47.031 165.643 47.4667 165.399 47.7315 165.026C47.9006 164.787 48 164.496 48 164.181C48 163.749 47.8091 163.34 47.4784 163.062L39.8918 156.689C39.3619 156.244 38.692 156 38 156C37.308 156 36.6381 156.244 36.1082 156.689L28.5216 163.062C28.1909 163.34 28 163.749 28 164.181C28 164.496 28.0994 164.787 28.2685 165.026C28.5333 165.399 28.969 165.643 29.4617 165.643H30.1429V171.232C30.1429 172.761 31.3821 174 32.9107 174H34.3214C35.071 174 35.6786 173.392 35.6786 172.643V169.536C35.6786 168.254 36.7179 167.214 38 167.214C39.2821 167.214 40.3214 168.254 40.3214 169.536V172.643C40.3214 173.392 40.929 174 41.6786 174Z" fill="#AC6DFF"/>
<path d="M69.6786 174H71.0893C72.6179 174 73.8571 172.761 73.8571 171.232V165.643H74.5383C75.031 165.643 75.4667 165.399 75.7315 165.026C75.9006 164.787 76 164.496 76 164.181C76 163.749 75.8091 163.34 75.4784 163.062L67.8918 156.689C67.3619 156.244 66.692 156 66 156C65.308 156 64.6381 156.244 64.1082 156.689L56.5216 163.062C56.1909 163.34 56 163.749 56 164.181C56 164.496 56.0994 164.787 56.2685 165.026C56.5333 165.399 56.969 165.643 57.4617 165.643H58.1429V171.232C58.1429 172.761 59.3821 174 60.9107 174H62.3214C63.071 174 63.6786 173.392 63.6786 172.643V169.536C63.6786 168.254 64.7179 167.214 66 167.214C67.2821 167.214 68.3214 168.254 68.3214 169.536V172.643C68.3214 173.392 68.929 174 69.6786 174Z" fill="#AC6DFF"/>
<path d="M97.6786 174H99.0893C100.618 174 101.857 172.761 101.857 171.232V165.643H102.538C103.031 165.643 103.467 165.399 103.732 165.026C103.901 164.787 104 164.496 104 164.181C104 163.749 103.809 163.34 103.478 163.062L95.8918 156.689C95.3619 156.244 94.692 156 94 156C93.308 156 92.6381 156.244 92.1082 156.689L84.5216 163.062C84.1909 163.34 84 163.749 84 164.181C84 164.496 84.0994 164.787 84.2685 165.026C84.5333 165.399 84.969 165.643 85.4617 165.643H86.1429V171.232C86.1429 172.761 87.3821 174 88.9107 174H90.3214C91.071 174 91.6786 173.392 91.6786 172.643V169.536C91.6786 168.254 92.7179 167.214 94 167.214C95.2821 167.214 96.3214 168.254 96.3214 169.536V172.643C96.3214 173.392 96.929 174 97.6786 174Z" fill="#AC6DFF"/>
<path d="M125.679 174H127.089C128.618 174 129.857 172.761 129.857 171.232V165.643H130.538C131.031 165.643 131.467 165.399 131.732 165.026C131.901 164.787 132 164.496 132 164.181C132 163.749 131.809 163.34 131.478 163.062L123.892 156.689C123.362 156.244 122.692 156 122 156C121.308 156 120.638 156.244 120.108 156.689L112.522 163.062C112.191 163.34 112 163.749 112 164.181C112 164.496 112.099 164.787 112.268 165.026C112.533 165.399 112.969 165.643 113.462 165.643H114.143V171.232C114.143 172.761 115.382 174 116.911 174H118.321C119.071 174 119.679 173.392 119.679 172.643V169.536C119.679 168.254 120.718 167.214 122 167.214C123.282 167.214 124.321 168.254 124.321 169.536V172.643C124.321 173.392 124.929 174 125.679 174Z" fill="#AC6DFF"/>
<path d="M153.679 174H155.089C156.618 174 157.857 172.761 157.857 171.232V165.643H158.538C159.031 165.643 159.467 165.399 159.732 165.026C159.901 164.787 160 164.496 160 164.181C160 163.749 159.809 163.34 159.478 163.062L151.892 156.689C151.362 156.244 150.692 156 150 156C149.308 156 148.638 156.244 148.108 156.689L140.522 163.062C140.191 163.34 140 163.749 140 164.181C140 164.496 140.099 164.787 140.268 165.026C140.533 165.399 140.969 165.643 141.462 165.643H142.143V171.232C142.143 172.761 143.382 174 144.911 174H146.321C147.071 174 147.679 173.392 147.679 172.643V169.536C147.679 168.254 148.718 167.214 150 167.214C151.282 167.214 152.321 168.254 152.321 169.536V172.643C152.321 173.392 152.929 174 153.679 174Z" fill="#AC6DFF"/>
<path d="M181.679 174H183.089C184.618 174 185.857 172.761 185.857 171.232V165.643H186.538C187.031 165.643 187.467 165.399 187.732 165.026C187.901 164.787 188 164.496 188 164.181C188 163.749 187.809 163.34 187.478 163.062L179.892 156.689C179.362 156.244 178.692 156 178 156C177.308 156 176.638 156.244 176.108 156.689L168.522 163.062C168.191 163.34 168 163.749 168 164.181C168 164.496 168.099 164.787 168.268 165.026C168.533 165.399 168.969 165.643 169.462 165.643H170.143V171.232C170.143 172.761 171.382 174 172.911 174H174.321C175.071 174 175.679 173.392 175.679 172.643V169.536C175.679 168.254 176.718 167.214 178 167.214C179.282 167.214 180.321 168.254 180.321 169.536V172.643C180.321 173.392 180.929 174 181.679 174Z" fill="#AC6DFF"/>
<path d="M209.679 174H211.089C212.618 174 213.857 172.761 213.857 171.232V165.643H214.538C215.031 165.643 215.467 165.399 215.732 165.026C215.901 164.787 216 164.496 216 164.181C216 163.749 215.809 163.34 215.478 163.062L207.892 156.689C207.362 156.244 206.692 156 206 156C205.308 156 204.638 156.244 204.108 156.689L196.522 163.062C196.191 163.34 196 163.749 196 164.181C196 164.496 196.099 164.787 196.268 165.026C196.533 165.399 196.969 165.643 197.462 165.643H198.143V171.232C198.143 172.761 199.382 174 200.911 174H202.321C203.071 174 203.679 173.392 203.679 172.643V169.536C203.679 168.254 204.718 167.214 206 167.214C207.282 167.214 208.321 168.254 208.321 169.536V172.643C208.321 173.392 208.929 174 209.679 174Z" fill="#AC6DFF"/>
<path d="M237.679 174H239.089C240.618 174 241.857 172.761 241.857 171.232V165.643H242.538C243.031 165.643 243.467 165.399 243.732 165.026C243.901 164.787 244 164.496 244 164.181C244 163.749 243.809 163.34 243.478 163.062L235.892 156.689C235.362 156.244 234.692 156 234 156C233.308 156 232.638 156.244 232.108 156.689L224.522 163.062C224.191 163.34 224 163.749 224 164.181C224 164.496 224.099 164.787 224.268 165.026C224.533 165.399 224.969 165.643 225.462 165.643H226.143V171.232C226.143 172.761 227.382 174 228.911 174H230.321C231.071 174 231.679 173.392 231.679 172.643V169.536C231.679 168.254 232.718 167.214 234 167.214C235.282 167.214 236.321 168.254 236.321 169.536V172.643C236.321 173.392 236.929 174 237.679 174Z" fill="#AC6DFF"/>
<path d="M265.679 174H267.089C268.618 174 269.857 172.761 269.857 171.232V165.643H270.538C271.031 165.643 271.467 165.399 271.732 165.026C271.901 164.787 272 164.496 272 164.181C272 163.749 271.809 163.34 271.478 163.062L263.892 156.689C263.362 156.244 262.692 156 262 156C261.308 156 260.638 156.244 260.108 156.689L252.522 163.062C252.191 163.34 252 163.749 252 164.181C252 164.496 252.099 164.787 252.268 165.026C252.533 165.399 252.969 165.643 253.462 165.643H254.143V171.232C254.143 172.761 255.382 174 256.911 174H258.321C259.071 174 259.679 173.392 259.679 172.643V169.536C259.679 168.254 260.718 167.214 262 167.214C263.282 167.214 264.321 168.254 264.321 169.536V172.643C264.321 173.392 264.929 174 265.679 174Z" fill="#AC6DFF"/>
<path d="M13.6786 200H15.0893C16.6179 200 17.8571 198.761 17.8571 197.232V191.643H18.5383C19.031 191.643 19.4667 191.399 19.7315 191.026C19.9006 190.787 20 190.496 20 190.181C20 189.749 19.8091 189.34 19.4784 189.062L11.8918 182.689C11.3619 182.244 10.692 182 10 182C9.30796 182 8.63807 182.244 8.10817 182.689L0.521551 189.062C0.190918 189.34 0 189.749 0 190.181C0 190.496 0.0993848 190.787 0.26847 191.026C0.533274 191.399 0.969029 191.643 1.46172 191.643H2.14286V197.232C2.14286 198.761 3.38207 200 4.91071 200H6.32143C7.07096 200 7.67857 199.392 7.67857 198.643V195.536C7.67857 194.254 8.71791 193.214 10 193.214C11.2821 193.214 12.3214 194.254 12.3214 195.536V198.643C12.3214 199.392 12.929 200 13.6786 200Z" fill="#AC6DFF"/>
<path d="M41.6786 200H43.0893C44.6179 200 45.8571 198.761 45.8571 197.232V191.643H46.5383C47.031 191.643 47.4667 191.399 47.7315 191.026C47.9006 190.787 48 190.496 48 190.181C48 189.749 47.8091 189.34 47.4784 189.062L39.8918 182.689C39.3619 182.244 38.692 182 38 182C37.308 182 36.6381 182.244 36.1082 182.689L28.5216 189.062C28.1909 189.34 28 189.749 28 190.181C28 190.496 28.0994 190.787 28.2685 191.026C28.5333 191.399 28.969 191.643 29.4617 191.643H30.1429V197.232C30.1429 198.761 31.3821 200 32.9107 200H34.3214C35.071 200 35.6786 199.392 35.6786 198.643V195.536C35.6786 194.254 36.7179 193.214 38 193.214C39.2821 193.214 40.3214 194.254 40.3214 195.536V198.643C40.3214 199.392 40.929 200 41.6786 200Z" fill="#AC6DFF"/>
<path d="M69.6786 200H71.0893C72.6179 200 73.8571 198.761 73.8571 197.232V191.643H74.5383C75.031 191.643 75.4667 191.399 75.7315 191.026C75.9006 190.787 76 190.496 76 190.181C76 189.749 75.8091 189.34 75.4784 189.062L67.8918 182.689C67.3619 182.244 66.692 182 66 182C65.308 182 64.6381 182.244 64.1082 182.689L56.5216 189.062C56.1909 189.34 56 189.749 56 190.181C56 190.496 56.0994 190.787 56.2685 191.026C56.5333 191.399 56.969 191.643 57.4617 191.643H58.1429V197.232C58.1429 198.761 59.3821 200 60.9107 200H62.3214C63.071 200 63.6786 199.392 63.6786 198.643V195.536C63.6786 194.254 64.7179 193.214 66 193.214C67.2821 193.214 68.3214 194.254 68.3214 195.536V198.643C68.3214 199.392 68.929 200 69.6786 200Z" fill="#AC6DFF"/>
<path d="M97.6786 200H99.0893C100.618 200 101.857 198.761 101.857 197.232V191.643H102.538C103.031 191.643 103.467 191.399 103.732 191.026C103.901 190.787 104 190.496 104 190.181C104 189.749 103.809 189.34 103.478 189.062L95.8918 182.689C95.3619 182.244 94.692 182 94 182C93.308 182 92.6381 182.244 92.1082 182.689L84.5216 189.062C84.1909 189.34 84 189.749 84 190.181C84 190.496 84.0994 190.787 84.2685 191.026C84.5333 191.399 84.969 191.643 85.4617 191.643H86.1429V197.232C86.1429 198.761 87.3821 200 88.9107 200H90.3214C91.071 200 91.6786 199.392 91.6786 198.643V195.536C91.6786 194.254 92.7179 193.214 94 193.214C95.2821 193.214 96.3214 194.254 96.3214 195.536V198.643C96.3214 199.392 96.929 200 97.6786 200Z" fill="#AC6DFF"/>
<path d="M125.679 200H127.089C128.618 200 129.857 198.761 129.857 197.232V191.643H130.538C131.031 191.643 131.467 191.399 131.732 191.026C131.901 190.787 132 190.496 132 190.181C132 189.749 131.809 189.34 131.478 189.062L123.892 182.689C123.362 182.244 122.692 182 122 182C121.308 182 120.638 182.244 120.108 182.689L112.522 189.062C112.191 189.34 112 189.749 112 190.181C112 190.496 112.099 190.787 112.268 191.026C112.533 191.399 112.969 191.643 113.462 191.643H114.143V197.232C114.143 198.761 115.382 200 116.911 200H118.321C119.071 200 119.679 199.392 119.679 198.643V195.536C119.679 194.254 120.718 193.214 122 193.214C123.282 193.214 124.321 194.254 124.321 195.536V198.643C124.321 199.392 124.929 200 125.679 200Z" fill="#AC6DFF"/>
<path d="M153.679 200H155.089C156.618 200 157.857 198.761 157.857 197.232V191.643H158.538C159.031 191.643 159.467 191.399 159.732 191.026C159.901 190.787 160 190.496 160 190.181C160 189.749 159.809 189.34 159.478 189.062L151.892 182.689C151.362 182.244 150.692 182 150 182C149.308 182 148.638 182.244 148.108 182.689L140.522 189.062C140.191 189.34 140 189.749 140 190.181C140 190.496 140.099 190.787 140.268 191.026C140.533 191.399 140.969 191.643 141.462 191.643H142.143V197.232C142.143 198.761 143.382 200 144.911 200H146.321C147.071 200 147.679 199.392 147.679 198.643V195.536C147.679 194.254 148.718 193.214 150 193.214C151.282 193.214 152.321 194.254 152.321 195.536V198.643C152.321 199.392 152.929 200 153.679 200Z" fill="#AC6DFF"/>
<path d="M181.679 200H183.089C184.618 200 185.857 198.761 185.857 197.232V191.643H186.538C187.031 191.643 187.467 191.399 187.732 191.026C187.901 190.787 188 190.496 188 190.181C188 189.749 187.809 189.34 187.478 189.062L179.892 182.689C179.362 182.244 178.692 182 178 182C177.308 182 176.638 182.244 176.108 182.689L168.522 189.062C168.191 189.34 168 189.749 168 190.181C168 190.496 168.099 190.787 168.268 191.026C168.533 191.399 168.969 191.643 169.462 191.643H170.143V197.232C170.143 198.761 171.382 200 172.911 200H174.321C175.071 200 175.679 199.392 175.679 198.643V195.536C175.679 194.254 176.718 193.214 178 193.214C179.282 193.214 180.321 194.254 180.321 195.536V198.643C180.321 199.392 180.929 200 181.679 200Z" fill="#AC6DFF"/>
<path d="M209.679 200H211.089C212.618 200 213.857 198.761 213.857 197.232V191.643H214.538C215.031 191.643 215.467 191.399 215.732 191.026C215.901 190.787 216 190.496 216 190.181C216 189.749 215.809 189.34 215.478 189.062L207.892 182.689C207.362 182.244 206.692 182 206 182C205.308 182 204.638 182.244 204.108 182.689L196.522 189.062C196.191 189.34 196 189.749 196 190.181C196 190.496 196.099 190.787 196.268 191.026C196.533 191.399 196.969 191.643 197.462 191.643H198.143V197.232C198.143 198.761 199.382 200 200.911 200H202.321C203.071 200 203.679 199.392 203.679 198.643V195.536C203.679 194.254 204.718 193.214 206 193.214C207.282 193.214 208.321 194.254 208.321 195.536V198.643C208.321 199.392 208.929 200 209.679 200Z" fill="#AC6DFF"/>
<path d="M237.679 200H239.089C240.618 200 241.857 198.761 241.857 197.232V191.643H242.538C243.031 191.643 243.467 191.399 243.732 191.026C243.901 190.787 244 190.496 244 190.181C244 189.749 243.809 189.34 243.478 189.062L235.892 182.689C235.362 182.244 234.692 182 234 182C233.308 182 232.638 182.244 232.108 182.689L224.522 189.062C224.191 189.34 224 189.749 224 190.181C224 190.496 224.099 190.787 224.268 191.026C224.533 191.399 224.969 191.643 225.462 191.643H226.143V197.232C226.143 198.761 227.382 200 228.911 200H230.321C231.071 200 231.679 199.392 231.679 198.643V195.536C231.679 194.254 232.718 193.214 234 193.214C235.282 193.214 236.321 194.254 236.321 195.536V198.643C236.321 199.392 236.929 200 237.679 200Z" fill="#AC6DFF"/>
<path d="M265.679 200H267.089C268.618 200 269.857 198.761 269.857 197.232V191.643H270.538C271.031 191.643 271.467 191.399 271.732 191.026C271.901 190.787 272 190.496 272 190.181C272 189.749 271.809 189.34 271.478 189.062L263.892 182.689C263.362 182.244 262.692 182 262 182C261.308 182 260.638 182.244 260.108 182.689L252.522 189.062C252.191 189.34 252 189.749 252 190.181C252 190.496 252.099 190.787 252.268 191.026C252.533 191.399 252.969 191.643 253.462 191.643H254.143V197.232C254.143 198.761 255.382 200 256.911 200H258.321C259.071 200 259.679 199.392 259.679 198.643V195.536C259.679 194.254 260.718 193.214 262 193.214C263.282 193.214 264.321 194.254 264.321 195.536V198.643C264.321 199.392 264.929 200 265.679 200Z" fill="#AC6DFF"/>
<path d="M13.6786 226H15.0893C16.6179 226 17.8571 224.761 17.8571 223.232V217.643H18.5383C19.031 217.643 19.4667 217.399 19.7315 217.026C19.9006 216.787 20 216.496 20 216.181C20 215.749 19.8091 215.34 19.4784 215.062L11.8918 208.689C11.3619 208.244 10.692 208 10 208C9.30796 208 8.63807 208.244 8.10817 208.689L0.521551 215.062C0.190918 215.34 0 215.749 0 216.181C0 216.496 0.0993848 216.787 0.26847 217.026C0.533274 217.399 0.969029 217.643 1.46172 217.643H2.14286V223.232C2.14286 224.761 3.38207 226 4.91071 226H6.32143C7.07096 226 7.67857 225.392 7.67857 224.643V221.536C7.67857 220.254 8.71791 219.214 10 219.214C11.2821 219.214 12.3214 220.254 12.3214 221.536V224.643C12.3214 225.392 12.929 226 13.6786 226Z" fill="#AC6DFF"/>
<path d="M41.6786 226H43.0893C44.6179 226 45.8571 224.761 45.8571 223.232V217.643H46.5383C47.031 217.643 47.4667 217.399 47.7315 217.026C47.9006 216.787 48 216.496 48 216.181C48 215.749 47.8091 215.34 47.4784 215.062L39.8918 208.689C39.3619 208.244 38.692 208 38 208C37.308 208 36.6381 208.244 36.1082 208.689L28.5216 215.062C28.1909 215.34 28 215.749 28 216.181C28 216.496 28.0994 216.787 28.2685 217.026C28.5333 217.399 28.969 217.643 29.4617 217.643H30.1429V223.232C30.1429 224.761 31.3821 226 32.9107 226H34.3214C35.071 226 35.6786 225.392 35.6786 224.643V221.536C35.6786 220.254 36.7179 219.214 38 219.214C39.2821 219.214 40.3214 220.254 40.3214 221.536V224.643C40.3214 225.392 40.929 226 41.6786 226Z" fill="#AC6DFF"/>
<path d="M69.6786 226H71.0893C72.6179 226 73.8571 224.761 73.8571 223.232V217.643H74.5383C75.031 217.643 75.4667 217.399 75.7315 217.026C75.9006 216.787 76 216.496 76 216.181C76 215.749 75.8091 215.34 75.4784 215.062L67.8918 208.689C67.3619 208.244 66.692 208 66 208C65.308 208 64.6381 208.244 64.1082 208.689L56.5216 215.062C56.1909 215.34 56 215.749 56 216.181C56 216.496 56.0994 216.787 56.2685 217.026C56.5333 217.399 56.969 217.643 57.4617 217.643H58.1429V223.232C58.1429 224.761 59.3821 226 60.9107 226H62.3214C63.071 226 63.6786 225.392 63.6786 224.643V221.536C63.6786 220.254 64.7179 219.214 66 219.214C67.2821 219.214 68.3214 220.254 68.3214 221.536V224.643C68.3214 225.392 68.929 226 69.6786 226Z" fill="#AC6DFF"/>
<path d="M97.6786 226H99.0893C100.618 226 101.857 224.761 101.857 223.232V217.643H102.538C103.031 217.643 103.467 217.399 103.732 217.026C103.901 216.787 104 216.496 104 216.181C104 215.749 103.809 215.34 103.478 215.062L95.8918 208.689C95.3619 208.244 94.692 208 94 208C93.308 208 92.6381 208.244 92.1082 208.689L84.5216 215.062C84.1909 215.34 84 215.749 84 216.181C84 216.496 84.0994 216.787 84.2685 217.026C84.5333 217.399 84.969 217.643 85.4617 217.643H86.1429V223.232C86.1429 224.761 87.3821 226 88.9107 226H90.3214C91.071 226 91.6786 225.392 91.6786 224.643V221.536C91.6786 220.254 92.7179 219.214 94 219.214C95.2821 219.214 96.3214 220.254 96.3214 221.536V224.643C96.3214 225.392 96.929 226 97.6786 226Z" fill="#AC6DFF"/>
<path d="M125.679 226H127.089C128.618 226 129.857 224.761 129.857 223.232V217.643H130.538C131.031 217.643 131.467 217.399 131.732 217.026C131.901 216.787 132 216.496 132 216.181C132 215.749 131.809 215.34 131.478 215.062L123.892 208.689C123.362 208.244 122.692 208 122 208C121.308 208 120.638 208.244 120.108 208.689L112.522 215.062C112.191 215.34 112 215.749 112 216.181C112 216.496 112.099 216.787 112.268 217.026C112.533 217.399 112.969 217.643 113.462 217.643H114.143V223.232C114.143 224.761 115.382 226 116.911 226H118.321C119.071 226 119.679 225.392 119.679 224.643V221.536C119.679 220.254 120.718 219.214 122 219.214C123.282 219.214 124.321 220.254 124.321 221.536V224.643C124.321 225.392 124.929 226 125.679 226Z" fill="#AC6DFF"/>
<path d="M153.679 226H155.089C156.618 226 157.857 224.761 157.857 223.232V217.643H158.538C159.031 217.643 159.467 217.399 159.732 217.026C159.901 216.787 160 216.496 160 216.181C160 215.749 159.809 215.34 159.478 215.062L151.892 208.689C151.362 208.244 150.692 208 150 208C149.308 208 148.638 208.244 148.108 208.689L140.522 215.062C140.191 215.34 140 215.749 140 216.181C140 216.496 140.099 216.787 140.268 217.026C140.533 217.399 140.969 217.643 141.462 217.643H142.143V223.232C142.143 224.761 143.382 226 144.911 226H146.321C147.071 226 147.679 225.392 147.679 224.643V221.536C147.679 220.254 148.718 219.214 150 219.214C151.282 219.214 152.321 220.254 152.321 221.536V224.643C152.321 225.392 152.929 226 153.679 226Z" fill="#AC6DFF"/>
<path d="M181.679 226H183.089C184.618 226 185.857 224.761 185.857 223.232V217.643H186.538C187.031 217.643 187.467 217.399 187.732 217.026C187.901 216.787 188 216.496 188 216.181C188 215.749 187.809 215.34 187.478 215.062L179.892 208.689C179.362 208.244 178.692 208 178 208C177.308 208 176.638 208.244 176.108 208.689L168.522 215.062C168.191 215.34 168 215.749 168 216.181C168 216.496 168.099 216.787 168.268 217.026C168.533 217.399 168.969 217.643 169.462 217.643H170.143V223.232C170.143 224.761 171.382 226 172.911 226H174.321C175.071 226 175.679 225.392 175.679 224.643V221.536C175.679 220.254 176.718 219.214 178 219.214C179.282 219.214 180.321 220.254 180.321 221.536V224.643C180.321 225.392 180.929 226 181.679 226Z" fill="#AC6DFF"/>
<path d="M209.679 226H211.089C212.618 226 213.857 224.761 213.857 223.232V217.643H214.538C215.031 217.643 215.467 217.399 215.732 217.026C215.901 216.787 216 216.496 216 216.181C216 215.749 215.809 215.34 215.478 215.062L207.892 208.689C207.362 208.244 206.692 208 206 208C205.308 208 204.638 208.244 204.108 208.689L196.522 215.062C196.191 215.34 196 215.749 196 216.181C196 216.496 196.099 216.787 196.268 217.026C196.533 217.399 196.969 217.643 197.462 217.643H198.143V223.232C198.143 224.761 199.382 226 200.911 226H202.321C203.071 226 203.679 225.392 203.679 224.643V221.536C203.679 220.254 204.718 219.214 206 219.214C207.282 219.214 208.321 220.254 208.321 221.536V224.643C208.321 225.392 208.929 226 209.679 226Z" fill="#AC6DFF"/>
<path d="M237.679 226H239.089C240.618 226 241.857 224.761 241.857 223.232V217.643H242.538C243.031 217.643 243.467 217.399 243.732 217.026C243.901 216.787 244 216.496 244 216.181C244 215.749 243.809 215.34 243.478 215.062L235.892 208.689C235.362 208.244 234.692 208 234 208C233.308 208 232.638 208.244 232.108 208.689L224.522 215.062C224.191 215.34 224 215.749 224 216.181C224 216.496 224.099 216.787 224.268 217.026C224.533 217.399 224.969 217.643 225.462 217.643H226.143V223.232C226.143 224.761 227.382 226 228.911 226H230.321C231.071 226 231.679 225.392 231.679 224.643V221.536C231.679 220.254 232.718 219.214 234 219.214C235.282 219.214 236.321 220.254 236.321 221.536V224.643C236.321 225.392 236.929 226 237.679 226Z" fill="#AC6DFF"/>
<path d="M265.679 226H267.089C268.618 226 269.857 224.761 269.857 223.232V217.643H270.538C271.031 217.643 271.467 217.399 271.732 217.026C271.901 216.787 272 216.496 272 216.181C272 215.749 271.809 215.34 271.478 215.062L263.892 208.689C263.362 208.244 262.692 208 262 208C261.308 208 260.638 208.244 260.108 208.689L252.522 215.062C252.191 215.34 252 215.749 252 216.181C252 216.496 252.099 216.787 252.268 217.026C252.533 217.399 252.969 217.643 253.462 217.643H254.143V223.232C254.143 224.761 255.382 226 256.911 226H258.321C259.071 226 259.679 225.392 259.679 224.643V221.536C259.679 220.254 260.718 219.214 262 219.214C263.282 219.214 264.321 220.254 264.321 221.536V224.643C264.321 225.392 264.929 226 265.679 226Z" fill="#AC6DFF"/>
<path d="M13.6786 252H15.0893C16.6179 252 17.8571 250.761 17.8571 249.232V243.643H18.5383C19.031 243.643 19.4667 243.399 19.7315 243.026C19.9006 242.787 20 242.496 20 242.181C20 241.749 19.8091 241.34 19.4784 241.062L11.8918 234.689C11.3619 234.244 10.692 234 10 234C9.30796 234 8.63807 234.244 8.10817 234.689L0.521551 241.062C0.190918 241.34 0 241.749 0 242.181C0 242.496 0.0993848 242.787 0.26847 243.026C0.533274 243.399 0.969029 243.643 1.46172 243.643H2.14286V249.232C2.14286 250.761 3.38207 252 4.91071 252H6.32143C7.07096 252 7.67857 251.392 7.67857 250.643V247.536C7.67857 246.254 8.71791 245.214 10 245.214C11.2821 245.214 12.3214 246.254 12.3214 247.536V250.643C12.3214 251.392 12.929 252 13.6786 252Z" fill="#AC6DFF"/>
<path d="M41.6786 252H43.0893C44.6179 252 45.8571 250.761 45.8571 249.232V243.643H46.5383C47.031 243.643 47.4667 243.399 47.7315 243.026C47.9006 242.787 48 242.496 48 242.181C48 241.749 47.8091 241.34 47.4784 241.062L39.8918 234.689C39.3619 234.244 38.692 234 38 234C37.308 234 36.6381 234.244 36.1082 234.689L28.5216 241.062C28.1909 241.34 28 241.749 28 242.181C28 242.496 28.0994 242.787 28.2685 243.026C28.5333 243.399 28.969 243.643 29.4617 243.643H30.1429V249.232C30.1429 250.761 31.3821 252 32.9107 252H34.3214C35.071 252 35.6786 251.392 35.6786 250.643V247.536C35.6786 246.254 36.7179 245.214 38 245.214C39.2821 245.214 40.3214 246.254 40.3214 247.536V250.643C40.3214 251.392 40.929 252 41.6786 252Z" fill="#AC6DFF"/>
<path d="M69.6786 252H71.0893C72.6179 252 73.8571 250.761 73.8571 249.232V243.643H74.5383C75.031 243.643 75.4667 243.399 75.7315 243.026C75.9006 242.787 76 242.496 76 242.181C76 241.749 75.8091 241.34 75.4784 241.062L67.8918 234.689C67.3619 234.244 66.692 234 66 234C65.308 234 64.6381 234.244 64.1082 234.689L56.5216 241.062C56.1909 241.34 56 241.749 56 242.181C56 242.496 56.0994 242.787 56.2685 243.026C56.5333 243.399 56.969 243.643 57.4617 243.643H58.1429V249.232C58.1429 250.761 59.3821 252 60.9107 252H62.3214C63.071 252 63.6786 251.392 63.6786 250.643V247.536C63.6786 246.254 64.7179 245.214 66 245.214C67.2821 245.214 68.3214 246.254 68.3214 247.536V250.643C68.3214 251.392 68.929 252 69.6786 252Z" fill="#AC6DFF"/>
<path d="M97.6786 252H99.0893C100.618 252 101.857 250.761 101.857 249.232V243.643H102.538C103.031 243.643 103.467 243.399 103.732 243.026C103.901 242.787 104 242.496 104 242.181C104 241.749 103.809 241.34 103.478 241.062L95.8918 234.689C95.3619 234.244 94.692 234 94 234C93.308 234 92.6381 234.244 92.1082 234.689L84.5216 241.062C84.1909 241.34 84 241.749 84 242.181C84 242.496 84.0994 242.787 84.2685 243.026C84.5333 243.399 84.969 243.643 85.4617 243.643H86.1429V249.232C86.1429 250.761 87.3821 252 88.9107 252H90.3214C91.071 252 91.6786 251.392 91.6786 250.643V247.536C91.6786 246.254 92.7179 245.214 94 245.214C95.2821 245.214 96.3214 246.254 96.3214 247.536V250.643C96.3214 251.392 96.929 252 97.6786 252Z" fill="#AC6DFF"/>
<path d="M125.679 252H127.089C128.618 252 129.857 250.761 129.857 249.232V243.643H130.538C131.031 243.643 131.467 243.399 131.732 243.026C131.901 242.787 132 242.496 132 242.181C132 241.749 131.809 241.34 131.478 241.062L123.892 234.689C123.362 234.244 122.692 234 122 234C121.308 234 120.638 234.244 120.108 234.689L112.522 241.062C112.191 241.34 112 241.749 112 242.181C112 242.496 112.099 242.787 112.268 243.026C112.533 243.399 112.969 243.643 113.462 243.643H114.143V249.232C114.143 250.761 115.382 252 116.911 252H118.321C119.071 252 119.679 251.392 119.679 250.643V247.536C119.679 246.254 120.718 245.214 122 245.214C123.282 245.214 124.321 246.254 124.321 247.536V250.643C124.321 251.392 124.929 252 125.679 252Z" fill="#AC6DFF"/>
<path d="M153.679 252H155.089C156.618 252 157.857 250.761 157.857 249.232V243.643H158.538C159.031 243.643 159.467 243.399 159.732 243.026C159.901 242.787 160 242.496 160 242.181C160 241.749 159.809 241.34 159.478 241.062L151.892 234.689C151.362 234.244 150.692 234 150 234C149.308 234 148.638 234.244 148.108 234.689L140.522 241.062C140.191 241.34 140 241.749 140 242.181C140 242.496 140.099 242.787 140.268 243.026C140.533 243.399 140.969 243.643 141.462 243.643H142.143V249.232C142.143 250.761 143.382 252 144.911 252H146.321C147.071 252 147.679 251.392 147.679 250.643V247.536C147.679 246.254 148.718 245.214 150 245.214C151.282 245.214 152.321 246.254 152.321 247.536V250.643C152.321 251.392 152.929 252 153.679 252Z" fill="#AC6DFF"/>
<path d="M181.679 252H183.089C184.618 252 185.857 250.761 185.857 249.232V243.643H186.538C187.031 243.643 187.467 243.399 187.732 243.026C187.901 242.787 188 242.496 188 242.181C188 241.749 187.809 241.34 187.478 241.062L179.892 234.689C179.362 234.244 178.692 234 178 234C177.308 234 176.638 234.244 176.108 234.689L168.522 241.062C168.191 241.34 168 241.749 168 242.181C168 242.496 168.099 242.787 168.268 243.026C168.533 243.399 168.969 243.643 169.462 243.643H170.143V249.232C170.143 250.761 171.382 252 172.911 252H174.321C175.071 252 175.679 251.392 175.679 250.643V247.536C175.679 246.254 176.718 245.214 178 245.214C179.282 245.214 180.321 246.254 180.321 247.536V250.643C180.321 251.392 180.929 252 181.679 252Z" fill="#AC6DFF"/>
<path d="M209.679 252H211.089C212.618 252 213.857 250.761 213.857 249.232V243.643H214.538C215.031 243.643 215.467 243.399 215.732 243.026C215.901 242.787 216 242.496 216 242.181C216 241.749 215.809 241.34 215.478 241.062L207.892 234.689C207.362 234.244 206.692 234 206 234C205.308 234 204.638 234.244 204.108 234.689L196.522 241.062C196.191 241.34 196 241.749 196 242.181C196 242.496 196.099 242.787 196.268 243.026C196.533 243.399 196.969 243.643 197.462 243.643H198.143V249.232C198.143 250.761 199.382 252 200.911 252H202.321C203.071 252 203.679 251.392 203.679 250.643V247.536C203.679 246.254 204.718 245.214 206 245.214C207.282 245.214 208.321 246.254 208.321 247.536V250.643C208.321 251.392 208.929 252 209.679 252Z" fill="#AC6DFF"/>
<path d="M237.679 252H239.089C240.618 252 241.857 250.761 241.857 249.232V243.643H242.538C243.031 243.643 243.467 243.399 243.732 243.026C243.901 242.787 244 242.496 244 242.181C244 241.749 243.809 241.34 243.478 241.062L235.892 234.689C235.362 234.244 234.692 234 234 234C233.308 234 232.638 234.244 232.108 234.689L224.522 241.062C224.191 241.34 224 241.749 224 242.181C224 242.496 224.099 242.787 224.268 243.026C224.533 243.399 224.969 243.643 225.462 243.643H226.143V249.232C226.143 250.761 227.382 252 228.911 252H230.321C231.071 252 231.679 251.392 231.679 250.643V247.536C231.679 246.254 232.718 245.214 234 245.214C235.282 245.214 236.321 246.254 236.321 247.536V250.643C236.321 251.392 236.929 252 237.679 252Z" fill="#AC6DFF"/>
<path d="M265.679 252H267.089C268.618 252 269.857 250.761 269.857 249.232V243.643H270.538C271.031 243.643 271.467 243.399 271.732 243.026C271.901 242.787 272 242.496 272 242.181C272 241.749 271.809 241.34 271.478 241.062L263.892 234.689C263.362 234.244 262.692 234 262 234C261.308 234 260.638 234.244 260.108 234.689L252.522 241.062C252.191 241.34 252 241.749 252 242.181C252 242.496 252.099 242.787 252.268 243.026C252.533 243.399 252.969 243.643 253.462 243.643H254.143V249.232C254.143 250.761 255.382 252 256.911 252H258.321C259.071 252 259.679 251.392 259.679 250.643V247.536C259.679 246.254 260.718 245.214 262 245.214C263.282 245.214 264.321 246.254 264.321 247.536V250.643C264.321 251.392 264.929 252 265.679 252Z" fill="#AC6DFF"/>
</svg>
