<svg width="208" height="304" viewBox="0 0 208 304" fill="none" xmlns="http://www.w3.org/2000/svg">
<circle cx="8" cy="8" r="8" fill="#6A5EF6"/>
<circle cx="32" cy="8" r="8" fill="#6A5EF6"/>
<circle cx="56" cy="8" r="8" fill="#6A5EF6"/>
<circle cx="80" cy="8" r="8" fill="#6A5EF6"/>
<circle cx="104" cy="8" r="8" fill="#6A5EF6"/>
<circle cx="128" cy="8" r="8" fill="#6A5EF6"/>
<circle cx="152" cy="8" r="8" fill="#6A5EF6"/>
<circle cx="176" cy="8" r="8" fill="#6A5EF6"/>
<circle cx="200" cy="8" r="8" fill="#6A5EF6"/>
<circle cx="8" cy="32" r="8" fill="#6A5EF6"/>
<circle cx="32" cy="32" r="8" fill="#6A5EF6"/>
<circle cx="56" cy="32" r="8" fill="#6A5EF6"/>
<circle cx="80" cy="32" r="8" fill="#6A5EF6"/>
<circle cx="104" cy="32" r="8" fill="#6A5EF6"/>
<circle cx="128" cy="32" r="8" fill="#6A5EF6"/>
<circle cx="152" cy="32" r="8" fill="#6A5EF6"/>
<circle cx="176" cy="32" r="8" fill="#6A5EF6"/>
<circle cx="200" cy="32" r="8" fill="#6A5EF6"/>
<circle cx="8" cy="56" r="8" fill="#6A5EF6"/>
<circle cx="32" cy="56" r="8" fill="#6A5EF6"/>
<circle cx="56" cy="56" r="8" fill="#6A5EF6"/>
<circle cx="80" cy="56" r="8" fill="#6A5EF6"/>
<circle cx="104" cy="56" r="8" fill="#6A5EF6"/>
<circle cx="128" cy="56" r="8" fill="#6A5EF6"/>
<circle cx="152" cy="56" r="8" fill="#6A5EF6"/>
<circle cx="176" cy="56" r="8" fill="#6A5EF6"/>
<circle cx="200" cy="56" r="8" fill="#6A5EF6"/>
<circle cx="8" cy="80" r="8" fill="#6A5EF6"/>
<circle cx="32" cy="80" r="8" fill="#6A5EF6"/>
<circle cx="56" cy="80" r="8" fill="#6A5EF6"/>
<circle cx="80" cy="80" r="8" fill="#6A5EF6"/>
<circle cx="104" cy="80" r="8" fill="#6A5EF6"/>
<circle cx="128" cy="80" r="8" fill="#6A5EF6"/>
<circle cx="152" cy="80" r="8" fill="#6A5EF6"/>
<circle cx="176" cy="80" r="8" fill="#6A5EF6"/>
<circle cx="200" cy="80" r="8" fill="#6A5EF6"/>
<circle cx="8" cy="104" r="8" fill="#6A5EF6"/>
<circle cx="32" cy="104" r="8" fill="#6A5EF6"/>
<circle cx="56" cy="104" r="8" fill="#6A5EF6"/>
<circle cx="80" cy="104" r="8" fill="#6A5EF6"/>
<circle cx="104" cy="104" r="8" fill="#6A5EF6"/>
<circle cx="128" cy="104" r="8" fill="#6A5EF6"/>
<circle cx="152" cy="104" r="8" fill="#6A5EF6"/>
<circle cx="176" cy="104" r="8" fill="#6A5EF6"/>
<circle cx="200" cy="104" r="8" fill="#6A5EF6"/>
<circle cx="8" cy="128" r="8" fill="#6A5EF6"/>
<circle cx="32" cy="128" r="8" fill="#6A5EF6"/>
<circle cx="56" cy="128" r="8" fill="#6A5EF6"/>
<circle cx="80" cy="128" r="8" fill="#6A5EF6"/>
<circle cx="104" cy="128" r="8" fill="#6A5EF6"/>
<circle cx="128" cy="128" r="8" fill="#6A5EF6"/>
<circle cx="152" cy="128" r="8" fill="#6A5EF6"/>
<circle cx="176" cy="128" r="8" fill="#6A5EF6"/>
<circle cx="200" cy="128" r="8" fill="#6A5EF6"/>
<circle cx="8" cy="152" r="8" fill="#6A5EF6"/>
<circle cx="32" cy="152" r="8" fill="#6A5EF6"/>
<circle cx="56" cy="152" r="8" fill="#6A5EF6"/>
<circle cx="80" cy="152" r="8" fill="#6A5EF6"/>
<circle cx="104" cy="152" r="8" fill="#6A5EF6"/>
<circle cx="128" cy="152" r="8" fill="#6A5EF6"/>
<circle cx="152" cy="152" r="8" fill="#6A5EF6"/>
<circle cx="176" cy="152" r="8" fill="#6A5EF6"/>
<circle cx="200" cy="152" r="8" fill="#6A5EF6"/>
<circle cx="8" cy="176" r="8" fill="#6A5EF6"/>
<circle cx="32" cy="176" r="8" fill="#6A5EF6"/>
<circle cx="56" cy="176" r="8" fill="#6A5EF6"/>
<circle cx="80" cy="176" r="8" fill="#6A5EF6"/>
<circle cx="104" cy="176" r="8" fill="#6A5EF6"/>
<circle cx="128" cy="176" r="8" fill="#6A5EF6"/>
<circle cx="152" cy="176" r="8" fill="#6A5EF6"/>
<circle cx="176" cy="176" r="8" fill="#6A5EF6"/>
<circle cx="200" cy="176" r="8" fill="#6A5EF6"/>
<circle cx="8" cy="200" r="8" fill="#6A5EF6"/>
<circle cx="32" cy="200" r="8" fill="#6A5EF6"/>
<circle cx="56" cy="200" r="8" fill="#6A5EF6"/>
<circle cx="80" cy="200" r="8" fill="#6A5EF6"/>
<circle cx="104" cy="200" r="8" fill="#6A5EF6"/>
<circle cx="128" cy="200" r="8" fill="#6A5EF6"/>
<circle cx="152" cy="200" r="8" fill="#6A5EF6"/>
<circle cx="176" cy="200" r="8" fill="#6A5EF6"/>
<circle cx="200" cy="200" r="8" fill="#6A5EF6"/>
<circle cx="8" cy="224" r="8" fill="#6A5EF6"/>
<circle cx="32" cy="224" r="8" fill="#6A5EF6"/>
<circle cx="56" cy="224" r="8" fill="#6A5EF6"/>
<circle cx="80" cy="224" r="8" fill="#6A5EF6"/>
<circle cx="104" cy="224" r="8" fill="#6A5EF6"/>
<circle cx="128" cy="224" r="8" fill="#6A5EF6"/>
<circle cx="152" cy="224" r="8" fill="#6A5EF6"/>
<circle cx="176" cy="224" r="8" fill="#6A5EF6"/>
<circle cx="200" cy="224" r="8" fill="#6A5EF6"/>
<circle cx="8" cy="248" r="8" fill="#6A5EF6"/>
<circle cx="32" cy="248" r="8" fill="#6A5EF6"/>
<circle cx="56" cy="248" r="8" fill="#6A5EF6"/>
<circle cx="80" cy="248" r="8" fill="#6A5EF6"/>
<circle cx="104" cy="248" r="8" fill="#6A5EF6"/>
<circle cx="128" cy="248" r="8" fill="#6A5EF6"/>
<circle cx="152" cy="248" r="8" fill="#6A5EF6"/>
<circle cx="176" cy="248" r="8" fill="#6A5EF6"/>
<circle cx="200" cy="248" r="8" fill="#6A5EF6"/>
<circle cx="8" cy="272" r="8" fill="#6A5EF6"/>
<circle cx="32" cy="272" r="8" fill="#6A5EF6"/>
<circle cx="56" cy="272" r="8" fill="#6A5EF6"/>
<circle cx="80" cy="272" r="8" fill="#6A5EF6"/>
<circle cx="104" cy="272" r="8" fill="#6A5EF6"/>
<circle cx="128" cy="272" r="8" fill="#6A5EF6"/>
<circle cx="152" cy="272" r="8" fill="#6A5EF6"/>
<circle cx="176" cy="272" r="8" fill="#6A5EF6"/>
<circle cx="200" cy="272" r="8" fill="#6A5EF6"/>
<circle cx="32" cy="296" r="8" fill="#6A5EF6"/>
<circle cx="56" cy="296" r="8" fill="#6A5EF6"/>
<circle cx="80" cy="296" r="8" fill="#6A5EF6"/>
<circle cx="104" cy="296" r="8" fill="#6A5EF6"/>
<circle cx="128" cy="296" r="8" fill="#6A5EF6"/>
<circle cx="152" cy="296" r="8" fill="#6A5EF6"/>
<circle cx="176" cy="296" r="8" fill="#6A5EF6"/>
</svg>
