<svg width="56" height="91" viewBox="0 0 56 91" fill="none" xmlns="http://www.w3.org/2000/svg">
<path d="M2.5 0.5H8H16H24H32H40H45.5C46.6046 0.5 47.5 1.39543 47.5 2.5V13.5C47.5 14.6046 46.6046 15.5 45.5 15.5H40H32H24H16H8H2.5C1.39543 15.5 0.5 14.6046 0.5 13.5V2.5C0.5 1.39543 1.39543 0.5 2.5 0.5Z" fill="#FCD813"/>
<path d="M32 0.5V15.5M24 0.5V15.5M40 0.5V15.5M16 0.5V15.5M8 0.5V15.5M2.5 15.5H45.5C46.6046 15.5 47.5 14.6046 47.5 13.5V2.5C47.5 1.39543 46.6046 0.5 45.5 0.5H2.5C1.39543 0.5 0.5 1.39543 0.5 2.5V13.5C0.5 14.6046 1.39543 15.5 2.5 15.5Z" stroke="#CC9502" stroke-linecap="round" stroke-linejoin="round"/>
<path d="M4.5 15.5H10H18H26H34H42H47.5C48.6046 15.5 49.5 16.3954 49.5 17.5V28.5C49.5 29.6046 48.6046 30.5 47.5 30.5H42H34H26H18H10H4.5C3.39543 30.5 2.5 29.6046 2.5 28.5V17.5C2.5 16.3954 3.39543 15.5 4.5 15.5Z" fill="#FCD813"/>
<path d="M34 15.5V30.5M26 15.5V30.5M42 15.5V30.5M18 15.5V30.5M10 15.5V30.5M4.5 30.5H47.5C48.6046 30.5 49.5 29.6046 49.5 28.5V17.5C49.5 16.3954 48.6046 15.5 47.5 15.5H4.5C3.39543 15.5 2.5 16.3954 2.5 17.5V28.5C2.5 29.6046 3.39543 30.5 4.5 30.5Z" stroke="#CC9502" stroke-linecap="round" stroke-linejoin="round"/>
<path d="M10.5 30.5H16H24H32H40H48H53.5C54.6046 30.5 55.5 31.3954 55.5 32.5V43.5C55.5 44.6046 54.6046 45.5 53.5 45.5H48H40H32H24H16H10.5C9.39543 45.5 8.5 44.6046 8.5 43.5V32.5C8.5 31.3954 9.39543 30.5 10.5 30.5Z" fill="#FCD813"/>
<path d="M40 30.5V45.5M32 30.5V45.5M48 30.5V45.5M24 30.5V45.5M16 30.5V45.5M10.5 45.5H53.5C54.6046 45.5 55.5 44.6046 55.5 43.5V32.5C55.5 31.3954 54.6046 30.5 53.5 30.5H10.5C9.39543 30.5 8.5 31.3954 8.5 32.5V43.5C8.5 44.6046 9.39543 45.5 10.5 45.5Z" stroke="#CC9502" stroke-linecap="round" stroke-linejoin="round"/>
<path d="M4.5 45.5H10H18H26H34H42H47.5C48.6046 45.5 49.5 46.3954 49.5 47.5V58.5C49.5 59.6046 48.6046 60.5 47.5 60.5H42H34H26H18H10H4.5C3.39543 60.5 2.5 59.6046 2.5 58.5V47.5C2.5 46.3954 3.39543 45.5 4.5 45.5Z" fill="#FCD813"/>
<path d="M34 45.5V60.5M26 45.5V60.5M42 45.5V60.5M18 45.5V60.5M10 45.5V60.5M4.5 60.5H47.5C48.6046 60.5 49.5 59.6046 49.5 58.5V47.5C49.5 46.3954 48.6046 45.5 47.5 45.5H4.5C3.39543 45.5 2.5 46.3954 2.5 47.5V58.5C2.5 59.6046 3.39543 60.5 4.5 60.5Z" stroke="#CC9502" stroke-linecap="round" stroke-linejoin="round"/>
<path d="M6.5 60.5H12H20H28H36H44H49.5C50.6046 60.5 51.5 61.3954 51.5 62.5V73.5C51.5 74.6046 50.6046 75.5 49.5 75.5H44H36H28H20H12H6.5C5.39543 75.5 4.5 74.6046 4.5 73.5V62.5C4.5 61.3954 5.39543 60.5 6.5 60.5Z" fill="#FCD813"/>
<path d="M36 60.5V75.5M28 60.5V75.5M44 60.5V75.5M20 60.5V75.5M12 60.5V75.5M6.5 75.5H49.5C50.6046 75.5 51.5 74.6046 51.5 73.5V62.5C51.5 61.3954 50.6046 60.5 49.5 60.5H6.5C5.39543 60.5 4.5 61.3954 4.5 62.5V73.5C4.5 74.6046 5.39543 75.5 6.5 75.5Z" stroke="#CC9502" stroke-linecap="round" stroke-linejoin="round"/>
<path d="M2.5 75.5H8H16H24H32H40H45.5C46.6046 75.5 47.5 76.3954 47.5 77.5V88.5C47.5 89.6046 46.6046 90.5 45.5 90.5H40H32H24H16H8H2.5C1.39543 90.5 0.5 89.6046 0.5 88.5V77.5C0.5 76.3954 1.39543 75.5 2.5 75.5Z" fill="#FCD813"/>
<path d="M32 75.5V90.5M24 75.5V90.5M40 75.5V90.5M16 75.5V90.5M8 75.5V90.5M2.5 90.5H45.5C46.6046 90.5 47.5 89.6046 47.5 88.5V77.5C47.5 76.3954 46.6046 75.5 45.5 75.5H2.5C1.39543 75.5 0.5 76.3954 0.5 77.5V88.5C0.5 89.6046 1.39543 90.5 2.5 90.5Z" stroke="#CC9502" stroke-linecap="round" stroke-linejoin="round"/>
</svg>
