<svg width="96" height="144" viewBox="0 0 96 144" fill="none" xmlns="http://www.w3.org/2000/svg">
<path fill-rule="evenodd" clip-rule="evenodd" d="M86 0H6C4.89543 0 4 0.895431 4 2C4 3.10457 4.89543 4 6 4H86C87.1046 4 88 3.10457 88 2C88 0.895431 87.1046 0 86 0ZM6 20C4.89543 20 4 20.8954 4 22C4 23.1046 4.89543 24 6 24H86C87.1046 24 88 23.1046 88 22C88 20.8954 87.1046 20 86 20H6Z" fill="#7E7DFC"/>
<path d="M6 4V20H86V4H6Z" fill="#DFE3FF"/>
<path d="M6 7H63M41 12H86M26 17H51" stroke="#7E7DFC" stroke-linecap="round" stroke-linejoin="round"/>
<path fill-rule="evenodd" clip-rule="evenodd" d="M84 24H14C12.8954 24 12 24.8954 12 26C12 27.1046 12.8954 28 14 28H84C88.4183 28 92 31.5817 92 36C92 40.4183 88.4183 44 84 44H14C12.8954 44 12 44.8954 12 46C12 47.1046 12.8954 48 14 48H84C90.6274 48 96 42.6274 96 36C96 29.3726 90.6274 24 84 24Z" fill="#7E7DFC"/>
<path d="M84 44C88.4183 44 92 40.4183 92 36C92 31.5817 88.4183 28 84 28H14V44H84Z" fill="#DFE3FF"/>
<path d="M71 31H14M82 36H47M60 40H14" stroke="#7E7DFC" stroke-linecap="round" stroke-linejoin="round"/>
<path fill-rule="evenodd" clip-rule="evenodd" d="M81.9998 48H12.0039C5.3765 48 0.00391185 53.3726 0.00391877 60C0.00392568 66.6274 5.37651 72 12.0039 72H81.9998C83.1043 72 83.9998 71.1046 83.9998 70C83.9998 68.8954 83.1043 68 81.9998 68H11.9998C7.58154 68 3.99982 64.4183 3.99982 60C3.99981 55.5817 7.58153 52 11.9998 52H81.9998C83.1043 52 83.9998 51.1046 83.9998 50C83.9998 48.8954 83.1043 48 81.9998 48Z" fill="#7E7DFC"/>
<path d="M11.9998 52C7.58153 52 3.99981 55.5817 3.99982 60C3.99982 64.4183 7.58154 68 11.9998 68H81.9998V52H11.9998Z" fill="#DFE3FF"/>
<path d="M26 56H82.0002M37 61H82.0002M53 65H78" stroke="#7E7DFC" stroke-linecap="round" stroke-linejoin="round"/>
<path fill-rule="evenodd" clip-rule="evenodd" d="M76 72H6C4.89543 72 4 72.8954 4 74C4 75.1046 4.89543 76 6 76H76C80.4183 76 84 79.5817 84 84C84 88.4183 80.4183 92 76 92H6C4.89543 92 4 92.8954 4 94C4 95.1046 4.89543 96 6 96H76C82.6274 96 88 90.6274 88 84C88 77.3726 82.6274 72 76 72Z" fill="#7E7DFC"/>
<path d="M76 92C80.4183 92 84 88.4183 84 84C84 79.5817 80.4183 76 76 76H6V92H76Z" fill="#DFE3FF"/>
<path d="M63 79H6M74 84H39M52 88H6" stroke="#7E7DFC" stroke-linecap="round" stroke-linejoin="round"/>
<path fill-rule="evenodd" clip-rule="evenodd" d="M82 96H2C0.895431 96 0 96.8954 0 98C0 99.1046 0.895431 100 2 100H82C83.1046 100 84 99.1046 84 98C84 96.8954 83.1046 96 82 96ZM2 116C0.895431 116 0 116.895 0 118C0 119.105 0.895433 120 2 120H82C83.1046 120 84 119.105 84 118C84 116.895 83.1046 116 82 116H2Z" fill="#7E7DFC"/>
<path d="M2 100V116H82V100H2Z" fill="#DFE3FF"/>
<path d="M2 103H59M37 108H82M22 113H47" stroke="#7E7DFC" stroke-linecap="round" stroke-linejoin="round"/>
<path fill-rule="evenodd" clip-rule="evenodd" d="M89.9998 120H20.0039C13.3765 120 8.00391 125.373 8.00392 132C8.00393 138.627 13.3765 144 20.0039 144H89.9998C91.1043 144 91.9998 143.105 91.9998 142C91.9998 140.895 91.1043 140 89.9998 140H19.9998C15.5815 140 11.9998 136.418 11.9998 132C11.9998 127.582 15.5815 124 19.9998 124H89.9998C91.1043 124 91.9998 123.105 91.9998 122C91.9998 120.895 91.1043 120 89.9998 120Z" fill="#7E7DFC"/>
<path d="M19.9998 124C15.5815 124 11.9998 127.582 11.9998 132C11.9998 136.418 15.5815 140 19.9998 140H89.9998V124H19.9998Z" fill="#DFE3FF"/>
<path d="M34 128H90.0002M45 133H90.0002M61 137H86" stroke="#7E7DFC" stroke-linecap="round" stroke-linejoin="round"/>
</svg>
