<svg width="252" height="328" viewBox="0 0 252 328" fill="none" xmlns="http://www.w3.org/2000/svg">
<g clip-path="url(#clip0_922_20933)">
<path d="M1.5 12V13C1.5 15.4853 3.51472 17.5 6 17.5H9H16H18.5H25.5H28H35H38C40.4853 17.5 42.5 15.4853 42.5 13V12H1.5Z" fill="#929AFF"/>
<path d="M35 17.5L35.2629 46.9043C35.2684 47.511 35.7617 48 36.3685 48C36.9714 48 37.4632 47.517 37.474 46.9141L38 17.5H35Z" fill="#929AFF"/>
<path d="M7.522 48C8.06471 48 8.50714 47.5648 8.51603 47.0221L9 17.5H6L6.528 47.0236C6.53769 47.5657 6.97987 48 7.522 48Z" fill="#929AFF"/>
<path d="M16 20.5091H18.5V17.5H16V20.5091Z" fill="#5B41EA"/>
<path d="M1.25001 9.50001C0.559648 9.5 0 10.0596 0 10.75C0 11.4404 0.559642 12 1.25 12H1.5H42.5H42.75C43.4403 12 44 11.4403 44 10.75C44 10.0596 43.4403 9.49997 42.75 9.49997H29L15 9.50011L1.25001 9.50001Z" fill="#929AFF"/>
<path d="M25.5 20.5H28V17.5H25.5V20.5Z" fill="#5B41EA"/>
<path d="M13.0015 20.503C12.1727 20.5014 11.5 21.1727 11.5 22.0015C11.5 22.8291 12.1709 23.5 12.9985 23.5H14H17H27H30H31.003C31.8298 23.5 32.5 22.8298 32.5 22.003C32.5 21.1775 31.8316 20.5077 31.0061 20.5061L28 20.5H25.5L18.5 20.5091H16L13.0015 20.503Z" fill="#5B41EA"/>
<path d="M27 23.5L27.4796 47.0002C27.4909 47.5557 27.9444 48 28.5 48C29.0556 48 29.5091 47.5557 29.5204 47.0002L30 23.5H27Z" fill="#5B41EA"/>
<path d="M15.5 48C16.0556 48 16.5091 47.5557 16.5204 47.0002L17 23.5H14L14.4796 47.0002C14.4909 47.5557 14.9444 48 15.5 48Z" fill="#5B41EA"/>
<path d="M18 0.000109144C18 0.000109144 13 9.53674e-07 13 5.23636C13 7.59105 13.8346 8.78698 15 9.50011L29 9.49997C30.1654 8.78685 31 7.59105 31 5.23636C31 1.43051e-06 26 0.000109144 26 0.000109144L22 0L18 0.000109144Z" fill="#5B41EA"/>
</g>
<g clip-path="url(#clip1_922_20933)">
<path d="M53.5 12V13C53.5 15.4853 55.5147 17.5 58 17.5H61H68H70.5H77.5H80H87H90C92.4853 17.5 94.5 15.4853 94.5 13V12H53.5Z" fill="#929AFF"/>
<path d="M87 17.5L87.2629 46.9043C87.2684 47.511 87.7617 48 88.3685 48C88.9714 48 89.4632 47.517 89.474 46.9141L90 17.5H87Z" fill="#929AFF"/>
<path d="M59.522 48C60.0647 48 60.5071 47.5648 60.516 47.0221L61 17.5H58L58.528 47.0236C58.5377 47.5657 58.9799 48 59.522 48Z" fill="#929AFF"/>
<path d="M68 20.5091H70.5V17.5H68V20.5091Z" fill="#5B41EA"/>
<path d="M53.25 9.50001C52.5596 9.5 52 10.0596 52 10.75C52 11.4404 52.5596 12 53.25 12H53.5H94.5H94.75C95.4403 12 96 11.4403 96 10.75C96 10.0596 95.4403 9.49997 94.75 9.49997H81L67 9.50011L53.25 9.50001Z" fill="#929AFF"/>
<path d="M77.5 20.5H80V17.5H77.5V20.5Z" fill="#5B41EA"/>
<path d="M65.0015 20.503C64.1727 20.5014 63.5 21.1727 63.5 22.0015C63.5 22.8291 64.1709 23.5 64.9985 23.5H66H69H79H82H83.003C83.8298 23.5 84.5 22.8298 84.5 22.003C84.5 21.1775 83.8316 20.5077 83.0061 20.5061L80 20.5H77.5L70.5 20.5091H68L65.0015 20.503Z" fill="#5B41EA"/>
<path d="M79 23.5L79.4796 47.0002C79.4909 47.5557 79.9444 48 80.5 48C81.0556 48 81.5091 47.5557 81.5204 47.0002L82 23.5H79Z" fill="#5B41EA"/>
<path d="M67.5 48C68.0556 48 68.5091 47.5557 68.5204 47.0002L69 23.5H66L66.4796 47.0002C66.4909 47.5557 66.9444 48 67.5 48Z" fill="#5B41EA"/>
<path d="M70 0.000109144C70 0.000109144 65 9.53674e-07 65 5.23636C65 7.59105 65.8346 8.78698 67 9.50011L81 9.49997C82.1654 8.78685 83 7.59105 83 5.23636C83 1.43051e-06 78 0.000109144 78 0.000109144L74 0L70 0.000109144Z" fill="#5B41EA"/>
</g>
<g clip-path="url(#clip2_922_20933)">
<path d="M105.5 12V13C105.5 15.4853 107.515 17.5 110 17.5H113H120H122.5H129.5H132H139H142C144.485 17.5 146.5 15.4853 146.5 13V12H105.5Z" fill="#929AFF"/>
<path d="M139 17.5L139.263 46.9043C139.268 47.511 139.762 48 140.369 48C140.971 48 141.463 47.517 141.474 46.9141L142 17.5H139Z" fill="#929AFF"/>
<path d="M111.522 48C112.065 48 112.507 47.5648 112.516 47.0221L113 17.5H110L110.528 47.0236C110.538 47.5657 110.98 48 111.522 48Z" fill="#929AFF"/>
<path d="M120 20.5091H122.5V17.5H120V20.5091Z" fill="#5B41EA"/>
<path d="M105.25 9.50001C104.56 9.5 104 10.0596 104 10.75C104 11.4404 104.56 12 105.25 12H105.5H146.5H146.75C147.44 12 148 11.4403 148 10.75C148 10.0596 147.44 9.49997 146.75 9.49997H133L119 9.50011L105.25 9.50001Z" fill="#929AFF"/>
<path d="M129.5 20.5H132V17.5H129.5V20.5Z" fill="#5B41EA"/>
<path d="M117.002 20.503C116.173 20.5014 115.5 21.1727 115.5 22.0015C115.5 22.8291 116.171 23.5 116.998 23.5H118H121H131H134H135.003C135.83 23.5 136.5 22.8298 136.5 22.003C136.5 21.1775 135.832 20.5077 135.006 20.5061L132 20.5H129.5L122.5 20.5091H120L117.002 20.503Z" fill="#5B41EA"/>
<path d="M131 23.5L131.48 47.0002C131.491 47.5557 131.944 48 132.5 48C133.056 48 133.509 47.5557 133.52 47.0002L134 23.5H131Z" fill="#5B41EA"/>
<path d="M119.5 48C120.056 48 120.509 47.5557 120.52 47.0002L121 23.5H118L118.48 47.0002C118.491 47.5557 118.944 48 119.5 48Z" fill="#5B41EA"/>
<path d="M122 0.000109144C122 0.000109144 117 9.53674e-07 117 5.23636C117 7.59105 117.835 8.78698 119 9.50011L133 9.49997C134.165 8.78685 135 7.59105 135 5.23636C135 1.43051e-06 130 0.000109144 130 0.000109144L126 0L122 0.000109144Z" fill="#5B41EA"/>
</g>
<g clip-path="url(#clip3_922_20933)">
<path d="M157.5 12V13C157.5 15.4853 159.515 17.5 162 17.5H165H172H174.5H181.5H184H191H194C196.485 17.5 198.5 15.4853 198.5 13V12H157.5Z" fill="#929AFF"/>
<path d="M191 17.5L191.263 46.9043C191.268 47.511 191.762 48 192.369 48C192.971 48 193.463 47.517 193.474 46.9141L194 17.5H191Z" fill="#929AFF"/>
<path d="M163.522 48C164.065 48 164.507 47.5648 164.516 47.0221L165 17.5H162L162.528 47.0236C162.538 47.5657 162.98 48 163.522 48Z" fill="#929AFF"/>
<path d="M172 20.5091H174.5V17.5H172V20.5091Z" fill="#5B41EA"/>
<path d="M157.25 9.50001C156.56 9.5 156 10.0596 156 10.75C156 11.4404 156.56 12 157.25 12H157.5H198.5H198.75C199.44 12 200 11.4403 200 10.75C200 10.0596 199.44 9.49997 198.75 9.49997H185L171 9.50011L157.25 9.50001Z" fill="#929AFF"/>
<path d="M181.5 20.5H184V17.5H181.5V20.5Z" fill="#5B41EA"/>
<path d="M169.002 20.503C168.173 20.5014 167.5 21.1727 167.5 22.0015C167.5 22.8291 168.171 23.5 168.998 23.5H170H173H183H186H187.003C187.83 23.5 188.5 22.8298 188.5 22.003C188.5 21.1775 187.832 20.5077 187.006 20.5061L184 20.5H181.5L174.5 20.5091H172L169.002 20.503Z" fill="#5B41EA"/>
<path d="M183 23.5L183.48 47.0002C183.491 47.5557 183.944 48 184.5 48C185.056 48 185.509 47.5557 185.52 47.0002L186 23.5H183Z" fill="#5B41EA"/>
<path d="M171.5 48C172.056 48 172.509 47.5557 172.52 47.0002L173 23.5H170L170.48 47.0002C170.491 47.5557 170.944 48 171.5 48Z" fill="#5B41EA"/>
<path d="M174 0.000109144C174 0.000109144 169 9.53674e-07 169 5.23636C169 7.59105 169.835 8.78698 171 9.50011L185 9.49997C186.165 8.78685 187 7.59105 187 5.23636C187 1.43051e-06 182 0.000109144 182 0.000109144L178 0L174 0.000109144Z" fill="#5B41EA"/>
</g>
<g clip-path="url(#clip4_922_20933)">
<path d="M209.5 12V13C209.5 15.4853 211.515 17.5 214 17.5H217H224H226.5H233.5H236H243H246C248.485 17.5 250.5 15.4853 250.5 13V12H209.5Z" fill="#929AFF"/>
<path d="M243 17.5L243.263 46.9043C243.268 47.511 243.762 48 244.369 48C244.971 48 245.463 47.517 245.474 46.9141L246 17.5H243Z" fill="#929AFF"/>
<path d="M215.522 48C216.065 48 216.507 47.5648 216.516 47.0221L217 17.5H214L214.528 47.0236C214.538 47.5657 214.98 48 215.522 48Z" fill="#929AFF"/>
<path d="M224 20.5091H226.5V17.5H224V20.5091Z" fill="#5B41EA"/>
<path d="M209.25 9.50001C208.56 9.5 208 10.0596 208 10.75C208 11.4404 208.56 12 209.25 12H209.5H250.5H250.75C251.44 12 252 11.4403 252 10.75C252 10.0596 251.44 9.49997 250.75 9.49997H237L223 9.50011L209.25 9.50001Z" fill="#929AFF"/>
<path d="M233.5 20.5H236V17.5H233.5V20.5Z" fill="#5B41EA"/>
<path d="M221.002 20.503C220.173 20.5014 219.5 21.1727 219.5 22.0015C219.5 22.8291 220.171 23.5 220.998 23.5H222H225H235H238H239.003C239.83 23.5 240.5 22.8298 240.5 22.003C240.5 21.1775 239.832 20.5077 239.006 20.5061L236 20.5H233.5L226.5 20.5091H224L221.002 20.503Z" fill="#5B41EA"/>
<path d="M235 23.5L235.48 47.0002C235.491 47.5557 235.944 48 236.5 48C237.056 48 237.509 47.5557 237.52 47.0002L238 23.5H235Z" fill="#5B41EA"/>
<path d="M223.5 48C224.056 48 224.509 47.5557 224.52 47.0002L225 23.5H222L222.48 47.0002C222.491 47.5557 222.944 48 223.5 48Z" fill="#5B41EA"/>
<path d="M226 0.000109144C226 0.000109144 221 9.53674e-07 221 5.23636C221 7.59105 221.835 8.78698 223 9.50011L237 9.49997C238.165 8.78685 239 7.59105 239 5.23636C239 1.43051e-06 234 0.000109144 234 0.000109144L230 0L226 0.000109144Z" fill="#5B41EA"/>
</g>
<g clip-path="url(#clip5_922_20933)">
<path d="M1.5 68V69C1.5 71.4853 3.51472 73.5 6 73.5H9H16H18.5H25.5H28H35H38C40.4853 73.5 42.5 71.4853 42.5 69V68H1.5Z" fill="#929AFF"/>
<path d="M35 73.5L35.2629 102.904C35.2684 103.511 35.7617 104 36.3685 104C36.9714 104 37.4632 103.517 37.474 102.914L38 73.5H35Z" fill="#929AFF"/>
<path d="M7.522 104C8.06471 104 8.50714 103.565 8.51603 103.022L9 73.5H6L6.528 103.024C6.53769 103.566 6.97987 104 7.522 104Z" fill="#929AFF"/>
<path d="M16 76.5091H18.5V73.5H16V76.5091Z" fill="#5B41EA"/>
<path d="M1.25001 65.5C0.559648 65.5 0 66.0596 0 66.75C0 67.4404 0.559642 68 1.25 68H1.5H42.5H42.75C43.4403 68 44 67.4403 44 66.75C44 66.0596 43.4403 65.5 42.75 65.5H29L15 65.5001L1.25001 65.5Z" fill="#929AFF"/>
<path d="M25.5 76.5H28V73.5H25.5V76.5Z" fill="#5B41EA"/>
<path d="M13.0015 76.503C12.1727 76.5014 11.5 77.1727 11.5 78.0015C11.5 78.8291 12.1709 79.5 12.9985 79.5H14H17H27H30H31.003C31.8298 79.5 32.5 78.8298 32.5 78.003C32.5 77.1775 31.8316 76.5077 31.0061 76.5061L28 76.5H25.5L18.5 76.5091H16L13.0015 76.503Z" fill="#5B41EA"/>
<path d="M27 79.5L27.4796 103C27.4909 103.556 27.9444 104 28.5 104C29.0556 104 29.5091 103.556 29.5204 103L30 79.5H27Z" fill="#5B41EA"/>
<path d="M15.5 104C16.0556 104 16.5091 103.556 16.5204 103L17 79.5H14L14.4796 103C14.4909 103.556 14.9444 104 15.5 104Z" fill="#5B41EA"/>
<path d="M18 56.0001C18 56.0001 13 56 13 61.2364C13 63.591 13.8346 64.787 15 65.5001L29 65.5C30.1654 64.7868 31 63.591 31 61.2364C31 56 26 56.0001 26 56.0001L22 56L18 56.0001Z" fill="#5B41EA"/>
</g>
<g clip-path="url(#clip6_922_20933)">
<path d="M53.5 68V69C53.5 71.4853 55.5147 73.5 58 73.5H61H68H70.5H77.5H80H87H90C92.4853 73.5 94.5 71.4853 94.5 69V68H53.5Z" fill="#929AFF"/>
<path d="M87 73.5L87.2629 102.904C87.2684 103.511 87.7617 104 88.3685 104C88.9714 104 89.4632 103.517 89.474 102.914L90 73.5H87Z" fill="#929AFF"/>
<path d="M59.522 104C60.0647 104 60.5071 103.565 60.516 103.022L61 73.5H58L58.528 103.024C58.5377 103.566 58.9799 104 59.522 104Z" fill="#929AFF"/>
<path d="M68 76.5091H70.5V73.5H68V76.5091Z" fill="#5B41EA"/>
<path d="M53.25 65.5C52.5596 65.5 52 66.0596 52 66.75C52 67.4404 52.5596 68 53.25 68H53.5H94.5H94.75C95.4403 68 96 67.4403 96 66.75C96 66.0596 95.4403 65.5 94.75 65.5H81L67 65.5001L53.25 65.5Z" fill="#929AFF"/>
<path d="M77.5 76.5H80V73.5H77.5V76.5Z" fill="#5B41EA"/>
<path d="M65.0015 76.503C64.1727 76.5014 63.5 77.1727 63.5 78.0015C63.5 78.8291 64.1709 79.5 64.9985 79.5H66H69H79H82H83.003C83.8298 79.5 84.5 78.8298 84.5 78.003C84.5 77.1775 83.8316 76.5077 83.0061 76.5061L80 76.5H77.5L70.5 76.5091H68L65.0015 76.503Z" fill="#5B41EA"/>
<path d="M79 79.5L79.4796 103C79.4909 103.556 79.9444 104 80.5 104C81.0556 104 81.5091 103.556 81.5204 103L82 79.5H79Z" fill="#5B41EA"/>
<path d="M67.5 104C68.0556 104 68.5091 103.556 68.5204 103L69 79.5H66L66.4796 103C66.4909 103.556 66.9444 104 67.5 104Z" fill="#5B41EA"/>
<path d="M70 56.0001C70 56.0001 65 56 65 61.2364C65 63.591 65.8346 64.787 67 65.5001L81 65.5C82.1654 64.7868 83 63.591 83 61.2364C83 56 78 56.0001 78 56.0001L74 56L70 56.0001Z" fill="#5B41EA"/>
</g>
<g clip-path="url(#clip7_922_20933)">
<path d="M105.5 68V69C105.5 71.4853 107.515 73.5 110 73.5H113H120H122.5H129.5H132H139H142C144.485 73.5 146.5 71.4853 146.5 69V68H105.5Z" fill="#929AFF"/>
<path d="M139 73.5L139.263 102.904C139.268 103.511 139.762 104 140.369 104C140.971 104 141.463 103.517 141.474 102.914L142 73.5H139Z" fill="#929AFF"/>
<path d="M111.522 104C112.065 104 112.507 103.565 112.516 103.022L113 73.5H110L110.528 103.024C110.538 103.566 110.98 104 111.522 104Z" fill="#929AFF"/>
<path d="M120 76.5091H122.5V73.5H120V76.5091Z" fill="#5B41EA"/>
<path d="M105.25 65.5C104.56 65.5 104 66.0596 104 66.75C104 67.4404 104.56 68 105.25 68H105.5H146.5H146.75C147.44 68 148 67.4403 148 66.75C148 66.0596 147.44 65.5 146.75 65.5H133L119 65.5001L105.25 65.5Z" fill="#929AFF"/>
<path d="M129.5 76.5H132V73.5H129.5V76.5Z" fill="#5B41EA"/>
<path d="M117.002 76.503C116.173 76.5014 115.5 77.1727 115.5 78.0015C115.5 78.8291 116.171 79.5 116.998 79.5H118H121H131H134H135.003C135.83 79.5 136.5 78.8298 136.5 78.003C136.5 77.1775 135.832 76.5077 135.006 76.5061L132 76.5H129.5L122.5 76.5091H120L117.002 76.503Z" fill="#5B41EA"/>
<path d="M131 79.5L131.48 103C131.491 103.556 131.944 104 132.5 104C133.056 104 133.509 103.556 133.52 103L134 79.5H131Z" fill="#5B41EA"/>
<path d="M119.5 104C120.056 104 120.509 103.556 120.52 103L121 79.5H118L118.48 103C118.491 103.556 118.944 104 119.5 104Z" fill="#5B41EA"/>
<path d="M122 56.0001C122 56.0001 117 56 117 61.2364C117 63.591 117.835 64.787 119 65.5001L133 65.5C134.165 64.7868 135 63.591 135 61.2364C135 56 130 56.0001 130 56.0001L126 56L122 56.0001Z" fill="#5B41EA"/>
</g>
<g clip-path="url(#clip8_922_20933)">
<path d="M157.5 68V69C157.5 71.4853 159.515 73.5 162 73.5H165H172H174.5H181.5H184H191H194C196.485 73.5 198.5 71.4853 198.5 69V68H157.5Z" fill="#929AFF"/>
<path d="M191 73.5L191.263 102.904C191.268 103.511 191.762 104 192.369 104C192.971 104 193.463 103.517 193.474 102.914L194 73.5H191Z" fill="#929AFF"/>
<path d="M163.522 104C164.065 104 164.507 103.565 164.516 103.022L165 73.5H162L162.528 103.024C162.538 103.566 162.98 104 163.522 104Z" fill="#929AFF"/>
<path d="M172 76.5091H174.5V73.5H172V76.5091Z" fill="#5B41EA"/>
<path d="M157.25 65.5C156.56 65.5 156 66.0596 156 66.75C156 67.4404 156.56 68 157.25 68H157.5H198.5H198.75C199.44 68 200 67.4403 200 66.75C200 66.0596 199.44 65.5 198.75 65.5H185L171 65.5001L157.25 65.5Z" fill="#929AFF"/>
<path d="M181.5 76.5H184V73.5H181.5V76.5Z" fill="#5B41EA"/>
<path d="M169.002 76.503C168.173 76.5014 167.5 77.1727 167.5 78.0015C167.5 78.8291 168.171 79.5 168.998 79.5H170H173H183H186H187.003C187.83 79.5 188.5 78.8298 188.5 78.003C188.5 77.1775 187.832 76.5077 187.006 76.5061L184 76.5H181.5L174.5 76.5091H172L169.002 76.503Z" fill="#5B41EA"/>
<path d="M183 79.5L183.48 103C183.491 103.556 183.944 104 184.5 104C185.056 104 185.509 103.556 185.52 103L186 79.5H183Z" fill="#5B41EA"/>
<path d="M171.5 104C172.056 104 172.509 103.556 172.52 103L173 79.5H170L170.48 103C170.491 103.556 170.944 104 171.5 104Z" fill="#5B41EA"/>
<path d="M174 56.0001C174 56.0001 169 56 169 61.2364C169 63.591 169.835 64.787 171 65.5001L185 65.5C186.165 64.7868 187 63.591 187 61.2364C187 56 182 56.0001 182 56.0001L178 56L174 56.0001Z" fill="#5B41EA"/>
</g>
<g clip-path="url(#clip9_922_20933)">
<path d="M209.5 68V69C209.5 71.4853 211.515 73.5 214 73.5H217H224H226.5H233.5H236H243H246C248.485 73.5 250.5 71.4853 250.5 69V68H209.5Z" fill="#929AFF"/>
<path d="M243 73.5L243.263 102.904C243.268 103.511 243.762 104 244.369 104C244.971 104 245.463 103.517 245.474 102.914L246 73.5H243Z" fill="#929AFF"/>
<path d="M215.522 104C216.065 104 216.507 103.565 216.516 103.022L217 73.5H214L214.528 103.024C214.538 103.566 214.98 104 215.522 104Z" fill="#929AFF"/>
<path d="M224 76.5091H226.5V73.5H224V76.5091Z" fill="#5B41EA"/>
<path d="M209.25 65.5C208.56 65.5 208 66.0596 208 66.75C208 67.4404 208.56 68 209.25 68H209.5H250.5H250.75C251.44 68 252 67.4403 252 66.75C252 66.0596 251.44 65.5 250.75 65.5H237L223 65.5001L209.25 65.5Z" fill="#929AFF"/>
<path d="M233.5 76.5H236V73.5H233.5V76.5Z" fill="#5B41EA"/>
<path d="M221.002 76.503C220.173 76.5014 219.5 77.1727 219.5 78.0015C219.5 78.8291 220.171 79.5 220.998 79.5H222H225H235H238H239.003C239.83 79.5 240.5 78.8298 240.5 78.003C240.5 77.1775 239.832 76.5077 239.006 76.5061L236 76.5H233.5L226.5 76.5091H224L221.002 76.503Z" fill="#5B41EA"/>
<path d="M235 79.5L235.48 103C235.491 103.556 235.944 104 236.5 104C237.056 104 237.509 103.556 237.52 103L238 79.5H235Z" fill="#5B41EA"/>
<path d="M223.5 104C224.056 104 224.509 103.556 224.52 103L225 79.5H222L222.48 103C222.491 103.556 222.944 104 223.5 104Z" fill="#5B41EA"/>
<path d="M226 56.0001C226 56.0001 221 56 221 61.2364C221 63.591 221.835 64.787 223 65.5001L237 65.5C238.165 64.7868 239 63.591 239 61.2364C239 56 234 56.0001 234 56.0001L230 56L226 56.0001Z" fill="#5B41EA"/>
</g>
<g clip-path="url(#clip10_922_20933)">
<path d="M1.5 124V125C1.5 127.485 3.51472 129.5 6 129.5H9H16H18.5H25.5H28H35H38C40.4853 129.5 42.5 127.485 42.5 125V124H1.5Z" fill="#929AFF"/>
<path d="M35 129.5L35.2629 158.904C35.2684 159.511 35.7617 160 36.3685 160C36.9714 160 37.4632 159.517 37.474 158.914L38 129.5H35Z" fill="#929AFF"/>
<path d="M7.522 160C8.06471 160 8.50714 159.565 8.51603 159.022L9 129.5H6L6.528 159.024C6.53769 159.566 6.97987 160 7.522 160Z" fill="#929AFF"/>
<path d="M16 132.509H18.5V129.5H16V132.509Z" fill="#5B41EA"/>
<path d="M1.25001 121.5C0.559648 121.5 0 122.06 0 122.75C0 123.44 0.559642 124 1.25 124H1.5H42.5H42.75C43.4403 124 44 123.44 44 122.75C44 122.06 43.4403 121.5 42.75 121.5H29L15 121.5L1.25001 121.5Z" fill="#929AFF"/>
<path d="M25.5 132.5H28V129.5H25.5V132.5Z" fill="#5B41EA"/>
<path d="M13.0015 132.503C12.1727 132.501 11.5 133.173 11.5 134.002C11.5 134.829 12.1709 135.5 12.9985 135.5H14H17H27H30H31.003C31.8298 135.5 32.5 134.83 32.5 134.003C32.5 133.177 31.8316 132.508 31.0061 132.506L28 132.5H25.5L18.5 132.509H16L13.0015 132.503Z" fill="#5B41EA"/>
<path d="M27 135.5L27.4796 159C27.4909 159.556 27.9444 160 28.5 160C29.0556 160 29.5091 159.556 29.5204 159L30 135.5H27Z" fill="#5B41EA"/>
<path d="M15.5 160C16.0556 160 16.5091 159.556 16.5204 159L17 135.5H14L14.4796 159C14.4909 159.556 14.9444 160 15.5 160Z" fill="#5B41EA"/>
<path d="M18 112C18 112 13 112 13 117.236C13 119.591 13.8346 120.787 15 121.5L29 121.5C30.1654 120.787 31 119.591 31 117.236C31 112 26 112 26 112L22 112L18 112Z" fill="#5B41EA"/>
</g>
<g clip-path="url(#clip11_922_20933)">
<path d="M53.5 124V125C53.5 127.485 55.5147 129.5 58 129.5H61H68H70.5H77.5H80H87H90C92.4853 129.5 94.5 127.485 94.5 125V124H53.5Z" fill="#929AFF"/>
<path d="M87 129.5L87.2629 158.904C87.2684 159.511 87.7617 160 88.3685 160C88.9714 160 89.4632 159.517 89.474 158.914L90 129.5H87Z" fill="#929AFF"/>
<path d="M59.522 160C60.0647 160 60.5071 159.565 60.516 159.022L61 129.5H58L58.528 159.024C58.5377 159.566 58.9799 160 59.522 160Z" fill="#929AFF"/>
<path d="M68 132.509H70.5V129.5H68V132.509Z" fill="#5B41EA"/>
<path d="M53.25 121.5C52.5596 121.5 52 122.06 52 122.75C52 123.44 52.5596 124 53.25 124H53.5H94.5H94.75C95.4403 124 96 123.44 96 122.75C96 122.06 95.4403 121.5 94.75 121.5H81L67 121.5L53.25 121.5Z" fill="#929AFF"/>
<path d="M77.5 132.5H80V129.5H77.5V132.5Z" fill="#5B41EA"/>
<path d="M65.0015 132.503C64.1727 132.501 63.5 133.173 63.5 134.002C63.5 134.829 64.1709 135.5 64.9985 135.5H66H69H79H82H83.003C83.8298 135.5 84.5 134.83 84.5 134.003C84.5 133.177 83.8316 132.508 83.0061 132.506L80 132.5H77.5L70.5 132.509H68L65.0015 132.503Z" fill="#5B41EA"/>
<path d="M79 135.5L79.4796 159C79.4909 159.556 79.9444 160 80.5 160C81.0556 160 81.5091 159.556 81.5204 159L82 135.5H79Z" fill="#5B41EA"/>
<path d="M67.5 160C68.0556 160 68.5091 159.556 68.5204 159L69 135.5H66L66.4796 159C66.4909 159.556 66.9444 160 67.5 160Z" fill="#5B41EA"/>
<path d="M70 112C70 112 65 112 65 117.236C65 119.591 65.8346 120.787 67 121.5L81 121.5C82.1654 120.787 83 119.591 83 117.236C83 112 78 112 78 112L74 112L70 112Z" fill="#5B41EA"/>
</g>
<g clip-path="url(#clip12_922_20933)">
<path d="M105.5 124V125C105.5 127.485 107.515 129.5 110 129.5H113H120H122.5H129.5H132H139H142C144.485 129.5 146.5 127.485 146.5 125V124H105.5Z" fill="#929AFF"/>
<path d="M139 129.5L139.263 158.904C139.268 159.511 139.762 160 140.369 160C140.971 160 141.463 159.517 141.474 158.914L142 129.5H139Z" fill="#929AFF"/>
<path d="M111.522 160C112.065 160 112.507 159.565 112.516 159.022L113 129.5H110L110.528 159.024C110.538 159.566 110.98 160 111.522 160Z" fill="#929AFF"/>
<path d="M120 132.509H122.5V129.5H120V132.509Z" fill="#5B41EA"/>
<path d="M105.25 121.5C104.56 121.5 104 122.06 104 122.75C104 123.44 104.56 124 105.25 124H105.5H146.5H146.75C147.44 124 148 123.44 148 122.75C148 122.06 147.44 121.5 146.75 121.5H133L119 121.5L105.25 121.5Z" fill="#929AFF"/>
<path d="M129.5 132.5H132V129.5H129.5V132.5Z" fill="#5B41EA"/>
<path d="M117.002 132.503C116.173 132.501 115.5 133.173 115.5 134.002C115.5 134.829 116.171 135.5 116.998 135.5H118H121H131H134H135.003C135.83 135.5 136.5 134.83 136.5 134.003C136.5 133.177 135.832 132.508 135.006 132.506L132 132.5H129.5L122.5 132.509H120L117.002 132.503Z" fill="#5B41EA"/>
<path d="M131 135.5L131.48 159C131.491 159.556 131.944 160 132.5 160C133.056 160 133.509 159.556 133.52 159L134 135.5H131Z" fill="#5B41EA"/>
<path d="M119.5 160C120.056 160 120.509 159.556 120.52 159L121 135.5H118L118.48 159C118.491 159.556 118.944 160 119.5 160Z" fill="#5B41EA"/>
<path d="M122 112C122 112 117 112 117 117.236C117 119.591 117.835 120.787 119 121.5L133 121.5C134.165 120.787 135 119.591 135 117.236C135 112 130 112 130 112L126 112L122 112Z" fill="#5B41EA"/>
</g>
<g clip-path="url(#clip13_922_20933)">
<path d="M157.5 124V125C157.5 127.485 159.515 129.5 162 129.5H165H172H174.5H181.5H184H191H194C196.485 129.5 198.5 127.485 198.5 125V124H157.5Z" fill="#929AFF"/>
<path d="M191 129.5L191.263 158.904C191.268 159.511 191.762 160 192.369 160C192.971 160 193.463 159.517 193.474 158.914L194 129.5H191Z" fill="#929AFF"/>
<path d="M163.522 160C164.065 160 164.507 159.565 164.516 159.022L165 129.5H162L162.528 159.024C162.538 159.566 162.98 160 163.522 160Z" fill="#929AFF"/>
<path d="M172 132.509H174.5V129.5H172V132.509Z" fill="#5B41EA"/>
<path d="M157.25 121.5C156.56 121.5 156 122.06 156 122.75C156 123.44 156.56 124 157.25 124H157.5H198.5H198.75C199.44 124 200 123.44 200 122.75C200 122.06 199.44 121.5 198.75 121.5H185L171 121.5L157.25 121.5Z" fill="#929AFF"/>
<path d="M181.5 132.5H184V129.5H181.5V132.5Z" fill="#5B41EA"/>
<path d="M169.002 132.503C168.173 132.501 167.5 133.173 167.5 134.002C167.5 134.829 168.171 135.5 168.998 135.5H170H173H183H186H187.003C187.83 135.5 188.5 134.83 188.5 134.003C188.5 133.177 187.832 132.508 187.006 132.506L184 132.5H181.5L174.5 132.509H172L169.002 132.503Z" fill="#5B41EA"/>
<path d="M183 135.5L183.48 159C183.491 159.556 183.944 160 184.5 160C185.056 160 185.509 159.556 185.52 159L186 135.5H183Z" fill="#5B41EA"/>
<path d="M171.5 160C172.056 160 172.509 159.556 172.52 159L173 135.5H170L170.48 159C170.491 159.556 170.944 160 171.5 160Z" fill="#5B41EA"/>
<path d="M174 112C174 112 169 112 169 117.236C169 119.591 169.835 120.787 171 121.5L185 121.5C186.165 120.787 187 119.591 187 117.236C187 112 182 112 182 112L178 112L174 112Z" fill="#5B41EA"/>
</g>
<g clip-path="url(#clip14_922_20933)">
<path d="M209.5 124V125C209.5 127.485 211.515 129.5 214 129.5H217H224H226.5H233.5H236H243H246C248.485 129.5 250.5 127.485 250.5 125V124H209.5Z" fill="#929AFF"/>
<path d="M243 129.5L243.263 158.904C243.268 159.511 243.762 160 244.369 160C244.971 160 245.463 159.517 245.474 158.914L246 129.5H243Z" fill="#929AFF"/>
<path d="M215.522 160C216.065 160 216.507 159.565 216.516 159.022L217 129.5H214L214.528 159.024C214.538 159.566 214.98 160 215.522 160Z" fill="#929AFF"/>
<path d="M224 132.509H226.5V129.5H224V132.509Z" fill="#5B41EA"/>
<path d="M209.25 121.5C208.56 121.5 208 122.06 208 122.75C208 123.44 208.56 124 209.25 124H209.5H250.5H250.75C251.44 124 252 123.44 252 122.75C252 122.06 251.44 121.5 250.75 121.5H237L223 121.5L209.25 121.5Z" fill="#929AFF"/>
<path d="M233.5 132.5H236V129.5H233.5V132.5Z" fill="#5B41EA"/>
<path d="M221.002 132.503C220.173 132.501 219.5 133.173 219.5 134.002C219.5 134.829 220.171 135.5 220.998 135.5H222H225H235H238H239.003C239.83 135.5 240.5 134.83 240.5 134.003C240.5 133.177 239.832 132.508 239.006 132.506L236 132.5H233.5L226.5 132.509H224L221.002 132.503Z" fill="#5B41EA"/>
<path d="M235 135.5L235.48 159C235.491 159.556 235.944 160 236.5 160C237.056 160 237.509 159.556 237.52 159L238 135.5H235Z" fill="#5B41EA"/>
<path d="M223.5 160C224.056 160 224.509 159.556 224.52 159L225 135.5H222L222.48 159C222.491 159.556 222.944 160 223.5 160Z" fill="#5B41EA"/>
<path d="M226 112C226 112 221 112 221 117.236C221 119.591 221.835 120.787 223 121.5L237 121.5C238.165 120.787 239 119.591 239 117.236C239 112 234 112 234 112L230 112L226 112Z" fill="#5B41EA"/>
</g>
<g clip-path="url(#clip15_922_20933)">
<path d="M1.5 180V181C1.5 183.485 3.51472 185.5 6 185.5H9H16H18.5H25.5H28H35H38C40.4853 185.5 42.5 183.485 42.5 181V180H1.5Z" fill="#929AFF"/>
<path d="M35 185.5L35.2629 214.904C35.2684 215.511 35.7617 216 36.3685 216C36.9714 216 37.4632 215.517 37.474 214.914L38 185.5H35Z" fill="#929AFF"/>
<path d="M7.522 216C8.06471 216 8.50714 215.565 8.51603 215.022L9 185.5H6L6.528 215.024C6.53769 215.566 6.97987 216 7.522 216Z" fill="#929AFF"/>
<path d="M16 188.509H18.5V185.5H16V188.509Z" fill="#5B41EA"/>
<path d="M1.25001 177.5C0.559648 177.5 0 178.06 0 178.75C0 179.44 0.559642 180 1.25 180H1.5H42.5H42.75C43.4403 180 44 179.44 44 178.75C44 178.06 43.4403 177.5 42.75 177.5H29L15 177.5L1.25001 177.5Z" fill="#929AFF"/>
<path d="M25.5 188.5H28V185.5H25.5V188.5Z" fill="#5B41EA"/>
<path d="M13.0015 188.503C12.1727 188.501 11.5 189.173 11.5 190.002C11.5 190.829 12.1709 191.5 12.9985 191.5H14H17H27H30H31.003C31.8298 191.5 32.5 190.83 32.5 190.003C32.5 189.177 31.8316 188.508 31.0061 188.506L28 188.5H25.5L18.5 188.509H16L13.0015 188.503Z" fill="#5B41EA"/>
<path d="M27 191.5L27.4796 215C27.4909 215.556 27.9444 216 28.5 216C29.0556 216 29.5091 215.556 29.5204 215L30 191.5H27Z" fill="#5B41EA"/>
<path d="M15.5 216C16.0556 216 16.5091 215.556 16.5204 215L17 191.5H14L14.4796 215C14.4909 215.556 14.9444 216 15.5 216Z" fill="#5B41EA"/>
<path d="M18 168C18 168 13 168 13 173.236C13 175.591 13.8346 176.787 15 177.5L29 177.5C30.1654 176.787 31 175.591 31 173.236C31 168 26 168 26 168L22 168L18 168Z" fill="#5B41EA"/>
</g>
<g clip-path="url(#clip16_922_20933)">
<path d="M53.5 180V181C53.5 183.485 55.5147 185.5 58 185.5H61H68H70.5H77.5H80H87H90C92.4853 185.5 94.5 183.485 94.5 181V180H53.5Z" fill="#929AFF"/>
<path d="M87 185.5L87.2629 214.904C87.2684 215.511 87.7617 216 88.3685 216C88.9714 216 89.4632 215.517 89.474 214.914L90 185.5H87Z" fill="#929AFF"/>
<path d="M59.522 216C60.0647 216 60.5071 215.565 60.516 215.022L61 185.5H58L58.528 215.024C58.5377 215.566 58.9799 216 59.522 216Z" fill="#929AFF"/>
<path d="M68 188.509H70.5V185.5H68V188.509Z" fill="#5B41EA"/>
<path d="M53.25 177.5C52.5596 177.5 52 178.06 52 178.75C52 179.44 52.5596 180 53.25 180H53.5H94.5H94.75C95.4403 180 96 179.44 96 178.75C96 178.06 95.4403 177.5 94.75 177.5H81L67 177.5L53.25 177.5Z" fill="#929AFF"/>
<path d="M77.5 188.5H80V185.5H77.5V188.5Z" fill="#5B41EA"/>
<path d="M65.0015 188.503C64.1727 188.501 63.5 189.173 63.5 190.002C63.5 190.829 64.1709 191.5 64.9985 191.5H66H69H79H82H83.003C83.8298 191.5 84.5 190.83 84.5 190.003C84.5 189.177 83.8316 188.508 83.0061 188.506L80 188.5H77.5L70.5 188.509H68L65.0015 188.503Z" fill="#5B41EA"/>
<path d="M79 191.5L79.4796 215C79.4909 215.556 79.9444 216 80.5 216C81.0556 216 81.5091 215.556 81.5204 215L82 191.5H79Z" fill="#5B41EA"/>
<path d="M67.5 216C68.0556 216 68.5091 215.556 68.5204 215L69 191.5H66L66.4796 215C66.4909 215.556 66.9444 216 67.5 216Z" fill="#5B41EA"/>
<path d="M70 168C70 168 65 168 65 173.236C65 175.591 65.8346 176.787 67 177.5L81 177.5C82.1654 176.787 83 175.591 83 173.236C83 168 78 168 78 168L74 168L70 168Z" fill="#5B41EA"/>
</g>
<g clip-path="url(#clip17_922_20933)">
<path d="M105.5 180V181C105.5 183.485 107.515 185.5 110 185.5H113H120H122.5H129.5H132H139H142C144.485 185.5 146.5 183.485 146.5 181V180H105.5Z" fill="#929AFF"/>
<path d="M139 185.5L139.263 214.904C139.268 215.511 139.762 216 140.369 216C140.971 216 141.463 215.517 141.474 214.914L142 185.5H139Z" fill="#929AFF"/>
<path d="M111.522 216C112.065 216 112.507 215.565 112.516 215.022L113 185.5H110L110.528 215.024C110.538 215.566 110.98 216 111.522 216Z" fill="#929AFF"/>
<path d="M120 188.509H122.5V185.5H120V188.509Z" fill="#5B41EA"/>
<path d="M105.25 177.5C104.56 177.5 104 178.06 104 178.75C104 179.44 104.56 180 105.25 180H105.5H146.5H146.75C147.44 180 148 179.44 148 178.75C148 178.06 147.44 177.5 146.75 177.5H133L119 177.5L105.25 177.5Z" fill="#929AFF"/>
<path d="M129.5 188.5H132V185.5H129.5V188.5Z" fill="#5B41EA"/>
<path d="M117.002 188.503C116.173 188.501 115.5 189.173 115.5 190.002C115.5 190.829 116.171 191.5 116.998 191.5H118H121H131H134H135.003C135.83 191.5 136.5 190.83 136.5 190.003C136.5 189.177 135.832 188.508 135.006 188.506L132 188.5H129.5L122.5 188.509H120L117.002 188.503Z" fill="#5B41EA"/>
<path d="M131 191.5L131.48 215C131.491 215.556 131.944 216 132.5 216C133.056 216 133.509 215.556 133.52 215L134 191.5H131Z" fill="#5B41EA"/>
<path d="M119.5 216C120.056 216 120.509 215.556 120.52 215L121 191.5H118L118.48 215C118.491 215.556 118.944 216 119.5 216Z" fill="#5B41EA"/>
<path d="M122 168C122 168 117 168 117 173.236C117 175.591 117.835 176.787 119 177.5L133 177.5C134.165 176.787 135 175.591 135 173.236C135 168 130 168 130 168L126 168L122 168Z" fill="#5B41EA"/>
</g>
<g clip-path="url(#clip18_922_20933)">
<path d="M157.5 180V181C157.5 183.485 159.515 185.5 162 185.5H165H172H174.5H181.5H184H191H194C196.485 185.5 198.5 183.485 198.5 181V180H157.5Z" fill="#929AFF"/>
<path d="M191 185.5L191.263 214.904C191.268 215.511 191.762 216 192.369 216C192.971 216 193.463 215.517 193.474 214.914L194 185.5H191Z" fill="#929AFF"/>
<path d="M163.522 216C164.065 216 164.507 215.565 164.516 215.022L165 185.5H162L162.528 215.024C162.538 215.566 162.98 216 163.522 216Z" fill="#929AFF"/>
<path d="M172 188.509H174.5V185.5H172V188.509Z" fill="#5B41EA"/>
<path d="M157.25 177.5C156.56 177.5 156 178.06 156 178.75C156 179.44 156.56 180 157.25 180H157.5H198.5H198.75C199.44 180 200 179.44 200 178.75C200 178.06 199.44 177.5 198.75 177.5H185L171 177.5L157.25 177.5Z" fill="#929AFF"/>
<path d="M181.5 188.5H184V185.5H181.5V188.5Z" fill="#5B41EA"/>
<path d="M169.002 188.503C168.173 188.501 167.5 189.173 167.5 190.002C167.5 190.829 168.171 191.5 168.998 191.5H170H173H183H186H187.003C187.83 191.5 188.5 190.83 188.5 190.003C188.5 189.177 187.832 188.508 187.006 188.506L184 188.5H181.5L174.5 188.509H172L169.002 188.503Z" fill="#5B41EA"/>
<path d="M183 191.5L183.48 215C183.491 215.556 183.944 216 184.5 216C185.056 216 185.509 215.556 185.52 215L186 191.5H183Z" fill="#5B41EA"/>
<path d="M171.5 216C172.056 216 172.509 215.556 172.52 215L173 191.5H170L170.48 215C170.491 215.556 170.944 216 171.5 216Z" fill="#5B41EA"/>
<path d="M174 168C174 168 169 168 169 173.236C169 175.591 169.835 176.787 171 177.5L185 177.5C186.165 176.787 187 175.591 187 173.236C187 168 182 168 182 168L178 168L174 168Z" fill="#5B41EA"/>
</g>
<g clip-path="url(#clip19_922_20933)">
<path d="M209.5 180V181C209.5 183.485 211.515 185.5 214 185.5H217H224H226.5H233.5H236H243H246C248.485 185.5 250.5 183.485 250.5 181V180H209.5Z" fill="#929AFF"/>
<path d="M243 185.5L243.263 214.904C243.268 215.511 243.762 216 244.369 216C244.971 216 245.463 215.517 245.474 214.914L246 185.5H243Z" fill="#929AFF"/>
<path d="M215.522 216C216.065 216 216.507 215.565 216.516 215.022L217 185.5H214L214.528 215.024C214.538 215.566 214.98 216 215.522 216Z" fill="#929AFF"/>
<path d="M224 188.509H226.5V185.5H224V188.509Z" fill="#5B41EA"/>
<path d="M209.25 177.5C208.56 177.5 208 178.06 208 178.75C208 179.44 208.56 180 209.25 180H209.5H250.5H250.75C251.44 180 252 179.44 252 178.75C252 178.06 251.44 177.5 250.75 177.5H237L223 177.5L209.25 177.5Z" fill="#929AFF"/>
<path d="M233.5 188.5H236V185.5H233.5V188.5Z" fill="#5B41EA"/>
<path d="M221.002 188.503C220.173 188.501 219.5 189.173 219.5 190.002C219.5 190.829 220.171 191.5 220.998 191.5H222H225H235H238H239.003C239.83 191.5 240.5 190.83 240.5 190.003C240.5 189.177 239.832 188.508 239.006 188.506L236 188.5H233.5L226.5 188.509H224L221.002 188.503Z" fill="#5B41EA"/>
<path d="M235 191.5L235.48 215C235.491 215.556 235.944 216 236.5 216C237.056 216 237.509 215.556 237.52 215L238 191.5H235Z" fill="#5B41EA"/>
<path d="M223.5 216C224.056 216 224.509 215.556 224.52 215L225 191.5H222L222.48 215C222.491 215.556 222.944 216 223.5 216Z" fill="#5B41EA"/>
<path d="M226 168C226 168 221 168 221 173.236C221 175.591 221.835 176.787 223 177.5L237 177.5C238.165 176.787 239 175.591 239 173.236C239 168 234 168 234 168L230 168L226 168Z" fill="#5B41EA"/>
</g>
<g clip-path="url(#clip20_922_20933)">
<path d="M1.5 236V237C1.5 239.485 3.51472 241.5 6 241.5H9H16H18.5H25.5H28H35H38C40.4853 241.5 42.5 239.485 42.5 237V236H1.5Z" fill="#929AFF"/>
<path d="M35 241.5L35.2629 270.904C35.2684 271.511 35.7617 272 36.3685 272C36.9714 272 37.4632 271.517 37.474 270.914L38 241.5H35Z" fill="#929AFF"/>
<path d="M7.522 272C8.06471 272 8.50714 271.565 8.51603 271.022L9 241.5H6L6.528 271.024C6.53769 271.566 6.97987 272 7.522 272Z" fill="#929AFF"/>
<path d="M16 244.509H18.5V241.5H16V244.509Z" fill="#5B41EA"/>
<path d="M1.25001 233.5C0.559648 233.5 0 234.06 0 234.75C0 235.44 0.559642 236 1.25 236H1.5H42.5H42.75C43.4403 236 44 235.44 44 234.75C44 234.06 43.4403 233.5 42.75 233.5H29L15 233.5L1.25001 233.5Z" fill="#929AFF"/>
<path d="M25.5 244.5H28V241.5H25.5V244.5Z" fill="#5B41EA"/>
<path d="M13.0015 244.503C12.1727 244.501 11.5 245.173 11.5 246.002C11.5 246.829 12.1709 247.5 12.9985 247.5H14H17H27H30H31.003C31.8298 247.5 32.5 246.83 32.5 246.003C32.5 245.177 31.8316 244.508 31.0061 244.506L28 244.5H25.5L18.5 244.509H16L13.0015 244.503Z" fill="#5B41EA"/>
<path d="M27 247.5L27.4796 271C27.4909 271.556 27.9444 272 28.5 272C29.0556 272 29.5091 271.556 29.5204 271L30 247.5H27Z" fill="#5B41EA"/>
<path d="M15.5 272C16.0556 272 16.5091 271.556 16.5204 271L17 247.5H14L14.4796 271C14.4909 271.556 14.9444 272 15.5 272Z" fill="#5B41EA"/>
<path d="M18 224C18 224 13 224 13 229.236C13 231.591 13.8346 232.787 15 233.5L29 233.5C30.1654 232.787 31 231.591 31 229.236C31 224 26 224 26 224L22 224L18 224Z" fill="#5B41EA"/>
</g>
<g clip-path="url(#clip21_922_20933)">
<path d="M53.5 236V237C53.5 239.485 55.5147 241.5 58 241.5H61H68H70.5H77.5H80H87H90C92.4853 241.5 94.5 239.485 94.5 237V236H53.5Z" fill="#929AFF"/>
<path d="M87 241.5L87.2629 270.904C87.2684 271.511 87.7617 272 88.3685 272C88.9714 272 89.4632 271.517 89.474 270.914L90 241.5H87Z" fill="#929AFF"/>
<path d="M59.522 272C60.0647 272 60.5071 271.565 60.516 271.022L61 241.5H58L58.528 271.024C58.5377 271.566 58.9799 272 59.522 272Z" fill="#929AFF"/>
<path d="M68 244.509H70.5V241.5H68V244.509Z" fill="#5B41EA"/>
<path d="M53.25 233.5C52.5596 233.5 52 234.06 52 234.75C52 235.44 52.5596 236 53.25 236H53.5H94.5H94.75C95.4403 236 96 235.44 96 234.75C96 234.06 95.4403 233.5 94.75 233.5H81L67 233.5L53.25 233.5Z" fill="#929AFF"/>
<path d="M77.5 244.5H80V241.5H77.5V244.5Z" fill="#5B41EA"/>
<path d="M65.0015 244.503C64.1727 244.501 63.5 245.173 63.5 246.002C63.5 246.829 64.1709 247.5 64.9985 247.5H66H69H79H82H83.003C83.8298 247.5 84.5 246.83 84.5 246.003C84.5 245.177 83.8316 244.508 83.0061 244.506L80 244.5H77.5L70.5 244.509H68L65.0015 244.503Z" fill="#5B41EA"/>
<path d="M79 247.5L79.4796 271C79.4909 271.556 79.9444 272 80.5 272C81.0556 272 81.5091 271.556 81.5204 271L82 247.5H79Z" fill="#5B41EA"/>
<path d="M67.5 272C68.0556 272 68.5091 271.556 68.5204 271L69 247.5H66L66.4796 271C66.4909 271.556 66.9444 272 67.5 272Z" fill="#5B41EA"/>
<path d="M70 224C70 224 65 224 65 229.236C65 231.591 65.8346 232.787 67 233.5L81 233.5C82.1654 232.787 83 231.591 83 229.236C83 224 78 224 78 224L74 224L70 224Z" fill="#5B41EA"/>
</g>
<g clip-path="url(#clip22_922_20933)">
<path d="M105.5 236V237C105.5 239.485 107.515 241.5 110 241.5H113H120H122.5H129.5H132H139H142C144.485 241.5 146.5 239.485 146.5 237V236H105.5Z" fill="#929AFF"/>
<path d="M139 241.5L139.263 270.904C139.268 271.511 139.762 272 140.369 272C140.971 272 141.463 271.517 141.474 270.914L142 241.5H139Z" fill="#929AFF"/>
<path d="M111.522 272C112.065 272 112.507 271.565 112.516 271.022L113 241.5H110L110.528 271.024C110.538 271.566 110.98 272 111.522 272Z" fill="#929AFF"/>
<path d="M120 244.509H122.5V241.5H120V244.509Z" fill="#5B41EA"/>
<path d="M105.25 233.5C104.56 233.5 104 234.06 104 234.75C104 235.44 104.56 236 105.25 236H105.5H146.5H146.75C147.44 236 148 235.44 148 234.75C148 234.06 147.44 233.5 146.75 233.5H133L119 233.5L105.25 233.5Z" fill="#929AFF"/>
<path d="M129.5 244.5H132V241.5H129.5V244.5Z" fill="#5B41EA"/>
<path d="M117.002 244.503C116.173 244.501 115.5 245.173 115.5 246.002C115.5 246.829 116.171 247.5 116.998 247.5H118H121H131H134H135.003C135.83 247.5 136.5 246.83 136.5 246.003C136.5 245.177 135.832 244.508 135.006 244.506L132 244.5H129.5L122.5 244.509H120L117.002 244.503Z" fill="#5B41EA"/>
<path d="M131 247.5L131.48 271C131.491 271.556 131.944 272 132.5 272C133.056 272 133.509 271.556 133.52 271L134 247.5H131Z" fill="#5B41EA"/>
<path d="M119.5 272C120.056 272 120.509 271.556 120.52 271L121 247.5H118L118.48 271C118.491 271.556 118.944 272 119.5 272Z" fill="#5B41EA"/>
<path d="M122 224C122 224 117 224 117 229.236C117 231.591 117.835 232.787 119 233.5L133 233.5C134.165 232.787 135 231.591 135 229.236C135 224 130 224 130 224L126 224L122 224Z" fill="#5B41EA"/>
</g>
<g clip-path="url(#clip23_922_20933)">
<path d="M157.5 236V237C157.5 239.485 159.515 241.5 162 241.5H165H172H174.5H181.5H184H191H194C196.485 241.5 198.5 239.485 198.5 237V236H157.5Z" fill="#929AFF"/>
<path d="M191 241.5L191.263 270.904C191.268 271.511 191.762 272 192.369 272C192.971 272 193.463 271.517 193.474 270.914L194 241.5H191Z" fill="#929AFF"/>
<path d="M163.522 272C164.065 272 164.507 271.565 164.516 271.022L165 241.5H162L162.528 271.024C162.538 271.566 162.98 272 163.522 272Z" fill="#929AFF"/>
<path d="M172 244.509H174.5V241.5H172V244.509Z" fill="#5B41EA"/>
<path d="M157.25 233.5C156.56 233.5 156 234.06 156 234.75C156 235.44 156.56 236 157.25 236H157.5H198.5H198.75C199.44 236 200 235.44 200 234.75C200 234.06 199.44 233.5 198.75 233.5H185L171 233.5L157.25 233.5Z" fill="#929AFF"/>
<path d="M181.5 244.5H184V241.5H181.5V244.5Z" fill="#5B41EA"/>
<path d="M169.002 244.503C168.173 244.501 167.5 245.173 167.5 246.002C167.5 246.829 168.171 247.5 168.998 247.5H170H173H183H186H187.003C187.83 247.5 188.5 246.83 188.5 246.003C188.5 245.177 187.832 244.508 187.006 244.506L184 244.5H181.5L174.5 244.509H172L169.002 244.503Z" fill="#5B41EA"/>
<path d="M183 247.5L183.48 271C183.491 271.556 183.944 272 184.5 272C185.056 272 185.509 271.556 185.52 271L186 247.5H183Z" fill="#5B41EA"/>
<path d="M171.5 272C172.056 272 172.509 271.556 172.52 271L173 247.5H170L170.48 271C170.491 271.556 170.944 272 171.5 272Z" fill="#5B41EA"/>
<path d="M174 224C174 224 169 224 169 229.236C169 231.591 169.835 232.787 171 233.5L185 233.5C186.165 232.787 187 231.591 187 229.236C187 224 182 224 182 224L178 224L174 224Z" fill="#5B41EA"/>
</g>
<g clip-path="url(#clip24_922_20933)">
<path d="M209.5 236V237C209.5 239.485 211.515 241.5 214 241.5H217H224H226.5H233.5H236H243H246C248.485 241.5 250.5 239.485 250.5 237V236H209.5Z" fill="#929AFF"/>
<path d="M243 241.5L243.263 270.904C243.268 271.511 243.762 272 244.369 272C244.971 272 245.463 271.517 245.474 270.914L246 241.5H243Z" fill="#929AFF"/>
<path d="M215.522 272C216.065 272 216.507 271.565 216.516 271.022L217 241.5H214L214.528 271.024C214.538 271.566 214.98 272 215.522 272Z" fill="#929AFF"/>
<path d="M224 244.509H226.5V241.5H224V244.509Z" fill="#5B41EA"/>
<path d="M209.25 233.5C208.56 233.5 208 234.06 208 234.75C208 235.44 208.56 236 209.25 236H209.5H250.5H250.75C251.44 236 252 235.44 252 234.75C252 234.06 251.44 233.5 250.75 233.5H237L223 233.5L209.25 233.5Z" fill="#929AFF"/>
<path d="M233.5 244.5H236V241.5H233.5V244.5Z" fill="#5B41EA"/>
<path d="M221.002 244.503C220.173 244.501 219.5 245.173 219.5 246.002C219.5 246.829 220.171 247.5 220.998 247.5H222H225H235H238H239.003C239.83 247.5 240.5 246.83 240.5 246.003C240.5 245.177 239.832 244.508 239.006 244.506L236 244.5H233.5L226.5 244.509H224L221.002 244.503Z" fill="#5B41EA"/>
<path d="M235 247.5L235.48 271C235.491 271.556 235.944 272 236.5 272C237.056 272 237.509 271.556 237.52 271L238 247.5H235Z" fill="#5B41EA"/>
<path d="M223.5 272C224.056 272 224.509 271.556 224.52 271L225 247.5H222L222.48 271C222.491 271.556 222.944 272 223.5 272Z" fill="#5B41EA"/>
<path d="M226 224C226 224 221 224 221 229.236C221 231.591 221.835 232.787 223 233.5L237 233.5C238.165 232.787 239 231.591 239 229.236C239 224 234 224 234 224L230 224L226 224Z" fill="#5B41EA"/>
</g>
<g clip-path="url(#clip25_922_20933)">
<path d="M1.5 292V293C1.5 295.485 3.51472 297.5 6 297.5H9H16H18.5H25.5H28H35H38C40.4853 297.5 42.5 295.485 42.5 293V292H1.5Z" fill="#929AFF"/>
<path d="M35 297.5L35.2629 326.904C35.2684 327.511 35.7617 328 36.3685 328C36.9714 328 37.4632 327.517 37.474 326.914L38 297.5H35Z" fill="#929AFF"/>
<path d="M7.522 328C8.06471 328 8.50714 327.565 8.51603 327.022L9 297.5H6L6.528 327.024C6.53769 327.566 6.97987 328 7.522 328Z" fill="#929AFF"/>
<path d="M16 300.509H18.5V297.5H16V300.509Z" fill="#5B41EA"/>
<path d="M1.25001 289.5C0.559648 289.5 0 290.06 0 290.75C0 291.44 0.559642 292 1.25 292H1.5H42.5H42.75C43.4403 292 44 291.44 44 290.75C44 290.06 43.4403 289.5 42.75 289.5H29L15 289.5L1.25001 289.5Z" fill="#929AFF"/>
<path d="M25.5 300.5H28V297.5H25.5V300.5Z" fill="#5B41EA"/>
<path d="M13.0015 300.503C12.1727 300.501 11.5 301.173 11.5 302.002C11.5 302.829 12.1709 303.5 12.9985 303.5H14H17H27H30H31.003C31.8298 303.5 32.5 302.83 32.5 302.003C32.5 301.177 31.8316 300.508 31.0061 300.506L28 300.5H25.5L18.5 300.509H16L13.0015 300.503Z" fill="#5B41EA"/>
<path d="M27 303.5L27.4796 327C27.4909 327.556 27.9444 328 28.5 328C29.0556 328 29.5091 327.556 29.5204 327L30 303.5H27Z" fill="#5B41EA"/>
<path d="M15.5 328C16.0556 328 16.5091 327.556 16.5204 327L17 303.5H14L14.4796 327C14.4909 327.556 14.9444 328 15.5 328Z" fill="#5B41EA"/>
<path d="M18 280C18 280 13 280 13 285.236C13 287.591 13.8346 288.787 15 289.5L29 289.5C30.1654 288.787 31 287.591 31 285.236C31 280 26 280 26 280L22 280L18 280Z" fill="#5B41EA"/>
</g>
<g clip-path="url(#clip26_922_20933)">
<path d="M53.5 292V293C53.5 295.485 55.5147 297.5 58 297.5H61H68H70.5H77.5H80H87H90C92.4853 297.5 94.5 295.485 94.5 293V292H53.5Z" fill="#929AFF"/>
<path d="M87 297.5L87.2629 326.904C87.2684 327.511 87.7617 328 88.3685 328C88.9714 328 89.4632 327.517 89.474 326.914L90 297.5H87Z" fill="#929AFF"/>
<path d="M59.522 328C60.0647 328 60.5071 327.565 60.516 327.022L61 297.5H58L58.528 327.024C58.5377 327.566 58.9799 328 59.522 328Z" fill="#929AFF"/>
<path d="M68 300.509H70.5V297.5H68V300.509Z" fill="#5B41EA"/>
<path d="M53.25 289.5C52.5596 289.5 52 290.06 52 290.75C52 291.44 52.5596 292 53.25 292H53.5H94.5H94.75C95.4403 292 96 291.44 96 290.75C96 290.06 95.4403 289.5 94.75 289.5H81L67 289.5L53.25 289.5Z" fill="#929AFF"/>
<path d="M77.5 300.5H80V297.5H77.5V300.5Z" fill="#5B41EA"/>
<path d="M65.0015 300.503C64.1727 300.501 63.5 301.173 63.5 302.002C63.5 302.829 64.1709 303.5 64.9985 303.5H66H69H79H82H83.003C83.8298 303.5 84.5 302.83 84.5 302.003C84.5 301.177 83.8316 300.508 83.0061 300.506L80 300.5H77.5L70.5 300.509H68L65.0015 300.503Z" fill="#5B41EA"/>
<path d="M79 303.5L79.4796 327C79.4909 327.556 79.9444 328 80.5 328C81.0556 328 81.5091 327.556 81.5204 327L82 303.5H79Z" fill="#5B41EA"/>
<path d="M67.5 328C68.0556 328 68.5091 327.556 68.5204 327L69 303.5H66L66.4796 327C66.4909 327.556 66.9444 328 67.5 328Z" fill="#5B41EA"/>
<path d="M70 280C70 280 65 280 65 285.236C65 287.591 65.8346 288.787 67 289.5L81 289.5C82.1654 288.787 83 287.591 83 285.236C83 280 78 280 78 280L74 280L70 280Z" fill="#5B41EA"/>
</g>
<g clip-path="url(#clip27_922_20933)">
<path d="M105.5 292V293C105.5 295.485 107.515 297.5 110 297.5H113H120H122.5H129.5H132H139H142C144.485 297.5 146.5 295.485 146.5 293V292H105.5Z" fill="#929AFF"/>
<path d="M139 297.5L139.263 326.904C139.268 327.511 139.762 328 140.369 328C140.971 328 141.463 327.517 141.474 326.914L142 297.5H139Z" fill="#929AFF"/>
<path d="M111.522 328C112.065 328 112.507 327.565 112.516 327.022L113 297.5H110L110.528 327.024C110.538 327.566 110.98 328 111.522 328Z" fill="#929AFF"/>
<path d="M120 300.509H122.5V297.5H120V300.509Z" fill="#5B41EA"/>
<path d="M105.25 289.5C104.56 289.5 104 290.06 104 290.75C104 291.44 104.56 292 105.25 292H105.5H146.5H146.75C147.44 292 148 291.44 148 290.75C148 290.06 147.44 289.5 146.75 289.5H133L119 289.5L105.25 289.5Z" fill="#929AFF"/>
<path d="M129.5 300.5H132V297.5H129.5V300.5Z" fill="#5B41EA"/>
<path d="M117.002 300.503C116.173 300.501 115.5 301.173 115.5 302.002C115.5 302.829 116.171 303.5 116.998 303.5H118H121H131H134H135.003C135.83 303.5 136.5 302.83 136.5 302.003C136.5 301.177 135.832 300.508 135.006 300.506L132 300.5H129.5L122.5 300.509H120L117.002 300.503Z" fill="#5B41EA"/>
<path d="M131 303.5L131.48 327C131.491 327.556 131.944 328 132.5 328C133.056 328 133.509 327.556 133.52 327L134 303.5H131Z" fill="#5B41EA"/>
<path d="M119.5 328C120.056 328 120.509 327.556 120.52 327L121 303.5H118L118.48 327C118.491 327.556 118.944 328 119.5 328Z" fill="#5B41EA"/>
<path d="M122 280C122 280 117 280 117 285.236C117 287.591 117.835 288.787 119 289.5L133 289.5C134.165 288.787 135 287.591 135 285.236C135 280 130 280 130 280L126 280L122 280Z" fill="#5B41EA"/>
</g>
<g clip-path="url(#clip28_922_20933)">
<path d="M157.5 292V293C157.5 295.485 159.515 297.5 162 297.5H165H172H174.5H181.5H184H191H194C196.485 297.5 198.5 295.485 198.5 293V292H157.5Z" fill="#929AFF"/>
<path d="M191 297.5L191.263 326.904C191.268 327.511 191.762 328 192.369 328C192.971 328 193.463 327.517 193.474 326.914L194 297.5H191Z" fill="#929AFF"/>
<path d="M163.522 328C164.065 328 164.507 327.565 164.516 327.022L165 297.5H162L162.528 327.024C162.538 327.566 162.98 328 163.522 328Z" fill="#929AFF"/>
<path d="M172 300.509H174.5V297.5H172V300.509Z" fill="#5B41EA"/>
<path d="M157.25 289.5C156.56 289.5 156 290.06 156 290.75C156 291.44 156.56 292 157.25 292H157.5H198.5H198.75C199.44 292 200 291.44 200 290.75C200 290.06 199.44 289.5 198.75 289.5H185L171 289.5L157.25 289.5Z" fill="#929AFF"/>
<path d="M181.5 300.5H184V297.5H181.5V300.5Z" fill="#5B41EA"/>
<path d="M169.002 300.503C168.173 300.501 167.5 301.173 167.5 302.002C167.5 302.829 168.171 303.5 168.998 303.5H170H173H183H186H187.003C187.83 303.5 188.5 302.83 188.5 302.003C188.5 301.177 187.832 300.508 187.006 300.506L184 300.5H181.5L174.5 300.509H172L169.002 300.503Z" fill="#5B41EA"/>
<path d="M183 303.5L183.48 327C183.491 327.556 183.944 328 184.5 328C185.056 328 185.509 327.556 185.52 327L186 303.5H183Z" fill="#5B41EA"/>
<path d="M171.5 328C172.056 328 172.509 327.556 172.52 327L173 303.5H170L170.48 327C170.491 327.556 170.944 328 171.5 328Z" fill="#5B41EA"/>
<path d="M174 280C174 280 169 280 169 285.236C169 287.591 169.835 288.787 171 289.5L185 289.5C186.165 288.787 187 287.591 187 285.236C187 280 182 280 182 280L178 280L174 280Z" fill="#5B41EA"/>
</g>
<g clip-path="url(#clip29_922_20933)">
<path d="M209.5 292V293C209.5 295.485 211.515 297.5 214 297.5H217H224H226.5H233.5H236H243H246C248.485 297.5 250.5 295.485 250.5 293V292H209.5Z" fill="#929AFF"/>
<path d="M243 297.5L243.263 326.904C243.268 327.511 243.762 328 244.369 328C244.971 328 245.463 327.517 245.474 326.914L246 297.5H243Z" fill="#929AFF"/>
<path d="M215.522 328C216.065 328 216.507 327.565 216.516 327.022L217 297.5H214L214.528 327.024C214.538 327.566 214.98 328 215.522 328Z" fill="#929AFF"/>
<path d="M224 300.509H226.5V297.5H224V300.509Z" fill="#5B41EA"/>
<path d="M209.25 289.5C208.56 289.5 208 290.06 208 290.75C208 291.44 208.56 292 209.25 292H209.5H250.5H250.75C251.44 292 252 291.44 252 290.75C252 290.06 251.44 289.5 250.75 289.5H237L223 289.5L209.25 289.5Z" fill="#929AFF"/>
<path d="M233.5 300.5H236V297.5H233.5V300.5Z" fill="#5B41EA"/>
<path d="M221.002 300.503C220.173 300.501 219.5 301.173 219.5 302.002C219.5 302.829 220.171 303.5 220.998 303.5H222H225H235H238H239.003C239.83 303.5 240.5 302.83 240.5 302.003C240.5 301.177 239.832 300.508 239.006 300.506L236 300.5H233.5L226.5 300.509H224L221.002 300.503Z" fill="#5B41EA"/>
<path d="M235 303.5L235.48 327C235.491 327.556 235.944 328 236.5 328C237.056 328 237.509 327.556 237.52 327L238 303.5H235Z" fill="#5B41EA"/>
<path d="M223.5 328C224.056 328 224.509 327.556 224.52 327L225 303.5H222L222.48 327C222.491 327.556 222.944 328 223.5 328Z" fill="#5B41EA"/>
<path d="M226 280C226 280 221 280 221 285.236C221 287.591 221.835 288.787 223 289.5L237 289.5C238.165 288.787 239 287.591 239 285.236C239 280 234 280 234 280L230 280L226 280Z" fill="#5B41EA"/>
</g>
<defs>
<clipPath id="clip0_922_20933">
<rect width="44" height="48" fill="white"/>
</clipPath>
<clipPath id="clip1_922_20933">
<rect width="44" height="48" fill="white" transform="translate(52)"/>
</clipPath>
<clipPath id="clip2_922_20933">
<rect width="44" height="48" fill="white" transform="translate(104)"/>
</clipPath>
<clipPath id="clip3_922_20933">
<rect width="44" height="48" fill="white" transform="translate(156)"/>
</clipPath>
<clipPath id="clip4_922_20933">
<rect width="44" height="48" fill="white" transform="translate(208)"/>
</clipPath>
<clipPath id="clip5_922_20933">
<rect width="44" height="48" fill="white" transform="translate(0 56)"/>
</clipPath>
<clipPath id="clip6_922_20933">
<rect width="44" height="48" fill="white" transform="translate(52 56)"/>
</clipPath>
<clipPath id="clip7_922_20933">
<rect width="44" height="48" fill="white" transform="translate(104 56)"/>
</clipPath>
<clipPath id="clip8_922_20933">
<rect width="44" height="48" fill="white" transform="translate(156 56)"/>
</clipPath>
<clipPath id="clip9_922_20933">
<rect width="44" height="48" fill="white" transform="translate(208 56)"/>
</clipPath>
<clipPath id="clip10_922_20933">
<rect width="44" height="48" fill="white" transform="translate(0 112)"/>
</clipPath>
<clipPath id="clip11_922_20933">
<rect width="44" height="48" fill="white" transform="translate(52 112)"/>
</clipPath>
<clipPath id="clip12_922_20933">
<rect width="44" height="48" fill="white" transform="translate(104 112)"/>
</clipPath>
<clipPath id="clip13_922_20933">
<rect width="44" height="48" fill="white" transform="translate(156 112)"/>
</clipPath>
<clipPath id="clip14_922_20933">
<rect width="44" height="48" fill="white" transform="translate(208 112)"/>
</clipPath>
<clipPath id="clip15_922_20933">
<rect width="44" height="48" fill="white" transform="translate(0 168)"/>
</clipPath>
<clipPath id="clip16_922_20933">
<rect width="44" height="48" fill="white" transform="translate(52 168)"/>
</clipPath>
<clipPath id="clip17_922_20933">
<rect width="44" height="48" fill="white" transform="translate(104 168)"/>
</clipPath>
<clipPath id="clip18_922_20933">
<rect width="44" height="48" fill="white" transform="translate(156 168)"/>
</clipPath>
<clipPath id="clip19_922_20933">
<rect width="44" height="48" fill="white" transform="translate(208 168)"/>
</clipPath>
<clipPath id="clip20_922_20933">
<rect width="44" height="48" fill="white" transform="translate(0 224)"/>
</clipPath>
<clipPath id="clip21_922_20933">
<rect width="44" height="48" fill="white" transform="translate(52 224)"/>
</clipPath>
<clipPath id="clip22_922_20933">
<rect width="44" height="48" fill="white" transform="translate(104 224)"/>
</clipPath>
<clipPath id="clip23_922_20933">
<rect width="44" height="48" fill="white" transform="translate(156 224)"/>
</clipPath>
<clipPath id="clip24_922_20933">
<rect width="44" height="48" fill="white" transform="translate(208 224)"/>
</clipPath>
<clipPath id="clip25_922_20933">
<rect width="44" height="48" fill="white" transform="translate(0 280)"/>
</clipPath>
<clipPath id="clip26_922_20933">
<rect width="44" height="48" fill="white" transform="translate(52 280)"/>
</clipPath>
<clipPath id="clip27_922_20933">
<rect width="44" height="48" fill="white" transform="translate(104 280)"/>
</clipPath>
<clipPath id="clip28_922_20933">
<rect width="44" height="48" fill="white" transform="translate(156 280)"/>
</clipPath>
<clipPath id="clip29_922_20933">
<rect width="44" height="48" fill="white" transform="translate(208 280)"/>
</clipPath>
</defs>
</svg>
