<svg width="552" height="122" viewBox="0 0 552 122" fill="none" xmlns="http://www.w3.org/2000/svg">
<path d="M13.6786 18H15.0893C16.6179 18 17.8571 16.7608 17.8571 15.2321V9.64286H18.5383C19.031 9.64286 19.4667 9.3991 19.7315 9.02561C19.9006 8.78712 20 8.49574 20 8.18114C20 7.74934 19.8091 7.33963 19.4784 7.0619L11.8918 0.689135C11.3619 0.244018 10.692 0 10 0C9.30796 0 8.63807 0.244018 8.10817 0.689135L0.521551 7.0619C0.190918 7.33963 0 7.74934 0 8.18114C0 8.49574 0.0993848 8.78712 0.26847 9.02561C0.533274 9.3991 0.969029 9.64286 1.46172 9.64286H2.14286V15.2321C2.14286 16.7608 3.38207 18 4.91071 18H6.32143C7.07096 18 7.67857 17.3924 7.67857 16.6429V13.5357C7.67857 12.2536 8.71791 11.2143 10 11.2143C11.2821 11.2143 12.3214 12.2536 12.3214 13.5357V16.6429C12.3214 17.3924 12.929 18 13.6786 18Z" fill="#AC6DFF"/>
<path d="M41.6786 18H43.0893C44.6179 18 45.8571 16.7608 45.8571 15.2321V9.64286H46.5383C47.031 9.64286 47.4667 9.3991 47.7315 9.02561C47.9006 8.78712 48 8.49574 48 8.18114C48 7.74934 47.8091 7.33963 47.4784 7.0619L39.8918 0.689135C39.3619 0.244018 38.692 0 38 0C37.308 0 36.6381 0.244018 36.1082 0.689135L28.5216 7.0619C28.1909 7.33963 28 7.74934 28 8.18114C28 8.49574 28.0994 8.78712 28.2685 9.02561C28.5333 9.3991 28.969 9.64286 29.4617 9.64286H30.1429V15.2321C30.1429 16.7608 31.3821 18 32.9107 18H34.3214C35.071 18 35.6786 17.3924 35.6786 16.6429V13.5357C35.6786 12.2536 36.7179 11.2143 38 11.2143C39.2821 11.2143 40.3214 12.2536 40.3214 13.5357V16.6429C40.3214 17.3924 40.929 18 41.6786 18Z" fill="#AC6DFF"/>
<path d="M69.6786 18H71.0893C72.6179 18 73.8571 16.7608 73.8571 15.2321V9.64286H74.5383C75.031 9.64286 75.4667 9.3991 75.7315 9.02561C75.9006 8.78712 76 8.49574 76 8.18114C76 7.74934 75.8091 7.33963 75.4784 7.0619L67.8918 0.689135C67.3619 0.244018 66.692 0 66 0C65.308 0 64.6381 0.244018 64.1082 0.689135L56.5216 7.0619C56.1909 7.33963 56 7.74934 56 8.18114C56 8.49574 56.0994 8.78712 56.2685 9.02561C56.5333 9.3991 56.969 9.64286 57.4617 9.64286H58.1429V15.2321C58.1429 16.7608 59.3821 18 60.9107 18H62.3214C63.071 18 63.6786 17.3924 63.6786 16.6429V13.5357C63.6786 12.2536 64.7179 11.2143 66 11.2143C67.2821 11.2143 68.3214 12.2536 68.3214 13.5357V16.6429C68.3214 17.3924 68.929 18 69.6786 18Z" fill="#AC6DFF"/>
<path d="M97.6786 18H99.0893C100.618 18 101.857 16.7608 101.857 15.2321V9.64286H102.538C103.031 9.64286 103.467 9.3991 103.732 9.02561C103.901 8.78712 104 8.49574 104 8.18114C104 7.74934 103.809 7.33963 103.478 7.0619L95.8918 0.689135C95.3619 0.244018 94.692 0 94 0C93.308 0 92.6381 0.244018 92.1082 0.689135L84.5216 7.0619C84.1909 7.33963 84 7.74934 84 8.18114C84 8.49574 84.0994 8.78712 84.2685 9.02561C84.5333 9.3991 84.969 9.64286 85.4617 9.64286H86.1429V15.2321C86.1429 16.7608 87.3821 18 88.9107 18H90.3214C91.071 18 91.6786 17.3924 91.6786 16.6429V13.5357C91.6786 12.2536 92.7179 11.2143 94 11.2143C95.2821 11.2143 96.3214 12.2536 96.3214 13.5357V16.6429C96.3214 17.3924 96.929 18 97.6786 18Z" fill="#AC6DFF"/>
<path d="M125.679 18H127.089C128.618 18 129.857 16.7608 129.857 15.2321V9.64286H130.538C131.031 9.64286 131.467 9.3991 131.732 9.02561C131.901 8.78712 132 8.49574 132 8.18114C132 7.74934 131.809 7.33963 131.478 7.0619L123.892 0.689135C123.362 0.244018 122.692 0 122 0C121.308 0 120.638 0.244018 120.108 0.689135L112.522 7.0619C112.191 7.33963 112 7.74934 112 8.18114C112 8.49574 112.099 8.78712 112.268 9.02561C112.533 9.3991 112.969 9.64286 113.462 9.64286H114.143V15.2321C114.143 16.7608 115.382 18 116.911 18H118.321C119.071 18 119.679 17.3924 119.679 16.6429V13.5357C119.679 12.2536 120.718 11.2143 122 11.2143C123.282 11.2143 124.321 12.2536 124.321 13.5357V16.6429C124.321 17.3924 124.929 18 125.679 18Z" fill="#AC6DFF"/>
<path d="M153.679 18H155.089C156.618 18 157.857 16.7608 157.857 15.2321V9.64286H158.538C159.031 9.64286 159.467 9.3991 159.732 9.02561C159.901 8.78712 160 8.49574 160 8.18114C160 7.74934 159.809 7.33963 159.478 7.0619L151.892 0.689135C151.362 0.244018 150.692 0 150 0C149.308 0 148.638 0.244018 148.108 0.689135L140.522 7.0619C140.191 7.33963 140 7.74934 140 8.18114C140 8.49574 140.099 8.78712 140.268 9.02561C140.533 9.3991 140.969 9.64286 141.462 9.64286H142.143V15.2321C142.143 16.7608 143.382 18 144.911 18H146.321C147.071 18 147.679 17.3924 147.679 16.6429V13.5357C147.679 12.2536 148.718 11.2143 150 11.2143C151.282 11.2143 152.321 12.2536 152.321 13.5357V16.6429C152.321 17.3924 152.929 18 153.679 18Z" fill="#AC6DFF"/>
<path d="M181.679 18H183.089C184.618 18 185.857 16.7608 185.857 15.2321V9.64286H186.538C187.031 9.64286 187.467 9.3991 187.732 9.02561C187.901 8.78712 188 8.49574 188 8.18114C188 7.74934 187.809 7.33963 187.478 7.0619L179.892 0.689135C179.362 0.244018 178.692 0 178 0C177.308 0 176.638 0.244018 176.108 0.689135L168.522 7.0619C168.191 7.33963 168 7.74934 168 8.18114C168 8.49574 168.099 8.78712 168.268 9.02561C168.533 9.3991 168.969 9.64286 169.462 9.64286H170.143V15.2321C170.143 16.7608 171.382 18 172.911 18H174.321C175.071 18 175.679 17.3924 175.679 16.6429V13.5357C175.679 12.2536 176.718 11.2143 178 11.2143C179.282 11.2143 180.321 12.2536 180.321 13.5357V16.6429C180.321 17.3924 180.929 18 181.679 18Z" fill="#AC6DFF"/>
<path d="M209.679 18H211.089C212.618 18 213.857 16.7608 213.857 15.2321V9.64286H214.538C215.031 9.64286 215.467 9.3991 215.732 9.02561C215.901 8.78712 216 8.49574 216 8.18114C216 7.74934 215.809 7.33963 215.478 7.0619L207.892 0.689135C207.362 0.244018 206.692 0 206 0C205.308 0 204.638 0.244018 204.108 0.689135L196.522 7.0619C196.191 7.33963 196 7.74934 196 8.18114C196 8.49574 196.099 8.78712 196.268 9.02561C196.533 9.3991 196.969 9.64286 197.462 9.64286H198.143V15.2321C198.143 16.7608 199.382 18 200.911 18H202.321C203.071 18 203.679 17.3924 203.679 16.6429V13.5357C203.679 12.2536 204.718 11.2143 206 11.2143C207.282 11.2143 208.321 12.2536 208.321 13.5357V16.6429C208.321 17.3924 208.929 18 209.679 18Z" fill="#AC6DFF"/>
<path d="M237.679 18H239.089C240.618 18 241.857 16.7608 241.857 15.2321V9.64286H242.538C243.031 9.64286 243.467 9.3991 243.732 9.02561C243.901 8.78712 244 8.49574 244 8.18114C244 7.74934 243.809 7.33963 243.478 7.0619L235.892 0.689135C235.362 0.244018 234.692 0 234 0C233.308 0 232.638 0.244018 232.108 0.689135L224.522 7.0619C224.191 7.33963 224 7.74934 224 8.18114C224 8.49574 224.099 8.78712 224.268 9.02561C224.533 9.3991 224.969 9.64286 225.462 9.64286H226.143V15.2321C226.143 16.7608 227.382 18 228.911 18H230.321C231.071 18 231.679 17.3924 231.679 16.6429V13.5357C231.679 12.2536 232.718 11.2143 234 11.2143C235.282 11.2143 236.321 12.2536 236.321 13.5357V16.6429C236.321 17.3924 236.929 18 237.679 18Z" fill="#AC6DFF"/>
<path d="M265.679 18H267.089C268.618 18 269.857 16.7608 269.857 15.2321V9.64286H270.538C271.031 9.64286 271.467 9.3991 271.732 9.02561C271.901 8.78712 272 8.49574 272 8.18114C272 7.74934 271.809 7.33963 271.478 7.0619L263.892 0.689135C263.362 0.244018 262.692 0 262 0C261.308 0 260.638 0.244018 260.108 0.689135L252.522 7.0619C252.191 7.33963 252 7.74934 252 8.18114C252 8.49574 252.099 8.78712 252.268 9.02561C252.533 9.3991 252.969 9.64286 253.462 9.64286H254.143V15.2321C254.143 16.7608 255.382 18 256.911 18H258.321C259.071 18 259.679 17.3924 259.679 16.6429V13.5357C259.679 12.2536 260.718 11.2143 262 11.2143C263.282 11.2143 264.321 12.2536 264.321 13.5357V16.6429C264.321 17.3924 264.929 18 265.679 18Z" fill="#AC6DFF"/>
<path d="M293.679 18H295.089C296.618 18 297.857 16.7608 297.857 15.2321V9.64286H298.538C299.031 9.64286 299.467 9.3991 299.732 9.02561C299.901 8.78712 300 8.49574 300 8.18114C300 7.74934 299.809 7.33963 299.478 7.0619L291.892 0.689135C291.362 0.244018 290.692 0 290 0C289.308 0 288.638 0.244018 288.108 0.689135L280.522 7.0619C280.191 7.33963 280 7.74934 280 8.18114C280 8.49574 280.099 8.78712 280.268 9.02561C280.533 9.3991 280.969 9.64286 281.462 9.64286H282.143V15.2321C282.143 16.7608 283.382 18 284.911 18H286.321C287.071 18 287.679 17.3924 287.679 16.6429V13.5357C287.679 12.2536 288.718 11.2143 290 11.2143C291.282 11.2143 292.321 12.2536 292.321 13.5357V16.6429C292.321 17.3924 292.929 18 293.679 18Z" fill="#AC6DFF"/>
<path d="M321.679 18H323.089C324.618 18 325.857 16.7608 325.857 15.2321V9.64286H326.538C327.031 9.64286 327.467 9.3991 327.732 9.02561C327.901 8.78712 328 8.49574 328 8.18114C328 7.74934 327.809 7.33963 327.478 7.0619L319.892 0.689135C319.362 0.244018 318.692 0 318 0C317.308 0 316.638 0.244018 316.108 0.689135L308.522 7.0619C308.191 7.33963 308 7.74934 308 8.18114C308 8.49574 308.099 8.78712 308.268 9.02561C308.533 9.3991 308.969 9.64286 309.462 9.64286H310.143V15.2321C310.143 16.7608 311.382 18 312.911 18H314.321C315.071 18 315.679 17.3924 315.679 16.6429V13.5357C315.679 12.2536 316.718 11.2143 318 11.2143C319.282 11.2143 320.321 12.2536 320.321 13.5357V16.6429C320.321 17.3924 320.929 18 321.679 18Z" fill="#AC6DFF"/>
<path d="M349.679 18H351.089C352.618 18 353.857 16.7608 353.857 15.2321V9.64286H354.538C355.031 9.64286 355.467 9.3991 355.732 9.02561C355.901 8.78712 356 8.49574 356 8.18114C356 7.74934 355.809 7.33963 355.478 7.0619L347.892 0.689135C347.362 0.244018 346.692 0 346 0C345.308 0 344.638 0.244018 344.108 0.689135L336.522 7.0619C336.191 7.33963 336 7.74934 336 8.18114C336 8.49574 336.099 8.78712 336.268 9.02561C336.533 9.3991 336.969 9.64286 337.462 9.64286H338.143V15.2321C338.143 16.7608 339.382 18 340.911 18H342.321C343.071 18 343.679 17.3924 343.679 16.6429V13.5357C343.679 12.2536 344.718 11.2143 346 11.2143C347.282 11.2143 348.321 12.2536 348.321 13.5357V16.6429C348.321 17.3924 348.929 18 349.679 18Z" fill="#AC6DFF"/>
<path d="M377.679 18H379.089C380.618 18 381.857 16.7608 381.857 15.2321V9.64286H382.538C383.031 9.64286 383.467 9.3991 383.732 9.02561C383.901 8.78712 384 8.49574 384 8.18114C384 7.74934 383.809 7.33963 383.478 7.0619L375.892 0.689135C375.362 0.244018 374.692 0 374 0C373.308 0 372.638 0.244018 372.108 0.689135L364.522 7.0619C364.191 7.33963 364 7.74934 364 8.18114C364 8.49574 364.099 8.78712 364.268 9.02561C364.533 9.3991 364.969 9.64286 365.462 9.64286H366.143V15.2321C366.143 16.7608 367.382 18 368.911 18H370.321C371.071 18 371.679 17.3924 371.679 16.6429V13.5357C371.679 12.2536 372.718 11.2143 374 11.2143C375.282 11.2143 376.321 12.2536 376.321 13.5357V16.6429C376.321 17.3924 376.929 18 377.679 18Z" fill="#AC6DFF"/>
<path d="M405.679 18H407.089C408.618 18 409.857 16.7608 409.857 15.2321V9.64286H410.538C411.031 9.64286 411.467 9.3991 411.732 9.02561C411.901 8.78712 412 8.49574 412 8.18114C412 7.74934 411.809 7.33963 411.478 7.0619L403.892 0.689135C403.362 0.244018 402.692 0 402 0C401.308 0 400.638 0.244018 400.108 0.689135L392.522 7.0619C392.191 7.33963 392 7.74934 392 8.18114C392 8.49574 392.099 8.78712 392.268 9.02561C392.533 9.3991 392.969 9.64286 393.462 9.64286H394.143V15.2321C394.143 16.7608 395.382 18 396.911 18H398.321C399.071 18 399.679 17.3924 399.679 16.6429V13.5357C399.679 12.2536 400.718 11.2143 402 11.2143C403.282 11.2143 404.321 12.2536 404.321 13.5357V16.6429C404.321 17.3924 404.929 18 405.679 18Z" fill="#AC6DFF"/>
<path d="M433.679 18H435.089C436.618 18 437.857 16.7608 437.857 15.2321V9.64286H438.538C439.031 9.64286 439.467 9.3991 439.732 9.02561C439.901 8.78712 440 8.49574 440 8.18114C440 7.74934 439.809 7.33963 439.478 7.0619L431.892 0.689135C431.362 0.244018 430.692 0 430 0C429.308 0 428.638 0.244018 428.108 0.689135L420.522 7.0619C420.191 7.33963 420 7.74934 420 8.18114C420 8.49574 420.099 8.78712 420.268 9.02561C420.533 9.3991 420.969 9.64286 421.462 9.64286H422.143V15.2321C422.143 16.7608 423.382 18 424.911 18H426.321C427.071 18 427.679 17.3924 427.679 16.6429V13.5357C427.679 12.2536 428.718 11.2143 430 11.2143C431.282 11.2143 432.321 12.2536 432.321 13.5357V16.6429C432.321 17.3924 432.929 18 433.679 18Z" fill="#AC6DFF"/>
<path d="M461.679 18H463.089C464.618 18 465.857 16.7608 465.857 15.2321V9.64286H466.538C467.031 9.64286 467.467 9.3991 467.732 9.02561C467.901 8.78712 468 8.49574 468 8.18114C468 7.74934 467.809 7.33963 467.478 7.0619L459.892 0.689135C459.362 0.244018 458.692 0 458 0C457.308 0 456.638 0.244018 456.108 0.689135L448.522 7.0619C448.191 7.33963 448 7.74934 448 8.18114C448 8.49574 448.099 8.78712 448.268 9.02561C448.533 9.3991 448.969 9.64286 449.462 9.64286H450.143V15.2321C450.143 16.7608 451.382 18 452.911 18H454.321C455.071 18 455.679 17.3924 455.679 16.6429V13.5357C455.679 12.2536 456.718 11.2143 458 11.2143C459.282 11.2143 460.321 12.2536 460.321 13.5357V16.6429C460.321 17.3924 460.929 18 461.679 18Z" fill="#AC6DFF"/>
<path d="M489.679 18H491.089C492.618 18 493.857 16.7608 493.857 15.2321V9.64286H494.538C495.031 9.64286 495.467 9.3991 495.732 9.02561C495.901 8.78712 496 8.49574 496 8.18114C496 7.74934 495.809 7.33963 495.478 7.0619L487.892 0.689135C487.362 0.244018 486.692 0 486 0C485.308 0 484.638 0.244018 484.108 0.689135L476.522 7.0619C476.191 7.33963 476 7.74934 476 8.18114C476 8.49574 476.099 8.78712 476.268 9.02561C476.533 9.3991 476.969 9.64286 477.462 9.64286H478.143V15.2321C478.143 16.7608 479.382 18 480.911 18H482.321C483.071 18 483.679 17.3924 483.679 16.6429V13.5357C483.679 12.2536 484.718 11.2143 486 11.2143C487.282 11.2143 488.321 12.2536 488.321 13.5357V16.6429C488.321 17.3924 488.929 18 489.679 18Z" fill="#AC6DFF"/>
<path d="M517.679 18H519.089C520.618 18 521.857 16.7608 521.857 15.2321V9.64286H522.538C523.031 9.64286 523.467 9.3991 523.732 9.02561C523.901 8.78712 524 8.49574 524 8.18114C524 7.74934 523.809 7.33963 523.478 7.0619L515.892 0.689135C515.362 0.244018 514.692 0 514 0C513.308 0 512.638 0.244018 512.108 0.689135L504.522 7.0619C504.191 7.33963 504 7.74934 504 8.18114C504 8.49574 504.099 8.78712 504.268 9.02561C504.533 9.3991 504.969 9.64286 505.462 9.64286H506.143V15.2321C506.143 16.7608 507.382 18 508.911 18H510.321C511.071 18 511.679 17.3924 511.679 16.6429V13.5357C511.679 12.2536 512.718 11.2143 514 11.2143C515.282 11.2143 516.321 12.2536 516.321 13.5357V16.6429C516.321 17.3924 516.929 18 517.679 18Z" fill="#AC6DFF"/>
<path d="M545.679 18H547.089C548.618 18 549.857 16.7608 549.857 15.2321V9.64286H550.538C551.031 9.64286 551.467 9.3991 551.732 9.02561C551.901 8.78712 552 8.49574 552 8.18114C552 7.74934 551.809 7.33963 551.478 7.0619L543.892 0.689135C543.362 0.244018 542.692 0 542 0C541.308 0 540.638 0.244018 540.108 0.689135L532.522 7.0619C532.191 7.33963 532 7.74934 532 8.18114C532 8.49574 532.099 8.78712 532.268 9.02561C532.533 9.3991 532.969 9.64286 533.462 9.64286H534.143V15.2321C534.143 16.7608 535.382 18 536.911 18H538.321C539.071 18 539.679 17.3924 539.679 16.6429V13.5357C539.679 12.2536 540.718 11.2143 542 11.2143C543.282 11.2143 544.321 12.2536 544.321 13.5357V16.6429C544.321 17.3924 544.929 18 545.679 18Z" fill="#AC6DFF"/>
<path d="M13.6786 44H15.0893C16.6179 44 17.8571 42.7608 17.8571 41.2321V35.6429H18.5383C19.031 35.6429 19.4667 35.3991 19.7315 35.0256C19.9006 34.7871 20 34.4957 20 34.1811C20 33.7493 19.8091 33.3396 19.4784 33.0619L11.8918 26.6891C11.3619 26.244 10.692 26 10 26C9.30796 26 8.63807 26.244 8.10817 26.6891L0.521551 33.0619C0.190918 33.3396 0 33.7493 0 34.1811C0 34.4957 0.0993848 34.7871 0.26847 35.0256C0.533274 35.3991 0.969029 35.6429 1.46172 35.6429H2.14286V41.2321C2.14286 42.7608 3.38207 44 4.91071 44H6.32143C7.07096 44 7.67857 43.3924 7.67857 42.6429V39.5357C7.67857 38.2536 8.71791 37.2143 10 37.2143C11.2821 37.2143 12.3214 38.2536 12.3214 39.5357V42.6429C12.3214 43.3924 12.929 44 13.6786 44Z" fill="#AC6DFF"/>
<path d="M41.6786 44H43.0893C44.6179 44 45.8571 42.7608 45.8571 41.2321V35.6429H46.5383C47.031 35.6429 47.4667 35.3991 47.7315 35.0256C47.9006 34.7871 48 34.4957 48 34.1811C48 33.7493 47.8091 33.3396 47.4784 33.0619L39.8918 26.6891C39.3619 26.244 38.692 26 38 26C37.308 26 36.6381 26.244 36.1082 26.6891L28.5216 33.0619C28.1909 33.3396 28 33.7493 28 34.1811C28 34.4957 28.0994 34.7871 28.2685 35.0256C28.5333 35.3991 28.969 35.6429 29.4617 35.6429H30.1429V41.2321C30.1429 42.7608 31.3821 44 32.9107 44H34.3214C35.071 44 35.6786 43.3924 35.6786 42.6429V39.5357C35.6786 38.2536 36.7179 37.2143 38 37.2143C39.2821 37.2143 40.3214 38.2536 40.3214 39.5357V42.6429C40.3214 43.3924 40.929 44 41.6786 44Z" fill="#AC6DFF"/>
<path d="M69.6786 44H71.0893C72.6179 44 73.8571 42.7608 73.8571 41.2321V35.6429H74.5383C75.031 35.6429 75.4667 35.3991 75.7315 35.0256C75.9006 34.7871 76 34.4957 76 34.1811C76 33.7493 75.8091 33.3396 75.4784 33.0619L67.8918 26.6891C67.3619 26.244 66.692 26 66 26C65.308 26 64.6381 26.244 64.1082 26.6891L56.5216 33.0619C56.1909 33.3396 56 33.7493 56 34.1811C56 34.4957 56.0994 34.7871 56.2685 35.0256C56.5333 35.3991 56.969 35.6429 57.4617 35.6429H58.1429V41.2321C58.1429 42.7608 59.3821 44 60.9107 44H62.3214C63.071 44 63.6786 43.3924 63.6786 42.6429V39.5357C63.6786 38.2536 64.7179 37.2143 66 37.2143C67.2821 37.2143 68.3214 38.2536 68.3214 39.5357V42.6429C68.3214 43.3924 68.929 44 69.6786 44Z" fill="#AC6DFF"/>
<path d="M97.6786 44H99.0893C100.618 44 101.857 42.7608 101.857 41.2321V35.6429H102.538C103.031 35.6429 103.467 35.3991 103.732 35.0256C103.901 34.7871 104 34.4957 104 34.1811C104 33.7493 103.809 33.3396 103.478 33.0619L95.8918 26.6891C95.3619 26.244 94.692 26 94 26C93.308 26 92.6381 26.244 92.1082 26.6891L84.5216 33.0619C84.1909 33.3396 84 33.7493 84 34.1811C84 34.4957 84.0994 34.7871 84.2685 35.0256C84.5333 35.3991 84.969 35.6429 85.4617 35.6429H86.1429V41.2321C86.1429 42.7608 87.3821 44 88.9107 44H90.3214C91.071 44 91.6786 43.3924 91.6786 42.6429V39.5357C91.6786 38.2536 92.7179 37.2143 94 37.2143C95.2821 37.2143 96.3214 38.2536 96.3214 39.5357V42.6429C96.3214 43.3924 96.929 44 97.6786 44Z" fill="#AC6DFF"/>
<path d="M125.679 44H127.089C128.618 44 129.857 42.7608 129.857 41.2321V35.6429H130.538C131.031 35.6429 131.467 35.3991 131.732 35.0256C131.901 34.7871 132 34.4957 132 34.1811C132 33.7493 131.809 33.3396 131.478 33.0619L123.892 26.6891C123.362 26.244 122.692 26 122 26C121.308 26 120.638 26.244 120.108 26.6891L112.522 33.0619C112.191 33.3396 112 33.7493 112 34.1811C112 34.4957 112.099 34.7871 112.268 35.0256C112.533 35.3991 112.969 35.6429 113.462 35.6429H114.143V41.2321C114.143 42.7608 115.382 44 116.911 44H118.321C119.071 44 119.679 43.3924 119.679 42.6429V39.5357C119.679 38.2536 120.718 37.2143 122 37.2143C123.282 37.2143 124.321 38.2536 124.321 39.5357V42.6429C124.321 43.3924 124.929 44 125.679 44Z" fill="#AC6DFF"/>
<path d="M153.679 44H155.089C156.618 44 157.857 42.7608 157.857 41.2321V35.6429H158.538C159.031 35.6429 159.467 35.3991 159.732 35.0256C159.901 34.7871 160 34.4957 160 34.1811C160 33.7493 159.809 33.3396 159.478 33.0619L151.892 26.6891C151.362 26.244 150.692 26 150 26C149.308 26 148.638 26.244 148.108 26.6891L140.522 33.0619C140.191 33.3396 140 33.7493 140 34.1811C140 34.4957 140.099 34.7871 140.268 35.0256C140.533 35.3991 140.969 35.6429 141.462 35.6429H142.143V41.2321C142.143 42.7608 143.382 44 144.911 44H146.321C147.071 44 147.679 43.3924 147.679 42.6429V39.5357C147.679 38.2536 148.718 37.2143 150 37.2143C151.282 37.2143 152.321 38.2536 152.321 39.5357V42.6429C152.321 43.3924 152.929 44 153.679 44Z" fill="#AC6DFF"/>
<path d="M181.679 44H183.089C184.618 44 185.857 42.7608 185.857 41.2321V35.6429H186.538C187.031 35.6429 187.467 35.3991 187.732 35.0256C187.901 34.7871 188 34.4957 188 34.1811C188 33.7493 187.809 33.3396 187.478 33.0619L179.892 26.6891C179.362 26.244 178.692 26 178 26C177.308 26 176.638 26.244 176.108 26.6891L168.522 33.0619C168.191 33.3396 168 33.7493 168 34.1811C168 34.4957 168.099 34.7871 168.268 35.0256C168.533 35.3991 168.969 35.6429 169.462 35.6429H170.143V41.2321C170.143 42.7608 171.382 44 172.911 44H174.321C175.071 44 175.679 43.3924 175.679 42.6429V39.5357C175.679 38.2536 176.718 37.2143 178 37.2143C179.282 37.2143 180.321 38.2536 180.321 39.5357V42.6429C180.321 43.3924 180.929 44 181.679 44Z" fill="#AC6DFF"/>
<path d="M209.679 44H211.089C212.618 44 213.857 42.7608 213.857 41.2321V35.6429H214.538C215.031 35.6429 215.467 35.3991 215.732 35.0256C215.901 34.7871 216 34.4957 216 34.1811C216 33.7493 215.809 33.3396 215.478 33.0619L207.892 26.6891C207.362 26.244 206.692 26 206 26C205.308 26 204.638 26.244 204.108 26.6891L196.522 33.0619C196.191 33.3396 196 33.7493 196 34.1811C196 34.4957 196.099 34.7871 196.268 35.0256C196.533 35.3991 196.969 35.6429 197.462 35.6429H198.143V41.2321C198.143 42.7608 199.382 44 200.911 44H202.321C203.071 44 203.679 43.3924 203.679 42.6429V39.5357C203.679 38.2536 204.718 37.2143 206 37.2143C207.282 37.2143 208.321 38.2536 208.321 39.5357V42.6429C208.321 43.3924 208.929 44 209.679 44Z" fill="#AC6DFF"/>
<path d="M237.679 44H239.089C240.618 44 241.857 42.7608 241.857 41.2321V35.6429H242.538C243.031 35.6429 243.467 35.3991 243.732 35.0256C243.901 34.7871 244 34.4957 244 34.1811C244 33.7493 243.809 33.3396 243.478 33.0619L235.892 26.6891C235.362 26.244 234.692 26 234 26C233.308 26 232.638 26.244 232.108 26.6891L224.522 33.0619C224.191 33.3396 224 33.7493 224 34.1811C224 34.4957 224.099 34.7871 224.268 35.0256C224.533 35.3991 224.969 35.6429 225.462 35.6429H226.143V41.2321C226.143 42.7608 227.382 44 228.911 44H230.321C231.071 44 231.679 43.3924 231.679 42.6429V39.5357C231.679 38.2536 232.718 37.2143 234 37.2143C235.282 37.2143 236.321 38.2536 236.321 39.5357V42.6429C236.321 43.3924 236.929 44 237.679 44Z" fill="#AC6DFF"/>
<path d="M265.679 44H267.089C268.618 44 269.857 42.7608 269.857 41.2321V35.6429H270.538C271.031 35.6429 271.467 35.3991 271.732 35.0256C271.901 34.7871 272 34.4957 272 34.1811C272 33.7493 271.809 33.3396 271.478 33.0619L263.892 26.6891C263.362 26.244 262.692 26 262 26C261.308 26 260.638 26.244 260.108 26.6891L252.522 33.0619C252.191 33.3396 252 33.7493 252 34.1811C252 34.4957 252.099 34.7871 252.268 35.0256C252.533 35.3991 252.969 35.6429 253.462 35.6429H254.143V41.2321C254.143 42.7608 255.382 44 256.911 44H258.321C259.071 44 259.679 43.3924 259.679 42.6429V39.5357C259.679 38.2536 260.718 37.2143 262 37.2143C263.282 37.2143 264.321 38.2536 264.321 39.5357V42.6429C264.321 43.3924 264.929 44 265.679 44Z" fill="#AC6DFF"/>
<path d="M293.679 44H295.089C296.618 44 297.857 42.7608 297.857 41.2321V35.6429H298.538C299.031 35.6429 299.467 35.3991 299.732 35.0256C299.901 34.7871 300 34.4957 300 34.1811C300 33.7493 299.809 33.3396 299.478 33.0619L291.892 26.6891C291.362 26.244 290.692 26 290 26C289.308 26 288.638 26.244 288.108 26.6891L280.522 33.0619C280.191 33.3396 280 33.7493 280 34.1811C280 34.4957 280.099 34.7871 280.268 35.0256C280.533 35.3991 280.969 35.6429 281.462 35.6429H282.143V41.2321C282.143 42.7608 283.382 44 284.911 44H286.321C287.071 44 287.679 43.3924 287.679 42.6429V39.5357C287.679 38.2536 288.718 37.2143 290 37.2143C291.282 37.2143 292.321 38.2536 292.321 39.5357V42.6429C292.321 43.3924 292.929 44 293.679 44Z" fill="#AC6DFF"/>
<path d="M321.679 44H323.089C324.618 44 325.857 42.7608 325.857 41.2321V35.6429H326.538C327.031 35.6429 327.467 35.3991 327.732 35.0256C327.901 34.7871 328 34.4957 328 34.1811C328 33.7493 327.809 33.3396 327.478 33.0619L319.892 26.6891C319.362 26.244 318.692 26 318 26C317.308 26 316.638 26.244 316.108 26.6891L308.522 33.0619C308.191 33.3396 308 33.7493 308 34.1811C308 34.4957 308.099 34.7871 308.268 35.0256C308.533 35.3991 308.969 35.6429 309.462 35.6429H310.143V41.2321C310.143 42.7608 311.382 44 312.911 44H314.321C315.071 44 315.679 43.3924 315.679 42.6429V39.5357C315.679 38.2536 316.718 37.2143 318 37.2143C319.282 37.2143 320.321 38.2536 320.321 39.5357V42.6429C320.321 43.3924 320.929 44 321.679 44Z" fill="#AC6DFF"/>
<path d="M349.679 44H351.089C352.618 44 353.857 42.7608 353.857 41.2321V35.6429H354.538C355.031 35.6429 355.467 35.3991 355.732 35.0256C355.901 34.7871 356 34.4957 356 34.1811C356 33.7493 355.809 33.3396 355.478 33.0619L347.892 26.6891C347.362 26.244 346.692 26 346 26C345.308 26 344.638 26.244 344.108 26.6891L336.522 33.0619C336.191 33.3396 336 33.7493 336 34.1811C336 34.4957 336.099 34.7871 336.268 35.0256C336.533 35.3991 336.969 35.6429 337.462 35.6429H338.143V41.2321C338.143 42.7608 339.382 44 340.911 44H342.321C343.071 44 343.679 43.3924 343.679 42.6429V39.5357C343.679 38.2536 344.718 37.2143 346 37.2143C347.282 37.2143 348.321 38.2536 348.321 39.5357V42.6429C348.321 43.3924 348.929 44 349.679 44Z" fill="#AC6DFF"/>
<path d="M377.679 44H379.089C380.618 44 381.857 42.7608 381.857 41.2321V35.6429H382.538C383.031 35.6429 383.467 35.3991 383.732 35.0256C383.901 34.7871 384 34.4957 384 34.1811C384 33.7493 383.809 33.3396 383.478 33.0619L375.892 26.6891C375.362 26.244 374.692 26 374 26C373.308 26 372.638 26.244 372.108 26.6891L364.522 33.0619C364.191 33.3396 364 33.7493 364 34.1811C364 34.4957 364.099 34.7871 364.268 35.0256C364.533 35.3991 364.969 35.6429 365.462 35.6429H366.143V41.2321C366.143 42.7608 367.382 44 368.911 44H370.321C371.071 44 371.679 43.3924 371.679 42.6429V39.5357C371.679 38.2536 372.718 37.2143 374 37.2143C375.282 37.2143 376.321 38.2536 376.321 39.5357V42.6429C376.321 43.3924 376.929 44 377.679 44Z" fill="#AC6DFF"/>
<path d="M405.679 44H407.089C408.618 44 409.857 42.7608 409.857 41.2321V35.6429H410.538C411.031 35.6429 411.467 35.3991 411.732 35.0256C411.901 34.7871 412 34.4957 412 34.1811C412 33.7493 411.809 33.3396 411.478 33.0619L403.892 26.6891C403.362 26.244 402.692 26 402 26C401.308 26 400.638 26.244 400.108 26.6891L392.522 33.0619C392.191 33.3396 392 33.7493 392 34.1811C392 34.4957 392.099 34.7871 392.268 35.0256C392.533 35.3991 392.969 35.6429 393.462 35.6429H394.143V41.2321C394.143 42.7608 395.382 44 396.911 44H398.321C399.071 44 399.679 43.3924 399.679 42.6429V39.5357C399.679 38.2536 400.718 37.2143 402 37.2143C403.282 37.2143 404.321 38.2536 404.321 39.5357V42.6429C404.321 43.3924 404.929 44 405.679 44Z" fill="#AC6DFF"/>
<path d="M433.679 44H435.089C436.618 44 437.857 42.7608 437.857 41.2321V35.6429H438.538C439.031 35.6429 439.467 35.3991 439.732 35.0256C439.901 34.7871 440 34.4957 440 34.1811C440 33.7493 439.809 33.3396 439.478 33.0619L431.892 26.6891C431.362 26.244 430.692 26 430 26C429.308 26 428.638 26.244 428.108 26.6891L420.522 33.0619C420.191 33.3396 420 33.7493 420 34.1811C420 34.4957 420.099 34.7871 420.268 35.0256C420.533 35.3991 420.969 35.6429 421.462 35.6429H422.143V41.2321C422.143 42.7608 423.382 44 424.911 44H426.321C427.071 44 427.679 43.3924 427.679 42.6429V39.5357C427.679 38.2536 428.718 37.2143 430 37.2143C431.282 37.2143 432.321 38.2536 432.321 39.5357V42.6429C432.321 43.3924 432.929 44 433.679 44Z" fill="#AC6DFF"/>
<path d="M461.679 44H463.089C464.618 44 465.857 42.7608 465.857 41.2321V35.6429H466.538C467.031 35.6429 467.467 35.3991 467.732 35.0256C467.901 34.7871 468 34.4957 468 34.1811C468 33.7493 467.809 33.3396 467.478 33.0619L459.892 26.6891C459.362 26.244 458.692 26 458 26C457.308 26 456.638 26.244 456.108 26.6891L448.522 33.0619C448.191 33.3396 448 33.7493 448 34.1811C448 34.4957 448.099 34.7871 448.268 35.0256C448.533 35.3991 448.969 35.6429 449.462 35.6429H450.143V41.2321C450.143 42.7608 451.382 44 452.911 44H454.321C455.071 44 455.679 43.3924 455.679 42.6429V39.5357C455.679 38.2536 456.718 37.2143 458 37.2143C459.282 37.2143 460.321 38.2536 460.321 39.5357V42.6429C460.321 43.3924 460.929 44 461.679 44Z" fill="#AC6DFF"/>
<path d="M489.679 44H491.089C492.618 44 493.857 42.7608 493.857 41.2321V35.6429H494.538C495.031 35.6429 495.467 35.3991 495.732 35.0256C495.901 34.7871 496 34.4957 496 34.1811C496 33.7493 495.809 33.3396 495.478 33.0619L487.892 26.6891C487.362 26.244 486.692 26 486 26C485.308 26 484.638 26.244 484.108 26.6891L476.522 33.0619C476.191 33.3396 476 33.7493 476 34.1811C476 34.4957 476.099 34.7871 476.268 35.0256C476.533 35.3991 476.969 35.6429 477.462 35.6429H478.143V41.2321C478.143 42.7608 479.382 44 480.911 44H482.321C483.071 44 483.679 43.3924 483.679 42.6429V39.5357C483.679 38.2536 484.718 37.2143 486 37.2143C487.282 37.2143 488.321 38.2536 488.321 39.5357V42.6429C488.321 43.3924 488.929 44 489.679 44Z" fill="#AC6DFF"/>
<path d="M517.679 44H519.089C520.618 44 521.857 42.7608 521.857 41.2321V35.6429H522.538C523.031 35.6429 523.467 35.3991 523.732 35.0256C523.901 34.7871 524 34.4957 524 34.1811C524 33.7493 523.809 33.3396 523.478 33.0619L515.892 26.6891C515.362 26.244 514.692 26 514 26C513.308 26 512.638 26.244 512.108 26.6891L504.522 33.0619C504.191 33.3396 504 33.7493 504 34.1811C504 34.4957 504.099 34.7871 504.268 35.0256C504.533 35.3991 504.969 35.6429 505.462 35.6429H506.143V41.2321C506.143 42.7608 507.382 44 508.911 44H510.321C511.071 44 511.679 43.3924 511.679 42.6429V39.5357C511.679 38.2536 512.718 37.2143 514 37.2143C515.282 37.2143 516.321 38.2536 516.321 39.5357V42.6429C516.321 43.3924 516.929 44 517.679 44Z" fill="#AC6DFF"/>
<path d="M545.679 44H547.089C548.618 44 549.857 42.7608 549.857 41.2321V35.6429H550.538C551.031 35.6429 551.467 35.3991 551.732 35.0256C551.901 34.7871 552 34.4957 552 34.1811C552 33.7493 551.809 33.3396 551.478 33.0619L543.892 26.6891C543.362 26.244 542.692 26 542 26C541.308 26 540.638 26.244 540.108 26.6891L532.522 33.0619C532.191 33.3396 532 33.7493 532 34.1811C532 34.4957 532.099 34.7871 532.268 35.0256C532.533 35.3991 532.969 35.6429 533.462 35.6429H534.143V41.2321C534.143 42.7608 535.382 44 536.911 44H538.321C539.071 44 539.679 43.3924 539.679 42.6429V39.5357C539.679 38.2536 540.718 37.2143 542 37.2143C543.282 37.2143 544.321 38.2536 544.321 39.5357V42.6429C544.321 43.3924 544.929 44 545.679 44Z" fill="#AC6DFF"/>
<path d="M13.6786 70H15.0893C16.6179 70 17.8571 68.7608 17.8571 67.2321V61.6429H18.5383C19.031 61.6429 19.4667 61.3991 19.7315 61.0256C19.9006 60.7871 20 60.4957 20 60.1811C20 59.7493 19.8091 59.3396 19.4784 59.0619L11.8918 52.6891C11.3619 52.244 10.692 52 10 52C9.30796 52 8.63807 52.244 8.10817 52.6891L0.521551 59.0619C0.190918 59.3396 0 59.7493 0 60.1811C0 60.4957 0.0993848 60.7871 0.26847 61.0256C0.533274 61.3991 0.969029 61.6429 1.46172 61.6429H2.14286V67.2321C2.14286 68.7608 3.38207 70 4.91071 70H6.32143C7.07096 70 7.67857 69.3924 7.67857 68.6429V65.5357C7.67857 64.2536 8.71791 63.2143 10 63.2143C11.2821 63.2143 12.3214 64.2536 12.3214 65.5357V68.6429C12.3214 69.3924 12.929 70 13.6786 70Z" fill="#AC6DFF"/>
<path d="M41.6786 70H43.0893C44.6179 70 45.8571 68.7608 45.8571 67.2321V61.6429H46.5383C47.031 61.6429 47.4667 61.3991 47.7315 61.0256C47.9006 60.7871 48 60.4957 48 60.1811C48 59.7493 47.8091 59.3396 47.4784 59.0619L39.8918 52.6891C39.3619 52.244 38.692 52 38 52C37.308 52 36.6381 52.244 36.1082 52.6891L28.5216 59.0619C28.1909 59.3396 28 59.7493 28 60.1811C28 60.4957 28.0994 60.7871 28.2685 61.0256C28.5333 61.3991 28.969 61.6429 29.4617 61.6429H30.1429V67.2321C30.1429 68.7608 31.3821 70 32.9107 70H34.3214C35.071 70 35.6786 69.3924 35.6786 68.6429V65.5357C35.6786 64.2536 36.7179 63.2143 38 63.2143C39.2821 63.2143 40.3214 64.2536 40.3214 65.5357V68.6429C40.3214 69.3924 40.929 70 41.6786 70Z" fill="#AC6DFF"/>
<path d="M69.6786 70H71.0893C72.6179 70 73.8571 68.7608 73.8571 67.2321V61.6429H74.5383C75.031 61.6429 75.4667 61.3991 75.7315 61.0256C75.9006 60.7871 76 60.4957 76 60.1811C76 59.7493 75.8091 59.3396 75.4784 59.0619L67.8918 52.6891C67.3619 52.244 66.692 52 66 52C65.308 52 64.6381 52.244 64.1082 52.6891L56.5216 59.0619C56.1909 59.3396 56 59.7493 56 60.1811C56 60.4957 56.0994 60.7871 56.2685 61.0256C56.5333 61.3991 56.969 61.6429 57.4617 61.6429H58.1429V67.2321C58.1429 68.7608 59.3821 70 60.9107 70H62.3214C63.071 70 63.6786 69.3924 63.6786 68.6429V65.5357C63.6786 64.2536 64.7179 63.2143 66 63.2143C67.2821 63.2143 68.3214 64.2536 68.3214 65.5357V68.6429C68.3214 69.3924 68.929 70 69.6786 70Z" fill="#AC6DFF"/>
<path d="M97.6786 70H99.0893C100.618 70 101.857 68.7608 101.857 67.2321V61.6429H102.538C103.031 61.6429 103.467 61.3991 103.732 61.0256C103.901 60.7871 104 60.4957 104 60.1811C104 59.7493 103.809 59.3396 103.478 59.0619L95.8918 52.6891C95.3619 52.244 94.692 52 94 52C93.308 52 92.6381 52.244 92.1082 52.6891L84.5216 59.0619C84.1909 59.3396 84 59.7493 84 60.1811C84 60.4957 84.0994 60.7871 84.2685 61.0256C84.5333 61.3991 84.969 61.6429 85.4617 61.6429H86.1429V67.2321C86.1429 68.7608 87.3821 70 88.9107 70H90.3214C91.071 70 91.6786 69.3924 91.6786 68.6429V65.5357C91.6786 64.2536 92.7179 63.2143 94 63.2143C95.2821 63.2143 96.3214 64.2536 96.3214 65.5357V68.6429C96.3214 69.3924 96.929 70 97.6786 70Z" fill="#AC6DFF"/>
<path d="M125.679 70H127.089C128.618 70 129.857 68.7608 129.857 67.2321V61.6429H130.538C131.031 61.6429 131.467 61.3991 131.732 61.0256C131.901 60.7871 132 60.4957 132 60.1811C132 59.7493 131.809 59.3396 131.478 59.0619L123.892 52.6891C123.362 52.244 122.692 52 122 52C121.308 52 120.638 52.244 120.108 52.6891L112.522 59.0619C112.191 59.3396 112 59.7493 112 60.1811C112 60.4957 112.099 60.7871 112.268 61.0256C112.533 61.3991 112.969 61.6429 113.462 61.6429H114.143V67.2321C114.143 68.7608 115.382 70 116.911 70H118.321C119.071 70 119.679 69.3924 119.679 68.6429V65.5357C119.679 64.2536 120.718 63.2143 122 63.2143C123.282 63.2143 124.321 64.2536 124.321 65.5357V68.6429C124.321 69.3924 124.929 70 125.679 70Z" fill="#AC6DFF"/>
<path d="M153.679 70H155.089C156.618 70 157.857 68.7608 157.857 67.2321V61.6429H158.538C159.031 61.6429 159.467 61.3991 159.732 61.0256C159.901 60.7871 160 60.4957 160 60.1811C160 59.7493 159.809 59.3396 159.478 59.0619L151.892 52.6891C151.362 52.244 150.692 52 150 52C149.308 52 148.638 52.244 148.108 52.6891L140.522 59.0619C140.191 59.3396 140 59.7493 140 60.1811C140 60.4957 140.099 60.7871 140.268 61.0256C140.533 61.3991 140.969 61.6429 141.462 61.6429H142.143V67.2321C142.143 68.7608 143.382 70 144.911 70H146.321C147.071 70 147.679 69.3924 147.679 68.6429V65.5357C147.679 64.2536 148.718 63.2143 150 63.2143C151.282 63.2143 152.321 64.2536 152.321 65.5357V68.6429C152.321 69.3924 152.929 70 153.679 70Z" fill="#AC6DFF"/>
<path d="M181.679 70H183.089C184.618 70 185.857 68.7608 185.857 67.2321V61.6429H186.538C187.031 61.6429 187.467 61.3991 187.732 61.0256C187.901 60.7871 188 60.4957 188 60.1811C188 59.7493 187.809 59.3396 187.478 59.0619L179.892 52.6891C179.362 52.244 178.692 52 178 52C177.308 52 176.638 52.244 176.108 52.6891L168.522 59.0619C168.191 59.3396 168 59.7493 168 60.1811C168 60.4957 168.099 60.7871 168.268 61.0256C168.533 61.3991 168.969 61.6429 169.462 61.6429H170.143V67.2321C170.143 68.7608 171.382 70 172.911 70H174.321C175.071 70 175.679 69.3924 175.679 68.6429V65.5357C175.679 64.2536 176.718 63.2143 178 63.2143C179.282 63.2143 180.321 64.2536 180.321 65.5357V68.6429C180.321 69.3924 180.929 70 181.679 70Z" fill="#AC6DFF"/>
<path d="M209.679 70H211.089C212.618 70 213.857 68.7608 213.857 67.2321V61.6429H214.538C215.031 61.6429 215.467 61.3991 215.732 61.0256C215.901 60.7871 216 60.4957 216 60.1811C216 59.7493 215.809 59.3396 215.478 59.0619L207.892 52.6891C207.362 52.244 206.692 52 206 52C205.308 52 204.638 52.244 204.108 52.6891L196.522 59.0619C196.191 59.3396 196 59.7493 196 60.1811C196 60.4957 196.099 60.7871 196.268 61.0256C196.533 61.3991 196.969 61.6429 197.462 61.6429H198.143V67.2321C198.143 68.7608 199.382 70 200.911 70H202.321C203.071 70 203.679 69.3924 203.679 68.6429V65.5357C203.679 64.2536 204.718 63.2143 206 63.2143C207.282 63.2143 208.321 64.2536 208.321 65.5357V68.6429C208.321 69.3924 208.929 70 209.679 70Z" fill="#AC6DFF"/>
<path d="M237.679 70H239.089C240.618 70 241.857 68.7608 241.857 67.2321V61.6429H242.538C243.031 61.6429 243.467 61.3991 243.732 61.0256C243.901 60.7871 244 60.4957 244 60.1811C244 59.7493 243.809 59.3396 243.478 59.0619L235.892 52.6891C235.362 52.244 234.692 52 234 52C233.308 52 232.638 52.244 232.108 52.6891L224.522 59.0619C224.191 59.3396 224 59.7493 224 60.1811C224 60.4957 224.099 60.7871 224.268 61.0256C224.533 61.3991 224.969 61.6429 225.462 61.6429H226.143V67.2321C226.143 68.7608 227.382 70 228.911 70H230.321C231.071 70 231.679 69.3924 231.679 68.6429V65.5357C231.679 64.2536 232.718 63.2143 234 63.2143C235.282 63.2143 236.321 64.2536 236.321 65.5357V68.6429C236.321 69.3924 236.929 70 237.679 70Z" fill="#AC6DFF"/>
<path d="M265.679 70H267.089C268.618 70 269.857 68.7608 269.857 67.2321V61.6429H270.538C271.031 61.6429 271.467 61.3991 271.732 61.0256C271.901 60.7871 272 60.4957 272 60.1811C272 59.7493 271.809 59.3396 271.478 59.0619L263.892 52.6891C263.362 52.244 262.692 52 262 52C261.308 52 260.638 52.244 260.108 52.6891L252.522 59.0619C252.191 59.3396 252 59.7493 252 60.1811C252 60.4957 252.099 60.7871 252.268 61.0256C252.533 61.3991 252.969 61.6429 253.462 61.6429H254.143V67.2321C254.143 68.7608 255.382 70 256.911 70H258.321C259.071 70 259.679 69.3924 259.679 68.6429V65.5357C259.679 64.2536 260.718 63.2143 262 63.2143C263.282 63.2143 264.321 64.2536 264.321 65.5357V68.6429C264.321 69.3924 264.929 70 265.679 70Z" fill="#AC6DFF"/>
<path d="M293.679 70H295.089C296.618 70 297.857 68.7608 297.857 67.2321V61.6429H298.538C299.031 61.6429 299.467 61.3991 299.732 61.0256C299.901 60.7871 300 60.4957 300 60.1811C300 59.7493 299.809 59.3396 299.478 59.0619L291.892 52.6891C291.362 52.244 290.692 52 290 52C289.308 52 288.638 52.244 288.108 52.6891L280.522 59.0619C280.191 59.3396 280 59.7493 280 60.1811C280 60.4957 280.099 60.7871 280.268 61.0256C280.533 61.3991 280.969 61.6429 281.462 61.6429H282.143V67.2321C282.143 68.7608 283.382 70 284.911 70H286.321C287.071 70 287.679 69.3924 287.679 68.6429V65.5357C287.679 64.2536 288.718 63.2143 290 63.2143C291.282 63.2143 292.321 64.2536 292.321 65.5357V68.6429C292.321 69.3924 292.929 70 293.679 70Z" fill="#AC6DFF"/>
<path d="M321.679 70H323.089C324.618 70 325.857 68.7608 325.857 67.2321V61.6429H326.538C327.031 61.6429 327.467 61.3991 327.732 61.0256C327.901 60.7871 328 60.4957 328 60.1811C328 59.7493 327.809 59.3396 327.478 59.0619L319.892 52.6891C319.362 52.244 318.692 52 318 52C317.308 52 316.638 52.244 316.108 52.6891L308.522 59.0619C308.191 59.3396 308 59.7493 308 60.1811C308 60.4957 308.099 60.7871 308.268 61.0256C308.533 61.3991 308.969 61.6429 309.462 61.6429H310.143V67.2321C310.143 68.7608 311.382 70 312.911 70H314.321C315.071 70 315.679 69.3924 315.679 68.6429V65.5357C315.679 64.2536 316.718 63.2143 318 63.2143C319.282 63.2143 320.321 64.2536 320.321 65.5357V68.6429C320.321 69.3924 320.929 70 321.679 70Z" fill="#AC6DFF"/>
<path d="M349.679 70H351.089C352.618 70 353.857 68.7608 353.857 67.2321V61.6429H354.538C355.031 61.6429 355.467 61.3991 355.732 61.0256C355.901 60.7871 356 60.4957 356 60.1811C356 59.7493 355.809 59.3396 355.478 59.0619L347.892 52.6891C347.362 52.244 346.692 52 346 52C345.308 52 344.638 52.244 344.108 52.6891L336.522 59.0619C336.191 59.3396 336 59.7493 336 60.1811C336 60.4957 336.099 60.7871 336.268 61.0256C336.533 61.3991 336.969 61.6429 337.462 61.6429H338.143V67.2321C338.143 68.7608 339.382 70 340.911 70H342.321C343.071 70 343.679 69.3924 343.679 68.6429V65.5357C343.679 64.2536 344.718 63.2143 346 63.2143C347.282 63.2143 348.321 64.2536 348.321 65.5357V68.6429C348.321 69.3924 348.929 70 349.679 70Z" fill="#AC6DFF"/>
<path d="M377.679 70H379.089C380.618 70 381.857 68.7608 381.857 67.2321V61.6429H382.538C383.031 61.6429 383.467 61.3991 383.732 61.0256C383.901 60.7871 384 60.4957 384 60.1811C384 59.7493 383.809 59.3396 383.478 59.0619L375.892 52.6891C375.362 52.244 374.692 52 374 52C373.308 52 372.638 52.244 372.108 52.6891L364.522 59.0619C364.191 59.3396 364 59.7493 364 60.1811C364 60.4957 364.099 60.7871 364.268 61.0256C364.533 61.3991 364.969 61.6429 365.462 61.6429H366.143V67.2321C366.143 68.7608 367.382 70 368.911 70H370.321C371.071 70 371.679 69.3924 371.679 68.6429V65.5357C371.679 64.2536 372.718 63.2143 374 63.2143C375.282 63.2143 376.321 64.2536 376.321 65.5357V68.6429C376.321 69.3924 376.929 70 377.679 70Z" fill="#AC6DFF"/>
<path d="M405.679 70H407.089C408.618 70 409.857 68.7608 409.857 67.2321V61.6429H410.538C411.031 61.6429 411.467 61.3991 411.732 61.0256C411.901 60.7871 412 60.4957 412 60.1811C412 59.7493 411.809 59.3396 411.478 59.0619L403.892 52.6891C403.362 52.244 402.692 52 402 52C401.308 52 400.638 52.244 400.108 52.6891L392.522 59.0619C392.191 59.3396 392 59.7493 392 60.1811C392 60.4957 392.099 60.7871 392.268 61.0256C392.533 61.3991 392.969 61.6429 393.462 61.6429H394.143V67.2321C394.143 68.7608 395.382 70 396.911 70H398.321C399.071 70 399.679 69.3924 399.679 68.6429V65.5357C399.679 64.2536 400.718 63.2143 402 63.2143C403.282 63.2143 404.321 64.2536 404.321 65.5357V68.6429C404.321 69.3924 404.929 70 405.679 70Z" fill="#AC6DFF"/>
<path d="M433.679 70H435.089C436.618 70 437.857 68.7608 437.857 67.2321V61.6429H438.538C439.031 61.6429 439.467 61.3991 439.732 61.0256C439.901 60.7871 440 60.4957 440 60.1811C440 59.7493 439.809 59.3396 439.478 59.0619L431.892 52.6891C431.362 52.244 430.692 52 430 52C429.308 52 428.638 52.244 428.108 52.6891L420.522 59.0619C420.191 59.3396 420 59.7493 420 60.1811C420 60.4957 420.099 60.7871 420.268 61.0256C420.533 61.3991 420.969 61.6429 421.462 61.6429H422.143V67.2321C422.143 68.7608 423.382 70 424.911 70H426.321C427.071 70 427.679 69.3924 427.679 68.6429V65.5357C427.679 64.2536 428.718 63.2143 430 63.2143C431.282 63.2143 432.321 64.2536 432.321 65.5357V68.6429C432.321 69.3924 432.929 70 433.679 70Z" fill="#AC6DFF"/>
<path d="M461.679 70H463.089C464.618 70 465.857 68.7608 465.857 67.2321V61.6429H466.538C467.031 61.6429 467.467 61.3991 467.732 61.0256C467.901 60.7871 468 60.4957 468 60.1811C468 59.7493 467.809 59.3396 467.478 59.0619L459.892 52.6891C459.362 52.244 458.692 52 458 52C457.308 52 456.638 52.244 456.108 52.6891L448.522 59.0619C448.191 59.3396 448 59.7493 448 60.1811C448 60.4957 448.099 60.7871 448.268 61.0256C448.533 61.3991 448.969 61.6429 449.462 61.6429H450.143V67.2321C450.143 68.7608 451.382 70 452.911 70H454.321C455.071 70 455.679 69.3924 455.679 68.6429V65.5357C455.679 64.2536 456.718 63.2143 458 63.2143C459.282 63.2143 460.321 64.2536 460.321 65.5357V68.6429C460.321 69.3924 460.929 70 461.679 70Z" fill="#AC6DFF"/>
<path d="M489.679 70H491.089C492.618 70 493.857 68.7608 493.857 67.2321V61.6429H494.538C495.031 61.6429 495.467 61.3991 495.732 61.0256C495.901 60.7871 496 60.4957 496 60.1811C496 59.7493 495.809 59.3396 495.478 59.0619L487.892 52.6891C487.362 52.244 486.692 52 486 52C485.308 52 484.638 52.244 484.108 52.6891L476.522 59.0619C476.191 59.3396 476 59.7493 476 60.1811C476 60.4957 476.099 60.7871 476.268 61.0256C476.533 61.3991 476.969 61.6429 477.462 61.6429H478.143V67.2321C478.143 68.7608 479.382 70 480.911 70H482.321C483.071 70 483.679 69.3924 483.679 68.6429V65.5357C483.679 64.2536 484.718 63.2143 486 63.2143C487.282 63.2143 488.321 64.2536 488.321 65.5357V68.6429C488.321 69.3924 488.929 70 489.679 70Z" fill="#AC6DFF"/>
<path d="M517.679 70H519.089C520.618 70 521.857 68.7608 521.857 67.2321V61.6429H522.538C523.031 61.6429 523.467 61.3991 523.732 61.0256C523.901 60.7871 524 60.4957 524 60.1811C524 59.7493 523.809 59.3396 523.478 59.0619L515.892 52.6891C515.362 52.244 514.692 52 514 52C513.308 52 512.638 52.244 512.108 52.6891L504.522 59.0619C504.191 59.3396 504 59.7493 504 60.1811C504 60.4957 504.099 60.7871 504.268 61.0256C504.533 61.3991 504.969 61.6429 505.462 61.6429H506.143V67.2321C506.143 68.7608 507.382 70 508.911 70H510.321C511.071 70 511.679 69.3924 511.679 68.6429V65.5357C511.679 64.2536 512.718 63.2143 514 63.2143C515.282 63.2143 516.321 64.2536 516.321 65.5357V68.6429C516.321 69.3924 516.929 70 517.679 70Z" fill="#AC6DFF"/>
<path d="M545.679 70H547.089C548.618 70 549.857 68.7608 549.857 67.2321V61.6429H550.538C551.031 61.6429 551.467 61.3991 551.732 61.0256C551.901 60.7871 552 60.4957 552 60.1811C552 59.7493 551.809 59.3396 551.478 59.0619L543.892 52.6891C543.362 52.244 542.692 52 542 52C541.308 52 540.638 52.244 540.108 52.6891L532.522 59.0619C532.191 59.3396 532 59.7493 532 60.1811C532 60.4957 532.099 60.7871 532.268 61.0256C532.533 61.3991 532.969 61.6429 533.462 61.6429H534.143V67.2321C534.143 68.7608 535.382 70 536.911 70H538.321C539.071 70 539.679 69.3924 539.679 68.6429V65.5357C539.679 64.2536 540.718 63.2143 542 63.2143C543.282 63.2143 544.321 64.2536 544.321 65.5357V68.6429C544.321 69.3924 544.929 70 545.679 70Z" fill="#AC6DFF"/>
<path d="M13.6786 96H15.0893C16.6179 96 17.8571 94.7608 17.8571 93.2321V87.6429H18.5383C19.031 87.6429 19.4667 87.3991 19.7315 87.0256C19.9006 86.7871 20 86.4957 20 86.1811C20 85.7493 19.8091 85.3396 19.4784 85.0619L11.8918 78.6891C11.3619 78.244 10.692 78 10 78C9.30796 78 8.63807 78.244 8.10817 78.6891L0.521551 85.0619C0.190918 85.3396 0 85.7493 0 86.1811C0 86.4957 0.0993848 86.7871 0.26847 87.0256C0.533274 87.3991 0.969029 87.6429 1.46172 87.6429H2.14286V93.2321C2.14286 94.7608 3.38207 96 4.91071 96H6.32143C7.07096 96 7.67857 95.3924 7.67857 94.6429V91.5357C7.67857 90.2536 8.71791 89.2143 10 89.2143C11.2821 89.2143 12.3214 90.2536 12.3214 91.5357V94.6429C12.3214 95.3924 12.929 96 13.6786 96Z" fill="#AC6DFF"/>
<path d="M41.6786 96H43.0893C44.6179 96 45.8571 94.7608 45.8571 93.2321V87.6429H46.5383C47.031 87.6429 47.4667 87.3991 47.7315 87.0256C47.9006 86.7871 48 86.4957 48 86.1811C48 85.7493 47.8091 85.3396 47.4784 85.0619L39.8918 78.6891C39.3619 78.244 38.692 78 38 78C37.308 78 36.6381 78.244 36.1082 78.6891L28.5216 85.0619C28.1909 85.3396 28 85.7493 28 86.1811C28 86.4957 28.0994 86.7871 28.2685 87.0256C28.5333 87.3991 28.969 87.6429 29.4617 87.6429H30.1429V93.2321C30.1429 94.7608 31.3821 96 32.9107 96H34.3214C35.071 96 35.6786 95.3924 35.6786 94.6429V91.5357C35.6786 90.2536 36.7179 89.2143 38 89.2143C39.2821 89.2143 40.3214 90.2536 40.3214 91.5357V94.6429C40.3214 95.3924 40.929 96 41.6786 96Z" fill="#AC6DFF"/>
<path d="M69.6786 96H71.0893C72.6179 96 73.8571 94.7608 73.8571 93.2321V87.6429H74.5383C75.031 87.6429 75.4667 87.3991 75.7315 87.0256C75.9006 86.7871 76 86.4957 76 86.1811C76 85.7493 75.8091 85.3396 75.4784 85.0619L67.8918 78.6891C67.3619 78.244 66.692 78 66 78C65.308 78 64.6381 78.244 64.1082 78.6891L56.5216 85.0619C56.1909 85.3396 56 85.7493 56 86.1811C56 86.4957 56.0994 86.7871 56.2685 87.0256C56.5333 87.3991 56.969 87.6429 57.4617 87.6429H58.1429V93.2321C58.1429 94.7608 59.3821 96 60.9107 96H62.3214C63.071 96 63.6786 95.3924 63.6786 94.6429V91.5357C63.6786 90.2536 64.7179 89.2143 66 89.2143C67.2821 89.2143 68.3214 90.2536 68.3214 91.5357V94.6429C68.3214 95.3924 68.929 96 69.6786 96Z" fill="#AC6DFF"/>
<path d="M97.6786 96H99.0893C100.618 96 101.857 94.7608 101.857 93.2321V87.6429H102.538C103.031 87.6429 103.467 87.3991 103.732 87.0256C103.901 86.7871 104 86.4957 104 86.1811C104 85.7493 103.809 85.3396 103.478 85.0619L95.8918 78.6891C95.3619 78.244 94.692 78 94 78C93.308 78 92.6381 78.244 92.1082 78.6891L84.5216 85.0619C84.1909 85.3396 84 85.7493 84 86.1811C84 86.4957 84.0994 86.7871 84.2685 87.0256C84.5333 87.3991 84.969 87.6429 85.4617 87.6429H86.1429V93.2321C86.1429 94.7608 87.3821 96 88.9107 96H90.3214C91.071 96 91.6786 95.3924 91.6786 94.6429V91.5357C91.6786 90.2536 92.7179 89.2143 94 89.2143C95.2821 89.2143 96.3214 90.2536 96.3214 91.5357V94.6429C96.3214 95.3924 96.929 96 97.6786 96Z" fill="#AC6DFF"/>
<path d="M125.679 96H127.089C128.618 96 129.857 94.7608 129.857 93.2321V87.6429H130.538C131.031 87.6429 131.467 87.3991 131.732 87.0256C131.901 86.7871 132 86.4957 132 86.1811C132 85.7493 131.809 85.3396 131.478 85.0619L123.892 78.6891C123.362 78.244 122.692 78 122 78C121.308 78 120.638 78.244 120.108 78.6891L112.522 85.0619C112.191 85.3396 112 85.7493 112 86.1811C112 86.4957 112.099 86.7871 112.268 87.0256C112.533 87.3991 112.969 87.6429 113.462 87.6429H114.143V93.2321C114.143 94.7608 115.382 96 116.911 96H118.321C119.071 96 119.679 95.3924 119.679 94.6429V91.5357C119.679 90.2536 120.718 89.2143 122 89.2143C123.282 89.2143 124.321 90.2536 124.321 91.5357V94.6429C124.321 95.3924 124.929 96 125.679 96Z" fill="#AC6DFF"/>
<path d="M153.679 96H155.089C156.618 96 157.857 94.7608 157.857 93.2321V87.6429H158.538C159.031 87.6429 159.467 87.3991 159.732 87.0256C159.901 86.7871 160 86.4957 160 86.1811C160 85.7493 159.809 85.3396 159.478 85.0619L151.892 78.6891C151.362 78.244 150.692 78 150 78C149.308 78 148.638 78.244 148.108 78.6891L140.522 85.0619C140.191 85.3396 140 85.7493 140 86.1811C140 86.4957 140.099 86.7871 140.268 87.0256C140.533 87.3991 140.969 87.6429 141.462 87.6429H142.143V93.2321C142.143 94.7608 143.382 96 144.911 96H146.321C147.071 96 147.679 95.3924 147.679 94.6429V91.5357C147.679 90.2536 148.718 89.2143 150 89.2143C151.282 89.2143 152.321 90.2536 152.321 91.5357V94.6429C152.321 95.3924 152.929 96 153.679 96Z" fill="#AC6DFF"/>
<path d="M181.679 96H183.089C184.618 96 185.857 94.7608 185.857 93.2321V87.6429H186.538C187.031 87.6429 187.467 87.3991 187.732 87.0256C187.901 86.7871 188 86.4957 188 86.1811C188 85.7493 187.809 85.3396 187.478 85.0619L179.892 78.6891C179.362 78.244 178.692 78 178 78C177.308 78 176.638 78.244 176.108 78.6891L168.522 85.0619C168.191 85.3396 168 85.7493 168 86.1811C168 86.4957 168.099 86.7871 168.268 87.0256C168.533 87.3991 168.969 87.6429 169.462 87.6429H170.143V93.2321C170.143 94.7608 171.382 96 172.911 96H174.321C175.071 96 175.679 95.3924 175.679 94.6429V91.5357C175.679 90.2536 176.718 89.2143 178 89.2143C179.282 89.2143 180.321 90.2536 180.321 91.5357V94.6429C180.321 95.3924 180.929 96 181.679 96Z" fill="#AC6DFF"/>
<path d="M209.679 96H211.089C212.618 96 213.857 94.7608 213.857 93.2321V87.6429H214.538C215.031 87.6429 215.467 87.3991 215.732 87.0256C215.901 86.7871 216 86.4957 216 86.1811C216 85.7493 215.809 85.3396 215.478 85.0619L207.892 78.6891C207.362 78.244 206.692 78 206 78C205.308 78 204.638 78.244 204.108 78.6891L196.522 85.0619C196.191 85.3396 196 85.7493 196 86.1811C196 86.4957 196.099 86.7871 196.268 87.0256C196.533 87.3991 196.969 87.6429 197.462 87.6429H198.143V93.2321C198.143 94.7608 199.382 96 200.911 96H202.321C203.071 96 203.679 95.3924 203.679 94.6429V91.5357C203.679 90.2536 204.718 89.2143 206 89.2143C207.282 89.2143 208.321 90.2536 208.321 91.5357V94.6429C208.321 95.3924 208.929 96 209.679 96Z" fill="#AC6DFF"/>
<path d="M237.679 96H239.089C240.618 96 241.857 94.7608 241.857 93.2321V87.6429H242.538C243.031 87.6429 243.467 87.3991 243.732 87.0256C243.901 86.7871 244 86.4957 244 86.1811C244 85.7493 243.809 85.3396 243.478 85.0619L235.892 78.6891C235.362 78.244 234.692 78 234 78C233.308 78 232.638 78.244 232.108 78.6891L224.522 85.0619C224.191 85.3396 224 85.7493 224 86.1811C224 86.4957 224.099 86.7871 224.268 87.0256C224.533 87.3991 224.969 87.6429 225.462 87.6429H226.143V93.2321C226.143 94.7608 227.382 96 228.911 96H230.321C231.071 96 231.679 95.3924 231.679 94.6429V91.5357C231.679 90.2536 232.718 89.2143 234 89.2143C235.282 89.2143 236.321 90.2536 236.321 91.5357V94.6429C236.321 95.3924 236.929 96 237.679 96Z" fill="#AC6DFF"/>
<path d="M265.679 96H267.089C268.618 96 269.857 94.7608 269.857 93.2321V87.6429H270.538C271.031 87.6429 271.467 87.3991 271.732 87.0256C271.901 86.7871 272 86.4957 272 86.1811C272 85.7493 271.809 85.3396 271.478 85.0619L263.892 78.6891C263.362 78.244 262.692 78 262 78C261.308 78 260.638 78.244 260.108 78.6891L252.522 85.0619C252.191 85.3396 252 85.7493 252 86.1811C252 86.4957 252.099 86.7871 252.268 87.0256C252.533 87.3991 252.969 87.6429 253.462 87.6429H254.143V93.2321C254.143 94.7608 255.382 96 256.911 96H258.321C259.071 96 259.679 95.3924 259.679 94.6429V91.5357C259.679 90.2536 260.718 89.2143 262 89.2143C263.282 89.2143 264.321 90.2536 264.321 91.5357V94.6429C264.321 95.3924 264.929 96 265.679 96Z" fill="#AC6DFF"/>
<path d="M293.679 96H295.089C296.618 96 297.857 94.7608 297.857 93.2321V87.6429H298.538C299.031 87.6429 299.467 87.3991 299.732 87.0256C299.901 86.7871 300 86.4957 300 86.1811C300 85.7493 299.809 85.3396 299.478 85.0619L291.892 78.6891C291.362 78.244 290.692 78 290 78C289.308 78 288.638 78.244 288.108 78.6891L280.522 85.0619C280.191 85.3396 280 85.7493 280 86.1811C280 86.4957 280.099 86.7871 280.268 87.0256C280.533 87.3991 280.969 87.6429 281.462 87.6429H282.143V93.2321C282.143 94.7608 283.382 96 284.911 96H286.321C287.071 96 287.679 95.3924 287.679 94.6429V91.5357C287.679 90.2536 288.718 89.2143 290 89.2143C291.282 89.2143 292.321 90.2536 292.321 91.5357V94.6429C292.321 95.3924 292.929 96 293.679 96Z" fill="#AC6DFF"/>
<path d="M321.679 96H323.089C324.618 96 325.857 94.7608 325.857 93.2321V87.6429H326.538C327.031 87.6429 327.467 87.3991 327.732 87.0256C327.901 86.7871 328 86.4957 328 86.1811C328 85.7493 327.809 85.3396 327.478 85.0619L319.892 78.6891C319.362 78.244 318.692 78 318 78C317.308 78 316.638 78.244 316.108 78.6891L308.522 85.0619C308.191 85.3396 308 85.7493 308 86.1811C308 86.4957 308.099 86.7871 308.268 87.0256C308.533 87.3991 308.969 87.6429 309.462 87.6429H310.143V93.2321C310.143 94.7608 311.382 96 312.911 96H314.321C315.071 96 315.679 95.3924 315.679 94.6429V91.5357C315.679 90.2536 316.718 89.2143 318 89.2143C319.282 89.2143 320.321 90.2536 320.321 91.5357V94.6429C320.321 95.3924 320.929 96 321.679 96Z" fill="#AC6DFF"/>
<path d="M349.679 96H351.089C352.618 96 353.857 94.7608 353.857 93.2321V87.6429H354.538C355.031 87.6429 355.467 87.3991 355.732 87.0256C355.901 86.7871 356 86.4957 356 86.1811C356 85.7493 355.809 85.3396 355.478 85.0619L347.892 78.6891C347.362 78.244 346.692 78 346 78C345.308 78 344.638 78.244 344.108 78.6891L336.522 85.0619C336.191 85.3396 336 85.7493 336 86.1811C336 86.4957 336.099 86.7871 336.268 87.0256C336.533 87.3991 336.969 87.6429 337.462 87.6429H338.143V93.2321C338.143 94.7608 339.382 96 340.911 96H342.321C343.071 96 343.679 95.3924 343.679 94.6429V91.5357C343.679 90.2536 344.718 89.2143 346 89.2143C347.282 89.2143 348.321 90.2536 348.321 91.5357V94.6429C348.321 95.3924 348.929 96 349.679 96Z" fill="#AC6DFF"/>
<path d="M377.679 96H379.089C380.618 96 381.857 94.7608 381.857 93.2321V87.6429H382.538C383.031 87.6429 383.467 87.3991 383.732 87.0256C383.901 86.7871 384 86.4957 384 86.1811C384 85.7493 383.809 85.3396 383.478 85.0619L375.892 78.6891C375.362 78.244 374.692 78 374 78C373.308 78 372.638 78.244 372.108 78.6891L364.522 85.0619C364.191 85.3396 364 85.7493 364 86.1811C364 86.4957 364.099 86.7871 364.268 87.0256C364.533 87.3991 364.969 87.6429 365.462 87.6429H366.143V93.2321C366.143 94.7608 367.382 96 368.911 96H370.321C371.071 96 371.679 95.3924 371.679 94.6429V91.5357C371.679 90.2536 372.718 89.2143 374 89.2143C375.282 89.2143 376.321 90.2536 376.321 91.5357V94.6429C376.321 95.3924 376.929 96 377.679 96Z" fill="#AC6DFF"/>
<path d="M405.679 96H407.089C408.618 96 409.857 94.7608 409.857 93.2321V87.6429H410.538C411.031 87.6429 411.467 87.3991 411.732 87.0256C411.901 86.7871 412 86.4957 412 86.1811C412 85.7493 411.809 85.3396 411.478 85.0619L403.892 78.6891C403.362 78.244 402.692 78 402 78C401.308 78 400.638 78.244 400.108 78.6891L392.522 85.0619C392.191 85.3396 392 85.7493 392 86.1811C392 86.4957 392.099 86.7871 392.268 87.0256C392.533 87.3991 392.969 87.6429 393.462 87.6429H394.143V93.2321C394.143 94.7608 395.382 96 396.911 96H398.321C399.071 96 399.679 95.3924 399.679 94.6429V91.5357C399.679 90.2536 400.718 89.2143 402 89.2143C403.282 89.2143 404.321 90.2536 404.321 91.5357V94.6429C404.321 95.3924 404.929 96 405.679 96Z" fill="#AC6DFF"/>
<path d="M433.679 96H435.089C436.618 96 437.857 94.7608 437.857 93.2321V87.6429H438.538C439.031 87.6429 439.467 87.3991 439.732 87.0256C439.901 86.7871 440 86.4957 440 86.1811C440 85.7493 439.809 85.3396 439.478 85.0619L431.892 78.6891C431.362 78.244 430.692 78 430 78C429.308 78 428.638 78.244 428.108 78.6891L420.522 85.0619C420.191 85.3396 420 85.7493 420 86.1811C420 86.4957 420.099 86.7871 420.268 87.0256C420.533 87.3991 420.969 87.6429 421.462 87.6429H422.143V93.2321C422.143 94.7608 423.382 96 424.911 96H426.321C427.071 96 427.679 95.3924 427.679 94.6429V91.5357C427.679 90.2536 428.718 89.2143 430 89.2143C431.282 89.2143 432.321 90.2536 432.321 91.5357V94.6429C432.321 95.3924 432.929 96 433.679 96Z" fill="#AC6DFF"/>
<path d="M461.679 96H463.089C464.618 96 465.857 94.7608 465.857 93.2321V87.6429H466.538C467.031 87.6429 467.467 87.3991 467.732 87.0256C467.901 86.7871 468 86.4957 468 86.1811C468 85.7493 467.809 85.3396 467.478 85.0619L459.892 78.6891C459.362 78.244 458.692 78 458 78C457.308 78 456.638 78.244 456.108 78.6891L448.522 85.0619C448.191 85.3396 448 85.7493 448 86.1811C448 86.4957 448.099 86.7871 448.268 87.0256C448.533 87.3991 448.969 87.6429 449.462 87.6429H450.143V93.2321C450.143 94.7608 451.382 96 452.911 96H454.321C455.071 96 455.679 95.3924 455.679 94.6429V91.5357C455.679 90.2536 456.718 89.2143 458 89.2143C459.282 89.2143 460.321 90.2536 460.321 91.5357V94.6429C460.321 95.3924 460.929 96 461.679 96Z" fill="#AC6DFF"/>
<path d="M489.679 96H491.089C492.618 96 493.857 94.7608 493.857 93.2321V87.6429H494.538C495.031 87.6429 495.467 87.3991 495.732 87.0256C495.901 86.7871 496 86.4957 496 86.1811C496 85.7493 495.809 85.3396 495.478 85.0619L487.892 78.6891C487.362 78.244 486.692 78 486 78C485.308 78 484.638 78.244 484.108 78.6891L476.522 85.0619C476.191 85.3396 476 85.7493 476 86.1811C476 86.4957 476.099 86.7871 476.268 87.0256C476.533 87.3991 476.969 87.6429 477.462 87.6429H478.143V93.2321C478.143 94.7608 479.382 96 480.911 96H482.321C483.071 96 483.679 95.3924 483.679 94.6429V91.5357C483.679 90.2536 484.718 89.2143 486 89.2143C487.282 89.2143 488.321 90.2536 488.321 91.5357V94.6429C488.321 95.3924 488.929 96 489.679 96Z" fill="#AC6DFF"/>
<path d="M517.679 96H519.089C520.618 96 521.857 94.7608 521.857 93.2321V87.6429H522.538C523.031 87.6429 523.467 87.3991 523.732 87.0256C523.901 86.7871 524 86.4957 524 86.1811C524 85.7493 523.809 85.3396 523.478 85.0619L515.892 78.6891C515.362 78.244 514.692 78 514 78C513.308 78 512.638 78.244 512.108 78.6891L504.522 85.0619C504.191 85.3396 504 85.7493 504 86.1811C504 86.4957 504.099 86.7871 504.268 87.0256C504.533 87.3991 504.969 87.6429 505.462 87.6429H506.143V93.2321C506.143 94.7608 507.382 96 508.911 96H510.321C511.071 96 511.679 95.3924 511.679 94.6429V91.5357C511.679 90.2536 512.718 89.2143 514 89.2143C515.282 89.2143 516.321 90.2536 516.321 91.5357V94.6429C516.321 95.3924 516.929 96 517.679 96Z" fill="#AC6DFF"/>
<path d="M545.679 96H547.089C548.618 96 549.857 94.7608 549.857 93.2321V87.6429H550.538C551.031 87.6429 551.467 87.3991 551.732 87.0256C551.901 86.7871 552 86.4957 552 86.1811C552 85.7493 551.809 85.3396 551.478 85.0619L543.892 78.6891C543.362 78.244 542.692 78 542 78C541.308 78 540.638 78.244 540.108 78.6891L532.522 85.0619C532.191 85.3396 532 85.7493 532 86.1811C532 86.4957 532.099 86.7871 532.268 87.0256C532.533 87.3991 532.969 87.6429 533.462 87.6429H534.143V93.2321C534.143 94.7608 535.382 96 536.911 96H538.321C539.071 96 539.679 95.3924 539.679 94.6429V91.5357C539.679 90.2536 540.718 89.2143 542 89.2143C543.282 89.2143 544.321 90.2536 544.321 91.5357V94.6429C544.321 95.3924 544.929 96 545.679 96Z" fill="#AC6DFF"/>
<path d="M13.6786 122H15.0893C16.6179 122 17.8571 120.761 17.8571 119.232V113.643H18.5383C19.031 113.643 19.4667 113.399 19.7315 113.026C19.9006 112.787 20 112.496 20 112.181C20 111.749 19.8091 111.34 19.4784 111.062L11.8918 104.689C11.3619 104.244 10.692 104 10 104C9.30796 104 8.63807 104.244 8.10817 104.689L0.521551 111.062C0.190918 111.34 0 111.749 0 112.181C0 112.496 0.0993848 112.787 0.26847 113.026C0.533274 113.399 0.969029 113.643 1.46172 113.643H2.14286V119.232C2.14286 120.761 3.38207 122 4.91071 122H6.32143C7.07096 122 7.67857 121.392 7.67857 120.643V117.536C7.67857 116.254 8.71791 115.214 10 115.214C11.2821 115.214 12.3214 116.254 12.3214 117.536V120.643C12.3214 121.392 12.929 122 13.6786 122Z" fill="#AC6DFF"/>
<path d="M41.6786 122H43.0893C44.6179 122 45.8571 120.761 45.8571 119.232V113.643H46.5383C47.031 113.643 47.4667 113.399 47.7315 113.026C47.9006 112.787 48 112.496 48 112.181C48 111.749 47.8091 111.34 47.4784 111.062L39.8918 104.689C39.3619 104.244 38.692 104 38 104C37.308 104 36.6381 104.244 36.1082 104.689L28.5216 111.062C28.1909 111.34 28 111.749 28 112.181C28 112.496 28.0994 112.787 28.2685 113.026C28.5333 113.399 28.969 113.643 29.4617 113.643H30.1429V119.232C30.1429 120.761 31.3821 122 32.9107 122H34.3214C35.071 122 35.6786 121.392 35.6786 120.643V117.536C35.6786 116.254 36.7179 115.214 38 115.214C39.2821 115.214 40.3214 116.254 40.3214 117.536V120.643C40.3214 121.392 40.929 122 41.6786 122Z" fill="#AC6DFF"/>
<path d="M69.6786 122H71.0893C72.6179 122 73.8571 120.761 73.8571 119.232V113.643H74.5383C75.031 113.643 75.4667 113.399 75.7315 113.026C75.9006 112.787 76 112.496 76 112.181C76 111.749 75.8091 111.34 75.4784 111.062L67.8918 104.689C67.3619 104.244 66.692 104 66 104C65.308 104 64.6381 104.244 64.1082 104.689L56.5216 111.062C56.1909 111.34 56 111.749 56 112.181C56 112.496 56.0994 112.787 56.2685 113.026C56.5333 113.399 56.969 113.643 57.4617 113.643H58.1429V119.232C58.1429 120.761 59.3821 122 60.9107 122H62.3214C63.071 122 63.6786 121.392 63.6786 120.643V117.536C63.6786 116.254 64.7179 115.214 66 115.214C67.2821 115.214 68.3214 116.254 68.3214 117.536V120.643C68.3214 121.392 68.929 122 69.6786 122Z" fill="#AC6DFF"/>
<path d="M97.6786 122H99.0893C100.618 122 101.857 120.761 101.857 119.232V113.643H102.538C103.031 113.643 103.467 113.399 103.732 113.026C103.901 112.787 104 112.496 104 112.181C104 111.749 103.809 111.34 103.478 111.062L95.8918 104.689C95.3619 104.244 94.692 104 94 104C93.308 104 92.6381 104.244 92.1082 104.689L84.5216 111.062C84.1909 111.34 84 111.749 84 112.181C84 112.496 84.0994 112.787 84.2685 113.026C84.5333 113.399 84.969 113.643 85.4617 113.643H86.1429V119.232C86.1429 120.761 87.3821 122 88.9107 122H90.3214C91.071 122 91.6786 121.392 91.6786 120.643V117.536C91.6786 116.254 92.7179 115.214 94 115.214C95.2821 115.214 96.3214 116.254 96.3214 117.536V120.643C96.3214 121.392 96.929 122 97.6786 122Z" fill="#AC6DFF"/>
<path d="M125.679 122H127.089C128.618 122 129.857 120.761 129.857 119.232V113.643H130.538C131.031 113.643 131.467 113.399 131.732 113.026C131.901 112.787 132 112.496 132 112.181C132 111.749 131.809 111.34 131.478 111.062L123.892 104.689C123.362 104.244 122.692 104 122 104C121.308 104 120.638 104.244 120.108 104.689L112.522 111.062C112.191 111.34 112 111.749 112 112.181C112 112.496 112.099 112.787 112.268 113.026C112.533 113.399 112.969 113.643 113.462 113.643H114.143V119.232C114.143 120.761 115.382 122 116.911 122H118.321C119.071 122 119.679 121.392 119.679 120.643V117.536C119.679 116.254 120.718 115.214 122 115.214C123.282 115.214 124.321 116.254 124.321 117.536V120.643C124.321 121.392 124.929 122 125.679 122Z" fill="#AC6DFF"/>
<path d="M153.679 122H155.089C156.618 122 157.857 120.761 157.857 119.232V113.643H158.538C159.031 113.643 159.467 113.399 159.732 113.026C159.901 112.787 160 112.496 160 112.181C160 111.749 159.809 111.34 159.478 111.062L151.892 104.689C151.362 104.244 150.692 104 150 104C149.308 104 148.638 104.244 148.108 104.689L140.522 111.062C140.191 111.34 140 111.749 140 112.181C140 112.496 140.099 112.787 140.268 113.026C140.533 113.399 140.969 113.643 141.462 113.643H142.143V119.232C142.143 120.761 143.382 122 144.911 122H146.321C147.071 122 147.679 121.392 147.679 120.643V117.536C147.679 116.254 148.718 115.214 150 115.214C151.282 115.214 152.321 116.254 152.321 117.536V120.643C152.321 121.392 152.929 122 153.679 122Z" fill="#AC6DFF"/>
<path d="M181.679 122H183.089C184.618 122 185.857 120.761 185.857 119.232V113.643H186.538C187.031 113.643 187.467 113.399 187.732 113.026C187.901 112.787 188 112.496 188 112.181C188 111.749 187.809 111.34 187.478 111.062L179.892 104.689C179.362 104.244 178.692 104 178 104C177.308 104 176.638 104.244 176.108 104.689L168.522 111.062C168.191 111.34 168 111.749 168 112.181C168 112.496 168.099 112.787 168.268 113.026C168.533 113.399 168.969 113.643 169.462 113.643H170.143V119.232C170.143 120.761 171.382 122 172.911 122H174.321C175.071 122 175.679 121.392 175.679 120.643V117.536C175.679 116.254 176.718 115.214 178 115.214C179.282 115.214 180.321 116.254 180.321 117.536V120.643C180.321 121.392 180.929 122 181.679 122Z" fill="#AC6DFF"/>
<path d="M209.679 122H211.089C212.618 122 213.857 120.761 213.857 119.232V113.643H214.538C215.031 113.643 215.467 113.399 215.732 113.026C215.901 112.787 216 112.496 216 112.181C216 111.749 215.809 111.34 215.478 111.062L207.892 104.689C207.362 104.244 206.692 104 206 104C205.308 104 204.638 104.244 204.108 104.689L196.522 111.062C196.191 111.34 196 111.749 196 112.181C196 112.496 196.099 112.787 196.268 113.026C196.533 113.399 196.969 113.643 197.462 113.643H198.143V119.232C198.143 120.761 199.382 122 200.911 122H202.321C203.071 122 203.679 121.392 203.679 120.643V117.536C203.679 116.254 204.718 115.214 206 115.214C207.282 115.214 208.321 116.254 208.321 117.536V120.643C208.321 121.392 208.929 122 209.679 122Z" fill="#AC6DFF"/>
<path d="M237.679 122H239.089C240.618 122 241.857 120.761 241.857 119.232V113.643H242.538C243.031 113.643 243.467 113.399 243.732 113.026C243.901 112.787 244 112.496 244 112.181C244 111.749 243.809 111.34 243.478 111.062L235.892 104.689C235.362 104.244 234.692 104 234 104C233.308 104 232.638 104.244 232.108 104.689L224.522 111.062C224.191 111.34 224 111.749 224 112.181C224 112.496 224.099 112.787 224.268 113.026C224.533 113.399 224.969 113.643 225.462 113.643H226.143V119.232C226.143 120.761 227.382 122 228.911 122H230.321C231.071 122 231.679 121.392 231.679 120.643V117.536C231.679 116.254 232.718 115.214 234 115.214C235.282 115.214 236.321 116.254 236.321 117.536V120.643C236.321 121.392 236.929 122 237.679 122Z" fill="#AC6DFF"/>
<path d="M265.679 122H267.089C268.618 122 269.857 120.761 269.857 119.232V113.643H270.538C271.031 113.643 271.467 113.399 271.732 113.026C271.901 112.787 272 112.496 272 112.181C272 111.749 271.809 111.34 271.478 111.062L263.892 104.689C263.362 104.244 262.692 104 262 104C261.308 104 260.638 104.244 260.108 104.689L252.522 111.062C252.191 111.34 252 111.749 252 112.181C252 112.496 252.099 112.787 252.268 113.026C252.533 113.399 252.969 113.643 253.462 113.643H254.143V119.232C254.143 120.761 255.382 122 256.911 122H258.321C259.071 122 259.679 121.392 259.679 120.643V117.536C259.679 116.254 260.718 115.214 262 115.214C263.282 115.214 264.321 116.254 264.321 117.536V120.643C264.321 121.392 264.929 122 265.679 122Z" fill="#AC6DFF"/>
<path d="M293.679 122H295.089C296.618 122 297.857 120.761 297.857 119.232V113.643H298.538C299.031 113.643 299.467 113.399 299.732 113.026C299.901 112.787 300 112.496 300 112.181C300 111.749 299.809 111.34 299.478 111.062L291.892 104.689C291.362 104.244 290.692 104 290 104C289.308 104 288.638 104.244 288.108 104.689L280.522 111.062C280.191 111.34 280 111.749 280 112.181C280 112.496 280.099 112.787 280.268 113.026C280.533 113.399 280.969 113.643 281.462 113.643H282.143V119.232C282.143 120.761 283.382 122 284.911 122H286.321C287.071 122 287.679 121.392 287.679 120.643V117.536C287.679 116.254 288.718 115.214 290 115.214C291.282 115.214 292.321 116.254 292.321 117.536V120.643C292.321 121.392 292.929 122 293.679 122Z" fill="#AC6DFF"/>
<path d="M321.679 122H323.089C324.618 122 325.857 120.761 325.857 119.232V113.643H326.538C327.031 113.643 327.467 113.399 327.732 113.026C327.901 112.787 328 112.496 328 112.181C328 111.749 327.809 111.34 327.478 111.062L319.892 104.689C319.362 104.244 318.692 104 318 104C317.308 104 316.638 104.244 316.108 104.689L308.522 111.062C308.191 111.34 308 111.749 308 112.181C308 112.496 308.099 112.787 308.268 113.026C308.533 113.399 308.969 113.643 309.462 113.643H310.143V119.232C310.143 120.761 311.382 122 312.911 122H314.321C315.071 122 315.679 121.392 315.679 120.643V117.536C315.679 116.254 316.718 115.214 318 115.214C319.282 115.214 320.321 116.254 320.321 117.536V120.643C320.321 121.392 320.929 122 321.679 122Z" fill="#AC6DFF"/>
<path d="M349.679 122H351.089C352.618 122 353.857 120.761 353.857 119.232V113.643H354.538C355.031 113.643 355.467 113.399 355.732 113.026C355.901 112.787 356 112.496 356 112.181C356 111.749 355.809 111.34 355.478 111.062L347.892 104.689C347.362 104.244 346.692 104 346 104C345.308 104 344.638 104.244 344.108 104.689L336.522 111.062C336.191 111.34 336 111.749 336 112.181C336 112.496 336.099 112.787 336.268 113.026C336.533 113.399 336.969 113.643 337.462 113.643H338.143V119.232C338.143 120.761 339.382 122 340.911 122H342.321C343.071 122 343.679 121.392 343.679 120.643V117.536C343.679 116.254 344.718 115.214 346 115.214C347.282 115.214 348.321 116.254 348.321 117.536V120.643C348.321 121.392 348.929 122 349.679 122Z" fill="#AC6DFF"/>
<path d="M377.679 122H379.089C380.618 122 381.857 120.761 381.857 119.232V113.643H382.538C383.031 113.643 383.467 113.399 383.732 113.026C383.901 112.787 384 112.496 384 112.181C384 111.749 383.809 111.34 383.478 111.062L375.892 104.689C375.362 104.244 374.692 104 374 104C373.308 104 372.638 104.244 372.108 104.689L364.522 111.062C364.191 111.34 364 111.749 364 112.181C364 112.496 364.099 112.787 364.268 113.026C364.533 113.399 364.969 113.643 365.462 113.643H366.143V119.232C366.143 120.761 367.382 122 368.911 122H370.321C371.071 122 371.679 121.392 371.679 120.643V117.536C371.679 116.254 372.718 115.214 374 115.214C375.282 115.214 376.321 116.254 376.321 117.536V120.643C376.321 121.392 376.929 122 377.679 122Z" fill="#AC6DFF"/>
<path d="M405.679 122H407.089C408.618 122 409.857 120.761 409.857 119.232V113.643H410.538C411.031 113.643 411.467 113.399 411.732 113.026C411.901 112.787 412 112.496 412 112.181C412 111.749 411.809 111.34 411.478 111.062L403.892 104.689C403.362 104.244 402.692 104 402 104C401.308 104 400.638 104.244 400.108 104.689L392.522 111.062C392.191 111.34 392 111.749 392 112.181C392 112.496 392.099 112.787 392.268 113.026C392.533 113.399 392.969 113.643 393.462 113.643H394.143V119.232C394.143 120.761 395.382 122 396.911 122H398.321C399.071 122 399.679 121.392 399.679 120.643V117.536C399.679 116.254 400.718 115.214 402 115.214C403.282 115.214 404.321 116.254 404.321 117.536V120.643C404.321 121.392 404.929 122 405.679 122Z" fill="#AC6DFF"/>
<path d="M433.679 122H435.089C436.618 122 437.857 120.761 437.857 119.232V113.643H438.538C439.031 113.643 439.467 113.399 439.732 113.026C439.901 112.787 440 112.496 440 112.181C440 111.749 439.809 111.34 439.478 111.062L431.892 104.689C431.362 104.244 430.692 104 430 104C429.308 104 428.638 104.244 428.108 104.689L420.522 111.062C420.191 111.34 420 111.749 420 112.181C420 112.496 420.099 112.787 420.268 113.026C420.533 113.399 420.969 113.643 421.462 113.643H422.143V119.232C422.143 120.761 423.382 122 424.911 122H426.321C427.071 122 427.679 121.392 427.679 120.643V117.536C427.679 116.254 428.718 115.214 430 115.214C431.282 115.214 432.321 116.254 432.321 117.536V120.643C432.321 121.392 432.929 122 433.679 122Z" fill="#AC6DFF"/>
<path d="M461.679 122H463.089C464.618 122 465.857 120.761 465.857 119.232V113.643H466.538C467.031 113.643 467.467 113.399 467.732 113.026C467.901 112.787 468 112.496 468 112.181C468 111.749 467.809 111.34 467.478 111.062L459.892 104.689C459.362 104.244 458.692 104 458 104C457.308 104 456.638 104.244 456.108 104.689L448.522 111.062C448.191 111.34 448 111.749 448 112.181C448 112.496 448.099 112.787 448.268 113.026C448.533 113.399 448.969 113.643 449.462 113.643H450.143V119.232C450.143 120.761 451.382 122 452.911 122H454.321C455.071 122 455.679 121.392 455.679 120.643V117.536C455.679 116.254 456.718 115.214 458 115.214C459.282 115.214 460.321 116.254 460.321 117.536V120.643C460.321 121.392 460.929 122 461.679 122Z" fill="#AC6DFF"/>
<path d="M489.679 122H491.089C492.618 122 493.857 120.761 493.857 119.232V113.643H494.538C495.031 113.643 495.467 113.399 495.732 113.026C495.901 112.787 496 112.496 496 112.181C496 111.749 495.809 111.34 495.478 111.062L487.892 104.689C487.362 104.244 486.692 104 486 104C485.308 104 484.638 104.244 484.108 104.689L476.522 111.062C476.191 111.34 476 111.749 476 112.181C476 112.496 476.099 112.787 476.268 113.026C476.533 113.399 476.969 113.643 477.462 113.643H478.143V119.232C478.143 120.761 479.382 122 480.911 122H482.321C483.071 122 483.679 121.392 483.679 120.643V117.536C483.679 116.254 484.718 115.214 486 115.214C487.282 115.214 488.321 116.254 488.321 117.536V120.643C488.321 121.392 488.929 122 489.679 122Z" fill="#AC6DFF"/>
<path d="M517.679 122H519.089C520.618 122 521.857 120.761 521.857 119.232V113.643H522.538C523.031 113.643 523.467 113.399 523.732 113.026C523.901 112.787 524 112.496 524 112.181C524 111.749 523.809 111.34 523.478 111.062L515.892 104.689C515.362 104.244 514.692 104 514 104C513.308 104 512.638 104.244 512.108 104.689L504.522 111.062C504.191 111.34 504 111.749 504 112.181C504 112.496 504.099 112.787 504.268 113.026C504.533 113.399 504.969 113.643 505.462 113.643H506.143V119.232C506.143 120.761 507.382 122 508.911 122H510.321C511.071 122 511.679 121.392 511.679 120.643V117.536C511.679 116.254 512.718 115.214 514 115.214C515.282 115.214 516.321 116.254 516.321 117.536V120.643C516.321 121.392 516.929 122 517.679 122Z" fill="#AC6DFF"/>
<path d="M545.679 122H547.089C548.618 122 549.857 120.761 549.857 119.232V113.643H550.538C551.031 113.643 551.467 113.399 551.732 113.026C551.901 112.787 552 112.496 552 112.181C552 111.749 551.809 111.34 551.478 111.062L543.892 104.689C543.362 104.244 542.692 104 542 104C541.308 104 540.638 104.244 540.108 104.689L532.522 111.062C532.191 111.34 532 111.749 532 112.181C532 112.496 532.099 112.787 532.268 113.026C532.533 113.399 532.969 113.643 533.462 113.643H534.143V119.232C534.143 120.761 535.382 122 536.911 122H538.321C539.071 122 539.679 121.392 539.679 120.643V117.536C539.679 116.254 540.718 115.214 542 115.214C543.282 115.214 544.321 116.254 544.321 117.536V120.643C544.321 121.392 544.929 122 545.679 122Z" fill="#AC6DFF"/>
</svg>
