<svg width="192" height="422" viewBox="0 0 192 422" fill="none" xmlns="http://www.w3.org/2000/svg">
<path d="M6 0C4.07143 0 2.57143 1.5 2.57143 3.42857C2.57143 5.35714 4.07143 6.85714 6 6.85714C7.92857 6.85714 9.42857 5.35714 9.42857 3.42857C9.42857 1.5 7.92857 0 6 0Z" fill="#AC6DFF"/>
<path d="M2.28571 8C1 8 0 9 0 10.2857V20.5714C0 21.2143 0.5 21.7143 1.14286 21.7143C1.24192 21.7143 1.3376 21.7024 1.42857 21.68L1.42857 33C1.42857 34.125 2.30357 35 3.42857 35C4.55357 35 5.42857 34.125 5.42857 33L5.42857 20C5.42857 19.6786 5.67857 19.4286 6 19.4286C6.32143 19.4286 6.57143 19.6786 6.57143 20L6.57143 33C6.57143 34.125 7.44643 35 8.57143 35C9.69643 35 10.5714 34.125 10.5714 33L10.5714 21.68C10.6624 21.7024 10.7581 21.7143 10.8571 21.7143C11.5 21.7143 12 21.2143 12 20.5714V10.2857C12 9 11 8 9.71428 8H2.28571Z" fill="#AC6DFF"/>
<path d="M26 0C24.0714 0 22.5714 1.5 22.5714 3.42857C22.5714 5.35714 24.0714 6.85714 26 6.85714C27.9286 6.85714 29.4286 5.35714 29.4286 3.42857C29.4286 1.5 27.9286 0 26 0Z" fill="#AC6DFF"/>
<path d="M22.2857 8C21 8 20 9 20 10.2857V20.5714C20 21.2143 20.5 21.7143 21.1429 21.7143C21.2419 21.7143 21.3376 21.7024 21.4286 21.68L21.4286 33C21.4286 34.125 22.3036 35 23.4286 35C24.5536 35 25.4286 34.125 25.4286 33L25.4286 20C25.4286 19.6786 25.6786 19.4286 26 19.4286C26.3214 19.4286 26.5714 19.6786 26.5714 20L26.5714 33C26.5714 34.125 27.4464 35 28.5714 35C29.6964 35 30.5714 34.125 30.5714 33L30.5714 21.68C30.6624 21.7024 30.7581 21.7143 30.8571 21.7143C31.5 21.7143 32 21.2143 32 20.5714V10.2857C32 9 31 8 29.7143 8H22.2857Z" fill="#AC6DFF"/>
<path d="M46 0C44.0714 0 42.5714 1.5 42.5714 3.42857C42.5714 5.35714 44.0714 6.85714 46 6.85714C47.9286 6.85714 49.4286 5.35714 49.4286 3.42857C49.4286 1.5 47.9286 0 46 0Z" fill="#AC6DFF"/>
<path d="M42.2857 8C41 8 40 9 40 10.2857V20.5714C40 21.2143 40.5 21.7143 41.1429 21.7143C41.2419 21.7143 41.3376 21.7024 41.4286 21.68L41.4286 33C41.4286 34.125 42.3036 35 43.4286 35C44.5536 35 45.4286 34.125 45.4286 33L45.4286 20C45.4286 19.6786 45.6786 19.4286 46 19.4286C46.3214 19.4286 46.5714 19.6786 46.5714 20L46.5714 33C46.5714 34.125 47.4464 35 48.5714 35C49.6964 35 50.5714 34.125 50.5714 33L50.5714 21.68C50.6624 21.7024 50.7581 21.7143 50.8571 21.7143C51.5 21.7143 52 21.2143 52 20.5714V10.2857C52 9 51 8 49.7143 8H42.2857Z" fill="#AC6DFF"/>
<path d="M66 0C64.0714 0 62.5714 1.5 62.5714 3.42857C62.5714 5.35714 64.0714 6.85714 66 6.85714C67.9286 6.85714 69.4286 5.35714 69.4286 3.42857C69.4286 1.5 67.9286 0 66 0Z" fill="#AC6DFF"/>
<path d="M62.2857 8C61 8 60 9 60 10.2857V20.5714C60 21.2143 60.5 21.7143 61.1429 21.7143C61.2419 21.7143 61.3376 21.7024 61.4286 21.68L61.4286 33C61.4286 34.125 62.3036 35 63.4286 35C64.5536 35 65.4286 34.125 65.4286 33L65.4286 20C65.4286 19.6786 65.6786 19.4286 66 19.4286C66.3214 19.4286 66.5714 19.6786 66.5714 20L66.5714 33C66.5714 34.125 67.4464 35 68.5714 35C69.6964 35 70.5714 34.125 70.5714 33L70.5714 21.68C70.6624 21.7024 70.7581 21.7143 70.8571 21.7143C71.5 21.7143 72 21.2143 72 20.5714V10.2857C72 9 71 8 69.7143 8H62.2857Z" fill="#AC6DFF"/>
<path d="M86 0C84.0714 0 82.5714 1.5 82.5714 3.42857C82.5714 5.35714 84.0714 6.85714 86 6.85714C87.9286 6.85714 89.4286 5.35714 89.4286 3.42857C89.4286 1.5 87.9286 0 86 0Z" fill="#AC6DFF"/>
<path d="M82.2857 8C81 8 80 9 80 10.2857V20.5714C80 21.2143 80.5 21.7143 81.1429 21.7143C81.2419 21.7143 81.3376 21.7024 81.4286 21.68L81.4286 33C81.4286 34.125 82.3036 35 83.4286 35C84.5536 35 85.4286 34.125 85.4286 33L85.4286 20C85.4286 19.6786 85.6786 19.4286 86 19.4286C86.3214 19.4286 86.5714 19.6786 86.5714 20L86.5714 33C86.5714 34.125 87.4464 35 88.5714 35C89.6964 35 90.5714 34.125 90.5714 33L90.5714 21.68C90.6624 21.7024 90.7581 21.7143 90.8571 21.7143C91.5 21.7143 92 21.2143 92 20.5714V10.2857C92 9 91 8 89.7143 8H82.2857Z" fill="#AC6DFF"/>
<path d="M106 0C104.071 0 102.571 1.5 102.571 3.42857C102.571 5.35714 104.071 6.85714 106 6.85714C107.929 6.85714 109.429 5.35714 109.429 3.42857C109.429 1.5 107.929 0 106 0Z" fill="#AC6DFF"/>
<path d="M102.286 8C101 8 100 9 100 10.2857V20.5714C100 21.2143 100.5 21.7143 101.143 21.7143C101.242 21.7143 101.338 21.7024 101.429 21.68L101.429 33C101.429 34.125 102.304 35 103.429 35C104.554 35 105.429 34.125 105.429 33L105.429 20C105.429 19.6786 105.679 19.4286 106 19.4286C106.321 19.4286 106.571 19.6786 106.571 20L106.571 33C106.571 34.125 107.446 35 108.571 35C109.696 35 110.571 34.125 110.571 33L110.571 21.68C110.662 21.7024 110.758 21.7143 110.857 21.7143C111.5 21.7143 112 21.2143 112 20.5714V10.2857C112 9 111 8 109.714 8H102.286Z" fill="#AC6DFF"/>
<path d="M126 0C124.071 0 122.571 1.5 122.571 3.42857C122.571 5.35714 124.071 6.85714 126 6.85714C127.929 6.85714 129.429 5.35714 129.429 3.42857C129.429 1.5 127.929 0 126 0Z" fill="#AC6DFF"/>
<path d="M122.286 8C121 8 120 9 120 10.2857V20.5714C120 21.2143 120.5 21.7143 121.143 21.7143C121.242 21.7143 121.338 21.7024 121.429 21.68L121.429 33C121.429 34.125 122.304 35 123.429 35C124.554 35 125.429 34.125 125.429 33L125.429 20C125.429 19.6786 125.679 19.4286 126 19.4286C126.321 19.4286 126.571 19.6786 126.571 20L126.571 33C126.571 34.125 127.446 35 128.571 35C129.696 35 130.571 34.125 130.571 33L130.571 21.68C130.662 21.7024 130.758 21.7143 130.857 21.7143C131.5 21.7143 132 21.2143 132 20.5714V10.2857C132 9 131 8 129.714 8H122.286Z" fill="#AC6DFF"/>
<path d="M146 0C144.071 0 142.571 1.5 142.571 3.42857C142.571 5.35714 144.071 6.85714 146 6.85714C147.929 6.85714 149.429 5.35714 149.429 3.42857C149.429 1.5 147.929 0 146 0Z" fill="#AC6DFF"/>
<path d="M142.286 8C141 8 140 9 140 10.2857V20.5714C140 21.2143 140.5 21.7143 141.143 21.7143C141.242 21.7143 141.338 21.7024 141.429 21.68L141.429 33C141.429 34.125 142.304 35 143.429 35C144.554 35 145.429 34.125 145.429 33L145.429 20C145.429 19.6786 145.679 19.4286 146 19.4286C146.321 19.4286 146.571 19.6786 146.571 20L146.571 33C146.571 34.125 147.446 35 148.571 35C149.696 35 150.571 34.125 150.571 33L150.571 21.68C150.662 21.7024 150.758 21.7143 150.857 21.7143C151.5 21.7143 152 21.2143 152 20.5714V10.2857C152 9 151 8 149.714 8H142.286Z" fill="#AC6DFF"/>
<path d="M166 0C164.071 0 162.571 1.5 162.571 3.42857C162.571 5.35714 164.071 6.85714 166 6.85714C167.929 6.85714 169.429 5.35714 169.429 3.42857C169.429 1.5 167.929 0 166 0Z" fill="#AC6DFF"/>
<path d="M162.286 8C161 8 160 9 160 10.2857V20.5714C160 21.2143 160.5 21.7143 161.143 21.7143C161.242 21.7143 161.338 21.7024 161.429 21.68L161.429 33C161.429 34.125 162.304 35 163.429 35C164.554 35 165.429 34.125 165.429 33L165.429 20C165.429 19.6786 165.679 19.4286 166 19.4286C166.321 19.4286 166.571 19.6786 166.571 20L166.571 33C166.571 34.125 167.446 35 168.571 35C169.696 35 170.571 34.125 170.571 33L170.571 21.68C170.662 21.7024 170.758 21.7143 170.857 21.7143C171.5 21.7143 172 21.2143 172 20.5714V10.2857C172 9 171 8 169.714 8H162.286Z" fill="#AC6DFF"/>
<path d="M186 0C184.071 0 182.571 1.5 182.571 3.42857C182.571 5.35714 184.071 6.85714 186 6.85714C187.929 6.85714 189.429 5.35714 189.429 3.42857C189.429 1.5 187.929 0 186 0Z" fill="#AC6DFF"/>
<path d="M182.286 8C181 8 180 9 180 10.2857V20.5714C180 21.2143 180.5 21.7143 181.143 21.7143C181.242 21.7143 181.338 21.7024 181.429 21.68L181.429 33C181.429 34.125 182.304 35 183.429 35C184.554 35 185.429 34.125 185.429 33L185.429 20C185.429 19.6786 185.679 19.4286 186 19.4286C186.321 19.4286 186.571 19.6786 186.571 20L186.571 33C186.571 34.125 187.446 35 188.571 35C189.696 35 190.571 34.125 190.571 33L190.571 21.68C190.662 21.7024 190.758 21.7143 190.857 21.7143C191.5 21.7143 192 21.2143 192 20.5714V10.2857C192 9 191 8 189.714 8H182.286Z" fill="#AC6DFF"/>
<path d="M6 43C4.07143 43 2.57143 44.5 2.57143 46.4286C2.57143 48.3571 4.07143 49.8571 6 49.8571C7.92857 49.8571 9.42857 48.3571 9.42857 46.4286C9.42857 44.5 7.92857 43 6 43Z" fill="#AC6DFF"/>
<path d="M2.28571 51C1 51 0 52 0 53.2857V63.5714C0 64.2143 0.5 64.7143 1.14286 64.7143C1.24192 64.7143 1.3376 64.7024 1.42857 64.68L1.42857 76C1.42857 77.125 2.30357 78 3.42857 78C4.55357 78 5.42857 77.125 5.42857 76L5.42857 63C5.42857 62.6786 5.67857 62.4286 6 62.4286C6.32143 62.4286 6.57143 62.6786 6.57143 63L6.57143 76C6.57143 77.125 7.44643 78 8.57143 78C9.69643 78 10.5714 77.125 10.5714 76L10.5714 64.68C10.6624 64.7024 10.7581 64.7143 10.8571 64.7143C11.5 64.7143 12 64.2143 12 63.5714V53.2857C12 52 11 51 9.71428 51H2.28571Z" fill="#AC6DFF"/>
<path d="M26 43C24.0714 43 22.5714 44.5 22.5714 46.4286C22.5714 48.3571 24.0714 49.8571 26 49.8571C27.9286 49.8571 29.4286 48.3571 29.4286 46.4286C29.4286 44.5 27.9286 43 26 43Z" fill="#AC6DFF"/>
<path d="M22.2857 51C21 51 20 52 20 53.2857V63.5714C20 64.2143 20.5 64.7143 21.1429 64.7143C21.2419 64.7143 21.3376 64.7024 21.4286 64.68L21.4286 76C21.4286 77.125 22.3036 78 23.4286 78C24.5536 78 25.4286 77.125 25.4286 76L25.4286 63C25.4286 62.6786 25.6786 62.4286 26 62.4286C26.3214 62.4286 26.5714 62.6786 26.5714 63L26.5714 76C26.5714 77.125 27.4464 78 28.5714 78C29.6964 78 30.5714 77.125 30.5714 76L30.5714 64.68C30.6624 64.7024 30.7581 64.7143 30.8571 64.7143C31.5 64.7143 32 64.2143 32 63.5714V53.2857C32 52 31 51 29.7143 51H22.2857Z" fill="#AC6DFF"/>
<path d="M46 43C44.0714 43 42.5714 44.5 42.5714 46.4286C42.5714 48.3571 44.0714 49.8571 46 49.8571C47.9286 49.8571 49.4286 48.3571 49.4286 46.4286C49.4286 44.5 47.9286 43 46 43Z" fill="#AC6DFF"/>
<path d="M42.2857 51C41 51 40 52 40 53.2857V63.5714C40 64.2143 40.5 64.7143 41.1429 64.7143C41.2419 64.7143 41.3376 64.7024 41.4286 64.68L41.4286 76C41.4286 77.125 42.3036 78 43.4286 78C44.5536 78 45.4286 77.125 45.4286 76L45.4286 63C45.4286 62.6786 45.6786 62.4286 46 62.4286C46.3214 62.4286 46.5714 62.6786 46.5714 63L46.5714 76C46.5714 77.125 47.4464 78 48.5714 78C49.6964 78 50.5714 77.125 50.5714 76L50.5714 64.68C50.6624 64.7024 50.7581 64.7143 50.8571 64.7143C51.5 64.7143 52 64.2143 52 63.5714V53.2857C52 52 51 51 49.7143 51H42.2857Z" fill="#AC6DFF"/>
<path d="M66 43C64.0714 43 62.5714 44.5 62.5714 46.4286C62.5714 48.3571 64.0714 49.8571 66 49.8571C67.9286 49.8571 69.4286 48.3571 69.4286 46.4286C69.4286 44.5 67.9286 43 66 43Z" fill="#AC6DFF"/>
<path d="M62.2857 51C61 51 60 52 60 53.2857V63.5714C60 64.2143 60.5 64.7143 61.1429 64.7143C61.2419 64.7143 61.3376 64.7024 61.4286 64.68L61.4286 76C61.4286 77.125 62.3036 78 63.4286 78C64.5536 78 65.4286 77.125 65.4286 76L65.4286 63C65.4286 62.6786 65.6786 62.4286 66 62.4286C66.3214 62.4286 66.5714 62.6786 66.5714 63L66.5714 76C66.5714 77.125 67.4464 78 68.5714 78C69.6964 78 70.5714 77.125 70.5714 76L70.5714 64.68C70.6624 64.7024 70.7581 64.7143 70.8571 64.7143C71.5 64.7143 72 64.2143 72 63.5714V53.2857C72 52 71 51 69.7143 51H62.2857Z" fill="#AC6DFF"/>
<path d="M86 43C84.0714 43 82.5714 44.5 82.5714 46.4286C82.5714 48.3571 84.0714 49.8571 86 49.8571C87.9286 49.8571 89.4286 48.3571 89.4286 46.4286C89.4286 44.5 87.9286 43 86 43Z" fill="#AC6DFF"/>
<path d="M82.2857 51C81 51 80 52 80 53.2857V63.5714C80 64.2143 80.5 64.7143 81.1429 64.7143C81.2419 64.7143 81.3376 64.7024 81.4286 64.68L81.4286 76C81.4286 77.125 82.3036 78 83.4286 78C84.5536 78 85.4286 77.125 85.4286 76L85.4286 63C85.4286 62.6786 85.6786 62.4286 86 62.4286C86.3214 62.4286 86.5714 62.6786 86.5714 63L86.5714 76C86.5714 77.125 87.4464 78 88.5714 78C89.6964 78 90.5714 77.125 90.5714 76L90.5714 64.68C90.6624 64.7024 90.7581 64.7143 90.8571 64.7143C91.5 64.7143 92 64.2143 92 63.5714V53.2857C92 52 91 51 89.7143 51H82.2857Z" fill="#AC6DFF"/>
<path d="M106 43C104.071 43 102.571 44.5 102.571 46.4286C102.571 48.3571 104.071 49.8571 106 49.8571C107.929 49.8571 109.429 48.3571 109.429 46.4286C109.429 44.5 107.929 43 106 43Z" fill="#AC6DFF"/>
<path d="M102.286 51C101 51 100 52 100 53.2857V63.5714C100 64.2143 100.5 64.7143 101.143 64.7143C101.242 64.7143 101.338 64.7024 101.429 64.68L101.429 76C101.429 77.125 102.304 78 103.429 78C104.554 78 105.429 77.125 105.429 76L105.429 63C105.429 62.6786 105.679 62.4286 106 62.4286C106.321 62.4286 106.571 62.6786 106.571 63L106.571 76C106.571 77.125 107.446 78 108.571 78C109.696 78 110.571 77.125 110.571 76L110.571 64.68C110.662 64.7024 110.758 64.7143 110.857 64.7143C111.5 64.7143 112 64.2143 112 63.5714V53.2857C112 52 111 51 109.714 51H102.286Z" fill="#AC6DFF"/>
<path d="M126 43C124.071 43 122.571 44.5 122.571 46.4286C122.571 48.3571 124.071 49.8571 126 49.8571C127.929 49.8571 129.429 48.3571 129.429 46.4286C129.429 44.5 127.929 43 126 43Z" fill="#AC6DFF"/>
<path d="M122.286 51C121 51 120 52 120 53.2857V63.5714C120 64.2143 120.5 64.7143 121.143 64.7143C121.242 64.7143 121.338 64.7024 121.429 64.68L121.429 76C121.429 77.125 122.304 78 123.429 78C124.554 78 125.429 77.125 125.429 76L125.429 63C125.429 62.6786 125.679 62.4286 126 62.4286C126.321 62.4286 126.571 62.6786 126.571 63L126.571 76C126.571 77.125 127.446 78 128.571 78C129.696 78 130.571 77.125 130.571 76L130.571 64.68C130.662 64.7024 130.758 64.7143 130.857 64.7143C131.5 64.7143 132 64.2143 132 63.5714V53.2857C132 52 131 51 129.714 51H122.286Z" fill="#AC6DFF"/>
<path d="M146 43C144.071 43 142.571 44.5 142.571 46.4286C142.571 48.3571 144.071 49.8571 146 49.8571C147.929 49.8571 149.429 48.3571 149.429 46.4286C149.429 44.5 147.929 43 146 43Z" fill="#AC6DFF"/>
<path d="M142.286 51C141 51 140 52 140 53.2857V63.5714C140 64.2143 140.5 64.7143 141.143 64.7143C141.242 64.7143 141.338 64.7024 141.429 64.68L141.429 76C141.429 77.125 142.304 78 143.429 78C144.554 78 145.429 77.125 145.429 76L145.429 63C145.429 62.6786 145.679 62.4286 146 62.4286C146.321 62.4286 146.571 62.6786 146.571 63L146.571 76C146.571 77.125 147.446 78 148.571 78C149.696 78 150.571 77.125 150.571 76L150.571 64.68C150.662 64.7024 150.758 64.7143 150.857 64.7143C151.5 64.7143 152 64.2143 152 63.5714V53.2857C152 52 151 51 149.714 51H142.286Z" fill="#AC6DFF"/>
<path d="M166 43C164.071 43 162.571 44.5 162.571 46.4286C162.571 48.3571 164.071 49.8571 166 49.8571C167.929 49.8571 169.429 48.3571 169.429 46.4286C169.429 44.5 167.929 43 166 43Z" fill="#AC6DFF"/>
<path d="M162.286 51C161 51 160 52 160 53.2857V63.5714C160 64.2143 160.5 64.7143 161.143 64.7143C161.242 64.7143 161.338 64.7024 161.429 64.68L161.429 76C161.429 77.125 162.304 78 163.429 78C164.554 78 165.429 77.125 165.429 76L165.429 63C165.429 62.6786 165.679 62.4286 166 62.4286C166.321 62.4286 166.571 62.6786 166.571 63L166.571 76C166.571 77.125 167.446 78 168.571 78C169.696 78 170.571 77.125 170.571 76L170.571 64.68C170.662 64.7024 170.758 64.7143 170.857 64.7143C171.5 64.7143 172 64.2143 172 63.5714V53.2857C172 52 171 51 169.714 51H162.286Z" fill="#AC6DFF"/>
<path d="M186 43C184.071 43 182.571 44.5 182.571 46.4286C182.571 48.3571 184.071 49.8571 186 49.8571C187.929 49.8571 189.429 48.3571 189.429 46.4286C189.429 44.5 187.929 43 186 43Z" fill="#AC6DFF"/>
<path d="M182.286 51C181 51 180 52 180 53.2857V63.5714C180 64.2143 180.5 64.7143 181.143 64.7143C181.242 64.7143 181.338 64.7024 181.429 64.68L181.429 76C181.429 77.125 182.304 78 183.429 78C184.554 78 185.429 77.125 185.429 76L185.429 63C185.429 62.6786 185.679 62.4286 186 62.4286C186.321 62.4286 186.571 62.6786 186.571 63L186.571 76C186.571 77.125 187.446 78 188.571 78C189.696 78 190.571 77.125 190.571 76L190.571 64.68C190.662 64.7024 190.758 64.7143 190.857 64.7143C191.5 64.7143 192 64.2143 192 63.5714V53.2857C192 52 191 51 189.714 51H182.286Z" fill="#AC6DFF"/>
<path d="M6 86C4.07143 86 2.57143 87.5 2.57143 89.4286C2.57143 91.3571 4.07143 92.8571 6 92.8571C7.92857 92.8571 9.42857 91.3571 9.42857 89.4286C9.42857 87.5 7.92857 86 6 86Z" fill="#AC6DFF"/>
<path d="M2.28571 94C1 94 0 95 0 96.2857V106.571C0 107.214 0.5 107.714 1.14286 107.714C1.24192 107.714 1.3376 107.702 1.42857 107.68L1.42857 119C1.42857 120.125 2.30357 121 3.42857 121C4.55357 121 5.42857 120.125 5.42857 119L5.42857 106C5.42857 105.679 5.67857 105.429 6 105.429C6.32143 105.429 6.57143 105.679 6.57143 106L6.57143 119C6.57143 120.125 7.44643 121 8.57143 121C9.69643 121 10.5714 120.125 10.5714 119L10.5714 107.68C10.6624 107.702 10.7581 107.714 10.8571 107.714C11.5 107.714 12 107.214 12 106.571V96.2857C12 95 11 94 9.71428 94H2.28571Z" fill="#AC6DFF"/>
<path d="M26 86C24.0714 86 22.5714 87.5 22.5714 89.4286C22.5714 91.3571 24.0714 92.8571 26 92.8571C27.9286 92.8571 29.4286 91.3571 29.4286 89.4286C29.4286 87.5 27.9286 86 26 86Z" fill="#AC6DFF"/>
<path d="M22.2857 94C21 94 20 95 20 96.2857V106.571C20 107.214 20.5 107.714 21.1429 107.714C21.2419 107.714 21.3376 107.702 21.4286 107.68L21.4286 119C21.4286 120.125 22.3036 121 23.4286 121C24.5536 121 25.4286 120.125 25.4286 119L25.4286 106C25.4286 105.679 25.6786 105.429 26 105.429C26.3214 105.429 26.5714 105.679 26.5714 106L26.5714 119C26.5714 120.125 27.4464 121 28.5714 121C29.6964 121 30.5714 120.125 30.5714 119L30.5714 107.68C30.6624 107.702 30.7581 107.714 30.8571 107.714C31.5 107.714 32 107.214 32 106.571V96.2857C32 95 31 94 29.7143 94H22.2857Z" fill="#AC6DFF"/>
<path d="M46 86C44.0714 86 42.5714 87.5 42.5714 89.4286C42.5714 91.3571 44.0714 92.8571 46 92.8571C47.9286 92.8571 49.4286 91.3571 49.4286 89.4286C49.4286 87.5 47.9286 86 46 86Z" fill="#AC6DFF"/>
<path d="M42.2857 94C41 94 40 95 40 96.2857V106.571C40 107.214 40.5 107.714 41.1429 107.714C41.2419 107.714 41.3376 107.702 41.4286 107.68L41.4286 119C41.4286 120.125 42.3036 121 43.4286 121C44.5536 121 45.4286 120.125 45.4286 119L45.4286 106C45.4286 105.679 45.6786 105.429 46 105.429C46.3214 105.429 46.5714 105.679 46.5714 106L46.5714 119C46.5714 120.125 47.4464 121 48.5714 121C49.6964 121 50.5714 120.125 50.5714 119L50.5714 107.68C50.6624 107.702 50.7581 107.714 50.8571 107.714C51.5 107.714 52 107.214 52 106.571V96.2857C52 95 51 94 49.7143 94H42.2857Z" fill="#AC6DFF"/>
<path d="M66 86C64.0714 86 62.5714 87.5 62.5714 89.4286C62.5714 91.3571 64.0714 92.8571 66 92.8571C67.9286 92.8571 69.4286 91.3571 69.4286 89.4286C69.4286 87.5 67.9286 86 66 86Z" fill="#AC6DFF"/>
<path d="M62.2857 94C61 94 60 95 60 96.2857V106.571C60 107.214 60.5 107.714 61.1429 107.714C61.2419 107.714 61.3376 107.702 61.4286 107.68L61.4286 119C61.4286 120.125 62.3036 121 63.4286 121C64.5536 121 65.4286 120.125 65.4286 119L65.4286 106C65.4286 105.679 65.6786 105.429 66 105.429C66.3214 105.429 66.5714 105.679 66.5714 106L66.5714 119C66.5714 120.125 67.4464 121 68.5714 121C69.6964 121 70.5714 120.125 70.5714 119L70.5714 107.68C70.6624 107.702 70.7581 107.714 70.8571 107.714C71.5 107.714 72 107.214 72 106.571V96.2857C72 95 71 94 69.7143 94H62.2857Z" fill="#AC6DFF"/>
<path d="M86 86C84.0714 86 82.5714 87.5 82.5714 89.4286C82.5714 91.3571 84.0714 92.8571 86 92.8571C87.9286 92.8571 89.4286 91.3571 89.4286 89.4286C89.4286 87.5 87.9286 86 86 86Z" fill="#AC6DFF"/>
<path d="M82.2857 94C81 94 80 95 80 96.2857V106.571C80 107.214 80.5 107.714 81.1429 107.714C81.2419 107.714 81.3376 107.702 81.4286 107.68L81.4286 119C81.4286 120.125 82.3036 121 83.4286 121C84.5536 121 85.4286 120.125 85.4286 119L85.4286 106C85.4286 105.679 85.6786 105.429 86 105.429C86.3214 105.429 86.5714 105.679 86.5714 106L86.5714 119C86.5714 120.125 87.4464 121 88.5714 121C89.6964 121 90.5714 120.125 90.5714 119L90.5714 107.68C90.6624 107.702 90.7581 107.714 90.8571 107.714C91.5 107.714 92 107.214 92 106.571V96.2857C92 95 91 94 89.7143 94H82.2857Z" fill="#AC6DFF"/>
<path d="M106 86C104.071 86 102.571 87.5 102.571 89.4286C102.571 91.3571 104.071 92.8571 106 92.8571C107.929 92.8571 109.429 91.3571 109.429 89.4286C109.429 87.5 107.929 86 106 86Z" fill="#AC6DFF"/>
<path d="M102.286 94C101 94 100 95 100 96.2857V106.571C100 107.214 100.5 107.714 101.143 107.714C101.242 107.714 101.338 107.702 101.429 107.68L101.429 119C101.429 120.125 102.304 121 103.429 121C104.554 121 105.429 120.125 105.429 119L105.429 106C105.429 105.679 105.679 105.429 106 105.429C106.321 105.429 106.571 105.679 106.571 106L106.571 119C106.571 120.125 107.446 121 108.571 121C109.696 121 110.571 120.125 110.571 119L110.571 107.68C110.662 107.702 110.758 107.714 110.857 107.714C111.5 107.714 112 107.214 112 106.571V96.2857C112 95 111 94 109.714 94H102.286Z" fill="#AC6DFF"/>
<path d="M126 86C124.071 86 122.571 87.5 122.571 89.4286C122.571 91.3571 124.071 92.8571 126 92.8571C127.929 92.8571 129.429 91.3571 129.429 89.4286C129.429 87.5 127.929 86 126 86Z" fill="#AC6DFF"/>
<path d="M122.286 94C121 94 120 95 120 96.2857V106.571C120 107.214 120.5 107.714 121.143 107.714C121.242 107.714 121.338 107.702 121.429 107.68L121.429 119C121.429 120.125 122.304 121 123.429 121C124.554 121 125.429 120.125 125.429 119L125.429 106C125.429 105.679 125.679 105.429 126 105.429C126.321 105.429 126.571 105.679 126.571 106L126.571 119C126.571 120.125 127.446 121 128.571 121C129.696 121 130.571 120.125 130.571 119L130.571 107.68C130.662 107.702 130.758 107.714 130.857 107.714C131.5 107.714 132 107.214 132 106.571V96.2857C132 95 131 94 129.714 94H122.286Z" fill="#AC6DFF"/>
<path d="M146 86C144.071 86 142.571 87.5 142.571 89.4286C142.571 91.3571 144.071 92.8571 146 92.8571C147.929 92.8571 149.429 91.3571 149.429 89.4286C149.429 87.5 147.929 86 146 86Z" fill="#AC6DFF"/>
<path d="M142.286 94C141 94 140 95 140 96.2857V106.571C140 107.214 140.5 107.714 141.143 107.714C141.242 107.714 141.338 107.702 141.429 107.68L141.429 119C141.429 120.125 142.304 121 143.429 121C144.554 121 145.429 120.125 145.429 119L145.429 106C145.429 105.679 145.679 105.429 146 105.429C146.321 105.429 146.571 105.679 146.571 106L146.571 119C146.571 120.125 147.446 121 148.571 121C149.696 121 150.571 120.125 150.571 119L150.571 107.68C150.662 107.702 150.758 107.714 150.857 107.714C151.5 107.714 152 107.214 152 106.571V96.2857C152 95 151 94 149.714 94H142.286Z" fill="#AC6DFF"/>
<path d="M166 86C164.071 86 162.571 87.5 162.571 89.4286C162.571 91.3571 164.071 92.8571 166 92.8571C167.929 92.8571 169.429 91.3571 169.429 89.4286C169.429 87.5 167.929 86 166 86Z" fill="#AC6DFF"/>
<path d="M162.286 94C161 94 160 95 160 96.2857V106.571C160 107.214 160.5 107.714 161.143 107.714C161.242 107.714 161.338 107.702 161.429 107.68L161.429 119C161.429 120.125 162.304 121 163.429 121C164.554 121 165.429 120.125 165.429 119L165.429 106C165.429 105.679 165.679 105.429 166 105.429C166.321 105.429 166.571 105.679 166.571 106L166.571 119C166.571 120.125 167.446 121 168.571 121C169.696 121 170.571 120.125 170.571 119L170.571 107.68C170.662 107.702 170.758 107.714 170.857 107.714C171.5 107.714 172 107.214 172 106.571V96.2857C172 95 171 94 169.714 94H162.286Z" fill="#AC6DFF"/>
<path d="M186 86C184.071 86 182.571 87.5 182.571 89.4286C182.571 91.3571 184.071 92.8571 186 92.8571C187.929 92.8571 189.429 91.3571 189.429 89.4286C189.429 87.5 187.929 86 186 86Z" fill="#AC6DFF"/>
<path d="M182.286 94C181 94 180 95 180 96.2857V106.571C180 107.214 180.5 107.714 181.143 107.714C181.242 107.714 181.338 107.702 181.429 107.68L181.429 119C181.429 120.125 182.304 121 183.429 121C184.554 121 185.429 120.125 185.429 119L185.429 106C185.429 105.679 185.679 105.429 186 105.429C186.321 105.429 186.571 105.679 186.571 106L186.571 119C186.571 120.125 187.446 121 188.571 121C189.696 121 190.571 120.125 190.571 119L190.571 107.68C190.662 107.702 190.758 107.714 190.857 107.714C191.5 107.714 192 107.214 192 106.571V96.2857C192 95 191 94 189.714 94H182.286Z" fill="#AC6DFF"/>
<path d="M6 129C4.07143 129 2.57143 130.5 2.57143 132.429C2.57143 134.357 4.07143 135.857 6 135.857C7.92857 135.857 9.42857 134.357 9.42857 132.429C9.42857 130.5 7.92857 129 6 129Z" fill="#AC6DFF"/>
<path d="M2.28571 137C1 137 0 138 0 139.286V149.571C0 150.214 0.5 150.714 1.14286 150.714C1.24192 150.714 1.3376 150.702 1.42857 150.68L1.42857 162C1.42857 163.125 2.30357 164 3.42857 164C4.55357 164 5.42857 163.125 5.42857 162L5.42857 149C5.42857 148.679 5.67857 148.429 6 148.429C6.32143 148.429 6.57143 148.679 6.57143 149L6.57143 162C6.57143 163.125 7.44643 164 8.57143 164C9.69643 164 10.5714 163.125 10.5714 162L10.5714 150.68C10.6624 150.702 10.7581 150.714 10.8571 150.714C11.5 150.714 12 150.214 12 149.571V139.286C12 138 11 137 9.71428 137H2.28571Z" fill="#AC6DFF"/>
<path d="M26 129C24.0714 129 22.5714 130.5 22.5714 132.429C22.5714 134.357 24.0714 135.857 26 135.857C27.9286 135.857 29.4286 134.357 29.4286 132.429C29.4286 130.5 27.9286 129 26 129Z" fill="#AC6DFF"/>
<path d="M22.2857 137C21 137 20 138 20 139.286V149.571C20 150.214 20.5 150.714 21.1429 150.714C21.2419 150.714 21.3376 150.702 21.4286 150.68L21.4286 162C21.4286 163.125 22.3036 164 23.4286 164C24.5536 164 25.4286 163.125 25.4286 162L25.4286 149C25.4286 148.679 25.6786 148.429 26 148.429C26.3214 148.429 26.5714 148.679 26.5714 149L26.5714 162C26.5714 163.125 27.4464 164 28.5714 164C29.6964 164 30.5714 163.125 30.5714 162L30.5714 150.68C30.6624 150.702 30.7581 150.714 30.8571 150.714C31.5 150.714 32 150.214 32 149.571V139.286C32 138 31 137 29.7143 137H22.2857Z" fill="#AC6DFF"/>
<path d="M46 129C44.0714 129 42.5714 130.5 42.5714 132.429C42.5714 134.357 44.0714 135.857 46 135.857C47.9286 135.857 49.4286 134.357 49.4286 132.429C49.4286 130.5 47.9286 129 46 129Z" fill="#AC6DFF"/>
<path d="M42.2857 137C41 137 40 138 40 139.286V149.571C40 150.214 40.5 150.714 41.1429 150.714C41.2419 150.714 41.3376 150.702 41.4286 150.68L41.4286 162C41.4286 163.125 42.3036 164 43.4286 164C44.5536 164 45.4286 163.125 45.4286 162L45.4286 149C45.4286 148.679 45.6786 148.429 46 148.429C46.3214 148.429 46.5714 148.679 46.5714 149L46.5714 162C46.5714 163.125 47.4464 164 48.5714 164C49.6964 164 50.5714 163.125 50.5714 162L50.5714 150.68C50.6624 150.702 50.7581 150.714 50.8571 150.714C51.5 150.714 52 150.214 52 149.571V139.286C52 138 51 137 49.7143 137H42.2857Z" fill="#AC6DFF"/>
<path d="M66 129C64.0714 129 62.5714 130.5 62.5714 132.429C62.5714 134.357 64.0714 135.857 66 135.857C67.9286 135.857 69.4286 134.357 69.4286 132.429C69.4286 130.5 67.9286 129 66 129Z" fill="#AC6DFF"/>
<path d="M62.2857 137C61 137 60 138 60 139.286V149.571C60 150.214 60.5 150.714 61.1429 150.714C61.2419 150.714 61.3376 150.702 61.4286 150.68L61.4286 162C61.4286 163.125 62.3036 164 63.4286 164C64.5536 164 65.4286 163.125 65.4286 162L65.4286 149C65.4286 148.679 65.6786 148.429 66 148.429C66.3214 148.429 66.5714 148.679 66.5714 149L66.5714 162C66.5714 163.125 67.4464 164 68.5714 164C69.6964 164 70.5714 163.125 70.5714 162L70.5714 150.68C70.6624 150.702 70.7581 150.714 70.8571 150.714C71.5 150.714 72 150.214 72 149.571V139.286C72 138 71 137 69.7143 137H62.2857Z" fill="#AC6DFF"/>
<path d="M86 129C84.0714 129 82.5714 130.5 82.5714 132.429C82.5714 134.357 84.0714 135.857 86 135.857C87.9286 135.857 89.4286 134.357 89.4286 132.429C89.4286 130.5 87.9286 129 86 129Z" fill="#AC6DFF"/>
<path d="M82.2857 137C81 137 80 138 80 139.286V149.571C80 150.214 80.5 150.714 81.1429 150.714C81.2419 150.714 81.3376 150.702 81.4286 150.68L81.4286 162C81.4286 163.125 82.3036 164 83.4286 164C84.5536 164 85.4286 163.125 85.4286 162L85.4286 149C85.4286 148.679 85.6786 148.429 86 148.429C86.3214 148.429 86.5714 148.679 86.5714 149L86.5714 162C86.5714 163.125 87.4464 164 88.5714 164C89.6964 164 90.5714 163.125 90.5714 162L90.5714 150.68C90.6624 150.702 90.7581 150.714 90.8571 150.714C91.5 150.714 92 150.214 92 149.571V139.286C92 138 91 137 89.7143 137H82.2857Z" fill="#AC6DFF"/>
<path d="M106 129C104.071 129 102.571 130.5 102.571 132.429C102.571 134.357 104.071 135.857 106 135.857C107.929 135.857 109.429 134.357 109.429 132.429C109.429 130.5 107.929 129 106 129Z" fill="#AC6DFF"/>
<path d="M102.286 137C101 137 100 138 100 139.286V149.571C100 150.214 100.5 150.714 101.143 150.714C101.242 150.714 101.338 150.702 101.429 150.68L101.429 162C101.429 163.125 102.304 164 103.429 164C104.554 164 105.429 163.125 105.429 162L105.429 149C105.429 148.679 105.679 148.429 106 148.429C106.321 148.429 106.571 148.679 106.571 149L106.571 162C106.571 163.125 107.446 164 108.571 164C109.696 164 110.571 163.125 110.571 162L110.571 150.68C110.662 150.702 110.758 150.714 110.857 150.714C111.5 150.714 112 150.214 112 149.571V139.286C112 138 111 137 109.714 137H102.286Z" fill="#AC6DFF"/>
<path d="M126 129C124.071 129 122.571 130.5 122.571 132.429C122.571 134.357 124.071 135.857 126 135.857C127.929 135.857 129.429 134.357 129.429 132.429C129.429 130.5 127.929 129 126 129Z" fill="#AC6DFF"/>
<path d="M122.286 137C121 137 120 138 120 139.286V149.571C120 150.214 120.5 150.714 121.143 150.714C121.242 150.714 121.338 150.702 121.429 150.68L121.429 162C121.429 163.125 122.304 164 123.429 164C124.554 164 125.429 163.125 125.429 162L125.429 149C125.429 148.679 125.679 148.429 126 148.429C126.321 148.429 126.571 148.679 126.571 149L126.571 162C126.571 163.125 127.446 164 128.571 164C129.696 164 130.571 163.125 130.571 162L130.571 150.68C130.662 150.702 130.758 150.714 130.857 150.714C131.5 150.714 132 150.214 132 149.571V139.286C132 138 131 137 129.714 137H122.286Z" fill="#AC6DFF"/>
<path d="M146 129C144.071 129 142.571 130.5 142.571 132.429C142.571 134.357 144.071 135.857 146 135.857C147.929 135.857 149.429 134.357 149.429 132.429C149.429 130.5 147.929 129 146 129Z" fill="#AC6DFF"/>
<path d="M142.286 137C141 137 140 138 140 139.286V149.571C140 150.214 140.5 150.714 141.143 150.714C141.242 150.714 141.338 150.702 141.429 150.68L141.429 162C141.429 163.125 142.304 164 143.429 164C144.554 164 145.429 163.125 145.429 162L145.429 149C145.429 148.679 145.679 148.429 146 148.429C146.321 148.429 146.571 148.679 146.571 149L146.571 162C146.571 163.125 147.446 164 148.571 164C149.696 164 150.571 163.125 150.571 162L150.571 150.68C150.662 150.702 150.758 150.714 150.857 150.714C151.5 150.714 152 150.214 152 149.571V139.286C152 138 151 137 149.714 137H142.286Z" fill="#AC6DFF"/>
<path d="M166 129C164.071 129 162.571 130.5 162.571 132.429C162.571 134.357 164.071 135.857 166 135.857C167.929 135.857 169.429 134.357 169.429 132.429C169.429 130.5 167.929 129 166 129Z" fill="#AC6DFF"/>
<path d="M162.286 137C161 137 160 138 160 139.286V149.571C160 150.214 160.5 150.714 161.143 150.714C161.242 150.714 161.338 150.702 161.429 150.68L161.429 162C161.429 163.125 162.304 164 163.429 164C164.554 164 165.429 163.125 165.429 162L165.429 149C165.429 148.679 165.679 148.429 166 148.429C166.321 148.429 166.571 148.679 166.571 149L166.571 162C166.571 163.125 167.446 164 168.571 164C169.696 164 170.571 163.125 170.571 162L170.571 150.68C170.662 150.702 170.758 150.714 170.857 150.714C171.5 150.714 172 150.214 172 149.571V139.286C172 138 171 137 169.714 137H162.286Z" fill="#AC6DFF"/>
<path d="M186 129C184.071 129 182.571 130.5 182.571 132.429C182.571 134.357 184.071 135.857 186 135.857C187.929 135.857 189.429 134.357 189.429 132.429C189.429 130.5 187.929 129 186 129Z" fill="#AC6DFF"/>
<path d="M182.286 137C181 137 180 138 180 139.286V149.571C180 150.214 180.5 150.714 181.143 150.714C181.242 150.714 181.338 150.702 181.429 150.68L181.429 162C181.429 163.125 182.304 164 183.429 164C184.554 164 185.429 163.125 185.429 162L185.429 149C185.429 148.679 185.679 148.429 186 148.429C186.321 148.429 186.571 148.679 186.571 149L186.571 162C186.571 163.125 187.446 164 188.571 164C189.696 164 190.571 163.125 190.571 162L190.571 150.68C190.662 150.702 190.758 150.714 190.857 150.714C191.5 150.714 192 150.214 192 149.571V139.286C192 138 191 137 189.714 137H182.286Z" fill="#AC6DFF"/>
<path d="M6 172C4.07143 172 2.57143 173.5 2.57143 175.429C2.57143 177.357 4.07143 178.857 6 178.857C7.92857 178.857 9.42857 177.357 9.42857 175.429C9.42857 173.5 7.92857 172 6 172Z" fill="#AC6DFF"/>
<path d="M2.28571 180C1 180 0 181 0 182.286V192.571C0 193.214 0.5 193.714 1.14286 193.714C1.24192 193.714 1.3376 193.702 1.42857 193.68L1.42857 205C1.42857 206.125 2.30357 207 3.42857 207C4.55357 207 5.42857 206.125 5.42857 205L5.42857 192C5.42857 191.679 5.67857 191.429 6 191.429C6.32143 191.429 6.57143 191.679 6.57143 192L6.57143 205C6.57143 206.125 7.44643 207 8.57143 207C9.69643 207 10.5714 206.125 10.5714 205L10.5714 193.68C10.6624 193.702 10.7581 193.714 10.8571 193.714C11.5 193.714 12 193.214 12 192.571V182.286C12 181 11 180 9.71428 180H2.28571Z" fill="#AC6DFF"/>
<path d="M26 172C24.0714 172 22.5714 173.5 22.5714 175.429C22.5714 177.357 24.0714 178.857 26 178.857C27.9286 178.857 29.4286 177.357 29.4286 175.429C29.4286 173.5 27.9286 172 26 172Z" fill="#AC6DFF"/>
<path d="M22.2857 180C21 180 20 181 20 182.286V192.571C20 193.214 20.5 193.714 21.1429 193.714C21.2419 193.714 21.3376 193.702 21.4286 193.68L21.4286 205C21.4286 206.125 22.3036 207 23.4286 207C24.5536 207 25.4286 206.125 25.4286 205L25.4286 192C25.4286 191.679 25.6786 191.429 26 191.429C26.3214 191.429 26.5714 191.679 26.5714 192L26.5714 205C26.5714 206.125 27.4464 207 28.5714 207C29.6964 207 30.5714 206.125 30.5714 205L30.5714 193.68C30.6624 193.702 30.7581 193.714 30.8571 193.714C31.5 193.714 32 193.214 32 192.571V182.286C32 181 31 180 29.7143 180H22.2857Z" fill="#AC6DFF"/>
<path d="M46 172C44.0714 172 42.5714 173.5 42.5714 175.429C42.5714 177.357 44.0714 178.857 46 178.857C47.9286 178.857 49.4286 177.357 49.4286 175.429C49.4286 173.5 47.9286 172 46 172Z" fill="#AC6DFF"/>
<path d="M42.2857 180C41 180 40 181 40 182.286V192.571C40 193.214 40.5 193.714 41.1429 193.714C41.2419 193.714 41.3376 193.702 41.4286 193.68L41.4286 205C41.4286 206.125 42.3036 207 43.4286 207C44.5536 207 45.4286 206.125 45.4286 205L45.4286 192C45.4286 191.679 45.6786 191.429 46 191.429C46.3214 191.429 46.5714 191.679 46.5714 192L46.5714 205C46.5714 206.125 47.4464 207 48.5714 207C49.6964 207 50.5714 206.125 50.5714 205L50.5714 193.68C50.6624 193.702 50.7581 193.714 50.8571 193.714C51.5 193.714 52 193.214 52 192.571V182.286C52 181 51 180 49.7143 180H42.2857Z" fill="#AC6DFF"/>
<path d="M66 172C64.0714 172 62.5714 173.5 62.5714 175.429C62.5714 177.357 64.0714 178.857 66 178.857C67.9286 178.857 69.4286 177.357 69.4286 175.429C69.4286 173.5 67.9286 172 66 172Z" fill="#AC6DFF"/>
<path d="M62.2857 180C61 180 60 181 60 182.286V192.571C60 193.214 60.5 193.714 61.1429 193.714C61.2419 193.714 61.3376 193.702 61.4286 193.68L61.4286 205C61.4286 206.125 62.3036 207 63.4286 207C64.5536 207 65.4286 206.125 65.4286 205L65.4286 192C65.4286 191.679 65.6786 191.429 66 191.429C66.3214 191.429 66.5714 191.679 66.5714 192L66.5714 205C66.5714 206.125 67.4464 207 68.5714 207C69.6964 207 70.5714 206.125 70.5714 205L70.5714 193.68C70.6624 193.702 70.7581 193.714 70.8571 193.714C71.5 193.714 72 193.214 72 192.571V182.286C72 181 71 180 69.7143 180H62.2857Z" fill="#AC6DFF"/>
<path d="M86 172C84.0714 172 82.5714 173.5 82.5714 175.429C82.5714 177.357 84.0714 178.857 86 178.857C87.9286 178.857 89.4286 177.357 89.4286 175.429C89.4286 173.5 87.9286 172 86 172Z" fill="#AC6DFF"/>
<path d="M82.2857 180C81 180 80 181 80 182.286V192.571C80 193.214 80.5 193.714 81.1429 193.714C81.2419 193.714 81.3376 193.702 81.4286 193.68L81.4286 205C81.4286 206.125 82.3036 207 83.4286 207C84.5536 207 85.4286 206.125 85.4286 205L85.4286 192C85.4286 191.679 85.6786 191.429 86 191.429C86.3214 191.429 86.5714 191.679 86.5714 192L86.5714 205C86.5714 206.125 87.4464 207 88.5714 207C89.6964 207 90.5714 206.125 90.5714 205L90.5714 193.68C90.6624 193.702 90.7581 193.714 90.8571 193.714C91.5 193.714 92 193.214 92 192.571V182.286C92 181 91 180 89.7143 180H82.2857Z" fill="#AC6DFF"/>
<path d="M106 172C104.071 172 102.571 173.5 102.571 175.429C102.571 177.357 104.071 178.857 106 178.857C107.929 178.857 109.429 177.357 109.429 175.429C109.429 173.5 107.929 172 106 172Z" fill="#AC6DFF"/>
<path d="M102.286 180C101 180 100 181 100 182.286V192.571C100 193.214 100.5 193.714 101.143 193.714C101.242 193.714 101.338 193.702 101.429 193.68L101.429 205C101.429 206.125 102.304 207 103.429 207C104.554 207 105.429 206.125 105.429 205L105.429 192C105.429 191.679 105.679 191.429 106 191.429C106.321 191.429 106.571 191.679 106.571 192L106.571 205C106.571 206.125 107.446 207 108.571 207C109.696 207 110.571 206.125 110.571 205L110.571 193.68C110.662 193.702 110.758 193.714 110.857 193.714C111.5 193.714 112 193.214 112 192.571V182.286C112 181 111 180 109.714 180H102.286Z" fill="#AC6DFF"/>
<path d="M126 172C124.071 172 122.571 173.5 122.571 175.429C122.571 177.357 124.071 178.857 126 178.857C127.929 178.857 129.429 177.357 129.429 175.429C129.429 173.5 127.929 172 126 172Z" fill="#AC6DFF"/>
<path d="M122.286 180C121 180 120 181 120 182.286V192.571C120 193.214 120.5 193.714 121.143 193.714C121.242 193.714 121.338 193.702 121.429 193.68L121.429 205C121.429 206.125 122.304 207 123.429 207C124.554 207 125.429 206.125 125.429 205L125.429 192C125.429 191.679 125.679 191.429 126 191.429C126.321 191.429 126.571 191.679 126.571 192L126.571 205C126.571 206.125 127.446 207 128.571 207C129.696 207 130.571 206.125 130.571 205L130.571 193.68C130.662 193.702 130.758 193.714 130.857 193.714C131.5 193.714 132 193.214 132 192.571V182.286C132 181 131 180 129.714 180H122.286Z" fill="#AC6DFF"/>
<path d="M146 172C144.071 172 142.571 173.5 142.571 175.429C142.571 177.357 144.071 178.857 146 178.857C147.929 178.857 149.429 177.357 149.429 175.429C149.429 173.5 147.929 172 146 172Z" fill="#AC6DFF"/>
<path d="M142.286 180C141 180 140 181 140 182.286V192.571C140 193.214 140.5 193.714 141.143 193.714C141.242 193.714 141.338 193.702 141.429 193.68L141.429 205C141.429 206.125 142.304 207 143.429 207C144.554 207 145.429 206.125 145.429 205L145.429 192C145.429 191.679 145.679 191.429 146 191.429C146.321 191.429 146.571 191.679 146.571 192L146.571 205C146.571 206.125 147.446 207 148.571 207C149.696 207 150.571 206.125 150.571 205L150.571 193.68C150.662 193.702 150.758 193.714 150.857 193.714C151.5 193.714 152 193.214 152 192.571V182.286C152 181 151 180 149.714 180H142.286Z" fill="#AC6DFF"/>
<path d="M166 172C164.071 172 162.571 173.5 162.571 175.429C162.571 177.357 164.071 178.857 166 178.857C167.929 178.857 169.429 177.357 169.429 175.429C169.429 173.5 167.929 172 166 172Z" fill="#AC6DFF"/>
<path d="M162.286 180C161 180 160 181 160 182.286V192.571C160 193.214 160.5 193.714 161.143 193.714C161.242 193.714 161.338 193.702 161.429 193.68L161.429 205C161.429 206.125 162.304 207 163.429 207C164.554 207 165.429 206.125 165.429 205L165.429 192C165.429 191.679 165.679 191.429 166 191.429C166.321 191.429 166.571 191.679 166.571 192L166.571 205C166.571 206.125 167.446 207 168.571 207C169.696 207 170.571 206.125 170.571 205L170.571 193.68C170.662 193.702 170.758 193.714 170.857 193.714C171.5 193.714 172 193.214 172 192.571V182.286C172 181 171 180 169.714 180H162.286Z" fill="#AC6DFF"/>
<path d="M186 172C184.071 172 182.571 173.5 182.571 175.429C182.571 177.357 184.071 178.857 186 178.857C187.929 178.857 189.429 177.357 189.429 175.429C189.429 173.5 187.929 172 186 172Z" fill="#AC6DFF"/>
<path d="M182.286 180C181 180 180 181 180 182.286V192.571C180 193.214 180.5 193.714 181.143 193.714C181.242 193.714 181.338 193.702 181.429 193.68L181.429 205C181.429 206.125 182.304 207 183.429 207C184.554 207 185.429 206.125 185.429 205L185.429 192C185.429 191.679 185.679 191.429 186 191.429C186.321 191.429 186.571 191.679 186.571 192L186.571 205C186.571 206.125 187.446 207 188.571 207C189.696 207 190.571 206.125 190.571 205L190.571 193.68C190.662 193.702 190.758 193.714 190.857 193.714C191.5 193.714 192 193.214 192 192.571V182.286C192 181 191 180 189.714 180H182.286Z" fill="#AC6DFF"/>
<path d="M6 215C4.07143 215 2.57143 216.5 2.57143 218.429C2.57143 220.357 4.07143 221.857 6 221.857C7.92857 221.857 9.42857 220.357 9.42857 218.429C9.42857 216.5 7.92857 215 6 215Z" fill="#AC6DFF"/>
<path d="M2.28571 223C1 223 0 224 0 225.286V235.571C0 236.214 0.5 236.714 1.14286 236.714C1.24192 236.714 1.3376 236.702 1.42857 236.68L1.42857 248C1.42857 249.125 2.30357 250 3.42857 250C4.55357 250 5.42857 249.125 5.42857 248L5.42857 235C5.42857 234.679 5.67857 234.429 6 234.429C6.32143 234.429 6.57143 234.679 6.57143 235L6.57143 248C6.57143 249.125 7.44643 250 8.57143 250C9.69643 250 10.5714 249.125 10.5714 248L10.5714 236.68C10.6624 236.702 10.7581 236.714 10.8571 236.714C11.5 236.714 12 236.214 12 235.571V225.286C12 224 11 223 9.71428 223H2.28571Z" fill="#AC6DFF"/>
<path d="M26 215C24.0714 215 22.5714 216.5 22.5714 218.429C22.5714 220.357 24.0714 221.857 26 221.857C27.9286 221.857 29.4286 220.357 29.4286 218.429C29.4286 216.5 27.9286 215 26 215Z" fill="#AC6DFF"/>
<path d="M22.2857 223C21 223 20 224 20 225.286V235.571C20 236.214 20.5 236.714 21.1429 236.714C21.2419 236.714 21.3376 236.702 21.4286 236.68L21.4286 248C21.4286 249.125 22.3036 250 23.4286 250C24.5536 250 25.4286 249.125 25.4286 248L25.4286 235C25.4286 234.679 25.6786 234.429 26 234.429C26.3214 234.429 26.5714 234.679 26.5714 235L26.5714 248C26.5714 249.125 27.4464 250 28.5714 250C29.6964 250 30.5714 249.125 30.5714 248L30.5714 236.68C30.6624 236.702 30.7581 236.714 30.8571 236.714C31.5 236.714 32 236.214 32 235.571V225.286C32 224 31 223 29.7143 223H22.2857Z" fill="#AC6DFF"/>
<path d="M46 215C44.0714 215 42.5714 216.5 42.5714 218.429C42.5714 220.357 44.0714 221.857 46 221.857C47.9286 221.857 49.4286 220.357 49.4286 218.429C49.4286 216.5 47.9286 215 46 215Z" fill="#AC6DFF"/>
<path d="M42.2857 223C41 223 40 224 40 225.286V235.571C40 236.214 40.5 236.714 41.1429 236.714C41.2419 236.714 41.3376 236.702 41.4286 236.68L41.4286 248C41.4286 249.125 42.3036 250 43.4286 250C44.5536 250 45.4286 249.125 45.4286 248L45.4286 235C45.4286 234.679 45.6786 234.429 46 234.429C46.3214 234.429 46.5714 234.679 46.5714 235L46.5714 248C46.5714 249.125 47.4464 250 48.5714 250C49.6964 250 50.5714 249.125 50.5714 248L50.5714 236.68C50.6624 236.702 50.7581 236.714 50.8571 236.714C51.5 236.714 52 236.214 52 235.571V225.286C52 224 51 223 49.7143 223H42.2857Z" fill="#AC6DFF"/>
<path d="M66 215C64.0714 215 62.5714 216.5 62.5714 218.429C62.5714 220.357 64.0714 221.857 66 221.857C67.9286 221.857 69.4286 220.357 69.4286 218.429C69.4286 216.5 67.9286 215 66 215Z" fill="#AC6DFF"/>
<path d="M62.2857 223C61 223 60 224 60 225.286V235.571C60 236.214 60.5 236.714 61.1429 236.714C61.2419 236.714 61.3376 236.702 61.4286 236.68L61.4286 248C61.4286 249.125 62.3036 250 63.4286 250C64.5536 250 65.4286 249.125 65.4286 248L65.4286 235C65.4286 234.679 65.6786 234.429 66 234.429C66.3214 234.429 66.5714 234.679 66.5714 235L66.5714 248C66.5714 249.125 67.4464 250 68.5714 250C69.6964 250 70.5714 249.125 70.5714 248L70.5714 236.68C70.6624 236.702 70.7581 236.714 70.8571 236.714C71.5 236.714 72 236.214 72 235.571V225.286C72 224 71 223 69.7143 223H62.2857Z" fill="#AC6DFF"/>
<path d="M86 215C84.0714 215 82.5714 216.5 82.5714 218.429C82.5714 220.357 84.0714 221.857 86 221.857C87.9286 221.857 89.4286 220.357 89.4286 218.429C89.4286 216.5 87.9286 215 86 215Z" fill="#AC6DFF"/>
<path d="M82.2857 223C81 223 80 224 80 225.286V235.571C80 236.214 80.5 236.714 81.1429 236.714C81.2419 236.714 81.3376 236.702 81.4286 236.68L81.4286 248C81.4286 249.125 82.3036 250 83.4286 250C84.5536 250 85.4286 249.125 85.4286 248L85.4286 235C85.4286 234.679 85.6786 234.429 86 234.429C86.3214 234.429 86.5714 234.679 86.5714 235L86.5714 248C86.5714 249.125 87.4464 250 88.5714 250C89.6964 250 90.5714 249.125 90.5714 248L90.5714 236.68C90.6624 236.702 90.7581 236.714 90.8571 236.714C91.5 236.714 92 236.214 92 235.571V225.286C92 224 91 223 89.7143 223H82.2857Z" fill="#AC6DFF"/>
<path d="M106 215C104.071 215 102.571 216.5 102.571 218.429C102.571 220.357 104.071 221.857 106 221.857C107.929 221.857 109.429 220.357 109.429 218.429C109.429 216.5 107.929 215 106 215Z" fill="#AC6DFF"/>
<path d="M102.286 223C101 223 100 224 100 225.286V235.571C100 236.214 100.5 236.714 101.143 236.714C101.242 236.714 101.338 236.702 101.429 236.68L101.429 248C101.429 249.125 102.304 250 103.429 250C104.554 250 105.429 249.125 105.429 248L105.429 235C105.429 234.679 105.679 234.429 106 234.429C106.321 234.429 106.571 234.679 106.571 235L106.571 248C106.571 249.125 107.446 250 108.571 250C109.696 250 110.571 249.125 110.571 248L110.571 236.68C110.662 236.702 110.758 236.714 110.857 236.714C111.5 236.714 112 236.214 112 235.571V225.286C112 224 111 223 109.714 223H102.286Z" fill="#AC6DFF"/>
<path d="M126 215C124.071 215 122.571 216.5 122.571 218.429C122.571 220.357 124.071 221.857 126 221.857C127.929 221.857 129.429 220.357 129.429 218.429C129.429 216.5 127.929 215 126 215Z" fill="#AC6DFF"/>
<path d="M122.286 223C121 223 120 224 120 225.286V235.571C120 236.214 120.5 236.714 121.143 236.714C121.242 236.714 121.338 236.702 121.429 236.68L121.429 248C121.429 249.125 122.304 250 123.429 250C124.554 250 125.429 249.125 125.429 248L125.429 235C125.429 234.679 125.679 234.429 126 234.429C126.321 234.429 126.571 234.679 126.571 235L126.571 248C126.571 249.125 127.446 250 128.571 250C129.696 250 130.571 249.125 130.571 248L130.571 236.68C130.662 236.702 130.758 236.714 130.857 236.714C131.5 236.714 132 236.214 132 235.571V225.286C132 224 131 223 129.714 223H122.286Z" fill="#AC6DFF"/>
<path d="M146 215C144.071 215 142.571 216.5 142.571 218.429C142.571 220.357 144.071 221.857 146 221.857C147.929 221.857 149.429 220.357 149.429 218.429C149.429 216.5 147.929 215 146 215Z" fill="#AC6DFF"/>
<path d="M142.286 223C141 223 140 224 140 225.286V235.571C140 236.214 140.5 236.714 141.143 236.714C141.242 236.714 141.338 236.702 141.429 236.68L141.429 248C141.429 249.125 142.304 250 143.429 250C144.554 250 145.429 249.125 145.429 248L145.429 235C145.429 234.679 145.679 234.429 146 234.429C146.321 234.429 146.571 234.679 146.571 235L146.571 248C146.571 249.125 147.446 250 148.571 250C149.696 250 150.571 249.125 150.571 248L150.571 236.68C150.662 236.702 150.758 236.714 150.857 236.714C151.5 236.714 152 236.214 152 235.571V225.286C152 224 151 223 149.714 223H142.286Z" fill="#AC6DFF"/>
<path d="M166 215C164.071 215 162.571 216.5 162.571 218.429C162.571 220.357 164.071 221.857 166 221.857C167.929 221.857 169.429 220.357 169.429 218.429C169.429 216.5 167.929 215 166 215Z" fill="#AC6DFF"/>
<path d="M162.286 223C161 223 160 224 160 225.286V235.571C160 236.214 160.5 236.714 161.143 236.714C161.242 236.714 161.338 236.702 161.429 236.68L161.429 248C161.429 249.125 162.304 250 163.429 250C164.554 250 165.429 249.125 165.429 248L165.429 235C165.429 234.679 165.679 234.429 166 234.429C166.321 234.429 166.571 234.679 166.571 235L166.571 248C166.571 249.125 167.446 250 168.571 250C169.696 250 170.571 249.125 170.571 248L170.571 236.68C170.662 236.702 170.758 236.714 170.857 236.714C171.5 236.714 172 236.214 172 235.571V225.286C172 224 171 223 169.714 223H162.286Z" fill="#AC6DFF"/>
<path d="M186 215C184.071 215 182.571 216.5 182.571 218.429C182.571 220.357 184.071 221.857 186 221.857C187.929 221.857 189.429 220.357 189.429 218.429C189.429 216.5 187.929 215 186 215Z" fill="#AC6DFF"/>
<path d="M182.286 223C181 223 180 224 180 225.286V235.571C180 236.214 180.5 236.714 181.143 236.714C181.242 236.714 181.338 236.702 181.429 236.68L181.429 248C181.429 249.125 182.304 250 183.429 250C184.554 250 185.429 249.125 185.429 248L185.429 235C185.429 234.679 185.679 234.429 186 234.429C186.321 234.429 186.571 234.679 186.571 235L186.571 248C186.571 249.125 187.446 250 188.571 250C189.696 250 190.571 249.125 190.571 248L190.571 236.68C190.662 236.702 190.758 236.714 190.857 236.714C191.5 236.714 192 236.214 192 235.571V225.286C192 224 191 223 189.714 223H182.286Z" fill="#AC6DFF"/>
<path d="M6 258C4.07143 258 2.57143 259.5 2.57143 261.429C2.57143 263.357 4.07143 264.857 6 264.857C7.92857 264.857 9.42857 263.357 9.42857 261.429C9.42857 259.5 7.92857 258 6 258Z" fill="#AC6DFF"/>
<path d="M2.28571 266C1 266 0 267 0 268.286V278.571C0 279.214 0.5 279.714 1.14286 279.714C1.24192 279.714 1.3376 279.702 1.42857 279.68L1.42857 291C1.42857 292.125 2.30357 293 3.42857 293C4.55357 293 5.42857 292.125 5.42857 291L5.42857 278C5.42857 277.679 5.67857 277.429 6 277.429C6.32143 277.429 6.57143 277.679 6.57143 278L6.57143 291C6.57143 292.125 7.44643 293 8.57143 293C9.69643 293 10.5714 292.125 10.5714 291L10.5714 279.68C10.6624 279.702 10.7581 279.714 10.8571 279.714C11.5 279.714 12 279.214 12 278.571V268.286C12 267 11 266 9.71428 266H2.28571Z" fill="#AC6DFF"/>
<path d="M26 258C24.0714 258 22.5714 259.5 22.5714 261.429C22.5714 263.357 24.0714 264.857 26 264.857C27.9286 264.857 29.4286 263.357 29.4286 261.429C29.4286 259.5 27.9286 258 26 258Z" fill="#AC6DFF"/>
<path d="M22.2857 266C21 266 20 267 20 268.286V278.571C20 279.214 20.5 279.714 21.1429 279.714C21.2419 279.714 21.3376 279.702 21.4286 279.68L21.4286 291C21.4286 292.125 22.3036 293 23.4286 293C24.5536 293 25.4286 292.125 25.4286 291L25.4286 278C25.4286 277.679 25.6786 277.429 26 277.429C26.3214 277.429 26.5714 277.679 26.5714 278L26.5714 291C26.5714 292.125 27.4464 293 28.5714 293C29.6964 293 30.5714 292.125 30.5714 291L30.5714 279.68C30.6624 279.702 30.7581 279.714 30.8571 279.714C31.5 279.714 32 279.214 32 278.571V268.286C32 267 31 266 29.7143 266H22.2857Z" fill="#AC6DFF"/>
<path d="M46 258C44.0714 258 42.5714 259.5 42.5714 261.429C42.5714 263.357 44.0714 264.857 46 264.857C47.9286 264.857 49.4286 263.357 49.4286 261.429C49.4286 259.5 47.9286 258 46 258Z" fill="#AC6DFF"/>
<path d="M42.2857 266C41 266 40 267 40 268.286V278.571C40 279.214 40.5 279.714 41.1429 279.714C41.2419 279.714 41.3376 279.702 41.4286 279.68L41.4286 291C41.4286 292.125 42.3036 293 43.4286 293C44.5536 293 45.4286 292.125 45.4286 291L45.4286 278C45.4286 277.679 45.6786 277.429 46 277.429C46.3214 277.429 46.5714 277.679 46.5714 278L46.5714 291C46.5714 292.125 47.4464 293 48.5714 293C49.6964 293 50.5714 292.125 50.5714 291L50.5714 279.68C50.6624 279.702 50.7581 279.714 50.8571 279.714C51.5 279.714 52 279.214 52 278.571V268.286C52 267 51 266 49.7143 266H42.2857Z" fill="#AC6DFF"/>
<path d="M66 258C64.0714 258 62.5714 259.5 62.5714 261.429C62.5714 263.357 64.0714 264.857 66 264.857C67.9286 264.857 69.4286 263.357 69.4286 261.429C69.4286 259.5 67.9286 258 66 258Z" fill="#AC6DFF"/>
<path d="M62.2857 266C61 266 60 267 60 268.286V278.571C60 279.214 60.5 279.714 61.1429 279.714C61.2419 279.714 61.3376 279.702 61.4286 279.68L61.4286 291C61.4286 292.125 62.3036 293 63.4286 293C64.5536 293 65.4286 292.125 65.4286 291L65.4286 278C65.4286 277.679 65.6786 277.429 66 277.429C66.3214 277.429 66.5714 277.679 66.5714 278L66.5714 291C66.5714 292.125 67.4464 293 68.5714 293C69.6964 293 70.5714 292.125 70.5714 291L70.5714 279.68C70.6624 279.702 70.7581 279.714 70.8571 279.714C71.5 279.714 72 279.214 72 278.571V268.286C72 267 71 266 69.7143 266H62.2857Z" fill="#AC6DFF"/>
<path d="M86 258C84.0714 258 82.5714 259.5 82.5714 261.429C82.5714 263.357 84.0714 264.857 86 264.857C87.9286 264.857 89.4286 263.357 89.4286 261.429C89.4286 259.5 87.9286 258 86 258Z" fill="#AC6DFF"/>
<path d="M82.2857 266C81 266 80 267 80 268.286V278.571C80 279.214 80.5 279.714 81.1429 279.714C81.2419 279.714 81.3376 279.702 81.4286 279.68L81.4286 291C81.4286 292.125 82.3036 293 83.4286 293C84.5536 293 85.4286 292.125 85.4286 291L85.4286 278C85.4286 277.679 85.6786 277.429 86 277.429C86.3214 277.429 86.5714 277.679 86.5714 278L86.5714 291C86.5714 292.125 87.4464 293 88.5714 293C89.6964 293 90.5714 292.125 90.5714 291L90.5714 279.68C90.6624 279.702 90.7581 279.714 90.8571 279.714C91.5 279.714 92 279.214 92 278.571V268.286C92 267 91 266 89.7143 266H82.2857Z" fill="#AC6DFF"/>
<path d="M106 258C104.071 258 102.571 259.5 102.571 261.429C102.571 263.357 104.071 264.857 106 264.857C107.929 264.857 109.429 263.357 109.429 261.429C109.429 259.5 107.929 258 106 258Z" fill="#AC6DFF"/>
<path d="M102.286 266C101 266 100 267 100 268.286V278.571C100 279.214 100.5 279.714 101.143 279.714C101.242 279.714 101.338 279.702 101.429 279.68L101.429 291C101.429 292.125 102.304 293 103.429 293C104.554 293 105.429 292.125 105.429 291L105.429 278C105.429 277.679 105.679 277.429 106 277.429C106.321 277.429 106.571 277.679 106.571 278L106.571 291C106.571 292.125 107.446 293 108.571 293C109.696 293 110.571 292.125 110.571 291L110.571 279.68C110.662 279.702 110.758 279.714 110.857 279.714C111.5 279.714 112 279.214 112 278.571V268.286C112 267 111 266 109.714 266H102.286Z" fill="#AC6DFF"/>
<path d="M126 258C124.071 258 122.571 259.5 122.571 261.429C122.571 263.357 124.071 264.857 126 264.857C127.929 264.857 129.429 263.357 129.429 261.429C129.429 259.5 127.929 258 126 258Z" fill="#AC6DFF"/>
<path d="M122.286 266C121 266 120 267 120 268.286V278.571C120 279.214 120.5 279.714 121.143 279.714C121.242 279.714 121.338 279.702 121.429 279.68L121.429 291C121.429 292.125 122.304 293 123.429 293C124.554 293 125.429 292.125 125.429 291L125.429 278C125.429 277.679 125.679 277.429 126 277.429C126.321 277.429 126.571 277.679 126.571 278L126.571 291C126.571 292.125 127.446 293 128.571 293C129.696 293 130.571 292.125 130.571 291L130.571 279.68C130.662 279.702 130.758 279.714 130.857 279.714C131.5 279.714 132 279.214 132 278.571V268.286C132 267 131 266 129.714 266H122.286Z" fill="#AC6DFF"/>
<path d="M146 258C144.071 258 142.571 259.5 142.571 261.429C142.571 263.357 144.071 264.857 146 264.857C147.929 264.857 149.429 263.357 149.429 261.429C149.429 259.5 147.929 258 146 258Z" fill="#AC6DFF"/>
<path d="M142.286 266C141 266 140 267 140 268.286V278.571C140 279.214 140.5 279.714 141.143 279.714C141.242 279.714 141.338 279.702 141.429 279.68L141.429 291C141.429 292.125 142.304 293 143.429 293C144.554 293 145.429 292.125 145.429 291L145.429 278C145.429 277.679 145.679 277.429 146 277.429C146.321 277.429 146.571 277.679 146.571 278L146.571 291C146.571 292.125 147.446 293 148.571 293C149.696 293 150.571 292.125 150.571 291L150.571 279.68C150.662 279.702 150.758 279.714 150.857 279.714C151.5 279.714 152 279.214 152 278.571V268.286C152 267 151 266 149.714 266H142.286Z" fill="#AC6DFF"/>
<path d="M166 258C164.071 258 162.571 259.5 162.571 261.429C162.571 263.357 164.071 264.857 166 264.857C167.929 264.857 169.429 263.357 169.429 261.429C169.429 259.5 167.929 258 166 258Z" fill="#AC6DFF"/>
<path d="M162.286 266C161 266 160 267 160 268.286V278.571C160 279.214 160.5 279.714 161.143 279.714C161.242 279.714 161.338 279.702 161.429 279.68L161.429 291C161.429 292.125 162.304 293 163.429 293C164.554 293 165.429 292.125 165.429 291L165.429 278C165.429 277.679 165.679 277.429 166 277.429C166.321 277.429 166.571 277.679 166.571 278L166.571 291C166.571 292.125 167.446 293 168.571 293C169.696 293 170.571 292.125 170.571 291L170.571 279.68C170.662 279.702 170.758 279.714 170.857 279.714C171.5 279.714 172 279.214 172 278.571V268.286C172 267 171 266 169.714 266H162.286Z" fill="#AC6DFF"/>
<path d="M186 258C184.071 258 182.571 259.5 182.571 261.429C182.571 263.357 184.071 264.857 186 264.857C187.929 264.857 189.429 263.357 189.429 261.429C189.429 259.5 187.929 258 186 258Z" fill="#AC6DFF"/>
<path d="M182.286 266C181 266 180 267 180 268.286V278.571C180 279.214 180.5 279.714 181.143 279.714C181.242 279.714 181.338 279.702 181.429 279.68L181.429 291C181.429 292.125 182.304 293 183.429 293C184.554 293 185.429 292.125 185.429 291L185.429 278C185.429 277.679 185.679 277.429 186 277.429C186.321 277.429 186.571 277.679 186.571 278L186.571 291C186.571 292.125 187.446 293 188.571 293C189.696 293 190.571 292.125 190.571 291L190.571 279.68C190.662 279.702 190.758 279.714 190.857 279.714C191.5 279.714 192 279.214 192 278.571V268.286C192 267 191 266 189.714 266H182.286Z" fill="#AC6DFF"/>
<path d="M6 301C4.07143 301 2.57143 302.5 2.57143 304.429C2.57143 306.357 4.07143 307.857 6 307.857C7.92857 307.857 9.42857 306.357 9.42857 304.429C9.42857 302.5 7.92857 301 6 301Z" fill="#AC6DFF"/>
<path d="M2.28571 309C1 309 0 310 0 311.286V321.571C0 322.214 0.5 322.714 1.14286 322.714C1.24192 322.714 1.3376 322.702 1.42857 322.68L1.42857 334C1.42857 335.125 2.30357 336 3.42857 336C4.55357 336 5.42857 335.125 5.42857 334L5.42857 321C5.42857 320.679 5.67857 320.429 6 320.429C6.32143 320.429 6.57143 320.679 6.57143 321L6.57143 334C6.57143 335.125 7.44643 336 8.57143 336C9.69643 336 10.5714 335.125 10.5714 334L10.5714 322.68C10.6624 322.702 10.7581 322.714 10.8571 322.714C11.5 322.714 12 322.214 12 321.571V311.286C12 310 11 309 9.71428 309H2.28571Z" fill="#AC6DFF"/>
<path d="M26 301C24.0714 301 22.5714 302.5 22.5714 304.429C22.5714 306.357 24.0714 307.857 26 307.857C27.9286 307.857 29.4286 306.357 29.4286 304.429C29.4286 302.5 27.9286 301 26 301Z" fill="#AC6DFF"/>
<path d="M22.2857 309C21 309 20 310 20 311.286V321.571C20 322.214 20.5 322.714 21.1429 322.714C21.2419 322.714 21.3376 322.702 21.4286 322.68L21.4286 334C21.4286 335.125 22.3036 336 23.4286 336C24.5536 336 25.4286 335.125 25.4286 334L25.4286 321C25.4286 320.679 25.6786 320.429 26 320.429C26.3214 320.429 26.5714 320.679 26.5714 321L26.5714 334C26.5714 335.125 27.4464 336 28.5714 336C29.6964 336 30.5714 335.125 30.5714 334L30.5714 322.68C30.6624 322.702 30.7581 322.714 30.8571 322.714C31.5 322.714 32 322.214 32 321.571V311.286C32 310 31 309 29.7143 309H22.2857Z" fill="#AC6DFF"/>
<path d="M46 301C44.0714 301 42.5714 302.5 42.5714 304.429C42.5714 306.357 44.0714 307.857 46 307.857C47.9286 307.857 49.4286 306.357 49.4286 304.429C49.4286 302.5 47.9286 301 46 301Z" fill="#AC6DFF"/>
<path d="M42.2857 309C41 309 40 310 40 311.286V321.571C40 322.214 40.5 322.714 41.1429 322.714C41.2419 322.714 41.3376 322.702 41.4286 322.68L41.4286 334C41.4286 335.125 42.3036 336 43.4286 336C44.5536 336 45.4286 335.125 45.4286 334L45.4286 321C45.4286 320.679 45.6786 320.429 46 320.429C46.3214 320.429 46.5714 320.679 46.5714 321L46.5714 334C46.5714 335.125 47.4464 336 48.5714 336C49.6964 336 50.5714 335.125 50.5714 334L50.5714 322.68C50.6624 322.702 50.7581 322.714 50.8571 322.714C51.5 322.714 52 322.214 52 321.571V311.286C52 310 51 309 49.7143 309H42.2857Z" fill="#AC6DFF"/>
<path d="M66 301C64.0714 301 62.5714 302.5 62.5714 304.429C62.5714 306.357 64.0714 307.857 66 307.857C67.9286 307.857 69.4286 306.357 69.4286 304.429C69.4286 302.5 67.9286 301 66 301Z" fill="#AC6DFF"/>
<path d="M62.2857 309C61 309 60 310 60 311.286V321.571C60 322.214 60.5 322.714 61.1429 322.714C61.2419 322.714 61.3376 322.702 61.4286 322.68L61.4286 334C61.4286 335.125 62.3036 336 63.4286 336C64.5536 336 65.4286 335.125 65.4286 334L65.4286 321C65.4286 320.679 65.6786 320.429 66 320.429C66.3214 320.429 66.5714 320.679 66.5714 321L66.5714 334C66.5714 335.125 67.4464 336 68.5714 336C69.6964 336 70.5714 335.125 70.5714 334L70.5714 322.68C70.6624 322.702 70.7581 322.714 70.8571 322.714C71.5 322.714 72 322.214 72 321.571V311.286C72 310 71 309 69.7143 309H62.2857Z" fill="#AC6DFF"/>
<path d="M86 301C84.0714 301 82.5714 302.5 82.5714 304.429C82.5714 306.357 84.0714 307.857 86 307.857C87.9286 307.857 89.4286 306.357 89.4286 304.429C89.4286 302.5 87.9286 301 86 301Z" fill="#AC6DFF"/>
<path d="M82.2857 309C81 309 80 310 80 311.286V321.571C80 322.214 80.5 322.714 81.1429 322.714C81.2419 322.714 81.3376 322.702 81.4286 322.68L81.4286 334C81.4286 335.125 82.3036 336 83.4286 336C84.5536 336 85.4286 335.125 85.4286 334L85.4286 321C85.4286 320.679 85.6786 320.429 86 320.429C86.3214 320.429 86.5714 320.679 86.5714 321L86.5714 334C86.5714 335.125 87.4464 336 88.5714 336C89.6964 336 90.5714 335.125 90.5714 334L90.5714 322.68C90.6624 322.702 90.7581 322.714 90.8571 322.714C91.5 322.714 92 322.214 92 321.571V311.286C92 310 91 309 89.7143 309H82.2857Z" fill="#AC6DFF"/>
<path d="M106 301C104.071 301 102.571 302.5 102.571 304.429C102.571 306.357 104.071 307.857 106 307.857C107.929 307.857 109.429 306.357 109.429 304.429C109.429 302.5 107.929 301 106 301Z" fill="#AC6DFF"/>
<path d="M102.286 309C101 309 100 310 100 311.286V321.571C100 322.214 100.5 322.714 101.143 322.714C101.242 322.714 101.338 322.702 101.429 322.68L101.429 334C101.429 335.125 102.304 336 103.429 336C104.554 336 105.429 335.125 105.429 334L105.429 321C105.429 320.679 105.679 320.429 106 320.429C106.321 320.429 106.571 320.679 106.571 321L106.571 334C106.571 335.125 107.446 336 108.571 336C109.696 336 110.571 335.125 110.571 334L110.571 322.68C110.662 322.702 110.758 322.714 110.857 322.714C111.5 322.714 112 322.214 112 321.571V311.286C112 310 111 309 109.714 309H102.286Z" fill="#AC6DFF"/>
<path d="M126 301C124.071 301 122.571 302.5 122.571 304.429C122.571 306.357 124.071 307.857 126 307.857C127.929 307.857 129.429 306.357 129.429 304.429C129.429 302.5 127.929 301 126 301Z" fill="#AC6DFF"/>
<path d="M122.286 309C121 309 120 310 120 311.286V321.571C120 322.214 120.5 322.714 121.143 322.714C121.242 322.714 121.338 322.702 121.429 322.68L121.429 334C121.429 335.125 122.304 336 123.429 336C124.554 336 125.429 335.125 125.429 334L125.429 321C125.429 320.679 125.679 320.429 126 320.429C126.321 320.429 126.571 320.679 126.571 321L126.571 334C126.571 335.125 127.446 336 128.571 336C129.696 336 130.571 335.125 130.571 334L130.571 322.68C130.662 322.702 130.758 322.714 130.857 322.714C131.5 322.714 132 322.214 132 321.571V311.286C132 310 131 309 129.714 309H122.286Z" fill="#AC6DFF"/>
<path d="M146 301C144.071 301 142.571 302.5 142.571 304.429C142.571 306.357 144.071 307.857 146 307.857C147.929 307.857 149.429 306.357 149.429 304.429C149.429 302.5 147.929 301 146 301Z" fill="#AC6DFF"/>
<path d="M142.286 309C141 309 140 310 140 311.286V321.571C140 322.214 140.5 322.714 141.143 322.714C141.242 322.714 141.338 322.702 141.429 322.68L141.429 334C141.429 335.125 142.304 336 143.429 336C144.554 336 145.429 335.125 145.429 334L145.429 321C145.429 320.679 145.679 320.429 146 320.429C146.321 320.429 146.571 320.679 146.571 321L146.571 334C146.571 335.125 147.446 336 148.571 336C149.696 336 150.571 335.125 150.571 334L150.571 322.68C150.662 322.702 150.758 322.714 150.857 322.714C151.5 322.714 152 322.214 152 321.571V311.286C152 310 151 309 149.714 309H142.286Z" fill="#AC6DFF"/>
<path d="M166 301C164.071 301 162.571 302.5 162.571 304.429C162.571 306.357 164.071 307.857 166 307.857C167.929 307.857 169.429 306.357 169.429 304.429C169.429 302.5 167.929 301 166 301Z" fill="#AC6DFF"/>
<path d="M162.286 309C161 309 160 310 160 311.286V321.571C160 322.214 160.5 322.714 161.143 322.714C161.242 322.714 161.338 322.702 161.429 322.68L161.429 334C161.429 335.125 162.304 336 163.429 336C164.554 336 165.429 335.125 165.429 334L165.429 321C165.429 320.679 165.679 320.429 166 320.429C166.321 320.429 166.571 320.679 166.571 321L166.571 334C166.571 335.125 167.446 336 168.571 336C169.696 336 170.571 335.125 170.571 334L170.571 322.68C170.662 322.702 170.758 322.714 170.857 322.714C171.5 322.714 172 322.214 172 321.571V311.286C172 310 171 309 169.714 309H162.286Z" fill="#AC6DFF"/>
<path d="M186 301C184.071 301 182.571 302.5 182.571 304.429C182.571 306.357 184.071 307.857 186 307.857C187.929 307.857 189.429 306.357 189.429 304.429C189.429 302.5 187.929 301 186 301Z" fill="#AC6DFF"/>
<path d="M182.286 309C181 309 180 310 180 311.286V321.571C180 322.214 180.5 322.714 181.143 322.714C181.242 322.714 181.338 322.702 181.429 322.68L181.429 334C181.429 335.125 182.304 336 183.429 336C184.554 336 185.429 335.125 185.429 334L185.429 321C185.429 320.679 185.679 320.429 186 320.429C186.321 320.429 186.571 320.679 186.571 321L186.571 334C186.571 335.125 187.446 336 188.571 336C189.696 336 190.571 335.125 190.571 334L190.571 322.68C190.662 322.702 190.758 322.714 190.857 322.714C191.5 322.714 192 322.214 192 321.571V311.286C192 310 191 309 189.714 309H182.286Z" fill="#AC6DFF"/>
<path d="M6 344C4.07143 344 2.57143 345.5 2.57143 347.429C2.57143 349.357 4.07143 350.857 6 350.857C7.92857 350.857 9.42857 349.357 9.42857 347.429C9.42857 345.5 7.92857 344 6 344Z" fill="#AC6DFF"/>
<path d="M2.28571 352C1 352 0 353 0 354.286V364.571C0 365.214 0.5 365.714 1.14286 365.714C1.24192 365.714 1.3376 365.702 1.42857 365.68L1.42857 377C1.42857 378.125 2.30357 379 3.42857 379C4.55357 379 5.42857 378.125 5.42857 377L5.42857 364C5.42857 363.679 5.67857 363.429 6 363.429C6.32143 363.429 6.57143 363.679 6.57143 364L6.57143 377C6.57143 378.125 7.44643 379 8.57143 379C9.69643 379 10.5714 378.125 10.5714 377L10.5714 365.68C10.6624 365.702 10.7581 365.714 10.8571 365.714C11.5 365.714 12 365.214 12 364.571V354.286C12 353 11 352 9.71428 352H2.28571Z" fill="#AC6DFF"/>
<path d="M26 344C24.0714 344 22.5714 345.5 22.5714 347.429C22.5714 349.357 24.0714 350.857 26 350.857C27.9286 350.857 29.4286 349.357 29.4286 347.429C29.4286 345.5 27.9286 344 26 344Z" fill="#AC6DFF"/>
<path d="M22.2857 352C21 352 20 353 20 354.286V364.571C20 365.214 20.5 365.714 21.1429 365.714C21.2419 365.714 21.3376 365.702 21.4286 365.68L21.4286 377C21.4286 378.125 22.3036 379 23.4286 379C24.5536 379 25.4286 378.125 25.4286 377L25.4286 364C25.4286 363.679 25.6786 363.429 26 363.429C26.3214 363.429 26.5714 363.679 26.5714 364L26.5714 377C26.5714 378.125 27.4464 379 28.5714 379C29.6964 379 30.5714 378.125 30.5714 377L30.5714 365.68C30.6624 365.702 30.7581 365.714 30.8571 365.714C31.5 365.714 32 365.214 32 364.571V354.286C32 353 31 352 29.7143 352H22.2857Z" fill="#AC6DFF"/>
<path d="M46 344C44.0714 344 42.5714 345.5 42.5714 347.429C42.5714 349.357 44.0714 350.857 46 350.857C47.9286 350.857 49.4286 349.357 49.4286 347.429C49.4286 345.5 47.9286 344 46 344Z" fill="#AC6DFF"/>
<path d="M42.2857 352C41 352 40 353 40 354.286V364.571C40 365.214 40.5 365.714 41.1429 365.714C41.2419 365.714 41.3376 365.702 41.4286 365.68L41.4286 377C41.4286 378.125 42.3036 379 43.4286 379C44.5536 379 45.4286 378.125 45.4286 377L45.4286 364C45.4286 363.679 45.6786 363.429 46 363.429C46.3214 363.429 46.5714 363.679 46.5714 364L46.5714 377C46.5714 378.125 47.4464 379 48.5714 379C49.6964 379 50.5714 378.125 50.5714 377L50.5714 365.68C50.6624 365.702 50.7581 365.714 50.8571 365.714C51.5 365.714 52 365.214 52 364.571V354.286C52 353 51 352 49.7143 352H42.2857Z" fill="#AC6DFF"/>
<path d="M66 344C64.0714 344 62.5714 345.5 62.5714 347.429C62.5714 349.357 64.0714 350.857 66 350.857C67.9286 350.857 69.4286 349.357 69.4286 347.429C69.4286 345.5 67.9286 344 66 344Z" fill="#AC6DFF"/>
<path d="M62.2857 352C61 352 60 353 60 354.286V364.571C60 365.214 60.5 365.714 61.1429 365.714C61.2419 365.714 61.3376 365.702 61.4286 365.68L61.4286 377C61.4286 378.125 62.3036 379 63.4286 379C64.5536 379 65.4286 378.125 65.4286 377L65.4286 364C65.4286 363.679 65.6786 363.429 66 363.429C66.3214 363.429 66.5714 363.679 66.5714 364L66.5714 377C66.5714 378.125 67.4464 379 68.5714 379C69.6964 379 70.5714 378.125 70.5714 377L70.5714 365.68C70.6624 365.702 70.7581 365.714 70.8571 365.714C71.5 365.714 72 365.214 72 364.571V354.286C72 353 71 352 69.7143 352H62.2857Z" fill="#AC6DFF"/>
<path d="M86 344C84.0714 344 82.5714 345.5 82.5714 347.429C82.5714 349.357 84.0714 350.857 86 350.857C87.9286 350.857 89.4286 349.357 89.4286 347.429C89.4286 345.5 87.9286 344 86 344Z" fill="#AC6DFF"/>
<path d="M82.2857 352C81 352 80 353 80 354.286V364.571C80 365.214 80.5 365.714 81.1429 365.714C81.2419 365.714 81.3376 365.702 81.4286 365.68L81.4286 377C81.4286 378.125 82.3036 379 83.4286 379C84.5536 379 85.4286 378.125 85.4286 377L85.4286 364C85.4286 363.679 85.6786 363.429 86 363.429C86.3214 363.429 86.5714 363.679 86.5714 364L86.5714 377C86.5714 378.125 87.4464 379 88.5714 379C89.6964 379 90.5714 378.125 90.5714 377L90.5714 365.68C90.6624 365.702 90.7581 365.714 90.8571 365.714C91.5 365.714 92 365.214 92 364.571V354.286C92 353 91 352 89.7143 352H82.2857Z" fill="#AC6DFF"/>
<path d="M106 344C104.071 344 102.571 345.5 102.571 347.429C102.571 349.357 104.071 350.857 106 350.857C107.929 350.857 109.429 349.357 109.429 347.429C109.429 345.5 107.929 344 106 344Z" fill="#AC6DFF"/>
<path d="M102.286 352C101 352 100 353 100 354.286V364.571C100 365.214 100.5 365.714 101.143 365.714C101.242 365.714 101.338 365.702 101.429 365.68L101.429 377C101.429 378.125 102.304 379 103.429 379C104.554 379 105.429 378.125 105.429 377L105.429 364C105.429 363.679 105.679 363.429 106 363.429C106.321 363.429 106.571 363.679 106.571 364L106.571 377C106.571 378.125 107.446 379 108.571 379C109.696 379 110.571 378.125 110.571 377L110.571 365.68C110.662 365.702 110.758 365.714 110.857 365.714C111.5 365.714 112 365.214 112 364.571V354.286C112 353 111 352 109.714 352H102.286Z" fill="#AC6DFF"/>
<path d="M126 344C124.071 344 122.571 345.5 122.571 347.429C122.571 349.357 124.071 350.857 126 350.857C127.929 350.857 129.429 349.357 129.429 347.429C129.429 345.5 127.929 344 126 344Z" fill="#AC6DFF"/>
<path d="M122.286 352C121 352 120 353 120 354.286V364.571C120 365.214 120.5 365.714 121.143 365.714C121.242 365.714 121.338 365.702 121.429 365.68L121.429 377C121.429 378.125 122.304 379 123.429 379C124.554 379 125.429 378.125 125.429 377L125.429 364C125.429 363.679 125.679 363.429 126 363.429C126.321 363.429 126.571 363.679 126.571 364L126.571 377C126.571 378.125 127.446 379 128.571 379C129.696 379 130.571 378.125 130.571 377L130.571 365.68C130.662 365.702 130.758 365.714 130.857 365.714C131.5 365.714 132 365.214 132 364.571V354.286C132 353 131 352 129.714 352H122.286Z" fill="#AC6DFF"/>
<path d="M146 344C144.071 344 142.571 345.5 142.571 347.429C142.571 349.357 144.071 350.857 146 350.857C147.929 350.857 149.429 349.357 149.429 347.429C149.429 345.5 147.929 344 146 344Z" fill="#AC6DFF"/>
<path d="M142.286 352C141 352 140 353 140 354.286V364.571C140 365.214 140.5 365.714 141.143 365.714C141.242 365.714 141.338 365.702 141.429 365.68L141.429 377C141.429 378.125 142.304 379 143.429 379C144.554 379 145.429 378.125 145.429 377L145.429 364C145.429 363.679 145.679 363.429 146 363.429C146.321 363.429 146.571 363.679 146.571 364L146.571 377C146.571 378.125 147.446 379 148.571 379C149.696 379 150.571 378.125 150.571 377L150.571 365.68C150.662 365.702 150.758 365.714 150.857 365.714C151.5 365.714 152 365.214 152 364.571V354.286C152 353 151 352 149.714 352H142.286Z" fill="#AC6DFF"/>
<path d="M166 344C164.071 344 162.571 345.5 162.571 347.429C162.571 349.357 164.071 350.857 166 350.857C167.929 350.857 169.429 349.357 169.429 347.429C169.429 345.5 167.929 344 166 344Z" fill="#AC6DFF"/>
<path d="M162.286 352C161 352 160 353 160 354.286V364.571C160 365.214 160.5 365.714 161.143 365.714C161.242 365.714 161.338 365.702 161.429 365.68L161.429 377C161.429 378.125 162.304 379 163.429 379C164.554 379 165.429 378.125 165.429 377L165.429 364C165.429 363.679 165.679 363.429 166 363.429C166.321 363.429 166.571 363.679 166.571 364L166.571 377C166.571 378.125 167.446 379 168.571 379C169.696 379 170.571 378.125 170.571 377L170.571 365.68C170.662 365.702 170.758 365.714 170.857 365.714C171.5 365.714 172 365.214 172 364.571V354.286C172 353 171 352 169.714 352H162.286Z" fill="#AC6DFF"/>
<path d="M186 344C184.071 344 182.571 345.5 182.571 347.429C182.571 349.357 184.071 350.857 186 350.857C187.929 350.857 189.429 349.357 189.429 347.429C189.429 345.5 187.929 344 186 344Z" fill="#AC6DFF"/>
<path d="M182.286 352C181 352 180 353 180 354.286V364.571C180 365.214 180.5 365.714 181.143 365.714C181.242 365.714 181.338 365.702 181.429 365.68L181.429 377C181.429 378.125 182.304 379 183.429 379C184.554 379 185.429 378.125 185.429 377L185.429 364C185.429 363.679 185.679 363.429 186 363.429C186.321 363.429 186.571 363.679 186.571 364L186.571 377C186.571 378.125 187.446 379 188.571 379C189.696 379 190.571 378.125 190.571 377L190.571 365.68C190.662 365.702 190.758 365.714 190.857 365.714C191.5 365.714 192 365.214 192 364.571V354.286C192 353 191 352 189.714 352H182.286Z" fill="#AC6DFF"/>
<path d="M6 387C4.07143 387 2.57143 388.5 2.57143 390.429C2.57143 392.357 4.07143 393.857 6 393.857C7.92857 393.857 9.42857 392.357 9.42857 390.429C9.42857 388.5 7.92857 387 6 387Z" fill="#AC6DFF"/>
<path d="M2.28571 395C1 395 0 396 0 397.286V407.571C0 408.214 0.5 408.714 1.14286 408.714C1.24192 408.714 1.3376 408.702 1.42857 408.68L1.42857 420C1.42857 421.125 2.30357 422 3.42857 422C4.55357 422 5.42857 421.125 5.42857 420L5.42857 407C5.42857 406.679 5.67857 406.429 6 406.429C6.32143 406.429 6.57143 406.679 6.57143 407L6.57143 420C6.57143 421.125 7.44643 422 8.57143 422C9.69643 422 10.5714 421.125 10.5714 420L10.5714 408.68C10.6624 408.702 10.7581 408.714 10.8571 408.714C11.5 408.714 12 408.214 12 407.571V397.286C12 396 11 395 9.71428 395H2.28571Z" fill="#AC6DFF"/>
<path d="M26 387C24.0714 387 22.5714 388.5 22.5714 390.429C22.5714 392.357 24.0714 393.857 26 393.857C27.9286 393.857 29.4286 392.357 29.4286 390.429C29.4286 388.5 27.9286 387 26 387Z" fill="#AC6DFF"/>
<path d="M22.2857 395C21 395 20 396 20 397.286V407.571C20 408.214 20.5 408.714 21.1429 408.714C21.2419 408.714 21.3376 408.702 21.4286 408.68L21.4286 420C21.4286 421.125 22.3036 422 23.4286 422C24.5536 422 25.4286 421.125 25.4286 420L25.4286 407C25.4286 406.679 25.6786 406.429 26 406.429C26.3214 406.429 26.5714 406.679 26.5714 407L26.5714 420C26.5714 421.125 27.4464 422 28.5714 422C29.6964 422 30.5714 421.125 30.5714 420L30.5714 408.68C30.6624 408.702 30.7581 408.714 30.8571 408.714C31.5 408.714 32 408.214 32 407.571V397.286C32 396 31 395 29.7143 395H22.2857Z" fill="#AC6DFF"/>
<path d="M46 387C44.0714 387 42.5714 388.5 42.5714 390.429C42.5714 392.357 44.0714 393.857 46 393.857C47.9286 393.857 49.4286 392.357 49.4286 390.429C49.4286 388.5 47.9286 387 46 387Z" fill="#AC6DFF"/>
<path d="M42.2857 395C41 395 40 396 40 397.286V407.571C40 408.214 40.5 408.714 41.1429 408.714C41.2419 408.714 41.3376 408.702 41.4286 408.68L41.4286 420C41.4286 421.125 42.3036 422 43.4286 422C44.5536 422 45.4286 421.125 45.4286 420L45.4286 407C45.4286 406.679 45.6786 406.429 46 406.429C46.3214 406.429 46.5714 406.679 46.5714 407L46.5714 420C46.5714 421.125 47.4464 422 48.5714 422C49.6964 422 50.5714 421.125 50.5714 420L50.5714 408.68C50.6624 408.702 50.7581 408.714 50.8571 408.714C51.5 408.714 52 408.214 52 407.571V397.286C52 396 51 395 49.7143 395H42.2857Z" fill="#AC6DFF"/>
<path d="M66 387C64.0714 387 62.5714 388.5 62.5714 390.429C62.5714 392.357 64.0714 393.857 66 393.857C67.9286 393.857 69.4286 392.357 69.4286 390.429C69.4286 388.5 67.9286 387 66 387Z" fill="#AC6DFF"/>
<path d="M62.2857 395C61 395 60 396 60 397.286V407.571C60 408.214 60.5 408.714 61.1429 408.714C61.2419 408.714 61.3376 408.702 61.4286 408.68L61.4286 420C61.4286 421.125 62.3036 422 63.4286 422C64.5536 422 65.4286 421.125 65.4286 420L65.4286 407C65.4286 406.679 65.6786 406.429 66 406.429C66.3214 406.429 66.5714 406.679 66.5714 407L66.5714 420C66.5714 421.125 67.4464 422 68.5714 422C69.6964 422 70.5714 421.125 70.5714 420L70.5714 408.68C70.6624 408.702 70.7581 408.714 70.8571 408.714C71.5 408.714 72 408.214 72 407.571V397.286C72 396 71 395 69.7143 395H62.2857Z" fill="#AC6DFF"/>
<path d="M86 387C84.0714 387 82.5714 388.5 82.5714 390.429C82.5714 392.357 84.0714 393.857 86 393.857C87.9286 393.857 89.4286 392.357 89.4286 390.429C89.4286 388.5 87.9286 387 86 387Z" fill="#AC6DFF"/>
<path d="M82.2857 395C81 395 80 396 80 397.286V407.571C80 408.214 80.5 408.714 81.1429 408.714C81.2419 408.714 81.3376 408.702 81.4286 408.68L81.4286 420C81.4286 421.125 82.3036 422 83.4286 422C84.5536 422 85.4286 421.125 85.4286 420L85.4286 407C85.4286 406.679 85.6786 406.429 86 406.429C86.3214 406.429 86.5714 406.679 86.5714 407L86.5714 420C86.5714 421.125 87.4464 422 88.5714 422C89.6964 422 90.5714 421.125 90.5714 420L90.5714 408.68C90.6624 408.702 90.7581 408.714 90.8571 408.714C91.5 408.714 92 408.214 92 407.571V397.286C92 396 91 395 89.7143 395H82.2857Z" fill="#AC6DFF"/>
<path d="M106 387C104.071 387 102.571 388.5 102.571 390.429C102.571 392.357 104.071 393.857 106 393.857C107.929 393.857 109.429 392.357 109.429 390.429C109.429 388.5 107.929 387 106 387Z" fill="#AC6DFF"/>
<path d="M102.286 395C101 395 100 396 100 397.286V407.571C100 408.214 100.5 408.714 101.143 408.714C101.242 408.714 101.338 408.702 101.429 408.68L101.429 420C101.429 421.125 102.304 422 103.429 422C104.554 422 105.429 421.125 105.429 420L105.429 407C105.429 406.679 105.679 406.429 106 406.429C106.321 406.429 106.571 406.679 106.571 407L106.571 420C106.571 421.125 107.446 422 108.571 422C109.696 422 110.571 421.125 110.571 420L110.571 408.68C110.662 408.702 110.758 408.714 110.857 408.714C111.5 408.714 112 408.214 112 407.571V397.286C112 396 111 395 109.714 395H102.286Z" fill="#AC6DFF"/>
<path d="M126 387C124.071 387 122.571 388.5 122.571 390.429C122.571 392.357 124.071 393.857 126 393.857C127.929 393.857 129.429 392.357 129.429 390.429C129.429 388.5 127.929 387 126 387Z" fill="#AC6DFF"/>
<path d="M122.286 395C121 395 120 396 120 397.286V407.571C120 408.214 120.5 408.714 121.143 408.714C121.242 408.714 121.338 408.702 121.429 408.68L121.429 420C121.429 421.125 122.304 422 123.429 422C124.554 422 125.429 421.125 125.429 420L125.429 407C125.429 406.679 125.679 406.429 126 406.429C126.321 406.429 126.571 406.679 126.571 407L126.571 420C126.571 421.125 127.446 422 128.571 422C129.696 422 130.571 421.125 130.571 420L130.571 408.68C130.662 408.702 130.758 408.714 130.857 408.714C131.5 408.714 132 408.214 132 407.571V397.286C132 396 131 395 129.714 395H122.286Z" fill="#AC6DFF"/>
<path d="M146 387C144.071 387 142.571 388.5 142.571 390.429C142.571 392.357 144.071 393.857 146 393.857C147.929 393.857 149.429 392.357 149.429 390.429C149.429 388.5 147.929 387 146 387Z" fill="#AC6DFF"/>
<path d="M142.286 395C141 395 140 396 140 397.286V407.571C140 408.214 140.5 408.714 141.143 408.714C141.242 408.714 141.338 408.702 141.429 408.68L141.429 420C141.429 421.125 142.304 422 143.429 422C144.554 422 145.429 421.125 145.429 420L145.429 407C145.429 406.679 145.679 406.429 146 406.429C146.321 406.429 146.571 406.679 146.571 407L146.571 420C146.571 421.125 147.446 422 148.571 422C149.696 422 150.571 421.125 150.571 420L150.571 408.68C150.662 408.702 150.758 408.714 150.857 408.714C151.5 408.714 152 408.214 152 407.571V397.286C152 396 151 395 149.714 395H142.286Z" fill="#AC6DFF"/>
<path d="M166 387C164.071 387 162.571 388.5 162.571 390.429C162.571 392.357 164.071 393.857 166 393.857C167.929 393.857 169.429 392.357 169.429 390.429C169.429 388.5 167.929 387 166 387Z" fill="#AC6DFF"/>
<path d="M162.286 395C161 395 160 396 160 397.286V407.571C160 408.214 160.5 408.714 161.143 408.714C161.242 408.714 161.338 408.702 161.429 408.68L161.429 420C161.429 421.125 162.304 422 163.429 422C164.554 422 165.429 421.125 165.429 420L165.429 407C165.429 406.679 165.679 406.429 166 406.429C166.321 406.429 166.571 406.679 166.571 407L166.571 420C166.571 421.125 167.446 422 168.571 422C169.696 422 170.571 421.125 170.571 420L170.571 408.68C170.662 408.702 170.758 408.714 170.857 408.714C171.5 408.714 172 408.214 172 407.571V397.286C172 396 171 395 169.714 395H162.286Z" fill="#AC6DFF"/>
<path d="M186 387C184.071 387 182.571 388.5 182.571 390.429C182.571 392.357 184.071 393.857 186 393.857C187.929 393.857 189.429 392.357 189.429 390.429C189.429 388.5 187.929 387 186 387Z" fill="#AC6DFF"/>
<path d="M182.286 395C181 395 180 396 180 397.286V407.571C180 408.214 180.5 408.714 181.143 408.714C181.242 408.714 181.338 408.702 181.429 408.68L181.429 420C181.429 421.125 182.304 422 183.429 422C184.554 422 185.429 421.125 185.429 420L185.429 407C185.429 406.679 185.679 406.429 186 406.429C186.321 406.429 186.571 406.679 186.571 407L186.571 420C186.571 421.125 187.446 422 188.571 422C189.696 422 190.571 421.125 190.571 420L190.571 408.68C190.662 408.702 190.758 408.714 190.857 408.714C191.5 408.714 192 408.214 192 407.571V397.286C192 396 191 395 189.714 395H182.286Z" fill="#AC6DFF"/>
</svg>
