<svg width="492" height="164" viewBox="0 0 492 164" fill="none" xmlns="http://www.w3.org/2000/svg">
<path d="M6 0C4.07143 0 2.57143 1.5 2.57143 3.42857C2.57143 5.35714 4.07143 6.85714 6 6.85714C7.92857 6.85714 9.42857 5.35714 9.42857 3.42857C9.42857 1.5 7.92857 0 6 0Z" fill="#AC6DFF"/>
<path d="M2.28571 8C1 8 0 9 0 10.2857V20.5714C0 21.2143 0.5 21.7143 1.14286 21.7143C1.24192 21.7143 1.3376 21.7024 1.42857 21.68L1.42857 33C1.42857 34.125 2.30357 35 3.42857 35C4.55357 35 5.42857 34.125 5.42857 33L5.42857 20C5.42857 19.6786 5.67857 19.4286 6 19.4286C6.32143 19.4286 6.57143 19.6786 6.57143 20L6.57143 33C6.57143 34.125 7.44643 35 8.57143 35C9.69643 35 10.5714 34.125 10.5714 33L10.5714 21.68C10.6624 21.7024 10.7581 21.7143 10.8571 21.7143C11.5 21.7143 12 21.2143 12 20.5714V10.2857C12 9 11 8 9.71428 8H2.28571Z" fill="#AC6DFF"/>
<path d="M26 0C24.0714 0 22.5714 1.5 22.5714 3.42857C22.5714 5.35714 24.0714 6.85714 26 6.85714C27.9286 6.85714 29.4286 5.35714 29.4286 3.42857C29.4286 1.5 27.9286 0 26 0Z" fill="#AC6DFF"/>
<path d="M22.2857 8C21 8 20 9 20 10.2857V20.5714C20 21.2143 20.5 21.7143 21.1429 21.7143C21.2419 21.7143 21.3376 21.7024 21.4286 21.68L21.4286 33C21.4286 34.125 22.3036 35 23.4286 35C24.5536 35 25.4286 34.125 25.4286 33L25.4286 20C25.4286 19.6786 25.6786 19.4286 26 19.4286C26.3214 19.4286 26.5714 19.6786 26.5714 20L26.5714 33C26.5714 34.125 27.4464 35 28.5714 35C29.6964 35 30.5714 34.125 30.5714 33L30.5714 21.68C30.6624 21.7024 30.7581 21.7143 30.8571 21.7143C31.5 21.7143 32 21.2143 32 20.5714V10.2857C32 9 31 8 29.7143 8H22.2857Z" fill="#AC6DFF"/>
<path d="M46 0C44.0714 0 42.5714 1.5 42.5714 3.42857C42.5714 5.35714 44.0714 6.85714 46 6.85714C47.9286 6.85714 49.4286 5.35714 49.4286 3.42857C49.4286 1.5 47.9286 0 46 0Z" fill="#AC6DFF"/>
<path d="M42.2857 8C41 8 40 9 40 10.2857V20.5714C40 21.2143 40.5 21.7143 41.1429 21.7143C41.2419 21.7143 41.3376 21.7024 41.4286 21.68L41.4286 33C41.4286 34.125 42.3036 35 43.4286 35C44.5536 35 45.4286 34.125 45.4286 33L45.4286 20C45.4286 19.6786 45.6786 19.4286 46 19.4286C46.3214 19.4286 46.5714 19.6786 46.5714 20L46.5714 33C46.5714 34.125 47.4464 35 48.5714 35C49.6964 35 50.5714 34.125 50.5714 33L50.5714 21.68C50.6624 21.7024 50.7581 21.7143 50.8571 21.7143C51.5 21.7143 52 21.2143 52 20.5714V10.2857C52 9 51 8 49.7143 8H42.2857Z" fill="#AC6DFF"/>
<path d="M66 0C64.0714 0 62.5714 1.5 62.5714 3.42857C62.5714 5.35714 64.0714 6.85714 66 6.85714C67.9286 6.85714 69.4286 5.35714 69.4286 3.42857C69.4286 1.5 67.9286 0 66 0Z" fill="#AC6DFF"/>
<path d="M62.2857 8C61 8 60 9 60 10.2857V20.5714C60 21.2143 60.5 21.7143 61.1429 21.7143C61.2419 21.7143 61.3376 21.7024 61.4286 21.68L61.4286 33C61.4286 34.125 62.3036 35 63.4286 35C64.5536 35 65.4286 34.125 65.4286 33L65.4286 20C65.4286 19.6786 65.6786 19.4286 66 19.4286C66.3214 19.4286 66.5714 19.6786 66.5714 20L66.5714 33C66.5714 34.125 67.4464 35 68.5714 35C69.6964 35 70.5714 34.125 70.5714 33L70.5714 21.68C70.6624 21.7024 70.7581 21.7143 70.8571 21.7143C71.5 21.7143 72 21.2143 72 20.5714V10.2857C72 9 71 8 69.7143 8H62.2857Z" fill="#AC6DFF"/>
<path d="M86 0C84.0714 0 82.5714 1.5 82.5714 3.42857C82.5714 5.35714 84.0714 6.85714 86 6.85714C87.9286 6.85714 89.4286 5.35714 89.4286 3.42857C89.4286 1.5 87.9286 0 86 0Z" fill="#AC6DFF"/>
<path d="M82.2857 8C81 8 80 9 80 10.2857V20.5714C80 21.2143 80.5 21.7143 81.1429 21.7143C81.2419 21.7143 81.3376 21.7024 81.4286 21.68L81.4286 33C81.4286 34.125 82.3036 35 83.4286 35C84.5536 35 85.4286 34.125 85.4286 33L85.4286 20C85.4286 19.6786 85.6786 19.4286 86 19.4286C86.3214 19.4286 86.5714 19.6786 86.5714 20L86.5714 33C86.5714 34.125 87.4464 35 88.5714 35C89.6964 35 90.5714 34.125 90.5714 33L90.5714 21.68C90.6624 21.7024 90.7581 21.7143 90.8571 21.7143C91.5 21.7143 92 21.2143 92 20.5714V10.2857C92 9 91 8 89.7143 8H82.2857Z" fill="#AC6DFF"/>
<path d="M106 0C104.071 0 102.571 1.5 102.571 3.42857C102.571 5.35714 104.071 6.85714 106 6.85714C107.929 6.85714 109.429 5.35714 109.429 3.42857C109.429 1.5 107.929 0 106 0Z" fill="#AC6DFF"/>
<path d="M102.286 8C101 8 100 9 100 10.2857V20.5714C100 21.2143 100.5 21.7143 101.143 21.7143C101.242 21.7143 101.338 21.7024 101.429 21.68L101.429 33C101.429 34.125 102.304 35 103.429 35C104.554 35 105.429 34.125 105.429 33L105.429 20C105.429 19.6786 105.679 19.4286 106 19.4286C106.321 19.4286 106.571 19.6786 106.571 20L106.571 33C106.571 34.125 107.446 35 108.571 35C109.696 35 110.571 34.125 110.571 33L110.571 21.68C110.662 21.7024 110.758 21.7143 110.857 21.7143C111.5 21.7143 112 21.2143 112 20.5714V10.2857C112 9 111 8 109.714 8H102.286Z" fill="#AC6DFF"/>
<path d="M126 0C124.071 0 122.571 1.5 122.571 3.42857C122.571 5.35714 124.071 6.85714 126 6.85714C127.929 6.85714 129.429 5.35714 129.429 3.42857C129.429 1.5 127.929 0 126 0Z" fill="#AC6DFF"/>
<path d="M122.286 8C121 8 120 9 120 10.2857V20.5714C120 21.2143 120.5 21.7143 121.143 21.7143C121.242 21.7143 121.338 21.7024 121.429 21.68L121.429 33C121.429 34.125 122.304 35 123.429 35C124.554 35 125.429 34.125 125.429 33L125.429 20C125.429 19.6786 125.679 19.4286 126 19.4286C126.321 19.4286 126.571 19.6786 126.571 20L126.571 33C126.571 34.125 127.446 35 128.571 35C129.696 35 130.571 34.125 130.571 33L130.571 21.68C130.662 21.7024 130.758 21.7143 130.857 21.7143C131.5 21.7143 132 21.2143 132 20.5714V10.2857C132 9 131 8 129.714 8H122.286Z" fill="#AC6DFF"/>
<path d="M146 0C144.071 0 142.571 1.5 142.571 3.42857C142.571 5.35714 144.071 6.85714 146 6.85714C147.929 6.85714 149.429 5.35714 149.429 3.42857C149.429 1.5 147.929 0 146 0Z" fill="#AC6DFF"/>
<path d="M142.286 8C141 8 140 9 140 10.2857V20.5714C140 21.2143 140.5 21.7143 141.143 21.7143C141.242 21.7143 141.338 21.7024 141.429 21.68L141.429 33C141.429 34.125 142.304 35 143.429 35C144.554 35 145.429 34.125 145.429 33L145.429 20C145.429 19.6786 145.679 19.4286 146 19.4286C146.321 19.4286 146.571 19.6786 146.571 20L146.571 33C146.571 34.125 147.446 35 148.571 35C149.696 35 150.571 34.125 150.571 33L150.571 21.68C150.662 21.7024 150.758 21.7143 150.857 21.7143C151.5 21.7143 152 21.2143 152 20.5714V10.2857C152 9 151 8 149.714 8H142.286Z" fill="#AC6DFF"/>
<path d="M166 0C164.071 0 162.571 1.5 162.571 3.42857C162.571 5.35714 164.071 6.85714 166 6.85714C167.929 6.85714 169.429 5.35714 169.429 3.42857C169.429 1.5 167.929 0 166 0Z" fill="#AC6DFF"/>
<path d="M162.286 8C161 8 160 9 160 10.2857V20.5714C160 21.2143 160.5 21.7143 161.143 21.7143C161.242 21.7143 161.338 21.7024 161.429 21.68L161.429 33C161.429 34.125 162.304 35 163.429 35C164.554 35 165.429 34.125 165.429 33L165.429 20C165.429 19.6786 165.679 19.4286 166 19.4286C166.321 19.4286 166.571 19.6786 166.571 20L166.571 33C166.571 34.125 167.446 35 168.571 35C169.696 35 170.571 34.125 170.571 33L170.571 21.68C170.662 21.7024 170.758 21.7143 170.857 21.7143C171.5 21.7143 172 21.2143 172 20.5714V10.2857C172 9 171 8 169.714 8H162.286Z" fill="#AC6DFF"/>
<path d="M186 0C184.071 0 182.571 1.5 182.571 3.42857C182.571 5.35714 184.071 6.85714 186 6.85714C187.929 6.85714 189.429 5.35714 189.429 3.42857C189.429 1.5 187.929 0 186 0Z" fill="#AC6DFF"/>
<path d="M182.286 8C181 8 180 9 180 10.2857V20.5714C180 21.2143 180.5 21.7143 181.143 21.7143C181.242 21.7143 181.338 21.7024 181.429 21.68L181.429 33C181.429 34.125 182.304 35 183.429 35C184.554 35 185.429 34.125 185.429 33L185.429 20C185.429 19.6786 185.679 19.4286 186 19.4286C186.321 19.4286 186.571 19.6786 186.571 20L186.571 33C186.571 34.125 187.446 35 188.571 35C189.696 35 190.571 34.125 190.571 33L190.571 21.68C190.662 21.7024 190.758 21.7143 190.857 21.7143C191.5 21.7143 192 21.2143 192 20.5714V10.2857C192 9 191 8 189.714 8H182.286Z" fill="#AC6DFF"/>
<path d="M206 0C204.071 0 202.571 1.5 202.571 3.42857C202.571 5.35714 204.071 6.85714 206 6.85714C207.929 6.85714 209.429 5.35714 209.429 3.42857C209.429 1.5 207.929 0 206 0Z" fill="#AC6DFF"/>
<path d="M202.286 8C201 8 200 9 200 10.2857V20.5714C200 21.2143 200.5 21.7143 201.143 21.7143C201.242 21.7143 201.338 21.7024 201.429 21.68L201.429 33C201.429 34.125 202.304 35 203.429 35C204.554 35 205.429 34.125 205.429 33L205.429 20C205.429 19.6786 205.679 19.4286 206 19.4286C206.321 19.4286 206.571 19.6786 206.571 20L206.571 33C206.571 34.125 207.446 35 208.571 35C209.696 35 210.571 34.125 210.571 33L210.571 21.68C210.662 21.7024 210.758 21.7143 210.857 21.7143C211.5 21.7143 212 21.2143 212 20.5714V10.2857C212 9 211 8 209.714 8H202.286Z" fill="#AC6DFF"/>
<path d="M226 0C224.071 0 222.571 1.5 222.571 3.42857C222.571 5.35714 224.071 6.85714 226 6.85714C227.929 6.85714 229.429 5.35714 229.429 3.42857C229.429 1.5 227.929 0 226 0Z" fill="#AC6DFF"/>
<path d="M222.286 8C221 8 220 9 220 10.2857V20.5714C220 21.2143 220.5 21.7143 221.143 21.7143C221.242 21.7143 221.338 21.7024 221.429 21.68L221.429 33C221.429 34.125 222.304 35 223.429 35C224.554 35 225.429 34.125 225.429 33L225.429 20C225.429 19.6786 225.679 19.4286 226 19.4286C226.321 19.4286 226.571 19.6786 226.571 20L226.571 33C226.571 34.125 227.446 35 228.571 35C229.696 35 230.571 34.125 230.571 33L230.571 21.68C230.662 21.7024 230.758 21.7143 230.857 21.7143C231.5 21.7143 232 21.2143 232 20.5714V10.2857C232 9 231 8 229.714 8H222.286Z" fill="#AC6DFF"/>
<path d="M246 0C244.071 0 242.571 1.5 242.571 3.42857C242.571 5.35714 244.071 6.85714 246 6.85714C247.929 6.85714 249.429 5.35714 249.429 3.42857C249.429 1.5 247.929 0 246 0Z" fill="#AC6DFF"/>
<path d="M242.286 8C241 8 240 9 240 10.2857V20.5714C240 21.2143 240.5 21.7143 241.143 21.7143C241.242 21.7143 241.338 21.7024 241.429 21.68L241.429 33C241.429 34.125 242.304 35 243.429 35C244.554 35 245.429 34.125 245.429 33L245.429 20C245.429 19.6786 245.679 19.4286 246 19.4286C246.321 19.4286 246.571 19.6786 246.571 20L246.571 33C246.571 34.125 247.446 35 248.571 35C249.696 35 250.571 34.125 250.571 33L250.571 21.68C250.662 21.7024 250.758 21.7143 250.857 21.7143C251.5 21.7143 252 21.2143 252 20.5714V10.2857C252 9 251 8 249.714 8H242.286Z" fill="#AC6DFF"/>
<path d="M266 0C264.071 0 262.571 1.5 262.571 3.42857C262.571 5.35714 264.071 6.85714 266 6.85714C267.929 6.85714 269.429 5.35714 269.429 3.42857C269.429 1.5 267.929 0 266 0Z" fill="#AC6DFF"/>
<path d="M262.286 8C261 8 260 9 260 10.2857V20.5714C260 21.2143 260.5 21.7143 261.143 21.7143C261.242 21.7143 261.338 21.7024 261.429 21.68L261.429 33C261.429 34.125 262.304 35 263.429 35C264.554 35 265.429 34.125 265.429 33L265.429 20C265.429 19.6786 265.679 19.4286 266 19.4286C266.321 19.4286 266.571 19.6786 266.571 20L266.571 33C266.571 34.125 267.446 35 268.571 35C269.696 35 270.571 34.125 270.571 33L270.571 21.68C270.662 21.7024 270.758 21.7143 270.857 21.7143C271.5 21.7143 272 21.2143 272 20.5714V10.2857C272 9 271 8 269.714 8H262.286Z" fill="#AC6DFF"/>
<path d="M286 0C284.071 0 282.571 1.5 282.571 3.42857C282.571 5.35714 284.071 6.85714 286 6.85714C287.929 6.85714 289.429 5.35714 289.429 3.42857C289.429 1.5 287.929 0 286 0Z" fill="#AC6DFF"/>
<path d="M282.286 8C281 8 280 9 280 10.2857V20.5714C280 21.2143 280.5 21.7143 281.143 21.7143C281.242 21.7143 281.338 21.7024 281.429 21.68L281.429 33C281.429 34.125 282.304 35 283.429 35C284.554 35 285.429 34.125 285.429 33L285.429 20C285.429 19.6786 285.679 19.4286 286 19.4286C286.321 19.4286 286.571 19.6786 286.571 20L286.571 33C286.571 34.125 287.446 35 288.571 35C289.696 35 290.571 34.125 290.571 33L290.571 21.68C290.662 21.7024 290.758 21.7143 290.857 21.7143C291.5 21.7143 292 21.2143 292 20.5714V10.2857C292 9 291 8 289.714 8H282.286Z" fill="#AC6DFF"/>
<path d="M306 0C304.071 0 302.571 1.5 302.571 3.42857C302.571 5.35714 304.071 6.85714 306 6.85714C307.929 6.85714 309.429 5.35714 309.429 3.42857C309.429 1.5 307.929 0 306 0Z" fill="#AC6DFF"/>
<path d="M302.286 8C301 8 300 9 300 10.2857V20.5714C300 21.2143 300.5 21.7143 301.143 21.7143C301.242 21.7143 301.338 21.7024 301.429 21.68L301.429 33C301.429 34.125 302.304 35 303.429 35C304.554 35 305.429 34.125 305.429 33L305.429 20C305.429 19.6786 305.679 19.4286 306 19.4286C306.321 19.4286 306.571 19.6786 306.571 20L306.571 33C306.571 34.125 307.446 35 308.571 35C309.696 35 310.571 34.125 310.571 33L310.571 21.68C310.662 21.7024 310.758 21.7143 310.857 21.7143C311.5 21.7143 312 21.2143 312 20.5714V10.2857C312 9 311 8 309.714 8H302.286Z" fill="#AC6DFF"/>
<path d="M326 0C324.071 0 322.571 1.5 322.571 3.42857C322.571 5.35714 324.071 6.85714 326 6.85714C327.929 6.85714 329.429 5.35714 329.429 3.42857C329.429 1.5 327.929 0 326 0Z" fill="#AC6DFF"/>
<path d="M322.286 8C321 8 320 9 320 10.2857V20.5714C320 21.2143 320.5 21.7143 321.143 21.7143C321.242 21.7143 321.338 21.7024 321.429 21.68L321.429 33C321.429 34.125 322.304 35 323.429 35C324.554 35 325.429 34.125 325.429 33L325.429 20C325.429 19.6786 325.679 19.4286 326 19.4286C326.321 19.4286 326.571 19.6786 326.571 20L326.571 33C326.571 34.125 327.446 35 328.571 35C329.696 35 330.571 34.125 330.571 33L330.571 21.68C330.662 21.7024 330.758 21.7143 330.857 21.7143C331.5 21.7143 332 21.2143 332 20.5714V10.2857C332 9 331 8 329.714 8H322.286Z" fill="#AC6DFF"/>
<path d="M346 0C344.071 0 342.571 1.5 342.571 3.42857C342.571 5.35714 344.071 6.85714 346 6.85714C347.929 6.85714 349.429 5.35714 349.429 3.42857C349.429 1.5 347.929 0 346 0Z" fill="#AC6DFF"/>
<path d="M342.286 8C341 8 340 9 340 10.2857V20.5714C340 21.2143 340.5 21.7143 341.143 21.7143C341.242 21.7143 341.338 21.7024 341.429 21.68L341.429 33C341.429 34.125 342.304 35 343.429 35C344.554 35 345.429 34.125 345.429 33L345.429 20C345.429 19.6786 345.679 19.4286 346 19.4286C346.321 19.4286 346.571 19.6786 346.571 20L346.571 33C346.571 34.125 347.446 35 348.571 35C349.696 35 350.571 34.125 350.571 33L350.571 21.68C350.662 21.7024 350.758 21.7143 350.857 21.7143C351.5 21.7143 352 21.2143 352 20.5714V10.2857C352 9 351 8 349.714 8H342.286Z" fill="#AC6DFF"/>
<path d="M366 0C364.071 0 362.571 1.5 362.571 3.42857C362.571 5.35714 364.071 6.85714 366 6.85714C367.929 6.85714 369.429 5.35714 369.429 3.42857C369.429 1.5 367.929 0 366 0Z" fill="#AC6DFF"/>
<path d="M362.286 8C361 8 360 9 360 10.2857V20.5714C360 21.2143 360.5 21.7143 361.143 21.7143C361.242 21.7143 361.338 21.7024 361.429 21.68L361.429 33C361.429 34.125 362.304 35 363.429 35C364.554 35 365.429 34.125 365.429 33L365.429 20C365.429 19.6786 365.679 19.4286 366 19.4286C366.321 19.4286 366.571 19.6786 366.571 20L366.571 33C366.571 34.125 367.446 35 368.571 35C369.696 35 370.571 34.125 370.571 33L370.571 21.68C370.662 21.7024 370.758 21.7143 370.857 21.7143C371.5 21.7143 372 21.2143 372 20.5714V10.2857C372 9 371 8 369.714 8H362.286Z" fill="#AC6DFF"/>
<path d="M386 0C384.071 0 382.571 1.5 382.571 3.42857C382.571 5.35714 384.071 6.85714 386 6.85714C387.929 6.85714 389.429 5.35714 389.429 3.42857C389.429 1.5 387.929 0 386 0Z" fill="#AC6DFF"/>
<path d="M382.286 8C381 8 380 9 380 10.2857V20.5714C380 21.2143 380.5 21.7143 381.143 21.7143C381.242 21.7143 381.338 21.7024 381.429 21.68L381.429 33C381.429 34.125 382.304 35 383.429 35C384.554 35 385.429 34.125 385.429 33L385.429 20C385.429 19.6786 385.679 19.4286 386 19.4286C386.321 19.4286 386.571 19.6786 386.571 20L386.571 33C386.571 34.125 387.446 35 388.571 35C389.696 35 390.571 34.125 390.571 33L390.571 21.68C390.662 21.7024 390.758 21.7143 390.857 21.7143C391.5 21.7143 392 21.2143 392 20.5714V10.2857C392 9 391 8 389.714 8H382.286Z" fill="#AC6DFF"/>
<path d="M406 0C404.071 0 402.571 1.5 402.571 3.42857C402.571 5.35714 404.071 6.85714 406 6.85714C407.929 6.85714 409.429 5.35714 409.429 3.42857C409.429 1.5 407.929 0 406 0Z" fill="#AC6DFF"/>
<path d="M402.286 8C401 8 400 9 400 10.2857V20.5714C400 21.2143 400.5 21.7143 401.143 21.7143C401.242 21.7143 401.338 21.7024 401.429 21.68L401.429 33C401.429 34.125 402.304 35 403.429 35C404.554 35 405.429 34.125 405.429 33L405.429 20C405.429 19.6786 405.679 19.4286 406 19.4286C406.321 19.4286 406.571 19.6786 406.571 20L406.571 33C406.571 34.125 407.446 35 408.571 35C409.696 35 410.571 34.125 410.571 33L410.571 21.68C410.662 21.7024 410.758 21.7143 410.857 21.7143C411.5 21.7143 412 21.2143 412 20.5714V10.2857C412 9 411 8 409.714 8H402.286Z" fill="#AC6DFF"/>
<path d="M426 0C424.071 0 422.571 1.5 422.571 3.42857C422.571 5.35714 424.071 6.85714 426 6.85714C427.929 6.85714 429.429 5.35714 429.429 3.42857C429.429 1.5 427.929 0 426 0Z" fill="#AC6DFF"/>
<path d="M422.286 8C421 8 420 9 420 10.2857V20.5714C420 21.2143 420.5 21.7143 421.143 21.7143C421.242 21.7143 421.338 21.7024 421.429 21.68L421.429 33C421.429 34.125 422.304 35 423.429 35C424.554 35 425.429 34.125 425.429 33L425.429 20C425.429 19.6786 425.679 19.4286 426 19.4286C426.321 19.4286 426.571 19.6786 426.571 20L426.571 33C426.571 34.125 427.446 35 428.571 35C429.696 35 430.571 34.125 430.571 33L430.571 21.68C430.662 21.7024 430.758 21.7143 430.857 21.7143C431.5 21.7143 432 21.2143 432 20.5714V10.2857C432 9 431 8 429.714 8H422.286Z" fill="#AC6DFF"/>
<path d="M446 0C444.071 0 442.571 1.5 442.571 3.42857C442.571 5.35714 444.071 6.85714 446 6.85714C447.929 6.85714 449.429 5.35714 449.429 3.42857C449.429 1.5 447.929 0 446 0Z" fill="#AC6DFF"/>
<path d="M442.286 8C441 8 440 9 440 10.2857V20.5714C440 21.2143 440.5 21.7143 441.143 21.7143C441.242 21.7143 441.338 21.7024 441.429 21.68L441.429 33C441.429 34.125 442.304 35 443.429 35C444.554 35 445.429 34.125 445.429 33L445.429 20C445.429 19.6786 445.679 19.4286 446 19.4286C446.321 19.4286 446.571 19.6786 446.571 20L446.571 33C446.571 34.125 447.446 35 448.571 35C449.696 35 450.571 34.125 450.571 33L450.571 21.68C450.662 21.7024 450.758 21.7143 450.857 21.7143C451.5 21.7143 452 21.2143 452 20.5714V10.2857C452 9 451 8 449.714 8H442.286Z" fill="#AC6DFF"/>
<path d="M466 0C464.071 0 462.571 1.5 462.571 3.42857C462.571 5.35714 464.071 6.85714 466 6.85714C467.929 6.85714 469.429 5.35714 469.429 3.42857C469.429 1.5 467.929 0 466 0Z" fill="#AC6DFF"/>
<path d="M462.286 8C461 8 460 9 460 10.2857V20.5714C460 21.2143 460.5 21.7143 461.143 21.7143C461.242 21.7143 461.338 21.7024 461.429 21.68L461.429 33C461.429 34.125 462.304 35 463.429 35C464.554 35 465.429 34.125 465.429 33L465.429 20C465.429 19.6786 465.679 19.4286 466 19.4286C466.321 19.4286 466.571 19.6786 466.571 20L466.571 33C466.571 34.125 467.446 35 468.571 35C469.696 35 470.571 34.125 470.571 33L470.571 21.68C470.662 21.7024 470.758 21.7143 470.857 21.7143C471.5 21.7143 472 21.2143 472 20.5714V10.2857C472 9 471 8 469.714 8H462.286Z" fill="#AC6DFF"/>
<path d="M486 0C484.071 0 482.571 1.5 482.571 3.42857C482.571 5.35714 484.071 6.85714 486 6.85714C487.929 6.85714 489.429 5.35714 489.429 3.42857C489.429 1.5 487.929 0 486 0Z" fill="#AC6DFF"/>
<path d="M482.286 8C481 8 480 9 480 10.2857V20.5714C480 21.2143 480.5 21.7143 481.143 21.7143C481.242 21.7143 481.338 21.7024 481.429 21.68L481.429 33C481.429 34.125 482.304 35 483.429 35C484.554 35 485.429 34.125 485.429 33L485.429 20C485.429 19.6786 485.679 19.4286 486 19.4286C486.321 19.4286 486.571 19.6786 486.571 20L486.571 33C486.571 34.125 487.446 35 488.571 35C489.696 35 490.571 34.125 490.571 33L490.571 21.68C490.662 21.7024 490.758 21.7143 490.857 21.7143C491.5 21.7143 492 21.2143 492 20.5714V10.2857C492 9 491 8 489.714 8H482.286Z" fill="#AC6DFF"/>
<path d="M6 43C4.07143 43 2.57143 44.5 2.57143 46.4286C2.57143 48.3571 4.07143 49.8571 6 49.8571C7.92857 49.8571 9.42857 48.3571 9.42857 46.4286C9.42857 44.5 7.92857 43 6 43Z" fill="#AC6DFF"/>
<path d="M2.28571 51C1 51 0 52 0 53.2857V63.5714C0 64.2143 0.5 64.7143 1.14286 64.7143C1.24192 64.7143 1.3376 64.7024 1.42857 64.68L1.42857 76C1.42857 77.125 2.30357 78 3.42857 78C4.55357 78 5.42857 77.125 5.42857 76L5.42857 63C5.42857 62.6786 5.67857 62.4286 6 62.4286C6.32143 62.4286 6.57143 62.6786 6.57143 63L6.57143 76C6.57143 77.125 7.44643 78 8.57143 78C9.69643 78 10.5714 77.125 10.5714 76L10.5714 64.68C10.6624 64.7024 10.7581 64.7143 10.8571 64.7143C11.5 64.7143 12 64.2143 12 63.5714V53.2857C12 52 11 51 9.71428 51H2.28571Z" fill="#AC6DFF"/>
<path d="M26 43C24.0714 43 22.5714 44.5 22.5714 46.4286C22.5714 48.3571 24.0714 49.8571 26 49.8571C27.9286 49.8571 29.4286 48.3571 29.4286 46.4286C29.4286 44.5 27.9286 43 26 43Z" fill="#AC6DFF"/>
<path d="M22.2857 51C21 51 20 52 20 53.2857V63.5714C20 64.2143 20.5 64.7143 21.1429 64.7143C21.2419 64.7143 21.3376 64.7024 21.4286 64.68L21.4286 76C21.4286 77.125 22.3036 78 23.4286 78C24.5536 78 25.4286 77.125 25.4286 76L25.4286 63C25.4286 62.6786 25.6786 62.4286 26 62.4286C26.3214 62.4286 26.5714 62.6786 26.5714 63L26.5714 76C26.5714 77.125 27.4464 78 28.5714 78C29.6964 78 30.5714 77.125 30.5714 76L30.5714 64.68C30.6624 64.7024 30.7581 64.7143 30.8571 64.7143C31.5 64.7143 32 64.2143 32 63.5714V53.2857C32 52 31 51 29.7143 51H22.2857Z" fill="#AC6DFF"/>
<path d="M46 43C44.0714 43 42.5714 44.5 42.5714 46.4286C42.5714 48.3571 44.0714 49.8571 46 49.8571C47.9286 49.8571 49.4286 48.3571 49.4286 46.4286C49.4286 44.5 47.9286 43 46 43Z" fill="#AC6DFF"/>
<path d="M42.2857 51C41 51 40 52 40 53.2857V63.5714C40 64.2143 40.5 64.7143 41.1429 64.7143C41.2419 64.7143 41.3376 64.7024 41.4286 64.68L41.4286 76C41.4286 77.125 42.3036 78 43.4286 78C44.5536 78 45.4286 77.125 45.4286 76L45.4286 63C45.4286 62.6786 45.6786 62.4286 46 62.4286C46.3214 62.4286 46.5714 62.6786 46.5714 63L46.5714 76C46.5714 77.125 47.4464 78 48.5714 78C49.6964 78 50.5714 77.125 50.5714 76L50.5714 64.68C50.6624 64.7024 50.7581 64.7143 50.8571 64.7143C51.5 64.7143 52 64.2143 52 63.5714V53.2857C52 52 51 51 49.7143 51H42.2857Z" fill="#AC6DFF"/>
<path d="M66 43C64.0714 43 62.5714 44.5 62.5714 46.4286C62.5714 48.3571 64.0714 49.8571 66 49.8571C67.9286 49.8571 69.4286 48.3571 69.4286 46.4286C69.4286 44.5 67.9286 43 66 43Z" fill="#AC6DFF"/>
<path d="M62.2857 51C61 51 60 52 60 53.2857V63.5714C60 64.2143 60.5 64.7143 61.1429 64.7143C61.2419 64.7143 61.3376 64.7024 61.4286 64.68L61.4286 76C61.4286 77.125 62.3036 78 63.4286 78C64.5536 78 65.4286 77.125 65.4286 76L65.4286 63C65.4286 62.6786 65.6786 62.4286 66 62.4286C66.3214 62.4286 66.5714 62.6786 66.5714 63L66.5714 76C66.5714 77.125 67.4464 78 68.5714 78C69.6964 78 70.5714 77.125 70.5714 76L70.5714 64.68C70.6624 64.7024 70.7581 64.7143 70.8571 64.7143C71.5 64.7143 72 64.2143 72 63.5714V53.2857C72 52 71 51 69.7143 51H62.2857Z" fill="#AC6DFF"/>
<path d="M86 43C84.0714 43 82.5714 44.5 82.5714 46.4286C82.5714 48.3571 84.0714 49.8571 86 49.8571C87.9286 49.8571 89.4286 48.3571 89.4286 46.4286C89.4286 44.5 87.9286 43 86 43Z" fill="#AC6DFF"/>
<path d="M82.2857 51C81 51 80 52 80 53.2857V63.5714C80 64.2143 80.5 64.7143 81.1429 64.7143C81.2419 64.7143 81.3376 64.7024 81.4286 64.68L81.4286 76C81.4286 77.125 82.3036 78 83.4286 78C84.5536 78 85.4286 77.125 85.4286 76L85.4286 63C85.4286 62.6786 85.6786 62.4286 86 62.4286C86.3214 62.4286 86.5714 62.6786 86.5714 63L86.5714 76C86.5714 77.125 87.4464 78 88.5714 78C89.6964 78 90.5714 77.125 90.5714 76L90.5714 64.68C90.6624 64.7024 90.7581 64.7143 90.8571 64.7143C91.5 64.7143 92 64.2143 92 63.5714V53.2857C92 52 91 51 89.7143 51H82.2857Z" fill="#AC6DFF"/>
<path d="M106 43C104.071 43 102.571 44.5 102.571 46.4286C102.571 48.3571 104.071 49.8571 106 49.8571C107.929 49.8571 109.429 48.3571 109.429 46.4286C109.429 44.5 107.929 43 106 43Z" fill="#AC6DFF"/>
<path d="M102.286 51C101 51 100 52 100 53.2857V63.5714C100 64.2143 100.5 64.7143 101.143 64.7143C101.242 64.7143 101.338 64.7024 101.429 64.68L101.429 76C101.429 77.125 102.304 78 103.429 78C104.554 78 105.429 77.125 105.429 76L105.429 63C105.429 62.6786 105.679 62.4286 106 62.4286C106.321 62.4286 106.571 62.6786 106.571 63L106.571 76C106.571 77.125 107.446 78 108.571 78C109.696 78 110.571 77.125 110.571 76L110.571 64.68C110.662 64.7024 110.758 64.7143 110.857 64.7143C111.5 64.7143 112 64.2143 112 63.5714V53.2857C112 52 111 51 109.714 51H102.286Z" fill="#AC6DFF"/>
<path d="M126 43C124.071 43 122.571 44.5 122.571 46.4286C122.571 48.3571 124.071 49.8571 126 49.8571C127.929 49.8571 129.429 48.3571 129.429 46.4286C129.429 44.5 127.929 43 126 43Z" fill="#AC6DFF"/>
<path d="M122.286 51C121 51 120 52 120 53.2857V63.5714C120 64.2143 120.5 64.7143 121.143 64.7143C121.242 64.7143 121.338 64.7024 121.429 64.68L121.429 76C121.429 77.125 122.304 78 123.429 78C124.554 78 125.429 77.125 125.429 76L125.429 63C125.429 62.6786 125.679 62.4286 126 62.4286C126.321 62.4286 126.571 62.6786 126.571 63L126.571 76C126.571 77.125 127.446 78 128.571 78C129.696 78 130.571 77.125 130.571 76L130.571 64.68C130.662 64.7024 130.758 64.7143 130.857 64.7143C131.5 64.7143 132 64.2143 132 63.5714V53.2857C132 52 131 51 129.714 51H122.286Z" fill="#AC6DFF"/>
<path d="M146 43C144.071 43 142.571 44.5 142.571 46.4286C142.571 48.3571 144.071 49.8571 146 49.8571C147.929 49.8571 149.429 48.3571 149.429 46.4286C149.429 44.5 147.929 43 146 43Z" fill="#AC6DFF"/>
<path d="M142.286 51C141 51 140 52 140 53.2857V63.5714C140 64.2143 140.5 64.7143 141.143 64.7143C141.242 64.7143 141.338 64.7024 141.429 64.68L141.429 76C141.429 77.125 142.304 78 143.429 78C144.554 78 145.429 77.125 145.429 76L145.429 63C145.429 62.6786 145.679 62.4286 146 62.4286C146.321 62.4286 146.571 62.6786 146.571 63L146.571 76C146.571 77.125 147.446 78 148.571 78C149.696 78 150.571 77.125 150.571 76L150.571 64.68C150.662 64.7024 150.758 64.7143 150.857 64.7143C151.5 64.7143 152 64.2143 152 63.5714V53.2857C152 52 151 51 149.714 51H142.286Z" fill="#AC6DFF"/>
<path d="M166 43C164.071 43 162.571 44.5 162.571 46.4286C162.571 48.3571 164.071 49.8571 166 49.8571C167.929 49.8571 169.429 48.3571 169.429 46.4286C169.429 44.5 167.929 43 166 43Z" fill="#AC6DFF"/>
<path d="M162.286 51C161 51 160 52 160 53.2857V63.5714C160 64.2143 160.5 64.7143 161.143 64.7143C161.242 64.7143 161.338 64.7024 161.429 64.68L161.429 76C161.429 77.125 162.304 78 163.429 78C164.554 78 165.429 77.125 165.429 76L165.429 63C165.429 62.6786 165.679 62.4286 166 62.4286C166.321 62.4286 166.571 62.6786 166.571 63L166.571 76C166.571 77.125 167.446 78 168.571 78C169.696 78 170.571 77.125 170.571 76L170.571 64.68C170.662 64.7024 170.758 64.7143 170.857 64.7143C171.5 64.7143 172 64.2143 172 63.5714V53.2857C172 52 171 51 169.714 51H162.286Z" fill="#AC6DFF"/>
<path d="M186 43C184.071 43 182.571 44.5 182.571 46.4286C182.571 48.3571 184.071 49.8571 186 49.8571C187.929 49.8571 189.429 48.3571 189.429 46.4286C189.429 44.5 187.929 43 186 43Z" fill="#AC6DFF"/>
<path d="M182.286 51C181 51 180 52 180 53.2857V63.5714C180 64.2143 180.5 64.7143 181.143 64.7143C181.242 64.7143 181.338 64.7024 181.429 64.68L181.429 76C181.429 77.125 182.304 78 183.429 78C184.554 78 185.429 77.125 185.429 76L185.429 63C185.429 62.6786 185.679 62.4286 186 62.4286C186.321 62.4286 186.571 62.6786 186.571 63L186.571 76C186.571 77.125 187.446 78 188.571 78C189.696 78 190.571 77.125 190.571 76L190.571 64.68C190.662 64.7024 190.758 64.7143 190.857 64.7143C191.5 64.7143 192 64.2143 192 63.5714V53.2857C192 52 191 51 189.714 51H182.286Z" fill="#AC6DFF"/>
<path d="M206 43C204.071 43 202.571 44.5 202.571 46.4286C202.571 48.3571 204.071 49.8571 206 49.8571C207.929 49.8571 209.429 48.3571 209.429 46.4286C209.429 44.5 207.929 43 206 43Z" fill="#AC6DFF"/>
<path d="M202.286 51C201 51 200 52 200 53.2857V63.5714C200 64.2143 200.5 64.7143 201.143 64.7143C201.242 64.7143 201.338 64.7024 201.429 64.68L201.429 76C201.429 77.125 202.304 78 203.429 78C204.554 78 205.429 77.125 205.429 76L205.429 63C205.429 62.6786 205.679 62.4286 206 62.4286C206.321 62.4286 206.571 62.6786 206.571 63L206.571 76C206.571 77.125 207.446 78 208.571 78C209.696 78 210.571 77.125 210.571 76L210.571 64.68C210.662 64.7024 210.758 64.7143 210.857 64.7143C211.5 64.7143 212 64.2143 212 63.5714V53.2857C212 52 211 51 209.714 51H202.286Z" fill="#AC6DFF"/>
<path d="M226 43C224.071 43 222.571 44.5 222.571 46.4286C222.571 48.3571 224.071 49.8571 226 49.8571C227.929 49.8571 229.429 48.3571 229.429 46.4286C229.429 44.5 227.929 43 226 43Z" fill="#AC6DFF"/>
<path d="M222.286 51C221 51 220 52 220 53.2857V63.5714C220 64.2143 220.5 64.7143 221.143 64.7143C221.242 64.7143 221.338 64.7024 221.429 64.68L221.429 76C221.429 77.125 222.304 78 223.429 78C224.554 78 225.429 77.125 225.429 76L225.429 63C225.429 62.6786 225.679 62.4286 226 62.4286C226.321 62.4286 226.571 62.6786 226.571 63L226.571 76C226.571 77.125 227.446 78 228.571 78C229.696 78 230.571 77.125 230.571 76L230.571 64.68C230.662 64.7024 230.758 64.7143 230.857 64.7143C231.5 64.7143 232 64.2143 232 63.5714V53.2857C232 52 231 51 229.714 51H222.286Z" fill="#AC6DFF"/>
<path d="M246 43C244.071 43 242.571 44.5 242.571 46.4286C242.571 48.3571 244.071 49.8571 246 49.8571C247.929 49.8571 249.429 48.3571 249.429 46.4286C249.429 44.5 247.929 43 246 43Z" fill="#AC6DFF"/>
<path d="M242.286 51C241 51 240 52 240 53.2857V63.5714C240 64.2143 240.5 64.7143 241.143 64.7143C241.242 64.7143 241.338 64.7024 241.429 64.68L241.429 76C241.429 77.125 242.304 78 243.429 78C244.554 78 245.429 77.125 245.429 76L245.429 63C245.429 62.6786 245.679 62.4286 246 62.4286C246.321 62.4286 246.571 62.6786 246.571 63L246.571 76C246.571 77.125 247.446 78 248.571 78C249.696 78 250.571 77.125 250.571 76L250.571 64.68C250.662 64.7024 250.758 64.7143 250.857 64.7143C251.5 64.7143 252 64.2143 252 63.5714V53.2857C252 52 251 51 249.714 51H242.286Z" fill="#AC6DFF"/>
<path d="M266 43C264.071 43 262.571 44.5 262.571 46.4286C262.571 48.3571 264.071 49.8571 266 49.8571C267.929 49.8571 269.429 48.3571 269.429 46.4286C269.429 44.5 267.929 43 266 43Z" fill="#AC6DFF"/>
<path d="M262.286 51C261 51 260 52 260 53.2857V63.5714C260 64.2143 260.5 64.7143 261.143 64.7143C261.242 64.7143 261.338 64.7024 261.429 64.68L261.429 76C261.429 77.125 262.304 78 263.429 78C264.554 78 265.429 77.125 265.429 76L265.429 63C265.429 62.6786 265.679 62.4286 266 62.4286C266.321 62.4286 266.571 62.6786 266.571 63L266.571 76C266.571 77.125 267.446 78 268.571 78C269.696 78 270.571 77.125 270.571 76L270.571 64.68C270.662 64.7024 270.758 64.7143 270.857 64.7143C271.5 64.7143 272 64.2143 272 63.5714V53.2857C272 52 271 51 269.714 51H262.286Z" fill="#AC6DFF"/>
<path d="M286 43C284.071 43 282.571 44.5 282.571 46.4286C282.571 48.3571 284.071 49.8571 286 49.8571C287.929 49.8571 289.429 48.3571 289.429 46.4286C289.429 44.5 287.929 43 286 43Z" fill="#AC6DFF"/>
<path d="M282.286 51C281 51 280 52 280 53.2857V63.5714C280 64.2143 280.5 64.7143 281.143 64.7143C281.242 64.7143 281.338 64.7024 281.429 64.68L281.429 76C281.429 77.125 282.304 78 283.429 78C284.554 78 285.429 77.125 285.429 76L285.429 63C285.429 62.6786 285.679 62.4286 286 62.4286C286.321 62.4286 286.571 62.6786 286.571 63L286.571 76C286.571 77.125 287.446 78 288.571 78C289.696 78 290.571 77.125 290.571 76L290.571 64.68C290.662 64.7024 290.758 64.7143 290.857 64.7143C291.5 64.7143 292 64.2143 292 63.5714V53.2857C292 52 291 51 289.714 51H282.286Z" fill="#AC6DFF"/>
<path d="M306 43C304.071 43 302.571 44.5 302.571 46.4286C302.571 48.3571 304.071 49.8571 306 49.8571C307.929 49.8571 309.429 48.3571 309.429 46.4286C309.429 44.5 307.929 43 306 43Z" fill="#AC6DFF"/>
<path d="M302.286 51C301 51 300 52 300 53.2857V63.5714C300 64.2143 300.5 64.7143 301.143 64.7143C301.242 64.7143 301.338 64.7024 301.429 64.68L301.429 76C301.429 77.125 302.304 78 303.429 78C304.554 78 305.429 77.125 305.429 76L305.429 63C305.429 62.6786 305.679 62.4286 306 62.4286C306.321 62.4286 306.571 62.6786 306.571 63L306.571 76C306.571 77.125 307.446 78 308.571 78C309.696 78 310.571 77.125 310.571 76L310.571 64.68C310.662 64.7024 310.758 64.7143 310.857 64.7143C311.5 64.7143 312 64.2143 312 63.5714V53.2857C312 52 311 51 309.714 51H302.286Z" fill="#AC6DFF"/>
<path d="M326 43C324.071 43 322.571 44.5 322.571 46.4286C322.571 48.3571 324.071 49.8571 326 49.8571C327.929 49.8571 329.429 48.3571 329.429 46.4286C329.429 44.5 327.929 43 326 43Z" fill="#AC6DFF"/>
<path d="M322.286 51C321 51 320 52 320 53.2857V63.5714C320 64.2143 320.5 64.7143 321.143 64.7143C321.242 64.7143 321.338 64.7024 321.429 64.68L321.429 76C321.429 77.125 322.304 78 323.429 78C324.554 78 325.429 77.125 325.429 76L325.429 63C325.429 62.6786 325.679 62.4286 326 62.4286C326.321 62.4286 326.571 62.6786 326.571 63L326.571 76C326.571 77.125 327.446 78 328.571 78C329.696 78 330.571 77.125 330.571 76L330.571 64.68C330.662 64.7024 330.758 64.7143 330.857 64.7143C331.5 64.7143 332 64.2143 332 63.5714V53.2857C332 52 331 51 329.714 51H322.286Z" fill="#AC6DFF"/>
<path d="M346 43C344.071 43 342.571 44.5 342.571 46.4286C342.571 48.3571 344.071 49.8571 346 49.8571C347.929 49.8571 349.429 48.3571 349.429 46.4286C349.429 44.5 347.929 43 346 43Z" fill="#AC6DFF"/>
<path d="M342.286 51C341 51 340 52 340 53.2857V63.5714C340 64.2143 340.5 64.7143 341.143 64.7143C341.242 64.7143 341.338 64.7024 341.429 64.68L341.429 76C341.429 77.125 342.304 78 343.429 78C344.554 78 345.429 77.125 345.429 76L345.429 63C345.429 62.6786 345.679 62.4286 346 62.4286C346.321 62.4286 346.571 62.6786 346.571 63L346.571 76C346.571 77.125 347.446 78 348.571 78C349.696 78 350.571 77.125 350.571 76L350.571 64.68C350.662 64.7024 350.758 64.7143 350.857 64.7143C351.5 64.7143 352 64.2143 352 63.5714V53.2857C352 52 351 51 349.714 51H342.286Z" fill="#AC6DFF"/>
<path d="M366 43C364.071 43 362.571 44.5 362.571 46.4286C362.571 48.3571 364.071 49.8571 366 49.8571C367.929 49.8571 369.429 48.3571 369.429 46.4286C369.429 44.5 367.929 43 366 43Z" fill="#AC6DFF"/>
<path d="M362.286 51C361 51 360 52 360 53.2857V63.5714C360 64.2143 360.5 64.7143 361.143 64.7143C361.242 64.7143 361.338 64.7024 361.429 64.68L361.429 76C361.429 77.125 362.304 78 363.429 78C364.554 78 365.429 77.125 365.429 76L365.429 63C365.429 62.6786 365.679 62.4286 366 62.4286C366.321 62.4286 366.571 62.6786 366.571 63L366.571 76C366.571 77.125 367.446 78 368.571 78C369.696 78 370.571 77.125 370.571 76L370.571 64.68C370.662 64.7024 370.758 64.7143 370.857 64.7143C371.5 64.7143 372 64.2143 372 63.5714V53.2857C372 52 371 51 369.714 51H362.286Z" fill="#AC6DFF"/>
<path d="M386 43C384.071 43 382.571 44.5 382.571 46.4286C382.571 48.3571 384.071 49.8571 386 49.8571C387.929 49.8571 389.429 48.3571 389.429 46.4286C389.429 44.5 387.929 43 386 43Z" fill="#AC6DFF"/>
<path d="M382.286 51C381 51 380 52 380 53.2857V63.5714C380 64.2143 380.5 64.7143 381.143 64.7143C381.242 64.7143 381.338 64.7024 381.429 64.68L381.429 76C381.429 77.125 382.304 78 383.429 78C384.554 78 385.429 77.125 385.429 76L385.429 63C385.429 62.6786 385.679 62.4286 386 62.4286C386.321 62.4286 386.571 62.6786 386.571 63L386.571 76C386.571 77.125 387.446 78 388.571 78C389.696 78 390.571 77.125 390.571 76L390.571 64.68C390.662 64.7024 390.758 64.7143 390.857 64.7143C391.5 64.7143 392 64.2143 392 63.5714V53.2857C392 52 391 51 389.714 51H382.286Z" fill="#AC6DFF"/>
<path d="M406 43C404.071 43 402.571 44.5 402.571 46.4286C402.571 48.3571 404.071 49.8571 406 49.8571C407.929 49.8571 409.429 48.3571 409.429 46.4286C409.429 44.5 407.929 43 406 43Z" fill="#AC6DFF"/>
<path d="M402.286 51C401 51 400 52 400 53.2857V63.5714C400 64.2143 400.5 64.7143 401.143 64.7143C401.242 64.7143 401.338 64.7024 401.429 64.68L401.429 76C401.429 77.125 402.304 78 403.429 78C404.554 78 405.429 77.125 405.429 76L405.429 63C405.429 62.6786 405.679 62.4286 406 62.4286C406.321 62.4286 406.571 62.6786 406.571 63L406.571 76C406.571 77.125 407.446 78 408.571 78C409.696 78 410.571 77.125 410.571 76L410.571 64.68C410.662 64.7024 410.758 64.7143 410.857 64.7143C411.5 64.7143 412 64.2143 412 63.5714V53.2857C412 52 411 51 409.714 51H402.286Z" fill="#AC6DFF"/>
<path d="M426 43C424.071 43 422.571 44.5 422.571 46.4286C422.571 48.3571 424.071 49.8571 426 49.8571C427.929 49.8571 429.429 48.3571 429.429 46.4286C429.429 44.5 427.929 43 426 43Z" fill="#AC6DFF"/>
<path d="M422.286 51C421 51 420 52 420 53.2857V63.5714C420 64.2143 420.5 64.7143 421.143 64.7143C421.242 64.7143 421.338 64.7024 421.429 64.68L421.429 76C421.429 77.125 422.304 78 423.429 78C424.554 78 425.429 77.125 425.429 76L425.429 63C425.429 62.6786 425.679 62.4286 426 62.4286C426.321 62.4286 426.571 62.6786 426.571 63L426.571 76C426.571 77.125 427.446 78 428.571 78C429.696 78 430.571 77.125 430.571 76L430.571 64.68C430.662 64.7024 430.758 64.7143 430.857 64.7143C431.5 64.7143 432 64.2143 432 63.5714V53.2857C432 52 431 51 429.714 51H422.286Z" fill="#AC6DFF"/>
<path d="M446 43C444.071 43 442.571 44.5 442.571 46.4286C442.571 48.3571 444.071 49.8571 446 49.8571C447.929 49.8571 449.429 48.3571 449.429 46.4286C449.429 44.5 447.929 43 446 43Z" fill="#AC6DFF"/>
<path d="M442.286 51C441 51 440 52 440 53.2857V63.5714C440 64.2143 440.5 64.7143 441.143 64.7143C441.242 64.7143 441.338 64.7024 441.429 64.68L441.429 76C441.429 77.125 442.304 78 443.429 78C444.554 78 445.429 77.125 445.429 76L445.429 63C445.429 62.6786 445.679 62.4286 446 62.4286C446.321 62.4286 446.571 62.6786 446.571 63L446.571 76C446.571 77.125 447.446 78 448.571 78C449.696 78 450.571 77.125 450.571 76L450.571 64.68C450.662 64.7024 450.758 64.7143 450.857 64.7143C451.5 64.7143 452 64.2143 452 63.5714V53.2857C452 52 451 51 449.714 51H442.286Z" fill="#AC6DFF"/>
<path d="M466 43C464.071 43 462.571 44.5 462.571 46.4286C462.571 48.3571 464.071 49.8571 466 49.8571C467.929 49.8571 469.429 48.3571 469.429 46.4286C469.429 44.5 467.929 43 466 43Z" fill="#AC6DFF"/>
<path d="M462.286 51C461 51 460 52 460 53.2857V63.5714C460 64.2143 460.5 64.7143 461.143 64.7143C461.242 64.7143 461.338 64.7024 461.429 64.68L461.429 76C461.429 77.125 462.304 78 463.429 78C464.554 78 465.429 77.125 465.429 76L465.429 63C465.429 62.6786 465.679 62.4286 466 62.4286C466.321 62.4286 466.571 62.6786 466.571 63L466.571 76C466.571 77.125 467.446 78 468.571 78C469.696 78 470.571 77.125 470.571 76L470.571 64.68C470.662 64.7024 470.758 64.7143 470.857 64.7143C471.5 64.7143 472 64.2143 472 63.5714V53.2857C472 52 471 51 469.714 51H462.286Z" fill="#AC6DFF"/>
<path d="M486 43C484.071 43 482.571 44.5 482.571 46.4286C482.571 48.3571 484.071 49.8571 486 49.8571C487.929 49.8571 489.429 48.3571 489.429 46.4286C489.429 44.5 487.929 43 486 43Z" fill="#AC6DFF"/>
<path d="M482.286 51C481 51 480 52 480 53.2857V63.5714C480 64.2143 480.5 64.7143 481.143 64.7143C481.242 64.7143 481.338 64.7024 481.429 64.68L481.429 76C481.429 77.125 482.304 78 483.429 78C484.554 78 485.429 77.125 485.429 76L485.429 63C485.429 62.6786 485.679 62.4286 486 62.4286C486.321 62.4286 486.571 62.6786 486.571 63L486.571 76C486.571 77.125 487.446 78 488.571 78C489.696 78 490.571 77.125 490.571 76L490.571 64.68C490.662 64.7024 490.758 64.7143 490.857 64.7143C491.5 64.7143 492 64.2143 492 63.5714V53.2857C492 52 491 51 489.714 51H482.286Z" fill="#AC6DFF"/>
<path d="M6 86C4.07143 86 2.57143 87.5 2.57143 89.4286C2.57143 91.3571 4.07143 92.8571 6 92.8571C7.92857 92.8571 9.42857 91.3571 9.42857 89.4286C9.42857 87.5 7.92857 86 6 86Z" fill="#AC6DFF"/>
<path d="M2.28571 94C1 94 0 95 0 96.2857V106.571C0 107.214 0.5 107.714 1.14286 107.714C1.24192 107.714 1.3376 107.702 1.42857 107.68L1.42857 119C1.42857 120.125 2.30357 121 3.42857 121C4.55357 121 5.42857 120.125 5.42857 119L5.42857 106C5.42857 105.679 5.67857 105.429 6 105.429C6.32143 105.429 6.57143 105.679 6.57143 106L6.57143 119C6.57143 120.125 7.44643 121 8.57143 121C9.69643 121 10.5714 120.125 10.5714 119L10.5714 107.68C10.6624 107.702 10.7581 107.714 10.8571 107.714C11.5 107.714 12 107.214 12 106.571V96.2857C12 95 11 94 9.71428 94H2.28571Z" fill="#AC6DFF"/>
<path d="M26 86C24.0714 86 22.5714 87.5 22.5714 89.4286C22.5714 91.3571 24.0714 92.8571 26 92.8571C27.9286 92.8571 29.4286 91.3571 29.4286 89.4286C29.4286 87.5 27.9286 86 26 86Z" fill="#AC6DFF"/>
<path d="M22.2857 94C21 94 20 95 20 96.2857V106.571C20 107.214 20.5 107.714 21.1429 107.714C21.2419 107.714 21.3376 107.702 21.4286 107.68L21.4286 119C21.4286 120.125 22.3036 121 23.4286 121C24.5536 121 25.4286 120.125 25.4286 119L25.4286 106C25.4286 105.679 25.6786 105.429 26 105.429C26.3214 105.429 26.5714 105.679 26.5714 106L26.5714 119C26.5714 120.125 27.4464 121 28.5714 121C29.6964 121 30.5714 120.125 30.5714 119L30.5714 107.68C30.6624 107.702 30.7581 107.714 30.8571 107.714C31.5 107.714 32 107.214 32 106.571V96.2857C32 95 31 94 29.7143 94H22.2857Z" fill="#AC6DFF"/>
<path d="M46 86C44.0714 86 42.5714 87.5 42.5714 89.4286C42.5714 91.3571 44.0714 92.8571 46 92.8571C47.9286 92.8571 49.4286 91.3571 49.4286 89.4286C49.4286 87.5 47.9286 86 46 86Z" fill="#AC6DFF"/>
<path d="M42.2857 94C41 94 40 95 40 96.2857V106.571C40 107.214 40.5 107.714 41.1429 107.714C41.2419 107.714 41.3376 107.702 41.4286 107.68L41.4286 119C41.4286 120.125 42.3036 121 43.4286 121C44.5536 121 45.4286 120.125 45.4286 119L45.4286 106C45.4286 105.679 45.6786 105.429 46 105.429C46.3214 105.429 46.5714 105.679 46.5714 106L46.5714 119C46.5714 120.125 47.4464 121 48.5714 121C49.6964 121 50.5714 120.125 50.5714 119L50.5714 107.68C50.6624 107.702 50.7581 107.714 50.8571 107.714C51.5 107.714 52 107.214 52 106.571V96.2857C52 95 51 94 49.7143 94H42.2857Z" fill="#AC6DFF"/>
<path d="M66 86C64.0714 86 62.5714 87.5 62.5714 89.4286C62.5714 91.3571 64.0714 92.8571 66 92.8571C67.9286 92.8571 69.4286 91.3571 69.4286 89.4286C69.4286 87.5 67.9286 86 66 86Z" fill="#AC6DFF"/>
<path d="M62.2857 94C61 94 60 95 60 96.2857V106.571C60 107.214 60.5 107.714 61.1429 107.714C61.2419 107.714 61.3376 107.702 61.4286 107.68L61.4286 119C61.4286 120.125 62.3036 121 63.4286 121C64.5536 121 65.4286 120.125 65.4286 119L65.4286 106C65.4286 105.679 65.6786 105.429 66 105.429C66.3214 105.429 66.5714 105.679 66.5714 106L66.5714 119C66.5714 120.125 67.4464 121 68.5714 121C69.6964 121 70.5714 120.125 70.5714 119L70.5714 107.68C70.6624 107.702 70.7581 107.714 70.8571 107.714C71.5 107.714 72 107.214 72 106.571V96.2857C72 95 71 94 69.7143 94H62.2857Z" fill="#AC6DFF"/>
<path d="M86 86C84.0714 86 82.5714 87.5 82.5714 89.4286C82.5714 91.3571 84.0714 92.8571 86 92.8571C87.9286 92.8571 89.4286 91.3571 89.4286 89.4286C89.4286 87.5 87.9286 86 86 86Z" fill="#AC6DFF"/>
<path d="M82.2857 94C81 94 80 95 80 96.2857V106.571C80 107.214 80.5 107.714 81.1429 107.714C81.2419 107.714 81.3376 107.702 81.4286 107.68L81.4286 119C81.4286 120.125 82.3036 121 83.4286 121C84.5536 121 85.4286 120.125 85.4286 119L85.4286 106C85.4286 105.679 85.6786 105.429 86 105.429C86.3214 105.429 86.5714 105.679 86.5714 106L86.5714 119C86.5714 120.125 87.4464 121 88.5714 121C89.6964 121 90.5714 120.125 90.5714 119L90.5714 107.68C90.6624 107.702 90.7581 107.714 90.8571 107.714C91.5 107.714 92 107.214 92 106.571V96.2857C92 95 91 94 89.7143 94H82.2857Z" fill="#AC6DFF"/>
<path d="M106 86C104.071 86 102.571 87.5 102.571 89.4286C102.571 91.3571 104.071 92.8571 106 92.8571C107.929 92.8571 109.429 91.3571 109.429 89.4286C109.429 87.5 107.929 86 106 86Z" fill="#AC6DFF"/>
<path d="M102.286 94C101 94 100 95 100 96.2857V106.571C100 107.214 100.5 107.714 101.143 107.714C101.242 107.714 101.338 107.702 101.429 107.68L101.429 119C101.429 120.125 102.304 121 103.429 121C104.554 121 105.429 120.125 105.429 119L105.429 106C105.429 105.679 105.679 105.429 106 105.429C106.321 105.429 106.571 105.679 106.571 106L106.571 119C106.571 120.125 107.446 121 108.571 121C109.696 121 110.571 120.125 110.571 119L110.571 107.68C110.662 107.702 110.758 107.714 110.857 107.714C111.5 107.714 112 107.214 112 106.571V96.2857C112 95 111 94 109.714 94H102.286Z" fill="#AC6DFF"/>
<path d="M126 86C124.071 86 122.571 87.5 122.571 89.4286C122.571 91.3571 124.071 92.8571 126 92.8571C127.929 92.8571 129.429 91.3571 129.429 89.4286C129.429 87.5 127.929 86 126 86Z" fill="#AC6DFF"/>
<path d="M122.286 94C121 94 120 95 120 96.2857V106.571C120 107.214 120.5 107.714 121.143 107.714C121.242 107.714 121.338 107.702 121.429 107.68L121.429 119C121.429 120.125 122.304 121 123.429 121C124.554 121 125.429 120.125 125.429 119L125.429 106C125.429 105.679 125.679 105.429 126 105.429C126.321 105.429 126.571 105.679 126.571 106L126.571 119C126.571 120.125 127.446 121 128.571 121C129.696 121 130.571 120.125 130.571 119L130.571 107.68C130.662 107.702 130.758 107.714 130.857 107.714C131.5 107.714 132 107.214 132 106.571V96.2857C132 95 131 94 129.714 94H122.286Z" fill="#AC6DFF"/>
<path d="M146 86C144.071 86 142.571 87.5 142.571 89.4286C142.571 91.3571 144.071 92.8571 146 92.8571C147.929 92.8571 149.429 91.3571 149.429 89.4286C149.429 87.5 147.929 86 146 86Z" fill="#AC6DFF"/>
<path d="M142.286 94C141 94 140 95 140 96.2857V106.571C140 107.214 140.5 107.714 141.143 107.714C141.242 107.714 141.338 107.702 141.429 107.68L141.429 119C141.429 120.125 142.304 121 143.429 121C144.554 121 145.429 120.125 145.429 119L145.429 106C145.429 105.679 145.679 105.429 146 105.429C146.321 105.429 146.571 105.679 146.571 106L146.571 119C146.571 120.125 147.446 121 148.571 121C149.696 121 150.571 120.125 150.571 119L150.571 107.68C150.662 107.702 150.758 107.714 150.857 107.714C151.5 107.714 152 107.214 152 106.571V96.2857C152 95 151 94 149.714 94H142.286Z" fill="#AC6DFF"/>
<path d="M166 86C164.071 86 162.571 87.5 162.571 89.4286C162.571 91.3571 164.071 92.8571 166 92.8571C167.929 92.8571 169.429 91.3571 169.429 89.4286C169.429 87.5 167.929 86 166 86Z" fill="#AC6DFF"/>
<path d="M162.286 94C161 94 160 95 160 96.2857V106.571C160 107.214 160.5 107.714 161.143 107.714C161.242 107.714 161.338 107.702 161.429 107.68L161.429 119C161.429 120.125 162.304 121 163.429 121C164.554 121 165.429 120.125 165.429 119L165.429 106C165.429 105.679 165.679 105.429 166 105.429C166.321 105.429 166.571 105.679 166.571 106L166.571 119C166.571 120.125 167.446 121 168.571 121C169.696 121 170.571 120.125 170.571 119L170.571 107.68C170.662 107.702 170.758 107.714 170.857 107.714C171.5 107.714 172 107.214 172 106.571V96.2857C172 95 171 94 169.714 94H162.286Z" fill="#AC6DFF"/>
<path d="M186 86C184.071 86 182.571 87.5 182.571 89.4286C182.571 91.3571 184.071 92.8571 186 92.8571C187.929 92.8571 189.429 91.3571 189.429 89.4286C189.429 87.5 187.929 86 186 86Z" fill="#AC6DFF"/>
<path d="M182.286 94C181 94 180 95 180 96.2857V106.571C180 107.214 180.5 107.714 181.143 107.714C181.242 107.714 181.338 107.702 181.429 107.68L181.429 119C181.429 120.125 182.304 121 183.429 121C184.554 121 185.429 120.125 185.429 119L185.429 106C185.429 105.679 185.679 105.429 186 105.429C186.321 105.429 186.571 105.679 186.571 106L186.571 119C186.571 120.125 187.446 121 188.571 121C189.696 121 190.571 120.125 190.571 119L190.571 107.68C190.662 107.702 190.758 107.714 190.857 107.714C191.5 107.714 192 107.214 192 106.571V96.2857C192 95 191 94 189.714 94H182.286Z" fill="#AC6DFF"/>
<path d="M206 86C204.071 86 202.571 87.5 202.571 89.4286C202.571 91.3571 204.071 92.8571 206 92.8571C207.929 92.8571 209.429 91.3571 209.429 89.4286C209.429 87.5 207.929 86 206 86Z" fill="#AC6DFF"/>
<path d="M202.286 94C201 94 200 95 200 96.2857V106.571C200 107.214 200.5 107.714 201.143 107.714C201.242 107.714 201.338 107.702 201.429 107.68L201.429 119C201.429 120.125 202.304 121 203.429 121C204.554 121 205.429 120.125 205.429 119L205.429 106C205.429 105.679 205.679 105.429 206 105.429C206.321 105.429 206.571 105.679 206.571 106L206.571 119C206.571 120.125 207.446 121 208.571 121C209.696 121 210.571 120.125 210.571 119L210.571 107.68C210.662 107.702 210.758 107.714 210.857 107.714C211.5 107.714 212 107.214 212 106.571V96.2857C212 95 211 94 209.714 94H202.286Z" fill="#AC6DFF"/>
<path d="M226 86C224.071 86 222.571 87.5 222.571 89.4286C222.571 91.3571 224.071 92.8571 226 92.8571C227.929 92.8571 229.429 91.3571 229.429 89.4286C229.429 87.5 227.929 86 226 86Z" fill="#AC6DFF"/>
<path d="M222.286 94C221 94 220 95 220 96.2857V106.571C220 107.214 220.5 107.714 221.143 107.714C221.242 107.714 221.338 107.702 221.429 107.68L221.429 119C221.429 120.125 222.304 121 223.429 121C224.554 121 225.429 120.125 225.429 119L225.429 106C225.429 105.679 225.679 105.429 226 105.429C226.321 105.429 226.571 105.679 226.571 106L226.571 119C226.571 120.125 227.446 121 228.571 121C229.696 121 230.571 120.125 230.571 119L230.571 107.68C230.662 107.702 230.758 107.714 230.857 107.714C231.5 107.714 232 107.214 232 106.571V96.2857C232 95 231 94 229.714 94H222.286Z" fill="#AC6DFF"/>
<path d="M246 86C244.071 86 242.571 87.5 242.571 89.4286C242.571 91.3571 244.071 92.8571 246 92.8571C247.929 92.8571 249.429 91.3571 249.429 89.4286C249.429 87.5 247.929 86 246 86Z" fill="#AC6DFF"/>
<path d="M242.286 94C241 94 240 95 240 96.2857V106.571C240 107.214 240.5 107.714 241.143 107.714C241.242 107.714 241.338 107.702 241.429 107.68L241.429 119C241.429 120.125 242.304 121 243.429 121C244.554 121 245.429 120.125 245.429 119L245.429 106C245.429 105.679 245.679 105.429 246 105.429C246.321 105.429 246.571 105.679 246.571 106L246.571 119C246.571 120.125 247.446 121 248.571 121C249.696 121 250.571 120.125 250.571 119L250.571 107.68C250.662 107.702 250.758 107.714 250.857 107.714C251.5 107.714 252 107.214 252 106.571V96.2857C252 95 251 94 249.714 94H242.286Z" fill="#AC6DFF"/>
<path d="M266 86C264.071 86 262.571 87.5 262.571 89.4286C262.571 91.3571 264.071 92.8571 266 92.8571C267.929 92.8571 269.429 91.3571 269.429 89.4286C269.429 87.5 267.929 86 266 86Z" fill="#AC6DFF"/>
<path d="M262.286 94C261 94 260 95 260 96.2857V106.571C260 107.214 260.5 107.714 261.143 107.714C261.242 107.714 261.338 107.702 261.429 107.68L261.429 119C261.429 120.125 262.304 121 263.429 121C264.554 121 265.429 120.125 265.429 119L265.429 106C265.429 105.679 265.679 105.429 266 105.429C266.321 105.429 266.571 105.679 266.571 106L266.571 119C266.571 120.125 267.446 121 268.571 121C269.696 121 270.571 120.125 270.571 119L270.571 107.68C270.662 107.702 270.758 107.714 270.857 107.714C271.5 107.714 272 107.214 272 106.571V96.2857C272 95 271 94 269.714 94H262.286Z" fill="#AC6DFF"/>
<path d="M286 86C284.071 86 282.571 87.5 282.571 89.4286C282.571 91.3571 284.071 92.8571 286 92.8571C287.929 92.8571 289.429 91.3571 289.429 89.4286C289.429 87.5 287.929 86 286 86Z" fill="#AC6DFF"/>
<path d="M282.286 94C281 94 280 95 280 96.2857V106.571C280 107.214 280.5 107.714 281.143 107.714C281.242 107.714 281.338 107.702 281.429 107.68L281.429 119C281.429 120.125 282.304 121 283.429 121C284.554 121 285.429 120.125 285.429 119L285.429 106C285.429 105.679 285.679 105.429 286 105.429C286.321 105.429 286.571 105.679 286.571 106L286.571 119C286.571 120.125 287.446 121 288.571 121C289.696 121 290.571 120.125 290.571 119L290.571 107.68C290.662 107.702 290.758 107.714 290.857 107.714C291.5 107.714 292 107.214 292 106.571V96.2857C292 95 291 94 289.714 94H282.286Z" fill="#AC6DFF"/>
<path d="M306 86C304.071 86 302.571 87.5 302.571 89.4286C302.571 91.3571 304.071 92.8571 306 92.8571C307.929 92.8571 309.429 91.3571 309.429 89.4286C309.429 87.5 307.929 86 306 86Z" fill="#AC6DFF"/>
<path d="M302.286 94C301 94 300 95 300 96.2857V106.571C300 107.214 300.5 107.714 301.143 107.714C301.242 107.714 301.338 107.702 301.429 107.68L301.429 119C301.429 120.125 302.304 121 303.429 121C304.554 121 305.429 120.125 305.429 119L305.429 106C305.429 105.679 305.679 105.429 306 105.429C306.321 105.429 306.571 105.679 306.571 106L306.571 119C306.571 120.125 307.446 121 308.571 121C309.696 121 310.571 120.125 310.571 119L310.571 107.68C310.662 107.702 310.758 107.714 310.857 107.714C311.5 107.714 312 107.214 312 106.571V96.2857C312 95 311 94 309.714 94H302.286Z" fill="#AC6DFF"/>
<path d="M326 86C324.071 86 322.571 87.5 322.571 89.4286C322.571 91.3571 324.071 92.8571 326 92.8571C327.929 92.8571 329.429 91.3571 329.429 89.4286C329.429 87.5 327.929 86 326 86Z" fill="#AC6DFF"/>
<path d="M322.286 94C321 94 320 95 320 96.2857V106.571C320 107.214 320.5 107.714 321.143 107.714C321.242 107.714 321.338 107.702 321.429 107.68L321.429 119C321.429 120.125 322.304 121 323.429 121C324.554 121 325.429 120.125 325.429 119L325.429 106C325.429 105.679 325.679 105.429 326 105.429C326.321 105.429 326.571 105.679 326.571 106L326.571 119C326.571 120.125 327.446 121 328.571 121C329.696 121 330.571 120.125 330.571 119L330.571 107.68C330.662 107.702 330.758 107.714 330.857 107.714C331.5 107.714 332 107.214 332 106.571V96.2857C332 95 331 94 329.714 94H322.286Z" fill="#AC6DFF"/>
<path d="M346 86C344.071 86 342.571 87.5 342.571 89.4286C342.571 91.3571 344.071 92.8571 346 92.8571C347.929 92.8571 349.429 91.3571 349.429 89.4286C349.429 87.5 347.929 86 346 86Z" fill="#AC6DFF"/>
<path d="M342.286 94C341 94 340 95 340 96.2857V106.571C340 107.214 340.5 107.714 341.143 107.714C341.242 107.714 341.338 107.702 341.429 107.68L341.429 119C341.429 120.125 342.304 121 343.429 121C344.554 121 345.429 120.125 345.429 119L345.429 106C345.429 105.679 345.679 105.429 346 105.429C346.321 105.429 346.571 105.679 346.571 106L346.571 119C346.571 120.125 347.446 121 348.571 121C349.696 121 350.571 120.125 350.571 119L350.571 107.68C350.662 107.702 350.758 107.714 350.857 107.714C351.5 107.714 352 107.214 352 106.571V96.2857C352 95 351 94 349.714 94H342.286Z" fill="#AC6DFF"/>
<path d="M366 86C364.071 86 362.571 87.5 362.571 89.4286C362.571 91.3571 364.071 92.8571 366 92.8571C367.929 92.8571 369.429 91.3571 369.429 89.4286C369.429 87.5 367.929 86 366 86Z" fill="#AC6DFF"/>
<path d="M362.286 94C361 94 360 95 360 96.2857V106.571C360 107.214 360.5 107.714 361.143 107.714C361.242 107.714 361.338 107.702 361.429 107.68L361.429 119C361.429 120.125 362.304 121 363.429 121C364.554 121 365.429 120.125 365.429 119L365.429 106C365.429 105.679 365.679 105.429 366 105.429C366.321 105.429 366.571 105.679 366.571 106L366.571 119C366.571 120.125 367.446 121 368.571 121C369.696 121 370.571 120.125 370.571 119L370.571 107.68C370.662 107.702 370.758 107.714 370.857 107.714C371.5 107.714 372 107.214 372 106.571V96.2857C372 95 371 94 369.714 94H362.286Z" fill="#AC6DFF"/>
<path d="M386 86C384.071 86 382.571 87.5 382.571 89.4286C382.571 91.3571 384.071 92.8571 386 92.8571C387.929 92.8571 389.429 91.3571 389.429 89.4286C389.429 87.5 387.929 86 386 86Z" fill="#AC6DFF"/>
<path d="M382.286 94C381 94 380 95 380 96.2857V106.571C380 107.214 380.5 107.714 381.143 107.714C381.242 107.714 381.338 107.702 381.429 107.68L381.429 119C381.429 120.125 382.304 121 383.429 121C384.554 121 385.429 120.125 385.429 119L385.429 106C385.429 105.679 385.679 105.429 386 105.429C386.321 105.429 386.571 105.679 386.571 106L386.571 119C386.571 120.125 387.446 121 388.571 121C389.696 121 390.571 120.125 390.571 119L390.571 107.68C390.662 107.702 390.758 107.714 390.857 107.714C391.5 107.714 392 107.214 392 106.571V96.2857C392 95 391 94 389.714 94H382.286Z" fill="#AC6DFF"/>
<path d="M406 86C404.071 86 402.571 87.5 402.571 89.4286C402.571 91.3571 404.071 92.8571 406 92.8571C407.929 92.8571 409.429 91.3571 409.429 89.4286C409.429 87.5 407.929 86 406 86Z" fill="#AC6DFF"/>
<path d="M402.286 94C401 94 400 95 400 96.2857V106.571C400 107.214 400.5 107.714 401.143 107.714C401.242 107.714 401.338 107.702 401.429 107.68L401.429 119C401.429 120.125 402.304 121 403.429 121C404.554 121 405.429 120.125 405.429 119L405.429 106C405.429 105.679 405.679 105.429 406 105.429C406.321 105.429 406.571 105.679 406.571 106L406.571 119C406.571 120.125 407.446 121 408.571 121C409.696 121 410.571 120.125 410.571 119L410.571 107.68C410.662 107.702 410.758 107.714 410.857 107.714C411.5 107.714 412 107.214 412 106.571V96.2857C412 95 411 94 409.714 94H402.286Z" fill="#AC6DFF"/>
<path d="M426 86C424.071 86 422.571 87.5 422.571 89.4286C422.571 91.3571 424.071 92.8571 426 92.8571C427.929 92.8571 429.429 91.3571 429.429 89.4286C429.429 87.5 427.929 86 426 86Z" fill="#AC6DFF"/>
<path d="M422.286 94C421 94 420 95 420 96.2857V106.571C420 107.214 420.5 107.714 421.143 107.714C421.242 107.714 421.338 107.702 421.429 107.68L421.429 119C421.429 120.125 422.304 121 423.429 121C424.554 121 425.429 120.125 425.429 119L425.429 106C425.429 105.679 425.679 105.429 426 105.429C426.321 105.429 426.571 105.679 426.571 106L426.571 119C426.571 120.125 427.446 121 428.571 121C429.696 121 430.571 120.125 430.571 119L430.571 107.68C430.662 107.702 430.758 107.714 430.857 107.714C431.5 107.714 432 107.214 432 106.571V96.2857C432 95 431 94 429.714 94H422.286Z" fill="#AC6DFF"/>
<path d="M446 86C444.071 86 442.571 87.5 442.571 89.4286C442.571 91.3571 444.071 92.8571 446 92.8571C447.929 92.8571 449.429 91.3571 449.429 89.4286C449.429 87.5 447.929 86 446 86Z" fill="#AC6DFF"/>
<path d="M442.286 94C441 94 440 95 440 96.2857V106.571C440 107.214 440.5 107.714 441.143 107.714C441.242 107.714 441.338 107.702 441.429 107.68L441.429 119C441.429 120.125 442.304 121 443.429 121C444.554 121 445.429 120.125 445.429 119L445.429 106C445.429 105.679 445.679 105.429 446 105.429C446.321 105.429 446.571 105.679 446.571 106L446.571 119C446.571 120.125 447.446 121 448.571 121C449.696 121 450.571 120.125 450.571 119L450.571 107.68C450.662 107.702 450.758 107.714 450.857 107.714C451.5 107.714 452 107.214 452 106.571V96.2857C452 95 451 94 449.714 94H442.286Z" fill="#AC6DFF"/>
<path d="M466 86C464.071 86 462.571 87.5 462.571 89.4286C462.571 91.3571 464.071 92.8571 466 92.8571C467.929 92.8571 469.429 91.3571 469.429 89.4286C469.429 87.5 467.929 86 466 86Z" fill="#AC6DFF"/>
<path d="M462.286 94C461 94 460 95 460 96.2857V106.571C460 107.214 460.5 107.714 461.143 107.714C461.242 107.714 461.338 107.702 461.429 107.68L461.429 119C461.429 120.125 462.304 121 463.429 121C464.554 121 465.429 120.125 465.429 119L465.429 106C465.429 105.679 465.679 105.429 466 105.429C466.321 105.429 466.571 105.679 466.571 106L466.571 119C466.571 120.125 467.446 121 468.571 121C469.696 121 470.571 120.125 470.571 119L470.571 107.68C470.662 107.702 470.758 107.714 470.857 107.714C471.5 107.714 472 107.214 472 106.571V96.2857C472 95 471 94 469.714 94H462.286Z" fill="#AC6DFF"/>
<path d="M486 86C484.071 86 482.571 87.5 482.571 89.4286C482.571 91.3571 484.071 92.8571 486 92.8571C487.929 92.8571 489.429 91.3571 489.429 89.4286C489.429 87.5 487.929 86 486 86Z" fill="#AC6DFF"/>
<path d="M482.286 94C481 94 480 95 480 96.2857V106.571C480 107.214 480.5 107.714 481.143 107.714C481.242 107.714 481.338 107.702 481.429 107.68L481.429 119C481.429 120.125 482.304 121 483.429 121C484.554 121 485.429 120.125 485.429 119L485.429 106C485.429 105.679 485.679 105.429 486 105.429C486.321 105.429 486.571 105.679 486.571 106L486.571 119C486.571 120.125 487.446 121 488.571 121C489.696 121 490.571 120.125 490.571 119L490.571 107.68C490.662 107.702 490.758 107.714 490.857 107.714C491.5 107.714 492 107.214 492 106.571V96.2857C492 95 491 94 489.714 94H482.286Z" fill="#AC6DFF"/>
<path d="M6 129C4.07143 129 2.57143 130.5 2.57143 132.429C2.57143 134.357 4.07143 135.857 6 135.857C7.92857 135.857 9.42857 134.357 9.42857 132.429C9.42857 130.5 7.92857 129 6 129Z" fill="#AC6DFF"/>
<path d="M2.28571 137C1 137 0 138 0 139.286V149.571C0 150.214 0.5 150.714 1.14286 150.714C1.24192 150.714 1.3376 150.702 1.42857 150.68L1.42857 162C1.42857 163.125 2.30357 164 3.42857 164C4.55357 164 5.42857 163.125 5.42857 162L5.42857 149C5.42857 148.679 5.67857 148.429 6 148.429C6.32143 148.429 6.57143 148.679 6.57143 149L6.57143 162C6.57143 163.125 7.44643 164 8.57143 164C9.69643 164 10.5714 163.125 10.5714 162L10.5714 150.68C10.6624 150.702 10.7581 150.714 10.8571 150.714C11.5 150.714 12 150.214 12 149.571V139.286C12 138 11 137 9.71428 137H2.28571Z" fill="#AC6DFF"/>
<path d="M26 129C24.0714 129 22.5714 130.5 22.5714 132.429C22.5714 134.357 24.0714 135.857 26 135.857C27.9286 135.857 29.4286 134.357 29.4286 132.429C29.4286 130.5 27.9286 129 26 129Z" fill="#AC6DFF"/>
<path d="M22.2857 137C21 137 20 138 20 139.286V149.571C20 150.214 20.5 150.714 21.1429 150.714C21.2419 150.714 21.3376 150.702 21.4286 150.68L21.4286 162C21.4286 163.125 22.3036 164 23.4286 164C24.5536 164 25.4286 163.125 25.4286 162L25.4286 149C25.4286 148.679 25.6786 148.429 26 148.429C26.3214 148.429 26.5714 148.679 26.5714 149L26.5714 162C26.5714 163.125 27.4464 164 28.5714 164C29.6964 164 30.5714 163.125 30.5714 162L30.5714 150.68C30.6624 150.702 30.7581 150.714 30.8571 150.714C31.5 150.714 32 150.214 32 149.571V139.286C32 138 31 137 29.7143 137H22.2857Z" fill="#AC6DFF"/>
<path d="M46 129C44.0714 129 42.5714 130.5 42.5714 132.429C42.5714 134.357 44.0714 135.857 46 135.857C47.9286 135.857 49.4286 134.357 49.4286 132.429C49.4286 130.5 47.9286 129 46 129Z" fill="#AC6DFF"/>
<path d="M42.2857 137C41 137 40 138 40 139.286V149.571C40 150.214 40.5 150.714 41.1429 150.714C41.2419 150.714 41.3376 150.702 41.4286 150.68L41.4286 162C41.4286 163.125 42.3036 164 43.4286 164C44.5536 164 45.4286 163.125 45.4286 162L45.4286 149C45.4286 148.679 45.6786 148.429 46 148.429C46.3214 148.429 46.5714 148.679 46.5714 149L46.5714 162C46.5714 163.125 47.4464 164 48.5714 164C49.6964 164 50.5714 163.125 50.5714 162L50.5714 150.68C50.6624 150.702 50.7581 150.714 50.8571 150.714C51.5 150.714 52 150.214 52 149.571V139.286C52 138 51 137 49.7143 137H42.2857Z" fill="#AC6DFF"/>
<path d="M66 129C64.0714 129 62.5714 130.5 62.5714 132.429C62.5714 134.357 64.0714 135.857 66 135.857C67.9286 135.857 69.4286 134.357 69.4286 132.429C69.4286 130.5 67.9286 129 66 129Z" fill="#AC6DFF"/>
<path d="M62.2857 137C61 137 60 138 60 139.286V149.571C60 150.214 60.5 150.714 61.1429 150.714C61.2419 150.714 61.3376 150.702 61.4286 150.68L61.4286 162C61.4286 163.125 62.3036 164 63.4286 164C64.5536 164 65.4286 163.125 65.4286 162L65.4286 149C65.4286 148.679 65.6786 148.429 66 148.429C66.3214 148.429 66.5714 148.679 66.5714 149L66.5714 162C66.5714 163.125 67.4464 164 68.5714 164C69.6964 164 70.5714 163.125 70.5714 162L70.5714 150.68C70.6624 150.702 70.7581 150.714 70.8571 150.714C71.5 150.714 72 150.214 72 149.571V139.286C72 138 71 137 69.7143 137H62.2857Z" fill="#AC6DFF"/>
<path d="M86 129C84.0714 129 82.5714 130.5 82.5714 132.429C82.5714 134.357 84.0714 135.857 86 135.857C87.9286 135.857 89.4286 134.357 89.4286 132.429C89.4286 130.5 87.9286 129 86 129Z" fill="#AC6DFF"/>
<path d="M82.2857 137C81 137 80 138 80 139.286V149.571C80 150.214 80.5 150.714 81.1429 150.714C81.2419 150.714 81.3376 150.702 81.4286 150.68L81.4286 162C81.4286 163.125 82.3036 164 83.4286 164C84.5536 164 85.4286 163.125 85.4286 162L85.4286 149C85.4286 148.679 85.6786 148.429 86 148.429C86.3214 148.429 86.5714 148.679 86.5714 149L86.5714 162C86.5714 163.125 87.4464 164 88.5714 164C89.6964 164 90.5714 163.125 90.5714 162L90.5714 150.68C90.6624 150.702 90.7581 150.714 90.8571 150.714C91.5 150.714 92 150.214 92 149.571V139.286C92 138 91 137 89.7143 137H82.2857Z" fill="#AC6DFF"/>
<path d="M106 129C104.071 129 102.571 130.5 102.571 132.429C102.571 134.357 104.071 135.857 106 135.857C107.929 135.857 109.429 134.357 109.429 132.429C109.429 130.5 107.929 129 106 129Z" fill="#AC6DFF"/>
<path d="M102.286 137C101 137 100 138 100 139.286V149.571C100 150.214 100.5 150.714 101.143 150.714C101.242 150.714 101.338 150.702 101.429 150.68L101.429 162C101.429 163.125 102.304 164 103.429 164C104.554 164 105.429 163.125 105.429 162L105.429 149C105.429 148.679 105.679 148.429 106 148.429C106.321 148.429 106.571 148.679 106.571 149L106.571 162C106.571 163.125 107.446 164 108.571 164C109.696 164 110.571 163.125 110.571 162L110.571 150.68C110.662 150.702 110.758 150.714 110.857 150.714C111.5 150.714 112 150.214 112 149.571V139.286C112 138 111 137 109.714 137H102.286Z" fill="#AC6DFF"/>
<path d="M126 129C124.071 129 122.571 130.5 122.571 132.429C122.571 134.357 124.071 135.857 126 135.857C127.929 135.857 129.429 134.357 129.429 132.429C129.429 130.5 127.929 129 126 129Z" fill="#AC6DFF"/>
<path d="M122.286 137C121 137 120 138 120 139.286V149.571C120 150.214 120.5 150.714 121.143 150.714C121.242 150.714 121.338 150.702 121.429 150.68L121.429 162C121.429 163.125 122.304 164 123.429 164C124.554 164 125.429 163.125 125.429 162L125.429 149C125.429 148.679 125.679 148.429 126 148.429C126.321 148.429 126.571 148.679 126.571 149L126.571 162C126.571 163.125 127.446 164 128.571 164C129.696 164 130.571 163.125 130.571 162L130.571 150.68C130.662 150.702 130.758 150.714 130.857 150.714C131.5 150.714 132 150.214 132 149.571V139.286C132 138 131 137 129.714 137H122.286Z" fill="#AC6DFF"/>
<path d="M146 129C144.071 129 142.571 130.5 142.571 132.429C142.571 134.357 144.071 135.857 146 135.857C147.929 135.857 149.429 134.357 149.429 132.429C149.429 130.5 147.929 129 146 129Z" fill="#AC6DFF"/>
<path d="M142.286 137C141 137 140 138 140 139.286V149.571C140 150.214 140.5 150.714 141.143 150.714C141.242 150.714 141.338 150.702 141.429 150.68L141.429 162C141.429 163.125 142.304 164 143.429 164C144.554 164 145.429 163.125 145.429 162L145.429 149C145.429 148.679 145.679 148.429 146 148.429C146.321 148.429 146.571 148.679 146.571 149L146.571 162C146.571 163.125 147.446 164 148.571 164C149.696 164 150.571 163.125 150.571 162L150.571 150.68C150.662 150.702 150.758 150.714 150.857 150.714C151.5 150.714 152 150.214 152 149.571V139.286C152 138 151 137 149.714 137H142.286Z" fill="#AC6DFF"/>
<path d="M166 129C164.071 129 162.571 130.5 162.571 132.429C162.571 134.357 164.071 135.857 166 135.857C167.929 135.857 169.429 134.357 169.429 132.429C169.429 130.5 167.929 129 166 129Z" fill="#AC6DFF"/>
<path d="M162.286 137C161 137 160 138 160 139.286V149.571C160 150.214 160.5 150.714 161.143 150.714C161.242 150.714 161.338 150.702 161.429 150.68L161.429 162C161.429 163.125 162.304 164 163.429 164C164.554 164 165.429 163.125 165.429 162L165.429 149C165.429 148.679 165.679 148.429 166 148.429C166.321 148.429 166.571 148.679 166.571 149L166.571 162C166.571 163.125 167.446 164 168.571 164C169.696 164 170.571 163.125 170.571 162L170.571 150.68C170.662 150.702 170.758 150.714 170.857 150.714C171.5 150.714 172 150.214 172 149.571V139.286C172 138 171 137 169.714 137H162.286Z" fill="#AC6DFF"/>
<path d="M186 129C184.071 129 182.571 130.5 182.571 132.429C182.571 134.357 184.071 135.857 186 135.857C187.929 135.857 189.429 134.357 189.429 132.429C189.429 130.5 187.929 129 186 129Z" fill="#AC6DFF"/>
<path d="M182.286 137C181 137 180 138 180 139.286V149.571C180 150.214 180.5 150.714 181.143 150.714C181.242 150.714 181.338 150.702 181.429 150.68L181.429 162C181.429 163.125 182.304 164 183.429 164C184.554 164 185.429 163.125 185.429 162L185.429 149C185.429 148.679 185.679 148.429 186 148.429C186.321 148.429 186.571 148.679 186.571 149L186.571 162C186.571 163.125 187.446 164 188.571 164C189.696 164 190.571 163.125 190.571 162L190.571 150.68C190.662 150.702 190.758 150.714 190.857 150.714C191.5 150.714 192 150.214 192 149.571V139.286C192 138 191 137 189.714 137H182.286Z" fill="#AC6DFF"/>
<path d="M206 129C204.071 129 202.571 130.5 202.571 132.429C202.571 134.357 204.071 135.857 206 135.857C207.929 135.857 209.429 134.357 209.429 132.429C209.429 130.5 207.929 129 206 129Z" fill="#AC6DFF"/>
<path d="M202.286 137C201 137 200 138 200 139.286V149.571C200 150.214 200.5 150.714 201.143 150.714C201.242 150.714 201.338 150.702 201.429 150.68L201.429 162C201.429 163.125 202.304 164 203.429 164C204.554 164 205.429 163.125 205.429 162L205.429 149C205.429 148.679 205.679 148.429 206 148.429C206.321 148.429 206.571 148.679 206.571 149L206.571 162C206.571 163.125 207.446 164 208.571 164C209.696 164 210.571 163.125 210.571 162L210.571 150.68C210.662 150.702 210.758 150.714 210.857 150.714C211.5 150.714 212 150.214 212 149.571V139.286C212 138 211 137 209.714 137H202.286Z" fill="#AC6DFF"/>
<path d="M226 129C224.071 129 222.571 130.5 222.571 132.429C222.571 134.357 224.071 135.857 226 135.857C227.929 135.857 229.429 134.357 229.429 132.429C229.429 130.5 227.929 129 226 129Z" fill="#AC6DFF"/>
<path d="M222.286 137C221 137 220 138 220 139.286V149.571C220 150.214 220.5 150.714 221.143 150.714C221.242 150.714 221.338 150.702 221.429 150.68L221.429 162C221.429 163.125 222.304 164 223.429 164C224.554 164 225.429 163.125 225.429 162L225.429 149C225.429 148.679 225.679 148.429 226 148.429C226.321 148.429 226.571 148.679 226.571 149L226.571 162C226.571 163.125 227.446 164 228.571 164C229.696 164 230.571 163.125 230.571 162L230.571 150.68C230.662 150.702 230.758 150.714 230.857 150.714C231.5 150.714 232 150.214 232 149.571V139.286C232 138 231 137 229.714 137H222.286Z" fill="#AC6DFF"/>
<path d="M246 129C244.071 129 242.571 130.5 242.571 132.429C242.571 134.357 244.071 135.857 246 135.857C247.929 135.857 249.429 134.357 249.429 132.429C249.429 130.5 247.929 129 246 129Z" fill="#AC6DFF"/>
<path d="M242.286 137C241 137 240 138 240 139.286V149.571C240 150.214 240.5 150.714 241.143 150.714C241.242 150.714 241.338 150.702 241.429 150.68L241.429 162C241.429 163.125 242.304 164 243.429 164C244.554 164 245.429 163.125 245.429 162L245.429 149C245.429 148.679 245.679 148.429 246 148.429C246.321 148.429 246.571 148.679 246.571 149L246.571 162C246.571 163.125 247.446 164 248.571 164C249.696 164 250.571 163.125 250.571 162L250.571 150.68C250.662 150.702 250.758 150.714 250.857 150.714C251.5 150.714 252 150.214 252 149.571V139.286C252 138 251 137 249.714 137H242.286Z" fill="#AC6DFF"/>
<path d="M266 129C264.071 129 262.571 130.5 262.571 132.429C262.571 134.357 264.071 135.857 266 135.857C267.929 135.857 269.429 134.357 269.429 132.429C269.429 130.5 267.929 129 266 129Z" fill="#AC6DFF"/>
<path d="M262.286 137C261 137 260 138 260 139.286V149.571C260 150.214 260.5 150.714 261.143 150.714C261.242 150.714 261.338 150.702 261.429 150.68L261.429 162C261.429 163.125 262.304 164 263.429 164C264.554 164 265.429 163.125 265.429 162L265.429 149C265.429 148.679 265.679 148.429 266 148.429C266.321 148.429 266.571 148.679 266.571 149L266.571 162C266.571 163.125 267.446 164 268.571 164C269.696 164 270.571 163.125 270.571 162L270.571 150.68C270.662 150.702 270.758 150.714 270.857 150.714C271.5 150.714 272 150.214 272 149.571V139.286C272 138 271 137 269.714 137H262.286Z" fill="#AC6DFF"/>
<path d="M286 129C284.071 129 282.571 130.5 282.571 132.429C282.571 134.357 284.071 135.857 286 135.857C287.929 135.857 289.429 134.357 289.429 132.429C289.429 130.5 287.929 129 286 129Z" fill="#AC6DFF"/>
<path d="M282.286 137C281 137 280 138 280 139.286V149.571C280 150.214 280.5 150.714 281.143 150.714C281.242 150.714 281.338 150.702 281.429 150.68L281.429 162C281.429 163.125 282.304 164 283.429 164C284.554 164 285.429 163.125 285.429 162L285.429 149C285.429 148.679 285.679 148.429 286 148.429C286.321 148.429 286.571 148.679 286.571 149L286.571 162C286.571 163.125 287.446 164 288.571 164C289.696 164 290.571 163.125 290.571 162L290.571 150.68C290.662 150.702 290.758 150.714 290.857 150.714C291.5 150.714 292 150.214 292 149.571V139.286C292 138 291 137 289.714 137H282.286Z" fill="#AC6DFF"/>
<path d="M306 129C304.071 129 302.571 130.5 302.571 132.429C302.571 134.357 304.071 135.857 306 135.857C307.929 135.857 309.429 134.357 309.429 132.429C309.429 130.5 307.929 129 306 129Z" fill="#AC6DFF"/>
<path d="M302.286 137C301 137 300 138 300 139.286V149.571C300 150.214 300.5 150.714 301.143 150.714C301.242 150.714 301.338 150.702 301.429 150.68L301.429 162C301.429 163.125 302.304 164 303.429 164C304.554 164 305.429 163.125 305.429 162L305.429 149C305.429 148.679 305.679 148.429 306 148.429C306.321 148.429 306.571 148.679 306.571 149L306.571 162C306.571 163.125 307.446 164 308.571 164C309.696 164 310.571 163.125 310.571 162L310.571 150.68C310.662 150.702 310.758 150.714 310.857 150.714C311.5 150.714 312 150.214 312 149.571V139.286C312 138 311 137 309.714 137H302.286Z" fill="#AC6DFF"/>
<path d="M326 129C324.071 129 322.571 130.5 322.571 132.429C322.571 134.357 324.071 135.857 326 135.857C327.929 135.857 329.429 134.357 329.429 132.429C329.429 130.5 327.929 129 326 129Z" fill="#AC6DFF"/>
<path d="M322.286 137C321 137 320 138 320 139.286V149.571C320 150.214 320.5 150.714 321.143 150.714C321.242 150.714 321.338 150.702 321.429 150.68L321.429 162C321.429 163.125 322.304 164 323.429 164C324.554 164 325.429 163.125 325.429 162L325.429 149C325.429 148.679 325.679 148.429 326 148.429C326.321 148.429 326.571 148.679 326.571 149L326.571 162C326.571 163.125 327.446 164 328.571 164C329.696 164 330.571 163.125 330.571 162L330.571 150.68C330.662 150.702 330.758 150.714 330.857 150.714C331.5 150.714 332 150.214 332 149.571V139.286C332 138 331 137 329.714 137H322.286Z" fill="#AC6DFF"/>
<path d="M346 129C344.071 129 342.571 130.5 342.571 132.429C342.571 134.357 344.071 135.857 346 135.857C347.929 135.857 349.429 134.357 349.429 132.429C349.429 130.5 347.929 129 346 129Z" fill="#AC6DFF"/>
<path d="M342.286 137C341 137 340 138 340 139.286V149.571C340 150.214 340.5 150.714 341.143 150.714C341.242 150.714 341.338 150.702 341.429 150.68L341.429 162C341.429 163.125 342.304 164 343.429 164C344.554 164 345.429 163.125 345.429 162L345.429 149C345.429 148.679 345.679 148.429 346 148.429C346.321 148.429 346.571 148.679 346.571 149L346.571 162C346.571 163.125 347.446 164 348.571 164C349.696 164 350.571 163.125 350.571 162L350.571 150.68C350.662 150.702 350.758 150.714 350.857 150.714C351.5 150.714 352 150.214 352 149.571V139.286C352 138 351 137 349.714 137H342.286Z" fill="#AC6DFF"/>
<path d="M366 129C364.071 129 362.571 130.5 362.571 132.429C362.571 134.357 364.071 135.857 366 135.857C367.929 135.857 369.429 134.357 369.429 132.429C369.429 130.5 367.929 129 366 129Z" fill="#AC6DFF"/>
<path d="M362.286 137C361 137 360 138 360 139.286V149.571C360 150.214 360.5 150.714 361.143 150.714C361.242 150.714 361.338 150.702 361.429 150.68L361.429 162C361.429 163.125 362.304 164 363.429 164C364.554 164 365.429 163.125 365.429 162L365.429 149C365.429 148.679 365.679 148.429 366 148.429C366.321 148.429 366.571 148.679 366.571 149L366.571 162C366.571 163.125 367.446 164 368.571 164C369.696 164 370.571 163.125 370.571 162L370.571 150.68C370.662 150.702 370.758 150.714 370.857 150.714C371.5 150.714 372 150.214 372 149.571V139.286C372 138 371 137 369.714 137H362.286Z" fill="#AC6DFF"/>
<path d="M386 129C384.071 129 382.571 130.5 382.571 132.429C382.571 134.357 384.071 135.857 386 135.857C387.929 135.857 389.429 134.357 389.429 132.429C389.429 130.5 387.929 129 386 129Z" fill="#AC6DFF"/>
<path d="M382.286 137C381 137 380 138 380 139.286V149.571C380 150.214 380.5 150.714 381.143 150.714C381.242 150.714 381.338 150.702 381.429 150.68L381.429 162C381.429 163.125 382.304 164 383.429 164C384.554 164 385.429 163.125 385.429 162L385.429 149C385.429 148.679 385.679 148.429 386 148.429C386.321 148.429 386.571 148.679 386.571 149L386.571 162C386.571 163.125 387.446 164 388.571 164C389.696 164 390.571 163.125 390.571 162L390.571 150.68C390.662 150.702 390.758 150.714 390.857 150.714C391.5 150.714 392 150.214 392 149.571V139.286C392 138 391 137 389.714 137H382.286Z" fill="#AC6DFF"/>
<path d="M406 129C404.071 129 402.571 130.5 402.571 132.429C402.571 134.357 404.071 135.857 406 135.857C407.929 135.857 409.429 134.357 409.429 132.429C409.429 130.5 407.929 129 406 129Z" fill="#AC6DFF"/>
<path d="M402.286 137C401 137 400 138 400 139.286V149.571C400 150.214 400.5 150.714 401.143 150.714C401.242 150.714 401.338 150.702 401.429 150.68L401.429 162C401.429 163.125 402.304 164 403.429 164C404.554 164 405.429 163.125 405.429 162L405.429 149C405.429 148.679 405.679 148.429 406 148.429C406.321 148.429 406.571 148.679 406.571 149L406.571 162C406.571 163.125 407.446 164 408.571 164C409.696 164 410.571 163.125 410.571 162L410.571 150.68C410.662 150.702 410.758 150.714 410.857 150.714C411.5 150.714 412 150.214 412 149.571V139.286C412 138 411 137 409.714 137H402.286Z" fill="#AC6DFF"/>
<path d="M426 129C424.071 129 422.571 130.5 422.571 132.429C422.571 134.357 424.071 135.857 426 135.857C427.929 135.857 429.429 134.357 429.429 132.429C429.429 130.5 427.929 129 426 129Z" fill="#AC6DFF"/>
<path d="M422.286 137C421 137 420 138 420 139.286V149.571C420 150.214 420.5 150.714 421.143 150.714C421.242 150.714 421.338 150.702 421.429 150.68L421.429 162C421.429 163.125 422.304 164 423.429 164C424.554 164 425.429 163.125 425.429 162L425.429 149C425.429 148.679 425.679 148.429 426 148.429C426.321 148.429 426.571 148.679 426.571 149L426.571 162C426.571 163.125 427.446 164 428.571 164C429.696 164 430.571 163.125 430.571 162L430.571 150.68C430.662 150.702 430.758 150.714 430.857 150.714C431.5 150.714 432 150.214 432 149.571V139.286C432 138 431 137 429.714 137H422.286Z" fill="#AC6DFF"/>
<path d="M446 129C444.071 129 442.571 130.5 442.571 132.429C442.571 134.357 444.071 135.857 446 135.857C447.929 135.857 449.429 134.357 449.429 132.429C449.429 130.5 447.929 129 446 129Z" fill="#AC6DFF"/>
<path d="M442.286 137C441 137 440 138 440 139.286V149.571C440 150.214 440.5 150.714 441.143 150.714C441.242 150.714 441.338 150.702 441.429 150.68L441.429 162C441.429 163.125 442.304 164 443.429 164C444.554 164 445.429 163.125 445.429 162L445.429 149C445.429 148.679 445.679 148.429 446 148.429C446.321 148.429 446.571 148.679 446.571 149L446.571 162C446.571 163.125 447.446 164 448.571 164C449.696 164 450.571 163.125 450.571 162L450.571 150.68C450.662 150.702 450.758 150.714 450.857 150.714C451.5 150.714 452 150.214 452 149.571V139.286C452 138 451 137 449.714 137H442.286Z" fill="#AC6DFF"/>
<path d="M466 129C464.071 129 462.571 130.5 462.571 132.429C462.571 134.357 464.071 135.857 466 135.857C467.929 135.857 469.429 134.357 469.429 132.429C469.429 130.5 467.929 129 466 129Z" fill="#AC6DFF"/>
<path d="M462.286 137C461 137 460 138 460 139.286V149.571C460 150.214 460.5 150.714 461.143 150.714C461.242 150.714 461.338 150.702 461.429 150.68L461.429 162C461.429 163.125 462.304 164 463.429 164C464.554 164 465.429 163.125 465.429 162L465.429 149C465.429 148.679 465.679 148.429 466 148.429C466.321 148.429 466.571 148.679 466.571 149L466.571 162C466.571 163.125 467.446 164 468.571 164C469.696 164 470.571 163.125 470.571 162L470.571 150.68C470.662 150.702 470.758 150.714 470.857 150.714C471.5 150.714 472 150.214 472 149.571V139.286C472 138 471 137 469.714 137H462.286Z" fill="#AC6DFF"/>
<path d="M486 129C484.071 129 482.571 130.5 482.571 132.429C482.571 134.357 484.071 135.857 486 135.857C487.929 135.857 489.429 134.357 489.429 132.429C489.429 130.5 487.929 129 486 129Z" fill="#AC6DFF"/>
<path d="M482.286 137C481 137 480 138 480 139.286V149.571C480 150.214 480.5 150.714 481.143 150.714C481.242 150.714 481.338 150.702 481.429 150.68L481.429 162C481.429 163.125 482.304 164 483.429 164C484.554 164 485.429 163.125 485.429 162L485.429 149C485.429 148.679 485.679 148.429 486 148.429C486.321 148.429 486.571 148.679 486.571 149L486.571 162C486.571 163.125 487.446 164 488.571 164C489.696 164 490.571 163.125 490.571 162L490.571 150.68C490.662 150.702 490.758 150.714 490.857 150.714C491.5 150.714 492 150.214 492 149.571V139.286C492 138 491 137 489.714 137H482.286Z" fill="#AC6DFF"/>
</svg>
