<svg width="260" height="160" viewBox="0 0 260 160" fill="none" xmlns="http://www.w3.org/2000/svg">
<g clip-path="url(#clip0_922_35619)">
<path d="M37.25 9.50001C36.5596 9.5 36 10.0596 36 10.75C36 11.4404 36.5596 12 37.25 12H37.5H78.5H78.75C79.4403 12 80 11.4403 80 10.75C80 10.0596 79.4403 9.49997 78.75 9.49997H65L51 9.50011L37.25 9.50001Z" fill="#929AFF"/>
<path d="M54 0.000109144C54 0.000109144 49 9.53674e-07 49 5.23636C49 7.59105 49.8346 8.78698 51 9.50011L65 9.49997C66.1654 8.78685 67 7.59105 67 5.23636C67 1.43051e-06 62 0.000109144 62 0.000109144L58 0L54 0.000109144Z" fill="#402CA7"/>
<path d="M37.5 12V13C37.5 15.4853 39.5147 17.5 42 17.5H74C76.4853 17.5 78.5 15.4853 78.5 13V12H37.5Z" fill="#929AFF"/>
<path d="M54.0002 0.250109L54.0003 0.250109L58 0.25L61.9997 0.250109L61.9998 0.250109L61.9999 0.25011L62.0016 0.25012L62.0101 0.250233C62.0181 0.250368 62.0307 0.25065 62.0474 0.251234C62.081 0.252404 62.1314 0.254787 62.1962 0.259636C62.326 0.26934 62.5131 0.288883 62.7383 0.328188C63.1898 0.406996 63.7883 0.564165 64.384 0.876076C64.9785 1.18735 65.5671 1.65097 66.0079 2.34336C66.448 3.03473 66.75 3.96872 66.75 5.23636C66.75 6.38464 66.5465 7.23036 66.2152 7.86855C65.8969 8.48158 65.453 8.91773 64.9286 9.24997L51.0714 9.25011C50.547 8.91787 50.1031 8.48169 49.7848 7.86862C49.4535 7.2304 49.25 6.38464 49.25 5.23636C49.25 3.96872 49.552 3.03473 49.9921 2.34336C50.4329 1.65097 51.0215 1.18735 51.616 0.876076C52.2117 0.564165 52.8102 0.406996 53.2617 0.328188C53.4869 0.288883 53.674 0.26934 53.8038 0.259636C53.8686 0.254787 53.919 0.252404 53.9526 0.251234C53.9693 0.25065 53.9819 0.250368 53.9899 0.250233L53.9984 0.25012L54.0001 0.25011L54.0002 0.250109ZM37.75 12.25H78.25V13C78.25 15.3472 76.3472 17.25 74 17.25H42C39.6528 17.25 37.75 15.3472 37.75 13V12.25ZM37.5 11.75H37.25C36.6977 11.75 36.25 11.3023 36.25 10.75C36.25 10.1977 36.6977 9.75 37.25 9.75001L50.9296 9.75011L51 9.75011L65 9.74997L65.0704 9.74997L78.75 9.74997C79.3023 9.74997 79.75 10.1977 79.75 10.75C79.75 11.3023 79.3023 11.75 78.75 11.75H78.5H37.5Z" stroke="#402CA7" stroke-width="0.5"/>
</g>
<g clip-path="url(#clip1_922_35619)">
<path d="M85.25 9.50001C84.5596 9.5 84 10.0596 84 10.75C84 11.4404 84.5596 12 85.25 12H85.5H126.5H126.75C127.44 12 128 11.4403 128 10.75C128 10.0596 127.44 9.49997 126.75 9.49997H113L99 9.50011L85.25 9.50001Z" fill="#929AFF"/>
<path d="M102 0.000109144C102 0.000109144 97 9.53674e-07 97 5.23636C97 7.59105 97.8346 8.78698 99 9.50011L113 9.49997C114.165 8.78685 115 7.59105 115 5.23636C115 1.43051e-06 110 0.000109144 110 0.000109144L106 0L102 0.000109144Z" fill="#402CA7"/>
<path d="M85.5 12V13C85.5 15.4853 87.5147 17.5 90 17.5H122C124.485 17.5 126.5 15.4853 126.5 13V12H85.5Z" fill="#929AFF"/>
<path d="M102 0.250109L102 0.250109L106 0.25L110 0.250109L110 0.250109L110 0.25011L110.002 0.25012L110.01 0.250233C110.018 0.250368 110.031 0.25065 110.047 0.251234C110.081 0.252404 110.131 0.254787 110.196 0.259636C110.326 0.26934 110.513 0.288883 110.738 0.328188C111.19 0.406996 111.788 0.564165 112.384 0.876076C112.979 1.18735 113.567 1.65097 114.008 2.34336C114.448 3.03473 114.75 3.96872 114.75 5.23636C114.75 6.38464 114.547 7.23036 114.215 7.86855C113.897 8.48158 113.453 8.91773 112.929 9.24997L99.0714 9.25011C98.547 8.91787 98.1031 8.48169 97.7848 7.86862C97.4535 7.2304 97.25 6.38464 97.25 5.23636C97.25 3.96872 97.552 3.03473 97.9921 2.34336C98.4329 1.65097 99.0215 1.18735 99.616 0.876076C100.212 0.564165 100.81 0.406996 101.262 0.328188C101.487 0.288883 101.674 0.26934 101.804 0.259636C101.869 0.254787 101.919 0.252404 101.953 0.251234C101.969 0.25065 101.982 0.250368 101.99 0.250233L101.998 0.25012L102 0.25011L102 0.250109ZM85.75 12.25H126.25V13C126.25 15.3472 124.347 17.25 122 17.25H90C87.6528 17.25 85.75 15.3472 85.75 13V12.25ZM85.5 11.75H85.25C84.6977 11.75 84.25 11.3023 84.25 10.75C84.25 10.1977 84.6977 9.75 85.25 9.75001L98.9296 9.75011L99 9.75011L113 9.74997L113.07 9.74997L126.75 9.74997C127.302 9.74997 127.75 10.1977 127.75 10.75C127.75 11.3023 127.302 11.75 126.75 11.75H126.5H85.5Z" stroke="#402CA7" stroke-width="0.5"/>
</g>
<g clip-path="url(#clip2_922_35619)">
<path d="M133.25 9.50001C132.56 9.5 132 10.0596 132 10.75C132 11.4404 132.56 12 133.25 12H133.5H174.5H174.75C175.44 12 176 11.4403 176 10.75C176 10.0596 175.44 9.49997 174.75 9.49997H161L147 9.50011L133.25 9.50001Z" fill="#929AFF"/>
<path d="M150 0.000109144C150 0.000109144 145 9.53674e-07 145 5.23636C145 7.59105 145.835 8.78698 147 9.50011L161 9.49997C162.165 8.78685 163 7.59105 163 5.23636C163 1.43051e-06 158 0.000109144 158 0.000109144L154 0L150 0.000109144Z" fill="#402CA7"/>
<path d="M133.5 12V13C133.5 15.4853 135.515 17.5 138 17.5H170C172.485 17.5 174.5 15.4853 174.5 13V12H133.5Z" fill="#929AFF"/>
<path d="M150 0.250109L150 0.250109L154 0.25L158 0.250109L158 0.250109L158 0.25011L158.002 0.25012L158.01 0.250233C158.018 0.250368 158.031 0.25065 158.047 0.251234C158.081 0.252404 158.131 0.254787 158.196 0.259636C158.326 0.26934 158.513 0.288883 158.738 0.328188C159.19 0.406996 159.788 0.564165 160.384 0.876076C160.979 1.18735 161.567 1.65097 162.008 2.34336C162.448 3.03473 162.75 3.96872 162.75 5.23636C162.75 6.38464 162.547 7.23036 162.215 7.86855C161.897 8.48158 161.453 8.91773 160.929 9.24997L147.071 9.25011C146.547 8.91787 146.103 8.48169 145.785 7.86862C145.453 7.2304 145.25 6.38464 145.25 5.23636C145.25 3.96872 145.552 3.03473 145.992 2.34336C146.433 1.65097 147.021 1.18735 147.616 0.876076C148.212 0.564165 148.81 0.406996 149.262 0.328188C149.487 0.288883 149.674 0.26934 149.804 0.259636C149.869 0.254787 149.919 0.252404 149.953 0.251234C149.969 0.25065 149.982 0.250368 149.99 0.250233L149.998 0.25012L150 0.25011L150 0.250109ZM133.75 12.25H174.25V13C174.25 15.3472 172.347 17.25 170 17.25H138C135.653 17.25 133.75 15.3472 133.75 13V12.25ZM133.5 11.75H133.25C132.698 11.75 132.25 11.3023 132.25 10.75C132.25 10.1977 132.698 9.75 133.25 9.75001L146.93 9.75011L147 9.75011L161 9.74997L161.07 9.74997L174.75 9.74997C175.302 9.74997 175.75 10.1977 175.75 10.75C175.75 11.3023 175.302 11.75 174.75 11.75H174.5H133.5Z" stroke="#402CA7" stroke-width="0.5"/>
</g>
<g clip-path="url(#clip3_922_35619)">
<path d="M181.25 9.50001C180.56 9.5 180 10.0596 180 10.75C180 11.4404 180.56 12 181.25 12H181.5H222.5H222.75C223.44 12 224 11.4403 224 10.75C224 10.0596 223.44 9.49997 222.75 9.49997H209L195 9.50011L181.25 9.50001Z" fill="#929AFF"/>
<path d="M198 0.000109144C198 0.000109144 193 9.53674e-07 193 5.23636C193 7.59105 193.835 8.78698 195 9.50011L209 9.49997C210.165 8.78685 211 7.59105 211 5.23636C211 1.43051e-06 206 0.000109144 206 0.000109144L202 0L198 0.000109144Z" fill="#402CA7"/>
<path d="M181.5 12V13C181.5 15.4853 183.515 17.5 186 17.5H218C220.485 17.5 222.5 15.4853 222.5 13V12H181.5Z" fill="#929AFF"/>
<path d="M198 0.250109L198 0.250109L202 0.25L206 0.250109L206 0.250109L206 0.25011L206.002 0.25012L206.01 0.250233C206.018 0.250368 206.031 0.25065 206.047 0.251234C206.081 0.252404 206.131 0.254787 206.196 0.259636C206.326 0.26934 206.513 0.288883 206.738 0.328188C207.19 0.406996 207.788 0.564165 208.384 0.876076C208.979 1.18735 209.567 1.65097 210.008 2.34336C210.448 3.03473 210.75 3.96872 210.75 5.23636C210.75 6.38464 210.547 7.23036 210.215 7.86855C209.897 8.48158 209.453 8.91773 208.929 9.24997L195.071 9.25011C194.547 8.91787 194.103 8.48169 193.785 7.86862C193.453 7.2304 193.25 6.38464 193.25 5.23636C193.25 3.96872 193.552 3.03473 193.992 2.34336C194.433 1.65097 195.021 1.18735 195.616 0.876076C196.212 0.564165 196.81 0.406996 197.262 0.328188C197.487 0.288883 197.674 0.26934 197.804 0.259636C197.869 0.254787 197.919 0.252404 197.953 0.251234C197.969 0.25065 197.982 0.250368 197.99 0.250233L197.998 0.25012L198 0.25011L198 0.250109ZM181.75 12.25H222.25V13C222.25 15.3472 220.347 17.25 218 17.25H186C183.653 17.25 181.75 15.3472 181.75 13V12.25ZM181.5 11.75H181.25C180.698 11.75 180.25 11.3023 180.25 10.75C180.25 10.1977 180.698 9.75 181.25 9.75001L194.93 9.75011L195 9.75011L209 9.74997L209.07 9.74997L222.75 9.74997C223.302 9.74997 223.75 10.1977 223.75 10.75C223.75 11.3023 223.302 11.75 222.75 11.75H222.5H181.5Z" stroke="#402CA7" stroke-width="0.5"/>
</g>
<g clip-path="url(#clip4_922_35619)">
<path d="M13.25 23.5C12.5596 23.5 12 24.0596 12 24.75C12 25.4404 12.5596 26 13.25 26H13.5H54.5H54.75C55.4403 26 56 25.4403 56 24.75C56 24.0596 55.4403 23.5 54.75 23.5H41L27 23.5001L13.25 23.5Z" fill="#929AFF"/>
<path d="M30 14.0001C30 14.0001 25 14 25 19.2364C25 21.591 25.8346 22.787 27 23.5001L41 23.5C42.1654 22.7868 43 21.591 43 19.2364C43 14 38 14.0001 38 14.0001L34 14L30 14.0001Z" fill="#372B84"/>
<path d="M13.5 26V27C13.5 29.4853 15.5147 31.5 18 31.5H50C52.4853 31.5 54.5 29.4853 54.5 27V26H13.5Z" fill="#929AFF"/>
<path d="M30.0002 14.2501L30.0003 14.2501L34 14.25L37.9997 14.2501L37.9998 14.2501L37.9999 14.2501L38.0016 14.2501L38.0101 14.2502C38.0181 14.2504 38.0307 14.2506 38.0474 14.2512C38.081 14.2524 38.1314 14.2548 38.1962 14.2596C38.326 14.2693 38.5131 14.2889 38.7383 14.3282C39.1898 14.407 39.7883 14.5642 40.384 14.8761C40.9785 15.1874 41.5671 15.651 42.0079 16.3434C42.448 17.0347 42.75 17.9687 42.75 19.2364C42.75 20.3846 42.5465 21.2304 42.2152 21.8686C41.8969 22.4816 41.453 22.9177 40.9286 23.25L27.0714 23.2501C26.547 22.9179 26.1031 22.4817 25.7848 21.8686C25.4535 21.2304 25.25 20.3846 25.25 19.2364C25.25 17.9687 25.552 17.0347 25.9921 16.3434C26.4329 15.651 27.0215 15.1874 27.616 14.8761C28.2117 14.5642 28.8102 14.407 29.2617 14.3282C29.4869 14.2889 29.674 14.2693 29.8038 14.2596C29.8686 14.2548 29.919 14.2524 29.9526 14.2512C29.9693 14.2506 29.9819 14.2504 29.9899 14.2502L29.9984 14.2501L30.0001 14.2501L30.0002 14.2501ZM13.75 26.25H54.25V27C54.25 29.3472 52.3472 31.25 50 31.25H18C15.6528 31.25 13.75 29.3472 13.75 27V26.25ZM13.5 25.75H13.25C12.6977 25.75 12.25 25.3023 12.25 24.75C12.25 24.1977 12.6977 23.75 13.25 23.75L26.9296 23.7501L27 23.7501L41 23.75L41.0704 23.75L54.75 23.75C55.3023 23.75 55.75 24.1977 55.75 24.75C55.75 25.3023 55.3023 25.75 54.75 25.75H54.5H13.5Z" stroke="#402CA7" stroke-width="0.5"/>
</g>
<g clip-path="url(#clip5_922_35619)">
<path d="M61.25 23.5C60.5596 23.5 60 24.0596 60 24.75C60 25.4404 60.5596 26 61.25 26H61.5H102.5H102.75C103.44 26 104 25.4403 104 24.75C104 24.0596 103.44 23.5 102.75 23.5H89L75 23.5001L61.25 23.5Z" fill="#929AFF"/>
<path d="M78 14.0001C78 14.0001 73 14 73 19.2364C73 21.591 73.8346 22.787 75 23.5001L89 23.5C90.1654 22.7868 91 21.591 91 19.2364C91 14 86 14.0001 86 14.0001L82 14L78 14.0001Z" fill="#372B84"/>
<path d="M61.5 26V27C61.5 29.4853 63.5147 31.5 66 31.5H98C100.485 31.5 102.5 29.4853 102.5 27V26H61.5Z" fill="#929AFF"/>
<path d="M78.0002 14.2501L78.0003 14.2501L82 14.25L85.9997 14.2501L85.9998 14.2501L85.9999 14.2501L86.0016 14.2501L86.0101 14.2502C86.0181 14.2504 86.0307 14.2506 86.0474 14.2512C86.081 14.2524 86.1314 14.2548 86.1962 14.2596C86.326 14.2693 86.5131 14.2889 86.7383 14.3282C87.1898 14.407 87.7883 14.5642 88.384 14.8761C88.9785 15.1874 89.5671 15.651 90.0079 16.3434C90.448 17.0347 90.75 17.9687 90.75 19.2364C90.75 20.3846 90.5465 21.2304 90.2152 21.8686C89.8969 22.4816 89.453 22.9177 88.9286 23.25L75.0714 23.2501C74.547 22.9179 74.1031 22.4817 73.7848 21.8686C73.4535 21.2304 73.25 20.3846 73.25 19.2364C73.25 17.9687 73.552 17.0347 73.9921 16.3434C74.4329 15.651 75.0215 15.1874 75.616 14.8761C76.2117 14.5642 76.8102 14.407 77.2617 14.3282C77.4869 14.2889 77.674 14.2693 77.8038 14.2596C77.8686 14.2548 77.919 14.2524 77.9526 14.2512C77.9693 14.2506 77.9819 14.2504 77.9899 14.2502L77.9984 14.2501L78.0001 14.2501L78.0002 14.2501ZM61.75 26.25H102.25V27C102.25 29.3472 100.347 31.25 98 31.25H66C63.6528 31.25 61.75 29.3472 61.75 27V26.25ZM61.5 25.75H61.25C60.6977 25.75 60.25 25.3023 60.25 24.75C60.25 24.1977 60.6977 23.75 61.25 23.75L74.9296 23.7501L75 23.7501L89 23.75L89.0704 23.75L102.75 23.75C103.302 23.75 103.75 24.1977 103.75 24.75C103.75 25.3023 103.302 25.75 102.75 25.75H102.5H61.5Z" stroke="#402CA7" stroke-width="0.5"/>
</g>
<g clip-path="url(#clip6_922_35619)">
<path d="M109.25 23.5C108.56 23.5 108 24.0596 108 24.75C108 25.4404 108.56 26 109.25 26H109.5H150.5H150.75C151.44 26 152 25.4403 152 24.75C152 24.0596 151.44 23.5 150.75 23.5H137L123 23.5001L109.25 23.5Z" fill="#929AFF"/>
<path d="M126 14.0001C126 14.0001 121 14 121 19.2364C121 21.591 121.835 22.787 123 23.5001L137 23.5C138.165 22.7868 139 21.591 139 19.2364C139 14 134 14.0001 134 14.0001L130 14L126 14.0001Z" fill="#372B84"/>
<path d="M109.5 26V27C109.5 29.4853 111.515 31.5 114 31.5H146C148.485 31.5 150.5 29.4853 150.5 27V26H109.5Z" fill="#929AFF"/>
<path d="M126 14.2501L126 14.2501L130 14.25L134 14.2501L134 14.2501L134 14.2501L134.002 14.2501L134.01 14.2502C134.018 14.2504 134.031 14.2506 134.047 14.2512C134.081 14.2524 134.131 14.2548 134.196 14.2596C134.326 14.2693 134.513 14.2889 134.738 14.3282C135.19 14.407 135.788 14.5642 136.384 14.8761C136.979 15.1874 137.567 15.651 138.008 16.3434C138.448 17.0347 138.75 17.9687 138.75 19.2364C138.75 20.3846 138.547 21.2304 138.215 21.8686C137.897 22.4816 137.453 22.9177 136.929 23.25L123.071 23.2501C122.547 22.9179 122.103 22.4817 121.785 21.8686C121.453 21.2304 121.25 20.3846 121.25 19.2364C121.25 17.9687 121.552 17.0347 121.992 16.3434C122.433 15.651 123.021 15.1874 123.616 14.8761C124.212 14.5642 124.81 14.407 125.262 14.3282C125.487 14.2889 125.674 14.2693 125.804 14.2596C125.869 14.2548 125.919 14.2524 125.953 14.2512C125.969 14.2506 125.982 14.2504 125.99 14.2502L125.998 14.2501L126 14.2501L126 14.2501ZM109.75 26.25H150.25V27C150.25 29.3472 148.347 31.25 146 31.25H114C111.653 31.25 109.75 29.3472 109.75 27V26.25ZM109.5 25.75H109.25C108.698 25.75 108.25 25.3023 108.25 24.75C108.25 24.1977 108.698 23.75 109.25 23.75L122.93 23.7501L123 23.7501L137 23.75L137.07 23.75L150.75 23.75C151.302 23.75 151.75 24.1977 151.75 24.75C151.75 25.3023 151.302 25.75 150.75 25.75H150.5H109.5Z" stroke="#402CA7" stroke-width="0.5"/>
</g>
<g clip-path="url(#clip7_922_35619)">
<path d="M157.25 23.5C156.56 23.5 156 24.0596 156 24.75C156 25.4404 156.56 26 157.25 26H157.5H198.5H198.75C199.44 26 200 25.4403 200 24.75C200 24.0596 199.44 23.5 198.75 23.5H185L171 23.5001L157.25 23.5Z" fill="#929AFF"/>
<path d="M174 14.0001C174 14.0001 169 14 169 19.2364C169 21.591 169.835 22.787 171 23.5001L185 23.5C186.165 22.7868 187 21.591 187 19.2364C187 14 182 14.0001 182 14.0001L178 14L174 14.0001Z" fill="#372B84"/>
<path d="M157.5 26V27C157.5 29.4853 159.515 31.5 162 31.5H194C196.485 31.5 198.5 29.4853 198.5 27V26H157.5Z" fill="#929AFF"/>
<path d="M174 14.2501L174 14.2501L178 14.25L182 14.2501L182 14.2501L182 14.2501L182.002 14.2501L182.01 14.2502C182.018 14.2504 182.031 14.2506 182.047 14.2512C182.081 14.2524 182.131 14.2548 182.196 14.2596C182.326 14.2693 182.513 14.2889 182.738 14.3282C183.19 14.407 183.788 14.5642 184.384 14.8761C184.979 15.1874 185.567 15.651 186.008 16.3434C186.448 17.0347 186.75 17.9687 186.75 19.2364C186.75 20.3846 186.547 21.2304 186.215 21.8686C185.897 22.4816 185.453 22.9177 184.929 23.25L171.071 23.2501C170.547 22.9179 170.103 22.4817 169.785 21.8686C169.453 21.2304 169.25 20.3846 169.25 19.2364C169.25 17.9687 169.552 17.0347 169.992 16.3434C170.433 15.651 171.021 15.1874 171.616 14.8761C172.212 14.5642 172.81 14.407 173.262 14.3282C173.487 14.2889 173.674 14.2693 173.804 14.2596C173.869 14.2548 173.919 14.2524 173.953 14.2512C173.969 14.2506 173.982 14.2504 173.99 14.2502L173.998 14.2501L174 14.2501L174 14.2501ZM157.75 26.25H198.25V27C198.25 29.3472 196.347 31.25 194 31.25H162C159.653 31.25 157.75 29.3472 157.75 27V26.25ZM157.5 25.75H157.25C156.698 25.75 156.25 25.3023 156.25 24.75C156.25 24.1977 156.698 23.75 157.25 23.75L170.93 23.7501L171 23.7501L185 23.75L185.07 23.75L198.75 23.75C199.302 23.75 199.75 24.1977 199.75 24.75C199.75 25.3023 199.302 25.75 198.75 25.75H198.5H157.5Z" stroke="#402CA7" stroke-width="0.5"/>
</g>
<g clip-path="url(#clip8_922_35619)">
<path d="M205.25 23.5C204.56 23.5 204 24.0596 204 24.75C204 25.4404 204.56 26 205.25 26H205.5H246.5H246.75C247.44 26 248 25.4403 248 24.75C248 24.0596 247.44 23.5 246.75 23.5H233L219 23.5001L205.25 23.5Z" fill="#929AFF"/>
<path d="M222 14.0001C222 14.0001 217 14 217 19.2364C217 21.591 217.835 22.787 219 23.5001L233 23.5C234.165 22.7868 235 21.591 235 19.2364C235 14 230 14.0001 230 14.0001L226 14L222 14.0001Z" fill="#372B84"/>
<path d="M205.5 26V27C205.5 29.4853 207.515 31.5 210 31.5H242C244.485 31.5 246.5 29.4853 246.5 27V26H205.5Z" fill="#929AFF"/>
<path d="M222 14.2501L222 14.2501L226 14.25L230 14.2501L230 14.2501L230 14.2501L230.002 14.2501L230.01 14.2502C230.018 14.2504 230.031 14.2506 230.047 14.2512C230.081 14.2524 230.131 14.2548 230.196 14.2596C230.326 14.2693 230.513 14.2889 230.738 14.3282C231.19 14.407 231.788 14.5642 232.384 14.8761C232.979 15.1874 233.567 15.651 234.008 16.3434C234.448 17.0347 234.75 17.9687 234.75 19.2364C234.75 20.3846 234.547 21.2304 234.215 21.8686C233.897 22.4816 233.453 22.9177 232.929 23.25L219.071 23.2501C218.547 22.9179 218.103 22.4817 217.785 21.8686C217.453 21.2304 217.25 20.3846 217.25 19.2364C217.25 17.9687 217.552 17.0347 217.992 16.3434C218.433 15.651 219.021 15.1874 219.616 14.8761C220.212 14.5642 220.81 14.407 221.262 14.3282C221.487 14.2889 221.674 14.2693 221.804 14.2596C221.869 14.2548 221.919 14.2524 221.953 14.2512C221.969 14.2506 221.982 14.2504 221.99 14.2502L221.998 14.2501L222 14.2501L222 14.2501ZM205.75 26.25H246.25V27C246.25 29.3472 244.347 31.25 242 31.25H210C207.653 31.25 205.75 29.3472 205.75 27V26.25ZM205.5 25.75H205.25C204.698 25.75 204.25 25.3023 204.25 24.75C204.25 24.1977 204.698 23.75 205.25 23.75L218.93 23.7501L219 23.7501L233 23.75L233.07 23.75L246.75 23.75C247.302 23.75 247.75 24.1977 247.75 24.75C247.75 25.3023 247.302 25.75 246.75 25.75H246.5H205.5Z" stroke="#402CA7" stroke-width="0.5"/>
</g>
<g clip-path="url(#clip9_922_35619)">
<path d="M37.25 37.5C36.5596 37.5 36 38.0596 36 38.75C36 39.4404 36.5596 40 37.25 40H37.5H78.5H78.75C79.4403 40 80 39.4403 80 38.75C80 38.0596 79.4403 37.5 78.75 37.5H65L51 37.5001L37.25 37.5Z" fill="#929AFF"/>
<path d="M54 28.0001C54 28.0001 49 28 49 33.2364C49 35.591 49.8346 36.787 51 37.5001L65 37.5C66.1654 36.7868 67 35.591 67 33.2364C67 28 62 28.0001 62 28.0001L58 28L54 28.0001Z" fill="#402CA7"/>
<path d="M37.5 40V41C37.5 43.4853 39.5147 45.5 42 45.5H74C76.4853 45.5 78.5 43.4853 78.5 41V40H37.5Z" fill="#929AFF"/>
<path d="M54.0002 28.2501L54.0003 28.2501L58 28.25L61.9997 28.2501L61.9998 28.2501L61.9999 28.2501L62.0016 28.2501L62.0101 28.2502C62.0181 28.2504 62.0307 28.2506 62.0474 28.2512C62.081 28.2524 62.1314 28.2548 62.1962 28.2596C62.326 28.2693 62.5131 28.2889 62.7383 28.3282C63.1898 28.407 63.7883 28.5642 64.384 28.8761C64.9785 29.1874 65.5671 29.651 66.0079 30.3434C66.448 31.0347 66.75 31.9687 66.75 33.2364C66.75 34.3846 66.5465 35.2304 66.2152 35.8686C65.8969 36.4816 65.453 36.9177 64.9286 37.25L51.0714 37.2501C50.547 36.9179 50.1031 36.4817 49.7848 35.8686C49.4535 35.2304 49.25 34.3846 49.25 33.2364C49.25 31.9687 49.552 31.0347 49.9921 30.3434C50.4329 29.651 51.0215 29.1874 51.616 28.8761C52.2117 28.5642 52.8102 28.407 53.2617 28.3282C53.4869 28.2889 53.674 28.2693 53.8038 28.2596C53.8686 28.2548 53.919 28.2524 53.9526 28.2512C53.9693 28.2506 53.9819 28.2504 53.9899 28.2502L53.9984 28.2501L54.0001 28.2501L54.0002 28.2501ZM37.75 40.25H78.25V41C78.25 43.3472 76.3472 45.25 74 45.25H42C39.6528 45.25 37.75 43.3472 37.75 41V40.25ZM37.5 39.75H37.25C36.6977 39.75 36.25 39.3023 36.25 38.75C36.25 38.1977 36.6977 37.75 37.25 37.75L50.9296 37.7501L51 37.7501L65 37.75L65.0704 37.75L78.75 37.75C79.3023 37.75 79.75 38.1977 79.75 38.75C79.75 39.3023 79.3023 39.75 78.75 39.75H78.5H37.5Z" stroke="#402CA7" stroke-width="0.5"/>
</g>
<g clip-path="url(#clip10_922_35619)">
<path d="M85.25 37.5C84.5596 37.5 84 38.0596 84 38.75C84 39.4404 84.5596 40 85.25 40H85.5H126.5H126.75C127.44 40 128 39.4403 128 38.75C128 38.0596 127.44 37.5 126.75 37.5H113L99 37.5001L85.25 37.5Z" fill="#929AFF"/>
<path d="M102 28.0001C102 28.0001 97 28 97 33.2364C97 35.591 97.8346 36.787 99 37.5001L113 37.5C114.165 36.7868 115 35.591 115 33.2364C115 28 110 28.0001 110 28.0001L106 28L102 28.0001Z" fill="#402CA7"/>
<path d="M85.5 40V41C85.5 43.4853 87.5147 45.5 90 45.5H122C124.485 45.5 126.5 43.4853 126.5 41V40H85.5Z" fill="#929AFF"/>
<path d="M102 28.2501L102 28.2501L106 28.25L110 28.2501L110 28.2501L110 28.2501L110.002 28.2501L110.01 28.2502C110.018 28.2504 110.031 28.2506 110.047 28.2512C110.081 28.2524 110.131 28.2548 110.196 28.2596C110.326 28.2693 110.513 28.2889 110.738 28.3282C111.19 28.407 111.788 28.5642 112.384 28.8761C112.979 29.1874 113.567 29.651 114.008 30.3434C114.448 31.0347 114.75 31.9687 114.75 33.2364C114.75 34.3846 114.547 35.2304 114.215 35.8686C113.897 36.4816 113.453 36.9177 112.929 37.25L99.0714 37.2501C98.547 36.9179 98.1031 36.4817 97.7848 35.8686C97.4535 35.2304 97.25 34.3846 97.25 33.2364C97.25 31.9687 97.552 31.0347 97.9921 30.3434C98.4329 29.651 99.0215 29.1874 99.616 28.8761C100.212 28.5642 100.81 28.407 101.262 28.3282C101.487 28.2889 101.674 28.2693 101.804 28.2596C101.869 28.2548 101.919 28.2524 101.953 28.2512C101.969 28.2506 101.982 28.2504 101.99 28.2502L101.998 28.2501L102 28.2501L102 28.2501ZM85.75 40.25H126.25V41C126.25 43.3472 124.347 45.25 122 45.25H90C87.6528 45.25 85.75 43.3472 85.75 41V40.25ZM85.5 39.75H85.25C84.6977 39.75 84.25 39.3023 84.25 38.75C84.25 38.1977 84.6977 37.75 85.25 37.75L98.9296 37.7501L99 37.7501L113 37.75L113.07 37.75L126.75 37.75C127.302 37.75 127.75 38.1977 127.75 38.75C127.75 39.3023 127.302 39.75 126.75 39.75H126.5H85.5Z" stroke="#402CA7" stroke-width="0.5"/>
</g>
<g clip-path="url(#clip11_922_35619)">
<path d="M133.25 37.5C132.56 37.5 132 38.0596 132 38.75C132 39.4404 132.56 40 133.25 40H133.5H174.5H174.75C175.44 40 176 39.4403 176 38.75C176 38.0596 175.44 37.5 174.75 37.5H161L147 37.5001L133.25 37.5Z" fill="#929AFF"/>
<path d="M150 28.0001C150 28.0001 145 28 145 33.2364C145 35.591 145.835 36.787 147 37.5001L161 37.5C162.165 36.7868 163 35.591 163 33.2364C163 28 158 28.0001 158 28.0001L154 28L150 28.0001Z" fill="#402CA7"/>
<path d="M133.5 40V41C133.5 43.4853 135.515 45.5 138 45.5H170C172.485 45.5 174.5 43.4853 174.5 41V40H133.5Z" fill="#929AFF"/>
<path d="M150 28.2501L150 28.2501L154 28.25L158 28.2501L158 28.2501L158 28.2501L158.002 28.2501L158.01 28.2502C158.018 28.2504 158.031 28.2506 158.047 28.2512C158.081 28.2524 158.131 28.2548 158.196 28.2596C158.326 28.2693 158.513 28.2889 158.738 28.3282C159.19 28.407 159.788 28.5642 160.384 28.8761C160.979 29.1874 161.567 29.651 162.008 30.3434C162.448 31.0347 162.75 31.9687 162.75 33.2364C162.75 34.3846 162.547 35.2304 162.215 35.8686C161.897 36.4816 161.453 36.9177 160.929 37.25L147.071 37.2501C146.547 36.9179 146.103 36.4817 145.785 35.8686C145.453 35.2304 145.25 34.3846 145.25 33.2364C145.25 31.9687 145.552 31.0347 145.992 30.3434C146.433 29.651 147.021 29.1874 147.616 28.8761C148.212 28.5642 148.81 28.407 149.262 28.3282C149.487 28.2889 149.674 28.2693 149.804 28.2596C149.869 28.2548 149.919 28.2524 149.953 28.2512C149.969 28.2506 149.982 28.2504 149.99 28.2502L149.998 28.2501L150 28.2501L150 28.2501ZM133.75 40.25H174.25V41C174.25 43.3472 172.347 45.25 170 45.25H138C135.653 45.25 133.75 43.3472 133.75 41V40.25ZM133.5 39.75H133.25C132.698 39.75 132.25 39.3023 132.25 38.75C132.25 38.1977 132.698 37.75 133.25 37.75L146.93 37.7501L147 37.7501L161 37.75L161.07 37.75L174.75 37.75C175.302 37.75 175.75 38.1977 175.75 38.75C175.75 39.3023 175.302 39.75 174.75 39.75H174.5H133.5Z" stroke="#402CA7" stroke-width="0.5"/>
</g>
<g clip-path="url(#clip12_922_35619)">
<path d="M181.25 37.5C180.56 37.5 180 38.0596 180 38.75C180 39.4404 180.56 40 181.25 40H181.5H222.5H222.75C223.44 40 224 39.4403 224 38.75C224 38.0596 223.44 37.5 222.75 37.5H209L195 37.5001L181.25 37.5Z" fill="#929AFF"/>
<path d="M198 28.0001C198 28.0001 193 28 193 33.2364C193 35.591 193.835 36.787 195 37.5001L209 37.5C210.165 36.7868 211 35.591 211 33.2364C211 28 206 28.0001 206 28.0001L202 28L198 28.0001Z" fill="#402CA7"/>
<path d="M181.5 40V41C181.5 43.4853 183.515 45.5 186 45.5H218C220.485 45.5 222.5 43.4853 222.5 41V40H181.5Z" fill="#929AFF"/>
<path d="M198 28.2501L198 28.2501L202 28.25L206 28.2501L206 28.2501L206 28.2501L206.002 28.2501L206.01 28.2502C206.018 28.2504 206.031 28.2506 206.047 28.2512C206.081 28.2524 206.131 28.2548 206.196 28.2596C206.326 28.2693 206.513 28.2889 206.738 28.3282C207.19 28.407 207.788 28.5642 208.384 28.8761C208.979 29.1874 209.567 29.651 210.008 30.3434C210.448 31.0347 210.75 31.9687 210.75 33.2364C210.75 34.3846 210.547 35.2304 210.215 35.8686C209.897 36.4816 209.453 36.9177 208.929 37.25L195.071 37.2501C194.547 36.9179 194.103 36.4817 193.785 35.8686C193.453 35.2304 193.25 34.3846 193.25 33.2364C193.25 31.9687 193.552 31.0347 193.992 30.3434C194.433 29.651 195.021 29.1874 195.616 28.8761C196.212 28.5642 196.81 28.407 197.262 28.3282C197.487 28.2889 197.674 28.2693 197.804 28.2596C197.869 28.2548 197.919 28.2524 197.953 28.2512C197.969 28.2506 197.982 28.2504 197.99 28.2502L197.998 28.2501L198 28.2501L198 28.2501ZM181.75 40.25H222.25V41C222.25 43.3472 220.347 45.25 218 45.25H186C183.653 45.25 181.75 43.3472 181.75 41V40.25ZM181.5 39.75H181.25C180.698 39.75 180.25 39.3023 180.25 38.75C180.25 38.1977 180.698 37.75 181.25 37.75L194.93 37.7501L195 37.7501L209 37.75L209.07 37.75L222.75 37.75C223.302 37.75 223.75 38.1977 223.75 38.75C223.75 39.3023 223.302 39.75 222.75 39.75H222.5H181.5Z" stroke="#402CA7" stroke-width="0.5"/>
</g>
<g clip-path="url(#clip13_922_35619)">
<path d="M13.25 51.5C12.5596 51.5 12 52.0596 12 52.75C12 53.4404 12.5596 54 13.25 54H13.5H54.5H54.75C55.4403 54 56 53.4403 56 52.75C56 52.0596 55.4403 51.5 54.75 51.5H41L27 51.5001L13.25 51.5Z" fill="#929AFF"/>
<path d="M30 42.0001C30 42.0001 25 42 25 47.2364C25 49.591 25.8346 50.787 27 51.5001L41 51.5C42.1654 50.7868 43 49.591 43 47.2364C43 42 38 42.0001 38 42.0001L34 42L30 42.0001Z" fill="#4E33CF"/>
<path d="M13.5 54V55C13.5 57.4853 15.5147 59.5 18 59.5H50C52.4853 59.5 54.5 57.4853 54.5 55V54H13.5Z" fill="#929AFF"/>
<path d="M30.0002 42.2501L30.0003 42.2501L34 42.25L37.9997 42.2501L37.9998 42.2501L37.9999 42.2501L38.0016 42.2501L38.0101 42.2502C38.0181 42.2504 38.0307 42.2506 38.0474 42.2512C38.081 42.2524 38.1314 42.2548 38.1962 42.2596C38.326 42.2693 38.5131 42.2889 38.7383 42.3282C39.1898 42.407 39.7883 42.5642 40.384 42.8761C40.9785 43.1874 41.5671 43.651 42.0079 44.3434C42.448 45.0347 42.75 45.9687 42.75 47.2364C42.75 48.3846 42.5465 49.2304 42.2152 49.8686C41.8969 50.4816 41.453 50.9177 40.9286 51.25L27.0714 51.2501C26.547 50.9179 26.1031 50.4817 25.7848 49.8686C25.4535 49.2304 25.25 48.3846 25.25 47.2364C25.25 45.9687 25.552 45.0347 25.9921 44.3434C26.4329 43.651 27.0215 43.1874 27.616 42.8761C28.2117 42.5642 28.8102 42.407 29.2617 42.3282C29.4869 42.2889 29.674 42.2693 29.8038 42.2596C29.8686 42.2548 29.919 42.2524 29.9526 42.2512C29.9693 42.2506 29.9819 42.2504 29.9899 42.2502L29.9984 42.2501L30.0001 42.2501L30.0002 42.2501ZM13.75 54.25H54.25V55C54.25 57.3472 52.3472 59.25 50 59.25H18C15.6528 59.25 13.75 57.3472 13.75 55V54.25ZM13.5 53.75H13.25C12.6977 53.75 12.25 53.3023 12.25 52.75C12.25 52.1977 12.6977 51.75 13.25 51.75L26.9296 51.7501L27 51.7501L41 51.75L41.0704 51.75L54.75 51.75C55.3023 51.75 55.75 52.1977 55.75 52.75C55.75 53.3023 55.3023 53.75 54.75 53.75H54.5H13.5Z" stroke="#402CA7" stroke-width="0.5"/>
</g>
<g clip-path="url(#clip14_922_35619)">
<path d="M61.25 51.5C60.5596 51.5 60 52.0596 60 52.75C60 53.4404 60.5596 54 61.25 54H61.5H102.5H102.75C103.44 54 104 53.4403 104 52.75C104 52.0596 103.44 51.5 102.75 51.5H89L75 51.5001L61.25 51.5Z" fill="#929AFF"/>
<path d="M78 42.0001C78 42.0001 73 42 73 47.2364C73 49.591 73.8346 50.787 75 51.5001L89 51.5C90.1654 50.7868 91 49.591 91 47.2364C91 42 86 42.0001 86 42.0001L82 42L78 42.0001Z" fill="#4E33CF"/>
<path d="M61.5 54V55C61.5 57.4853 63.5147 59.5 66 59.5H98C100.485 59.5 102.5 57.4853 102.5 55V54H61.5Z" fill="#929AFF"/>
<path d="M78.0002 42.2501L78.0003 42.2501L82 42.25L85.9997 42.2501L85.9998 42.2501L85.9999 42.2501L86.0016 42.2501L86.0101 42.2502C86.0181 42.2504 86.0307 42.2506 86.0474 42.2512C86.081 42.2524 86.1314 42.2548 86.1962 42.2596C86.326 42.2693 86.5131 42.2889 86.7383 42.3282C87.1898 42.407 87.7883 42.5642 88.384 42.8761C88.9785 43.1874 89.5671 43.651 90.0079 44.3434C90.448 45.0347 90.75 45.9687 90.75 47.2364C90.75 48.3846 90.5465 49.2304 90.2152 49.8686C89.8969 50.4816 89.453 50.9177 88.9286 51.25L75.0714 51.2501C74.547 50.9179 74.1031 50.4817 73.7848 49.8686C73.4535 49.2304 73.25 48.3846 73.25 47.2364C73.25 45.9687 73.552 45.0347 73.9921 44.3434C74.4329 43.651 75.0215 43.1874 75.616 42.8761C76.2117 42.5642 76.8102 42.407 77.2617 42.3282C77.4869 42.2889 77.674 42.2693 77.8038 42.2596C77.8686 42.2548 77.919 42.2524 77.9526 42.2512C77.9693 42.2506 77.9819 42.2504 77.9899 42.2502L77.9984 42.2501L78.0001 42.2501L78.0002 42.2501ZM61.75 54.25H102.25V55C102.25 57.3472 100.347 59.25 98 59.25H66C63.6528 59.25 61.75 57.3472 61.75 55V54.25ZM61.5 53.75H61.25C60.6977 53.75 60.25 53.3023 60.25 52.75C60.25 52.1977 60.6977 51.75 61.25 51.75L74.9296 51.7501L75 51.7501L89 51.75L89.0704 51.75L102.75 51.75C103.302 51.75 103.75 52.1977 103.75 52.75C103.75 53.3023 103.302 53.75 102.75 53.75H102.5H61.5Z" stroke="#402CA7" stroke-width="0.5"/>
</g>
<g clip-path="url(#clip15_922_35619)">
<path d="M109.25 51.5C108.56 51.5 108 52.0596 108 52.75C108 53.4404 108.56 54 109.25 54H109.5H150.5H150.75C151.44 54 152 53.4403 152 52.75C152 52.0596 151.44 51.5 150.75 51.5H137L123 51.5001L109.25 51.5Z" fill="#929AFF"/>
<path d="M126 42.0001C126 42.0001 121 42 121 47.2364C121 49.591 121.835 50.787 123 51.5001L137 51.5C138.165 50.7868 139 49.591 139 47.2364C139 42 134 42.0001 134 42.0001L130 42L126 42.0001Z" fill="#4E33CF"/>
<path d="M109.5 54V55C109.5 57.4853 111.515 59.5 114 59.5H146C148.485 59.5 150.5 57.4853 150.5 55V54H109.5Z" fill="#929AFF"/>
<path d="M126 42.2501L126 42.2501L130 42.25L134 42.2501L134 42.2501L134 42.2501L134.002 42.2501L134.01 42.2502C134.018 42.2504 134.031 42.2506 134.047 42.2512C134.081 42.2524 134.131 42.2548 134.196 42.2596C134.326 42.2693 134.513 42.2889 134.738 42.3282C135.19 42.407 135.788 42.5642 136.384 42.8761C136.979 43.1874 137.567 43.651 138.008 44.3434C138.448 45.0347 138.75 45.9687 138.75 47.2364C138.75 48.3846 138.547 49.2304 138.215 49.8686C137.897 50.4816 137.453 50.9177 136.929 51.25L123.071 51.2501C122.547 50.9179 122.103 50.4817 121.785 49.8686C121.453 49.2304 121.25 48.3846 121.25 47.2364C121.25 45.9687 121.552 45.0347 121.992 44.3434C122.433 43.651 123.021 43.1874 123.616 42.8761C124.212 42.5642 124.81 42.407 125.262 42.3282C125.487 42.2889 125.674 42.2693 125.804 42.2596C125.869 42.2548 125.919 42.2524 125.953 42.2512C125.969 42.2506 125.982 42.2504 125.99 42.2502L125.998 42.2501L126 42.2501L126 42.2501ZM109.75 54.25H150.25V55C150.25 57.3472 148.347 59.25 146 59.25H114C111.653 59.25 109.75 57.3472 109.75 55V54.25ZM109.5 53.75H109.25C108.698 53.75 108.25 53.3023 108.25 52.75C108.25 52.1977 108.698 51.75 109.25 51.75L122.93 51.7501L123 51.7501L137 51.75L137.07 51.75L150.75 51.75C151.302 51.75 151.75 52.1977 151.75 52.75C151.75 53.3023 151.302 53.75 150.75 53.75H150.5H109.5Z" stroke="#402CA7" stroke-width="0.5"/>
</g>
<g clip-path="url(#clip16_922_35619)">
<path d="M157.25 51.5C156.56 51.5 156 52.0596 156 52.75C156 53.4404 156.56 54 157.25 54H157.5H198.5H198.75C199.44 54 200 53.4403 200 52.75C200 52.0596 199.44 51.5 198.75 51.5H185L171 51.5001L157.25 51.5Z" fill="#929AFF"/>
<path d="M174 42.0001C174 42.0001 169 42 169 47.2364C169 49.591 169.835 50.787 171 51.5001L185 51.5C186.165 50.7868 187 49.591 187 47.2364C187 42 182 42.0001 182 42.0001L178 42L174 42.0001Z" fill="#4E33CF"/>
<path d="M157.5 54V55C157.5 57.4853 159.515 59.5 162 59.5H194C196.485 59.5 198.5 57.4853 198.5 55V54H157.5Z" fill="#929AFF"/>
<path d="M174 42.2501L174 42.2501L178 42.25L182 42.2501L182 42.2501L182 42.2501L182.002 42.2501L182.01 42.2502C182.018 42.2504 182.031 42.2506 182.047 42.2512C182.081 42.2524 182.131 42.2548 182.196 42.2596C182.326 42.2693 182.513 42.2889 182.738 42.3282C183.19 42.407 183.788 42.5642 184.384 42.8761C184.979 43.1874 185.567 43.651 186.008 44.3434C186.448 45.0347 186.75 45.9687 186.75 47.2364C186.75 48.3846 186.547 49.2304 186.215 49.8686C185.897 50.4816 185.453 50.9177 184.929 51.25L171.071 51.2501C170.547 50.9179 170.103 50.4817 169.785 49.8686C169.453 49.2304 169.25 48.3846 169.25 47.2364C169.25 45.9687 169.552 45.0347 169.992 44.3434C170.433 43.651 171.021 43.1874 171.616 42.8761C172.212 42.5642 172.81 42.407 173.262 42.3282C173.487 42.2889 173.674 42.2693 173.804 42.2596C173.869 42.2548 173.919 42.2524 173.953 42.2512C173.969 42.2506 173.982 42.2504 173.99 42.2502L173.998 42.2501L174 42.2501L174 42.2501ZM157.75 54.25H198.25V55C198.25 57.3472 196.347 59.25 194 59.25H162C159.653 59.25 157.75 57.3472 157.75 55V54.25ZM157.5 53.75H157.25C156.698 53.75 156.25 53.3023 156.25 52.75C156.25 52.1977 156.698 51.75 157.25 51.75L170.93 51.7501L171 51.7501L185 51.75L185.07 51.75L198.75 51.75C199.302 51.75 199.75 52.1977 199.75 52.75C199.75 53.3023 199.302 53.75 198.75 53.75H198.5H157.5Z" stroke="#402CA7" stroke-width="0.5"/>
</g>
<g clip-path="url(#clip17_922_35619)">
<path d="M205.25 51.5C204.56 51.5 204 52.0596 204 52.75C204 53.4404 204.56 54 205.25 54H205.5H246.5H246.75C247.44 54 248 53.4403 248 52.75C248 52.0596 247.44 51.5 246.75 51.5H233L219 51.5001L205.25 51.5Z" fill="#929AFF"/>
<path d="M222 42.0001C222 42.0001 217 42 217 47.2364C217 49.591 217.835 50.787 219 51.5001L233 51.5C234.165 50.7868 235 49.591 235 47.2364C235 42 230 42.0001 230 42.0001L226 42L222 42.0001Z" fill="#4E33CF"/>
<path d="M205.5 54V55C205.5 57.4853 207.515 59.5 210 59.5H242C244.485 59.5 246.5 57.4853 246.5 55V54H205.5Z" fill="#929AFF"/>
<path d="M222 42.2501L222 42.2501L226 42.25L230 42.2501L230 42.2501L230 42.2501L230.002 42.2501L230.01 42.2502C230.018 42.2504 230.031 42.2506 230.047 42.2512C230.081 42.2524 230.131 42.2548 230.196 42.2596C230.326 42.2693 230.513 42.2889 230.738 42.3282C231.19 42.407 231.788 42.5642 232.384 42.8761C232.979 43.1874 233.567 43.651 234.008 44.3434C234.448 45.0347 234.75 45.9687 234.75 47.2364C234.75 48.3846 234.547 49.2304 234.215 49.8686C233.897 50.4816 233.453 50.9177 232.929 51.25L219.071 51.2501C218.547 50.9179 218.103 50.4817 217.785 49.8686C217.453 49.2304 217.25 48.3846 217.25 47.2364C217.25 45.9687 217.552 45.0347 217.992 44.3434C218.433 43.651 219.021 43.1874 219.616 42.8761C220.212 42.5642 220.81 42.407 221.262 42.3282C221.487 42.2889 221.674 42.2693 221.804 42.2596C221.869 42.2548 221.919 42.2524 221.953 42.2512C221.969 42.2506 221.982 42.2504 221.99 42.2502L221.998 42.2501L222 42.2501L222 42.2501ZM205.75 54.25H246.25V55C246.25 57.3472 244.347 59.25 242 59.25H210C207.653 59.25 205.75 57.3472 205.75 55V54.25ZM205.5 53.75H205.25C204.698 53.75 204.25 53.3023 204.25 52.75C204.25 52.1977 204.698 51.75 205.25 51.75L218.93 51.7501L219 51.7501L233 51.75L233.07 51.75L246.75 51.75C247.302 51.75 247.75 52.1977 247.75 52.75C247.75 53.3023 247.302 53.75 246.75 53.75H246.5H205.5Z" stroke="#402CA7" stroke-width="0.5"/>
</g>
<g clip-path="url(#clip18_922_35619)">
<path d="M37.25 65.5C36.5596 65.5 36 66.0596 36 66.75C36 67.4404 36.5596 68 37.25 68H37.5H78.5H78.75C79.4403 68 80 67.4403 80 66.75C80 66.0596 79.4403 65.5 78.75 65.5H65L51 65.5001L37.25 65.5Z" fill="#929AFF"/>
<path d="M54 56.0001C54 56.0001 49 56 49 61.2364C49 63.591 49.8346 64.787 51 65.5001L65 65.5C66.1654 64.7868 67 63.591 67 61.2364C67 56 62 56.0001 62 56.0001L58 56L54 56.0001Z" fill="#5B41EA"/>
<path d="M37.5 68V69C37.5 71.4853 39.5147 73.5 42 73.5H74C76.4853 73.5 78.5 71.4853 78.5 69V68H37.5Z" fill="#929AFF"/>
<path d="M54.0002 56.2501L54.0003 56.2501L58 56.25L61.9997 56.2501L61.9998 56.2501L61.9999 56.2501L62.0016 56.2501L62.0101 56.2502C62.0181 56.2504 62.0307 56.2506 62.0474 56.2512C62.081 56.2524 62.1314 56.2548 62.1962 56.2596C62.326 56.2693 62.5131 56.2889 62.7383 56.3282C63.1898 56.407 63.7883 56.5642 64.384 56.8761C64.9785 57.1874 65.5671 57.651 66.0079 58.3434C66.448 59.0347 66.75 59.9687 66.75 61.2364C66.75 62.3846 66.5465 63.2304 66.2152 63.8686C65.8969 64.4816 65.453 64.9177 64.9286 65.25L51.0714 65.2501C50.547 64.9179 50.1031 64.4817 49.7848 63.8686C49.4535 63.2304 49.25 62.3846 49.25 61.2364C49.25 59.9687 49.552 59.0347 49.9921 58.3434C50.4329 57.651 51.0215 57.1874 51.616 56.8761C52.2117 56.5642 52.8102 56.407 53.2617 56.3282C53.4869 56.2889 53.674 56.2693 53.8038 56.2596C53.8686 56.2548 53.919 56.2524 53.9526 56.2512C53.9693 56.2506 53.9819 56.2504 53.9899 56.2502L53.9984 56.2501L54.0001 56.2501L54.0002 56.2501ZM37.75 68.25H78.25V69C78.25 71.3472 76.3472 73.25 74 73.25H42C39.6528 73.25 37.75 71.3472 37.75 69V68.25ZM37.5 67.75H37.25C36.6977 67.75 36.25 67.3023 36.25 66.75C36.25 66.1977 36.6977 65.75 37.25 65.75L50.9296 65.7501L51 65.7501L65 65.75L65.0704 65.75L78.75 65.75C79.3023 65.75 79.75 66.1977 79.75 66.75C79.75 67.3023 79.3023 67.75 78.75 67.75H78.5H37.5Z" stroke="#402CA7" stroke-width="0.5"/>
</g>
<g clip-path="url(#clip19_922_35619)">
<path d="M85.25 65.5C84.5596 65.5 84 66.0596 84 66.75C84 67.4404 84.5596 68 85.25 68H85.5H126.5H126.75C127.44 68 128 67.4403 128 66.75C128 66.0596 127.44 65.5 126.75 65.5H113L99 65.5001L85.25 65.5Z" fill="#929AFF"/>
<path d="M102 56.0001C102 56.0001 97 56 97 61.2364C97 63.591 97.8346 64.787 99 65.5001L113 65.5C114.165 64.7868 115 63.591 115 61.2364C115 56 110 56.0001 110 56.0001L106 56L102 56.0001Z" fill="#5B41EA"/>
<path d="M85.5 68V69C85.5 71.4853 87.5147 73.5 90 73.5H122C124.485 73.5 126.5 71.4853 126.5 69V68H85.5Z" fill="#929AFF"/>
<path d="M102 56.2501L102 56.2501L106 56.25L110 56.2501L110 56.2501L110 56.2501L110.002 56.2501L110.01 56.2502C110.018 56.2504 110.031 56.2506 110.047 56.2512C110.081 56.2524 110.131 56.2548 110.196 56.2596C110.326 56.2693 110.513 56.2889 110.738 56.3282C111.19 56.407 111.788 56.5642 112.384 56.8761C112.979 57.1874 113.567 57.651 114.008 58.3434C114.448 59.0347 114.75 59.9687 114.75 61.2364C114.75 62.3846 114.547 63.2304 114.215 63.8686C113.897 64.4816 113.453 64.9177 112.929 65.25L99.0714 65.2501C98.547 64.9179 98.1031 64.4817 97.7848 63.8686C97.4535 63.2304 97.25 62.3846 97.25 61.2364C97.25 59.9687 97.552 59.0347 97.9921 58.3434C98.4329 57.651 99.0215 57.1874 99.616 56.8761C100.212 56.5642 100.81 56.407 101.262 56.3282C101.487 56.2889 101.674 56.2693 101.804 56.2596C101.869 56.2548 101.919 56.2524 101.953 56.2512C101.969 56.2506 101.982 56.2504 101.99 56.2502L101.998 56.2501L102 56.2501L102 56.2501ZM85.75 68.25H126.25V69C126.25 71.3472 124.347 73.25 122 73.25H90C87.6528 73.25 85.75 71.3472 85.75 69V68.25ZM85.5 67.75H85.25C84.6977 67.75 84.25 67.3023 84.25 66.75C84.25 66.1977 84.6977 65.75 85.25 65.75L98.9296 65.7501L99 65.7501L113 65.75L113.07 65.75L126.75 65.75C127.302 65.75 127.75 66.1977 127.75 66.75C127.75 67.3023 127.302 67.75 126.75 67.75H126.5H85.5Z" stroke="#402CA7" stroke-width="0.5"/>
</g>
<g clip-path="url(#clip20_922_35619)">
<path d="M133.25 65.5C132.56 65.5 132 66.0596 132 66.75C132 67.4404 132.56 68 133.25 68H133.5H174.5H174.75C175.44 68 176 67.4403 176 66.75C176 66.0596 175.44 65.5 174.75 65.5H161L147 65.5001L133.25 65.5Z" fill="#929AFF"/>
<path d="M150 56.0001C150 56.0001 145 56 145 61.2364C145 63.591 145.835 64.787 147 65.5001L161 65.5C162.165 64.7868 163 63.591 163 61.2364C163 56 158 56.0001 158 56.0001L154 56L150 56.0001Z" fill="#5B41EA"/>
<path d="M133.5 68V69C133.5 71.4853 135.515 73.5 138 73.5H170C172.485 73.5 174.5 71.4853 174.5 69V68H133.5Z" fill="#929AFF"/>
<path d="M150 56.2501L150 56.2501L154 56.25L158 56.2501L158 56.2501L158 56.2501L158.002 56.2501L158.01 56.2502C158.018 56.2504 158.031 56.2506 158.047 56.2512C158.081 56.2524 158.131 56.2548 158.196 56.2596C158.326 56.2693 158.513 56.2889 158.738 56.3282C159.19 56.407 159.788 56.5642 160.384 56.8761C160.979 57.1874 161.567 57.651 162.008 58.3434C162.448 59.0347 162.75 59.9687 162.75 61.2364C162.75 62.3846 162.547 63.2304 162.215 63.8686C161.897 64.4816 161.453 64.9177 160.929 65.25L147.071 65.2501C146.547 64.9179 146.103 64.4817 145.785 63.8686C145.453 63.2304 145.25 62.3846 145.25 61.2364C145.25 59.9687 145.552 59.0347 145.992 58.3434C146.433 57.651 147.021 57.1874 147.616 56.8761C148.212 56.5642 148.81 56.407 149.262 56.3282C149.487 56.2889 149.674 56.2693 149.804 56.2596C149.869 56.2548 149.919 56.2524 149.953 56.2512C149.969 56.2506 149.982 56.2504 149.99 56.2502L149.998 56.2501L150 56.2501L150 56.2501ZM133.75 68.25H174.25V69C174.25 71.3472 172.347 73.25 170 73.25H138C135.653 73.25 133.75 71.3472 133.75 69V68.25ZM133.5 67.75H133.25C132.698 67.75 132.25 67.3023 132.25 66.75C132.25 66.1977 132.698 65.75 133.25 65.75L146.93 65.7501L147 65.7501L161 65.75L161.07 65.75L174.75 65.75C175.302 65.75 175.75 66.1977 175.75 66.75C175.75 67.3023 175.302 67.75 174.75 67.75H174.5H133.5Z" stroke="#402CA7" stroke-width="0.5"/>
</g>
<g clip-path="url(#clip21_922_35619)">
<path d="M181.25 65.5C180.56 65.5 180 66.0596 180 66.75C180 67.4404 180.56 68 181.25 68H181.5H222.5H222.75C223.44 68 224 67.4403 224 66.75C224 66.0596 223.44 65.5 222.75 65.5H209L195 65.5001L181.25 65.5Z" fill="#929AFF"/>
<path d="M198 56.0001C198 56.0001 193 56 193 61.2364C193 63.591 193.835 64.787 195 65.5001L209 65.5C210.165 64.7868 211 63.591 211 61.2364C211 56 206 56.0001 206 56.0001L202 56L198 56.0001Z" fill="#5B41EA"/>
<path d="M181.5 68V69C181.5 71.4853 183.515 73.5 186 73.5H218C220.485 73.5 222.5 71.4853 222.5 69V68H181.5Z" fill="#929AFF"/>
<path d="M198 56.2501L198 56.2501L202 56.25L206 56.2501L206 56.2501L206 56.2501L206.002 56.2501L206.01 56.2502C206.018 56.2504 206.031 56.2506 206.047 56.2512C206.081 56.2524 206.131 56.2548 206.196 56.2596C206.326 56.2693 206.513 56.2889 206.738 56.3282C207.19 56.407 207.788 56.5642 208.384 56.8761C208.979 57.1874 209.567 57.651 210.008 58.3434C210.448 59.0347 210.75 59.9687 210.75 61.2364C210.75 62.3846 210.547 63.2304 210.215 63.8686C209.897 64.4816 209.453 64.9177 208.929 65.25L195.071 65.2501C194.547 64.9179 194.103 64.4817 193.785 63.8686C193.453 63.2304 193.25 62.3846 193.25 61.2364C193.25 59.9687 193.552 59.0347 193.992 58.3434C194.433 57.651 195.021 57.1874 195.616 56.8761C196.212 56.5642 196.81 56.407 197.262 56.3282C197.487 56.2889 197.674 56.2693 197.804 56.2596C197.869 56.2548 197.919 56.2524 197.953 56.2512C197.969 56.2506 197.982 56.2504 197.99 56.2502L197.998 56.2501L198 56.2501L198 56.2501ZM181.75 68.25H222.25V69C222.25 71.3472 220.347 73.25 218 73.25H186C183.653 73.25 181.75 71.3472 181.75 69V68.25ZM181.5 67.75H181.25C180.698 67.75 180.25 67.3023 180.25 66.75C180.25 66.1977 180.698 65.75 181.25 65.75L194.93 65.7501L195 65.7501L209 65.75L209.07 65.75L222.75 65.75C223.302 65.75 223.75 66.1977 223.75 66.75C223.75 67.3023 223.302 67.75 222.75 67.75H222.5H181.5Z" stroke="#402CA7" stroke-width="0.5"/>
</g>
<g clip-path="url(#clip22_922_35619)">
<path d="M13.25 79.5003C12.5596 79.5002 12 80.0599 12 80.7502C12 81.4406 12.5596 82.0002 13.25 82.0002H13.5H54.5H54.75C55.4403 82.0002 56 81.4406 56 80.7502C56 80.0599 55.4403 79.5002 54.75 79.5002H41L27 79.5004L13.25 79.5003Z" fill="#929AFF"/>
<path d="M30 70.0004C30 70.0004 25 70.0002 25 75.2366C25 77.5913 25.8346 78.7872 27 79.5004L41 79.5002C42.1654 78.7871 43 77.5913 43 75.2366C43 70.0002 38 70.0004 38 70.0004L34 70.0002L30 70.0004Z" fill="#6A5EF6"/>
<path d="M13.5 82.0002V83.0002C13.5 85.4855 15.5147 87.5002 18 87.5002H50C52.4853 87.5002 54.5 85.4855 54.5 83.0002V82.0002H13.5Z" fill="#929AFF"/>
<path d="M30.0002 70.2504L30.0003 70.2504L34 70.2502L37.9997 70.2504L37.9998 70.2504L37.9999 70.2504L38.0016 70.2504L38.0101 70.2505C38.0181 70.2506 38.0307 70.2509 38.0474 70.2515C38.081 70.2526 38.1314 70.255 38.1962 70.2599C38.326 70.2696 38.5131 70.2891 38.7383 70.3284C39.1898 70.4072 39.7883 70.5644 40.384 70.8763C40.9785 71.1876 41.5671 71.6512 42.0079 72.3436C42.448 73.035 42.75 73.969 42.75 75.2366C42.75 76.3849 42.5465 77.2306 42.2152 77.8688C41.8969 78.4818 41.453 78.918 40.9286 79.2502L27.0714 79.2504C26.547 78.9181 26.1031 78.4819 25.7848 77.8689C25.4535 77.2306 25.25 76.3849 25.25 75.2366C25.25 73.969 25.552 73.035 25.9921 72.3436C26.4329 71.6512 27.0215 71.1876 27.616 70.8763C28.2117 70.5644 28.8102 70.4072 29.2617 70.3284C29.4869 70.2891 29.674 70.2696 29.8038 70.2599C29.8686 70.255 29.919 70.2526 29.9526 70.2515C29.9693 70.2509 29.9819 70.2506 29.9899 70.2505L29.9984 70.2504L30.0001 70.2504L30.0002 70.2504ZM13.75 82.2502H54.25V83.0002C54.25 85.3475 52.3472 87.2502 50 87.2502H18C15.6528 87.2502 13.75 85.3475 13.75 83.0002V82.2502ZM13.5 81.7502H13.25C12.6977 81.7502 12.25 81.3025 12.25 80.7502C12.25 80.198 12.6977 79.7502 13.25 79.7503L26.9296 79.7504L27 79.7504L41 79.7502L41.0704 79.7502L54.75 79.7502C55.3023 79.7502 55.75 80.1979 55.75 80.7502C55.75 81.3025 55.3023 81.7502 54.75 81.7502H54.5H13.5Z" stroke="#402CA7" stroke-width="0.5"/>
</g>
<g clip-path="url(#clip23_922_35619)">
<path d="M61.25 79.5003C60.5596 79.5002 60 80.0599 60 80.7502C60 81.4406 60.5596 82.0002 61.25 82.0002H61.5H102.5H102.75C103.44 82.0002 104 81.4406 104 80.7502C104 80.0599 103.44 79.5002 102.75 79.5002H89L75 79.5004L61.25 79.5003Z" fill="#929AFF"/>
<path d="M78 70.0004C78 70.0004 73 70.0002 73 75.2366C73 77.5913 73.8346 78.7872 75 79.5004L89 79.5002C90.1654 78.7871 91 77.5913 91 75.2366C91 70.0002 86 70.0004 86 70.0004L82 70.0002L78 70.0004Z" fill="#6A5EF6"/>
<path d="M61.5 82.0002V83.0002C61.5 85.4855 63.5147 87.5002 66 87.5002H98C100.485 87.5002 102.5 85.4855 102.5 83.0002V82.0002H61.5Z" fill="#929AFF"/>
<path d="M78.0002 70.2504L78.0003 70.2504L82 70.2502L85.9997 70.2504L85.9998 70.2504L85.9999 70.2504L86.0016 70.2504L86.0101 70.2505C86.0181 70.2506 86.0307 70.2509 86.0474 70.2515C86.081 70.2526 86.1314 70.255 86.1962 70.2599C86.326 70.2696 86.5131 70.2891 86.7383 70.3284C87.1898 70.4072 87.7883 70.5644 88.384 70.8763C88.9785 71.1876 89.5671 71.6512 90.0079 72.3436C90.448 73.035 90.75 73.969 90.75 75.2366C90.75 76.3849 90.5465 77.2306 90.2152 77.8688C89.8969 78.4818 89.453 78.918 88.9286 79.2502L75.0714 79.2504C74.547 78.9181 74.1031 78.4819 73.7848 77.8689C73.4535 77.2306 73.25 76.3849 73.25 75.2366C73.25 73.969 73.552 73.035 73.9921 72.3436C74.4329 71.6512 75.0215 71.1876 75.616 70.8763C76.2117 70.5644 76.8102 70.4072 77.2617 70.3284C77.4869 70.2891 77.674 70.2696 77.8038 70.2599C77.8686 70.255 77.919 70.2526 77.9526 70.2515C77.9693 70.2509 77.9819 70.2506 77.9899 70.2505L77.9984 70.2504L78.0001 70.2504L78.0002 70.2504ZM61.75 82.2502H102.25V83.0002C102.25 85.3475 100.347 87.2502 98 87.2502H66C63.6528 87.2502 61.75 85.3475 61.75 83.0002V82.2502ZM61.5 81.7502H61.25C60.6977 81.7502 60.25 81.3025 60.25 80.7502C60.25 80.198 60.6977 79.7502 61.25 79.7503L74.9296 79.7504L75 79.7504L89 79.7502L89.0704 79.7502L102.75 79.7502C103.302 79.7502 103.75 80.1979 103.75 80.7502C103.75 81.3025 103.302 81.7502 102.75 81.7502H102.5H61.5Z" stroke="#402CA7" stroke-width="0.5"/>
</g>
<g clip-path="url(#clip24_922_35619)">
<path d="M109.25 79.5003C108.56 79.5002 108 80.0599 108 80.7502C108 81.4406 108.56 82.0002 109.25 82.0002H109.5H150.5H150.75C151.44 82.0002 152 81.4406 152 80.7502C152 80.0599 151.44 79.5002 150.75 79.5002H137L123 79.5004L109.25 79.5003Z" fill="#929AFF"/>
<path d="M126 70.0004C126 70.0004 121 70.0002 121 75.2366C121 77.5913 121.835 78.7872 123 79.5004L137 79.5002C138.165 78.7871 139 77.5913 139 75.2366C139 70.0002 134 70.0004 134 70.0004L130 70.0002L126 70.0004Z" fill="#6A5EF6"/>
<path d="M109.5 82.0002V83.0002C109.5 85.4855 111.515 87.5002 114 87.5002H146C148.485 87.5002 150.5 85.4855 150.5 83.0002V82.0002H109.5Z" fill="#929AFF"/>
<path d="M126 70.2504L126 70.2504L130 70.2502L134 70.2504L134 70.2504L134 70.2504L134.002 70.2504L134.01 70.2505C134.018 70.2506 134.031 70.2509 134.047 70.2515C134.081 70.2526 134.131 70.255 134.196 70.2599C134.326 70.2696 134.513 70.2891 134.738 70.3284C135.19 70.4072 135.788 70.5644 136.384 70.8763C136.979 71.1876 137.567 71.6512 138.008 72.3436C138.448 73.035 138.75 73.969 138.75 75.2366C138.75 76.3849 138.547 77.2306 138.215 77.8688C137.897 78.4818 137.453 78.918 136.929 79.2502L123.071 79.2504C122.547 78.9181 122.103 78.4819 121.785 77.8689C121.453 77.2306 121.25 76.3849 121.25 75.2366C121.25 73.969 121.552 73.035 121.992 72.3436C122.433 71.6512 123.021 71.1876 123.616 70.8763C124.212 70.5644 124.81 70.4072 125.262 70.3284C125.487 70.2891 125.674 70.2696 125.804 70.2599C125.869 70.255 125.919 70.2526 125.953 70.2515C125.969 70.2509 125.982 70.2506 125.99 70.2505L125.998 70.2504L126 70.2504L126 70.2504ZM109.75 82.2502H150.25V83.0002C150.25 85.3475 148.347 87.2502 146 87.2502H114C111.653 87.2502 109.75 85.3475 109.75 83.0002V82.2502ZM109.5 81.7502H109.25C108.698 81.7502 108.25 81.3025 108.25 80.7502C108.25 80.198 108.698 79.7502 109.25 79.7503L122.93 79.7504L123 79.7504L137 79.7502L137.07 79.7502L150.75 79.7502C151.302 79.7502 151.75 80.1979 151.75 80.7502C151.75 81.3025 151.302 81.7502 150.75 81.7502H150.5H109.5Z" stroke="#402CA7" stroke-width="0.5"/>
</g>
<g clip-path="url(#clip25_922_35619)">
<path d="M157.25 79.5003C156.56 79.5002 156 80.0599 156 80.7502C156 81.4406 156.56 82.0002 157.25 82.0002H157.5H198.5H198.75C199.44 82.0002 200 81.4406 200 80.7502C200 80.0599 199.44 79.5002 198.75 79.5002H185L171 79.5004L157.25 79.5003Z" fill="#929AFF"/>
<path d="M174 70.0004C174 70.0004 169 70.0002 169 75.2366C169 77.5913 169.835 78.7872 171 79.5004L185 79.5002C186.165 78.7871 187 77.5913 187 75.2366C187 70.0002 182 70.0004 182 70.0004L178 70.0002L174 70.0004Z" fill="#6A5EF6"/>
<path d="M157.5 82.0002V83.0002C157.5 85.4855 159.515 87.5002 162 87.5002H194C196.485 87.5002 198.5 85.4855 198.5 83.0002V82.0002H157.5Z" fill="#929AFF"/>
<path d="M174 70.2504L174 70.2504L178 70.2502L182 70.2504L182 70.2504L182 70.2504L182.002 70.2504L182.01 70.2505C182.018 70.2506 182.031 70.2509 182.047 70.2515C182.081 70.2526 182.131 70.255 182.196 70.2599C182.326 70.2696 182.513 70.2891 182.738 70.3284C183.19 70.4072 183.788 70.5644 184.384 70.8763C184.979 71.1876 185.567 71.6512 186.008 72.3436C186.448 73.035 186.75 73.969 186.75 75.2366C186.75 76.3849 186.547 77.2306 186.215 77.8688C185.897 78.4818 185.453 78.918 184.929 79.2502L171.071 79.2504C170.547 78.9181 170.103 78.4819 169.785 77.8689C169.453 77.2306 169.25 76.3849 169.25 75.2366C169.25 73.969 169.552 73.035 169.992 72.3436C170.433 71.6512 171.021 71.1876 171.616 70.8763C172.212 70.5644 172.81 70.4072 173.262 70.3284C173.487 70.2891 173.674 70.2696 173.804 70.2599C173.869 70.255 173.919 70.2526 173.953 70.2515C173.969 70.2509 173.982 70.2506 173.99 70.2505L173.998 70.2504L174 70.2504L174 70.2504ZM157.75 82.2502H198.25V83.0002C198.25 85.3475 196.347 87.2502 194 87.2502H162C159.653 87.2502 157.75 85.3475 157.75 83.0002V82.2502ZM157.5 81.7502H157.25C156.698 81.7502 156.25 81.3025 156.25 80.7502C156.25 80.198 156.698 79.7502 157.25 79.7503L170.93 79.7504L171 79.7504L185 79.7502L185.07 79.7502L198.75 79.7502C199.302 79.7502 199.75 80.1979 199.75 80.7502C199.75 81.3025 199.302 81.7502 198.75 81.7502H198.5H157.5Z" stroke="#402CA7" stroke-width="0.5"/>
</g>
<g clip-path="url(#clip26_922_35619)">
<path d="M205.25 79.5003C204.56 79.5002 204 80.0599 204 80.7502C204 81.4406 204.56 82.0002 205.25 82.0002H205.5H246.5H246.75C247.44 82.0002 248 81.4406 248 80.7502C248 80.0599 247.44 79.5002 246.75 79.5002H233L219 79.5004L205.25 79.5003Z" fill="#929AFF"/>
<path d="M222 70.0004C222 70.0004 217 70.0002 217 75.2366C217 77.5913 217.835 78.7872 219 79.5004L233 79.5002C234.165 78.7871 235 77.5913 235 75.2366C235 70.0002 230 70.0004 230 70.0004L226 70.0002L222 70.0004Z" fill="#6A5EF6"/>
<path d="M205.5 82.0002V83.0002C205.5 85.4855 207.515 87.5002 210 87.5002H242C244.485 87.5002 246.5 85.4855 246.5 83.0002V82.0002H205.5Z" fill="#929AFF"/>
<path d="M222 70.2504L222 70.2504L226 70.2502L230 70.2504L230 70.2504L230 70.2504L230.002 70.2504L230.01 70.2505C230.018 70.2506 230.031 70.2509 230.047 70.2515C230.081 70.2526 230.131 70.255 230.196 70.2599C230.326 70.2696 230.513 70.2891 230.738 70.3284C231.19 70.4072 231.788 70.5644 232.384 70.8763C232.979 71.1876 233.567 71.6512 234.008 72.3436C234.448 73.035 234.75 73.969 234.75 75.2366C234.75 76.3849 234.547 77.2306 234.215 77.8688C233.897 78.4818 233.453 78.918 232.929 79.2502L219.071 79.2504C218.547 78.9181 218.103 78.4819 217.785 77.8689C217.453 77.2306 217.25 76.3849 217.25 75.2366C217.25 73.969 217.552 73.035 217.992 72.3436C218.433 71.6512 219.021 71.1876 219.616 70.8763C220.212 70.5644 220.81 70.4072 221.262 70.3284C221.487 70.2891 221.674 70.2696 221.804 70.2599C221.869 70.255 221.919 70.2526 221.953 70.2515C221.969 70.2509 221.982 70.2506 221.99 70.2505L221.998 70.2504L222 70.2504L222 70.2504ZM205.75 82.2502H246.25V83.0002C246.25 85.3475 244.347 87.2502 242 87.2502H210C207.653 87.2502 205.75 85.3475 205.75 83.0002V82.2502ZM205.5 81.7502H205.25C204.698 81.7502 204.25 81.3025 204.25 80.7502C204.25 80.198 204.698 79.7502 205.25 79.7503L218.93 79.7504L219 79.7504L233 79.7502L233.07 79.7502L246.75 79.7502C247.302 79.7502 247.75 80.1979 247.75 80.7502C247.75 81.3025 247.302 81.7502 246.75 81.7502H246.5H205.5Z" stroke="#402CA7" stroke-width="0.5"/>
</g>
<g clip-path="url(#clip27_922_35619)">
<path d="M37.25 93.5003C36.5596 93.5002 36 94.0599 36 94.7502C36 95.4406 36.5596 96.0002 37.25 96.0002H37.5H78.5H78.75C79.4403 96.0002 80 95.4406 80 94.7502C80 94.0599 79.4403 93.5002 78.75 93.5002H65L51 93.5004L37.25 93.5003Z" fill="#929AFF"/>
<path d="M54 84.0004C54 84.0004 49 84.0002 49 89.2366C49 91.5913 49.8346 92.7872 51 93.5004L65 93.5002C66.1654 92.7871 67 91.5913 67 89.2366C67 84.0002 62 84.0004 62 84.0004L58 84.0002L54 84.0004Z" fill="#7E7DFC"/>
<path d="M37.5 96.0002V97.0002C37.5 99.4855 39.5147 101.5 42 101.5H74C76.4853 101.5 78.5 99.4855 78.5 97.0002V96.0002H37.5Z" fill="#929AFF"/>
<path d="M54.0002 84.2504L54.0003 84.2504L58 84.2502L61.9997 84.2504L61.9998 84.2504L61.9999 84.2504L62.0016 84.2504L62.0101 84.2505C62.0181 84.2506 62.0307 84.2509 62.0474 84.2515C62.081 84.2526 62.1314 84.255 62.1962 84.2599C62.326 84.2696 62.5131 84.2891 62.7383 84.3284C63.1898 84.4072 63.7883 84.5644 64.384 84.8763C64.9785 85.1876 65.5671 85.6512 66.0079 86.3436C66.448 87.035 66.75 87.969 66.75 89.2366C66.75 90.3849 66.5465 91.2306 66.2152 91.8688C65.8969 92.4818 65.453 92.918 64.9286 93.2502L51.0714 93.2504C50.547 92.9181 50.1031 92.4819 49.7848 91.8689C49.4535 91.2306 49.25 90.3849 49.25 89.2366C49.25 87.969 49.552 87.035 49.9921 86.3436C50.4329 85.6512 51.0215 85.1876 51.616 84.8763C52.2117 84.5644 52.8102 84.4072 53.2617 84.3284C53.4869 84.2891 53.674 84.2696 53.8038 84.2599C53.8686 84.255 53.919 84.2526 53.9526 84.2515C53.9693 84.2509 53.9819 84.2506 53.9899 84.2505L53.9984 84.2504L54.0001 84.2504L54.0002 84.2504ZM37.75 96.2502H78.25V97.0002C78.25 99.3475 76.3472 101.25 74 101.25H42C39.6528 101.25 37.75 99.3475 37.75 97.0002V96.2502ZM37.5 95.7502H37.25C36.6977 95.7502 36.25 95.3025 36.25 94.7502C36.25 94.198 36.6977 93.7502 37.25 93.7503L50.9296 93.7504L51 93.7504L65 93.7502L65.0704 93.7502L78.75 93.7502C79.3023 93.7502 79.75 94.1979 79.75 94.7502C79.75 95.3025 79.3023 95.7502 78.75 95.7502H78.5H37.5Z" stroke="#402CA7" stroke-width="0.5"/>
</g>
<g clip-path="url(#clip28_922_35619)">
<path d="M85.25 93.5003C84.5596 93.5002 84 94.0599 84 94.7502C84 95.4406 84.5596 96.0002 85.25 96.0002H85.5H126.5H126.75C127.44 96.0002 128 95.4406 128 94.7502C128 94.0599 127.44 93.5002 126.75 93.5002H113L99 93.5004L85.25 93.5003Z" fill="#929AFF"/>
<path d="M102 84.0004C102 84.0004 97 84.0002 97 89.2366C97 91.5913 97.8346 92.7872 99 93.5004L113 93.5002C114.165 92.7871 115 91.5913 115 89.2366C115 84.0002 110 84.0004 110 84.0004L106 84.0002L102 84.0004Z" fill="#7E7DFC"/>
<path d="M85.5 96.0002V97.0002C85.5 99.4855 87.5147 101.5 90 101.5H122C124.485 101.5 126.5 99.4855 126.5 97.0002V96.0002H85.5Z" fill="#929AFF"/>
<path d="M102 84.2504L102 84.2504L106 84.2502L110 84.2504L110 84.2504L110 84.2504L110.002 84.2504L110.01 84.2505C110.018 84.2506 110.031 84.2509 110.047 84.2515C110.081 84.2526 110.131 84.255 110.196 84.2599C110.326 84.2696 110.513 84.2891 110.738 84.3284C111.19 84.4072 111.788 84.5644 112.384 84.8763C112.979 85.1876 113.567 85.6512 114.008 86.3436C114.448 87.035 114.75 87.969 114.75 89.2366C114.75 90.3849 114.547 91.2306 114.215 91.8688C113.897 92.4818 113.453 92.918 112.929 93.2502L99.0714 93.2504C98.547 92.9181 98.1031 92.4819 97.7848 91.8689C97.4535 91.2306 97.25 90.3849 97.25 89.2366C97.25 87.969 97.552 87.035 97.9921 86.3436C98.4329 85.6512 99.0215 85.1876 99.616 84.8763C100.212 84.5644 100.81 84.4072 101.262 84.3284C101.487 84.2891 101.674 84.2696 101.804 84.2599C101.869 84.255 101.919 84.2526 101.953 84.2515C101.969 84.2509 101.982 84.2506 101.99 84.2505L101.998 84.2504L102 84.2504L102 84.2504ZM85.75 96.2502H126.25V97.0002C126.25 99.3475 124.347 101.25 122 101.25H90C87.6528 101.25 85.75 99.3475 85.75 97.0002V96.2502ZM85.5 95.7502H85.25C84.6977 95.7502 84.25 95.3025 84.25 94.7502C84.25 94.198 84.6977 93.7502 85.25 93.7503L98.9296 93.7504L99 93.7504L113 93.7502L113.07 93.7502L126.75 93.7502C127.302 93.7502 127.75 94.1979 127.75 94.7502C127.75 95.3025 127.302 95.7502 126.75 95.7502H126.5H85.5Z" stroke="#402CA7" stroke-width="0.5"/>
</g>
<g clip-path="url(#clip29_922_35619)">
<path d="M133.25 93.5003C132.56 93.5002 132 94.0599 132 94.7502C132 95.4406 132.56 96.0002 133.25 96.0002H133.5H174.5H174.75C175.44 96.0002 176 95.4406 176 94.7502C176 94.0599 175.44 93.5002 174.75 93.5002H161L147 93.5004L133.25 93.5003Z" fill="#929AFF"/>
<path d="M150 84.0004C150 84.0004 145 84.0002 145 89.2366C145 91.5913 145.835 92.7872 147 93.5004L161 93.5002C162.165 92.7871 163 91.5913 163 89.2366C163 84.0002 158 84.0004 158 84.0004L154 84.0002L150 84.0004Z" fill="#7E7DFC"/>
<path d="M133.5 96.0002V97.0002C133.5 99.4855 135.515 101.5 138 101.5H170C172.485 101.5 174.5 99.4855 174.5 97.0002V96.0002H133.5Z" fill="#929AFF"/>
<path d="M150 84.2504L150 84.2504L154 84.2502L158 84.2504L158 84.2504L158 84.2504L158.002 84.2504L158.01 84.2505C158.018 84.2506 158.031 84.2509 158.047 84.2515C158.081 84.2526 158.131 84.255 158.196 84.2599C158.326 84.2696 158.513 84.2891 158.738 84.3284C159.19 84.4072 159.788 84.5644 160.384 84.8763C160.979 85.1876 161.567 85.6512 162.008 86.3436C162.448 87.035 162.75 87.969 162.75 89.2366C162.75 90.3849 162.547 91.2306 162.215 91.8688C161.897 92.4818 161.453 92.918 160.929 93.2502L147.071 93.2504C146.547 92.9181 146.103 92.4819 145.785 91.8689C145.453 91.2306 145.25 90.3849 145.25 89.2366C145.25 87.969 145.552 87.035 145.992 86.3436C146.433 85.6512 147.021 85.1876 147.616 84.8763C148.212 84.5644 148.81 84.4072 149.262 84.3284C149.487 84.2891 149.674 84.2696 149.804 84.2599C149.869 84.255 149.919 84.2526 149.953 84.2515C149.969 84.2509 149.982 84.2506 149.99 84.2505L149.998 84.2504L150 84.2504L150 84.2504ZM133.75 96.2502H174.25V97.0002C174.25 99.3475 172.347 101.25 170 101.25H138C135.653 101.25 133.75 99.3475 133.75 97.0002V96.2502ZM133.5 95.7502H133.25C132.698 95.7502 132.25 95.3025 132.25 94.7502C132.25 94.198 132.698 93.7502 133.25 93.7503L146.93 93.7504L147 93.7504L161 93.7502L161.07 93.7502L174.75 93.7502C175.302 93.7502 175.75 94.1979 175.75 94.7502C175.75 95.3025 175.302 95.7502 174.75 95.7502H174.5H133.5Z" stroke="#402CA7" stroke-width="0.5"/>
</g>
<g clip-path="url(#clip30_922_35619)">
<path d="M181.25 93.5003C180.56 93.5002 180 94.0599 180 94.7502C180 95.4406 180.56 96.0002 181.25 96.0002H181.5H222.5H222.75C223.44 96.0002 224 95.4406 224 94.7502C224 94.0599 223.44 93.5002 222.75 93.5002H209L195 93.5004L181.25 93.5003Z" fill="#929AFF"/>
<path d="M198 84.0004C198 84.0004 193 84.0002 193 89.2366C193 91.5913 193.835 92.7872 195 93.5004L209 93.5002C210.165 92.7871 211 91.5913 211 89.2366C211 84.0002 206 84.0004 206 84.0004L202 84.0002L198 84.0004Z" fill="#7E7DFC"/>
<path d="M181.5 96.0002V97.0002C181.5 99.4855 183.515 101.5 186 101.5H218C220.485 101.5 222.5 99.4855 222.5 97.0002V96.0002H181.5Z" fill="#929AFF"/>
<path d="M198 84.2504L198 84.2504L202 84.2502L206 84.2504L206 84.2504L206 84.2504L206.002 84.2504L206.01 84.2505C206.018 84.2506 206.031 84.2509 206.047 84.2515C206.081 84.2526 206.131 84.255 206.196 84.2599C206.326 84.2696 206.513 84.2891 206.738 84.3284C207.19 84.4072 207.788 84.5644 208.384 84.8763C208.979 85.1876 209.567 85.6512 210.008 86.3436C210.448 87.035 210.75 87.969 210.75 89.2366C210.75 90.3849 210.547 91.2306 210.215 91.8688C209.897 92.4818 209.453 92.918 208.929 93.2502L195.071 93.2504C194.547 92.9181 194.103 92.4819 193.785 91.8689C193.453 91.2306 193.25 90.3849 193.25 89.2366C193.25 87.969 193.552 87.035 193.992 86.3436C194.433 85.6512 195.021 85.1876 195.616 84.8763C196.212 84.5644 196.81 84.4072 197.262 84.3284C197.487 84.2891 197.674 84.2696 197.804 84.2599C197.869 84.255 197.919 84.2526 197.953 84.2515C197.969 84.2509 197.982 84.2506 197.99 84.2505L197.998 84.2504L198 84.2504L198 84.2504ZM181.75 96.2502H222.25V97.0002C222.25 99.3475 220.347 101.25 218 101.25H186C183.653 101.25 181.75 99.3475 181.75 97.0002V96.2502ZM181.5 95.7502H181.25C180.698 95.7502 180.25 95.3025 180.25 94.7502C180.25 94.198 180.698 93.7502 181.25 93.7503L194.93 93.7504L195 93.7504L209 93.7502L209.07 93.7502L222.75 93.7502C223.302 93.7502 223.75 94.1979 223.75 94.7502C223.75 95.3025 223.302 95.7502 222.75 95.7502H222.5H181.5Z" stroke="#402CA7" stroke-width="0.5"/>
</g>
<g clip-path="url(#clip31_922_35619)">
<path d="M13.25 107.5C12.5596 107.5 12 108.06 12 108.75C12 109.441 12.5596 110 13.25 110H13.5H54.5H54.75C55.4403 110 56 109.441 56 108.75C56 108.06 55.4403 107.5 54.75 107.5H41L27 107.5L13.25 107.5Z" fill="#929AFF"/>
<path d="M30 98.0004C30 98.0004 25 98.0002 25 103.237C25 105.591 25.8346 106.787 27 107.5L41 107.5C42.1654 106.787 43 105.591 43 103.237C43 98.0002 38 98.0004 38 98.0004L34 98.0002L30 98.0004Z" fill="#929AFF"/>
<path d="M13.5 110V111C13.5 113.486 15.5147 115.5 18 115.5H50C52.4853 115.5 54.5 113.486 54.5 111V110H13.5Z" fill="#929AFF"/>
<path d="M30.0002 98.2504L30.0003 98.2504L34 98.2502L37.9997 98.2504L37.9998 98.2504L37.9999 98.2504L38.0016 98.2504L38.0101 98.2505C38.0181 98.2506 38.0307 98.2509 38.0474 98.2515C38.081 98.2526 38.1314 98.255 38.1962 98.2599C38.326 98.2696 38.5131 98.2891 38.7383 98.3284C39.1898 98.4072 39.7883 98.5644 40.384 98.8763C40.9785 99.1876 41.5671 99.6512 42.0079 100.344C42.448 101.035 42.75 101.969 42.75 103.237C42.75 104.385 42.5465 105.231 42.2152 105.869C41.8969 106.482 41.453 106.918 40.9286 107.25L27.0714 107.25C26.547 106.918 26.1031 106.482 25.7848 105.869C25.4535 105.231 25.25 104.385 25.25 103.237C25.25 101.969 25.552 101.035 25.9921 100.344C26.4329 99.6512 27.0215 99.1876 27.616 98.8763C28.2117 98.5644 28.8102 98.4072 29.2617 98.3284C29.4869 98.2891 29.674 98.2696 29.8038 98.2599C29.8686 98.255 29.919 98.2526 29.9526 98.2515C29.9693 98.2509 29.9819 98.2506 29.9899 98.2505L29.9984 98.2504L30.0001 98.2504L30.0002 98.2504ZM13.75 110.25H54.25V111C54.25 113.347 52.3472 115.25 50 115.25H18C15.6528 115.25 13.75 113.347 13.75 111V110.25ZM13.5 109.75H13.25C12.6977 109.75 12.25 109.303 12.25 108.75C12.25 108.198 12.6977 107.75 13.25 107.75L26.9296 107.75L27 107.75L41 107.75L41.0704 107.75L54.75 107.75C55.3023 107.75 55.75 108.198 55.75 108.75C55.75 109.303 55.3023 109.75 54.75 109.75H54.5H13.5Z" stroke="#402CA7" stroke-width="0.5"/>
</g>
<g clip-path="url(#clip32_922_35619)">
<path d="M61.25 107.5C60.5596 107.5 60 108.06 60 108.75C60 109.441 60.5596 110 61.25 110H61.5H102.5H102.75C103.44 110 104 109.441 104 108.75C104 108.06 103.44 107.5 102.75 107.5H89L75 107.5L61.25 107.5Z" fill="#929AFF"/>
<path d="M78 98.0004C78 98.0004 73 98.0002 73 103.237C73 105.591 73.8346 106.787 75 107.5L89 107.5C90.1654 106.787 91 105.591 91 103.237C91 98.0002 86 98.0004 86 98.0004L82 98.0002L78 98.0004Z" fill="#929AFF"/>
<path d="M61.5 110V111C61.5 113.486 63.5147 115.5 66 115.5H98C100.485 115.5 102.5 113.486 102.5 111V110H61.5Z" fill="#929AFF"/>
<path d="M78.0002 98.2504L78.0003 98.2504L82 98.2502L85.9997 98.2504L85.9998 98.2504L85.9999 98.2504L86.0016 98.2504L86.0101 98.2505C86.0181 98.2506 86.0307 98.2509 86.0474 98.2515C86.081 98.2526 86.1314 98.255 86.1962 98.2599C86.326 98.2696 86.5131 98.2891 86.7383 98.3284C87.1898 98.4072 87.7883 98.5644 88.384 98.8763C88.9785 99.1876 89.5671 99.6512 90.0079 100.344C90.448 101.035 90.75 101.969 90.75 103.237C90.75 104.385 90.5465 105.231 90.2152 105.869C89.8969 106.482 89.453 106.918 88.9286 107.25L75.0714 107.25C74.547 106.918 74.1031 106.482 73.7848 105.869C73.4535 105.231 73.25 104.385 73.25 103.237C73.25 101.969 73.552 101.035 73.9921 100.344C74.4329 99.6512 75.0215 99.1876 75.616 98.8763C76.2117 98.5644 76.8102 98.4072 77.2617 98.3284C77.4869 98.2891 77.674 98.2696 77.8038 98.2599C77.8686 98.255 77.919 98.2526 77.9526 98.2515C77.9693 98.2509 77.9819 98.2506 77.9899 98.2505L77.9984 98.2504L78.0001 98.2504L78.0002 98.2504ZM61.75 110.25H102.25V111C102.25 113.347 100.347 115.25 98 115.25H66C63.6528 115.25 61.75 113.347 61.75 111V110.25ZM61.5 109.75H61.25C60.6977 109.75 60.25 109.303 60.25 108.75C60.25 108.198 60.6977 107.75 61.25 107.75L74.9296 107.75L75 107.75L89 107.75L89.0704 107.75L102.75 107.75C103.302 107.75 103.75 108.198 103.75 108.75C103.75 109.303 103.302 109.75 102.75 109.75H102.5H61.5Z" stroke="#402CA7" stroke-width="0.5"/>
</g>
<g clip-path="url(#clip33_922_35619)">
<path d="M109.25 107.5C108.56 107.5 108 108.06 108 108.75C108 109.441 108.56 110 109.25 110H109.5H150.5H150.75C151.44 110 152 109.441 152 108.75C152 108.06 151.44 107.5 150.75 107.5H137L123 107.5L109.25 107.5Z" fill="#929AFF"/>
<path d="M126 98.0004C126 98.0004 121 98.0002 121 103.237C121 105.591 121.835 106.787 123 107.5L137 107.5C138.165 106.787 139 105.591 139 103.237C139 98.0002 134 98.0004 134 98.0004L130 98.0002L126 98.0004Z" fill="#929AFF"/>
<path d="M109.5 110V111C109.5 113.486 111.515 115.5 114 115.5H146C148.485 115.5 150.5 113.486 150.5 111V110H109.5Z" fill="#929AFF"/>
<path d="M126 98.2504L126 98.2504L130 98.2502L134 98.2504L134 98.2504L134 98.2504L134.002 98.2504L134.01 98.2505C134.018 98.2506 134.031 98.2509 134.047 98.2515C134.081 98.2526 134.131 98.255 134.196 98.2599C134.326 98.2696 134.513 98.2891 134.738 98.3284C135.19 98.4072 135.788 98.5644 136.384 98.8763C136.979 99.1876 137.567 99.6512 138.008 100.344C138.448 101.035 138.75 101.969 138.75 103.237C138.75 104.385 138.547 105.231 138.215 105.869C137.897 106.482 137.453 106.918 136.929 107.25L123.071 107.25C122.547 106.918 122.103 106.482 121.785 105.869C121.453 105.231 121.25 104.385 121.25 103.237C121.25 101.969 121.552 101.035 121.992 100.344C122.433 99.6512 123.021 99.1876 123.616 98.8763C124.212 98.5644 124.81 98.4072 125.262 98.3284C125.487 98.2891 125.674 98.2696 125.804 98.2599C125.869 98.255 125.919 98.2526 125.953 98.2515C125.969 98.2509 125.982 98.2506 125.99 98.2505L125.998 98.2504L126 98.2504L126 98.2504ZM109.75 110.25H150.25V111C150.25 113.347 148.347 115.25 146 115.25H114C111.653 115.25 109.75 113.347 109.75 111V110.25ZM109.5 109.75H109.25C108.698 109.75 108.25 109.303 108.25 108.75C108.25 108.198 108.698 107.75 109.25 107.75L122.93 107.75L123 107.75L137 107.75L137.07 107.75L150.75 107.75C151.302 107.75 151.75 108.198 151.75 108.75C151.75 109.303 151.302 109.75 150.75 109.75H150.5H109.5Z" stroke="#402CA7" stroke-width="0.5"/>
</g>
<g clip-path="url(#clip34_922_35619)">
<path d="M157.25 107.5C156.56 107.5 156 108.06 156 108.75C156 109.441 156.56 110 157.25 110H157.5H198.5H198.75C199.44 110 200 109.441 200 108.75C200 108.06 199.44 107.5 198.75 107.5H185L171 107.5L157.25 107.5Z" fill="#929AFF"/>
<path d="M174 98.0004C174 98.0004 169 98.0002 169 103.237C169 105.591 169.835 106.787 171 107.5L185 107.5C186.165 106.787 187 105.591 187 103.237C187 98.0002 182 98.0004 182 98.0004L178 98.0002L174 98.0004Z" fill="#929AFF"/>
<path d="M157.5 110V111C157.5 113.486 159.515 115.5 162 115.5H194C196.485 115.5 198.5 113.486 198.5 111V110H157.5Z" fill="#929AFF"/>
<path d="M174 98.2504L174 98.2504L178 98.2502L182 98.2504L182 98.2504L182 98.2504L182.002 98.2504L182.01 98.2505C182.018 98.2506 182.031 98.2509 182.047 98.2515C182.081 98.2526 182.131 98.255 182.196 98.2599C182.326 98.2696 182.513 98.2891 182.738 98.3284C183.19 98.4072 183.788 98.5644 184.384 98.8763C184.979 99.1876 185.567 99.6512 186.008 100.344C186.448 101.035 186.75 101.969 186.75 103.237C186.75 104.385 186.547 105.231 186.215 105.869C185.897 106.482 185.453 106.918 184.929 107.25L171.071 107.25C170.547 106.918 170.103 106.482 169.785 105.869C169.453 105.231 169.25 104.385 169.25 103.237C169.25 101.969 169.552 101.035 169.992 100.344C170.433 99.6512 171.021 99.1876 171.616 98.8763C172.212 98.5644 172.81 98.4072 173.262 98.3284C173.487 98.2891 173.674 98.2696 173.804 98.2599C173.869 98.255 173.919 98.2526 173.953 98.2515C173.969 98.2509 173.982 98.2506 173.99 98.2505L173.998 98.2504L174 98.2504L174 98.2504ZM157.75 110.25H198.25V111C198.25 113.347 196.347 115.25 194 115.25H162C159.653 115.25 157.75 113.347 157.75 111V110.25ZM157.5 109.75H157.25C156.698 109.75 156.25 109.303 156.25 108.75C156.25 108.198 156.698 107.75 157.25 107.75L170.93 107.75L171 107.75L185 107.75L185.07 107.75L198.75 107.75C199.302 107.75 199.75 108.198 199.75 108.75C199.75 109.303 199.302 109.75 198.75 109.75H198.5H157.5Z" stroke="#402CA7" stroke-width="0.5"/>
</g>
<g clip-path="url(#clip35_922_35619)">
<path d="M205.25 107.5C204.56 107.5 204 108.06 204 108.75C204 109.441 204.56 110 205.25 110H205.5H246.5H246.75C247.44 110 248 109.441 248 108.75C248 108.06 247.44 107.5 246.75 107.5H233L219 107.5L205.25 107.5Z" fill="#929AFF"/>
<path d="M222 98.0004C222 98.0004 217 98.0002 217 103.237C217 105.591 217.835 106.787 219 107.5L233 107.5C234.165 106.787 235 105.591 235 103.237C235 98.0002 230 98.0004 230 98.0004L226 98.0002L222 98.0004Z" fill="#929AFF"/>
<path d="M205.5 110V111C205.5 113.486 207.515 115.5 210 115.5H242C244.485 115.5 246.5 113.486 246.5 111V110H205.5Z" fill="#929AFF"/>
<path d="M222 98.2504L222 98.2504L226 98.2502L230 98.2504L230 98.2504L230 98.2504L230.002 98.2504L230.01 98.2505C230.018 98.2506 230.031 98.2509 230.047 98.2515C230.081 98.2526 230.131 98.255 230.196 98.2599C230.326 98.2696 230.513 98.2891 230.738 98.3284C231.19 98.4072 231.788 98.5644 232.384 98.8763C232.979 99.1876 233.567 99.6512 234.008 100.344C234.448 101.035 234.75 101.969 234.75 103.237C234.75 104.385 234.547 105.231 234.215 105.869C233.897 106.482 233.453 106.918 232.929 107.25L219.071 107.25C218.547 106.918 218.103 106.482 217.785 105.869C217.453 105.231 217.25 104.385 217.25 103.237C217.25 101.969 217.552 101.035 217.992 100.344C218.433 99.6512 219.021 99.1876 219.616 98.8763C220.212 98.5644 220.81 98.4072 221.262 98.3284C221.487 98.2891 221.674 98.2696 221.804 98.2599C221.869 98.255 221.919 98.2526 221.953 98.2515C221.969 98.2509 221.982 98.2506 221.99 98.2505L221.998 98.2504L222 98.2504L222 98.2504ZM205.75 110.25H246.25V111C246.25 113.347 244.347 115.25 242 115.25H210C207.653 115.25 205.75 113.347 205.75 111V110.25ZM205.5 109.75H205.25C204.698 109.75 204.25 109.303 204.25 108.75C204.25 108.198 204.698 107.75 205.25 107.75L218.93 107.75L219 107.75L233 107.75L233.07 107.75L246.75 107.75C247.302 107.75 247.75 108.198 247.75 108.75C247.75 109.303 247.302 109.75 246.75 109.75H246.5H205.5Z" stroke="#402CA7" stroke-width="0.5"/>
</g>
<g clip-path="url(#clip36_922_35619)">
<path d="M37.5 124V125C37.5 127.486 39.5147 129.5 42 129.5H45H52H54.5H61.5H64H71H74C76.4853 129.5 78.5 127.486 78.5 125V124H37.5Z" fill="#929AFF"/>
<path d="M71 129.5L71.2629 158.905C71.2684 159.511 71.7617 160 72.3685 160C72.9714 160 73.4632 159.517 73.474 158.914L74 129.5H71Z" fill="#929AFF"/>
<path d="M43.522 160C44.0647 160 44.5071 159.565 44.516 159.022L45 129.5H42L42.528 159.024C42.5377 159.566 42.9799 160 43.522 160Z" fill="#929AFF"/>
<path d="M52 132.509H54.5V129.5H52V132.509Z" fill="#C5CBFF"/>
<path d="M37.25 121.5C36.5596 121.5 36 122.06 36 122.75C36 123.441 36.5596 124 37.25 124H37.5H78.5H78.75C79.4403 124 80 123.441 80 122.75C80 122.06 79.4403 121.5 78.75 121.5H65L51 121.5L37.25 121.5Z" fill="#929AFF"/>
<path d="M61.5 132.5H64V129.5H61.5V132.5Z" fill="#C5CBFF"/>
<path d="M49.0015 132.503C48.1727 132.502 47.5 133.173 47.5 134.002C47.5 134.829 48.1709 135.5 48.9985 135.5H50H53H63H66H67.003C67.8298 135.5 68.5 134.83 68.5 134.003C68.5 133.178 67.8316 132.508 67.0061 132.506L64 132.5H61.5L54.5 132.509H52L49.0015 132.503Z" fill="#C5CBFF"/>
<path d="M63 135.5L63.4796 159C63.4909 159.556 63.9444 160 64.5 160C65.0556 160 65.5091 159.556 65.5204 159L66 135.5H63Z" fill="#C5CBFF"/>
<path d="M51.5 160C52.0556 160 52.5091 159.556 52.5204 159L53 135.5H50L50.4796 159C50.4909 159.556 50.9444 160 51.5 160Z" fill="#C5CBFF"/>
<path d="M54 112C54 112 49 112 49 117.237C49 119.591 49.8346 120.787 51 121.5L65 121.5C66.1654 120.787 67 119.591 67 117.237C67 112 62 112 62 112L58 112L54 112Z" fill="#C5CBFF"/>
<path d="M71 129.25H70.7478H64.25H64H61.5H61.25H54.75H54.5H52H51.75H45.2541H45H42C39.6528 129.25 37.75 127.347 37.75 125V124.25H78.25V125C78.25 127.347 76.3472 129.25 74 129.25H71ZM73.7455 129.75L73.224 158.91C73.2157 159.376 72.8351 159.75 72.3685 159.75C71.8989 159.75 71.5171 159.372 71.5129 158.902L71.2522 129.75H73.7455ZM65.7448 135.75L65.2705 158.995C65.2619 159.415 64.9195 159.75 64.5 159.75C64.0805 159.75 63.7381 159.415 63.7295 158.995L63.2552 135.75H65.7448ZM63 135.25H62.7448H53.2552H53H50H49.7448H48.9985C48.309 135.25 47.75 134.691 47.75 134.002C47.75 133.311 48.3105 132.752 49.001 132.753L51.75 132.759V132.759H51.9995H52H54.5H54.5003H54.75V132.759L61.5 132.75H61.5003H63.9995H64L67.0056 132.756C67.6933 132.758 68.25 133.316 68.25 134.003C68.25 134.692 67.6917 135.25 67.003 135.25H66.2552H66H63ZM52.25 132.259V129.75H54.25V132.259H52.25ZM44.7459 129.75L44.2661 159.018C44.2594 159.424 43.9282 159.75 43.522 159.75C43.1162 159.75 42.7852 159.425 42.778 159.019L42.2545 129.75H44.7459ZM52.7448 135.75L52.2705 158.995C52.2619 159.415 51.9195 159.75 51.5 159.75C51.0805 159.75 50.7381 159.415 50.7295 158.995L50.2552 135.75H52.7448ZM63.75 132.25H61.75V129.75H63.75V132.25ZM37.25 121.75L50.9296 121.75L51 121.75L65 121.75L65.0704 121.75L78.75 121.75C79.3023 121.75 79.75 122.198 79.75 122.75C79.75 123.303 79.3023 123.75 78.75 123.75H78.5H37.5H37.25C36.6977 123.75 36.25 123.303 36.25 122.75C36.25 122.198 36.6977 121.75 37.25 121.75ZM54.0002 112.25L54.0003 112.25L58 112.25L61.9997 112.25L61.9998 112.25L61.9999 112.25L62.0016 112.25L62.0101 112.25C62.0181 112.251 62.0307 112.251 62.0474 112.251C62.081 112.253 62.1314 112.255 62.1962 112.26C62.326 112.27 62.5131 112.289 62.7383 112.328C63.1898 112.407 63.7883 112.564 64.384 112.876C64.9785 113.188 65.5671 113.651 66.0079 114.344C66.448 115.035 66.75 115.969 66.75 117.237C66.75 118.385 66.5465 119.231 66.2152 119.869C65.8969 120.482 65.453 120.918 64.9286 121.25L51.0714 121.25C50.547 120.918 50.1031 120.482 49.7848 119.869C49.4535 119.231 49.25 118.385 49.25 117.237C49.25 115.969 49.552 115.035 49.9921 114.344C50.4329 113.651 51.0215 113.188 51.616 112.876C52.2117 112.564 52.8102 112.407 53.2617 112.328C53.4869 112.289 53.674 112.27 53.8038 112.26C53.8686 112.255 53.919 112.253 53.9526 112.251C53.9693 112.251 53.9819 112.251 53.9899 112.25L53.9984 112.25L54.0001 112.25L54.0002 112.25Z" stroke="#402CA7" stroke-width="0.5"/>
</g>
<g clip-path="url(#clip37_922_35619)">
<path d="M85.5 124V125C85.5 127.486 87.5147 129.5 90 129.5H93H100H102.5H109.5H112H119H122C124.485 129.5 126.5 127.486 126.5 125V124H85.5Z" fill="#929AFF"/>
<path d="M119 129.5L119.263 158.905C119.268 159.511 119.762 160 120.369 160C120.971 160 121.463 159.517 121.474 158.914L122 129.5H119Z" fill="#929AFF"/>
<path d="M91.522 160C92.0647 160 92.5071 159.565 92.516 159.022L93 129.5H90L90.528 159.024C90.5377 159.566 90.9799 160 91.522 160Z" fill="#929AFF"/>
<path d="M100 132.509H102.5V129.5H100V132.509Z" fill="#C5CBFF"/>
<path d="M85.25 121.5C84.5596 121.5 84 122.06 84 122.75C84 123.441 84.5596 124 85.25 124H85.5H126.5H126.75C127.44 124 128 123.441 128 122.75C128 122.06 127.44 121.5 126.75 121.5H113L99 121.5L85.25 121.5Z" fill="#929AFF"/>
<path d="M109.5 132.5H112V129.5H109.5V132.5Z" fill="#C5CBFF"/>
<path d="M97.0015 132.503C96.1727 132.502 95.5 133.173 95.5 134.002C95.5 134.829 96.1709 135.5 96.9985 135.5H98H101H111H114H115.003C115.83 135.5 116.5 134.83 116.5 134.003C116.5 133.178 115.832 132.508 115.006 132.506L112 132.5H109.5L102.5 132.509H100L97.0015 132.503Z" fill="#C5CBFF"/>
<path d="M111 135.5L111.48 159C111.491 159.556 111.944 160 112.5 160C113.056 160 113.509 159.556 113.52 159L114 135.5H111Z" fill="#C5CBFF"/>
<path d="M99.5 160C100.056 160 100.509 159.556 100.52 159L101 135.5H98L98.4796 159C98.4909 159.556 98.9444 160 99.5 160Z" fill="#C5CBFF"/>
<path d="M102 112C102 112 97 112 97 117.237C97 119.591 97.8346 120.787 99 121.5L113 121.5C114.165 120.787 115 119.591 115 117.237C115 112 110 112 110 112L106 112L102 112Z" fill="#C5CBFF"/>
<path d="M119 129.25H118.748H112.25H112H109.5H109.25H102.75H102.5H100H99.75H93.2541H93H90C87.6528 129.25 85.75 127.347 85.75 125V124.25H126.25V125C126.25 127.347 124.347 129.25 122 129.25H119ZM121.745 129.75L121.224 158.91C121.216 159.376 120.835 159.75 120.369 159.75C119.899 159.75 119.517 159.372 119.513 158.902L119.252 129.75H121.745ZM113.745 135.75L113.27 158.995C113.262 159.415 112.919 159.75 112.5 159.75C112.081 159.75 111.738 159.415 111.73 158.995L111.255 135.75H113.745ZM111 135.25H110.745H101.255H101H98H97.7448H96.9985C96.309 135.25 95.75 134.691 95.75 134.002C95.75 133.311 96.3105 132.752 97.001 132.753L99.75 132.759V132.759H99.9995H100H102.5H102.5H102.75V132.759L109.5 132.75H109.5H111.999H112L115.006 132.756C115.693 132.758 116.25 133.316 116.25 134.003C116.25 134.692 115.692 135.25 115.003 135.25H114.255H114H111ZM100.25 132.259V129.75H102.25V132.259H100.25ZM92.7459 129.75L92.2661 159.018C92.2594 159.424 91.9282 159.75 91.522 159.75C91.1162 159.75 90.7852 159.425 90.778 159.019L90.2545 129.75H92.7459ZM100.745 135.75L100.27 158.995C100.262 159.415 99.9195 159.75 99.5 159.75C99.0805 159.75 98.7381 159.415 98.7295 158.995L98.2552 135.75H100.745ZM111.75 132.25H109.75V129.75H111.75V132.25ZM85.25 121.75L98.9296 121.75L99 121.75L113 121.75L113.07 121.75L126.75 121.75C127.302 121.75 127.75 122.198 127.75 122.75C127.75 123.303 127.302 123.75 126.75 123.75H126.5H85.5H85.25C84.6977 123.75 84.25 123.303 84.25 122.75C84.25 122.198 84.6977 121.75 85.25 121.75ZM102 112.25L102 112.25L106 112.25L110 112.25L110 112.25L110 112.25L110.002 112.25L110.01 112.25C110.018 112.251 110.031 112.251 110.047 112.251C110.081 112.253 110.131 112.255 110.196 112.26C110.326 112.27 110.513 112.289 110.738 112.328C111.19 112.407 111.788 112.564 112.384 112.876C112.979 113.188 113.567 113.651 114.008 114.344C114.448 115.035 114.75 115.969 114.75 117.237C114.75 118.385 114.547 119.231 114.215 119.869C113.897 120.482 113.453 120.918 112.929 121.25L99.0714 121.25C98.547 120.918 98.1031 120.482 97.7848 119.869C97.4535 119.231 97.25 118.385 97.25 117.237C97.25 115.969 97.552 115.035 97.9921 114.344C98.4329 113.651 99.0215 113.188 99.616 112.876C100.212 112.564 100.81 112.407 101.262 112.328C101.487 112.289 101.674 112.27 101.804 112.26C101.869 112.255 101.919 112.253 101.953 112.251C101.969 112.251 101.982 112.251 101.99 112.25L101.998 112.25L102 112.25L102 112.25Z" stroke="#402CA7" stroke-width="0.5"/>
</g>
<g clip-path="url(#clip38_922_35619)">
<path d="M133.5 124V125C133.5 127.486 135.515 129.5 138 129.5H141H148H150.5H157.5H160H167H170C172.485 129.5 174.5 127.486 174.5 125V124H133.5Z" fill="#929AFF"/>
<path d="M167 129.5L167.263 158.905C167.268 159.511 167.762 160 168.369 160C168.971 160 169.463 159.517 169.474 158.914L170 129.5H167Z" fill="#929AFF"/>
<path d="M139.522 160C140.065 160 140.507 159.565 140.516 159.022L141 129.5H138L138.528 159.024C138.538 159.566 138.98 160 139.522 160Z" fill="#929AFF"/>
<path d="M148 132.509H150.5V129.5H148V132.509Z" fill="#C5CBFF"/>
<path d="M133.25 121.5C132.56 121.5 132 122.06 132 122.75C132 123.441 132.56 124 133.25 124H133.5H174.5H174.75C175.44 124 176 123.441 176 122.75C176 122.06 175.44 121.5 174.75 121.5H161L147 121.5L133.25 121.5Z" fill="#929AFF"/>
<path d="M157.5 132.5H160V129.5H157.5V132.5Z" fill="#C5CBFF"/>
<path d="M145.002 132.503C144.173 132.502 143.5 133.173 143.5 134.002C143.5 134.829 144.171 135.5 144.998 135.5H146H149H159H162H163.003C163.83 135.5 164.5 134.83 164.5 134.003C164.5 133.178 163.832 132.508 163.006 132.506L160 132.5H157.5L150.5 132.509H148L145.002 132.503Z" fill="#C5CBFF"/>
<path d="M159 135.5L159.48 159C159.491 159.556 159.944 160 160.5 160C161.056 160 161.509 159.556 161.52 159L162 135.5H159Z" fill="#C5CBFF"/>
<path d="M147.5 160C148.056 160 148.509 159.556 148.52 159L149 135.5H146L146.48 159C146.491 159.556 146.944 160 147.5 160Z" fill="#C5CBFF"/>
<path d="M150 112C150 112 145 112 145 117.237C145 119.591 145.835 120.787 147 121.5L161 121.5C162.165 120.787 163 119.591 163 117.237C163 112 158 112 158 112L154 112L150 112Z" fill="#C5CBFF"/>
<path d="M167 129.25H166.748H160.25H160H157.5H157.25H150.75H150.5H148H147.75H141.254H141H138C135.653 129.25 133.75 127.347 133.75 125V124.25H174.25V125C174.25 127.347 172.347 129.25 170 129.25H167ZM169.745 129.75L169.224 158.91C169.216 159.376 168.835 159.75 168.369 159.75C167.899 159.75 167.517 159.372 167.513 158.902L167.252 129.75H169.745ZM161.745 135.75L161.27 158.995C161.262 159.415 160.919 159.75 160.5 159.75C160.081 159.75 159.738 159.415 159.73 158.995L159.255 135.75H161.745ZM159 135.25H158.745H149.255H149H146H145.745H144.998C144.309 135.25 143.75 134.691 143.75 134.002C143.75 133.311 144.311 132.752 145.001 132.753L147.75 132.759V132.759H147.999H148H150.5H150.5H150.75V132.759L157.5 132.75H157.5H159.999H160L163.006 132.756C163.693 132.758 164.25 133.316 164.25 134.003C164.25 134.692 163.692 135.25 163.003 135.25H162.255H162H159ZM148.25 132.259V129.75H150.25V132.259H148.25ZM140.746 129.75L140.266 159.018C140.259 159.424 139.928 159.75 139.522 159.75C139.116 159.75 138.785 159.425 138.778 159.019L138.255 129.75H140.746ZM148.745 135.75L148.27 158.995C148.262 159.415 147.919 159.75 147.5 159.75C147.081 159.75 146.738 159.415 146.73 158.995L146.255 135.75H148.745ZM159.75 132.25H157.75V129.75H159.75V132.25ZM133.25 121.75L146.93 121.75L147 121.75L161 121.75L161.07 121.75L174.75 121.75C175.302 121.75 175.75 122.198 175.75 122.75C175.75 123.303 175.302 123.75 174.75 123.75H174.5H133.5H133.25C132.698 123.75 132.25 123.303 132.25 122.75C132.25 122.198 132.698 121.75 133.25 121.75ZM150 112.25L150 112.25L154 112.25L158 112.25L158 112.25L158 112.25L158.002 112.25L158.01 112.25C158.018 112.251 158.031 112.251 158.047 112.251C158.081 112.253 158.131 112.255 158.196 112.26C158.326 112.27 158.513 112.289 158.738 112.328C159.19 112.407 159.788 112.564 160.384 112.876C160.979 113.188 161.567 113.651 162.008 114.344C162.448 115.035 162.75 115.969 162.75 117.237C162.75 118.385 162.547 119.231 162.215 119.869C161.897 120.482 161.453 120.918 160.929 121.25L147.071 121.25C146.547 120.918 146.103 120.482 145.785 119.869C145.453 119.231 145.25 118.385 145.25 117.237C145.25 115.969 145.552 115.035 145.992 114.344C146.433 113.651 147.021 113.188 147.616 112.876C148.212 112.564 148.81 112.407 149.262 112.328C149.487 112.289 149.674 112.27 149.804 112.26C149.869 112.255 149.919 112.253 149.953 112.251C149.969 112.251 149.982 112.251 149.99 112.25L149.998 112.25L150 112.25L150 112.25Z" stroke="#402CA7" stroke-width="0.5"/>
</g>
<g clip-path="url(#clip39_922_35619)">
<path d="M181.5 124V125C181.5 127.486 183.515 129.5 186 129.5H189H196H198.5H205.5H208H215H218C220.485 129.5 222.5 127.486 222.5 125V124H181.5Z" fill="#929AFF"/>
<path d="M215 129.5L215.263 158.905C215.268 159.511 215.762 160 216.369 160C216.971 160 217.463 159.517 217.474 158.914L218 129.5H215Z" fill="#929AFF"/>
<path d="M187.522 160C188.065 160 188.507 159.565 188.516 159.022L189 129.5H186L186.528 159.024C186.538 159.566 186.98 160 187.522 160Z" fill="#929AFF"/>
<path d="M196 132.509H198.5V129.5H196V132.509Z" fill="#C5CBFF"/>
<path d="M181.25 121.5C180.56 121.5 180 122.06 180 122.75C180 123.441 180.56 124 181.25 124H181.5H222.5H222.75C223.44 124 224 123.441 224 122.75C224 122.06 223.44 121.5 222.75 121.5H209L195 121.5L181.25 121.5Z" fill="#929AFF"/>
<path d="M205.5 132.5H208V129.5H205.5V132.5Z" fill="#C5CBFF"/>
<path d="M193.002 132.503C192.173 132.502 191.5 133.173 191.5 134.002C191.5 134.829 192.171 135.5 192.998 135.5H194H197H207H210H211.003C211.83 135.5 212.5 134.83 212.5 134.003C212.5 133.178 211.832 132.508 211.006 132.506L208 132.5H205.5L198.5 132.509H196L193.002 132.503Z" fill="#C5CBFF"/>
<path d="M207 135.5L207.48 159C207.491 159.556 207.944 160 208.5 160C209.056 160 209.509 159.556 209.52 159L210 135.5H207Z" fill="#C5CBFF"/>
<path d="M195.5 160C196.056 160 196.509 159.556 196.52 159L197 135.5H194L194.48 159C194.491 159.556 194.944 160 195.5 160Z" fill="#C5CBFF"/>
<path d="M198 112C198 112 193 112 193 117.237C193 119.591 193.835 120.787 195 121.5L209 121.5C210.165 120.787 211 119.591 211 117.237C211 112 206 112 206 112L202 112L198 112Z" fill="#C5CBFF"/>
<path d="M215 129.25H214.748H208.25H208H205.5H205.25H198.75H198.5H196H195.75H189.254H189H186C183.653 129.25 181.75 127.347 181.75 125V124.25H222.25V125C222.25 127.347 220.347 129.25 218 129.25H215ZM217.745 129.75L217.224 158.91C217.216 159.376 216.835 159.75 216.369 159.75C215.899 159.75 215.517 159.372 215.513 158.902L215.252 129.75H217.745ZM209.745 135.75L209.27 158.995C209.262 159.415 208.919 159.75 208.5 159.75C208.081 159.75 207.738 159.415 207.73 158.995L207.255 135.75H209.745ZM207 135.25H206.745H197.255H197H194H193.745H192.998C192.309 135.25 191.75 134.691 191.75 134.002C191.75 133.311 192.311 132.752 193.001 132.753L195.75 132.759V132.759H195.999H196H198.5H198.5H198.75V132.759L205.5 132.75H205.5H207.999H208L211.006 132.756C211.693 132.758 212.25 133.316 212.25 134.003C212.25 134.692 211.692 135.25 211.003 135.25H210.255H210H207ZM196.25 132.259V129.75H198.25V132.259H196.25ZM188.746 129.75L188.266 159.018C188.259 159.424 187.928 159.75 187.522 159.75C187.116 159.75 186.785 159.425 186.778 159.019L186.255 129.75H188.746ZM196.745 135.75L196.27 158.995C196.262 159.415 195.919 159.75 195.5 159.75C195.081 159.75 194.738 159.415 194.73 158.995L194.255 135.75H196.745ZM207.75 132.25H205.75V129.75H207.75V132.25ZM181.25 121.75L194.93 121.75L195 121.75L209 121.75L209.07 121.75L222.75 121.75C223.302 121.75 223.75 122.198 223.75 122.75C223.75 123.303 223.302 123.75 222.75 123.75H222.5H181.5H181.25C180.698 123.75 180.25 123.303 180.25 122.75C180.25 122.198 180.698 121.75 181.25 121.75ZM198 112.25L198 112.25L202 112.25L206 112.25L206 112.25L206 112.25L206.002 112.25L206.01 112.25C206.018 112.251 206.031 112.251 206.047 112.251C206.081 112.253 206.131 112.255 206.196 112.26C206.326 112.27 206.513 112.289 206.738 112.328C207.19 112.407 207.788 112.564 208.384 112.876C208.979 113.188 209.567 113.651 210.008 114.344C210.448 115.035 210.75 115.969 210.75 117.237C210.75 118.385 210.547 119.231 210.215 119.869C209.897 120.482 209.453 120.918 208.929 121.25L195.071 121.25C194.547 120.918 194.103 120.482 193.785 119.869C193.453 119.231 193.25 118.385 193.25 117.237C193.25 115.969 193.552 115.035 193.992 114.344C194.433 113.651 195.021 113.188 195.616 112.876C196.212 112.564 196.81 112.407 197.262 112.328C197.487 112.289 197.674 112.27 197.804 112.26C197.869 112.255 197.919 112.253 197.953 112.251C197.969 112.251 197.982 112.251 197.99 112.25L197.998 112.25L198 112.25L198 112.25Z" stroke="#402CA7" stroke-width="0.5"/>
</g>
<defs>
<clipPath id="clip0_922_35619">
<rect width="44" height="18" fill="white" transform="translate(36)"/>
</clipPath>
<clipPath id="clip1_922_35619">
<rect width="44" height="18" fill="white" transform="translate(84)"/>
</clipPath>
<clipPath id="clip2_922_35619">
<rect width="44" height="18" fill="white" transform="translate(132)"/>
</clipPath>
<clipPath id="clip3_922_35619">
<rect width="44" height="18" fill="white" transform="translate(180)"/>
</clipPath>
<clipPath id="clip4_922_35619">
<rect width="44" height="18" fill="white" transform="translate(12 14)"/>
</clipPath>
<clipPath id="clip5_922_35619">
<rect width="44" height="18" fill="white" transform="translate(60 14)"/>
</clipPath>
<clipPath id="clip6_922_35619">
<rect width="44" height="18" fill="white" transform="translate(108 14)"/>
</clipPath>
<clipPath id="clip7_922_35619">
<rect width="44" height="18" fill="white" transform="translate(156 14)"/>
</clipPath>
<clipPath id="clip8_922_35619">
<rect width="44" height="18" fill="white" transform="translate(204 14)"/>
</clipPath>
<clipPath id="clip9_922_35619">
<rect width="44" height="18" fill="white" transform="translate(36 28)"/>
</clipPath>
<clipPath id="clip10_922_35619">
<rect width="44" height="18" fill="white" transform="translate(84 28)"/>
</clipPath>
<clipPath id="clip11_922_35619">
<rect width="44" height="18" fill="white" transform="translate(132 28)"/>
</clipPath>
<clipPath id="clip12_922_35619">
<rect width="44" height="18" fill="white" transform="translate(180 28)"/>
</clipPath>
<clipPath id="clip13_922_35619">
<rect width="44" height="18" fill="white" transform="translate(12 42)"/>
</clipPath>
<clipPath id="clip14_922_35619">
<rect width="44" height="18" fill="white" transform="translate(60 42)"/>
</clipPath>
<clipPath id="clip15_922_35619">
<rect width="44" height="18" fill="white" transform="translate(108 42)"/>
</clipPath>
<clipPath id="clip16_922_35619">
<rect width="44" height="18" fill="white" transform="translate(156 42)"/>
</clipPath>
<clipPath id="clip17_922_35619">
<rect width="44" height="18" fill="white" transform="translate(204 42)"/>
</clipPath>
<clipPath id="clip18_922_35619">
<rect width="44" height="18" fill="white" transform="translate(36 56)"/>
</clipPath>
<clipPath id="clip19_922_35619">
<rect width="44" height="18" fill="white" transform="translate(84 56)"/>
</clipPath>
<clipPath id="clip20_922_35619">
<rect width="44" height="18" fill="white" transform="translate(132 56)"/>
</clipPath>
<clipPath id="clip21_922_35619">
<rect width="44" height="18" fill="white" transform="translate(180 56)"/>
</clipPath>
<clipPath id="clip22_922_35619">
<rect width="44" height="18" fill="white" transform="translate(12 70.0002)"/>
</clipPath>
<clipPath id="clip23_922_35619">
<rect width="44" height="18" fill="white" transform="translate(60 70.0002)"/>
</clipPath>
<clipPath id="clip24_922_35619">
<rect width="44" height="18" fill="white" transform="translate(108 70.0002)"/>
</clipPath>
<clipPath id="clip25_922_35619">
<rect width="44" height="18" fill="white" transform="translate(156 70.0002)"/>
</clipPath>
<clipPath id="clip26_922_35619">
<rect width="44" height="18" fill="white" transform="translate(204 70.0002)"/>
</clipPath>
<clipPath id="clip27_922_35619">
<rect width="44" height="18" fill="white" transform="translate(36 84.0002)"/>
</clipPath>
<clipPath id="clip28_922_35619">
<rect width="44" height="18" fill="white" transform="translate(84 84.0002)"/>
</clipPath>
<clipPath id="clip29_922_35619">
<rect width="44" height="18" fill="white" transform="translate(132 84.0002)"/>
</clipPath>
<clipPath id="clip30_922_35619">
<rect width="44" height="18" fill="white" transform="translate(180 84.0002)"/>
</clipPath>
<clipPath id="clip31_922_35619">
<rect width="44" height="18" fill="white" transform="translate(12 98.0002)"/>
</clipPath>
<clipPath id="clip32_922_35619">
<rect width="44" height="18" fill="white" transform="translate(60 98.0002)"/>
</clipPath>
<clipPath id="clip33_922_35619">
<rect width="44" height="18" fill="white" transform="translate(108 98.0002)"/>
</clipPath>
<clipPath id="clip34_922_35619">
<rect width="44" height="18" fill="white" transform="translate(156 98.0002)"/>
</clipPath>
<clipPath id="clip35_922_35619">
<rect width="44" height="18" fill="white" transform="translate(204 98.0002)"/>
</clipPath>
<clipPath id="clip36_922_35619">
<rect width="44" height="48" fill="white" transform="translate(36 112)"/>
</clipPath>
<clipPath id="clip37_922_35619">
<rect width="44" height="48" fill="white" transform="translate(84 112)"/>
</clipPath>
<clipPath id="clip38_922_35619">
<rect width="44" height="48" fill="white" transform="translate(132 112)"/>
</clipPath>
<clipPath id="clip39_922_35619">
<rect width="44" height="48" fill="white" transform="translate(180 112)"/>
</clipPath>
</defs>
</svg>
