<svg width="100" height="110" viewBox="0 0 100 110" fill="none" xmlns="http://www.w3.org/2000/svg">
<g clip-path="url(#clip0_922_20775)">
<path d="M40.6186 12C40.6186 12.7243 40.0336 13.3093 39.3093 13.3093C38.585 13.3093 38 12.7243 38 12C38 11.2757 38.585 10.6907 39.3093 10.6907C40.0336 10.6907 40.6186 11.2757 40.6186 12Z" fill="#372B84"/>
<path d="M62 12C62 12.7243 61.415 13.3093 60.6907 13.3093C59.9664 13.3093 59.3814 12.7243 59.3814 12C59.3814 11.2757 59.9664 10.6907 60.6907 10.6907C61.415 10.6907 62 11.2757 62 12Z" fill="#372B84"/>
<path fill-rule="evenodd" clip-rule="evenodd" d="M39.3093 13.3093C40.0336 13.3093 40.6186 12.7243 40.6186 12C40.6186 11.2757 40.0336 10.6907 39.3093 10.6907C38.585 10.6907 38 11.2757 38 12C38 12.7243 38.585 13.3093 39.3093 13.3093ZM60.6907 13.3093C61.415 13.3093 62 12.7243 62 12C62 11.2757 61.415 10.6907 60.6907 10.6907C59.9664 10.6907 59.3814 11.2757 59.3814 12C59.3814 12.7243 59.9664 13.3093 60.6907 13.3093Z" fill="#372B84"/>
<path d="M3 27V29C3 35.0751 7.92487 40 14 40H21H37H42H58H63H79H86.9718C92.5102 40 97 35.5102 97 29.9718V27H3Z" fill="#6A5EF6"/>
<path d="M79 40L79.964 107.483C79.984 108.879 81.1213 110 82.5173 110C83.8996 110 85.031 108.9 85.0699 107.518L86.9718 40H79Z" fill="#6A5EF6"/>
<path d="M17.5 110C18.8865 110 20.0159 108.887 20.0357 107.5L21 40H14L14.9643 107.5C14.9841 108.887 16.1136 110 17.5 110Z" fill="#6A5EF6"/>
<path d="M2.5 22C1.11929 22 0 23.1193 0 24.5C0 25.8807 1.11929 27 2.5 27H3H97H97.5C98.8807 27 100 25.8807 100 24.5C100 23.1193 98.8807 22 97.5 22H64.9027H35.0973H2.5Z" fill="#929AFF"/>
<path d="M61 54L61.9554 107.5C61.9801 108.888 63.1121 110 64.5 110C65.8879 110 67.0199 108.888 67.0446 107.5L68 54H61Z" fill="#4E33CF"/>
<path d="M35.5 110C36.8879 110 38.0199 108.888 38.0446 107.5L39 54H32L32.9554 107.5C32.9801 108.888 34.1121 110 35.5 110Z" fill="#4E33CF"/>
<path d="M30.5 47C28.567 47 27 48.567 27 50.5C27 52.433 28.567 54 30.5 54H32H39H61H68H69.5C71.433 54 73 52.433 73 50.5C73 48.567 71.433 47 69.5 47H63H58H42H37H30.5Z" fill="#4E33CF"/>
<path d="M37 47H42V40H37V47Z" fill="#372B84"/>
<path d="M58 47H63V40H58V47Z" fill="#372B84"/>
<path fill-rule="evenodd" clip-rule="evenodd" d="M42 0C42 0 30 0 30 12C30 17.3961 32.4265 20.3658 35.0973 22H64.9027C67.5735 20.3658 70 17.3961 70 12C70 0 58 0 58 0H50H42ZM39.3093 13.3093C40.0336 13.3093 40.6186 12.7243 40.6186 12C40.6186 11.2757 40.0336 10.6907 39.3093 10.6907C38.585 10.6907 38 11.2757 38 12C38 12.7243 38.585 13.3093 39.3093 13.3093ZM60.6907 13.3093C61.415 13.3093 62 12.7243 62 12C62 11.2757 61.415 10.6907 60.6907 10.6907C59.9664 10.6907 59.3814 11.2757 59.3814 12C59.3814 12.7243 59.9664 13.3093 60.6907 13.3093Z" fill="#4E33CF"/>
<path d="M95 36C93 39 90 40 87 40H14C11 40 7.5 39 5.5 36M70 54H30" stroke="#22194D" stroke-linecap="round" stroke-linejoin="round"/>
</g>
<defs>
<clipPath id="clip0_922_20775">
<rect width="100" height="110" fill="white"/>
</clipPath>
</defs>
</svg>
