<svg width="44" height="48" viewBox="0 0 44 48" fill="none" xmlns="http://www.w3.org/2000/svg">
<g clip-path="url(#clip0_922_20774)">
<path d="M1.5 12V13C1.5 15.4853 3.51472 17.5 6 17.5H9H16H18.5H25.5H28H35H38C40.4853 17.5 42.5 15.4853 42.5 13V12H1.5Z" fill="#929AFF"/>
<path d="M35 17.5L35.2629 46.9043C35.2684 47.511 35.7617 48 36.3685 48C36.9714 48 37.4632 47.517 37.474 46.9141L38 17.5H35Z" fill="#929AFF"/>
<path d="M7.522 48C8.06471 48 8.50714 47.5648 8.51603 47.0221L9 17.5H6L6.528 47.0236C6.53769 47.5657 6.97987 48 7.522 48Z" fill="#929AFF"/>
<path d="M16 20.5091H18.5V17.5H16V20.5091Z" fill="#5B41EA"/>
<path d="M1.25001 9.50001C0.559648 9.5 0 10.0596 0 10.75C0 11.4404 0.559642 12 1.25 12H1.5H42.5H42.75C43.4403 12 44 11.4403 44 10.75C44 10.0596 43.4403 9.49997 42.75 9.49997H29L15 9.50011L1.25001 9.50001Z" fill="#929AFF"/>
<path d="M25.5 20.5H28V17.5H25.5V20.5Z" fill="#5B41EA"/>
<path d="M13.0015 20.503C12.1727 20.5014 11.5 21.1727 11.5 22.0015C11.5 22.8291 12.1709 23.5 12.9985 23.5H14H17H27H30H31.003C31.8298 23.5 32.5 22.8298 32.5 22.003C32.5 21.1775 31.8316 20.5077 31.0061 20.5061L28 20.5H25.5L18.5 20.5091H16L13.0015 20.503Z" fill="#5B41EA"/>
<path d="M27 23.5L27.4796 47.0002C27.4909 47.5557 27.9444 48 28.5 48C29.0556 48 29.5091 47.5557 29.5204 47.0002L30 23.5H27Z" fill="#5B41EA"/>
<path d="M15.5 48C16.0556 48 16.5091 47.5557 16.5204 47.0002L17 23.5H14L14.4796 47.0002C14.4909 47.5557 14.9444 48 15.5 48Z" fill="#5B41EA"/>
<path d="M18 0.000109144C18 0.000109144 13 9.53674e-07 13 5.23636C13 7.59105 13.8346 8.78698 15 9.50011L29 9.49997C30.1654 8.78685 31 7.59105 31 5.23636C31 1.43051e-06 26 0.000109144 26 0.000109144L22 0L18 0.000109144Z" fill="#5B41EA"/>
</g>
<defs>
<clipPath id="clip0_922_20774">
<rect width="44" height="48" fill="white"/>
</clipPath>
</defs>
</svg>
