<svg width="44" height="18" viewBox="0 0 44 18" fill="none" xmlns="http://www.w3.org/2000/svg">
<g clip-path="url(#clip0_929_9605)">
<path d="M1.25001 9.50001C0.559648 9.5 0 10.0596 0 10.75C0 11.4404 0.559642 12 1.25 12H1.5H42.5H42.75C43.4403 12 44 11.4403 44 10.75C44 10.0596 43.4403 9.49997 42.75 9.49997H29L15 9.50011L1.25001 9.50001Z" fill="#929AFF"/>
<path d="M18 0.000109144C18 0.000109144 13 9.53674e-07 13 5.23636C13 7.59105 13.8346 8.78698 15 9.50011L29 9.49997C30.1654 8.78685 31 7.59105 31 5.23636C31 1.43051e-06 26 0.000109144 26 0.000109144L22 0L18 0.000109144Z" fill="#5B41EA"/>
<path d="M1.5 12V13C1.5 15.4853 3.51472 17.5 6 17.5H38C40.4853 17.5 42.5 15.4853 42.5 13V12H1.5Z" fill="#929AFF"/>
</g>
<defs>
<clipPath id="clip0_929_9605">
<rect width="44" height="18" fill="white"/>
</clipPath>
</defs>
</svg>
