<?xml version="1.0" encoding="utf-8"?>
<svg viewBox="0 0 600 620" width="600px" height="620px" fill="none" xmlns="http://www.w3.org/2000/svg" xmlns:bx="https://boxy-svg.com">
  <defs>
    <linearGradient id="color-1" gradientUnits="userSpaceOnUse" bx:pinned="true">
      <title>Sem cor</title>
      <stop style="stop-color: rgb(237, 238, 242)"/>
    </linearGradient>
    <linearGradient id="color-0" gradientUnits="userSpaceOnUse" bx:pinned="true">
      <title>Selecionada</title>
      <stop style="stop-color: rgb(172, 109, 255)"/>
    </linearGradient>
  </defs>
  <path d="M230.86 71.8799C230.96 73.6799 230.88 75.5 230.81 77.26L230.74 79.07C230.65 82.0099 230.76 84.4299 231.59 86.6999C232.61 89.4899 234.7 91.87 236.73 94.16L237.91 95.5C241.87 100.03 245.97 104.71 251.05 107.3C254.57 109.1 258.57 110.21 262.43 111.28C265.24 112.05 268.15 112.86 270.91 113.93C271.51 114.16 272.64 114.6 273.17 115.77C273.81 117.15 273.12 118.52 272.83 119.1L270.75 123.27C267.76 129.29 264.66 135.51 261.36 141.52L243.08 177.53L242.33 179.34C241 182.49 239.49 186.05 239.15 189.11C238.6 193.99 238.99 198.01 240.23 200.48C244.48 203.91 246.55 209 248.53 213.93C250.44 218.68 252.23 223.18 255.82 226.08C259.89 229.38 265.49 230.02 271.85 230.46C286.66 231.51 301.61 232.64 316.55 233.77C331.09 234.87 345.62 235.97 360.03 237C362.21 232.27 364.79 228.05 367.78 224.36C368.2 223.84 368.63 223.33 369.06 222.81C370.78 220.77 372.4 218.84 373.31 216.54C374.12 214.47 374.05 212.6 373.96 210.43C373.92 209.39 373.88 208.33 373.93 207.22C373.98 206.1 373.92 204.88 373.85 203.59C373.67 200.03 373.46 195.99 375.71 192.74C376.98 190.91 378.81 189.4 381.15 188.25L381.81 187.93C382.43 187.64 383.01 187.37 383.46 187.03C384.11 186.54 384.66 185.77 385.2 184.97C387.49 181.59 388.83 178.36 390.38 174.62L390.61 174.07C390.91 173.34 389.89 172.09 389.51 171.83C389.47 171.8 389.34 171.71 389.3 171.68C389.23 171.63 389.15 171.59 389.06 171.54L388.7 171.33C386.82 170.02 386.52 168.76 386.64 167.89C386.64 167.83 386.66 167.78 386.67 167.73C386.7 167.55 386.75 167.39 386.8 167.25C386.82 167.21 386.85 167.17 386.87 167.13C387.08 166.75 388.89 163.62 392.05 160.45C395.32 157.18 404.03 147.45 408.59 139.87C411.16 135.59 413.5 130.94 415.74 125.68C416.96 122.8 417.87 119.75 418.76 116.79C419.47 114.39 420.21 111.92 421.12 109.5C422.14 106.79 423.02 104.59 423.84 102.65C420.3 98.51 413.59 97.94 409.88 97.65C409.2 97.6 408.63 97.5499 408.2 97.5C393.87 95.61 380.65 88.41 367.87 81.4599L365.05 79.93C364.33 79.54 363.55 78.86 362.65 78.07C361.91 77.4199 360.53 76.2199 360.01 76.0899C360 76.0899 359.98 76.0899 359.97 76.0899C359.12 76.2999 356.44 79.36 355.55 80.37C355.11 80.88 354.72 81.3099 354.42 81.6299C350.12 86.0999 346.49 91.13 343.63 96.57L343.47 96.8799C342 99.6799 340.34 102.84 337.02 104.06C332.76 105.62 328.33 102.86 326.02 99.6399C322.58 94.82 320.53 89.16 318.56 83.69C316.33 77.5 314.21 71.6399 310.25 66.8899C306.57 62.4699 302.13 59.91 296.28 58.8499C294.98 58.62 293.77 58.4 292.65 57.7599C291.22 56.9499 290.73 55.76 290.34 54.81L290.1 54.2599C289.54 53.0199 288.95 51.5399 288.73 49.8699C288.51 48.1699 286.17 45.4 284.55 44.93C281.52 44.05 277.65 46.16 275.04 48.43C274.06 49.28 273.98 49.73 273.99 49.89C274 50.06 274.13 50.37 274.26 50.66C274.5 51.22 274.8 51.92 274.8 52.77C274.8 54.79 273.14 56.48 270.56 57.09C267.5 57.81 263.83 57.5799 259.64 56.4199C255.48 55.2699 254.43 55.81 250.52 57.86L250.25 58C248.25 59.05 246.06 59.51 243.95 59.95C243.17 60.11 242.41 60.27 241.66 60.46C241.1 60.6 240.48 60.74 239.82 60.8899C236.14 61.7199 231.55 62.76 230.79 65.8C230.45 67.18 230.57 68.6999 230.71 70.3099C230.75 70.8299 230.8 71.35 230.83 71.86L230.86 71.8799Z" style="fill: url('#color-1');" transform="matrix(1, 0, 0, 1, 7.105427357601002e-15, 0)"/>
  <path d="M293.2 52.8601L293.48 53.5201C293.81 54.3101 293.94 54.6001 294.33 54.8201C294.95 55.1701 295.78 55.3201 296.66 55.4801C303.48 56.7201 308.71 59.7301 312.86 64.7301C317.2 69.9401 319.51 76.3501 321.75 82.5401C323.74 88.0401 325.61 93.2401 328.78 97.6801C330.42 99.9701 333.39 101.79 335.87 100.89C337.97 100.12 339.25 97.6801 340.49 95.3201L340.65 95.0101C343.65 89.2901 347.47 84.0001 351.99 79.3001C352.26 79.0201 352.61 78.6201 353.01 78.1601C355.21 75.6501 357.2 73.5301 359.08 72.9101C360.92 71.1001 364.9 66.4901 364.9 63.0701C364.9 58.9401 362.7 55.1401 359.02 52.9101C358.47 52.5801 357.9 52.2901 357.33 52.0001C356.51 51.5801 355.7 51.1601 354.93 50.6501C353.09 49.4301 351.71 47.5201 350.73 44.8201C349.59 41.6901 349.19 38.3801 348.82 35.1901C348.59 33.2201 348.37 31.3501 347.98 29.5301C347.29 26.2301 346.6 22.9901 345.1 20.3401C344.68 19.6401 342.99 17.7001 342.02 17.0601C338.99 21.1301 336.11 25.8401 332.99 31.8201C331.59 34.5001 330.26 37.2201 328.94 39.9401C328.58 40.6801 328.25 41.4501 327.9 42.2201C327.17 43.8701 326.42 45.5701 325.46 47.1101C325.09 47.7001 324.71 48.1901 324.3 48.6101C321.3 51.6201 315.87 51.2201 312.63 50.9801C309.22 50.7301 305.88 50.0001 302.64 49.3001L300.27 48.7901C296.23 48.0601 293.46 48.6901 292.02 49.2001C292.03 49.2801 292.07 49.3601 292.08 49.4301C292.24 50.6601 292.73 51.8601 293.18 52.8701L293.2 52.8601Z" style="fill: url('#color-1');" transform="matrix(1, 0, 0, 1, 7.105427357601002e-15, 0)"/>
  <path d="M418.85 127.01C416.55 132.42 414.15 137.2 411.49 141.63C406.72 149.55 397.95 159.35 394.44 162.85C393.71 163.58 393.06 164.31 392.49 165C392.97 165.02 393.44 165.06 393.9 165.13C394 165.14 394.09 165.17 394.19 165.2C397.9 166.44 400.66 167.86 402.61 169.54C407.09 174.31 406.44 179.98 405.1 185.43C404.15 189.26 403.19 193.15 401.92 196.92C402.11 197.24 402.31 197.59 402.52 197.96C404.35 201.13 408.67 208.62 411.73 208.29C412.14 208.25 412.61 208.11 413.11 207.95C413.47 207.84 413.84 207.72 414.2 207.63C416.91 206.99 418.26 208.17 418.82 208.93C420.52 211.22 419.47 215.47 418.22 217.61C417.5 218.85 416.58 219.88 415.69 220.88C415.05 221.6 414.45 222.27 413.95 222.99C412 225.79 412.9 226.66 415.32 228.97C415.93 229.55 416.56 230.16 417.16 230.83C418.8 232.65 419.58 234.88 420.33 237.03C420.52 237.57 420.71 238.1 420.9 238.61C422.3 237.18 424.38 235.48 427.03 233.45C427.35 233.2 427.63 232.99 427.85 232.82C427.68 232.18 427.21 230.8 425.98 227.95C425.92 227.82 425.88 227.68 425.86 227.54C424.63 219.64 427.92 211.86 435.64 204.42C436.71 203.39 437.92 202.66 439.09 201.95L439.88 201.46C440.81 200.88 441.69 200.18 442.63 199.43C443.1 199.06 443.57 198.69 444.04 198.33C446.98 196.12 450.89 193.26 455 190.69C455.29 190.51 455.59 190.31 455.89 190.11C457.34 189.15 458.98 188.06 460.88 187.92C461.69 187.86 462.52 187.92 463.35 187.97C463.73 187.99 464.11 188.02 464.48 188.03C466.42 188.08 470.97 188.2 472.6 186.48C472.93 186.13 473.35 185.52 473.24 184.17C473.2 183.7 473.11 183.36 472.97 183.13C472.76 182.79 472.45 182.49 472.1 182.14C471.52 181.57 470.8 180.86 470.36 179.78C469.63 177.99 469.48 175.87 469.94 173.79C470.32 172.07 470.99 170.58 471.65 169.13C472.4 167.47 473.11 165.91 473.28 164.17C473.28 164.07 473.3 163.98 473.33 163.89C474.15 160.89 474.1 158.25 473.16 155.59C472.77 154.46 472.8 153.05 472.83 151.8C472.83 151.39 472.85 151.01 472.84 150.67C472.8 149.17 472.84 147.21 473.59 145.35C474.9 142.08 478.6 137.78 482.29 136.56L482.85 136.39C483.11 136.32 483.36 136.25 483.6 136.13C484.15 135.81 484.92 134.15 485.43 133.05C485.8 132.26 486.14 131.51 486.52 130.93C486.58 130.83 486.65 130.74 486.71 130.64C486.51 130.56 486.31 130.48 486.12 130.4C484.48 129.72 482.84 129.05 481.17 128.44L480.34 128.15C479.51 127.87 478.64 127.58 477.79 127.09C477.4 126.87 477.02 126.62 476.64 126.37C476.2 126.08 475.76 125.78 475.29 125.56C473.68 124.79 472.24 124.18 470.87 123.68C468.43 122.79 466.42 122.28 464.55 122.08C462.24 121.83 460.27 122.26 457.96 122.76L457.22 122.92C450.78 124.3 446.96 117.34 445.71 115.05C444.47 112.78 443.5 110.38 442.64 108.26C442.56 108.07 442.48 107.82 442.39 107.54C442.35 107.42 442.29 107.24 442.23 107.06C441.79 107.31 441.26 107.63 440.91 107.84C440.03 108.38 439.51 108.69 439.06 108.86C438.27 109.15 437.32 109.43 436.3 109.26C434.33 108.95 433.3 107.45 432.47 106.24C432.09 105.68 431.73 105.16 431.38 104.89C430.39 104.14 428.94 103.82 426.95 103.94C426.14 105.84 425.28 108.02 424.26 110.7C423.39 113 422.67 115.42 421.97 117.76C421.06 120.81 420.12 123.96 418.83 127.01H418.85Z" style="fill: url('#color-1');" transform="matrix(1, 0, 0, 1, 7.105427357601002e-15, 0)"/>
  <path d="M123.82 230.12C124.71 230.12 125.67 230.26 126.69 230.4C128.85 230.7 131.28 231.04 132.32 229.94C132.77 229.46 133.17 228.99 133.55 228.53C134.77 227.07 136.03 225.55 138.46 224.65C140.54 223.88 142.75 223.66 144.44 223.57C145.43 223.51 146.16 223.47 146.7 223.22C147.42 222.9 148.04 222.13 148.67 220.79C149.51 219.01 150.47 217.32 151.4 215.68L152.42 213.87C153.32 212.25 154.44 210.24 156.32 208.92C158.45 207.44 163.62 206.2 166.4 207.55C171.47 210 175.41 214.22 179.22 218.31C180.07 219.22 180.91 220.12 181.75 220.99C185.18 220.65 193 220.66 194.71 220.72C194.79 220.72 194.86 220.76 194.93 220.77C195.53 220.72 196.1 220.69 196.61 220.68L234.25 219.8C234.26 213.64 235.22 207.55 237.05 201.65C235.26 197.78 235.35 192.55 235.78 188.74C236.18 185.2 237.79 181.39 239.2 178.04L240 176.14L258.36 139.96C261.65 133.96 264.73 127.77 267.71 121.78L269.79 117.6C269.88 117.43 269.93 117.31 269.97 117.21C269.89 117.18 269.79 117.13 269.67 117.09C267.06 116.08 264.23 115.3 261.5 114.54C257.47 113.42 253.3 112.27 249.48 110.31C243.83 107.42 239.32 102.27 235.34 97.72L234.17 96.39C232.04 93.97 229.62 91.24 228.39 87.84C227.7 85.93 227.45 83.97 227.36 82.04C226.05 82 224.5 81.95 222.93 81.89C220.73 81.81 218.54 81.73 217.06 81.7C215.83 81.68 214.57 81.65 213.6 82.09C211.98 82.83 211.21 84.86 210.89 86.01C210.66 86.86 210.5 87.73 210.34 88.59C210.12 89.82 209.89 91.09 209.45 92.35C209.18 93.13 208.76 94.12 207.81 94.79C206.88 95.45 205.83 95.54 205.02 95.54C203.52 95.54 202.07 95.28 200.66 95.04C198.61 94.67 196.67 94.34 194.96 94.87C192.92 95.51 191.36 97.61 191.33 99.75C191.33 100.27 191.39 100.8 191.45 101.32C191.57 102.37 191.71 103.56 191.41 104.8C190.89 106.99 189.6 107.77 188.62 108.05C188.28 108.14 187.93 108.19 187.57 108.19C184.33 108.19 180.15 104.68 177.07 101.56C176.09 100.57 175.14 99.45 174.77 97.97C174.27 95.99 174.98 94.21 175.6 92.63C175.8 92.12 176.01 91.6 176.16 91.09C177.16 87.71 175.68 83.93 174.25 80.28L173.83 79.2C171.57 73.31 170.05 67.14 169.31 60.87L169.27 60.53C169.04 58.6 168.83 56.78 167.86 55.52C166.72 54.05 164.65 53.45 162.45 52.83C161.97 52.69 161.5 52.56 161.04 52.41C156.98 51.35 152.58 54.81 149.19 57.93C147.73 59.27 146.36 60.8 145.02 62.28C143.03 64.49 140.97 66.77 138.49 68.64C131.76 73.73 122.43 75.01 114.73 71.91C107.16 68.86 103.72 62.07 100.4 55.5C99.93 54.58 99.47 53.66 98.99 52.75C98.97 52.71 98.94 52.65 98.9 52.58C98.83 52.58 98.75 52.6 98.71 52.6C89.46 53.69 80.24 55.55 71.3 58.12C69.52 58.63 67.94 59.13 66.64 60.02C65.35 60.9 64.53 62.13 64.45 63.31C64.31 65.31 66.15 67.13 67.27 68.03C67.6 68.3 68.68 68.76 69.62 69.17C72.37 70.35 75.8 71.83 76.73 74.45C77.13 75.57 77.02 76.77 76.41 77.93C74.39 81.77 70.01 80.05 66.82 78.81C65.59 78.33 63.31 77.45 62.79 77.73C61.51 78.44 60.75 79.32 60.48 80.39C59.73 83.34 62.44 87.63 64.41 90.76C64.85 91.45 65.26 92.1 65.6 92.68C70.11 100.37 70.91 110.3 68.05 123.06C67.36 126.14 66.52 129.22 65.71 132.2C63.96 138.65 62.15 145.33 61.84 152.01C61.8 152.91 61.06 153.62 60.15 153.62H60.13C47.55 153.48 36.41 153.88 27.87 160.13C20.87 165.24 16.36 174.63 11.99 183.72C9.75001 188.37 7.45001 193.13 4.82001 197.3C5.66001 197.39 6.41001 197.56 6.95001 197.68C45.21 206.65 78.38 219.04 108.3 235.51C109.25 233.8 111.1 232.47 112.18 231.91C115.72 230.08 120.17 230.11 123.77 230.12H123.82Z" style="fill: url('#color-1');" transform="matrix(1, 0, 0, 1, 7.105427357601002e-15, 0)"/>
  <path d="M161.62 49.12C161.72 49.14 161.82 49.14 161.92 49.16C161.95 49.16 161.97 49.19 162 49.2C162.46 49.33 162.93 49.47 163.41 49.6C165.91 50.32 168.75 51.13 170.57 53.48C172.12 55.48 172.41 57.97 172.67 60.17L172.71 60.51C173.41 66.5 174.86 72.39 177.03 78.02L177.44 79.08C179 83.06 180.76 87.58 179.44 92.07C179.26 92.68 179.02 93.29 178.78 93.89C178.28 95.15 177.85 96.24 178.08 97.16C178.24 97.82 178.77 98.45 179.51 99.2C183.48 103.22 186.7 105.1 187.74 104.81C187.97 104.75 188.12 104.15 188.15 104.03C188.31 103.38 188.22 102.57 188.12 101.72C188.04 101.06 187.97 100.39 187.98 99.72C188.03 96.13 190.55 92.74 193.98 91.66C196.48 90.88 198.91 91.31 201.28 91.72C202.6 91.95 203.85 92.17 205.05 92.17C205.65 92.17 205.84 92.09 205.89 92.05C205.94 92.02 206.08 91.86 206.28 91.27C206.63 90.24 206.83 89.15 207.04 87.99C207.22 87.02 207.39 86.06 207.65 85.12C208.46 82.15 210.09 79.98 212.22 79.02C213.88 78.26 215.69 78.29 217.14 78.33C218.63 78.36 220.85 78.44 223.06 78.52C224.58 78.57 226.07 78.63 227.36 78.67L227.42 77.1C227.49 75.35 227.56 73.69 227.47 72.05C227.45 71.56 227.4 71.08 227.36 70.59C227.26 69.44 227.18 68.25 227.25 67.05C226.15 65.3 223.96 63.71 221.8 62.18C220.56 61.3 219.38 60.47 218.38 59.58C212.99 54.81 210.25 47.9 211.22 41.56C211.67 38.68 212.82 36.05 213.94 33.5C214.99 31.12 215.98 28.88 216.38 26.5C216.95 23.17 213.48 20.53 210.42 18.2C209.3 17.35 208.25 16.55 207.46 15.76C204.57 12.87 207.27 10.06 208.57 8.70996C208.93 8.33996 209.44 7.80996 209.63 7.49996C209.05 6.13996 207.67 5.09996 206.19 4.94996C204.01 4.70996 202.01 6.20996 201.02 7.12996C200 8.06996 199.11 9.16996 198.18 10.33C197.6 11.05 197.02 11.77 196.41 12.45C192.62 16.7 187.47 19.74 181.92 21.01C181.24 21.17 180.54 21.3 179.85 21.43C178.5 21.68 177.23 21.92 176.05 22.35C174.26 23 172.97 24.1 172.51 25.34C172.4 25.63 172.31 25.95 172.23 26.26C171.88 27.5 171.41 29.19 169.72 29.96C167.29 31.05 165.18 29.13 163.92 27.98C158.9 23.41 151.47 22.59 143.6 22.18C146.39 25.3 149.43 28.99 150.93 33.51C151.38 34.85 151.68 36.21 151.96 37.54C152.41 39.59 152.83 41.52 153.75 43.18C155.16 45.74 157.95 47.81 161.59 49.03V49.09L161.62 49.12Z" style="fill: url('#color-1');" transform="matrix(1, 0, 0, 1, 7.105427357601002e-15, 0)"/>
  <path d="M399.21 329.35H399.09C397.73 329.39 396.7 330.1 396.04 331.47C394.48 334.73 396.23 337.63 398.52 338.94C400.39 340.01 403.22 340.32 405.03 337.64C406.2 335.91 405.72 334.23 405.12 333.13C403.94 330.99 401.37 329.35 399.21 329.35Z" fill="#EDEEF2" transform="matrix(1, 0, 0, 1, 7.105427357601002e-15, 0)"/>
  <path d="M2.21997 201.07C1.61997 201.6 1.51997 202.7 1.68997 203.55C1.86997 204.47 2.30997 205.39 2.77997 206.37L3.19997 207.27C4.40997 209.93 5.13997 212.74 5.84997 215.45C6.18997 216.73 6.51997 218.02 6.90997 219.29C8.31997 223.92 10.13 226.97 12.6 228.89C14.34 230.24 16.46 231.06 18.71 231.92C20.27 232.52 21.88 233.14 23.42 233.97C24.74 234.68 25.97 235.53 27.15 236.35C29.2 237.77 31.14 239.11 33.32 239.63C37.32 240.57 41.81 238.84 47.45 234.15C47.88 233.79 48.74 233.07 49.89 233.07C49.99 233.07 50.1 233.07 50.21 233.09C51.58 233.25 52.6 234.34 53.01 236.08C53.71 239.06 53.36 242.03 53.01 244.91C52.63 248.03 52.4 250.6 53.11 252.94C55.57 261.19 69.01 258.09 76.23 256.43L76.79 256.3C86.64 254.04 96.03 249.65 103.96 243.59C106.73 241.31 107.54 239.73 107.77 239.01C77.85 222.42 44.63 209.97 6.22997 200.97C4.71997 200.62 3.04997 200.35 2.22997 201.08L2.21997 201.07Z" style="fill: url('#color-1');" transform="matrix(1, 0, 0, 1, 7.105427357601002e-15, 0)"/>
  <path d="M208.21 287.15C209.88 285.67 211.45 284.28 212.08 282.47C212.84 280.29 212.11 277.82 211.34 275.2C210.6 272.68 209.84 270.08 210.22 267.34C210.31 266.74 210.45 266.12 210.59 265.49C210.97 263.82 211.18 262.68 210.66 262.01C210.18 261.39 209 261.18 207.83 261.02L189.23 258.51C188.53 258.42 187.96 257.89 187.81 257.2C185.81 248.02 185.61 238.28 187.22 229.02C187.51 227.35 187.95 225.56 188.88 224.07C185.8 224.11 182.56 224.22 181.41 224.42C180.87 224.52 180.31 224.34 179.92 223.95C178.86 222.88 177.8 221.75 176.74 220.6C173.15 216.75 169.43 212.76 164.93 210.58C163.52 209.9 159.69 210.67 158.25 211.68C157.01 212.55 156.18 214.05 155.37 215.5L154.33 217.34C153.39 219 152.5 220.56 151.71 222.22C151.09 223.54 150.03 225.4 148.08 226.28C146.97 226.78 145.83 226.85 144.83 226.91C143.08 227.01 141.28 227.19 139.62 227.8C138.03 228.39 137.23 229.35 136.12 230.68C135.69 231.19 135.25 231.72 134.74 232.25C132.51 234.6 129.01 234.11 126.2 233.73C124.8 233.53 123.73 233.48 122.64 233.48C119.65 233.48 116.23 233.61 113.75 234.89C112.49 235.54 111.18 236.86 111.1 237.56C111.1 237.62 111.08 237.7 111.32 237.9C111.49 238.04 111.71 238.26 111.99 238.52C113.24 239.71 115.57 241.92 118.22 242.54C120.98 243.18 127.48 242.42 129.75 242.06C130.24 241.98 130.74 242.13 131.11 242.45C131.48 242.77 131.7 243.24 131.7 243.74C131.56 261.18 134.27 273.57 138.93 276.89C140.41 277.94 142.14 278.09 144.2 277.36C151.84 274.62 163.02 280.79 174.84 287.33C184.02 292.4 193.47 297.58 201.67 298.99C202.02 295.82 202.97 292.84 205.03 290.28C205.98 289.1 207.1 288.1 208.19 287.14L208.21 287.15Z" style="fill: url('#color-0');" transform="matrix(1, 0, 0, 1, 7.105427357601002e-15, 0)"/>
  <path d="M485.23 139.1C484.73 139.36 484.27 139.5 483.8 139.64L483.37 139.77C480.8 140.62 477.75 144.08 476.74 146.61C476.23 147.89 476.2 149.33 476.23 150.57C476.24 150.95 476.23 151.41 476.23 151.88C476.21 152.74 476.18 153.92 476.37 154.47C477.52 157.77 477.61 161 476.64 164.63C476.4 166.86 475.56 168.72 474.74 170.52C474.13 171.87 473.55 173.14 473.25 174.52C472.94 175.93 473.03 177.35 473.5 178.5C473.68 178.93 474.03 179.28 474.48 179.72C474.93 180.16 475.45 180.66 475.87 181.36C476.29 182.05 476.54 182.87 476.63 183.88C476.8 185.88 476.28 187.53 475.09 188.8C472.75 191.28 468.57 191.52 464.42 191.41C464.01 191.41 463.59 191.37 463.17 191.35C462.5 191.31 461.81 191.26 461.15 191.3C460.14 191.37 458.94 192.17 457.79 192.94C457.46 193.16 457.14 193.38 456.82 193.57C452.81 196.07 448.98 198.88 446.09 201.05C445.64 201.39 445.19 201.74 444.75 202.09C443.78 202.86 442.78 203.65 441.69 204.33L440.85 204.84C439.79 205.48 438.79 206.09 437.99 206.86C431.18 213.42 428.21 220.14 429.17 226.82C431.61 232.48 431.53 233.46 431.12 234.3C431.02 234.51 430.86 234.71 430.66 234.88C430.43 235.11 430.03 235.41 429.09 236.14C427.71 237.2 423.84 240.18 422.59 241.78C422.68 241.89 422.75 242.02 422.85 242.13C423.43 242.77 424.84 244.11 426.15 245.35C426.59 245.77 427.02 246.18 427.4 246.55C427.5 246.45 427.59 246.34 427.69 246.24C428.24 245.68 429.06 244.83 430.26 244.51C432.5 243.91 434.54 245.4 435.57 247.14C435.99 247.84 436.27 248.55 436.55 249.24C436.79 249.85 437.03 250.43 437.32 250.91C439.61 254.65 445.87 253.52 449.52 251.84C453.24 250.13 457.9 247.1 459.01 242.37C459.27 241.26 459.32 240.07 459.38 238.81C459.43 237.63 459.49 236.42 459.72 235.18C460.24 232.45 462.07 229.08 465.53 228.59C468.17 228.21 470.21 229.68 472.01 230.97C473.18 231.8 474.28 232.59 475.41 232.83C477.23 233.22 479.27 232.2 481.37 231.02L492.27 224.89C495.87 222.61 498.92 219.75 502.09 216.71C502.79 216.04 503.5 215.36 504.22 214.68C505.82 213.18 506.85 211.5 506.98 210.19C507.02 209.8 506.92 209.28 506.82 208.72C506.71 208.15 506.61 207.57 506.59 207.01C506.54 205.54 506.71 204.08 507.1 202.68C507.31 201.91 507.6 201.16 507.89 200.42C507.92 200.35 507.94 200.28 507.96 200.21L508.14 199.75C509.17 197.03 509.88 194.6 510.32 192.32C510.32 192.3 510.32 192.28 510.32 192.27L510.01 192.2C505.57 191.08 504.96 185.62 504.6 182.35L504.52 181.66C504.4 180.68 504.29 179.69 504.19 178.71C503.98 176.79 503.77 174.86 503.49 172.94C503.38 172.19 503.32 171.39 503.27 170.57C503.17 169.01 503.06 167.39 502.47 166.27L501.7 164.83C500.16 162 498.7 159.32 498.6 155.34C498.54 153.17 498.29 150.93 498.04 148.77L497.97 148.15C497.9 147.51 497.85 146.84 497.81 146.16C497.71 144.65 497.61 143.09 497.14 141.88C495.59 137.85 495.12 135.03 495.64 132.76C495.64 132.32 494.8 130.49 494.16 129.65C493.66 128.99 493.41 129.05 493.18 129.12C491.65 129.53 490.37 131.22 489.32 132.82C489.05 133.24 488.77 133.85 488.47 134.5C487.66 136.25 486.74 138.23 485.19 139.12L485.23 139.1Z" style="fill: url('#color-1');" transform="matrix(1, 0, 0, 1, 7.105427357601002e-15, 0)"/>
  <path d="M501.2 145.92C501.24 146.54 501.28 147.16 501.34 147.74L501.41 148.35C501.66 150.58 501.92 152.89 501.98 155.22C502.06 158.38 503.21 160.5 504.67 163.18L505.47 164.66C506.4 166.42 506.53 168.49 506.65 170.31C506.7 171.03 506.74 171.74 506.84 172.41C507.13 174.37 507.35 176.34 507.56 178.3C507.67 179.27 507.77 180.25 507.89 181.22L507.97 181.94C508.25 184.49 508.68 188.34 510.86 188.89C511.62 189.05 512.41 189.22 513.04 189.91C514.01 190.99 513.74 192.39 513.64 192.92C513.29 194.77 512.71 196.76 512 198.84C515.06 198.44 518.99 197.94 520.97 197.89C522.17 197.85 523.45 197.86 524.72 198.28C526.79 198.97 528.27 200.57 529.57 201.99C530.9 203.43 532.04 204.68 533.44 204.73C533.93 204.7 534.55 204.51 535.2 204.28C536.35 203.32 537.81 201.76 538.31 200.86C538.52 200.48 538.71 199.35 538.79 198.4C538.45 197.6 537.73 195.83 537.51 194.62C537.18 192.78 537.24 190.78 537.67 188.66C538.06 186.77 538.74 184.97 539.52 183.25C539.56 183.15 539.59 183.03 539.65 182.94C540.63 180.84 541.79 178.88 542.92 177.12L551.88 163.14C552.52 162.14 553.92 160.93 555.98 159.21C556.5 158.77 557.18 158.21 557.71 157.74C556.64 156.91 554.8 155.5 553 154.12C548.62 150.76 543.17 146.57 540.01 143.83C535.02 139.52 529.14 134.68 522.41 131.77C515.32 128.71 508.19 128.28 502.35 130.56C500.61 131.24 499.54 132.07 499.17 133.01C499.12 133.14 499.03 133.25 498.95 133.36C498.95 133.4 498.95 133.44 498.95 133.48C498.59 135.04 499.03 137.31 500.31 140.63C500.96 142.33 501.08 144.15 501.2 145.91V145.92Z" style="fill: url('#color-1');" transform="matrix(1, 0, 0, 1, 7.105427357601002e-15, 0)"/>
  <path d="M512.05 346.87C512.64 346.12 513.31 345.4 513.97 344.67C515.63 342.88 517.19 341.19 517.21 339.25C517.23 337.86 516.86 336.82 516.08 336.07C513.79 333.87 508.14 334.15 504.39 334.32C503.24 334.38 502.18 334.42 501.33 334.42C500.21 334.41 498.77 334.26 497.69 333.26C496.9 332.53 496.58 331.61 496.32 330.87L496.14 330.38C495.54 328.87 494.07 327.5 492 326.54C490.69 325.93 489.28 325.5 487.78 325.05C487.01 324.82 486.24 324.59 485.48 324.33C483.44 323.64 481.41 322.75 479.45 321.89C474.54 319.74 469.9 317.72 465.18 318.62L464.81 318.7C463.64 318.94 462.18 319.24 460.76 318.49C458.92 317.52 458.58 315.64 458.33 314.27C458.2 313.52 458.07 312.82 457.77 312.46C456.87 311.36 455.05 310.71 453.36 310.92C450.74 311.22 448.3 312.95 446.15 314.48C444.88 315.38 443.5 316.5 442.04 317.68C437.93 321.02 433.27 324.8 428.46 325.75C426.15 326.2 424.85 325.51 424.14 324.85C423.2 323.97 422.86 322.57 422.53 321.23C422.42 320.77 422.3 320.3 422.16 319.88C422.06 319.59 421.98 319.41 421.92 319.3C421.72 319.37 421.33 319.57 420.7 320.08C420.24 320.45 419.82 320.93 419.37 321.45C418.75 322.16 418.06 322.96 417.15 323.58C416.7 323.89 416.2 324.15 415.7 324.4C415.05 324.72 414.49 325 414.21 325.38C413.69 326.06 413.93 327.15 414.38 328.86C414.84 330.61 415.37 332.59 414.57 334.53C413.7 336.63 411.79 337.57 410.1 338.39C409.35 338.76 408.64 339.1 408.08 339.52C406.36 340.79 405.67 343.41 406.54 345.37C406.82 346 407.25 346.68 407.7 347.4C409.02 349.49 410.66 352.09 408.95 354.73C408.47 355.46 407.85 355.94 407.3 356.37C406.92 356.67 406.55 356.95 406.4 357.21C406.07 357.79 406.47 358.89 406.86 359.95C406.97 360.25 407.08 360.55 407.17 360.84C408.17 363.87 407.77 367.34 406.09 370.37C404.4 373.4 401.66 375.57 398.56 376.31C395.91 376.95 393.29 376.65 390.76 376.36C389.73 376.24 388.69 376.12 387.65 376.08C382.61 375.84 377.56 377.36 372.69 378.82C367.32 380.43 361.78 382.1 357.42 385.57C354.43 387.95 351.35 394.51 351.52 398.09C351.54 398.4 351.58 398.66 351.65 398.88C352.34 398.64 353.03 398.39 353.71 398.14C358.39 396.38 363.23 394.55 369.26 397.09C371.16 397.83 372.92 398.91 374.62 399.95C376.85 401.32 378.96 402.61 381.28 403.08C384.85 403.8 388.47 402.57 392.3 401.25C395.41 400.18 398.62 399.07 402.02 398.98C403.1 398.94 404.72 399.01 406.11 399.91C408.11 401.22 408.68 403.66 409.02 405.12L411.65 416.26C412.07 418.05 412.54 419.72 413.65 420.52C413.93 420.73 414.25 420.88 414.56 421.04C414.95 421.24 415.34 421.44 415.7 421.68C419.86 424.42 419.41 430.52 419.26 432.52C419.04 435.4 418.78 438.99 420.71 440.86C422.27 442.37 424.94 442.35 426.9 441.84C428.36 441.46 429.75 440.83 431.24 440.17C432.29 439.7 433.35 439.22 434.44 438.83C437.63 437.68 441.02 437.24 444.37 437.52C447.24 434.93 454.53 432.79 466.2 431.16C467.03 431.03 467.88 430.93 468.74 430.82C471.76 430.45 474.62 430.1 477.16 428.67C479.68 427.26 481.66 424.96 482.74 422.22C483.18 421.1 483.76 420.04 484.31 419.03C484.63 418.45 484.94 417.88 485.23 417.29C486.15 415.39 486.83 413.8 487.37 412.27L488.95 407.64C489.45 405.73 490.77 403.82 492.93 401.93C493.55 401.39 494.21 400.87 494.86 400.36C495.83 399.59 496.75 398.86 497.56 398.05C498.87 396.72 500.02 395.03 501.28 392.57C501.79 391.57 502.34 390.42 502.41 389.31C502.49 388 501.91 386.64 500.59 385.03C500.23 384.6 499.83 384.11 499.59 383.44C499.2 382.36 499.41 381.21 500.14 380.46C500.69 379.89 501.35 379.72 501.78 379.61C501.87 379.59 501.96 379.57 502.04 379.53C502.04 379.46 502.06 378.98 501.86 378.58C501.68 378.21 501.45 377.87 501.22 377.53C500.76 376.84 500.23 376.05 499.97 375.06C499.27 372.39 500.86 369.85 502.75 368.52C503.19 368.21 503.65 367.95 504.13 367.72C506.16 366.8 509.21 365.4 508.85 358.61C508.48 351.63 509.21 350.37 511.35 347.74L512.04 346.89L512.05 346.87Z" fill="#EDEEF2" transform="matrix(1, 0, 0, 1, 7.105427357601002e-15, 0)"/>
  <path d="M554.75 164.97L545.79 178.95C544.98 180.21 544.2 181.53 543.48 182.89C543.59 182.93 543.68 182.96 543.79 183C544.81 183.36 546.59 184.04 547.26 184.02C547.43 183.99 547.77 183.76 548.1 183.55C551.92 181.07 556.01 179.11 560.3 177.71C560.74 177.57 561.54 177.31 562.44 177.58C563.77 177.99 564.58 179.36 564.45 180.99C564.3 183.04 563.06 184.52 561.97 185.83C561.34 186.59 560.75 187.31 560.42 188.04C560.25 188.44 560.22 188.71 560.26 188.83C560.37 189.19 561.43 189.42 562.58 189.18L563.22 189.04C564.85 188.67 566.88 188.21 568.69 189.35C569.13 189.63 569.56 190.01 569.97 190.41C570.14 190.56 570.36 190.77 570.54 190.92C570.58 190.83 570.63 190.71 570.68 190.54C571.12 189.19 571.34 187.81 571.35 186.41C571.35 185.05 571.35 183.47 572.52 182.3C573.49 181.33 575.04 180.98 576.55 181.38C577.42 181.61 578.15 182.03 578.8 182.4L579.23 182.64C583.61 185.02 589.11 184.88 592.87 184.56C593.28 184.53 593.7 184.49 594.13 184.48C594.57 184.47 595.14 184.49 595.74 184.62C595.32 179.69 592.85 173.41 589.78 170.19C587.52 167.81 584.22 166.09 579.7 164.91C577.97 164.46 575.6 163.67 573.1 162.83C569.04 161.47 564.1 159.82 560.9 159.35C560.28 160.03 559.36 160.81 558.15 161.82C556.88 162.88 555.14 164.34 554.73 164.98L554.75 164.97Z" style="fill: url('#color-1');" transform="matrix(1, 0, 0, 1, 7.105427357601002e-15, 0)"/>
  <path d="M425.13 249.01C424.74 248.63 424.29 248.21 423.83 247.77C422.44 246.45 421 245.08 420.37 244.39C418.7 242.56 417.91 240.31 417.15 238.14C416.48 236.22 415.85 234.41 414.66 233.09C414.12 232.48 413.54 231.94 412.99 231.42C410.58 229.11 407.58 226.24 411.18 221.07C411.8 220.18 412.5 219.4 413.18 218.64C413.99 217.73 414.76 216.87 415.31 215.93C416.23 214.34 416.66 211.7 416.12 210.96C415.98 210.77 415.44 210.82 414.99 210.93C414.7 211 414.41 211.09 414.12 211.18C413.5 211.37 412.81 211.59 412.03 211.66C406.82 212.12 402.46 204.62 399.59 199.65C399.22 199.01 398.9 198.45 398.62 198C398.36 197.57 398.3 197.04 398.47 196.56C399.82 192.71 400.83 188.64 401.8 184.7C403.14 179.26 403.34 175.27 400.27 171.98C398.83 170.76 396.43 169.53 393.25 168.46C392 168.29 391.07 168.36 390.48 168.48C390.51 168.5 390.53 168.52 390.56 168.54C390.9 168.73 391.13 168.87 391.32 169.01C392.6 169.82 394.89 172.58 393.72 175.39L393.49 175.94C391.87 179.85 390.47 183.22 387.98 186.89C387.3 187.9 386.54 188.95 385.48 189.75C384.74 190.31 383.93 190.69 383.22 191.02L382.62 191.31C380.83 192.19 379.39 193.36 378.47 194.69C376.88 196.99 377.05 200.27 377.21 203.44C377.28 204.75 377.35 206.11 377.29 207.39C377.25 208.41 377.29 209.38 377.32 210.33C377.41 212.66 377.51 215.08 376.43 217.8C375.32 220.61 373.44 222.85 371.62 225.01C371.2 225.51 370.78 226 370.37 226.51C364.72 233.5 360.55 242.58 358 253.5C356.78 258.73 356.36 263.66 356.11 267.8C356.04 268.92 355.86 270.26 355.67 271.69C355.26 274.67 354.76 278.39 355.43 280.51C355.8 281.65 356.68 282.63 357.9 282.48C358.83 281.43 360 280.6 361.53 280.35C365.82 279.62 368.46 283.58 370.38 286.46C370.86 287.18 371.3 287.85 371.74 288.39C373.05 290 373.72 290.06 373.96 290C374.48 289.88 374.97 288.94 375.44 288.03C376.19 286.58 377.23 284.6 379.5 284.37C382.13 284.11 383.52 286.33 384.53 287.96C384.77 288.35 385.01 288.73 385.26 289.07C387.16 291.66 391.24 291.71 392.9 291.63C396.72 291.41 400.41 290.28 404.32 289.07C409.11 287.59 414.06 286.07 419.27 286.4C419.89 286.44 420.47 286.51 421 286.61C420.15 283.23 419.72 280.03 419.72 277.08C419.72 276.14 419.85 275.14 419.98 274.18C420.23 272.3 420.49 270.36 419.71 269.08C419.43 268.61 418.96 268.15 418.47 267.67C417.68 266.89 416.79 266.01 416.31 264.75C415.04 261.45 417.53 258.16 418.46 256.92C420.52 254.18 422.76 251.57 425.07 249.04L425.13 249.01Z" style="fill: url('#color-1');" transform="matrix(1, 0, 0, 1, 7.105427357601002e-15, 0)"/>
  <path d="M422.99 294.84C424.04 291.9 423.02 291.12 422.59 290.78C422.27 290.53 421.89 290.33 421.44 290.17C420.8 289.95 420.04 289.81 419.1 289.75C414.53 289.46 410.07 290.82 405.36 292.28C401.43 293.49 397.37 294.75 393.14 294.98C390.38 295.11 385.35 294.83 382.58 291.05C382.28 290.65 382 290.19 381.71 289.73C381.11 288.76 380.33 287.63 379.89 287.72C379.43 287.77 378.95 288.69 378.48 289.58C377.74 291.01 376.81 292.79 374.78 293.27C371.95 293.94 369.85 291.35 369.16 290.5C368.66 289.89 368.15 289.13 367.61 288.32C365.71 285.48 364.13 283.31 362.11 283.67C360.86 283.87 359.78 285.17 358.69 287.76C356.24 293.6 354.36 299.72 353.13 305.94C352.89 307.14 352.75 308.39 352.6 309.64C352.09 313.95 351.5 318.84 347.16 321.95C346.13 322.69 345.01 323.2 343.93 323.7C342.49 324.36 341.14 324.98 340.33 326.01C339.74 326.77 339.4 327.81 339.05 328.9C338.84 329.53 338.64 330.16 338.39 330.76C336.83 334.51 333.67 337.09 330.89 339.37L330.2 339.93C327.35 342.28 325.45 344.63 322.95 348.15C320.3 351.87 317.28 356.78 317.36 361.79C317.39 363.84 318 365.77 319.05 367.24C319.37 367.68 319.82 368.13 320.3 368.6C321.48 369.75 322.94 371.19 323.07 373.44C323.12 374.26 322.96 375.02 322.82 375.69C322.69 376.34 322.56 376.95 322.7 377.26C322.88 377.64 323.71 378 324.2 378.2C330.19 380.75 336.19 383.29 342.19 385.83C346.22 387.65 353.15 384.25 355.48 382.79C360.32 378.99 366.38 377.16 371.73 375.56C376.63 374.09 382.18 372.41 387.82 372.68C388.93 372.73 390.04 372.86 391.15 372.98C393.5 373.24 395.71 373.49 397.78 373C399.96 372.47 401.92 370.9 403.15 368.7C404.38 366.5 404.68 364 403.98 361.87C403.89 361.61 403.8 361.34 403.7 361.08C403.11 359.46 402.38 357.45 403.48 355.51C403.96 354.66 404.67 354.11 405.25 353.67C405.62 353.39 405.97 353.12 406.13 352.86C406.63 352.09 405.98 350.96 404.86 349.17C404.36 348.39 403.85 347.57 403.47 346.72C402.93 345.51 402.73 344.21 402.82 342.92C402.32 343.02 401.81 343.11 401.28 343.11C399.82 343.11 398.3 342.71 396.85 341.88C393.13 339.75 390.62 334.99 393.01 330.01C394.22 327.48 396.35 326.05 399.01 325.98C399.08 325.98 399.14 325.98 399.21 325.98C402.6 325.98 406.31 328.28 408.08 331.52C408.72 332.69 409.05 333.91 409.1 335.11C410.2 334.56 411.12 334.04 411.45 333.23C411.82 332.34 411.47 331.07 411.12 329.72C410.61 327.78 409.96 325.37 411.53 323.32C412.29 322.33 413.3 321.82 414.19 321.38C414.55 321.2 414.92 321.02 415.25 320.79C415.8 320.41 416.3 319.84 416.83 319.24C417.35 318.64 417.89 318.01 418.58 317.46C419.64 316.59 421.27 315.52 422.93 316C423.6 316.19 424.05 316.61 424.42 317.05C425.34 316.43 425.94 315.73 426.22 314.93C426.99 312.7 425.39 309.62 424.11 307.14C423.84 306.62 423.58 306.11 423.35 305.64L422.98 304.91C422.39 303.75 421.71 302.43 421.57 300.89C421.39 299.01 422.05 297.31 422.62 295.8L422.98 294.85L422.99 294.84Z" fill="#EDEEF2" transform="matrix(1, 0, 0, 1, 7.105427357601002e-15, 0)"/>
  <path d="M588.07 225.27C585.07 225.43 581.81 226.38 578.11 228.17C577.6 228.42 577.08 228.68 576.57 228.94C573.57 230.46 570.47 232.02 566.98 232.02C566.76 232.02 566.54 232.02 566.32 232C563.91 231.86 561.77 230.96 559.69 230.09L558.51 229.6C556.86 228.94 554.7 228.17 552.54 228.17H552.52C550.84 228.17 547.88 228.93 546.17 229.79C547.44 231.37 548.6 233.01 549.65 234.65C550.69 234.66 552.42 234.95 555.47 235.92C555.73 236.02 559.66 237.54 561.65 238.6C563.38 239.52 565.14 240.69 567.18 242.3L568.28 243.18L568.49 243.34C569.46 244.11 570.42 244.89 571.43 245.61C571.87 245.92 572.45 246.39 572.96 246.97C578.26 240.68 587.57 230.29 588.02 229.79C589.33 228.17 590.47 226.27 590.89 225.11C590.26 225.17 589.64 225.2 589.05 225.22L588.09 225.26L588.07 225.27Z" style="fill: url('#color-1');" transform="matrix(1, 0, 0, 1, 7.105427357601002e-15, 0)"/>
  <path d="M519.07 372.85C518.64 372.58 518.21 372.31 517.82 372.04C516.54 371.14 515.54 370.51 514.57 369.99C514.2 369.79 513.83 369.61 513.44 369.43C512.23 368.88 510.78 369.18 509.29 369.56L508.97 369.64C507.78 369.94 506.64 370.23 505.66 370.7C505.65 370.7 505.64 370.71 505.63 370.72C505.31 370.88 505 371.05 504.72 371.25C503.79 371.91 502.98 373.13 503.26 374.18C503.38 374.63 503.69 375.09 504.05 375.63C504.36 376.1 504.68 376.58 504.92 377.09C505.35 377.99 505.65 379.4 505.18 380.7C504.86 381.57 504.27 382.22 503.44 382.59C503.33 382.64 503.21 382.68 503.09 382.72C503.12 382.75 503.14 382.78 503.17 382.81C504.4 384.32 505.96 386.58 505.79 389.49C505.68 391.25 504.96 392.79 504.29 394.09C503.33 395.96 501.97 398.37 499.97 400.4C499.02 401.37 497.97 402.2 496.96 402.99C496.35 403.47 495.74 403.95 495.16 404.46C493.52 405.89 492.55 407.25 492.19 408.6L491.19 411.53C491.63 411.96 492.01 412.49 492.35 413.03C493.48 414.86 494.67 416.11 496.11 416.97L496.45 417.17C497.29 417.62 498.25 417.83 499.27 418.05C500.16 418.24 501.07 418.44 502.01 418.81C502.11 418.85 502.17 418.91 502.26 418.95C503.34 416.95 504.82 414.2 505.35 413.26C506.08 411.95 507.09 410.94 508.06 409.97L508.34 409.69C517.4 400.55 522.49 388.96 522.3 377.9C522.28 376.71 522.18 375.77 521.77 375.07C521.26 374.2 520.15 373.51 519.08 372.84L519.07 372.85Z" fill="#EDEEF2" transform="matrix(1, 0, 0, 1, 7.105427357601002e-15, 0)"/>
  <path d="M545.16 259.06C544.14 256.71 544.29 254.42 545.56 252.93C546.31 252.05 547.29 251.62 548.08 251.26C548.38 251.13 548.68 251 548.96 250.84C550.7 249.84 551.28 247.44 551.08 245.64C550.83 243.34 549.61 241.13 548.39 239.06C545.27 233.79 541.28 227.99 535.38 224.94C530.33 222.32 522.78 222.14 518.73 226.95C518.19 227.6 517.7 228.34 517.2 229.11C516.5 230.19 515.77 231.31 514.79 232.3C512.79 234.33 509.4 235.52 506.81 233.88C504.71 232.55 504.18 230.21 503.72 228.14C503.29 226.22 502.97 225.02 502.08 224.56C501.03 224.01 499.36 224.79 497.87 225.62L493.99 227.8C493.63 228.02 493.3 228.28 492.93 228.49C492.8 228.57 492.65 228.59 492.51 228.63L483.05 233.95C481.02 235.09 477.96 236.81 474.73 236.12C472.93 235.73 471.42 234.66 470.09 233.71C468.61 232.66 467.36 231.73 466.04 231.92C464.46 232.14 463.39 234.09 463.07 235.79C462.88 236.79 462.83 237.84 462.78 238.95C462.72 240.3 462.65 241.7 462.32 243.12C460.9 249.19 455.35 252.87 450.95 254.89C445.27 257.5 437.69 257.91 434.47 252.65C434.02 251.92 433.73 251.18 433.44 250.46C433.22 249.91 433 249.35 432.7 248.83C432.29 248.13 431.58 247.63 431.17 247.74C430.86 247.82 430.44 248.25 430.13 248.57C426.96 251.81 423.97 255.29 421.23 258.93C419.67 261.01 419.13 262.46 419.53 263.52C419.75 264.1 420.29 264.63 420.91 265.24C421.5 265.82 422.17 266.48 422.67 267.32C424.06 269.62 423.7 272.27 423.39 274.61C423.27 275.5 423.16 276.34 423.16 277.06C423.16 280.51 423.83 284.36 425.12 288.5C426.48 289.79 427.58 292.06 426.18 295.97C426.06 296.31 425.92 296.66 425.79 297C425.3 298.27 424.84 299.47 424.95 300.56C425.03 301.45 425.51 302.38 426.01 303.36L426.41 304.15C426.63 304.6 426.87 305.07 427.13 305.57C428.71 308.62 430.67 312.42 429.43 316.01C428.85 317.68 427.6 319.06 425.76 320.16C425.78 320.25 425.81 320.32 425.83 320.41C425.99 321.05 426.25 322.12 426.47 322.37C426.57 322.46 426.98 322.59 427.82 322.42C431.8 321.64 436.12 318.14 439.93 315.05C441.43 313.83 442.85 312.68 444.21 311.71C446.57 310.04 449.51 307.96 452.99 307.56C455.83 307.22 458.77 308.31 460.4 310.32C461.24 311.35 461.47 312.58 461.66 313.66C461.86 314.77 462 315.31 462.35 315.5C462.69 315.68 463.46 315.52 464.14 315.38L464.55 315.3C470.31 314.19 475.66 316.53 480.82 318.8C482.71 319.63 484.67 320.49 486.58 321.14C487.3 321.39 488.03 321.6 488.76 321.82C490.3 322.28 491.9 322.76 493.43 323.48C495.45 324.42 498.1 326.17 499.28 329.13C499.36 329.33 499.43 329.54 499.51 329.75C499.66 330.18 499.81 330.62 499.99 330.78C500.17 330.94 500.63 331.03 501.38 331.04C502.19 331.08 503.16 331 504.23 330.95C508.83 330.73 515.09 330.42 518.43 333.64C519.89 335.05 520.62 336.95 520.6 339.29C520.56 342.53 518.38 344.89 516.46 346.97C515.85 347.62 515.25 348.28 514.71 348.96L513.98 349.86C512.36 351.85 511.92 352.38 512.24 358.42C512.41 361.69 511.9 364.05 511.02 365.84C512.26 365.72 513.56 365.78 514.84 366.37C515.29 366.57 515.74 366.79 516.17 367.03C517.26 367.62 518.37 368.31 519.76 369.29C520.11 369.53 520.48 369.77 520.86 370.01C521.67 370.52 522.53 371.09 523.3 371.78C523.3 371.78 523.3 371.78 523.31 371.77C525.5 369.68 528.5 366.82 530.36 360.31C533.15 348.03 532.77 334.98 532.4 322.35C532.2 315.47 531.99 308.36 532.29 301.37C532.4 298.73 532.64 295.97 534.18 293.62C535.42 291.73 537.21 290.55 538.94 289.4L539.67 288.91C547.47 283.64 553.38 275.6 556.14 266.61C554.47 266.51 552.78 266.07 551.22 265.3C548.46 263.95 546.31 261.74 545.16 259.07V259.06Z" style="fill: url('#color-1');" transform="matrix(1, 0, 0, 1, 7.105427357601002e-15, 0)"/>
  <path d="M569.45 248.37C568.39 247.62 567.38 246.81 566.35 245.99L566.14 245.82L565.06 244.95C563.19 243.47 561.59 242.4 560.04 241.58C558.23 240.62 554.36 239.12 554.32 239.1C553.52 238.85 552.67 238.62 551.9 238.43C553.08 240.51 554.15 242.75 554.42 245.27C554.74 248.22 553.69 251.99 550.63 253.76C550.25 253.98 549.84 254.17 549.43 254.35C548.88 254.59 548.36 254.82 548.11 255.12C547.62 255.69 547.87 256.88 548.24 257.72C549.06 259.62 550.68 261.28 552.69 262.26C554.25 263.03 555.96 263.33 557.59 263.18C559.88 260.79 563.59 255.6 565.63 252.47C565.82 252.19 566.08 251.96 566.4 251.83L567.22 251.5C568.49 250.99 569.92 250.42 570.77 249.63C570.74 249.62 570.36 249.03 569.43 248.37H569.45Z" style="fill: url('#color-1');" transform="matrix(1, 0, 0, 1, 7.105427357601002e-15, 0)"/>
  <path d="M595.63 203.05C595.09 202.55 593.65 201.45 592.14 202.19C591.55 202.47 591 203.05 590.43 203.65C590.02 204.08 589.6 204.51 589.15 204.89C586.78 206.89 583.86 207.37 581.04 207.84C579.12 208.16 577.32 208.46 575.77 209.21C574.67 209.74 573.66 210.52 572.6 211.35C572.21 211.66 571.81 211.96 571.41 212.26C570.02 213.28 567.89 214.65 565.4 214.79C562.94 214.92 560.05 213.63 559.22 210.87C558.34 207.92 560.25 205.44 561.79 203.45L562.33 202.74C562.59 202.4 562.72 202.1 562.78 201.91C562.71 201.9 562.61 201.88 562.48 201.86C560.3 201.59 557.99 202.12 556.17 203.36C555.47 203.84 554.81 204.41 554.15 204.98C552.37 206.52 550.35 208.26 547.61 208.32C545.92 208.35 544.42 207.71 543.1 207.14C541.97 206.65 540.92 206.18 539.93 206.24C539.17 206.28 538.35 206.64 537.47 207.03C537.28 207.11 537.09 207.2 536.89 207.28C536.68 207.44 536.48 207.58 536.29 207.7C536.01 207.88 535.7 207.96 535.39 207.96C535.29 207.96 535.21 207.91 535.12 207.89C534.56 208.03 533.97 208.13 533.35 208.1C530.54 208.01 528.71 206.02 527.1 204.27C525.97 203.05 524.91 201.89 523.68 201.48C522.93 201.23 522.02 201.23 521.08 201.26C519.17 201.31 514.84 201.88 511.97 202.25L510.78 202.4C510.64 202.79 510.48 203.17 510.37 203.57C510.07 204.63 509.94 205.75 509.98 206.87C509.99 207.27 510.08 207.67 510.15 208.07C510.28 208.79 510.44 209.61 510.35 210.49C510.07 213.41 507.85 215.89 506.55 217.11C505.84 217.77 505.14 218.44 504.45 219.11C503.76 219.77 503.05 220.44 502.35 221.11C502.78 221.2 503.21 221.33 503.63 221.55C505.98 222.77 506.55 225.33 507.01 227.39C507.36 228.95 507.69 230.44 508.61 231.01C509.64 231.65 511.34 230.97 512.39 229.91C513.13 229.16 513.73 228.23 514.37 227.25C514.91 226.42 515.47 225.56 516.15 224.76C521.33 218.6 530.72 218.7 536.94 221.93C539.61 223.31 541.89 225.15 543.9 227.22C546.43 225.64 550.6 224.79 552.53 224.79H552.55C555.29 224.79 557.85 225.69 559.78 226.47L561 226.98C562.9 227.77 564.69 228.52 566.52 228.63C569.37 228.78 572.14 227.4 575.06 225.93C575.59 225.66 576.12 225.39 576.65 225.14C580.76 223.14 584.45 222.08 587.91 221.9C588.26 221.88 588.6 221.87 588.95 221.86C590.09 221.83 591.16 221.8 592.03 221.45C593.21 220.97 594.26 219.81 595.24 217.89C597.08 214.27 598.5 208.97 596.97 204.97C596.71 204.28 596.24 203.6 595.66 203.06L595.63 203.05Z" style="fill: url('#color-1');" transform="matrix(1, 0, 0, 1, 7.105427357601002e-15, 0)"/>
  <path d="M595.51 188.07C595.25 187.9 594.79 187.84 594.22 187.84C593.87 187.84 593.52 187.88 593.18 187.91C588.99 188.26 582.81 188.41 577.64 185.59L577.16 185.32C576.65 185.03 576.16 184.75 575.71 184.63C575.32 184.52 575.01 184.59 574.94 184.66C574.75 184.85 574.75 185.66 574.75 186.2C574.75 188.17 574.46 189.9 573.92 191.58C573.75 192.11 573.22 193.75 571.62 194.28C569.81 194.89 568.48 193.63 567.68 192.87C567.43 192.63 567.18 192.39 566.91 192.22C566.28 191.82 565.11 192.09 563.99 192.35L563.3 192.5C560.84 193.01 557.85 192.41 557.05 189.85C556.76 188.9 556.86 187.8 557.34 186.69C557.86 185.52 558.67 184.54 559.39 183.68C560.18 182.73 560.87 181.89 561.06 181.02C557.16 182.33 553.44 184.12 549.99 186.36C549.4 186.74 548.72 187.19 547.84 187.35C546.65 187.56 545.02 187.03 542.66 186.18C542.46 186.11 542.26 186.04 542.06 185.96C541.63 187.06 541.25 188.18 541.01 189.34C540.67 191.01 540.62 192.63 540.87 194.02C541.02 194.85 541.69 196.54 542.08 197.41C542.19 197.65 542.24 197.91 542.22 198.18C542.2 198.66 542.05 201.13 541.3 202.5C541.23 202.63 541.13 202.78 541.04 202.92C542.29 203.09 543.42 203.59 544.46 204.04C545.56 204.52 546.58 204.91 547.56 204.94C549.09 204.91 550.42 203.76 551.97 202.42C552.71 201.78 553.47 201.13 554.3 200.56C556.8 198.86 559.95 198.12 562.96 198.51C563.67 198.61 564.69 198.83 565.44 199.65C566.6 200.94 566.46 202.9 565.07 204.77L564.5 205.52C563.33 207.05 562.11 208.62 562.49 209.91C562.79 210.92 564.1 211.45 565.24 211.42C566.47 211.35 567.76 210.77 569.44 209.54C569.82 209.26 570.19 208.97 570.57 208.68C571.73 207.78 572.92 206.86 574.34 206.17C576.32 205.21 578.46 204.86 580.53 204.51C583.01 204.1 585.36 203.71 587.02 202.31C587.38 202.01 587.71 201.66 588.04 201.32C588.76 200.56 589.58 199.71 590.72 199.16C592.94 198.08 595.55 198.54 597.66 200.32C597.58 196.24 597.2 191.71 596.51 189.72C596.29 189.1 595.99 188.35 595.56 188.07H595.51Z" style="fill: url('#color-1');" transform="matrix(1, 0, 0, 1, 7.105427357601002e-15, 0)"/>
  <path d="M362.4 548.38C361.86 547.68 361.33 546.47 361.85 544.68C362.37 542.89 363.74 541.72 364.95 540.69L365.07 540.59C365.66 540.08 366.18 539.61 366.52 539.08C366.96 538.39 366.85 537.93 366.7 537.61C366.29 536.73 364.99 535.91 363.75 535.75C362.94 535.64 362.08 535.65 361.16 535.65C359.66 535.66 358.09 535.66 356.51 535.18C353.88 534.37 351.97 532.4 350.29 530.66C349.95 530.31 349.61 529.96 349.26 529.62C343.9 524.35 336.56 521.42 331.51 519.68C321.51 516.23 313.46 515.2 306.17 516.46C296.04 518.2 287.23 524.56 279.94 530.55C273.03 536.23 266.15 542.61 258.9 550.07C255.79 553.26 252.85 556.44 250.99 560.21C250.53 561.14 250.43 562.13 250.59 562.56C250.93 562.77 251.69 562.41 252.19 562.17L252.69 561.94C257.88 559.63 264.82 562.16 268.14 567.57C268.54 568.23 268.9 568.92 269.26 569.62C269.82 570.72 270.36 571.76 271.08 572.57C271.93 573.53 273.44 574.23 274.37 573.67C274.54 573.56 274.7 573.43 274.87 573.3C275.37 572.9 275.99 572.4 276.88 572.2C277.14 572.14 277.38 572.12 277.62 572.12C278.9 572.12 279.98 572.83 280.6 573.24C290.2 579.53 300.13 586.03 309.2 593.47C310.77 594.76 312.36 596.19 313.06 598.24C313.96 600.91 313.03 603.51 312.21 605.8C311.99 606.41 311.77 607.02 311.59 607.63C310.85 610.11 310.8 612.84 311.44 615.12C311.46 615.19 311.48 615.24 311.49 615.28C312.05 615.1 313.1 614.35 313.58 614C313.84 613.81 314.08 613.64 314.3 613.49C318.35 610.77 322.45 607.4 326.83 603.18C331.37 598.81 335.67 594.06 339.46 589.87C349.19 579.13 361.2 565.86 365.52 550.12C364.38 549.9 363.19 549.41 362.41 548.39L362.4 548.38Z" fill="#EDEEF2" transform="matrix(1, 0, 0, 1, 7.105427357601002e-15, 0)"/>
  <path d="M498.55 421.37C497.4 421.12 496.1 420.84 494.82 420.15L494.37 419.89C492.6 418.84 491.15 417.39 489.81 415.36C489.38 416.42 488.87 417.54 488.27 418.77C487.96 419.4 487.62 420.03 487.28 420.65C486.75 421.62 486.25 422.53 485.89 423.45C484.53 426.92 482.02 429.82 478.82 431.62C475.7 433.37 472.37 433.78 469.16 434.17C468.34 434.27 467.52 434.37 466.7 434.5C457.96 435.72 452.41 437.16 449.29 438.47C449.63 438.57 449.97 438.66 450.3 438.78C451.52 439.21 453.23 439.98 453.98 441.68C454.48 442.82 454.43 444.13 453.84 445.39C453.43 446.26 452.77 447.09 451.98 447.72C451.36 448.21 450.69 448.62 450.01 449.01C449.34 449.41 448.7 449.78 448.2 450.24C447.88 450.53 447.61 450.86 447.36 451.23C449.53 450.35 452.15 449.31 454.85 448.79C457.857 448.21 460.09 447.813 461.55 447.6C465.54 447.01 469.59 446.55 473.59 446.24C475.65 446.07 478.05 445.89 480.45 445.95C481.62 445.97 482.78 446.06 483.94 446.19C484.28 446.23 484.63 446.3 484.99 446.37C485.46 446.47 486.01 446.58 486.25 446.5C486.33 446.48 486.49 446.37 486.69 446.14C487.58 445.1 487.8 443.68 488.06 442.04C488.31 440.4 488.6 438.54 489.7 436.91C490.97 435.01 493.4 434.31 495.75 433.62C497.86 433 500.05 432.37 500.51 431.05C500.55 430.85 500.43 430.17 500.35 429.76C500.25 429.23 500.17 428.73 500.17 428.33C500.16 427.52 500.34 426.57 500.53 425.56C500.71 424.62 501.13 422.43 500.78 421.98C500.09 421.72 499.35 421.56 498.56 421.38L498.55 421.37Z" fill="#EDEEF2" transform="matrix(1, 0, 0, 1, 7.105427357601002e-15, 0)"/>
  <path d="M258.18 358.49L259.25 357.55C260.51 356.47 262.04 355.27 263.89 354.56C268.48 352.78 273.3 354.46 277.56 355.94C278.53 356.28 279.5 356.62 280.46 356.91C285.09 358.34 291.86 356.49 297.28 354.99C301.8 353.75 305.07 352.85 307.07 353.7C310.45 355.11 309.35 358.7 308.7 360.85C308.39 361.86 307.88 363.54 308.2 363.96C309.29 365.37 312.32 366.19 314.73 366.17C314.26 364.83 313.99 363.38 313.96 361.86C313.86 355.87 317.23 350.35 320.17 346.21C322.34 343.16 324.58 340.18 328.03 337.34L328.73 336.77C331.33 334.65 334.02 332.45 335.25 329.48C335.47 328.96 335.64 328.41 335.82 327.87C336.23 326.6 336.7 325.17 337.66 323.94C338.97 322.26 340.85 321.4 342.52 320.64C343.5 320.19 344.42 319.77 345.19 319.22C348.32 316.98 348.77 313.23 349.24 309.26C349.4 307.92 349.56 306.59 349.82 305.3C351.1 298.85 353.04 292.51 355.58 286.46C355.7 286.18 355.82 285.89 355.96 285.6C354.29 285 352.9 283.55 352.25 281.53C351.34 278.68 351.88 274.72 352.36 271.23C352.54 269.9 352.72 268.64 352.78 267.6C353.03 263.32 353.47 258.21 354.74 252.73C355.78 248.3 357.08 244.16 358.62 240.31C344.58 239.31 330.44 238.24 316.28 237.17C301.34 236.03 286.4 234.9 271.6 233.86C264.66 233.37 258.52 232.65 253.69 228.73C249.42 225.27 247.37 220.16 245.38 215.21C243.78 211.22 242.26 207.42 239.69 204.6C238.19 210.08 237.5 215.72 237.64 221.42C237.65 221.87 237.49 222.3 237.18 222.63C236.87 222.96 236.44 223.14 236 223.15L196.69 224.07C195.02 224.11 193.66 224.2 192.7 224.84C191.37 225.74 190.86 227.76 190.54 229.62C189.07 238.06 189.19 246.93 190.87 255.35L208.28 257.7C209.65 257.89 211.95 258.2 213.32 259.96C214.86 261.94 214.32 264.34 213.88 266.26C213.76 266.79 213.64 267.32 213.57 267.83C213.29 269.85 213.92 271.99 214.58 274.27C215.47 277.28 216.38 280.39 215.27 283.59C214.35 286.23 212.37 287.99 210.45 289.69C209.42 290.6 208.45 291.46 207.68 292.42C204.13 296.83 204.65 303.37 205.5 309.7L208.44 331.72C208.62 333.05 208.82 334.56 209.54 335.57C210.44 336.83 212.2 337.44 213.96 337.92C218.66 339.2 226.31 339.13 231.38 339.08C235.24 339.05 236.61 339.05 237.4 339.36C239.56 340.2 239.27 343.22 238.97 346.41C238.87 347.51 238.75 348.75 238.83 349.26C239.08 350.85 240.72 354.36 242.56 356.68C244.18 358.73 249.94 365.04 256.05 360.33C256.79 359.76 257.49 359.14 258.19 358.52L258.18 358.49Z" fill="#EDEEF2" transform="matrix(1, 0, 0, 1, 7.105427357601002e-15, 0)"/>
  <path d="M299.6 459.82C299.64 459.76 299.68 459.71 299.71 459.65C301.1 457.33 302.8 455.01 304.87 452.67C307.19 450.05 309.73 447.21 312.7 444.88C317.14 440.71 323.27 434.73 327.53 428.98C329.2 426.72 330.72 423.52 332.33 420.13C335.83 412.74 340.13 403.69 348.5 400.04C348.33 399.53 348.19 398.96 348.16 398.24C348.03 395.53 349.19 391.85 350.92 388.62C349.04 389.25 346.96 389.75 344.91 389.75C343.49 389.75 342.1 389.52 340.83 388.94C334.87 386.42 328.87 383.88 322.88 381.33C321.94 380.93 320.38 380.27 319.65 378.72C319.01 377.39 319.29 376.07 319.51 375.01C319.62 374.5 319.72 374.02 319.7 373.64C319.65 372.74 318.99 372.05 317.93 371.01C317.42 370.51 316.91 369.99 316.46 369.4C315.89 369.49 315.29 369.54 314.65 369.54C311.28 369.54 307.32 368.32 305.54 366C304.15 364.2 304.86 361.89 305.48 359.84C306.22 357.42 306.17 356.96 305.78 356.79C304.85 356.41 301.15 357.41 298.19 358.23C292.33 359.84 285.06 361.84 279.48 360.12C278.48 359.81 277.48 359.46 276.47 359.11C272.41 357.69 268.57 356.35 265.13 357.69C263.77 358.21 262.59 359.14 261.51 360.06C258.74 362.72 249.67 371.73 246.77 378.11C243.82 384.63 243.85 392.37 243.88 399.2L243.98 421.98C244 425.76 244.18 429.35 246.24 431.66C249.15 434.92 254.81 434.45 258.81 433.81C263.81 433.01 270.03 432.01 274.6 435.47C278.94 438.75 279.86 444.49 280.19 449.67C280.22 450.06 280.24 450.53 280.26 451.05C280.38 453.75 280.66 460.07 282.82 461.15C283.45 461.47 285.3 461.32 286.41 461.23C287.14 461.17 287.82 461.07 288.36 461.13H288.38C289.52 461.13 290.68 461.15 291.84 461.18C292.68 461.2 293.52 461.21 294.36 461.22H294.89C297.32 461.28 298.7 461.22 299.62 459.81L299.6 459.82Z" fill="#EDEEF2" transform="matrix(1, 0, 0, 1, 7.105427357601002e-15, 0)"/>
  <path d="M385.82 514.98C385.43 514.24 385.03 513.48 384.72 512.58C384.02 510.54 384.36 508.4 384.74 506.76L384.94 505.94C385.45 503.88 386.72 498.67 385.16 497.29C380.92 499.23 375.75 499.32 370.79 499.1L368.52 498.99C362.67 498.7 356.03 498.37 350.97 500.72C348.68 501.78 346.63 503.53 345.19 505.66C344.13 507.22 342.91 508.2 340.47 507.94C335.76 507.43 331.24 506.06 326.86 504.75L325.06 504.21C322.27 503.38 319.91 502.74 317.5 502.25L316.56 502.06C314.38 501.6 312.31 501.17 310.37 501.62C308.78 501.99 308.39 505.13 308.18 506.83C308.04 507.94 308.06 508.74 308.24 509.42C308.64 510.94 310.36 512.19 311.78 512.55C317.97 512.47 324.75 513.75 332.62 516.47C337.99 518.32 345.8 521.45 351.64 527.2C352 527.56 352.36 527.93 352.72 528.3C354.26 529.89 355.72 531.38 357.52 531.94C358.61 532.28 359.84 532.27 361.15 532.26C362.13 532.26 363.15 532.26 364.2 532.39C366.63 532.71 368.87 534.23 369.77 536.18C370.48 537.72 370.34 539.39 369.37 540.91C368.79 541.81 368.02 542.51 367.29 543.15L367.16 543.26C366.23 544.05 365.35 544.8 365.11 545.63C365.06 545.79 364.97 546.16 365.09 546.32C365.3 546.59 366.05 546.85 367.09 546.89C373.56 541.8 384.9 532.7 386.84 523.3C387.25 521.3 387.27 519.35 386.88 517.5C386.7 516.63 386.27 515.83 385.83 514.97L385.82 514.98Z" fill="#EDEEF2" transform="matrix(1, 0, 0, 1, 7.105427357601002e-15, 0)"/>
  <path d="M449.86 445.07C450.25 444.76 450.58 444.35 450.77 443.94C450.89 443.68 451.01 443.31 450.88 443.02C450.63 442.46 449.53 442.07 449.17 441.94C444.85 440.42 439.9 440.44 435.59 441.99C434.58 442.35 433.6 442.79 432.63 443.23C431.09 443.92 429.49 444.64 427.76 445.09C424.06 446.06 420.54 445.38 418.37 443.27C415.3 440.3 415.65 435.65 415.9 432.25C416.21 428.13 415.54 425.59 413.85 424.48C413.59 424.31 413.31 424.17 413.04 424.03C412.57 423.79 412.1 423.54 411.67 423.23C409.46 421.62 408.81 418.85 408.37 417.01L405.74 405.87C405.43 404.56 405.06 403.23 404.26 402.7C403.82 402.41 403.15 402.3 402.13 402.32C399.25 402.41 396.42 403.38 393.41 404.41C389.32 405.82 385.08 407.27 380.62 406.36C377.71 405.76 375.25 404.26 372.87 402.8C371.22 401.79 369.67 400.84 368.01 400.19C363.18 398.16 359.35 399.6 354.92 401.27C353.83 401.68 352.73 402.09 351.6 402.46C351.6 402.46 351.6 402.46 351.58 402.46C351.58 402.46 351.57 402.46 351.56 402.47C343.24 405 339.07 413.8 335.39 421.56C333.71 425.1 332.12 428.45 330.25 430.98C327.89 434.16 325 437.4 322.12 440.37C324.5 439.83 326.82 439.59 328.78 439.48C341.34 438.84 353.42 443.09 364.07 446.86C365.55 447.38 367.4 448.04 368.81 449.41C370.97 451.52 371.31 454.29 371.61 456.74C371.67 457.25 371.74 457.76 371.81 458.26C372.11 460.14 372.96 462.03 374.42 464.05C374.68 464.41 374.94 464.75 375.19 465.07C376.51 466.79 377.88 468.56 377.59 471.62C377.58 471.78 377.53 472.23 377.56 472.46C377.62 472.46 377.73 472.46 377.9 472.47C378.53 472.5 379.16 472.43 379.79 472.38C380.77 472.3 381.79 472.22 382.88 472.34C384.8 472.57 386.45 473.54 387.3 474.93C387.87 475.87 387.97 476.86 388.05 477.65C388.1 478.18 388.15 478.64 388.31 478.92C388.4 479.07 388.54 479.2 388.76 479.33C389.04 479.5 389.42 479.65 389.89 479.77L390.37 479.89C392.02 480.3 394.27 480.85 395.14 482.68C395.17 482.74 395.19 482.83 395.22 482.89C395.54 482.56 395.94 482.08 396.49 481.38C397.77 479.75 399.52 477.52 402.7 475C404.64 473.5 406.5 471.82 408.3 470.19C409.51 469.1 410.72 468.01 411.96 466.95C415.87 463.64 420.66 460.19 426.56 459.63C428.17 459.49 429.82 459.54 431.43 459.59C434.92 459.71 438.22 459.82 440.27 457.79C441.36 456.72 441.96 455.13 442.6 453.44C443.37 451.39 444.17 449.28 445.94 447.68C446.7 447 447.51 446.52 448.3 446.05C448.84 445.73 449.38 445.42 449.87 445.03L449.86 445.07Z" fill="#EDEEF2" transform="matrix(1, 0, 0, 1, 7.105427357601002e-15, 0)"/>
  <path d="M389.02 483.07C388.22 482.86 387.56 482.59 387 482.25C386.29 481.82 385.74 481.27 385.37 480.62C384.85 479.71 384.76 478.77 384.69 478.01C384.64 477.47 384.59 477 384.42 476.72C384.12 476.23 383.34 475.83 382.49 475.73C381.74 475.64 380.93 475.71 380.07 475.78C379.31 475.84 378.55 475.91 377.8 475.88C377.08 475.86 376.02 475.74 375.19 474.96C373.99 473.82 374.15 472.2 374.24 471.33C374.4 469.6 373.7 468.68 372.53 467.16C372.26 466.81 371.98 466.45 371.7 466.06C369.92 463.6 368.88 461.23 368.49 458.82C368.4 458.28 368.34 457.73 368.27 457.18C368.01 455.1 367.77 453.13 366.47 451.85C365.59 450.99 364.26 450.52 362.96 450.06C352.61 446.4 340.89 442.21 328.97 442.87C325.93 443.03 322 443.43 318.54 445.13C317.27 445.76 316.06 446.56 314.91 447.45C314.77 447.58 314.62 447.72 314.49 447.85C309.35 452.64 306.23 455.94 302.61 461.41C301.47 463.33 300.55 465.25 299.9 467.18C298.94 470.02 298.25 473.03 297.59 475.94L297.11 478.03C296.99 478.54 296.85 479.08 296.7 479.64C296.06 482.07 295.26 485.09 296.08 486.97C296.84 488.72 298.58 489.65 300.59 489.41C300.92 489.37 301.3 489.26 301.68 489.14C303.06 488.75 305.35 488.09 306.97 489.9C308.44 491.55 308.91 495.27 309.01 496.37C309.16 496.86 309.41 497.41 309.55 497.57C309.77 497.74 310.88 498.05 311.65 498.09C313.6 498.02 315.5 498.41 317.23 498.78L318.14 498.97C320.68 499.48 323.12 500.15 326 501L327.82 501.54C332.05 502.81 336.43 504.12 340.82 504.61C341.65 504.7 341.79 504.66 342.38 503.79C344.19 501.13 346.66 499.01 349.54 497.68C355.35 494.98 362.43 495.33 368.68 495.64L370.92 495.75C375.72 495.95 380.67 495.87 384.34 493.95C387.64 491.96 390.43 487.8 391.94 484.56C392.05 484.32 392.07 484.18 392.07 484.15C391.84 483.79 390.17 483.38 389.55 483.22L389.02 483.09V483.07Z" fill="#EDEEF2" transform="matrix(1, 0, 0, 1, 7.105427357601002e-15, 0)"/>
</svg>