<svg width="870" height="612" viewBox="0 0 870 612" fill="none" xmlns="http://www.w3.org/2000/svg">
<path d="M367.286 71.0916C367.385 72.8684 367.306 74.6649 367.237 76.4022L367.168 78.1888C367.079 81.0909 367.188 83.4796 368.007 85.7204C369.014 88.4744 371.077 90.8237 373.081 93.0841L374.245 94.4068C378.154 98.8784 382.201 103.498 387.216 106.055C390.69 107.831 394.639 108.927 398.449 109.983C401.223 110.743 404.095 111.543 406.819 112.599C407.412 112.826 408.527 113.26 409.05 114.415C409.682 115.777 409.001 117.13 408.715 117.702L406.662 121.818C403.71 127.761 400.65 133.901 397.393 139.833L379.349 175.378L378.608 177.165C377.295 180.274 375.805 183.788 375.469 186.809C374.926 191.626 375.311 195.594 376.535 198.032C380.731 201.418 382.774 206.442 384.728 211.309C386.614 215.997 388.381 220.439 391.924 223.302C395.942 226.559 401.469 227.191 407.747 227.625C422.366 228.662 437.123 229.777 451.871 230.893C466.223 231.979 480.565 233.064 494.79 234.081C496.941 229.412 499.488 225.246 502.44 221.604C502.854 221.091 503.279 220.587 503.703 220.074C505.401 218.06 507 216.155 507.898 213.885C508.698 211.842 508.629 209.996 508.54 207.854C508.5 206.827 508.461 205.781 508.51 204.685C508.56 203.58 508.5 202.375 508.431 201.102C508.254 197.588 508.046 193.6 510.267 190.392C511.521 188.586 513.327 187.095 515.637 185.96L516.289 185.644C516.901 185.358 517.473 185.091 517.917 184.756C518.559 184.272 519.102 183.512 519.635 182.722C521.895 179.386 523.218 176.198 524.748 172.506L524.975 171.963C525.271 171.242 524.264 170.009 523.889 169.752C523.85 169.722 523.721 169.633 523.682 169.604C523.613 169.554 523.534 169.515 523.445 169.466L523.09 169.258C521.234 167.965 520.938 166.722 521.056 165.863C521.056 165.804 521.076 165.754 521.086 165.705C521.115 165.527 521.165 165.369 521.214 165.231C521.234 165.192 521.263 165.152 521.283 165.113C521.491 164.737 523.277 161.648 526.396 158.519C529.624 155.291 538.222 145.686 542.723 138.204C545.26 133.98 547.57 129.39 549.781 124.197C550.985 121.355 551.883 118.344 552.762 115.422C553.463 113.053 554.193 110.615 555.091 108.226C556.098 105.551 556.967 103.38 557.776 101.465C554.282 97.378 547.658 96.8153 543.996 96.5291C543.325 96.4797 542.762 96.4304 542.338 96.381C528.193 94.5154 515.143 87.4083 502.528 80.548L499.745 79.0377C499.034 78.6527 498.264 77.9815 497.376 77.2017C496.645 76.5601 495.283 75.3756 494.77 75.2473C494.76 75.2473 494.74 75.2473 494.73 75.2473C493.891 75.4545 491.246 78.4751 490.367 79.472C489.933 79.9755 489.548 80.3999 489.252 80.7158C485.007 85.1281 481.424 90.0932 478.601 95.463L478.443 95.769C476.992 98.5329 475.354 101.652 472.076 102.856C467.871 104.396 463.499 101.672 461.218 98.4934C457.823 93.7356 455.799 88.1486 453.855 82.7492C451.653 76.6391 449.561 70.8547 445.652 66.166C442.019 61.803 437.637 59.276 431.862 58.2297C430.579 58.0027 429.385 57.7855 428.279 57.1538C426.867 56.3542 426.384 55.1796 425.999 54.2418L425.762 53.6989C425.209 52.4749 424.627 51.014 424.41 49.3656C424.192 47.6875 421.883 44.9533 420.283 44.4893C417.293 43.6207 413.473 45.7035 410.896 47.9442C409.929 48.7832 409.85 49.2274 409.86 49.3853C409.87 49.5531 409.998 49.8591 410.126 50.1454C410.363 50.6982 410.659 51.3891 410.659 52.2282C410.659 54.2221 409.021 55.8903 406.474 56.4924C403.453 57.2031 399.831 56.9761 395.695 55.8311C391.589 54.6959 390.552 55.2289 386.693 57.2525L386.426 57.3907C384.452 58.4271 382.29 58.8812 380.207 59.3155C379.437 59.4735 378.687 59.6314 377.947 59.8189C377.394 59.9571 376.782 60.0953 376.131 60.2434C372.498 61.0627 367.967 62.0893 367.217 65.09C366.882 66.4522 367 67.9526 367.138 69.5418C367.178 70.0551 367.227 70.5684 367.257 71.0718L367.286 71.0916Z" fill="#EDEEF2"/>
<path d="M428.822 52.3171L429.098 52.9685C429.424 53.7484 429.552 54.0346 429.937 54.2518C430.549 54.5973 431.369 54.7453 432.237 54.9033C438.969 56.1273 444.132 59.0984 448.228 64.0339C452.512 69.1767 454.792 75.504 457.003 81.6141C458.968 87.0431 460.814 92.176 463.943 96.5587C465.562 98.8192 468.493 100.616 470.941 99.7273C473.014 98.9673 474.278 96.5587 475.502 94.2292L475.66 93.9232C478.621 88.277 482.392 83.0553 486.853 78.4159C487.12 78.1395 487.465 77.7447 487.86 77.2906C490.032 74.813 491.996 72.7204 493.852 72.1084C495.668 70.3217 499.597 65.7712 499.597 62.3953C499.597 58.3186 497.425 54.5676 493.793 52.3664C493.25 52.0407 492.687 51.7544 492.124 51.4682C491.315 51.0536 490.515 50.639 489.755 50.1356C487.939 48.9313 486.577 47.046 485.61 44.3808C484.484 41.2912 484.089 38.0239 483.724 34.8751C483.497 32.9305 483.28 31.0846 482.895 29.2881C482.214 26.0307 481.533 22.8325 480.052 20.2167C479.638 19.5257 477.969 17.6107 477.012 16.979C474.021 20.9965 471.178 25.6457 468.098 31.5486C466.716 34.194 465.404 36.8789 464.101 39.5638C463.745 40.2942 463.42 41.0543 463.074 41.8144C462.354 43.4431 461.613 45.1211 460.666 46.6413C460.3 47.2236 459.925 47.7073 459.521 48.1219C456.559 51.0931 451.199 50.6982 448.001 50.4613C444.635 50.2146 441.338 49.494 438.14 48.803L435.801 48.2996C431.813 47.579 429.078 48.2009 427.657 48.7043C427.667 48.7833 427.706 48.8622 427.716 48.9313C427.874 50.1455 428.358 51.33 428.802 52.3269L428.822 52.3171Z" fill="#EDEEF2"/>
<path d="M552.851 125.51C550.58 130.851 548.211 135.569 545.586 139.942C540.877 147.76 532.22 157.433 528.756 160.888C528.035 161.609 527.393 162.329 526.831 163.01C527.304 163.03 527.768 163.069 528.222 163.139C528.321 163.148 528.41 163.178 528.509 163.208C532.171 164.432 534.895 165.833 536.82 167.492C541.242 172.2 540.601 177.797 539.278 183.177C538.34 186.957 537.393 190.797 536.139 194.518C536.327 194.834 536.524 195.18 536.731 195.545C538.538 198.674 542.802 206.067 545.822 205.742C546.227 205.702 546.691 205.564 547.185 205.406C547.54 205.297 547.905 205.179 548.261 205.09C550.936 204.458 552.268 205.623 552.821 206.373C554.499 208.634 553.463 212.829 552.229 214.941C551.518 216.165 550.61 217.182 549.731 218.169C549.1 218.88 548.507 219.541 548.014 220.252C546.089 223.016 546.977 223.875 549.366 226.155C549.968 226.727 550.59 227.329 551.182 227.991C552.801 229.787 553.571 231.989 554.311 234.111C554.499 234.644 554.687 235.167 554.874 235.67C556.256 234.259 558.309 232.581 560.925 230.577C561.241 230.33 561.517 230.123 561.734 229.955C561.567 229.323 561.103 227.961 559.889 225.148C559.829 225.02 559.79 224.881 559.77 224.743C558.556 216.945 561.804 209.266 569.424 201.922C570.48 200.905 571.674 200.184 572.829 199.483L573.609 199C574.527 198.427 575.396 197.736 576.324 196.996C576.788 196.631 577.252 196.266 577.716 195.91C580.618 193.729 584.477 190.906 588.534 188.369C588.82 188.191 589.117 187.994 589.413 187.796C590.844 186.849 592.463 185.773 594.338 185.635C595.138 185.575 595.957 185.635 596.776 185.684C597.151 185.704 597.527 185.733 597.892 185.743C599.807 185.792 604.298 185.911 605.907 184.213C606.233 183.868 606.647 183.265 606.539 181.933C606.499 181.469 606.41 181.133 606.272 180.906C606.065 180.571 605.759 180.275 605.413 179.929C604.841 179.366 604.13 178.666 603.696 177.6C602.975 175.833 602.827 173.74 603.281 171.687C603.656 169.989 604.318 168.518 604.969 167.087C605.71 165.448 606.41 163.909 606.578 162.191C606.578 162.092 606.598 162.003 606.628 161.915C607.437 158.953 607.388 156.347 606.46 153.722C606.075 152.606 606.104 151.214 606.134 149.981C606.134 149.576 606.154 149.201 606.144 148.865C606.104 147.385 606.144 145.45 606.884 143.614C608.177 140.386 611.83 136.141 615.472 134.937L616.025 134.769C616.281 134.7 616.528 134.631 616.765 134.513C617.308 134.197 618.068 132.558 618.571 131.473C618.937 130.693 619.272 129.952 619.647 129.38C619.707 129.281 619.776 129.192 619.835 129.094C619.638 129.015 619.44 128.936 619.253 128.857C617.634 128.185 616.015 127.524 614.366 126.922L613.547 126.636C612.728 126.359 611.869 126.073 611.03 125.589C610.645 125.372 610.27 125.125 609.895 124.879C609.461 124.592 609.026 124.296 608.562 124.079C606.973 123.319 605.552 122.717 604.199 122.223C601.791 121.345 599.807 120.841 597.961 120.644C595.681 120.397 593.736 120.822 591.456 121.315L590.725 121.473C584.369 122.835 580.598 115.965 579.364 113.705C578.14 111.464 577.183 109.095 576.334 107.002C576.255 106.815 576.176 106.568 576.087 106.292C576.047 106.173 575.988 105.996 575.929 105.818C575.495 106.065 574.971 106.381 574.626 106.588C573.757 107.121 573.244 107.427 572.8 107.595C572.02 107.881 571.082 108.157 570.075 107.989C568.131 107.683 567.114 106.203 566.295 105.008C565.92 104.456 565.564 103.942 565.219 103.676C564.242 102.936 562.81 102.62 560.846 102.738C560.047 104.614 559.198 106.765 558.191 109.411C557.332 111.681 556.621 114.07 555.93 116.38C555.032 119.39 554.104 122.5 552.831 125.51H552.851Z" fill="#EDEEF2"/>
<path d="M261.627 227.29C262.506 227.29 263.454 227.428 264.46 227.566C266.593 227.862 268.991 228.198 270.018 227.112C270.462 226.638 270.857 226.174 271.232 225.72C272.436 224.279 273.68 222.779 276.079 221.89C278.132 221.13 280.313 220.913 281.981 220.824C282.959 220.765 283.679 220.726 284.212 220.479C284.923 220.163 285.535 219.403 286.157 218.08C286.986 216.323 287.934 214.655 288.852 213.036L289.858 211.249C290.747 209.65 291.852 207.666 293.708 206.363C295.811 204.902 300.914 203.678 303.658 205.011C308.663 207.429 312.552 211.595 316.313 215.632C317.152 216.53 317.981 217.419 318.81 218.278C322.196 217.942 329.915 217.952 331.603 218.011C331.682 218.011 331.751 218.051 331.82 218.06C332.412 218.011 332.975 217.981 333.478 217.972L370.632 217.103C370.642 211.022 371.59 205.011 373.396 199.187C371.629 195.367 371.718 190.205 372.143 186.444C372.538 182.949 374.127 179.189 375.519 175.882L376.308 174.006L394.431 138.293C397.679 132.371 400.719 126.26 403.661 120.348L405.714 116.222C405.803 116.054 405.852 115.935 405.892 115.837C405.813 115.807 405.714 115.758 405.595 115.718C403.019 114.721 400.226 113.951 397.531 113.201C393.553 112.096 389.437 110.96 385.666 109.026C380.089 106.173 375.637 101.089 371.708 96.5981L370.554 95.2853C368.451 92.8965 366.062 90.2017 364.848 86.8456C364.167 84.9603 363.92 83.0256 363.831 81.1205C362.538 81.081 361.008 81.0316 359.459 80.9724C357.287 80.8934 355.125 80.8145 353.664 80.7848C352.45 80.7651 351.206 80.7355 350.249 81.1698C348.65 81.9003 347.89 83.9041 347.574 85.0392C347.347 85.8783 347.189 86.737 347.031 87.5859C346.814 88.8001 346.587 90.0537 346.152 91.2974C345.886 92.0674 345.471 93.0446 344.534 93.7059C343.616 94.3574 342.579 94.4463 341.78 94.4463C340.299 94.4463 338.868 94.1896 337.476 93.9527C335.452 93.5875 333.537 93.2618 331.849 93.7849C329.836 94.4167 328.296 96.4896 328.266 98.6019C328.266 99.1152 328.326 99.6384 328.385 100.152C328.503 101.188 328.641 102.363 328.345 103.587C327.832 105.749 326.559 106.518 325.591 106.795C325.256 106.884 324.91 106.933 324.555 106.933C321.357 106.933 317.231 103.468 314.19 100.389C313.223 99.4114 312.285 98.3058 311.92 96.8449C311.426 94.8905 312.127 93.1334 312.739 91.5738C312.937 91.0704 313.144 90.5571 313.292 90.0537C314.279 86.7173 312.818 82.9861 311.407 79.3832L310.992 78.3171C308.761 72.5031 307.261 66.4127 306.53 60.2236L306.491 59.888C306.264 57.9829 306.057 56.1864 305.099 54.9427C303.974 53.4916 301.931 52.8994 299.759 52.2874C299.285 52.1492 298.821 52.0208 298.367 51.8728C294.36 50.8265 290.016 54.2418 286.67 57.3216C285.229 58.6443 283.877 60.1545 282.554 61.6154C280.59 63.7969 278.556 66.0475 276.108 67.8934C269.465 72.9177 260.255 74.1812 252.655 71.1212C245.182 68.1105 241.787 61.4081 238.51 54.9229C238.046 54.0148 237.592 53.1067 237.118 52.2084C237.098 52.1689 237.068 52.1097 237.029 52.0406C236.96 52.0406 236.881 52.0603 236.841 52.0603C227.711 53.1363 218.61 54.9723 209.785 57.5091C208.028 58.0125 206.468 58.5061 205.185 59.3846C203.912 60.2532 203.102 61.4674 203.023 62.6321C202.885 64.6063 204.702 66.4028 205.807 67.2912C206.133 67.5577 207.199 68.0118 208.127 68.4165C210.841 69.5813 214.227 71.0422 215.145 73.6284C215.54 74.7339 215.431 75.9185 214.829 77.0635C212.835 80.8539 208.512 79.1561 205.363 77.9321C204.149 77.4583 201.898 76.5897 201.385 76.8661C200.121 77.5669 199.371 78.4356 199.105 79.4917C198.364 82.4037 201.039 86.6383 202.984 89.7279C203.418 90.409 203.823 91.0507 204.159 91.6232C208.61 99.2139 209.4 109.016 206.577 121.611C205.896 124.651 205.067 127.692 204.267 130.633C202.54 137 200.753 143.594 200.447 150.188C200.408 151.076 199.677 151.777 198.779 151.777H198.759C186.342 151.639 175.345 152.034 166.915 158.203C160.006 163.247 155.554 172.516 151.24 181.488C149.029 186.078 146.759 190.777 144.163 194.893C144.992 194.982 145.732 195.15 146.265 195.268C184.032 204.123 216.774 216.353 246.308 232.61C247.245 230.922 249.072 229.609 250.138 229.057C253.632 227.25 258.025 227.28 261.578 227.29H261.627Z" fill="#EDEEF2"/>
<path d="M298.94 48.6254C299.038 48.6451 299.137 48.6451 299.236 48.6649C299.265 48.6649 299.285 48.6945 299.315 48.7043C299.769 48.8327 300.233 48.9709 300.707 49.0992C303.174 49.8099 305.978 50.6094 307.774 52.9291C309.304 54.9033 309.59 57.3612 309.847 59.5328L309.887 59.8684C310.578 65.7811 312.009 71.5951 314.151 77.1525L314.556 78.1988C316.095 82.1274 317.833 86.5891 316.53 91.0212C316.352 91.6233 316.115 92.2254 315.878 92.8177C315.385 94.0614 314.96 95.1374 315.187 96.0455C315.345 96.697 315.868 97.3189 316.599 98.0592C320.518 102.027 323.696 103.883 324.723 103.597C324.95 103.538 325.098 102.945 325.127 102.827C325.285 102.185 325.196 101.386 325.098 100.547C325.019 99.8952 324.95 99.2338 324.96 98.5725C325.009 95.0288 327.496 91.6825 330.882 90.6165C333.35 89.8465 335.749 90.271 338.088 90.6757C339.391 90.9027 340.625 91.1199 341.809 91.1199C342.402 91.1199 342.589 91.0409 342.638 91.0014C342.688 90.9718 342.826 90.8139 343.023 90.2315C343.369 89.2148 343.566 88.1389 343.774 86.9938C343.951 86.0363 344.119 85.0887 344.376 84.1609C345.175 81.2292 346.784 79.0872 348.887 78.1396C350.525 77.3894 352.312 77.419 353.743 77.4585C355.214 77.4881 357.405 77.5671 359.587 77.646C361.087 77.6954 362.558 77.7546 363.831 77.7941L363.891 76.2443C363.96 74.5169 364.029 72.8783 363.94 71.2595C363.92 70.7758 363.871 70.302 363.831 69.8183C363.733 68.6832 363.654 67.5085 363.723 66.324C362.637 64.5966 360.475 63.0271 358.343 61.5169C357.119 60.6482 355.954 59.8289 354.967 58.9504C349.647 54.242 346.942 47.4211 347.9 41.1629C348.344 38.3201 349.479 35.724 350.585 33.2069C351.621 30.8576 352.598 28.6465 352.993 26.2973C353.556 23.0102 350.131 20.4043 347.11 18.1043C346.004 17.2653 344.968 16.4756 344.188 15.6958C341.335 12.8431 344.001 10.0694 345.284 8.7368C345.639 8.37157 346.143 7.84841 346.33 7.54241C345.758 6.19996 344.395 5.17338 342.935 5.02532C340.783 4.78841 338.809 6.26906 337.831 7.17719C336.824 8.10506 335.946 9.19086 335.028 10.3359C334.455 11.0466 333.883 11.7573 333.281 12.4285C329.54 16.6237 324.456 19.6245 318.978 20.8781C318.307 21.036 317.616 21.1643 316.934 21.2927C315.602 21.5394 314.348 21.7764 313.183 22.2008C311.417 22.8424 310.143 23.9282 309.689 25.1522C309.581 25.4385 309.492 25.7543 309.413 26.0603C309.067 27.2843 308.603 28.9525 306.935 29.7126C304.537 30.7885 302.454 28.8933 301.21 27.7582C296.255 23.2471 288.921 22.4377 281.152 22.033C283.906 25.1127 286.907 28.7551 288.388 33.2168C288.832 34.5395 289.128 35.882 289.404 37.1948C289.849 39.2183 290.263 41.1234 291.171 42.762C292.563 45.289 295.317 47.3323 298.91 48.5365V48.5958L298.94 48.6254Z" fill="#EDEEF2"/>
<path d="M533.464 325.24H533.346C532.003 325.279 530.986 325.98 530.335 327.332C528.795 330.55 530.522 333.413 532.783 334.706C534.629 335.762 537.422 336.068 539.209 333.423C540.364 331.715 539.89 330.057 539.298 328.971C538.133 326.858 535.596 325.24 533.464 325.24Z" fill="#EDEEF2"/>
<path d="M141.596 198.615C141.004 199.138 140.905 200.224 141.073 201.063C141.251 201.971 141.685 202.879 142.149 203.846L142.564 204.735C143.758 207.36 144.479 210.134 145.18 212.809C145.515 214.073 145.841 215.346 146.226 216.6C147.618 221.17 149.404 224.181 151.843 226.076C153.56 227.408 155.653 228.218 157.874 229.067C159.414 229.659 161.003 230.271 162.523 231.09C163.826 231.791 165.04 232.63 166.205 233.44C168.228 234.841 170.143 236.164 172.295 236.677C176.244 237.605 180.676 235.897 186.243 231.268C186.667 230.913 187.516 230.202 188.651 230.202C188.75 230.202 188.859 230.202 188.967 230.222C190.32 230.38 191.326 231.456 191.731 233.173C192.422 236.115 192.077 239.046 191.731 241.889C191.356 244.969 191.129 247.506 191.83 249.816C194.258 257.959 207.525 254.899 214.651 253.26L215.204 253.132C224.927 250.901 234.196 246.568 242.024 240.586C244.758 238.336 245.557 236.776 245.785 236.065C216.251 219.689 183.459 207.4 145.555 198.516C144.064 198.171 142.416 197.904 141.606 198.625L141.596 198.615Z" fill="#EDEEF2"/>
<path d="M344.929 283.584C346.577 282.123 348.127 280.751 348.749 278.964C349.499 276.812 348.778 274.374 348.018 271.788C347.288 269.301 346.537 266.734 346.913 264.029C347.001 263.437 347.14 262.825 347.278 262.203C347.653 260.555 347.86 259.43 347.347 258.768C346.873 258.156 345.708 257.949 344.553 257.791L326.193 255.313C325.502 255.225 324.94 254.701 324.792 254.02C322.818 244.959 322.62 235.344 324.209 226.204C324.496 224.555 324.93 222.789 325.848 221.318C322.808 221.357 319.609 221.466 318.474 221.663C317.941 221.762 317.389 221.584 317.004 221.199C315.957 220.143 314.911 219.028 313.865 217.893C310.321 214.092 306.649 210.154 302.207 208.002C300.815 207.331 297.035 208.091 295.613 209.088C294.389 209.946 293.57 211.427 292.77 212.858L291.744 214.675C290.816 216.313 289.937 217.853 289.158 219.492C288.546 220.795 287.499 222.631 285.574 223.499C284.479 223.993 283.353 224.062 282.366 224.121C280.639 224.22 278.862 224.398 277.224 225C275.654 225.582 274.864 226.53 273.769 227.843C273.344 228.346 272.91 228.869 272.407 229.392C270.205 231.712 266.75 231.228 263.977 230.853C262.595 230.656 261.539 230.606 260.463 230.606C257.511 230.606 254.135 230.735 251.687 231.998C250.444 232.64 249.151 233.943 249.072 234.634C249.072 234.693 249.052 234.772 249.289 234.969C249.457 235.108 249.674 235.325 249.95 235.581C251.184 236.756 253.484 238.937 256.1 239.549C258.824 240.181 265.24 239.431 267.481 239.076C267.965 238.997 268.458 239.145 268.823 239.461C269.189 239.777 269.406 240.24 269.406 240.734C269.268 257.949 271.943 270.179 276.542 273.456C278.003 274.493 279.711 274.641 281.744 273.92C289.286 271.216 300.322 277.306 311.989 283.762C321.051 288.766 330.379 293.879 338.473 295.271C338.818 292.142 339.756 289.2 341.79 286.674C342.727 285.509 343.833 284.522 344.909 283.574L344.929 283.584Z" fill="#EDEEF2"/>
<path d="M618.374 137.444C617.881 137.701 617.426 137.839 616.962 137.977L616.538 138.106C614.001 138.945 610.991 142.36 609.994 144.857C609.49 146.121 609.461 147.542 609.49 148.766C609.5 149.141 609.49 149.595 609.49 150.059C609.47 150.908 609.441 152.073 609.628 152.616C610.764 155.873 610.852 159.062 609.895 162.645C609.658 164.846 608.829 166.682 608.019 168.459C607.417 169.791 606.845 171.045 606.549 172.407C606.243 173.799 606.331 175.201 606.795 176.336C606.973 176.76 607.319 177.106 607.763 177.54C608.207 177.975 608.72 178.468 609.135 179.159C609.549 179.84 609.796 180.65 609.885 181.647C610.053 183.621 609.54 185.249 608.365 186.503C606.055 188.951 601.929 189.188 597.833 189.079C597.428 189.079 597.013 189.04 596.599 189.02C595.937 188.981 595.256 188.931 594.605 188.971C593.608 189.04 592.423 189.83 591.288 190.59C590.962 190.807 590.646 191.024 590.331 191.211C586.372 193.679 582.592 196.453 579.739 198.595C579.295 198.931 578.851 199.276 578.416 199.622C577.459 200.382 576.472 201.161 575.396 201.833L574.567 202.336C573.52 202.968 572.533 203.57 571.744 204.33C565.021 210.805 562.09 217.439 563.037 224.032C565.446 229.619 565.367 230.587 564.962 231.416C564.864 231.623 564.706 231.821 564.508 231.988C564.281 232.215 563.886 232.512 562.958 233.232C561.596 234.279 557.776 237.22 556.542 238.799C556.631 238.908 556.7 239.036 556.799 239.145C557.371 239.777 558.763 241.099 560.056 242.323C560.491 242.738 560.915 243.143 561.29 243.508C561.389 243.409 561.478 243.301 561.576 243.202C562.119 242.649 562.929 241.81 564.113 241.494C566.324 240.902 568.338 242.373 569.355 244.09C569.769 244.781 570.046 245.482 570.322 246.163C570.559 246.765 570.796 247.338 571.082 247.812C573.343 251.503 579.522 250.388 583.125 248.73C586.797 247.042 591.397 244.051 592.492 239.382C592.749 238.286 592.798 237.111 592.858 235.868C592.907 234.703 592.966 233.509 593.193 232.285C593.706 229.59 595.513 226.263 598.928 225.78C601.534 225.405 603.548 226.856 605.325 228.129C606.48 228.948 607.565 229.728 608.681 229.965C610.477 230.35 612.491 229.343 614.564 228.178L625.323 222.127C628.877 219.877 631.887 217.054 635.016 214.053C635.707 213.392 636.408 212.72 637.119 212.049C638.698 210.568 639.715 208.91 639.843 207.617C639.883 207.232 639.784 206.719 639.685 206.166C639.577 205.603 639.478 205.031 639.458 204.478C639.409 203.027 639.577 201.586 639.962 200.204C640.169 199.444 640.455 198.704 640.742 197.973C640.771 197.904 640.791 197.835 640.811 197.766L640.988 197.312C642.005 194.627 642.706 192.228 643.14 189.978C643.14 189.958 643.14 189.938 643.14 189.928L642.834 189.859C638.452 188.754 637.849 183.364 637.494 180.136L637.415 179.455C637.297 178.488 637.188 177.511 637.089 176.543C636.882 174.648 636.675 172.743 636.398 170.848C636.29 170.107 636.231 169.318 636.181 168.508C636.083 166.968 635.974 165.369 635.392 164.264L634.632 162.842C633.111 160.049 631.67 157.403 631.572 153.475C631.512 151.333 631.266 149.122 631.019 146.99L630.95 146.378C630.881 145.746 630.831 145.084 630.792 144.413C630.693 142.923 630.594 141.383 630.13 140.188C628.6 136.21 628.136 133.427 628.65 131.186C628.65 130.752 627.821 128.945 627.189 128.116C626.695 127.465 626.448 127.524 626.221 127.593C624.711 127.998 623.448 129.666 622.411 131.245C622.145 131.66 621.868 132.262 621.572 132.904C620.773 134.631 619.865 136.586 618.335 137.464L618.374 137.444Z" fill="#EDEEF2"/>
<path d="M634.138 144.176C634.177 144.788 634.217 145.4 634.276 145.973L634.345 146.575C634.592 148.776 634.849 151.056 634.908 153.356C634.987 156.475 636.122 158.568 637.563 161.214L638.353 162.674C639.271 164.412 639.399 166.455 639.518 168.252C639.567 168.962 639.606 169.663 639.705 170.324C639.991 172.259 640.209 174.204 640.416 176.138C640.524 177.096 640.623 178.063 640.742 179.021L640.821 179.731C641.097 182.249 641.521 186.049 643.673 186.592C644.423 186.75 645.203 186.918 645.825 187.599C646.783 188.665 646.516 190.047 646.417 190.57C646.072 192.396 645.499 194.36 644.799 196.413C647.819 196.019 651.698 195.525 653.653 195.476C654.837 195.436 656.101 195.446 657.354 195.861C659.398 196.542 660.859 198.121 662.142 199.523C663.455 200.944 664.58 202.178 665.962 202.227C666.446 202.198 667.058 202.01 667.699 201.783C668.834 200.836 670.276 199.296 670.769 198.407C670.976 198.032 671.164 196.917 671.243 195.979C670.907 195.189 670.197 193.442 669.979 192.248C669.654 190.432 669.713 188.457 670.137 186.365C670.522 184.499 671.194 182.722 671.963 181.025C672.003 180.926 672.033 180.807 672.092 180.719C673.059 178.646 674.204 176.711 675.32 174.974L684.164 161.174C684.796 160.187 686.178 158.993 688.211 157.295C688.724 156.86 689.396 156.308 689.919 155.844C688.863 155.024 687.046 153.633 685.27 152.27C680.946 148.954 675.566 144.818 672.447 142.113C667.522 137.859 661.717 133.081 655.074 130.209C648.076 127.188 641.038 126.764 635.273 129.014C633.556 129.686 632.499 130.505 632.134 131.433C632.085 131.561 631.996 131.67 631.917 131.778C631.917 131.818 631.917 131.857 631.917 131.897C631.562 133.437 631.996 135.677 633.259 138.954C633.901 140.633 634.019 142.429 634.138 144.166V144.176Z" fill="#EDEEF2"/>
<path d="M644.848 342.533C645.43 341.793 646.092 341.082 646.743 340.362C648.382 338.595 649.922 336.927 649.941 335.012C649.961 333.64 649.596 332.613 648.826 331.873C646.566 329.701 640.988 329.978 637.287 330.145C636.152 330.205 635.105 330.244 634.266 330.244C633.161 330.234 631.739 330.086 630.673 329.099C629.893 328.378 629.578 327.47 629.321 326.74L629.143 326.256C628.551 324.766 627.1 323.413 625.057 322.466C623.764 321.864 622.372 321.439 620.891 320.995C620.131 320.768 619.371 320.541 618.621 320.284C616.607 319.603 614.603 318.725 612.669 317.876C607.822 315.753 603.242 313.76 598.583 314.648L598.218 314.727C597.063 314.964 595.621 315.26 594.22 314.52C592.404 313.562 592.068 311.706 591.821 310.354C591.693 309.614 591.564 308.923 591.268 308.567C590.38 307.482 588.583 306.84 586.915 307.047C584.329 307.343 581.921 309.051 579.798 310.561C578.545 311.45 577.183 312.555 575.741 313.72C571.684 317.017 567.084 320.748 562.337 321.686C560.056 322.13 558.773 321.449 558.072 320.798C557.144 319.929 556.809 318.547 556.483 317.224C556.375 316.77 556.256 316.306 556.118 315.892C556.019 315.605 555.94 315.428 555.881 315.319C555.684 315.388 555.299 315.586 554.677 316.089C554.223 316.454 553.808 316.928 553.364 317.441C552.752 318.142 552.071 318.932 551.173 319.544C550.728 319.85 550.235 320.107 549.741 320.353C549.1 320.669 548.547 320.946 548.27 321.321C547.757 321.992 547.994 323.068 548.438 324.756C548.892 326.483 549.415 328.438 548.626 330.353C547.767 332.426 545.882 333.353 544.213 334.163C543.473 334.528 542.772 334.864 542.22 335.278C540.522 336.532 539.841 339.118 540.699 341.053C540.976 341.675 541.4 342.346 541.844 343.057C543.147 345.12 544.766 347.686 543.078 350.292C542.605 351.013 541.992 351.486 541.45 351.911C541.074 352.207 540.709 352.483 540.561 352.74C540.235 353.312 540.63 354.398 541.015 355.445C541.124 355.741 541.232 356.037 541.321 356.323C542.308 359.314 541.914 362.739 540.255 365.73C538.587 368.721 535.882 370.863 532.822 371.594C530.207 372.225 527.62 371.929 525.123 371.643C524.106 371.524 523.08 371.406 522.053 371.366C517.078 371.13 512.093 372.63 507.286 374.071C501.985 375.66 496.517 377.309 492.213 380.734C489.262 383.083 486.222 389.559 486.389 393.092C486.409 393.398 486.449 393.655 486.518 393.872C487.199 393.635 487.88 393.389 488.551 393.142C493.171 391.405 497.948 389.598 503.9 392.105C505.776 392.836 507.513 393.902 509.191 394.928C511.393 396.281 513.475 397.554 515.765 398.018C519.289 398.729 522.863 397.515 526.643 396.212C529.713 395.156 532.882 394.06 536.238 393.971C537.304 393.932 538.903 394.001 540.275 394.889C542.249 396.182 542.812 398.591 543.147 400.032L545.743 411.028C546.158 412.795 546.622 414.443 547.718 415.233C547.994 415.44 548.31 415.588 548.616 415.746C549.001 415.944 549.386 416.141 549.741 416.378C553.848 419.083 553.403 425.104 553.255 427.078C553.038 429.921 552.781 433.465 554.687 435.311C556.226 436.801 558.862 436.781 560.797 436.278C562.238 435.903 563.61 435.281 565.081 434.63C566.117 434.166 567.163 433.692 568.239 433.307C571.388 432.172 574.735 431.737 578.041 432.014C580.874 429.457 588.07 427.345 599.59 425.736C600.409 425.607 601.248 425.509 602.097 425.4C605.078 425.035 607.901 424.689 610.408 423.278C612.896 421.886 614.85 419.616 615.916 416.911C616.35 415.806 616.923 414.759 617.466 413.762C617.782 413.19 618.088 412.627 618.374 412.045C619.282 410.169 619.953 408.6 620.486 407.09L622.046 402.519C622.54 400.634 623.843 398.749 625.975 396.883C626.587 396.35 627.238 395.837 627.88 395.333C628.837 394.573 629.745 393.853 630.545 393.053C631.838 391.74 632.973 390.072 634.217 387.644C634.72 386.657 635.263 385.521 635.332 384.426C635.411 383.133 634.839 381.79 633.536 380.201C633.18 379.777 632.786 379.293 632.549 378.632C632.164 377.565 632.371 376.43 633.092 375.69C633.635 375.127 634.286 374.96 634.711 374.851C634.799 374.831 634.888 374.811 634.967 374.772C634.967 374.703 634.987 374.229 634.789 373.834C634.612 373.469 634.385 373.133 634.158 372.798C633.704 372.117 633.181 371.337 632.924 370.36C632.233 367.724 633.802 365.217 635.668 363.904C636.102 363.598 636.556 363.341 637.03 363.114C639.034 362.206 642.045 360.824 641.689 354.122C641.324 347.232 642.045 345.988 644.157 343.392L644.838 342.553L644.848 342.533Z" fill="#EDEEF2"/>
<path d="M686.997 162.981L678.153 176.78C677.353 178.024 676.583 179.327 675.872 180.669C675.981 180.709 676.07 180.738 676.178 180.778C677.185 181.133 678.942 181.805 679.604 181.785C679.771 181.755 680.107 181.528 680.433 181.321C684.204 178.873 688.241 176.938 692.475 175.556C692.91 175.418 693.699 175.161 694.588 175.428C695.901 175.833 696.7 177.185 696.572 178.794C696.424 180.817 695.2 182.278 694.124 183.571C693.502 184.322 692.92 185.032 692.594 185.753C692.426 186.148 692.396 186.414 692.436 186.533C692.545 186.888 693.591 187.115 694.726 186.878L695.358 186.74C696.967 186.375 698.971 185.921 700.757 187.046C701.191 187.322 701.616 187.697 702.021 188.092C702.188 188.24 702.406 188.448 702.583 188.596C702.623 188.507 702.672 188.388 702.721 188.221C703.156 186.888 703.373 185.526 703.383 184.144C703.383 182.801 703.383 181.242 704.538 180.087C705.495 179.129 707.025 178.784 708.516 179.179C709.375 179.406 710.095 179.82 710.737 180.186L711.161 180.423C715.485 182.772 720.914 182.634 724.625 182.318C725.03 182.288 725.444 182.249 725.869 182.239C726.303 182.229 726.866 182.249 727.458 182.377C727.044 177.511 724.605 171.312 721.575 168.133C719.344 165.784 716.087 164.086 711.625 162.921C709.917 162.477 707.578 161.697 705.11 160.868C701.103 159.526 696.226 157.897 693.068 157.433C692.456 158.104 691.548 158.874 690.353 159.871C689.1 160.918 687.382 162.359 686.977 162.99L686.997 162.981Z" fill="#EDEEF2"/>
<path d="M559.05 245.936C558.665 245.561 558.22 245.146 557.766 244.712C556.394 243.409 554.973 242.057 554.351 241.376C552.702 239.569 551.923 237.348 551.172 235.206C550.511 233.311 549.889 231.524 548.715 230.221C548.182 229.619 547.609 229.086 547.066 228.573C544.687 226.293 541.726 223.46 545.28 218.357C545.892 217.478 546.582 216.708 547.254 215.958C548.053 215.06 548.813 214.211 549.356 213.283C550.264 211.713 550.689 209.107 550.156 208.377C550.018 208.189 549.485 208.239 549.04 208.347C548.754 208.417 548.468 208.505 548.182 208.594C547.57 208.782 546.889 208.999 546.119 209.068C540.976 209.522 536.672 202.119 533.839 197.213C533.474 196.581 533.158 196.028 532.882 195.584C532.625 195.16 532.566 194.637 532.734 194.163C534.066 190.363 535.063 186.345 536.021 182.456C537.343 177.086 537.541 173.148 534.51 169.9C533.089 168.696 530.72 167.482 527.581 166.425C526.347 166.258 525.429 166.327 524.847 166.445C524.876 166.465 524.896 166.485 524.926 166.504C525.261 166.692 525.488 166.83 525.676 166.968C526.939 167.768 529.2 170.492 528.045 173.266L527.818 173.809C526.219 177.668 524.837 180.995 522.379 184.618C521.708 185.615 520.957 186.651 519.911 187.441C519.181 187.993 518.381 188.369 517.68 188.694L517.088 188.981C515.321 189.849 513.9 191.004 512.992 192.317C511.422 194.587 511.59 197.825 511.748 200.954C511.817 202.247 511.886 203.59 511.827 204.853C511.787 205.86 511.827 206.817 511.856 207.755C511.945 210.055 512.044 212.444 510.978 215.129C509.882 217.903 508.026 220.114 506.23 222.246C505.815 222.739 505.401 223.223 504.996 223.726C499.419 230.626 495.303 239.589 492.786 250.368C491.581 255.531 491.167 260.397 490.92 264.484C490.851 265.589 490.673 266.912 490.486 268.323C490.081 271.265 489.588 274.937 490.249 277.03C490.614 278.155 491.483 279.122 492.687 278.974C493.605 277.938 494.76 277.118 496.27 276.872C500.505 276.151 503.111 280.06 505.006 282.903C505.48 283.614 505.914 284.275 506.348 284.808C507.642 286.397 508.303 286.456 508.54 286.397C509.053 286.279 509.537 285.351 510.001 284.453C510.741 283.021 511.768 281.067 514.008 280.84C516.604 280.583 517.976 282.774 518.973 284.383C519.21 284.768 519.447 285.144 519.694 285.479C521.569 288.036 525.597 288.085 527.235 288.006C531.006 287.789 534.649 286.674 538.508 285.479C543.236 284.018 548.122 282.518 553.265 282.844C553.877 282.883 554.45 282.952 554.973 283.051C554.134 279.714 553.709 276.556 553.709 273.644C553.709 272.716 553.838 271.729 553.966 270.781C554.213 268.926 554.469 267.011 553.699 265.747C553.423 265.283 552.959 264.829 552.475 264.355C551.696 263.585 550.817 262.717 550.343 261.473C549.09 258.216 551.548 254.968 552.466 253.744C554.499 251.039 556.71 248.463 558.99 245.966L559.05 245.936Z" fill="#EDEEF2"/>
<path d="M556.937 291.175C557.974 288.273 556.967 287.503 556.542 287.167C556.226 286.92 555.851 286.723 555.407 286.565C554.775 286.348 554.025 286.21 553.097 286.15C548.586 285.864 544.184 287.207 539.535 288.648C535.655 289.842 531.648 291.086 527.472 291.313C524.748 291.441 519.783 291.165 517.049 287.434C516.752 287.039 516.476 286.585 516.19 286.131C515.598 285.173 514.828 284.058 514.393 284.147C513.939 284.196 513.465 285.104 513.001 285.983C512.271 287.394 511.353 289.151 509.349 289.625C506.556 290.286 504.483 287.73 503.802 286.891C503.308 286.289 502.805 285.539 502.272 284.739C500.396 281.936 498.837 279.794 496.843 280.149C495.609 280.346 494.543 281.63 493.467 284.186C491.048 289.951 489.193 295.992 487.979 302.132C487.742 303.316 487.603 304.55 487.455 305.784C486.952 310.038 486.37 314.865 482.086 317.935C481.069 318.665 479.963 319.169 478.897 319.662C477.476 320.314 476.143 320.926 475.344 321.943C474.761 322.693 474.426 323.719 474.08 324.795C473.873 325.417 473.676 326.039 473.429 326.631C471.889 330.333 468.77 332.88 466.026 335.13L465.344 335.683C462.531 338.003 460.656 340.322 458.188 343.797C455.572 347.469 452.591 352.316 452.67 357.261C452.7 359.285 453.302 361.19 454.338 362.641C454.654 363.075 455.098 363.519 455.572 363.983C456.737 365.118 458.178 366.54 458.306 368.761C458.356 369.57 458.198 370.32 458.06 370.982C457.931 371.623 457.803 372.225 457.941 372.531C458.119 372.906 458.938 373.262 459.422 373.459C465.335 375.976 471.257 378.484 477.18 380.991C481.158 382.787 487.998 379.431 490.298 377.99C495.076 374.239 501.058 372.433 506.339 370.853C511.175 369.402 516.654 367.744 522.221 368.01C523.317 368.06 524.412 368.188 525.508 368.307C527.828 368.563 530.009 368.81 532.052 368.326C534.204 367.803 536.139 366.253 537.353 364.082C538.567 361.91 538.863 359.442 538.172 357.34C538.084 357.083 537.995 356.817 537.896 356.56C537.314 354.961 536.593 352.977 537.679 351.062C538.153 350.223 538.854 349.68 539.426 349.246C539.791 348.969 540.137 348.703 540.295 348.446C540.788 347.686 540.147 346.571 539.041 344.804C538.548 344.034 538.044 343.224 537.669 342.385C537.136 341.191 536.939 339.908 537.027 338.634C536.534 338.733 536.03 338.822 535.507 338.822C534.066 338.822 532.566 338.427 531.134 337.608C527.462 335.505 524.985 330.807 527.344 325.891C528.538 323.394 530.641 321.982 533.267 321.913C533.336 321.913 533.395 321.913 533.464 321.913C536.81 321.913 540.472 324.183 542.22 327.382C542.851 328.536 543.177 329.741 543.226 330.925C544.312 330.382 545.22 329.869 545.546 329.069C545.911 328.191 545.566 326.937 545.22 325.605C544.717 323.69 544.075 321.311 545.625 319.287C546.375 318.31 547.372 317.807 548.251 317.372C548.606 317.195 548.971 317.017 549.297 316.79C549.84 316.415 550.333 315.852 550.857 315.26C551.37 314.668 551.903 314.046 552.584 313.503C553.63 312.644 555.239 311.588 556.878 312.062C557.539 312.249 557.983 312.664 558.349 313.098C559.257 312.486 559.849 311.795 560.125 311.006C560.886 308.804 559.306 305.764 558.043 303.316C557.776 302.803 557.52 302.299 557.293 301.835L556.927 301.115C556.345 299.97 555.674 298.667 555.535 297.147C555.358 295.291 556.009 293.613 556.572 292.122L556.927 291.185L556.937 291.175Z" fill="#EDEEF2"/>
<path d="M719.887 222.502C716.926 222.66 713.708 223.598 710.056 225.365C709.552 225.612 709.039 225.868 708.535 226.125C705.574 227.625 702.514 229.165 699.069 229.165C698.852 229.165 698.635 229.165 698.418 229.146C696.039 229.007 693.926 228.119 691.873 227.26L690.709 226.777C689.08 226.125 686.948 225.365 684.816 225.365H684.796C683.137 225.365 680.216 226.115 678.528 226.964C679.781 228.524 680.926 230.143 681.963 231.761C682.989 231.771 684.697 232.058 687.708 233.015C687.964 233.114 691.844 234.614 693.808 235.66C695.516 236.569 697.253 237.723 699.267 239.313L700.352 240.181L700.56 240.339C701.517 241.099 702.465 241.869 703.462 242.58C703.896 242.886 704.469 243.35 704.972 243.922C710.204 237.714 719.394 227.458 719.838 226.964C721.131 225.365 722.256 223.49 722.671 222.344C722.049 222.404 721.437 222.433 720.854 222.453L719.907 222.493L719.887 222.502Z" fill="#EDEEF2"/>
<path d="M651.777 368.178C651.353 367.912 650.929 367.645 650.544 367.379C649.28 366.49 648.293 365.868 647.335 365.355C646.97 365.158 646.605 364.98 646.22 364.802C645.026 364.259 643.594 364.556 642.124 364.931L641.808 365.01C640.633 365.306 639.508 365.592 638.54 366.056C638.531 366.056 638.521 366.066 638.511 366.076C638.195 366.234 637.889 366.401 637.613 366.599C636.695 367.25 635.895 368.455 636.171 369.491C636.29 369.935 636.596 370.389 636.951 370.922C637.257 371.386 637.573 371.86 637.81 372.364C638.234 373.252 638.531 374.644 638.067 375.927C637.751 376.786 637.168 377.427 636.349 377.793C636.24 377.842 636.122 377.881 636.004 377.921C636.033 377.95 636.053 377.98 636.083 378.01C637.297 379.5 638.837 381.731 638.669 384.603C638.56 386.341 637.849 387.861 637.188 389.144C636.241 390.99 634.898 393.369 632.924 395.373C631.986 396.33 630.95 397.149 629.953 397.929C629.351 398.403 628.748 398.877 628.176 399.38C626.557 400.792 625.6 402.134 625.244 403.467L624.257 406.359C624.691 406.784 625.067 407.307 625.402 407.84C626.518 409.646 627.692 410.88 629.114 411.729L629.449 411.926C630.278 412.371 631.226 412.578 632.233 412.795C633.111 412.983 634.01 413.18 634.938 413.545C635.036 413.585 635.095 413.644 635.184 413.683C636.25 411.709 637.711 408.995 638.234 408.067C638.955 406.774 639.952 405.777 640.909 404.819L641.186 404.543C650.129 395.521 655.153 384.08 654.966 373.163C654.946 371.988 654.847 371.061 654.443 370.37C653.939 369.511 652.843 368.83 651.787 368.168L651.777 368.178Z" fill="#EDEEF2"/>
<path d="M677.531 255.857C676.524 253.537 676.672 251.276 677.926 249.806C678.666 248.937 679.633 248.513 680.413 248.157C680.709 248.029 681.005 247.901 681.282 247.743C682.999 246.756 683.572 244.386 683.374 242.61C683.128 240.339 681.923 238.158 680.719 236.115C677.639 230.913 673.701 225.187 667.877 222.177C662.892 219.591 655.44 219.413 651.442 224.161C650.909 224.802 650.425 225.533 649.932 226.293C649.241 227.359 648.52 228.465 647.553 229.442C645.578 231.446 642.232 232.62 639.676 231.001C637.603 229.689 637.08 227.379 636.625 225.336C636.201 223.44 635.885 222.256 635.007 221.802C633.97 221.259 632.322 222.029 630.851 222.848L627.021 225C626.666 225.217 626.34 225.474 625.975 225.681C625.846 225.76 625.698 225.78 625.56 225.819L616.222 231.071C614.218 232.196 611.198 233.894 608.01 233.213C606.233 232.828 604.742 231.771 603.429 230.834C601.969 229.797 600.735 228.879 599.432 229.067C597.872 229.284 596.816 231.209 596.5 232.887C596.312 233.874 596.263 234.91 596.214 236.006C596.155 237.339 596.085 238.721 595.76 240.122C594.358 246.114 588.88 249.746 584.536 251.74C578.93 254.317 571.447 254.721 568.269 249.529C567.825 248.809 567.539 248.078 567.252 247.368C567.035 246.825 566.818 246.272 566.522 245.759C566.117 245.068 565.416 244.574 565.012 244.683C564.706 244.762 564.291 245.186 563.985 245.502C560.856 248.7 557.905 252.135 555.2 255.728C553.66 257.781 553.127 259.213 553.522 260.259C553.739 260.832 554.272 261.355 554.884 261.957C555.466 262.529 556.128 263.181 556.621 264.01C557.993 266.28 557.638 268.896 557.332 271.206C557.214 272.084 557.105 272.914 557.105 273.624C557.105 277.03 557.766 280.83 559.04 284.917C560.382 286.19 561.468 288.431 560.086 292.29C559.968 292.626 559.829 292.971 559.701 293.307C559.217 294.561 558.763 295.745 558.872 296.821C558.951 297.7 559.425 298.618 559.918 299.585L560.313 300.365C560.53 300.809 560.767 301.273 561.024 301.766C562.583 304.777 564.518 308.528 563.294 312.072C562.722 313.72 561.488 315.082 559.671 316.168C559.691 316.257 559.721 316.326 559.741 316.415C559.898 317.047 560.155 318.103 560.372 318.35C560.471 318.438 560.876 318.567 561.705 318.399C565.633 317.629 569.898 314.174 573.659 311.124C575.139 309.92 576.541 308.785 577.883 307.827C580.213 306.179 583.115 304.126 586.55 303.731C589.353 303.395 592.255 304.471 593.864 306.455C594.694 307.472 594.921 308.686 595.108 309.752C595.306 310.848 595.444 311.381 595.789 311.568C596.125 311.746 596.885 311.588 597.556 311.45L597.961 311.371C603.647 310.275 608.928 312.585 614.021 314.826C615.887 315.645 617.821 316.494 619.707 317.136C620.417 317.382 621.138 317.59 621.859 317.807C623.379 318.261 624.958 318.735 626.468 319.445C628.462 320.373 631.078 322.101 632.243 325.022C632.322 325.22 632.391 325.427 632.47 325.634C632.618 326.059 632.766 326.493 632.944 326.651C633.121 326.809 633.575 326.898 634.316 326.908C635.115 326.947 636.073 326.868 637.129 326.819C641.67 326.602 647.849 326.296 651.146 329.474C652.587 330.866 653.307 332.742 653.288 335.051C653.248 338.25 651.096 340.579 649.201 342.632C648.599 343.274 648.007 343.925 647.474 344.597L646.753 345.485C645.154 347.449 644.72 347.972 645.036 353.934C645.203 357.162 644.7 359.492 643.831 361.259C645.055 361.14 646.339 361.2 647.602 361.782C648.046 361.979 648.49 362.196 648.915 362.433C649.991 363.016 651.086 363.697 652.459 364.664C652.804 364.901 653.169 365.138 653.544 365.375C654.344 365.878 655.193 366.441 655.953 367.122C655.953 367.122 655.953 367.122 655.963 367.112C658.124 365.049 661.086 362.226 662.922 355.8C665.676 343.679 665.301 330.797 664.935 318.33C664.738 311.539 664.531 304.52 664.827 297.621C664.935 295.015 665.172 292.29 666.692 289.971C667.916 288.105 669.683 286.94 671.391 285.805L672.112 285.321C679.811 280.119 685.645 272.183 688.369 263.309C686.721 263.21 685.052 262.776 683.513 262.016C680.788 260.683 678.666 258.502 677.531 255.866V255.857Z" fill="#EDEEF2"/>
<path d="M701.507 245.304C700.461 244.564 699.464 243.765 698.447 242.955L698.24 242.787L697.174 241.929C695.328 240.468 693.749 239.411 692.219 238.602C690.432 237.654 686.612 236.174 686.573 236.154C685.783 235.907 684.944 235.68 684.184 235.493C685.349 237.546 686.405 239.757 686.671 242.244C686.987 245.156 685.951 248.878 682.93 250.625C682.555 250.842 682.15 251.03 681.746 251.207C681.203 251.444 680.689 251.671 680.443 251.967C679.959 252.53 680.206 253.705 680.571 254.534C681.38 256.409 682.98 258.048 684.964 259.015C686.503 259.775 688.191 260.071 689.8 259.923C692.061 257.564 695.723 252.441 697.737 249.352C697.924 249.075 698.181 248.848 698.497 248.72L699.306 248.394C700.56 247.891 701.971 247.328 702.81 246.548C702.781 246.538 702.406 245.956 701.488 245.304H701.507Z" fill="#EDEEF2"/>
<path d="M727.35 200.569C726.817 200.076 725.395 198.99 723.905 199.72C723.322 199.997 722.779 200.569 722.217 201.162C721.812 201.586 721.397 202.01 720.953 202.386C718.614 204.36 715.731 204.834 712.948 205.297C711.053 205.613 709.276 205.909 707.746 206.65C706.66 207.173 705.663 207.943 704.617 208.762C704.232 209.068 703.837 209.364 703.442 209.66C702.07 210.667 699.968 212.02 697.51 212.158C695.081 212.286 692.229 211.013 691.409 208.288C690.541 205.376 692.426 202.928 693.946 200.964L694.479 200.263C694.736 199.928 694.864 199.632 694.923 199.444C694.854 199.434 694.756 199.414 694.627 199.395C692.475 199.128 690.195 199.651 688.399 200.875C687.708 201.349 687.056 201.912 686.405 202.474C684.648 203.994 682.654 205.712 679.949 205.771C678.281 205.801 676.8 205.169 675.497 204.606C674.382 204.123 673.346 203.659 672.368 203.718C671.618 203.758 670.809 204.113 669.94 204.498C669.752 204.577 669.565 204.666 669.368 204.745C669.16 204.903 668.963 205.041 668.775 205.159C668.499 205.337 668.193 205.416 667.887 205.416C667.788 205.416 667.709 205.367 667.62 205.347C667.068 205.485 666.485 205.584 665.873 205.554C663.099 205.465 661.293 203.501 659.704 201.774C658.588 200.569 657.542 199.424 656.328 199.02C655.588 198.773 654.689 198.773 653.762 198.802C651.876 198.852 647.602 199.414 644.769 199.78L643.594 199.928C643.456 200.313 643.298 200.688 643.19 201.083C642.894 202.129 642.765 203.234 642.805 204.34C642.815 204.735 642.903 205.13 642.973 205.524C643.101 206.235 643.259 207.045 643.17 207.913C642.894 210.796 640.702 213.244 639.419 214.448C638.718 215.099 638.027 215.761 637.346 216.422C636.665 217.074 635.964 217.735 635.273 218.396C635.698 218.485 636.122 218.613 636.537 218.831C638.856 220.035 639.419 222.562 639.873 224.595C640.219 226.135 640.544 227.606 641.452 228.168C642.469 228.8 644.147 228.129 645.184 227.083C645.914 226.342 646.506 225.424 647.138 224.457C647.671 223.638 648.224 222.789 648.895 221.999C654.008 215.919 663.277 216.017 669.417 219.206C672.052 220.568 674.303 222.384 676.287 224.427C678.784 222.868 682.901 222.029 684.806 222.029H684.825C687.53 222.029 690.057 222.917 691.962 223.687L693.166 224.19C695.042 224.97 696.809 225.711 698.615 225.819C701.428 225.967 704.163 224.605 707.045 223.154C707.568 222.887 708.091 222.621 708.615 222.374C712.671 220.4 716.314 219.354 719.729 219.176C720.075 219.156 720.41 219.146 720.756 219.137C721.881 219.107 722.937 219.077 723.796 218.732C724.961 218.258 725.997 217.113 726.965 215.218C728.781 211.644 730.183 206.413 728.672 202.464C728.416 201.783 727.952 201.112 727.379 200.579L727.35 200.569Z" fill="#EDEEF2"/>
<path d="M727.231 185.783C726.974 185.615 726.52 185.555 725.958 185.555C725.612 185.555 725.267 185.595 724.931 185.625C720.795 185.97 714.695 186.118 709.592 183.335L709.118 183.068C708.614 182.782 708.131 182.505 707.687 182.387C707.302 182.278 706.996 182.347 706.927 182.417C706.739 182.604 706.739 183.404 706.739 183.937C706.739 185.881 706.453 187.589 705.92 189.247C705.752 189.77 705.229 191.389 703.649 191.912C701.863 192.515 700.55 191.271 699.76 190.521C699.513 190.284 699.267 190.047 699 189.879C698.378 189.484 697.223 189.751 696.118 190.007L695.437 190.155C693.008 190.659 690.057 190.067 689.267 187.54C688.981 186.602 689.08 185.516 689.554 184.42C690.067 183.265 690.866 182.298 691.577 181.449C692.357 180.511 693.038 179.682 693.226 178.823C689.376 180.117 685.704 181.883 682.298 184.095C681.716 184.47 681.045 184.914 680.176 185.072C679.002 185.279 677.393 184.756 675.063 183.917C674.866 183.848 674.668 183.779 674.471 183.7C674.046 184.786 673.671 185.891 673.434 187.036C673.099 188.685 673.049 190.284 673.296 191.656C673.444 192.475 674.106 194.143 674.491 195.002C674.599 195.239 674.648 195.496 674.629 195.762C674.609 196.236 674.461 198.674 673.721 200.026C673.651 200.155 673.553 200.303 673.464 200.441C674.698 200.609 675.813 201.102 676.84 201.546C677.926 202.02 678.932 202.405 679.9 202.435C681.41 202.405 682.723 201.27 684.253 199.947C684.983 199.316 685.734 198.674 686.553 198.111C689.021 196.433 692.13 195.703 695.101 196.088C695.802 196.187 696.809 196.404 697.549 197.213C698.694 198.486 698.556 200.421 697.184 202.267L696.621 203.007C695.466 204.518 694.262 206.067 694.637 207.341C694.933 208.338 696.226 208.861 697.352 208.831C698.566 208.762 699.839 208.19 701.497 206.975C701.873 206.699 702.238 206.413 702.613 206.127C703.758 205.238 704.933 204.33 706.334 203.649C708.289 202.701 710.401 202.356 712.444 202.01C714.892 201.606 717.212 201.221 718.851 199.839C719.206 199.543 719.532 199.197 719.857 198.862C720.568 198.111 721.378 197.272 722.503 196.729C724.694 195.663 727.271 196.117 729.353 197.874C729.274 193.847 728.899 189.376 728.218 187.411C728.001 186.799 727.705 186.059 727.28 185.783H727.231Z" fill="#EDEEF2"/>
<path d="M497.129 541.443C496.596 540.752 496.073 539.558 496.586 537.791C497.099 536.024 498.452 534.869 499.646 533.853L499.765 533.754C500.347 533.25 500.86 532.786 501.196 532.263C501.63 531.582 501.522 531.128 501.374 530.812C500.969 529.944 499.686 529.134 498.462 528.976C497.662 528.868 496.813 528.878 495.905 528.878C494.424 528.887 492.875 528.887 491.315 528.414C488.719 527.614 486.834 525.669 485.175 523.952C484.84 523.606 484.504 523.261 484.159 522.925C478.868 517.723 471.622 514.831 466.638 513.114C456.767 509.708 448.82 508.691 441.625 509.935C431.625 511.653 422.929 517.931 415.733 523.843C408.912 529.45 402.121 535.748 394.964 543.111C391.895 546.26 388.993 549.399 387.157 553.121C386.702 554.039 386.604 555.016 386.762 555.44C387.097 555.648 387.847 555.292 388.341 555.055L388.835 554.828C393.958 552.548 400.808 555.045 404.085 560.386C404.48 561.037 404.835 561.718 405.191 562.409C405.744 563.495 406.277 564.522 406.987 565.321C407.826 566.269 409.317 566.96 410.235 566.407C410.403 566.298 410.561 566.17 410.728 566.042C411.222 565.647 411.834 565.153 412.712 564.956C412.969 564.897 413.206 564.877 413.443 564.877C414.706 564.877 415.772 565.578 416.384 565.982C425.861 572.191 435.662 578.607 444.615 585.951C446.165 587.225 447.735 588.636 448.426 590.66C449.314 593.295 448.396 595.862 447.587 598.122C447.369 598.724 447.152 599.327 446.975 599.929C446.244 602.377 446.195 605.072 446.827 607.322C446.846 607.391 446.866 607.441 446.876 607.48C447.429 607.302 448.465 606.562 448.939 606.217C449.196 606.029 449.432 605.861 449.65 605.713C453.647 603.028 457.694 599.702 462.018 595.536C466.499 591.223 470.744 586.534 474.485 582.398C484.089 571.797 495.944 558.698 500.209 543.161C499.083 542.944 497.909 542.46 497.139 541.453L497.129 541.443Z" fill="#EDEEF2"/>
<path d="M631.522 416.072C630.387 415.825 629.104 415.549 627.84 414.868L627.396 414.611C625.649 413.575 624.218 412.143 622.895 410.14C622.47 411.186 621.967 412.292 621.375 413.506C621.069 414.128 620.733 414.749 620.398 415.361C619.874 416.319 619.381 417.217 619.026 418.125C617.683 421.551 615.205 424.413 612.047 426.19C608.967 427.917 605.68 428.322 602.511 428.707C601.702 428.806 600.893 428.904 600.083 429.033C591.456 430.237 585.978 431.658 582.898 432.951C583.233 433.05 583.569 433.139 583.895 433.257C585.099 433.682 586.787 434.442 587.527 436.12C588.021 437.245 587.971 438.538 587.389 439.782C586.984 440.641 586.333 441.46 585.553 442.082C584.941 442.566 584.28 442.971 583.609 443.355C582.947 443.75 582.315 444.116 581.822 444.57C581.506 444.856 581.239 445.182 580.993 445.547C583.135 444.678 585.721 443.652 588.386 443.138C591.354 442.566 593.558 442.174 595 441.964C598.938 441.381 602.936 440.927 606.884 440.621C608.918 440.453 611.287 440.276 613.656 440.335C614.811 440.355 615.956 440.444 617.101 440.572C617.436 440.611 617.782 440.68 618.137 440.75C618.601 440.848 619.144 440.957 619.381 440.878C619.46 440.858 619.618 440.75 619.815 440.523C620.694 439.496 620.911 438.094 621.168 436.475C621.414 434.857 621.701 433.021 622.786 431.412C624.04 429.536 626.439 428.845 628.758 428.164C630.841 427.552 633.003 426.93 633.457 425.627C633.496 425.43 633.378 424.759 633.299 424.354C633.2 423.831 633.121 423.337 633.121 422.942C633.111 422.143 633.289 421.205 633.477 420.208C633.654 419.28 634.069 417.118 633.723 416.674C633.042 416.418 632.312 416.26 631.532 416.082L631.522 416.072Z" fill="#EDEEF2"/>
<path d="M394.254 354.003L395.31 353.076C396.554 352.009 398.064 350.825 399.89 350.124C404.421 348.367 409.179 350.025 413.384 351.486C414.341 351.822 415.299 352.158 416.246 352.444C420.817 353.855 427.499 352.029 432.849 350.549C437.311 349.325 440.539 348.436 442.513 349.275C445.849 350.667 444.763 354.211 444.122 356.333C443.816 357.33 443.312 358.988 443.628 359.403C444.704 360.795 447.695 361.604 450.074 361.584C449.61 360.262 449.344 358.83 449.314 357.33C449.215 351.417 452.542 345.968 455.444 341.882C457.586 338.871 459.797 335.93 463.202 333.126L463.893 332.564C466.46 330.471 469.115 328.299 470.329 325.368C470.546 324.854 470.714 324.312 470.892 323.779C471.297 322.525 471.761 321.113 472.708 319.899C474.001 318.241 475.857 317.392 477.505 316.642C478.473 316.198 479.381 315.783 480.141 315.24C483.231 313.029 483.675 309.327 484.139 305.409C484.297 304.086 484.455 302.773 484.711 301.5C485.975 295.133 487.89 288.875 490.397 282.903C490.515 282.626 490.634 282.34 490.772 282.054C489.124 281.462 487.752 280.03 487.11 278.036C486.212 275.223 486.745 271.314 487.219 267.869C487.396 266.557 487.574 265.313 487.633 264.286C487.88 260.061 488.314 255.017 489.568 249.608C490.594 245.235 491.878 241.149 493.398 237.348C479.539 236.361 465.581 235.305 451.604 234.249C436.857 233.124 422.11 232.008 407.501 230.982C400.65 230.498 394.589 229.787 389.822 225.918C385.607 222.502 383.583 217.458 381.619 212.572C380.04 208.634 378.539 204.883 376.002 202.099C374.522 207.508 373.841 213.076 373.979 218.702C373.989 219.146 373.831 219.571 373.525 219.896C373.219 220.222 372.794 220.4 372.36 220.41L333.557 221.318C331.909 221.357 330.566 221.446 329.619 222.078C328.306 222.966 327.802 224.96 327.487 226.796C326.035 235.127 326.154 243.883 327.812 252.194L344.998 254.514C346.35 254.702 348.62 255.007 349.973 256.745C351.493 258.699 350.96 261.068 350.525 262.964C350.407 263.487 350.288 264.01 350.219 264.513C349.943 266.507 350.565 268.62 351.216 270.87C352.095 273.841 352.993 276.911 351.897 280.07C350.989 282.676 349.035 284.413 347.14 286.091C346.123 286.989 345.165 287.838 344.405 288.786C340.901 293.139 341.414 299.595 342.253 305.843L345.156 327.579C345.333 328.892 345.531 330.382 346.241 331.379C347.13 332.623 348.867 333.225 350.604 333.699C355.244 334.962 362.795 334.893 367.8 334.844C371.61 334.814 372.962 334.814 373.742 335.12C375.874 335.949 375.588 338.93 375.292 342.079C375.193 343.165 375.074 344.389 375.153 344.893C375.4 346.462 377.019 349.927 378.835 352.217C380.434 354.24 386.12 360.469 392.151 355.82C392.882 355.257 393.573 354.645 394.264 354.033L394.254 354.003Z" fill="#EDEEF2"/>
<path d="M435.139 454.026C435.179 453.967 435.218 453.917 435.248 453.858C436.62 451.568 438.298 449.278 440.341 446.968C442.631 444.382 445.139 441.579 448.07 439.279C452.453 435.163 458.504 429.26 462.709 423.584C464.357 421.353 465.858 418.194 467.447 414.848C470.902 407.554 475.146 398.62 483.408 395.017C483.241 394.514 483.102 393.951 483.073 393.241C482.944 390.566 484.089 386.933 485.797 383.745C483.941 384.367 481.888 384.86 479.865 384.86C478.463 384.86 477.091 384.633 475.837 384.061C469.954 381.573 464.032 379.066 458.119 376.549C457.191 376.154 455.651 375.502 454.931 373.972C454.299 372.66 454.575 371.357 454.792 370.31C454.901 369.807 455 369.333 454.98 368.958C454.931 368.07 454.279 367.389 453.233 366.362C452.729 365.868 452.226 365.355 451.782 364.773C451.219 364.862 450.627 364.911 449.995 364.911C446.669 364.911 442.76 363.707 441.003 361.417C439.631 359.64 440.331 357.36 440.943 355.336C441.674 352.947 441.625 352.493 441.24 352.325C440.322 351.95 436.669 352.937 433.747 353.747C427.963 355.336 420.787 357.31 415.279 355.612C414.292 355.306 413.305 354.961 412.308 354.615C408.3 353.214 404.51 351.891 401.114 353.214C399.772 353.727 398.607 354.645 397.541 355.553C394.807 358.179 385.854 367.073 382.991 373.37C380.079 379.806 380.109 387.446 380.138 394.188L380.237 416.674C380.257 420.406 380.434 423.949 382.468 426.229C385.34 429.447 390.927 428.983 394.876 428.352C399.811 427.562 405.951 426.575 410.462 429.99C414.746 433.228 415.654 438.894 415.98 444.007C416.009 444.392 416.029 444.856 416.049 445.369C416.167 448.034 416.444 454.273 418.576 455.339C419.198 455.655 421.024 455.507 422.119 455.418C422.84 455.359 423.511 455.26 424.044 455.319H424.064C425.189 455.319 426.334 455.339 427.479 455.368C428.309 455.388 429.138 455.398 429.967 455.408H430.49C432.889 455.467 434.251 455.408 435.159 454.016L435.139 454.026Z" fill="#EDEEF2"/>
<path d="M520.247 508.474C519.862 507.744 519.467 506.994 519.161 506.105C518.47 504.091 518.806 501.979 519.181 500.36L519.378 499.551C519.882 497.517 521.135 492.375 519.595 491.012C515.41 492.927 510.307 493.016 505.411 492.799L503.17 492.69C497.395 492.404 490.841 492.079 485.846 494.398C483.586 495.445 481.562 497.172 480.141 499.274C479.095 500.814 477.89 501.782 475.482 501.525C470.833 501.022 466.371 499.669 462.048 498.376L460.271 497.843C457.517 497.024 455.187 496.392 452.808 495.908L451.88 495.721C449.729 495.267 447.685 494.842 445.77 495.287C444.201 495.652 443.816 498.751 443.609 500.429C443.47 501.525 443.49 502.315 443.668 502.986C444.063 504.486 445.76 505.72 447.162 506.076C453.272 505.997 459.965 507.26 467.733 509.945C473.034 511.771 480.743 514.861 486.508 520.537C486.863 520.892 487.218 521.257 487.574 521.622C489.094 523.192 490.535 524.663 492.312 525.215C493.388 525.551 494.602 525.541 495.895 525.531C496.862 525.531 497.869 525.531 498.906 525.66C501.304 525.975 503.515 527.476 504.404 529.401C505.105 530.921 504.966 532.569 504.009 534.07C503.436 534.958 502.676 535.649 501.956 536.281L501.828 536.389C500.91 537.169 500.041 537.909 499.804 538.729C499.755 538.887 499.666 539.252 499.784 539.41C499.992 539.676 500.732 539.933 501.758 539.972C508.145 534.948 519.339 525.966 521.254 516.687C521.658 514.713 521.678 512.788 521.293 510.962C521.115 510.103 520.691 509.313 520.257 508.464L520.247 508.474Z" fill="#EDEEF2"/>
<path d="M583.46 439.466C583.845 439.16 584.171 438.756 584.359 438.351C584.477 438.094 584.596 437.729 584.467 437.443C584.22 436.89 583.135 436.505 582.779 436.377C578.515 434.876 573.629 434.896 569.375 436.426C568.378 436.781 567.41 437.216 566.453 437.65C564.933 438.331 563.353 439.042 561.646 439.486C557.993 440.444 554.519 439.772 552.377 437.69C549.346 434.758 549.692 430.168 549.939 426.812C550.245 422.745 549.583 420.238 547.915 419.142C547.658 418.974 547.382 418.836 547.116 418.698C546.652 418.461 546.188 418.214 545.763 417.908C543.582 416.319 542.94 413.585 542.506 411.768L539.91 400.772C539.604 399.479 539.239 398.166 538.449 397.643C538.015 397.357 537.353 397.248 536.346 397.268C533.503 397.357 530.71 398.314 527.739 399.331C523.702 400.723 519.516 402.154 515.114 401.256C512.241 400.664 509.813 399.183 507.464 397.742C505.835 396.745 504.305 395.807 502.667 395.165C497.899 393.162 494.118 394.583 489.745 396.232C488.67 396.636 487.584 397.041 486.468 397.406C486.468 397.406 486.468 397.406 486.449 397.406C486.449 397.406 486.439 397.406 486.429 397.416C478.216 399.913 474.1 408.6 470.467 416.26C468.809 419.754 467.24 423.061 465.394 425.558C463.064 428.697 460.212 431.895 457.369 434.827C459.718 434.294 462.008 434.057 463.943 433.948C476.341 433.317 488.265 437.512 498.777 441.233C500.238 441.747 502.064 442.398 503.456 443.75C505.588 445.833 505.924 448.567 506.22 450.986C506.279 451.489 506.348 451.993 506.418 452.486C506.714 454.342 507.553 456.208 508.994 458.201C509.251 458.557 509.507 458.892 509.754 459.208C511.057 460.906 512.409 462.653 512.123 465.674C512.113 465.832 512.064 466.276 512.093 466.503C512.153 466.503 512.261 466.503 512.429 466.513C513.051 466.542 513.673 466.473 514.295 466.424C515.262 466.345 516.269 466.266 517.345 466.384C519.24 466.612 520.869 467.569 521.708 468.941C522.27 469.869 522.369 470.846 522.448 471.626C522.497 472.149 522.547 472.603 522.705 472.88C522.793 473.028 522.932 473.156 523.149 473.284C523.425 473.452 523.8 473.6 524.264 473.719L524.738 473.837C526.367 474.242 528.588 474.785 529.447 476.591C529.476 476.65 529.496 476.739 529.525 476.798C529.841 476.473 530.236 475.999 530.779 475.308C532.043 473.699 533.77 471.498 536.909 469.01C538.824 467.53 540.66 465.871 542.437 464.262C543.631 463.186 544.825 462.11 546.049 461.064C549.909 457.797 554.637 454.391 560.461 453.838C562.05 453.7 563.679 453.75 565.268 453.799C568.713 453.917 571.971 454.026 573.994 452.022C575.07 450.966 575.662 449.397 576.294 447.728C577.054 445.705 577.844 443.622 579.591 442.043C580.341 441.371 581.141 440.898 581.921 440.434C582.454 440.118 582.987 439.812 583.47 439.427L583.46 439.466Z" fill="#EDEEF2"/>
<path d="M523.405 476.976C522.616 476.769 521.964 476.502 521.412 476.167C520.711 475.742 520.168 475.199 519.803 474.558C519.289 473.659 519.2 472.732 519.131 471.981C519.082 471.448 519.033 470.984 518.865 470.708C518.569 470.224 517.799 469.83 516.96 469.731C516.219 469.642 515.42 469.711 514.571 469.78C513.821 469.839 513.071 469.909 512.33 469.879C511.62 469.859 510.573 469.741 509.754 468.971C508.569 467.845 508.727 466.246 508.816 465.388C508.974 463.68 508.283 462.772 507.128 461.271C506.862 460.926 506.585 460.571 506.309 460.186C504.552 457.757 503.525 455.418 503.14 453.039C503.052 452.506 502.992 451.963 502.923 451.42C502.667 449.367 502.43 447.422 501.146 446.159C500.278 445.31 498.965 444.846 497.682 444.392C487.465 440.779 475.897 436.643 464.13 437.295C461.13 437.453 457.25 437.848 453.835 439.526C452.581 440.148 451.387 440.937 450.252 441.816C450.114 441.944 449.965 442.082 449.837 442.211C444.763 446.939 441.684 450.196 438.11 455.596C436.985 457.491 436.077 459.386 435.435 461.291C434.488 464.095 433.807 467.066 433.155 469.938L432.681 472.001C432.563 472.505 432.425 473.038 432.277 473.59C431.645 475.989 430.855 478.97 431.665 480.826C432.415 482.553 434.132 483.471 436.117 483.234C436.442 483.195 436.817 483.086 437.192 482.968C438.555 482.583 440.815 481.931 442.414 483.718C443.865 485.347 444.329 489.019 444.428 490.105C444.576 490.588 444.823 491.131 444.961 491.289C445.178 491.457 446.274 491.763 447.034 491.802C448.959 491.733 450.834 492.118 452.542 492.483L453.44 492.671C455.947 493.174 458.356 493.836 461.199 494.675L462.995 495.208C467.171 496.461 471.494 497.754 475.827 498.238C476.647 498.327 476.785 498.288 477.367 497.429C479.154 494.803 481.592 492.71 484.435 491.398C490.17 488.732 497.159 489.078 503.328 489.384L505.539 489.493C510.277 489.69 515.163 489.611 518.786 487.716C522.043 485.751 524.797 481.645 526.288 478.447C526.396 478.21 526.416 478.072 526.416 478.042C526.189 477.687 524.541 477.282 523.929 477.124L523.405 476.996V476.976Z" fill="#EDEEF2"/>
</svg>
