<svg width="328" height="339" viewBox="0 0 328 339" fill="none" xmlns="http://www.w3.org/2000/svg">
<path d="M126.62 39.9601C126.67 40.9401 126.63 41.9301 126.59 42.8801L126.55 43.8701C126.5 45.4701 126.56 46.7901 127.01 48.0201C127.56 49.5401 128.7 50.8301 129.8 52.0801L130.44 52.8101C132.59 55.2701 134.82 57.8101 137.58 59.2301C139.49 60.2101 141.67 60.8101 143.77 61.3901C145.3 61.8101 146.88 62.2501 148.38 62.8301C148.71 62.9601 149.32 63.1901 149.61 63.8301C149.96 64.5801 149.58 65.3201 149.42 65.6401L148.29 67.9101C146.66 71.1801 144.98 74.5601 143.19 77.8301L133.25 97.4001L132.84 98.3901C132.12 100.1 131.3 102.04 131.11 103.7C130.81 106.35 131.02 108.54 131.7 109.88C134.01 111.74 135.13 114.51 136.21 117.19C137.25 119.77 138.22 122.22 140.17 123.8C142.38 125.59 145.42 125.94 148.88 126.18C156.93 126.75 165.06 127.37 173.18 127.98C181.08 128.58 188.98 129.18 196.82 129.73C198 127.16 199.41 124.86 201.03 122.86C201.26 122.58 201.49 122.3 201.73 122.02C202.66 120.91 203.55 119.86 204.04 118.61C204.48 117.49 204.44 116.47 204.4 115.29C204.38 114.73 204.36 114.15 204.38 113.54C204.41 112.93 204.38 112.27 204.34 111.57C204.24 109.63 204.13 107.44 205.35 105.67C206.04 104.68 207.04 103.86 208.31 103.23L208.67 103.06C209 102.9 209.32 102.76 209.57 102.57C209.92 102.3 210.22 101.89 210.52 101.45C211.77 99.6101 212.49 97.8601 213.34 95.8201L213.46 95.5201C213.63 95.12 213.07 94.4501 212.86 94.3001C212.84 94.2901 212.77 94.2401 212.74 94.2201C212.7 94.1901 212.66 94.1701 212.61 94.1401L212.42 94.0201C211.4 93.3101 211.24 92.6201 211.3 92.1501C211.3 92.1201 211.3 92.09 211.32 92.0601C211.34 91.9601 211.36 91.8701 211.39 91.8001C211.39 91.7801 211.42 91.76 211.43 91.7401C211.55 91.5301 212.53 89.8301 214.25 88.1101C216.03 86.3301 220.76 81.0401 223.24 76.9201C224.64 74.59 225.91 72.07 227.12 69.2001C227.78 67.64 228.28 65.9701 228.76 64.3601C229.15 63.0601 229.55 61.7101 230.05 60.4001C230.6 58.9201 231.08 57.7301 231.53 56.6801C229.6 54.4301 225.96 54.1201 223.94 53.9601C223.57 53.9301 223.26 53.9101 223.03 53.8801C215.24 52.8501 208.05 48.9401 201.1 45.1601L199.57 44.3301C199.18 44.1201 198.76 43.7501 198.27 43.3201C197.87 42.9701 197.12 42.3101 196.84 42.2401H196.82C196.36 42.3501 194.9 44.0201 194.42 44.5701C194.18 44.8401 193.97 45.0801 193.81 45.2501C191.47 47.6801 189.5 50.4101 187.94 53.3701L187.85 53.5401C187.05 55.0601 186.15 56.7801 184.34 57.4401C182.02 58.2901 179.62 56.7901 178.36 55.0401C176.49 52.4201 175.38 49.3401 174.3 46.3701C173.09 43.0001 171.94 39.8201 169.78 37.2401C167.78 34.8401 165.37 33.4501 162.19 32.8701C161.48 32.7401 160.82 32.6201 160.22 32.2801C159.44 31.8401 159.18 31.1901 158.97 30.6701L158.84 30.3701C158.54 29.7001 158.21 28.8901 158.09 27.9901C157.97 27.0601 156.7 25.5601 155.82 25.3101C154.17 24.8301 152.07 25.9801 150.65 27.2101C150.12 27.6701 150.07 27.9201 150.08 28.0001C150.08 28.0901 150.16 28.2601 150.23 28.4201C150.36 28.7301 150.52 29.1101 150.53 29.5701C150.53 30.6701 149.63 31.5901 148.23 31.9201C146.57 32.3101 144.57 32.1901 142.3 31.5501C140.04 30.9201 139.47 31.2201 137.34 32.3301L137.19 32.4101C136.1 32.9801 134.91 33.2301 133.76 33.4701C133.34 33.5601 132.92 33.6501 132.51 33.7501C132.2 33.8301 131.87 33.9001 131.51 33.9901C129.51 34.4401 127.02 35.0101 126.6 36.6601C126.41 37.4101 126.48 38.2401 126.55 39.1101C126.57 39.3901 126.6 39.6801 126.61 39.9601H126.62Z" fill="#EDEEF2"/>
<path d="M160.51 29.6199L160.66 29.9799C160.84 30.4099 160.91 30.5699 161.12 30.6899C161.46 30.8799 161.91 30.9599 162.39 31.0499C166.1 31.7199 168.94 33.3599 171.2 36.0799C173.56 38.9099 174.82 42.3999 176.03 45.7599C177.11 48.7499 178.13 51.5699 179.85 53.9899C180.74 55.2299 182.35 56.2299 183.7 55.7299C184.84 55.3099 185.54 53.9799 186.21 52.6999L186.3 52.5299C187.93 49.4199 190.01 46.5499 192.47 43.9899C192.62 43.8399 192.81 43.6199 193.03 43.3699C194.23 42.0099 195.31 40.8499 196.33 40.5199C197.33 39.5299 199.49 37.0299 199.49 35.1699C199.49 32.9199 198.3 30.8599 196.29 29.6499C195.99 29.4699 195.68 29.3099 195.37 29.1499C194.93 28.9199 194.48 28.6899 194.07 28.4199C193.07 27.7499 192.32 26.7199 191.79 25.2499C191.17 23.5499 190.96 21.7499 190.75 20.0099C190.62 18.9399 190.5 17.9299 190.29 16.9299C189.91 15.1399 189.54 13.3799 188.73 11.9399C188.5 11.5599 187.58 10.4999 187.06 10.1599C185.41 12.3699 183.85 14.9299 182.15 18.1899C181.39 19.6499 180.66 21.1299 179.95 22.6099C179.76 23.0099 179.57 23.4299 179.39 23.8499C179 24.7499 178.59 25.6699 178.06 26.5099C177.86 26.8299 177.65 27.0999 177.43 27.3199C175.8 28.9599 172.85 28.7399 171.08 28.6099C169.22 28.4699 167.41 28.0799 165.65 27.6999L164.36 27.4199C162.17 27.0199 160.66 27.3599 159.88 27.6399C159.88 27.6799 159.9 27.7299 159.91 27.7699C160 28.4399 160.26 29.0899 160.51 29.6399V29.6199Z" fill="#EDEEF2"/>
<path d="M228.82 69.9299C227.57 72.8699 226.26 75.4699 224.82 77.8799C222.23 82.1899 217.46 87.5099 215.55 89.4199C215.15 89.8199 214.8 90.2099 214.49 90.5899C214.75 90.5999 215.01 90.6199 215.25 90.6599C215.3 90.6599 215.36 90.6799 215.41 90.6999C217.43 91.3799 218.93 92.1499 219.99 93.0599C222.42 95.6499 222.07 98.7399 221.34 101.7C220.83 103.78 220.3 105.9 219.61 107.95C219.71 108.12 219.82 108.31 219.94 108.52C220.93 110.24 223.28 114.32 224.95 114.13C225.17 114.11 225.43 114.03 225.7 113.94C225.9 113.88 226.09 113.82 226.29 113.77C227.76 113.42 228.5 114.06 228.8 114.48C229.73 115.73 229.15 118.03 228.47 119.2C228.08 119.88 227.58 120.44 227.1 120.98C226.75 121.37 226.43 121.74 226.15 122.13C225.09 123.65 225.58 124.12 226.9 125.38C227.23 125.69 227.57 126.03 227.9 126.39C228.79 127.38 229.21 128.59 229.62 129.76C229.72 130.05 229.83 130.34 229.93 130.62C230.69 129.84 231.82 128.92 233.26 127.81C233.43 127.68 233.59 127.56 233.7 127.47C233.61 127.12 233.35 126.37 232.68 124.82C232.65 124.75 232.63 124.67 232.62 124.6C231.95 120.3 233.74 116.08 237.94 112.03C238.52 111.47 239.18 111.07 239.82 110.69L240.25 110.43C240.76 110.11 241.24 109.73 241.75 109.33C242.01 109.13 242.26 108.93 242.52 108.73C244.12 107.53 246.24 105.97 248.48 104.58C248.64 104.48 248.8 104.37 248.96 104.26C249.75 103.74 250.64 103.14 251.67 103.07C252.11 103.04 252.56 103.07 253.01 103.1C253.22 103.11 253.42 103.13 253.62 103.13C254.68 103.16 257.15 103.22 258.03 102.29C258.21 102.1 258.44 101.77 258.38 101.04C258.36 100.78 258.31 100.6 258.23 100.47C258.12 100.29 257.95 100.12 257.76 99.9299C257.44 99.6199 257.05 99.2399 256.81 98.6499C256.41 97.6799 256.33 96.5199 256.58 95.3899C256.79 94.4499 257.15 93.6399 257.51 92.8599C257.92 91.9599 258.3 91.1099 258.39 90.1599C258.39 90.1099 258.4 90.0599 258.42 90.0099C258.86 88.3799 258.84 86.9499 258.33 85.4999C258.12 84.8799 258.13 84.1199 258.15 83.4399C258.15 83.2199 258.16 83.0099 258.15 82.8299C258.13 82.0199 258.15 80.9499 258.56 79.9399C259.27 78.1599 261.28 75.8299 263.29 75.1599L263.6 75.0699C263.74 75.0299 263.88 74.9999 264.01 74.9299C264.31 74.7599 264.73 73.8599 265 73.2599C265.2 72.8299 265.39 72.4299 265.59 72.1099C265.62 72.0599 265.66 72.0099 265.7 71.9499C265.59 71.9099 265.48 71.8599 265.38 71.8199C264.49 71.4499 263.6 71.0899 262.69 70.7499L262.24 70.5899C261.79 70.4399 261.32 70.2799 260.85 70.0099C260.64 69.8899 260.43 69.7499 260.23 69.6199C259.99 69.4599 259.75 69.2999 259.49 69.1799C258.62 68.7599 257.83 68.4299 257.09 68.1599C255.76 67.6799 254.67 67.3999 253.65 67.2899C252.4 67.1499 251.32 67.3899 250.07 67.6599L249.67 67.7499C246.17 68.4999 244.09 64.7099 243.41 63.4699C242.74 62.2399 242.21 60.9299 241.74 59.7799C241.7 59.6799 241.65 59.5399 241.61 59.3899C241.59 59.3199 241.56 59.2299 241.52 59.1299C241.28 59.2599 240.99 59.4399 240.8 59.5599C240.32 59.8499 240.04 60.0199 239.8 60.1099C239.37 60.2699 238.86 60.4199 238.3 60.3299C237.23 60.1599 236.67 59.3399 236.22 58.6899C236.01 58.3899 235.82 58.0999 235.63 57.9599C235.09 57.5499 234.3 57.3799 233.22 57.4399C232.78 58.4699 232.31 59.6599 231.76 61.1099C231.29 62.3599 230.9 63.6799 230.52 64.9499C230.03 66.6099 229.52 68.3199 228.81 69.9799L228.82 69.9299Z" fill="#EDEEF2"/>
<path d="M68.43 125.98C68.91 125.98 69.44 126.05 69.99 126.13C71.16 126.29 72.49 126.48 73.05 125.88C73.3 125.62 73.51 125.36 73.72 125.11C74.38 124.31 75.07 123.49 76.39 123C77.52 122.58 78.72 122.46 79.64 122.41C80.18 122.38 80.58 122.35 80.87 122.22C81.26 122.04 81.6 121.63 81.94 120.9C82.4 119.93 82.92 119.01 83.43 118.12L83.99 117.13C84.48 116.25 85.09 115.15 86.11 114.44C87.27 113.63 90.08 112.96 91.59 113.69C94.35 115.02 96.49 117.32 98.56 119.54C99.02 120.03 99.48 120.52 99.93 121C101.79 120.81 106.05 120.82 106.98 120.85C107.02 120.85 107.06 120.87 107.1 120.88C107.42 120.85 107.74 120.84 108.01 120.83L128.47 120.35C128.47 117 129 113.69 129.99 110.49C129.02 108.39 129.07 105.54 129.3 103.47C129.52 101.54 130.39 99.4801 131.16 97.6501L131.59 96.6201L141.57 76.9501C143.36 73.6901 145.03 70.3201 146.65 67.0701L147.78 64.8001C147.83 64.7101 147.86 64.6401 147.88 64.5901C147.84 64.5701 147.78 64.5501 147.72 64.5201C146.3 63.9701 144.76 63.5501 143.28 63.1301C141.09 62.5201 138.82 61.9001 136.74 60.8301C133.67 59.2601 131.22 56.4601 129.05 53.9901L128.42 53.2701C127.26 51.9601 125.95 50.4701 125.28 48.6201C124.9 47.5801 124.77 46.5201 124.72 45.4701C124.01 45.4501 123.16 45.4201 122.31 45.3901C121.11 45.3501 119.92 45.3001 119.12 45.2901C118.45 45.2801 117.77 45.2601 117.24 45.5001C116.36 45.9001 115.94 47.0101 115.77 47.6301C115.64 48.0901 115.56 48.5601 115.47 49.0301C115.35 49.7001 115.22 50.3901 114.99 51.0801C114.84 51.5101 114.61 52.0401 114.1 52.4101C113.59 52.7701 113.02 52.8201 112.58 52.8201C111.77 52.8201 110.98 52.6801 110.21 52.5501C109.09 52.3501 108.04 52.1701 107.11 52.4601C106 52.8101 105.15 53.9501 105.14 55.1201C105.14 55.4001 105.17 55.6901 105.2 55.9701C105.27 56.5401 105.34 57.1901 105.18 57.8601C104.89 59.0501 104.2 59.4801 103.66 59.6201C103.48 59.6701 103.29 59.6901 103.09 59.6901C101.33 59.6901 99.06 57.7801 97.38 56.0801C96.85 55.5401 96.33 54.9301 96.13 54.1301C95.86 53.0501 96.24 52.0801 96.58 51.2301C96.69 50.9501 96.8 50.6701 96.89 50.3901C97.43 48.5501 96.63 46.5001 95.85 44.5201L95.62 43.9301C94.39 40.7301 93.56 37.3701 93.16 33.9701L93.14 33.7801C93.02 32.7301 92.9 31.7401 92.37 31.0601C91.75 30.2601 90.62 29.9401 89.43 29.5901C89.17 29.5201 88.91 29.4401 88.66 29.3601C86.45 28.7801 84.06 30.6701 82.22 32.3601C81.43 33.0901 80.68 33.9201 79.95 34.7201C78.87 35.9201 77.75 37.1601 76.4 38.1801C72.74 40.9501 67.67 41.6401 63.48 39.9601C59.36 38.3001 57.5 34.6101 55.69 31.0401C55.44 30.5401 55.18 30.0401 54.92 29.5401C54.92 29.5201 54.89 29.4801 54.87 29.4501C54.83 29.4501 54.79 29.4501 54.77 29.4601C49.74 30.0501 44.73 31.0601 39.87 32.4601C38.9 32.7401 38.04 33.0101 37.33 33.4901C36.63 33.9701 36.18 34.6401 36.14 35.2801C36.06 36.3701 37.07 37.3501 37.67 37.8501C37.85 38.0001 38.43 38.2501 38.95 38.4701C40.45 39.1101 42.31 39.9101 42.81 41.3401C43.03 41.9501 42.97 42.6001 42.64 43.2301C41.54 45.3201 39.16 44.3801 37.43 43.7101C36.76 43.4501 35.52 42.9701 35.24 43.1201C34.54 43.5101 34.13 43.9801 33.98 44.5701C33.57 46.1801 35.04 48.5101 36.12 50.2101C36.36 50.5901 36.58 50.9401 36.77 51.2501C39.22 55.4301 39.66 60.8301 38.1 67.7601C37.73 69.4301 37.27 71.1101 36.83 72.7301C35.88 76.2401 34.89 79.8701 34.73 83.5001C34.71 83.9901 34.3 84.3801 33.81 84.3801C26.97 84.3001 20.92 84.5201 16.27 87.9201C12.47 90.7001 10.01 95.8001 7.63999 100.74C6.41999 103.27 5.16999 105.85 3.73999 108.12C4.19999 108.17 4.59999 108.26 4.89999 108.33C25.7 113.2 43.73 119.94 60 128.89C60.51 127.96 61.52 127.24 62.11 126.93C64.03 125.93 66.45 125.95 68.41 125.96L68.43 125.98Z" fill="#EDEEF2"/>
<path d="M88.99 27.58C89.04 27.59 89.1 27.58 89.15 27.6C89.17 27.6 89.18 27.62 89.19 27.62C89.44 27.69 89.7 27.76 89.96 27.84C91.32 28.23 92.86 28.67 93.85 29.95C94.69 31.04 94.85 32.39 94.99 33.59L95.01 33.77C95.39 37.03 96.18 40.23 97.36 43.29L97.58 43.87C98.43 46.04 99.38 48.49 98.67 50.93C98.57 51.26 98.44 51.59 98.31 51.92C98.04 52.61 97.8 53.2 97.93 53.7C98.02 54.06 98.31 54.4 98.71 54.81C100.87 57 102.62 58.02 103.19 57.86C103.32 57.83 103.4 57.5 103.41 57.43C103.5 57.07 103.45 56.64 103.39 56.18C103.35 55.82 103.31 55.45 103.31 55.09C103.34 53.14 104.71 51.29 106.57 50.71C107.93 50.28 109.25 50.52 110.54 50.74C111.26 50.87 111.94 50.99 112.59 50.99C112.92 50.99 113.02 50.94 113.05 50.92C113.08 50.9 113.16 50.82 113.26 50.5C113.45 49.94 113.56 49.35 113.67 48.72C113.77 48.19 113.86 47.67 114 47.16C114.44 45.55 115.33 44.37 116.48 43.84C117.38 43.43 118.37 43.44 119.16 43.47C119.97 43.49 121.17 43.53 122.38 43.57C123.2 43.6 124.02 43.63 124.71 43.65L124.74 42.8C124.78 41.85 124.82 40.95 124.77 40.06C124.76 39.8 124.73 39.53 124.71 39.27C124.66 38.64 124.61 38 124.65 37.35C124.05 36.4 122.86 35.53 121.69 34.7C121.02 34.22 120.38 33.77 119.83 33.29C116.9 30.69 115.41 26.94 115.94 23.5C116.18 21.93 116.81 20.5 117.42 19.12C117.99 17.83 118.53 16.61 118.75 15.32C119.06 13.51 117.17 12.08 115.51 10.81C114.9 10.35 114.33 9.91996 113.9 9.47996C112.33 7.90996 113.8 6.37997 114.5 5.64997C114.69 5.44997 114.97 5.15996 115.07 4.98996C114.75 4.24996 114 3.68997 113.2 3.59997C112.02 3.46997 110.93 4.28997 110.39 4.77997C109.84 5.28997 109.35 5.88997 108.84 6.51997C108.53 6.90997 108.21 7.29997 107.88 7.66997C105.82 9.97997 103.02 11.63 100.01 12.32C99.64 12.41 99.26 12.48 98.89 12.55C98.16 12.69 97.47 12.82 96.83 13.05C95.86 13.41 95.16 14 94.91 14.68C94.85 14.84 94.8 15.01 94.76 15.18C94.57 15.85 94.31 16.77 93.39 17.19C92.07 17.78 90.92 16.74 90.24 16.11C87.51 13.63 83.47 13.18 79.2 12.96C80.72 14.65 82.37 16.66 83.19 19.12C83.43 19.85 83.6 20.59 83.75 21.31C83.99 22.42 84.22 23.47 84.72 24.38C85.49 25.77 87 26.9 88.98 27.56V27.59L88.99 27.58Z" fill="#EDEEF2"/>
<path d="M218.14 179.93H218.08C217.34 179.95 216.78 180.34 216.42 181.08C215.57 182.85 216.52 184.43 217.77 185.14C218.79 185.72 220.33 185.89 221.31 184.43C221.95 183.49 221.69 182.58 221.36 181.98C220.72 180.81 219.32 179.92 218.15 179.92L218.14 179.93Z" fill="#EDEEF2"/>
<path d="M2.32997 110.19C1.99997 110.48 1.94997 111.08 2.03997 111.54C2.13997 112.04 2.37997 112.54 2.62997 113.07L2.85997 113.56C3.51997 115.01 3.90997 116.53 4.29997 118.01C4.47997 118.71 4.66997 119.41 4.87997 120.09C5.64997 122.61 6.62997 124.26 7.96997 125.31C8.91997 126.04 10.07 126.49 11.29 126.96C12.14 127.29 13.02 127.62 13.85 128.07C14.57 128.46 15.23 128.92 15.88 129.36C16.99 130.13 18.05 130.86 19.24 131.14C21.42 131.65 23.86 130.71 26.92 128.16C27.15 127.97 27.62 127.57 28.25 127.57C28.31 127.57 28.36 127.57 28.42 127.58C29.16 127.67 29.72 128.26 29.94 129.21C30.32 130.83 30.13 132.45 29.94 134.01C29.73 135.71 29.61 137.1 29.99 138.37C31.33 142.85 38.63 141.17 42.56 140.27L42.87 140.2C48.22 138.97 53.33 136.58 57.64 133.29C59.14 132.05 59.58 131.19 59.71 130.8C43.45 121.78 25.38 115.01 4.50997 110.12C3.68997 109.93 2.77997 109.79 2.32997 110.18V110.19Z" fill="#EDEEF2"/>
<path d="M114.31 156.99C115.22 156.19 116.07 155.43 116.41 154.45C116.82 153.26 116.43 151.92 116.01 150.5C115.61 149.13 115.19 147.72 115.4 146.23C115.45 145.9 115.52 145.56 115.6 145.22C115.81 144.31 115.92 143.69 115.64 143.33C115.38 142.99 114.74 142.88 114.1 142.79L103.99 141.43C103.61 141.38 103.3 141.09 103.22 140.72C102.13 135.73 102.02 130.43 102.9 125.4C103.06 124.49 103.3 123.52 103.8 122.71C102.13 122.73 100.37 122.79 99.74 122.9C99.44 122.95 99.14 122.85 98.93 122.64C98.35 122.06 97.78 121.44 97.2 120.82C95.25 118.72 93.22 116.56 90.78 115.37C90.01 115 87.93 115.42 87.15 115.97C86.48 116.44 86.02 117.26 85.58 118.04L85.02 119.04C84.51 119.94 84.03 120.79 83.6 121.69C83.26 122.41 82.69 123.42 81.63 123.9C81.03 124.17 80.41 124.21 79.86 124.24C78.91 124.3 77.93 124.39 77.03 124.72C76.17 125.04 75.73 125.56 75.13 126.29C74.9 126.57 74.66 126.86 74.38 127.15C73.17 128.43 71.27 128.16 69.74 127.95C68.98 127.84 68.39 127.81 67.81 127.81C66.19 127.81 64.32 127.88 62.98 128.58C62.3 128.93 61.58 129.65 61.54 130.03C61.54 130.06 61.54 130.11 61.66 130.22C61.75 130.3 61.87 130.41 62.02 130.56C62.7 131.21 63.97 132.41 65.41 132.75C66.91 133.1 70.44 132.68 71.68 132.49C71.95 132.45 72.22 132.53 72.42 132.7C72.62 132.87 72.74 133.13 72.74 133.4C72.67 142.88 74.13 149.62 76.67 151.42C77.48 151.99 78.41 152.07 79.53 151.67C83.68 150.18 89.76 153.54 96.19 157.09C101.18 159.85 106.32 162.66 110.78 163.43C110.97 161.71 111.49 160.09 112.61 158.7C113.13 158.06 113.74 157.52 114.33 156.99H114.31Z" fill="#EDEEF2"/>
<path d="M264.91 76.4999C264.64 76.6399 264.39 76.7199 264.13 76.7899L263.9 76.8599C262.5 77.3199 260.85 79.1999 260.3 80.5799C260.02 81.2699 260 82.0599 260.02 82.7299C260.02 82.9399 260.02 83.1899 260.02 83.4399C260.01 83.9099 259.99 84.5499 260.1 84.8499C260.73 86.6399 260.78 88.3999 260.25 90.3799C260.12 91.5899 259.66 92.5999 259.22 93.5799C258.89 94.3099 258.57 94.9999 258.41 95.7499C258.24 96.5199 258.29 97.2899 258.55 97.9199C258.65 98.1599 258.84 98.3399 259.08 98.5799C259.33 98.8199 259.61 99.0899 259.84 99.4699C260.07 99.8399 260.2 100.29 260.25 100.84C260.34 101.93 260.06 102.82 259.41 103.51C258.14 104.86 255.87 104.99 253.61 104.93C253.39 104.93 253.16 104.91 252.93 104.9C252.56 104.88 252.19 104.85 251.83 104.87C251.28 104.91 250.63 105.34 250 105.76C249.82 105.88 249.64 106 249.47 106.1C247.29 107.46 245.21 108.99 243.64 110.17C243.4 110.35 243.15 110.54 242.91 110.74C242.38 111.16 241.84 111.59 241.25 111.96L240.79 112.24C240.21 112.59 239.67 112.92 239.24 113.34C235.54 116.91 233.92 120.56 234.44 124.19C235.77 127.27 235.72 127.8 235.5 128.25C235.45 128.36 235.36 128.47 235.25 128.57C235.12 128.69 234.91 128.86 234.4 129.25C233.65 129.83 231.55 131.44 230.87 132.31C230.92 132.37 230.96 132.44 231.01 132.5C231.33 132.85 232.09 133.57 232.8 134.25C233.04 134.48 233.27 134.7 233.48 134.9C233.53 134.85 233.58 134.79 233.64 134.73C233.94 134.43 234.39 133.97 235.04 133.79C236.26 133.46 237.37 134.27 237.93 135.22C238.16 135.6 238.31 135.99 238.46 136.36C238.59 136.69 238.72 137.01 238.88 137.27C240.13 139.31 243.53 138.69 245.51 137.78C247.53 136.85 250.07 135.21 250.67 132.63C250.81 132.02 250.84 131.38 250.87 130.7C250.9 130.06 250.93 129.4 251.06 128.73C251.34 127.24 252.34 125.41 254.22 125.15C255.65 124.95 256.76 125.74 257.74 126.44C258.38 126.89 258.98 127.32 259.59 127.45C260.58 127.66 261.69 127.11 262.83 126.47L268.76 123.14C270.72 121.9 272.37 120.35 274.1 118.69C274.48 118.32 274.87 117.95 275.26 117.59C276.13 116.77 276.69 115.86 276.76 115.15C276.78 114.94 276.73 114.65 276.67 114.35C276.61 114.04 276.56 113.73 276.55 113.42C276.52 112.62 276.62 111.83 276.83 111.07C276.95 110.65 277.1 110.25 277.26 109.84C277.27 109.8 277.29 109.76 277.3 109.73L277.4 109.48C277.96 108 278.35 106.68 278.59 105.44C278.59 105.43 278.59 105.42 278.59 105.41L278.42 105.37C276 104.76 275.67 101.79 275.48 100.02L275.44 99.6399C275.38 99.1099 275.32 98.5699 275.26 98.0399C275.15 96.9899 275.03 95.9499 274.88 94.9099C274.82 94.4999 274.79 94.0699 274.76 93.6199C274.71 92.7699 274.65 91.8899 274.33 91.2799L273.91 90.4999C273.07 88.9599 272.28 87.4999 272.22 85.3399C272.19 84.1599 272.05 82.9399 271.92 81.7699L271.88 81.4399C271.84 81.0899 271.82 80.7299 271.79 80.3599C271.74 79.5399 271.68 78.6899 271.43 78.0299C270.58 75.8399 270.33 74.3099 270.62 73.0699C270.62 72.8299 270.16 71.8399 269.82 71.3799C269.55 71.0199 269.41 71.0499 269.29 71.0899C268.46 71.3099 267.76 72.2299 267.19 73.0999C267.04 73.3299 266.89 73.6599 266.73 74.0099C266.29 74.9599 265.79 76.0399 264.95 76.5199L264.91 76.4999Z" fill="#EDEEF2"/>
<path d="M273.59 80.2101C273.61 80.5501 273.63 80.8801 273.67 81.2001L273.71 81.5301C273.85 82.7401 273.99 84.0001 274.02 85.2601C274.06 86.9801 274.69 88.1301 275.49 89.5901L275.92 90.3901C276.43 91.3501 276.5 92.4701 276.56 93.4601C276.59 93.8501 276.61 94.2401 276.66 94.6001C276.82 95.6601 276.93 96.7301 277.05 97.8001C277.11 98.3301 277.17 98.8601 277.23 99.3901L277.27 99.7801C277.42 101.17 277.66 103.26 278.84 103.56C279.25 103.65 279.69 103.74 280.03 104.12C280.56 104.71 280.41 105.47 280.36 105.76C280.17 106.77 279.85 107.85 279.47 108.98C281.13 108.76 283.27 108.49 284.34 108.46C284.99 108.44 285.69 108.44 286.38 108.67C287.5 109.04 288.31 109.92 289.02 110.69C289.74 111.48 290.37 112.15 291.12 112.18C291.39 112.16 291.73 112.06 292.07 111.94C292.7 111.42 293.49 110.57 293.76 110.08C293.88 109.87 293.98 109.26 294.02 108.74C293.83 108.31 293.44 107.34 293.32 106.69C293.14 105.69 293.17 104.6 293.41 103.45C293.62 102.42 293.99 101.45 294.42 100.51C294.44 100.45 294.46 100.39 294.49 100.34C295.03 99.2001 295.65 98.1301 296.27 97.1801L301.14 89.5801C301.49 89.0401 302.25 88.3801 303.37 87.4401C303.65 87.2001 304.02 86.9001 304.31 86.6401C303.73 86.1901 302.73 85.4201 301.75 84.6701C299.37 82.8401 296.41 80.5701 294.69 79.0801C291.98 76.7401 288.78 74.1101 285.12 72.5301C281.26 70.8701 277.39 70.6301 274.21 71.8701C273.26 72.2401 272.68 72.6901 272.48 73.2001C272.45 73.2701 272.4 73.3301 272.36 73.3901C272.36 73.4101 272.36 73.4301 272.36 73.4501C272.17 74.3001 272.4 75.5301 273.1 77.3401C273.46 78.2601 273.52 79.2501 273.58 80.2101H273.59Z" fill="#EDEEF2"/>
<path d="M279.48 189.45C279.8 189.04 280.16 188.65 280.53 188.26C281.43 187.29 282.28 186.37 282.29 185.31C282.29 184.55 282.1 183.99 281.68 183.58C280.44 182.38 277.36 182.53 275.32 182.63C274.69 182.66 274.12 182.68 273.66 182.68C273.05 182.68 272.27 182.59 271.68 182.05C271.25 181.65 271.08 181.15 270.94 180.75L270.84 180.48C270.51 179.66 269.71 178.91 268.59 178.39C267.88 178.06 267.11 177.83 266.3 177.58C265.88 177.45 265.47 177.33 265.05 177.19C263.94 176.81 262.84 176.33 261.77 175.86C259.1 174.69 256.58 173.59 254.01 174.08L253.81 174.12C253.17 174.25 252.38 174.41 251.61 174.01C250.61 173.48 250.42 172.46 250.29 171.72C250.22 171.31 250.15 170.93 249.99 170.73C249.5 170.13 248.51 169.78 247.59 169.89C246.17 170.05 244.84 170.99 243.67 171.82C242.98 172.31 242.23 172.92 241.44 173.56C239.2 175.38 236.67 177.43 234.06 177.94C232.81 178.18 232.1 177.81 231.71 177.45C231.2 176.97 231.01 176.21 230.83 175.48C230.77 175.23 230.71 174.97 230.63 174.74C230.58 174.58 230.53 174.48 230.5 174.43C230.39 174.47 230.18 174.58 229.83 174.86C229.58 175.06 229.35 175.32 229.11 175.6C228.78 175.99 228.4 176.42 227.9 176.76C227.65 176.93 227.38 177.07 227.11 177.2C226.76 177.38 226.45 177.53 226.3 177.73C226.02 178.1 226.15 178.69 226.39 179.62C226.64 180.57 226.93 181.65 226.49 182.7C226.02 183.84 224.98 184.35 224.06 184.8C223.65 185 223.27 185.19 222.96 185.41C222.02 186.1 221.65 187.53 222.12 188.59C222.27 188.93 222.51 189.3 222.75 189.69C223.47 190.83 224.36 192.24 223.43 193.67C223.17 194.07 222.83 194.33 222.53 194.56C222.32 194.72 222.12 194.87 222.04 195.01C221.86 195.32 222.08 195.92 222.29 196.5C222.35 196.66 222.41 196.83 222.46 196.99C223 198.64 222.79 200.52 221.87 202.17C220.95 203.82 219.46 204.99 217.77 205.4C216.33 205.75 214.91 205.58 213.53 205.43C212.97 205.37 212.4 205.3 211.84 205.28C209.1 205.15 206.36 205.98 203.71 206.77C200.79 207.65 197.78 208.55 195.41 210.44C193.78 211.74 192.11 215.3 192.21 217.25C192.21 217.42 192.25 217.56 192.28 217.68C192.65 217.55 193.03 217.42 193.4 217.28C195.95 216.32 198.58 215.33 201.85 216.71C202.88 217.11 203.84 217.7 204.76 218.26C205.97 219 207.12 219.7 208.38 219.96C210.32 220.35 212.29 219.68 214.37 218.97C216.06 218.39 217.81 217.79 219.65 217.73C220.24 217.71 221.12 217.74 221.87 218.24C222.96 218.95 223.27 220.28 223.45 221.07L224.88 227.13C225.11 228.1 225.36 229.01 225.97 229.45C226.12 229.56 226.3 229.65 226.47 229.73C226.68 229.84 226.89 229.95 227.09 230.08C229.35 231.57 229.1 234.89 229.02 235.97C228.9 237.54 228.76 239.49 229.81 240.51C230.66 241.33 232.11 241.32 233.17 241.04C233.96 240.83 234.72 240.49 235.53 240.13C236.1 239.87 236.68 239.62 237.27 239.4C239 238.78 240.85 238.54 242.67 238.69C244.23 237.28 248.19 236.12 254.53 235.23C254.98 235.16 255.45 235.1 255.91 235.05C257.55 234.85 259.11 234.66 260.49 233.88C261.86 233.11 262.94 231.87 263.52 230.37C263.76 229.76 264.07 229.19 264.38 228.63C264.55 228.32 264.72 228 264.88 227.69C265.38 226.66 265.75 225.79 266.04 224.96L266.9 222.45C267.17 221.41 267.89 220.37 269.06 219.35C269.4 219.05 269.75 218.77 270.11 218.49C270.64 218.07 271.14 217.68 271.58 217.23C272.29 216.51 272.92 215.59 273.6 214.25C273.88 213.71 274.18 213.08 274.22 212.48C274.26 211.77 273.95 211.03 273.23 210.15C273.04 209.92 272.82 209.65 272.68 209.29C272.47 208.7 272.58 208.08 272.98 207.67C273.28 207.36 273.64 207.27 273.87 207.21C273.92 207.2 273.97 207.19 274.01 207.17C274.01 207.13 274.01 206.87 273.91 206.65C273.81 206.45 273.69 206.26 273.56 206.08C273.31 205.7 273.02 205.28 272.88 204.74C272.5 203.29 273.36 201.91 274.39 201.18C274.63 201.01 274.88 200.87 275.14 200.74C276.25 200.24 277.9 199.48 277.71 195.79C277.51 192 277.9 191.31 279.07 189.88L279.44 189.42L279.48 189.45Z" fill="#EDEEF2"/>
<path d="M302.7 90.57L297.83 98.17C297.39 98.86 296.97 99.58 296.57 100.31C296.63 100.33 296.68 100.35 296.74 100.37C297.29 100.57 298.26 100.94 298.63 100.92C298.72 100.9 298.91 100.78 299.09 100.66C301.17 99.31 303.39 98.25 305.72 97.48C305.96 97.4 306.4 97.26 306.88 97.41C307.6 97.63 308.04 98.38 307.97 99.26C307.89 100.37 307.22 101.18 306.62 101.89C306.28 102.3 305.95 102.69 305.78 103.09C305.69 103.31 305.67 103.46 305.69 103.52C305.75 103.71 306.33 103.84 306.95 103.71L307.3 103.63C308.19 103.43 309.29 103.18 310.27 103.8C310.51 103.95 310.74 104.16 310.97 104.37C311.06 104.45 311.18 104.57 311.28 104.64C311.3 104.59 311.33 104.52 311.36 104.43C311.6 103.7 311.72 102.94 311.72 102.18C311.72 101.44 311.72 100.58 312.36 99.94C312.89 99.41 313.73 99.22 314.55 99.44C315.02 99.57 315.42 99.79 315.77 99.99L316 100.12C318.38 101.42 321.37 101.34 323.42 101.16C323.64 101.14 323.87 101.12 324.1 101.12C324.34 101.12 324.65 101.12 324.98 101.2C324.75 98.52 323.41 95.11 321.74 93.35C320.51 92.06 318.72 91.12 316.26 90.48C315.32 90.24 314.03 89.81 312.67 89.35C310.46 88.61 307.78 87.71 306.04 87.46C305.7 87.83 305.2 88.26 304.55 88.8C303.86 89.38 302.91 90.17 302.69 90.52L302.7 90.57Z" fill="#EDEEF2"/>
<path d="M232.23 136.25C232.02 136.04 231.77 135.82 231.52 135.58C230.76 134.86 229.98 134.12 229.64 133.74C228.73 132.75 228.3 131.52 227.89 130.34C227.53 129.3 227.18 128.31 226.54 127.59C226.24 127.26 225.93 126.96 225.63 126.68C224.32 125.43 222.69 123.87 224.65 121.05C224.99 120.57 225.37 120.14 225.74 119.73C226.18 119.24 226.6 118.77 226.9 118.25C227.4 117.39 227.64 115.95 227.34 115.55C227.26 115.44 226.97 115.47 226.73 115.53C226.57 115.57 226.41 115.62 226.26 115.67C225.92 115.78 225.55 115.9 225.12 115.93C222.29 116.18 219.92 112.11 218.36 109.4C218.16 109.05 217.98 108.75 217.83 108.5C217.69 108.27 217.66 107.98 217.75 107.72C218.49 105.63 219.03 103.41 219.56 101.27C220.29 98.31 220.4 96.14 218.73 94.36C217.95 93.7 216.64 93.03 214.92 92.44C214.24 92.35 213.74 92.39 213.42 92.45C213.43 92.45 213.45 92.47 213.46 92.48C213.65 92.58 213.77 92.66 213.87 92.73C214.56 93.17 215.81 94.67 215.18 96.2L215.06 96.5C214.18 98.62 213.42 100.46 212.07 102.45C211.7 103 211.29 103.57 210.71 104.01C210.31 104.31 209.87 104.52 209.48 104.7L209.15 104.86C208.18 105.34 207.39 105.97 206.89 106.7C206.02 107.95 206.12 109.73 206.2 111.46C206.24 112.17 206.27 112.91 206.24 113.61C206.22 114.16 206.24 114.69 206.26 115.21C206.31 116.48 206.36 117.79 205.78 119.27C205.18 120.8 204.15 122.01 203.17 123.19C202.94 123.46 202.71 123.73 202.49 124C199.42 127.8 197.15 132.73 195.77 138.67C195.1 141.51 194.88 144.2 194.74 146.44C194.7 147.05 194.61 147.78 194.5 148.55C194.28 150.17 194 152.19 194.37 153.34C194.57 153.96 195.05 154.49 195.71 154.41C196.22 153.84 196.85 153.39 197.68 153.25C200.01 152.85 201.45 155.01 202.49 156.57C202.75 156.96 202.99 157.33 203.23 157.62C203.94 158.5 204.31 158.53 204.44 158.5C204.72 158.43 204.99 157.92 205.25 157.43C205.66 156.64 206.22 155.57 207.46 155.44C208.89 155.3 209.64 156.51 210.2 157.39C210.33 157.6 210.46 157.81 210.59 157.99C211.62 159.4 213.84 159.42 214.75 159.38C216.83 159.26 218.83 158.64 220.96 157.99C223.56 157.18 226.25 156.36 229.09 156.54C229.43 156.56 229.74 156.6 230.03 156.65C229.57 154.81 229.33 153.07 229.33 151.47C229.33 150.96 229.4 150.42 229.47 149.89C229.6 148.87 229.75 147.82 229.32 147.12C229.17 146.86 228.91 146.61 228.65 146.35C228.22 145.93 227.74 145.45 227.47 144.76C226.78 142.97 228.13 141.18 228.64 140.5C229.76 139.01 230.98 137.59 232.23 136.21V136.25Z" fill="#EDEEF2"/>
<path d="M231.07 161.17C231.64 159.57 231.09 159.15 230.85 158.96C230.68 158.83 230.47 158.72 230.22 158.63C229.87 158.51 229.46 158.44 228.95 158.4C226.47 158.24 224.04 158.98 221.48 159.77C219.34 160.43 217.13 161.11 214.83 161.24C213.33 161.31 210.59 161.16 209.09 159.1C208.93 158.88 208.77 158.63 208.62 158.38C208.29 157.85 207.87 157.24 207.63 157.29C207.38 157.32 207.12 157.82 206.86 158.3C206.46 159.08 205.95 160.05 204.85 160.31C203.31 160.67 202.17 159.27 201.79 158.8C201.52 158.47 201.24 158.05 200.95 157.61C199.92 156.07 199.06 154.89 197.96 155.08C197.28 155.19 196.69 155.9 196.1 157.3C194.77 160.48 193.75 163.8 193.08 167.18C192.95 167.83 192.87 168.51 192.79 169.19C192.51 171.53 192.19 174.19 189.83 175.88C189.27 176.28 188.66 176.56 188.07 176.83C187.29 177.19 186.55 177.53 186.11 178.09C185.79 178.5 185.6 179.07 185.41 179.66C185.3 180 185.19 180.34 185.05 180.67C184.2 182.71 182.49 184.11 180.97 185.35L180.6 185.66C179.05 186.94 178.02 188.21 176.66 190.13C175.22 192.15 173.58 194.82 173.62 197.55C173.64 198.66 173.97 199.72 174.54 200.51C174.71 200.75 174.96 200.99 175.22 201.25C175.86 201.88 176.66 202.66 176.73 203.88C176.76 204.33 176.67 204.74 176.59 205.11C176.52 205.46 176.45 205.8 176.53 205.96C176.63 206.17 177.08 206.36 177.35 206.47C180.61 207.86 183.87 209.24 187.13 210.62C189.32 211.61 193.09 209.76 194.35 208.97C196.98 206.9 200.27 205.91 203.18 205.04C205.84 204.24 208.86 203.33 211.93 203.47C212.53 203.5 213.14 203.57 213.74 203.64C215.02 203.78 216.22 203.92 217.34 203.65C218.53 203.36 219.59 202.51 220.26 201.31C220.93 200.11 221.09 198.76 220.71 197.6C220.66 197.46 220.61 197.31 220.56 197.17C220.24 196.29 219.84 195.19 220.44 194.14C220.7 193.68 221.09 193.38 221.4 193.14C221.6 192.99 221.79 192.84 221.88 192.7C222.15 192.28 221.8 191.67 221.19 190.7C220.92 190.27 220.64 189.83 220.44 189.37C220.15 188.71 220.04 188 220.09 187.3C219.82 187.36 219.54 187.4 219.25 187.4C218.45 187.4 217.63 187.18 216.84 186.73C214.82 185.57 213.46 182.99 214.75 180.28C215.41 178.91 216.57 178.13 218.01 178.09C218.05 178.09 218.08 178.09 218.12 178.09C219.96 178.09 221.98 179.34 222.94 181.1C223.29 181.74 223.47 182.4 223.5 183.05C224.1 182.75 224.6 182.47 224.78 182.03C224.98 181.55 224.79 180.85 224.6 180.12C224.32 179.07 223.97 177.76 224.82 176.64C225.23 176.1 225.78 175.83 226.27 175.58C226.47 175.48 226.67 175.38 226.85 175.26C227.15 175.05 227.42 174.74 227.71 174.41C227.99 174.08 228.29 173.74 228.66 173.44C229.24 172.97 230.12 172.38 231.03 172.65C231.39 172.76 231.64 172.98 231.84 173.22C232.34 172.88 232.67 172.5 232.82 172.07C233.24 170.86 232.37 169.18 231.67 167.84C231.52 167.55 231.38 167.28 231.26 167.02L231.06 166.62C230.74 165.99 230.37 165.27 230.29 164.44C230.19 163.42 230.55 162.49 230.86 161.68L231.05 161.16L231.07 161.17Z" fill="#EDEEF2"/>
<path d="M320.81 123.34C319.18 123.43 317.41 123.94 315.4 124.92C315.12 125.06 314.84 125.2 314.56 125.34C312.93 126.16 311.25 127.01 309.35 127.01C309.23 127.01 309.11 127.01 308.99 127C307.68 126.93 306.51 126.44 305.39 125.96L304.75 125.69C303.85 125.33 302.68 124.91 301.5 124.91H301.49C300.58 124.91 298.97 125.32 298.04 125.79C298.73 126.65 299.36 127.54 299.93 128.43C300.49 128.43 301.43 128.59 303.09 129.12C303.23 129.17 305.37 130 306.45 130.57C307.39 131.07 308.35 131.71 309.46 132.58L310.06 133.06L310.17 133.15C310.7 133.57 311.22 133.99 311.77 134.38C312.01 134.55 312.32 134.81 312.6 135.12C315.48 131.7 320.54 126.05 320.78 125.78C321.49 124.9 322.11 123.86 322.34 123.24C322 123.28 321.66 123.29 321.34 123.3L320.82 123.32L320.81 123.34Z" fill="#EDEEF2"/>
<path d="M283.3 203.58C283.07 203.43 282.83 203.29 282.62 203.14C281.93 202.65 281.38 202.31 280.85 202.03C280.65 201.92 280.45 201.82 280.24 201.73C279.58 201.43 278.8 201.59 277.98 201.8L277.81 201.84C277.16 202.01 276.54 202.16 276.01 202.42C276.01 202.42 276 202.42 275.99 202.42C275.82 202.5 275.65 202.6 275.49 202.71C274.98 203.07 274.55 203.73 274.7 204.3C274.76 204.54 274.93 204.8 275.13 205.09C275.3 205.35 275.47 205.61 275.6 205.88C275.84 206.37 276 207.14 275.74 207.84C275.57 208.31 275.24 208.67 274.8 208.87C274.74 208.9 274.67 208.92 274.61 208.94C274.62 208.96 274.64 208.97 274.65 208.99C275.32 209.81 276.17 211.04 276.07 212.62C276.01 213.58 275.62 214.41 275.25 215.12C274.73 216.14 273.99 217.45 272.9 218.55C272.38 219.08 271.81 219.53 271.26 219.96C270.93 220.22 270.6 220.48 270.28 220.76C269.39 221.54 268.86 222.28 268.67 223.01L268.13 224.6C268.37 224.83 268.58 225.12 268.76 225.42C269.37 226.41 270.02 227.1 270.8 227.56L270.99 227.67C271.44 227.92 271.97 228.03 272.52 228.15C273 228.25 273.5 228.36 274.01 228.56C274.06 228.58 274.1 228.61 274.15 228.64C274.74 227.55 275.54 226.06 275.83 225.55C276.23 224.84 276.78 224.29 277.3 223.76L277.45 223.61C282.38 218.64 285.14 212.34 285.04 206.33C285.03 205.68 284.97 205.17 284.75 204.79C284.47 204.32 283.87 203.94 283.29 203.58H283.3Z" fill="#EDEEF2"/>
<path d="M297.49 141.72C296.94 140.44 297.02 139.2 297.71 138.39C298.12 137.91 298.65 137.68 299.08 137.48C299.24 137.41 299.41 137.34 299.56 137.25C300.51 136.7 300.82 135.4 300.71 134.42C300.58 133.17 299.91 131.97 299.25 130.84C297.55 127.98 295.39 124.82 292.18 123.16C289.44 121.74 285.33 121.64 283.13 124.25C282.83 124.6 282.57 125 282.3 125.43C281.92 126.02 281.52 126.62 280.99 127.16C279.9 128.26 278.06 128.91 276.65 128.02C275.51 127.3 275.22 126.02 274.97 124.9C274.74 123.86 274.56 123.21 274.08 122.96C273.51 122.66 272.6 123.08 271.79 123.53L269.68 124.72C269.49 124.84 269.31 124.98 269.11 125.09C269.04 125.13 268.96 125.15 268.88 125.17L263.74 128.06C262.64 128.68 260.97 129.62 259.22 129.24C258.24 129.03 257.42 128.44 256.7 127.93C255.9 127.36 255.22 126.86 254.5 126.96C253.64 127.08 253.06 128.14 252.89 129.07C252.79 129.61 252.76 130.18 252.73 130.79C252.7 131.53 252.66 132.29 252.48 133.06C251.71 136.36 248.69 138.36 246.3 139.46C243.21 140.88 239.09 141.1 237.34 138.24C237.1 137.84 236.94 137.44 236.78 137.05C236.66 136.75 236.54 136.44 236.38 136.17C236.15 135.79 235.77 135.52 235.55 135.58C235.38 135.63 235.15 135.86 234.99 136.03C233.27 137.79 231.64 139.69 230.15 141.66C229.3 142.79 229.01 143.58 229.23 144.16C229.35 144.47 229.64 144.76 229.98 145.1C230.3 145.42 230.66 145.77 230.94 146.23C231.69 147.48 231.5 148.92 231.33 150.19C231.26 150.68 231.2 151.13 231.2 151.52C231.2 153.39 231.56 155.49 232.27 157.74C233.01 158.44 233.61 159.68 232.85 161.8C232.78 161.99 232.71 162.17 232.64 162.36C232.37 163.05 232.13 163.7 232.18 164.29C232.23 164.77 232.48 165.28 232.75 165.81L232.97 166.24C233.09 166.48 233.22 166.74 233.36 167.01C234.22 168.67 235.28 170.73 234.61 172.69C234.3 173.6 233.61 174.35 232.62 174.95C232.63 175 232.65 175.04 232.66 175.08C232.75 175.43 232.89 176.01 233.01 176.15C233.06 176.2 233.29 176.27 233.75 176.18C235.92 175.75 238.26 173.85 240.33 172.17C241.15 171.51 241.92 170.88 242.66 170.36C243.94 169.45 245.54 168.32 247.43 168.1C248.97 167.92 250.57 168.51 251.46 169.6C251.92 170.16 252.04 170.83 252.15 171.42C252.26 172.02 252.33 172.32 252.52 172.42C252.71 172.52 253.12 172.43 253.49 172.36L253.71 172.31C256.84 171.7 259.75 172.98 262.56 174.21C263.59 174.66 264.65 175.13 265.69 175.48C266.08 175.61 266.48 175.73 266.88 175.85C267.72 176.1 268.59 176.36 269.42 176.75C270.52 177.26 271.96 178.21 272.6 179.82C272.64 179.93 272.68 180.04 272.72 180.16C272.8 180.39 272.89 180.63 272.98 180.72C273.08 180.81 273.33 180.86 273.73 180.86C274.17 180.88 274.7 180.84 275.28 180.81C277.78 180.69 281.19 180.52 283 182.27C283.8 183.04 284.19 184.07 284.18 185.34C284.16 187.1 282.97 188.38 281.93 189.52C281.6 189.88 281.27 190.23 280.98 190.6L280.59 191.09C279.71 192.17 279.47 192.46 279.64 195.74C279.73 197.52 279.45 198.8 278.97 199.77C279.65 199.7 280.35 199.74 281.05 200.06C281.3 200.17 281.54 200.29 281.78 200.42C282.37 200.74 282.98 201.12 283.73 201.65C283.92 201.78 284.12 201.91 284.33 202.04C284.77 202.32 285.24 202.62 285.66 203C286.85 201.86 288.48 200.31 289.49 196.77C291.01 190.09 290.8 183 290.6 176.14C290.49 172.4 290.38 168.53 290.54 164.73C290.6 163.3 290.73 161.79 291.57 160.52C292.24 159.49 293.22 158.85 294.16 158.23L294.56 157.97C298.8 155.1 302.01 150.73 303.51 145.85C302.6 145.8 301.68 145.56 300.83 145.14C299.33 144.41 298.16 143.2 297.53 141.75L297.49 141.72Z" fill="#EDEEF2"/>
<path d="M310.69 135.9C310.11 135.49 309.56 135.05 309.01 134.6L308.9 134.51L308.31 134.04C307.29 133.24 306.43 132.65 305.58 132.21C304.6 131.69 302.49 130.87 302.47 130.86C302.04 130.72 301.57 130.6 301.16 130.5C301.8 131.63 302.38 132.85 302.53 134.22C302.7 135.83 302.14 137.88 300.47 138.84C300.26 138.96 300.04 139.06 299.82 139.16C299.52 139.29 299.24 139.42 299.1 139.58C298.84 139.89 298.97 140.54 299.17 140.99C299.62 142.02 300.5 142.92 301.59 143.46C302.44 143.88 303.37 144.04 304.25 143.96C305.49 142.66 307.51 139.84 308.62 138.14C308.72 137.99 308.87 137.86 309.04 137.79L309.49 137.61C310.18 137.34 310.96 137.02 311.42 136.6C311.4 136.6 311.19 136.27 310.69 135.92V135.9Z" fill="#EDEEF2"/>
<path d="M324.92 111.27C324.63 111 323.85 110.4 323.02 110.8C322.7 110.95 322.4 111.27 322.09 111.59C321.87 111.82 321.64 112.06 321.4 112.26C320.11 113.35 318.53 113.61 316.99 113.87C315.95 114.04 314.97 114.21 314.13 114.61C313.53 114.9 312.98 115.32 312.4 115.77C312.19 115.94 311.97 116.1 311.75 116.26C311 116.81 309.84 117.56 308.49 117.64C307.15 117.71 305.58 117.01 305.13 115.51C304.65 113.91 305.69 112.56 306.53 111.48L306.82 111.1C306.96 110.91 307.03 110.75 307.07 110.65C307.03 110.65 306.98 110.63 306.91 110.62C305.72 110.47 304.47 110.76 303.48 111.43C303.1 111.69 302.74 112 302.38 112.31C301.41 113.15 300.32 114.09 298.82 114.12C297.9 114.14 297.09 113.79 296.37 113.48C295.76 113.21 295.19 112.96 294.64 112.99C294.23 113.01 293.78 113.21 293.3 113.42C293.2 113.46 293.09 113.51 292.99 113.56C292.88 113.64 292.77 113.72 292.67 113.79C292.52 113.89 292.35 113.93 292.18 113.93C292.13 113.93 292.08 113.9 292.03 113.89C291.72 113.97 291.41 114.02 291.07 114C289.54 113.95 288.55 112.87 287.67 111.92C287.06 111.25 286.48 110.63 285.81 110.4C285.4 110.26 284.91 110.27 284.4 110.28C283.36 110.31 281.01 110.61 279.45 110.82L278.8 110.9C278.72 111.11 278.64 111.32 278.58 111.53C278.42 112.11 278.35 112.71 278.37 113.33C278.37 113.55 278.42 113.76 278.46 113.98C278.53 114.37 278.62 114.82 278.57 115.29C278.42 116.88 277.21 118.23 276.5 118.89C276.11 119.25 275.73 119.62 275.36 119.98C274.98 120.34 274.6 120.7 274.22 121.07C274.45 121.12 274.69 121.19 274.91 121.31C276.19 121.97 276.5 123.36 276.75 124.48C276.94 125.33 277.12 126.14 277.62 126.45C278.18 126.8 279.11 126.43 279.67 125.85C280.07 125.44 280.4 124.94 280.75 124.4C281.04 123.95 281.35 123.48 281.72 123.04C284.54 119.69 289.64 119.74 293.02 121.5C294.47 122.25 295.71 123.25 296.8 124.38C298.18 123.52 300.44 123.06 301.49 123.06H301.5C302.99 123.06 304.38 123.55 305.43 123.97L306.09 124.25C307.12 124.68 308.09 125.09 309.09 125.15C310.64 125.23 312.14 124.48 313.73 123.68C314.02 123.53 314.31 123.39 314.6 123.25C316.84 122.16 318.84 121.59 320.72 121.49C320.91 121.49 321.1 121.48 321.29 121.47C321.91 121.45 322.49 121.44 322.97 121.24C323.61 120.98 324.18 120.35 324.71 119.3C325.71 117.33 326.48 114.45 325.65 112.28C325.51 111.91 325.25 111.54 324.94 111.24L324.92 111.27Z" fill="#EDEEF2"/>
<path d="M324.86 103.12C324.72 103.03 324.47 103 324.16 102.99C323.97 102.99 323.78 103.01 323.59 103.03C321.31 103.22 317.96 103.3 315.14 101.77L314.88 101.62C314.6 101.46 314.33 101.31 314.09 101.25C313.88 101.19 313.71 101.23 313.67 101.27C313.57 101.37 313.57 101.81 313.57 102.1C313.57 103.17 313.41 104.11 313.12 105.02C313.03 105.31 312.74 106.2 311.87 106.49C310.89 106.82 310.16 106.13 309.73 105.72C309.59 105.59 309.46 105.46 309.31 105.37C308.97 105.15 308.33 105.3 307.72 105.44L307.34 105.52C306 105.8 304.38 105.47 303.94 104.08C303.78 103.56 303.83 102.97 304.1 102.36C304.38 101.72 304.82 101.19 305.21 100.72C305.64 100.2 306.02 99.75 306.12 99.28C304 99.99 301.98 100.97 300.1 102.18C299.78 102.39 299.41 102.63 298.93 102.72C298.28 102.84 297.4 102.55 296.11 102.08C296 102.04 295.89 102 295.78 101.96C295.54 102.56 295.34 103.17 295.21 103.8C295.02 104.71 295 105.59 295.13 106.35C295.21 106.8 295.58 107.72 295.79 108.19C295.85 108.32 295.88 108.46 295.87 108.61C295.86 108.87 295.78 110.22 295.37 110.96C295.33 111.03 295.28 111.11 295.23 111.19C295.91 111.28 296.52 111.56 297.09 111.8C297.69 112.06 298.24 112.27 298.78 112.29C299.61 112.27 300.34 111.65 301.18 110.92C301.58 110.57 301.99 110.22 302.45 109.91C303.81 108.99 305.52 108.59 307.16 108.8C307.55 108.85 308.1 108.97 308.51 109.42C309.14 110.12 309.06 111.19 308.31 112.2L308 112.61C307.36 113.44 306.7 114.3 306.91 115C307.07 115.55 307.78 115.84 308.4 115.82C309.07 115.78 309.77 115.47 310.68 114.8C310.89 114.65 311.09 114.49 311.29 114.33C311.92 113.84 312.57 113.34 313.34 112.97C314.42 112.45 315.58 112.26 316.7 112.07C318.05 111.85 319.32 111.63 320.23 110.87C320.43 110.7 320.6 110.52 320.78 110.33C321.17 109.92 321.62 109.45 322.23 109.16C323.43 108.57 324.86 108.83 326.01 109.79C325.97 107.57 325.76 105.11 325.38 104.03C325.26 103.69 325.1 103.29 324.86 103.13V103.12Z" fill="#EDEEF2"/>
<path d="M198.13 299C197.84 298.62 197.55 297.96 197.83 296.99C198.12 296.02 198.86 295.38 199.51 294.82L199.57 294.77C199.89 294.49 200.18 294.24 200.36 293.95C200.6 293.58 200.54 293.32 200.46 293.15C200.24 292.67 199.53 292.22 198.85 292.14C198.41 292.08 197.94 292.09 197.44 292.09C196.63 292.09 195.77 292.09 194.91 291.83C193.48 291.39 192.44 290.32 191.53 289.37C191.34 289.18 191.16 288.99 190.97 288.8C188.06 285.94 184.07 284.34 181.32 283.39C175.88 281.51 171.51 280.96 167.54 281.64C162.04 282.58 157.24 286.04 153.28 289.3C149.52 292.39 145.78 295.86 141.84 299.91C140.15 301.64 138.55 303.37 137.54 305.42C137.29 305.93 137.23 306.47 137.32 306.7C137.5 306.81 137.92 306.62 138.19 306.49L138.46 306.37C141.28 305.12 145.05 306.49 146.86 309.43C147.08 309.79 147.27 310.16 147.47 310.54C147.78 311.14 148.07 311.7 148.46 312.15C148.92 312.67 149.74 313.05 150.25 312.75C150.34 312.69 150.43 312.62 150.52 312.55C150.79 312.33 151.13 312.06 151.61 311.95C151.75 311.92 151.88 311.91 152.01 311.91C152.71 311.91 153.29 312.29 153.63 312.52C158.85 315.94 164.25 319.47 169.18 323.52C170.03 324.22 170.9 325 171.28 326.11C171.77 327.56 171.27 328.97 170.82 330.22C170.7 330.55 170.58 330.89 170.48 331.21C170.08 332.56 170.05 334.04 170.4 335.28C170.4 335.32 170.42 335.35 170.43 335.37C170.74 335.27 171.31 334.86 171.57 334.67C171.71 334.57 171.84 334.47 171.96 334.4C174.16 332.92 176.39 331.09 178.77 328.8C181.24 326.42 183.58 323.84 185.64 321.56C190.93 315.72 197.46 308.51 199.81 299.95C199.19 299.83 198.54 299.56 198.12 299.01L198.13 299Z" fill="#EDEEF2"/>
<path d="M272.15 229.95C271.52 229.82 270.82 229.66 270.12 229.29L269.87 229.15C268.91 228.58 268.12 227.79 267.39 226.69C267.15 227.27 266.88 227.87 266.55 228.54C266.38 228.88 266.2 229.22 266.01 229.56C265.72 230.09 265.45 230.58 265.25 231.08C264.51 232.97 263.15 234.54 261.41 235.52C259.71 236.47 257.91 236.69 256.16 236.91C255.71 236.96 255.27 237.02 254.82 237.09C250.07 237.75 247.05 238.54 245.36 239.25C245.54 239.31 245.73 239.35 245.91 239.42C246.57 239.65 247.5 240.07 247.91 241C248.18 241.62 248.15 242.33 247.83 243.02C247.61 243.49 247.25 243.94 246.82 244.29C246.49 244.56 246.12 244.78 245.75 244.99C245.38 245.21 245.04 245.41 244.77 245.66C244.6 245.82 244.45 246 244.32 246.2C245.5 245.72 246.92 245.16 248.39 244.88C250.023 244.567 251.237 244.35 252.03 244.23C254.2 243.91 256.4 243.66 258.57 243.49C259.69 243.4 260.99 243.3 262.3 243.33C262.94 243.34 263.57 243.39 264.2 243.46C264.38 243.48 264.58 243.52 264.77 243.56C265.03 243.61 265.32 243.67 265.46 243.63C265.5 243.62 265.59 243.56 265.7 243.43C266.19 242.86 266.3 242.09 266.44 241.2C266.58 240.31 266.73 239.3 267.33 238.41C268.02 237.38 269.34 236.99 270.62 236.62C271.77 236.29 272.96 235.94 273.21 235.22C273.23 235.11 273.16 234.74 273.12 234.52C273.07 234.23 273.02 233.96 273.02 233.74C273.02 233.3 273.11 232.78 273.22 232.23C273.32 231.72 273.55 230.53 273.36 230.28C272.99 230.14 272.58 230.05 272.15 229.96V229.95Z" fill="#EDEEF2"/>
<path d="M141.48 195.77L142.06 195.26C142.74 194.67 143.58 194.02 144.58 193.63C147.08 192.66 149.7 193.57 152.01 194.38C152.54 194.56 153.07 194.75 153.59 194.91C156.11 195.69 159.78 194.68 162.73 193.87C165.19 193.2 166.96 192.71 168.05 193.17C169.89 193.94 169.29 195.89 168.94 197.06C168.77 197.61 168.49 198.52 168.67 198.75C169.26 199.51 170.91 199.96 172.22 199.95C171.97 199.22 171.82 198.44 171.8 197.61C171.75 194.35 173.58 191.35 175.18 189.1C176.36 187.44 177.58 185.82 179.45 184.28L179.83 183.97C181.24 182.82 182.7 181.62 183.37 180.01C183.49 179.73 183.58 179.43 183.68 179.14C183.9 178.45 184.16 177.67 184.68 177C185.39 176.09 186.42 175.62 187.32 175.2C187.85 174.96 188.35 174.73 188.77 174.43C190.47 173.21 190.71 171.17 190.97 169.02C191.06 168.29 191.14 167.57 191.28 166.87C191.97 163.37 193.03 159.92 194.41 156.63C194.47 156.48 194.54 156.32 194.62 156.16C193.71 155.83 192.96 155.04 192.61 153.95C192.12 152.4 192.41 150.25 192.67 148.35C192.77 147.62 192.86 146.94 192.9 146.37C193.04 144.04 193.27 141.27 193.97 138.29C194.53 135.88 195.24 133.63 196.08 131.54C188.45 131 180.76 130.42 173.06 129.83C164.94 129.21 156.82 128.6 148.77 128.03C145 127.76 141.66 127.37 139.03 125.24C136.71 123.36 135.59 120.58 134.51 117.89C133.64 115.72 132.81 113.65 131.42 112.12C130.6 115.1 130.23 118.17 130.31 121.26C130.31 121.5 130.23 121.74 130.06 121.92C129.89 122.1 129.66 122.2 129.42 122.2L108.05 122.7C107.14 122.72 106.4 122.77 105.88 123.12C105.16 123.61 104.88 124.71 104.71 125.72C103.91 130.31 103.98 135.13 104.89 139.71L114.36 140.99C115.11 141.09 116.36 141.26 117.1 142.22C117.94 143.3 117.64 144.6 117.4 145.64C117.33 145.93 117.27 146.22 117.23 146.49C117.08 147.59 117.42 148.75 117.78 149.99C118.26 151.63 118.76 153.32 118.15 155.06C117.65 156.5 116.57 157.45 115.53 158.38C114.97 158.87 114.44 159.34 114.02 159.86C112.09 162.26 112.37 165.81 112.83 169.25L114.43 181.22C114.53 181.94 114.64 182.76 115.03 183.31C115.52 183.99 116.47 184.33 117.43 184.59C119.98 185.28 124.14 185.25 126.9 185.22C129 185.2 129.74 185.2 130.17 185.37C131.34 185.83 131.19 187.47 131.02 189.2C130.96 189.8 130.9 190.47 130.94 190.75C131.07 191.61 131.97 193.52 132.97 194.78C133.85 195.89 136.98 199.32 140.3 196.76C140.7 196.45 141.08 196.11 141.46 195.77H141.48Z" fill="#EDEEF2"/>
<path d="M163.99 250.85C163.99 250.85 164.03 250.79 164.05 250.76C164.8 249.5 165.73 248.24 166.86 246.96C168.12 245.54 169.5 243.99 171.12 242.73C173.54 240.47 176.87 237.21 179.18 234.08C180.09 232.85 180.91 231.11 181.79 229.27C183.69 225.25 186.03 220.33 190.58 218.35C190.49 218.07 190.41 217.76 190.39 217.37C190.32 215.9 190.95 213.89 191.89 212.14C190.87 212.48 189.74 212.75 188.63 212.75C187.86 212.75 187.1 212.62 186.41 212.31C183.17 210.94 179.91 209.56 176.65 208.17C176.14 207.95 175.29 207.59 174.89 206.75C174.54 206.03 174.69 205.31 174.81 204.74C174.87 204.46 174.92 204.2 174.91 204C174.88 203.51 174.52 203.14 173.95 202.57C173.68 202.3 173.4 202.02 173.15 201.69C172.84 201.74 172.51 201.77 172.17 201.77C170.34 201.77 168.19 201.1 167.22 199.85C166.46 198.87 166.85 197.61 167.19 196.5C167.59 195.18 167.57 194.93 167.35 194.84C166.84 194.63 164.83 195.18 163.22 195.62C160.04 196.49 156.08 197.58 153.05 196.65C152.51 196.48 151.96 196.29 151.41 196.1C149.2 195.33 147.11 194.6 145.25 195.33C144.51 195.61 143.87 196.12 143.28 196.62C141.78 198.06 136.84 202.96 135.27 206.43C133.66 209.97 133.68 214.18 133.7 217.89L133.75 230.27C133.75 232.33 133.86 234.27 134.98 235.53C136.56 237.3 139.64 237.05 141.81 236.7C144.53 236.26 147.91 235.72 150.4 237.6C152.76 239.38 153.26 242.5 153.44 245.32C153.45 245.53 153.47 245.79 153.48 246.07C153.55 247.54 153.7 250.97 154.87 251.56C155.21 251.73 156.22 251.65 156.82 251.6C157.22 251.57 157.59 251.51 157.88 251.55C158.5 251.55 159.13 251.56 159.76 251.58C160.22 251.58 160.67 251.6 161.13 251.6H161.42C162.74 251.63 163.49 251.6 163.99 250.83V250.85Z" fill="#EDEEF2"/>
<path d="M210.86 280.84C210.65 280.44 210.43 280.02 210.26 279.54C209.88 278.43 210.07 277.27 210.27 276.38L210.38 275.93C210.65 274.81 211.35 271.98 210.5 271.23C208.19 272.28 205.38 272.33 202.69 272.22L201.46 272.16C198.28 272 194.67 271.83 191.92 273.1C190.68 273.67 189.56 274.63 188.78 275.78C188.2 276.63 187.54 277.16 186.21 277.02C183.65 276.74 181.19 276 178.81 275.29L177.83 275C176.31 274.55 175.03 274.2 173.72 273.93L173.21 273.83C172.02 273.58 170.9 273.35 169.84 273.59C168.98 273.79 168.76 275.5 168.65 276.42C168.58 277.03 168.59 277.46 168.68 277.83C168.9 278.65 169.83 279.34 170.61 279.53C173.98 279.49 177.66 280.18 181.94 281.66C184.86 282.67 189.1 284.37 192.28 287.49C192.48 287.68 192.67 287.89 192.87 288.09C193.71 288.95 194.5 289.77 195.48 290.07C196.07 290.25 196.74 290.25 197.46 290.25C197.99 290.25 198.55 290.25 199.12 290.32C200.44 290.49 201.66 291.32 202.15 292.38C202.54 293.21 202.46 294.13 201.93 294.95C201.61 295.44 201.2 295.82 200.8 296.17L200.73 296.23C200.22 296.66 199.75 297.07 199.62 297.52C199.59 297.61 199.54 297.81 199.61 297.89C199.72 298.03 200.13 298.18 200.7 298.2C204.22 295.43 210.38 290.49 211.44 285.38C211.66 284.29 211.67 283.23 211.46 282.23C211.36 281.76 211.13 281.32 210.89 280.86L210.86 280.84Z" fill="#EDEEF2"/>
<path d="M245.68 242.84C245.89 242.67 246.07 242.45 246.18 242.23C246.25 242.09 246.31 241.89 246.24 241.73C246.11 241.43 245.51 241.21 245.31 241.14C242.96 240.32 240.27 240.32 237.93 241.17C237.38 241.37 236.85 241.61 236.32 241.85C235.48 242.23 234.61 242.62 233.68 242.86C231.67 243.39 229.76 243.02 228.57 241.87C226.9 240.25 227.09 237.73 227.23 235.88C227.4 233.64 227.03 232.26 226.12 231.65C225.98 231.56 225.83 231.48 225.68 231.4C225.42 231.27 225.17 231.14 224.94 230.97C223.74 230.1 223.38 228.59 223.15 227.59L221.72 221.53C221.55 220.82 221.35 220.1 220.91 219.81C220.67 219.65 220.31 219.59 219.75 219.6C218.18 219.65 216.64 220.18 215.01 220.74C212.79 221.51 210.48 222.3 208.06 221.8C206.48 221.48 205.14 220.66 203.85 219.86C202.96 219.31 202.11 218.79 201.21 218.44C198.58 217.33 196.5 218.12 194.09 219.03C193.5 219.25 192.9 219.48 192.29 219.68C192.29 219.68 192.29 219.68 192.28 219.68C187.76 221.06 185.49 225.84 183.49 230.06C182.58 231.99 181.71 233.81 180.7 235.18C179.42 236.91 177.85 238.67 176.28 240.29C177.57 240 178.83 239.86 179.9 239.81C186.73 239.46 193.3 241.77 199.08 243.82C199.89 244.11 200.89 244.46 201.66 245.21C202.83 246.36 203.02 247.87 203.18 249.2C203.21 249.48 203.25 249.75 203.29 250.03C203.45 251.05 203.92 252.08 204.71 253.18C204.85 253.38 204.99 253.56 205.13 253.73C205.85 254.66 206.59 255.63 206.43 257.29C206.43 257.38 206.4 257.62 206.41 257.75C206.44 257.75 206.5 257.75 206.59 257.75C206.93 257.76 207.27 257.73 207.62 257.7C208.15 257.66 208.71 257.61 209.3 257.68C210.34 257.8 211.24 258.33 211.7 259.09C212.01 259.6 212.06 260.14 212.11 260.57C212.14 260.86 212.16 261.11 212.25 261.26C212.3 261.34 212.38 261.41 212.49 261.48C212.64 261.57 212.85 261.65 213.1 261.72L213.36 261.79C214.26 262.01 215.48 262.31 215.96 263.3C215.98 263.33 215.99 263.38 216 263.42C216.18 263.24 216.39 262.98 216.69 262.6C217.38 261.71 218.34 260.5 220.07 259.13C221.13 258.31 222.14 257.4 223.11 256.52C223.77 255.93 224.42 255.33 225.1 254.76C227.23 252.96 229.83 251.08 233.04 250.78C233.91 250.7 234.81 250.73 235.68 250.76C237.58 250.82 239.37 250.88 240.49 249.78C241.08 249.2 241.41 248.33 241.76 247.42C242.18 246.31 242.61 245.16 243.58 244.29C243.99 243.92 244.43 243.66 244.86 243.4C245.15 243.23 245.45 243.06 245.72 242.84H245.68Z" fill="#EDEEF2"/>
<path d="M212.6 263.49C212.17 263.38 211.81 263.23 211.5 263.05C211.11 262.82 210.81 262.52 210.61 262.16C210.33 261.67 210.28 261.15 210.24 260.74C210.21 260.45 210.19 260.19 210.09 260.04C209.93 259.77 209.5 259.55 209.04 259.5C208.63 259.45 208.19 259.49 207.73 259.53C207.32 259.56 206.91 259.6 206.5 259.58C206.11 259.57 205.53 259.5 205.08 259.08C204.43 258.46 204.51 257.58 204.56 257.11C204.65 256.17 204.27 255.67 203.63 254.84C203.48 254.65 203.33 254.45 203.18 254.24C202.21 252.9 201.65 251.62 201.44 250.3C201.39 250.01 201.36 249.71 201.32 249.41C201.18 248.28 201.05 247.21 200.34 246.51C199.86 246.04 199.14 245.79 198.43 245.54C192.8 243.55 186.43 241.27 179.95 241.63C178.3 241.72 176.16 241.94 174.28 242.86C173.59 243.2 172.93 243.64 172.31 244.12C172.24 244.19 172.15 244.27 172.08 244.33C169.29 246.94 167.59 248.73 165.62 251.7C165 252.74 164.5 253.79 164.15 254.84C163.63 256.38 163.26 258.02 162.89 259.6L162.63 260.74C162.57 261.02 162.49 261.31 162.41 261.62C162.06 262.94 161.63 264.58 162.07 265.61C162.48 266.56 163.43 267.07 164.52 266.94C164.7 266.92 164.9 266.86 165.11 266.79C165.86 266.58 167.11 266.22 167.99 267.2C168.79 268.1 169.04 270.12 169.1 270.72C169.18 270.99 169.32 271.29 169.39 271.37C169.51 271.46 170.11 271.63 170.53 271.65C171.59 271.61 172.62 271.83 173.56 272.02L174.05 272.12C175.43 272.4 176.76 272.76 178.32 273.23L179.31 273.52C181.61 274.21 183.99 274.93 186.38 275.19C186.83 275.24 186.91 275.22 187.23 274.74C188.21 273.29 189.56 272.14 191.12 271.42C194.28 269.95 198.13 270.14 201.52 270.31L202.74 270.37C205.35 270.48 208.04 270.44 210.03 269.39C211.82 268.31 213.34 266.05 214.16 264.29C214.22 264.16 214.23 264.08 214.23 264.07C214.1 263.87 213.2 263.65 212.86 263.57L212.57 263.5L212.6 263.49Z" fill="#EDEEF2"/>
</svg>
