<svg width="176" height="182" viewBox="0 0 176 182" fill="none" xmlns="http://www.w3.org/2000/svg">
<path d="M67.9424 21.4418C67.9693 21.9677 67.9478 22.4989 67.9263 23.0087L67.9049 23.5399C67.8781 24.3984 67.9103 25.1067 68.1517 25.7667C68.4468 26.5823 69.0585 27.2745 69.6488 27.9453L69.9922 28.337C71.1459 29.657 72.3424 31.0199 73.8234 31.7818C74.8483 32.3077 76.0181 32.6296 77.1449 32.9409C77.9659 33.1662 78.8137 33.4023 79.6185 33.7135C79.7956 33.7833 80.1229 33.9067 80.2785 34.2501C80.4663 34.6526 80.2624 35.0496 80.1766 35.2213L79.5702 36.4394C78.6956 38.194 77.7942 40.0077 76.8337 41.7623L71.5 52.2633L71.28 52.7945C70.8937 53.7121 70.4537 54.7531 70.3517 55.6438C70.1907 57.0657 70.3034 58.2409 70.6683 58.9599C71.9078 59.9579 72.5088 61.4443 73.0883 62.8823C73.6464 64.2667 74.1668 65.5813 75.2132 66.4292C76.399 67.3896 78.0303 67.5774 79.8868 67.7062C84.2064 68.0121 88.5688 68.3448 92.9259 68.6721C97.1649 68.994 101.404 69.316 105.611 69.6111C106.244 68.2321 107 66.9979 107.87 65.9248C107.993 65.7745 108.117 65.6243 108.245 65.474C108.744 64.8784 109.222 64.315 109.485 63.6443C109.721 63.0433 109.7 62.496 109.678 61.8628C109.667 61.5623 109.657 61.2511 109.667 60.9238C109.683 60.5965 109.667 60.2423 109.646 59.8667C109.592 58.8257 109.533 57.6506 110.188 56.7009C110.558 56.1696 111.095 55.7296 111.776 55.3916L111.969 55.3004C112.146 55.2145 112.318 55.1394 112.452 55.0374C112.64 54.8926 112.801 54.6726 112.962 54.4365C113.633 53.4492 114.019 52.5101 114.475 51.4155L114.54 51.2545C114.631 51.0399 114.33 50.6804 114.218 50.5999C114.207 50.5945 114.169 50.5677 114.153 50.557C114.132 50.5409 114.11 50.5301 114.083 50.514L113.981 50.4496C113.434 50.0687 113.348 49.6984 113.38 49.4462C113.38 49.4301 113.38 49.414 113.391 49.3979C113.402 49.3443 113.413 49.296 113.429 49.2584C113.429 49.2477 113.445 49.237 113.45 49.2262C113.515 49.1135 114.04 48.2013 114.963 47.2784C115.919 46.3233 118.457 43.4848 119.787 41.274C120.539 40.0238 121.22 38.6716 121.869 37.1316C122.223 36.2945 122.492 35.3984 122.749 34.5345C122.959 33.837 123.173 33.1126 123.441 32.4096C123.737 31.6155 123.994 30.977 124.236 30.4135C123.2 29.2062 121.247 29.0399 120.163 28.954C119.964 28.9379 119.798 28.9272 119.675 28.9111C115.495 28.3584 111.637 26.2604 107.907 24.2321L107.086 23.7867C106.877 23.674 106.652 23.4755 106.389 23.2448C106.174 23.057 105.772 22.7028 105.621 22.6653H105.611C105.364 22.7243 104.58 23.6204 104.323 23.9155C104.194 24.0604 104.081 24.1892 103.996 24.2804C102.74 25.5843 101.683 27.0492 100.846 28.6374L100.798 28.7287C100.368 29.5443 99.8854 30.4672 98.9141 30.8213C97.6693 31.2774 96.3815 30.4726 95.7054 29.5335C94.702 28.1277 94.1063 26.475 93.5268 24.8813C92.8776 23.0731 92.2605 21.3667 91.1015 19.9823C90.0283 18.6945 88.7351 17.9487 87.0288 17.6374C86.6478 17.5677 86.2937 17.5033 85.9717 17.3209C85.5532 17.0848 85.4137 16.736 85.301 16.457L85.2312 16.296C85.0702 15.9365 84.8932 15.5018 84.8288 15.0189C84.7644 14.5199 84.0829 13.715 83.6107 13.5809C82.7254 13.3233 81.5985 13.9404 80.8366 14.6004C80.5522 14.8472 80.5254 14.9813 80.5307 15.0243C80.5307 15.0726 80.5737 15.1638 80.6112 15.2496C80.681 15.416 80.7668 15.6199 80.7722 15.8667C80.7722 16.457 80.2893 16.9506 79.5381 17.1277C78.6473 17.337 77.5742 17.2726 76.3561 16.9292C75.1434 16.5911 74.8376 16.7521 73.6946 17.3477L73.6142 17.3906C73.0293 17.6965 72.3907 17.8306 71.7737 17.9594C71.5483 18.0077 71.3229 18.056 71.1029 18.1096C70.9366 18.1526 70.7595 18.1901 70.5663 18.2384C69.4932 18.4799 68.1571 18.7857 67.9317 19.6711C67.8298 20.0735 67.8673 20.5189 67.9049 20.9857C67.9156 21.136 67.9317 21.2916 67.9371 21.4418H67.9424Z" fill="#EDEEF2"/>
<path d="M86.1273 15.8936L86.2078 16.0868C86.3044 16.3175 86.3419 16.4034 86.4546 16.4678C86.637 16.5697 86.8785 16.6126 87.1361 16.6609C89.1268 17.0204 90.6507 17.9004 91.8634 19.36C93.1297 20.8785 93.8058 22.7512 94.4551 24.5541C95.0346 26.1585 95.5819 27.6717 96.5049 28.9702C96.9824 29.6356 97.8463 30.1721 98.5707 29.9039C99.1824 29.6785 99.558 28.9648 99.9175 28.278L99.9658 28.1868C100.84 26.518 101.957 24.978 103.277 23.6043C103.357 23.5239 103.459 23.4058 103.577 23.2717C104.221 22.5419 104.8 21.9195 105.348 21.7424C105.884 21.2112 107.043 19.8697 107.043 18.8717C107.043 17.6643 106.405 16.559 105.326 15.9097C105.165 15.8131 104.999 15.7273 104.833 15.6414C104.597 15.518 104.355 15.3946 104.135 15.2497C103.599 14.8902 103.196 14.3375 102.912 13.5487C102.579 12.6365 102.466 11.6707 102.354 10.737C102.284 10.1629 102.219 9.62093 102.107 9.08434C101.903 8.12386 101.704 7.17946 101.27 6.40678C101.146 6.20288 100.653 5.6341 100.374 5.45166C99.4883 6.63751 98.6512 8.01117 97.739 9.76044C97.3312 10.5439 96.9395 11.338 96.5585 12.1321C96.4566 12.3468 96.3546 12.5721 96.258 12.7975C96.0488 13.2804 95.8288 13.7741 95.5444 14.2248C95.437 14.3965 95.3244 14.5414 95.2063 14.6595C94.3317 15.5395 92.7488 15.4214 91.799 15.3517C90.801 15.2765 89.8297 15.0673 88.8853 14.8634L88.1931 14.7131C87.018 14.4985 86.2078 14.6809 85.7892 14.8312C85.7892 14.8526 85.8 14.8795 85.8053 14.9009C85.8536 15.2604 85.9931 15.6092 86.1273 15.9043V15.8936Z" fill="#EDEEF2"/>
<path d="M122.781 37.5234C122.111 39.101 121.408 40.4961 120.635 41.7893C119.245 44.102 116.686 46.9566 115.661 47.9815C115.446 48.1961 115.259 48.4054 115.092 48.6093C115.232 48.6146 115.371 48.6254 115.5 48.6468C115.527 48.6468 115.559 48.6576 115.586 48.6683C116.67 49.0332 117.475 49.4464 118.043 49.9346C119.347 51.3244 119.16 52.9824 118.768 54.5707C118.494 55.6868 118.21 56.8244 117.84 57.9244C117.893 58.0156 117.952 58.1176 118.017 58.2303C118.548 59.1532 119.809 61.3424 120.705 61.2405C120.823 61.2298 120.962 61.1868 121.107 61.1385C121.215 61.1064 121.317 61.0742 121.424 61.0473C122.213 60.8595 122.61 61.2029 122.771 61.4283C123.27 62.099 122.959 63.3332 122.594 63.961C122.384 64.3259 122.116 64.6264 121.859 64.9161C121.671 65.1254 121.499 65.3239 121.349 65.5332C120.78 66.3488 121.043 66.601 121.751 67.2771C121.928 67.4434 122.111 67.6259 122.288 67.819C122.765 68.3503 122.991 68.9995 123.211 69.6273C123.264 69.7829 123.323 69.9385 123.377 70.0888C123.785 69.6703 124.391 69.1766 125.164 68.581C125.255 68.5112 125.341 68.4468 125.4 68.3985C125.352 68.2107 125.212 67.8083 124.853 66.9766C124.837 66.939 124.826 66.8961 124.821 66.8585C124.461 64.5512 125.421 62.2868 127.675 60.1137C127.986 59.8132 128.341 59.5986 128.684 59.3946L128.915 59.2551C129.188 59.0834 129.446 58.8795 129.72 58.6649C129.859 58.5576 129.993 58.4503 130.133 58.3429C130.991 57.699 132.129 56.862 133.331 56.1161C133.417 56.0625 133.502 56.0034 133.588 55.9444C134.012 55.6654 134.49 55.3434 135.042 55.3059C135.279 55.2898 135.52 55.3059 135.761 55.322C135.874 55.3273 135.981 55.3381 136.089 55.3381C136.658 55.3542 137.983 55.3864 138.455 54.8873C138.552 54.7854 138.675 54.6083 138.643 54.2166C138.632 54.0771 138.605 53.9805 138.562 53.9107C138.503 53.8142 138.412 53.7229 138.31 53.621C138.139 53.4546 137.929 53.2507 137.801 52.9342C137.586 52.4137 137.543 51.7912 137.677 51.1849C137.79 50.6805 137.983 50.2459 138.176 49.8273C138.396 49.3444 138.6 48.8883 138.648 48.3785C138.648 48.3517 138.654 48.3249 138.664 48.2981C138.901 47.4234 138.89 46.6561 138.616 45.8781C138.503 45.5454 138.509 45.1376 138.52 44.7727C138.52 44.6546 138.525 44.542 138.52 44.4454C138.509 44.0107 138.52 43.4366 138.74 42.8946C139.121 41.9395 140.199 40.6893 141.278 40.3298L141.444 40.2815C141.519 40.26 141.594 40.2439 141.664 40.2064C141.825 40.1151 142.05 39.6322 142.195 39.3103C142.302 39.0795 142.404 38.8649 142.512 38.6932C142.528 38.6664 142.549 38.6395 142.571 38.6073C142.512 38.5859 142.453 38.559 142.399 38.5376C141.921 38.339 141.444 38.1459 140.956 37.9634L140.714 37.8776C140.473 37.7971 140.221 37.7112 139.968 37.5664C139.856 37.502 139.743 37.4268 139.636 37.3571C139.507 37.2712 139.378 37.1854 139.239 37.121C138.772 36.8956 138.348 36.7185 137.951 36.5737C137.237 36.3161 136.652 36.1659 136.105 36.1068C135.434 36.0317 134.855 36.1605 134.184 36.3054L133.969 36.3537C132.091 36.7561 130.975 34.7224 130.61 34.0571C130.251 33.3971 129.966 32.6942 129.714 32.0771C129.693 32.0234 129.666 31.9483 129.644 31.8678C129.634 31.8303 129.618 31.782 129.596 31.7283C129.467 31.7981 129.312 31.8946 129.21 31.959C128.952 32.1146 128.802 32.2059 128.673 32.2542C128.442 32.34 128.169 32.4205 127.868 32.3722C127.294 32.281 126.994 31.841 126.752 31.4922C126.64 31.3312 126.538 31.1756 126.436 31.1005C126.146 30.8805 125.722 30.7893 125.142 30.8215C124.906 31.3742 124.654 32.0127 124.359 32.7907C124.107 33.4615 123.898 34.1698 123.694 34.8512C123.431 35.742 123.157 36.6595 122.776 37.5503L122.781 37.5234Z" fill="#EDEEF2"/>
<path d="M36.7185 67.599C36.9761 67.599 37.2605 67.6366 37.5556 67.6795C38.1834 67.7654 38.8971 67.8673 39.1976 67.5454C39.3317 67.4059 39.4444 67.2664 39.5571 67.1322C39.9112 66.7029 40.2815 66.2629 40.9898 66C41.5961 65.7746 42.24 65.7103 42.7337 65.6834C43.0234 65.6673 43.2381 65.6512 43.3937 65.5815C43.6029 65.4849 43.7854 65.2649 43.9678 64.8732C44.2146 64.3527 44.4937 63.859 44.7673 63.3815L45.0678 62.8503C45.3307 62.3781 45.6581 61.7878 46.2054 61.4068C46.8278 60.9722 48.3356 60.6127 49.1459 61.0044C50.6268 61.7181 51.7751 62.9522 52.8859 64.1434C53.1327 64.4064 53.3795 64.6693 53.621 64.9268C54.619 64.8249 56.9049 64.8303 57.4039 64.8464C57.4254 64.8464 57.4468 64.8571 57.4683 64.8624C57.64 64.8464 57.8117 64.841 57.9566 64.8356L68.9351 64.5781C68.9351 62.7805 69.2195 61.0044 69.7507 59.2873C69.2303 58.1605 69.2571 56.6312 69.3805 55.5205C69.4986 54.4849 69.9654 53.3795 70.3785 52.3976L70.6093 51.8449L75.9644 41.2903C76.9249 39.541 77.821 37.7327 78.6902 35.9888L79.2966 34.7707C79.3234 34.7225 79.3395 34.6849 79.3503 34.6581C79.3288 34.6473 79.2966 34.6366 79.2644 34.6205C78.5024 34.3254 77.6761 34.1 76.882 33.8746C75.7068 33.5473 74.4888 33.2146 73.3727 32.6405C71.7254 31.7981 70.4107 30.2956 69.2464 28.9703L68.9083 28.5839C68.2859 27.881 67.5829 27.0815 67.2234 26.0888C67.0195 25.5307 66.9498 24.962 66.9229 24.3985C66.542 24.3878 66.0859 24.3717 65.6298 24.3556C64.9859 24.3342 64.3473 24.3073 63.9181 24.302C63.5585 24.2966 63.1937 24.2859 62.9093 24.4146C62.4371 24.6293 62.2117 25.2249 62.1205 25.5576C62.0507 25.8044 62.0078 26.0566 61.9595 26.3088C61.8951 26.6683 61.8254 27.0385 61.702 27.4088C61.6215 27.6395 61.4981 27.9239 61.2244 28.1225C60.9507 28.3156 60.6449 28.3425 60.4088 28.3425C59.9742 28.3425 59.5503 28.2673 59.1371 28.1976C58.5361 28.0903 57.9727 27.9937 57.4737 28.1493C56.8781 28.3371 56.422 28.9488 56.4166 29.5766C56.4166 29.7268 56.4327 29.8825 56.4488 30.0327C56.4864 30.3385 56.5239 30.6873 56.4381 31.0468C56.2824 31.6854 55.9122 31.9161 55.6225 31.9912C55.5259 32.0181 55.4239 32.0288 55.3166 32.0288C54.3722 32.0288 53.1542 31.0039 52.2527 30.0917C51.9683 29.802 51.6893 29.4746 51.582 29.0454C51.4371 28.4659 51.641 27.9454 51.8234 27.4893C51.8825 27.339 51.9415 27.1888 51.9898 27.0385C52.2795 26.0512 51.8503 24.9512 51.4317 23.8888L51.3083 23.5722C50.6483 21.8551 50.2029 20.0522 49.9883 18.2278L49.9776 18.1259C49.9132 17.5625 49.8488 17.0312 49.5644 16.6664C49.2317 16.2371 48.6254 16.0654 47.9868 15.8776C47.8473 15.84 47.7078 15.7971 47.5737 15.7542C46.3878 15.4429 45.1054 16.4571 44.1181 17.3639C43.6942 17.7556 43.2917 18.201 42.9 18.6303C42.3205 19.2742 41.7195 19.9395 40.9951 20.4868C39.0312 21.9732 36.3107 22.3434 34.0624 21.442C31.8517 20.5512 30.8537 18.5712 29.8824 16.6556C29.7483 16.3873 29.6088 16.119 29.4693 15.8507C29.4693 15.84 29.4532 15.8186 29.4424 15.8025C29.421 15.8025 29.3995 15.8025 29.3888 15.8078C26.6898 16.1244 24.0015 16.6664 21.3937 17.4176C20.8732 17.5678 20.4117 17.7127 20.0307 17.9703C19.6551 18.2278 19.4137 18.5873 19.3922 18.9307C19.3493 19.5156 19.8912 20.0415 20.2132 20.3098C20.3098 20.3903 20.621 20.5244 20.9 20.6425C21.7049 20.9859 22.7029 21.4151 22.9712 22.1825C23.0893 22.5098 23.0571 22.8585 22.88 23.1966C22.2898 24.3181 21.0127 23.8137 20.0844 23.4542C19.7249 23.3146 19.0595 23.0571 18.9093 23.1376C18.5337 23.3468 18.3137 23.599 18.2332 23.9156C18.0132 24.7795 18.802 26.0298 19.3815 26.942C19.5103 27.1459 19.6283 27.3337 19.7303 27.5C21.0449 29.7429 21.281 32.6405 20.4439 36.359C20.2454 37.2551 19.9985 38.1566 19.7624 39.0259C19.2527 40.9093 18.7215 42.8571 18.6356 44.8049C18.6249 45.0678 18.4049 45.2771 18.142 45.2771C14.4717 45.2342 11.2254 45.3522 8.73025 47.1766C6.69123 48.6683 5.37123 51.4049 4.09952 54.0556C3.44488 55.4132 2.77415 56.7976 2.00684 58.0156C2.25367 58.0424 2.4683 58.0907 2.62928 58.1283C13.7903 60.7415 23.4649 64.3581 32.1951 69.1605C32.4688 68.6615 33.0107 68.2751 33.3273 68.1088C34.3576 67.5722 35.6561 67.5829 36.7078 67.5883L36.7185 67.599Z" fill="#EDEEF2"/>
<path d="M47.7507 14.799C47.7776 14.8044 47.8098 14.799 47.8366 14.8098C47.8473 14.8098 47.8527 14.8205 47.858 14.8205C47.9922 14.8581 48.1317 14.8956 48.2712 14.9385C49.001 15.1478 49.8273 15.3839 50.3585 16.0707C50.8093 16.6556 50.8951 17.38 50.9702 18.0239L50.981 18.1205C51.1849 19.8698 51.6088 21.5868 52.242 23.2288L52.36 23.54C52.8161 24.7044 53.3259 26.019 52.9449 27.3283C52.8912 27.5054 52.8215 27.6824 52.7517 27.8595C52.6068 28.2298 52.478 28.5463 52.5478 28.8146C52.5961 29.0078 52.7517 29.1902 52.9663 29.4102C54.1254 30.5854 55.0644 31.1327 55.3702 31.0468C55.44 31.0307 55.4829 30.8537 55.4883 30.8161C55.5366 30.6229 55.5098 30.3922 55.4776 30.1454C55.4561 29.9522 55.4346 29.7537 55.4346 29.5605C55.4507 28.5142 56.1859 27.5215 57.1839 27.2102C57.9137 26.9795 58.622 27.1083 59.3141 27.2263C59.7005 27.2961 60.0654 27.3605 60.4141 27.3605C60.5912 27.3605 60.6449 27.3337 60.661 27.3229C60.6771 27.3122 60.72 27.2693 60.7737 27.0976C60.8756 26.7971 60.9346 26.4805 60.9937 26.1424C61.0473 25.8581 61.0956 25.579 61.1707 25.3054C61.4068 24.4415 61.8844 23.8083 62.5015 23.5239C62.9844 23.3039 63.5156 23.3093 63.9395 23.3254C64.3741 23.3361 65.018 23.3576 65.6673 23.379C66.1073 23.3951 66.5473 23.4112 66.9176 23.422L66.9337 22.9659C66.9551 22.4561 66.9766 21.9732 66.9498 21.4956C66.9444 21.3561 66.9283 21.2112 66.9176 21.0717C66.8907 20.7337 66.8639 20.3902 66.8854 20.0415C66.5634 19.5317 65.9249 19.0649 65.2971 18.6195C64.9376 18.362 64.5941 18.1205 64.299 17.8629C62.7268 16.4678 61.9273 14.4556 62.2117 12.6098C62.3405 11.7673 62.6785 11 63.0059 10.2595C63.3117 9.56732 63.6015 8.91269 63.7195 8.22049C63.8859 7.24927 62.8717 6.48196 61.981 5.80049C61.6537 5.55366 61.3478 5.32293 61.1171 5.08683C60.2746 4.2444 61.0634 3.42342 61.439 3.03171C61.541 2.9244 61.6912 2.76879 61.7449 2.67757C61.5732 2.28049 61.1707 1.98001 60.7415 1.93171C60.1083 1.86196 59.5234 2.30196 59.2337 2.56488C58.9385 2.83854 58.6756 3.16049 58.4019 3.49854C58.2356 3.70781 58.0639 3.91708 57.8868 4.11561C56.7815 5.35513 55.279 6.24049 53.6639 6.61074C53.4654 6.65903 53.2615 6.69659 53.0629 6.73415C52.6712 6.80927 52.301 6.87903 51.9576 7.00244C51.4371 7.19561 51.0615 7.5122 50.9273 7.87708C50.8951 7.96293 50.8683 8.05415 50.8468 8.14537C50.7449 8.50488 50.6054 8.99854 50.1117 9.22391C49.4034 9.54049 48.7863 8.98244 48.4215 8.64439C46.9566 7.31366 44.7888 7.0722 42.4976 6.95415C43.3132 7.86098 44.1985 8.93952 44.6385 10.2595C44.7673 10.6512 44.8585 11.0483 44.939 11.4346C45.0678 12.0302 45.1912 12.5937 45.4595 13.082C45.8727 13.8278 46.6829 14.4342 47.7454 14.7883V14.8044L47.7507 14.799Z" fill="#EDEEF2"/>
<path d="M117.051 96.5478H117.019C116.621 96.5586 116.321 96.7678 116.128 97.1649C115.672 98.1147 116.181 98.9625 116.852 99.3435C117.4 99.6547 118.226 99.7459 118.752 98.9625C119.095 98.4581 118.956 97.9698 118.779 97.6478C118.435 97.02 117.684 96.5425 117.056 96.5425L117.051 96.5478Z" fill="#EDEEF2"/>
<path d="M1.25022 59.1263C1.07315 59.2819 1.04632 59.6038 1.09461 59.8507C1.14827 60.1189 1.27705 60.3872 1.4112 60.6716L1.53461 60.9346C1.88876 61.7126 2.09803 62.5282 2.3073 63.3224C2.40388 63.698 2.50583 64.0736 2.61852 64.4385C3.03169 65.7907 3.55754 66.676 4.27656 67.2394C4.78632 67.6311 5.40339 67.8726 6.05803 68.1248C6.51412 68.3019 6.98632 68.4789 7.43169 68.7204C7.81803 68.9297 8.17217 69.1765 8.52095 69.4126C9.11656 69.8258 9.68534 70.2175 10.3239 70.3677C11.4936 70.6414 12.8029 70.137 14.4449 68.7687C14.5683 68.6668 14.8205 68.4521 15.1585 68.4521C15.1907 68.4521 15.2175 68.4521 15.2497 68.4575C15.6468 68.5058 15.9473 68.8224 16.0653 69.3321C16.2692 70.2014 16.1673 71.0707 16.0653 71.9077C15.9527 72.8199 15.8883 73.5658 16.0922 74.2472C16.8112 76.6511 20.7283 75.7497 22.8371 75.2668L23.0034 75.2292C25.8741 74.5692 28.6161 73.2867 30.9288 71.5214C31.7336 70.856 31.9697 70.3946 32.0395 70.1853C23.3146 65.3453 13.6185 61.7126 2.41998 59.0887C1.97998 58.9868 1.49169 58.9116 1.25022 59.1209V59.1263Z" fill="#EDEEF2"/>
<path d="M61.3371 84.2386C61.8254 83.8094 62.2815 83.4015 62.4639 82.8757C62.6839 82.2372 62.4747 81.5181 62.2493 80.7562C62.0347 80.0211 61.8093 79.2645 61.922 78.465C61.9488 78.2879 61.9864 78.1054 62.0293 77.923C62.142 77.4347 62.201 77.102 62.0508 76.9089C61.9112 76.7264 61.5678 76.6674 61.2244 76.6191L55.7995 75.8893C55.5956 75.8625 55.4293 75.7069 55.3864 75.5084C54.8015 72.8308 54.7425 69.9869 55.2147 67.2879C55.3005 66.7996 55.4293 66.2791 55.6976 65.8445C54.8015 65.8552 53.8571 65.8874 53.519 65.9464C53.3581 65.9733 53.1971 65.9196 53.0844 65.8069C52.7732 65.4957 52.4673 65.163 52.1561 64.8303C51.1098 63.7035 50.0205 62.5445 48.7112 61.9059C48.2981 61.7074 47.182 61.9328 46.7634 62.2279C46.4039 62.4801 46.1571 62.9201 45.921 63.3386L45.6205 63.8752C45.3468 64.3581 45.0893 64.8142 44.8586 65.2972C44.6761 65.6835 44.3703 66.2254 43.8015 66.483C43.4795 66.6279 43.1469 66.6493 42.8517 66.6654C42.342 66.6976 41.8161 66.7459 41.3332 66.923C40.8717 67.0947 40.6356 67.3737 40.3137 67.7654C40.1903 67.9157 40.0615 68.0713 39.9112 68.2269C39.262 68.9137 38.2425 68.7689 37.4215 68.6562C37.0137 68.5972 36.6971 68.5811 36.3859 68.5811C35.5166 68.5811 34.5132 68.6186 33.7942 68.9942C33.4293 69.182 33.0429 69.5684 33.0215 69.7723C33.0215 69.7884 33.0215 69.8152 33.0859 69.8742C33.1342 69.9172 33.1986 69.9762 33.279 70.0567C33.6439 70.4054 34.3254 71.0493 35.0981 71.2318C35.9029 71.4196 37.7971 71.1942 38.4625 71.0923C38.6073 71.0708 38.7522 71.1137 38.8595 71.205C38.9668 71.2962 39.0312 71.4357 39.0312 71.5806C38.9937 76.6674 39.7771 80.284 41.14 81.2498C41.5747 81.5557 42.0737 81.5986 42.6747 81.384C44.9015 80.5845 48.1639 82.3874 51.6142 84.2923C54.2917 85.7733 57.0498 87.2811 59.4429 87.6942C59.5449 86.7713 59.8239 85.902 60.4249 85.1562C60.7039 84.8128 61.0312 84.523 61.3478 84.2386H61.3371Z" fill="#EDEEF2"/>
<path d="M142.147 41.0488C142.002 41.124 141.868 41.1669 141.728 41.2044L141.605 41.242C140.854 41.4888 139.968 42.4976 139.673 43.2381C139.523 43.6083 139.512 44.0323 139.523 44.3918C139.523 44.5044 139.523 44.6386 139.523 44.7727C139.518 45.0249 139.507 45.3683 139.566 45.5293C139.904 46.4898 139.931 47.4342 139.646 48.4966C139.577 49.1459 139.33 49.6879 139.094 50.2137C138.917 50.6054 138.745 50.9757 138.659 51.3781C138.568 51.7913 138.595 52.2044 138.734 52.5425C138.788 52.6713 138.89 52.7679 139.019 52.8966C139.153 53.0254 139.303 53.1703 139.426 53.3742C139.55 53.5727 139.62 53.8142 139.646 54.1093C139.695 54.6942 139.544 55.1718 139.196 55.542C138.514 56.2664 137.296 56.3362 136.083 56.304C135.965 56.304 135.842 56.2932 135.719 56.2879C135.52 56.2771 135.321 56.261 135.128 56.2718C134.833 56.2932 134.484 56.524 134.146 56.7493C134.05 56.8137 133.953 56.8781 133.862 56.9318C132.692 57.6615 131.576 58.4825 130.734 59.1157C130.605 59.2123 130.471 59.3142 130.342 59.4215C130.058 59.6469 129.768 59.8776 129.451 60.0762L129.204 60.2264C128.893 60.4142 128.603 60.5913 128.373 60.8166C126.387 62.7323 125.518 64.6908 125.797 66.6386C126.511 68.2913 126.484 68.5757 126.366 68.8171C126.339 68.8762 126.291 68.9352 126.232 68.9888C126.162 69.0532 126.049 69.1444 125.776 69.3537C125.373 69.6649 124.246 70.5288 123.881 70.9957C123.908 71.0279 123.93 71.0654 123.957 71.0976C124.128 71.2854 124.536 71.6718 124.917 72.0366C125.046 72.1601 125.169 72.2781 125.282 72.3854C125.309 72.3586 125.336 72.3264 125.368 72.2942C125.529 72.1332 125.77 71.8864 126.119 71.7898C126.774 71.6127 127.369 72.0474 127.67 72.5571C127.793 72.761 127.874 72.9703 127.954 73.1688C128.024 73.3459 128.094 73.5176 128.18 73.6571C128.85 74.7518 130.675 74.4191 131.737 73.9308C132.821 73.4318 134.184 72.5518 134.506 71.1674C134.581 70.8401 134.597 70.4966 134.613 70.1318C134.629 69.7883 134.645 69.4342 134.715 69.0747C134.865 68.2752 135.402 67.2932 136.411 67.1537C137.178 67.0464 137.774 67.4703 138.3 67.8459C138.643 68.0874 138.965 68.3181 139.292 68.3879C139.823 68.5005 140.419 68.2054 141.031 67.862L144.213 66.0752C145.264 65.4098 146.15 64.5781 147.078 63.6874C147.282 63.4888 147.491 63.2903 147.701 63.0971C148.167 62.6571 148.468 62.1688 148.505 61.7879C148.516 61.6752 148.489 61.5196 148.457 61.3586C148.425 61.1923 148.398 61.0259 148.393 60.8596C148.377 60.4303 148.43 60.0064 148.543 59.5986C148.607 59.3732 148.688 59.1586 148.774 58.9386C148.779 58.9171 148.79 58.8957 148.795 58.8796L148.849 58.7454C149.149 57.9513 149.359 57.243 149.487 56.5776C149.487 56.5723 149.487 56.5669 149.487 56.5615L149.396 56.5401C148.098 56.2127 147.921 54.6191 147.819 53.6693L147.797 53.4654C147.765 53.181 147.733 52.8913 147.701 52.6069C147.641 52.0435 147.577 51.4854 147.497 50.9274C147.464 50.7074 147.448 50.4766 147.432 50.2352C147.405 49.7791 147.373 49.3069 147.201 48.9796L146.976 48.561C146.525 47.7347 146.101 46.9513 146.069 45.7922C146.053 45.1591 145.978 44.5044 145.908 43.8766L145.887 43.6996C145.865 43.5118 145.855 43.3186 145.839 43.1201C145.812 42.6801 145.78 42.224 145.645 41.8698C145.189 40.6947 145.055 39.8737 145.211 39.2083C145.211 39.0796 144.964 38.5483 144.781 38.3015C144.637 38.1083 144.561 38.1244 144.497 38.1459C144.052 38.264 143.676 38.7576 143.37 39.2244C143.29 39.3479 143.209 39.5249 143.123 39.7127C142.887 40.2225 142.619 40.802 142.168 41.0596L142.147 41.0488Z" fill="#EDEEF2"/>
<path d="M146.804 43.0394C146.815 43.2219 146.826 43.3989 146.847 43.5706L146.869 43.7477C146.944 44.397 147.019 45.0731 147.035 45.7492C147.057 46.6721 147.395 47.2892 147.824 48.0726L148.055 48.5019C148.328 49.017 148.366 49.618 148.398 50.1492C148.414 50.3584 148.425 50.5677 148.452 50.7609C148.538 51.3297 148.597 51.9038 148.661 52.478C148.693 52.7623 148.725 53.0467 148.758 53.3311L148.779 53.5404C148.86 54.2862 148.988 55.4077 149.621 55.5687C149.841 55.617 150.078 55.6653 150.26 55.8692C150.544 56.1858 150.464 56.5936 150.437 56.7492C150.335 57.2911 150.163 57.8706 149.96 58.477C150.85 58.3589 151.999 58.2141 152.573 58.198C152.921 58.1872 153.297 58.1872 153.667 58.3106C154.268 58.5092 154.703 58.9814 155.084 59.3945C155.47 59.8184 155.808 60.178 156.211 60.1941C156.356 60.1833 156.538 60.1297 156.721 60.0653C157.059 59.7862 157.482 59.3301 157.627 59.0672C157.692 58.9545 157.745 58.6272 157.767 58.3482C157.665 58.1175 157.456 57.597 157.391 57.2482C157.295 56.7116 157.311 56.1267 157.44 55.5097C157.552 54.957 157.751 54.4365 157.981 53.9321C157.992 53.8999 158.003 53.8677 158.019 53.8409C158.309 53.2292 158.641 52.655 158.974 52.1453L161.587 48.0672C161.775 47.7775 162.183 47.4233 162.784 46.9189C162.934 46.7902 163.133 46.6292 163.288 46.4897C162.977 46.2482 162.44 45.835 161.915 45.4326C160.638 44.4506 159.049 43.2326 158.126 42.4331C156.672 41.1775 154.955 39.7662 152.991 38.9184C150.92 38.0277 148.843 37.8989 147.137 38.5643C146.627 38.7628 146.316 39.0043 146.209 39.278C146.193 39.3155 146.166 39.3477 146.144 39.3799C146.144 39.3906 146.144 39.4014 146.144 39.4121C146.042 39.8682 146.166 40.5282 146.541 41.4994C146.735 41.9931 146.767 42.5243 146.799 43.0394H146.804Z" fill="#EDEEF2"/>
<path d="M149.965 101.656C150.137 101.436 150.33 101.227 150.528 101.018C151.011 100.497 151.467 100.003 151.473 99.4346C151.473 99.0268 151.371 98.7263 151.145 98.5063C150.48 97.8624 148.827 97.9429 147.733 97.9965C147.395 98.0126 147.089 98.0234 146.842 98.0234C146.515 98.0234 146.096 97.9751 145.779 97.6853C145.549 97.4707 145.458 97.2024 145.382 96.9878L145.329 96.8429C145.152 96.4029 144.722 96.0004 144.121 95.7214C143.74 95.5443 143.327 95.4209 142.893 95.2868C142.667 95.217 142.447 95.1526 142.222 95.0775C141.626 94.8736 141.036 94.6161 140.462 94.3639C139.029 93.7361 137.677 93.1458 136.298 93.4087L136.191 93.4302C135.847 93.5 135.423 93.5858 135.01 93.3712C134.474 93.0868 134.372 92.5395 134.302 92.1424C134.264 91.9224 134.227 91.7185 134.141 91.6112C133.878 91.2892 133.347 91.1014 132.853 91.1604C132.091 91.2463 131.378 91.7507 130.75 92.1961C130.379 92.459 129.977 92.7863 129.553 93.1297C128.351 94.1063 126.994 95.2063 125.593 95.48C124.922 95.6087 124.541 95.4102 124.332 95.217C124.059 94.9595 123.957 94.5517 123.86 94.16C123.828 94.0258 123.796 93.8863 123.753 93.7629C123.726 93.677 123.699 93.6234 123.683 93.5965C123.624 93.618 123.511 93.677 123.323 93.8273C123.189 93.9346 123.066 94.0741 122.937 94.2244C122.76 94.4336 122.556 94.6643 122.288 94.8468C122.154 94.938 122.009 95.0131 121.864 95.0829C121.676 95.1795 121.51 95.26 121.429 95.3673C121.279 95.5658 121.349 95.8824 121.478 96.3814C121.612 96.8912 121.767 97.4707 121.531 98.0341C121.279 98.6458 120.721 98.9195 120.227 99.1609C120.007 99.2683 119.803 99.3702 119.637 99.4883C119.133 99.8585 118.934 100.626 119.186 101.195C119.267 101.377 119.396 101.576 119.524 101.785C119.911 102.397 120.388 103.153 119.889 103.92C119.75 104.135 119.567 104.275 119.406 104.398C119.294 104.484 119.186 104.564 119.143 104.639C119.047 104.806 119.165 105.128 119.278 105.439C119.31 105.525 119.342 105.616 119.369 105.702C119.659 106.587 119.546 107.596 119.052 108.481C118.559 109.367 117.759 109.995 116.852 110.215C116.079 110.402 115.318 110.311 114.577 110.231C114.277 110.198 113.971 110.161 113.67 110.15C112.2 110.08 110.73 110.526 109.308 110.95C107.741 111.422 106.126 111.905 104.854 112.919C103.979 113.617 103.083 115.527 103.137 116.573C103.137 116.664 103.159 116.739 103.175 116.804C103.373 116.734 103.577 116.664 103.776 116.589C105.144 116.074 106.555 115.543 108.31 116.283C108.862 116.498 109.378 116.815 109.871 117.115C110.52 117.512 111.138 117.888 111.814 118.027C112.855 118.237 113.912 117.877 115.028 117.496C115.935 117.185 116.874 116.863 117.861 116.831C118.178 116.82 118.65 116.836 119.052 117.104C119.637 117.485 119.803 118.199 119.9 118.623L120.667 121.875C120.791 122.395 120.925 122.883 121.252 123.119C121.333 123.178 121.429 123.227 121.52 123.27C121.633 123.329 121.746 123.388 121.853 123.458C123.066 124.257 122.932 126.038 122.889 126.618C122.824 127.46 122.749 128.507 123.313 129.054C123.769 129.494 124.547 129.489 125.116 129.338C125.539 129.226 125.947 129.043 126.382 128.85C126.688 128.711 126.999 128.577 127.316 128.458C128.244 128.126 129.237 127.997 130.213 128.078C131.05 127.321 133.175 126.698 136.577 126.221C136.819 126.183 137.071 126.151 137.318 126.124C138.198 126.017 139.035 125.915 139.775 125.497C140.51 125.083 141.09 124.418 141.401 123.613C141.53 123.286 141.696 122.98 141.862 122.679C141.954 122.513 142.045 122.341 142.131 122.175C142.399 121.622 142.598 121.156 142.753 120.71L143.215 119.363C143.359 118.805 143.746 118.247 144.374 117.7C144.556 117.539 144.744 117.389 144.937 117.238C145.221 117.013 145.49 116.804 145.726 116.562C146.107 116.176 146.445 115.682 146.81 114.963C146.96 114.674 147.121 114.336 147.142 114.014C147.164 113.633 146.998 113.236 146.611 112.763C146.509 112.64 146.391 112.495 146.316 112.302C146.203 111.985 146.262 111.653 146.477 111.433C146.638 111.266 146.831 111.218 146.955 111.186C146.981 111.18 147.008 111.175 147.03 111.164C147.03 111.143 147.03 111.003 146.976 110.885C146.922 110.778 146.858 110.676 146.788 110.579C146.654 110.376 146.499 110.15 146.423 109.86C146.219 109.082 146.681 108.342 147.234 107.95C147.362 107.859 147.497 107.784 147.636 107.714C148.232 107.446 149.117 107.038 149.015 105.058C148.908 103.024 149.117 102.654 149.745 101.887L149.943 101.64L149.965 101.656Z" fill="#EDEEF2"/>
<path d="M162.424 48.5985L159.811 52.6765C159.575 53.0468 159.35 53.4331 159.135 53.8248C159.167 53.8355 159.194 53.8463 159.226 53.857C159.521 53.9643 160.042 54.1629 160.24 54.1521C160.289 54.1414 160.391 54.077 160.487 54.0126C161.603 53.2882 162.795 52.7194 164.045 52.3063C164.174 52.2633 164.41 52.1882 164.667 52.2687C165.054 52.3868 165.29 52.7892 165.252 53.2614C165.209 53.857 164.85 54.2916 164.528 54.6726C164.345 54.8926 164.168 55.1019 164.077 55.3165C164.029 55.4346 164.018 55.5151 164.029 55.5472C164.061 55.6492 164.372 55.719 164.705 55.6492L164.893 55.6063C165.37 55.499 165.96 55.3648 166.486 55.6975C166.615 55.778 166.739 55.8907 166.862 56.0033C166.91 56.0463 166.975 56.1107 167.028 56.1482C167.039 56.1214 167.055 56.0838 167.071 56.0355C167.2 55.6438 167.264 55.236 167.264 54.8282C167.264 54.4312 167.264 53.9697 167.608 53.6263C167.892 53.3419 168.343 53.2399 168.783 53.358C169.035 53.4277 169.25 53.5458 169.438 53.6531L169.561 53.7229C170.838 54.4204 172.442 54.3775 173.542 54.2809C173.661 54.2702 173.784 54.2594 173.907 54.2594C174.036 54.2594 174.202 54.2594 174.38 54.3024C174.256 52.8643 173.537 51.0346 172.641 50.0902C171.981 49.398 171.02 48.8936 169.7 48.5502C169.196 48.4214 168.504 48.1907 167.774 47.9438C166.588 47.5468 165.15 47.0638 164.217 46.9297C164.034 47.1282 163.766 47.359 163.417 47.6487C163.047 47.9599 162.537 48.3838 162.419 48.5716L162.424 48.5985Z" fill="#EDEEF2"/>
<path d="M124.611 73.1098C124.499 72.9972 124.364 72.8791 124.23 72.7503C123.822 72.364 123.404 71.9669 123.221 71.763C122.733 71.2318 122.502 70.5718 122.282 69.9386C122.089 69.3806 121.901 68.8494 121.558 68.463C121.397 68.2859 121.231 68.125 121.07 67.9747C120.367 67.304 119.492 66.4669 120.544 64.9537C120.726 64.6962 120.93 64.4655 121.129 64.2455C121.365 63.9825 121.59 63.7303 121.751 63.4513C122.02 62.9898 122.148 62.2172 121.987 62.0025C121.944 61.9435 121.789 61.9596 121.66 61.9918C121.574 62.0133 121.488 62.0401 121.408 62.0669C121.225 62.1259 121.027 62.1903 120.796 62.2064C119.278 62.3406 118.006 60.1567 117.169 58.7025C117.061 58.5147 116.965 58.3537 116.884 58.2196C116.809 58.0962 116.793 57.9406 116.841 57.8011C117.239 56.6796 117.528 55.4884 117.813 54.3401C118.204 52.7518 118.263 51.5874 117.367 50.6323C116.949 50.2781 116.246 49.9186 115.323 49.602C114.958 49.5537 114.69 49.5752 114.518 49.6074C114.523 49.6074 114.534 49.6181 114.54 49.6235C114.641 49.6772 114.706 49.7201 114.76 49.7576C115.13 49.9937 115.8 50.7986 115.462 51.6196L115.398 51.7806C114.926 52.9181 114.518 53.9055 113.794 54.9733C113.595 55.2684 113.375 55.5742 113.064 55.8103C112.849 55.9713 112.613 56.084 112.404 56.1806L112.227 56.2664C111.706 56.524 111.282 56.862 111.014 57.2537C110.547 57.9245 110.601 58.8796 110.644 59.8079C110.665 60.1889 110.681 60.5859 110.665 60.9615C110.655 61.2567 110.665 61.5411 110.676 61.8201C110.703 62.5015 110.73 63.2045 110.419 63.9986C110.097 64.8196 109.544 65.4689 109.018 66.102C108.895 66.2469 108.771 66.3918 108.653 66.5367C107.006 68.5757 105.788 71.2211 105.047 74.4084C104.688 75.9323 104.57 77.3757 104.495 78.5776C104.473 78.905 104.425 79.2967 104.366 79.7098C104.248 80.5791 104.098 81.663 104.296 82.2801C104.403 82.6128 104.661 82.8972 105.015 82.8542C105.289 82.5484 105.627 82.3069 106.072 82.2318C107.322 82.0172 108.095 83.1762 108.653 84.0133C108.793 84.2225 108.921 84.4211 109.05 84.5767C109.431 85.0489 109.63 85.065 109.7 85.0489C109.85 85.0113 109.995 84.7376 110.134 84.4747C110.354 84.0508 110.655 83.4767 111.32 83.4069C112.087 83.3318 112.49 83.9811 112.79 84.4533C112.86 84.5659 112.93 84.6786 113 84.7752C113.552 85.5318 114.743 85.5425 115.232 85.5211C116.348 85.4567 117.421 85.124 118.564 84.7752C119.959 84.3406 121.402 83.9006 122.926 83.9972C123.109 84.0079 123.275 84.0294 123.431 84.0562C123.184 83.0689 123.055 82.1352 123.055 81.2767C123.055 81.003 123.093 80.7133 123.13 80.4289C123.2 79.8815 123.28 79.3181 123.05 78.9425C122.969 78.803 122.83 78.6689 122.69 78.5294C122.46 78.304 122.202 78.0464 122.057 77.6762C121.687 76.7157 122.411 75.7552 122.685 75.3903C123.286 74.5908 123.94 73.8289 124.611 73.0884V73.1098Z" fill="#EDEEF2"/>
<path d="M123.989 86.4815C124.295 85.6229 124 85.3976 123.871 85.2956C123.78 85.2259 123.667 85.1668 123.533 85.1186C123.345 85.0542 123.125 85.0166 122.851 84.9951C121.52 84.9093 120.217 85.3064 118.843 85.7303C117.695 86.0844 116.509 86.4493 115.275 86.519C114.47 86.5566 113 86.4761 112.195 85.3707C112.109 85.2527 112.023 85.1186 111.942 84.9844C111.765 84.7 111.54 84.3727 111.411 84.3995C111.277 84.4156 111.138 84.6839 110.998 84.9415C110.783 85.36 110.51 85.8805 109.92 86.02C109.093 86.2132 108.481 85.462 108.278 85.2098C108.133 85.0327 107.982 84.8073 107.827 84.5712C107.274 83.7449 106.813 83.1117 106.222 83.2137C105.858 83.2727 105.541 83.6537 105.224 84.4049C104.511 86.1112 103.963 87.8927 103.604 89.7064C103.534 90.0551 103.491 90.42 103.448 90.7849C103.298 92.0405 103.126 93.4678 101.86 94.3747C101.56 94.5893 101.232 94.7395 100.916 94.8844C100.497 95.0776 100.1 95.26 99.8639 95.5605C99.6922 95.7805 99.5902 96.0864 99.4883 96.4029C99.4293 96.5854 99.3702 96.7678 99.2951 96.9449C98.839 98.0395 97.9215 98.7907 97.1059 99.4561L96.9073 99.6225C96.0756 100.309 95.5229 100.991 94.7932 102.021C94.0205 103.105 93.1405 104.538 93.1619 106.002C93.1727 106.598 93.3497 107.167 93.6556 107.591C93.7468 107.72 93.881 107.848 94.0205 107.988C94.3639 108.326 94.7932 108.744 94.8307 109.399C94.8468 109.641 94.7985 109.861 94.7556 110.059C94.718 110.247 94.6805 110.429 94.7234 110.515C94.7771 110.628 95.0185 110.73 95.1634 110.789C96.9127 111.535 98.662 112.275 100.411 113.016C101.586 113.547 103.609 112.554 104.285 112.13C105.697 111.02 107.462 110.488 109.023 110.021C110.451 109.592 112.071 109.104 113.719 109.179C114.04 109.195 114.368 109.233 114.69 109.27C115.377 109.345 116.02 109.42 116.621 109.276C117.26 109.12 117.829 108.664 118.188 108.02C118.548 107.376 118.634 106.652 118.43 106.029C118.403 105.954 118.376 105.874 118.349 105.799C118.178 105.326 117.963 104.736 118.285 104.173C118.424 103.926 118.634 103.765 118.8 103.636C118.907 103.556 119.009 103.475 119.058 103.4C119.202 103.175 119.015 102.847 118.687 102.327C118.542 102.096 118.392 101.86 118.285 101.613C118.129 101.259 118.07 100.878 118.097 100.502C117.952 100.535 117.802 100.556 117.646 100.556C117.217 100.556 116.777 100.438 116.353 100.197C115.269 99.5742 114.54 98.1898 115.232 96.7356C115.586 96.0005 116.208 95.582 116.981 95.5605C117.002 95.5605 117.019 95.5605 117.04 95.5605C118.027 95.5605 119.111 96.2312 119.626 97.1756C119.814 97.519 119.911 97.8732 119.927 98.222C120.249 98.061 120.517 97.9107 120.614 97.6746C120.721 97.4171 120.619 97.0415 120.517 96.6498C120.367 96.0864 120.179 95.3834 120.635 94.7825C120.855 94.4927 121.15 94.3478 121.413 94.2137C121.52 94.16 121.628 94.1064 121.724 94.042C121.885 93.9293 122.03 93.7629 122.186 93.5859C122.336 93.4088 122.497 93.2264 122.696 93.0654C123.007 92.8132 123.479 92.4966 123.967 92.6415C124.16 92.7005 124.295 92.8186 124.402 92.9473C124.67 92.7649 124.847 92.561 124.928 92.3303C125.153 91.681 124.686 90.7795 124.311 90.0605C124.23 89.9049 124.155 89.76 124.091 89.6205L123.983 89.4059C123.812 89.0678 123.613 88.6815 123.57 88.2361C123.517 87.6888 123.71 87.1898 123.876 86.7551L123.978 86.4761L123.989 86.4815Z" fill="#EDEEF2"/>
<path d="M172.142 66.1823C171.267 66.2306 170.318 66.5043 169.239 67.0301C169.089 67.1052 168.939 67.1804 168.788 67.2555C167.914 67.6955 167.012 68.1516 165.993 68.1516C165.928 68.1516 165.864 68.1516 165.799 68.1462C165.097 68.1087 164.469 67.8457 163.868 67.5882L163.524 67.4433C163.041 67.2501 162.414 67.0248 161.78 67.0248H161.775C161.287 67.0248 160.423 67.2448 159.924 67.497C160.294 67.9584 160.632 68.436 160.938 68.9135C161.239 68.9135 161.743 68.9994 162.634 69.2838C162.709 69.3106 163.857 69.756 164.437 70.0618C164.941 70.3301 165.456 70.6735 166.052 71.1404L166.374 71.3979L166.433 71.4462C166.717 71.6716 166.996 71.897 167.291 72.1062C167.42 72.1974 167.586 72.337 167.737 72.5033C169.282 70.6682 171.997 67.6365 172.126 67.4916C172.507 67.0194 172.839 66.4613 172.963 66.1287C172.78 66.1501 172.598 66.1555 172.426 66.1609L172.147 66.1716L172.142 66.1823Z" fill="#EDEEF2"/>
<path d="M152.015 109.238C151.891 109.157 151.762 109.082 151.65 109.002C151.28 108.739 150.984 108.556 150.7 108.406C150.593 108.347 150.485 108.294 150.373 108.245C150.019 108.084 149.6 108.17 149.16 108.283L149.069 108.304C148.72 108.396 148.387 108.476 148.103 108.616C148.103 108.616 148.098 108.616 148.092 108.616C148.001 108.658 147.91 108.712 147.824 108.771C147.55 108.964 147.32 109.318 147.4 109.624C147.432 109.753 147.523 109.893 147.631 110.048C147.722 110.188 147.813 110.327 147.883 110.472C148.012 110.735 148.098 111.148 147.958 111.524C147.867 111.776 147.69 111.969 147.454 112.076C147.421 112.093 147.384 112.103 147.352 112.114C147.357 112.125 147.368 112.13 147.373 112.141C147.733 112.581 148.189 113.241 148.135 114.089C148.103 114.604 147.894 115.049 147.695 115.43C147.416 115.977 147.019 116.68 146.434 117.271C146.155 117.555 145.849 117.796 145.554 118.027C145.377 118.167 145.2 118.306 145.028 118.456C144.551 118.875 144.266 119.272 144.164 119.664L143.875 120.517C144.003 120.64 144.116 120.796 144.213 120.957C144.54 121.488 144.889 121.858 145.307 122.105L145.409 122.164C145.651 122.298 145.935 122.357 146.23 122.422C146.488 122.476 146.756 122.535 147.03 122.642C147.057 122.653 147.078 122.669 147.105 122.685C147.421 122.1 147.851 121.3 148.006 121.027C148.221 120.646 148.516 120.351 148.795 120.066L148.876 119.986C151.521 117.319 153.002 113.938 152.948 110.714C152.943 110.365 152.911 110.091 152.793 109.887C152.642 109.635 152.32 109.431 152.009 109.238H152.015Z" fill="#EDEEF2"/>
<path d="M159.629 76.0448C159.334 75.358 159.377 74.6926 159.747 74.258C159.967 74.0005 160.251 73.877 160.482 73.7697C160.568 73.7322 160.659 73.6946 160.74 73.6463C161.249 73.3512 161.416 72.6536 161.357 72.1278C161.287 71.457 160.927 70.8131 160.573 70.2068C159.661 68.6722 158.502 66.9766 156.78 66.0858C155.309 65.3239 153.104 65.2702 151.923 66.6707C151.762 66.8585 151.623 67.0731 151.478 67.3039C151.274 67.6205 151.06 67.9424 150.775 68.2322C150.19 68.8224 149.203 69.1712 148.446 68.6936C147.835 68.3073 147.679 67.6205 147.545 67.0195C147.421 66.4614 147.325 66.1126 147.067 65.9785C146.761 65.8175 146.273 66.0429 145.839 66.2844L144.706 66.9229C144.604 66.9873 144.508 67.0624 144.401 67.1214C144.363 67.1429 144.32 67.1536 144.277 67.1644L141.519 68.7151C140.929 69.0478 140.033 69.5522 139.094 69.3483C138.568 69.2356 138.128 68.919 137.741 68.6453C137.312 68.3395 136.947 68.0712 136.561 68.1248C136.1 68.1892 135.788 68.758 135.697 69.257C135.643 69.5468 135.627 69.8526 135.611 70.18C135.595 70.577 135.574 70.9848 135.477 71.398C135.064 73.1687 133.443 74.2419 132.161 74.8322C130.503 75.5941 128.292 75.7122 127.353 74.1775C127.224 73.9629 127.139 73.7483 127.053 73.539C126.988 73.378 126.924 73.2117 126.838 73.0668C126.715 72.8629 126.511 72.718 126.393 72.7502C126.301 72.777 126.178 72.9005 126.092 72.9917C125.169 73.9361 124.295 74.9556 123.495 76.0127C123.039 76.619 122.883 77.0429 123.001 77.3541C123.066 77.5205 123.221 77.6761 123.404 77.8585C123.576 78.0302 123.769 78.218 123.919 78.4648C124.321 79.1356 124.22 79.9083 124.128 80.5897C124.091 80.8526 124.059 81.0941 124.059 81.3034C124.059 82.3068 124.252 83.4336 124.633 84.6409C125.03 85.0166 125.352 85.6819 124.944 86.8195C124.906 86.9214 124.869 87.018 124.831 87.12C124.686 87.4902 124.558 87.839 124.584 88.1556C124.611 88.4131 124.745 88.6868 124.89 88.9712L125.008 89.2019C125.073 89.3307 125.142 89.4702 125.218 89.6151C125.679 90.5058 126.248 91.6112 125.888 92.6629C125.722 93.1512 125.352 93.5536 124.821 93.8756C124.826 93.9024 124.837 93.9239 124.842 93.9453C124.89 94.1331 124.965 94.4444 125.03 94.5195C125.057 94.5463 125.18 94.5839 125.427 94.5356C126.591 94.3048 127.847 93.2853 128.958 92.3839C129.398 92.0297 129.811 91.6917 130.208 91.4126C130.895 90.9244 131.753 90.318 132.767 90.2C133.594 90.1034 134.452 90.42 134.93 91.0048C135.177 91.3053 135.241 91.6648 135.3 91.9814C135.359 92.3034 135.397 92.4644 135.499 92.518C135.601 92.5717 135.821 92.5234 136.019 92.4858L136.137 92.459C137.817 92.1317 139.378 92.8185 140.886 93.4785C141.439 93.72 142.007 93.9722 142.565 94.16C142.775 94.2297 142.989 94.2941 143.204 94.3585C143.655 94.4927 144.121 94.6322 144.567 94.8414C145.157 95.1151 145.93 95.6248 146.273 96.4888C146.295 96.5478 146.316 96.6068 146.338 96.6712C146.381 96.7946 146.429 96.9234 146.477 96.9717C146.531 97.02 146.665 97.0468 146.88 97.0468C147.116 97.0575 147.4 97.0361 147.711 97.02C149.053 96.9556 150.882 96.8644 151.854 97.8034C152.283 98.2166 152.492 98.7692 152.487 99.4507C152.476 100.395 151.838 101.082 151.28 101.694C151.102 101.887 150.925 102.075 150.77 102.273L150.561 102.536C150.088 103.116 149.96 103.271 150.051 105.031C150.099 105.986 149.949 106.673 149.691 107.194C150.056 107.156 150.432 107.178 150.807 107.349C150.941 107.408 151.07 107.473 151.199 107.542C151.516 107.714 151.843 107.918 152.245 108.202C152.347 108.272 152.455 108.342 152.567 108.412C152.803 108.562 153.056 108.723 153.281 108.927C153.92 108.315 154.794 107.483 155.336 105.584C156.152 101.999 156.039 98.1951 155.932 94.5141C155.873 92.5073 155.814 90.4307 155.9 88.3917C155.932 87.6244 156.001 86.8141 156.452 86.1327C156.812 85.58 157.338 85.2365 157.842 84.9039L158.057 84.7644C160.332 83.2244 162.054 80.8795 162.859 78.2609C162.371 78.2341 161.877 78.1053 161.421 77.88C160.616 77.4883 159.988 76.839 159.65 76.0609L159.629 76.0448Z" fill="#EDEEF2"/>
<path d="M166.712 72.922C166.4 72.702 166.105 72.4659 165.81 72.2244L165.751 72.1761L165.435 71.9239C164.887 71.4947 164.426 71.1781 163.97 70.942C163.444 70.663 162.312 70.223 162.301 70.2176C162.07 70.1425 161.818 70.0781 161.598 70.0244C161.941 70.6308 162.253 71.2854 162.333 72.0205C162.424 72.8844 162.124 73.9844 161.228 74.4995C161.115 74.5639 160.997 74.6176 160.879 74.6712C160.718 74.741 160.568 74.8108 160.493 74.8966C160.353 75.063 160.423 75.4117 160.53 75.6532C160.772 76.2059 161.244 76.6888 161.829 76.9786C162.285 77.2039 162.784 77.2898 163.256 77.2469C163.921 76.5493 165.005 75.0361 165.601 74.1239C165.655 74.0434 165.735 73.9737 165.826 73.9361L166.068 73.8395C166.438 73.6947 166.857 73.523 167.103 73.2976C167.093 73.2976 166.98 73.1205 166.712 72.9327V72.922Z" fill="#EDEEF2"/>
<path d="M174.347 59.7059C174.192 59.561 173.773 59.239 173.328 59.4537C173.156 59.5342 172.995 59.7059 172.829 59.8776C172.711 60.001 172.587 60.1298 172.459 60.2371C171.766 60.822 170.919 60.9615 170.092 61.101C169.534 61.1922 169.008 61.2834 168.558 61.4981C168.236 61.6537 167.941 61.879 167.629 62.1205C167.517 62.2117 167.399 62.2976 167.281 62.3834C166.878 62.6785 166.256 63.081 165.531 63.1239C164.812 63.1615 163.97 62.7859 163.728 61.981C163.471 61.1225 164.029 60.3981 164.48 59.8186L164.635 59.6146C164.71 59.5127 164.748 59.4268 164.769 59.3732C164.748 59.3732 164.721 59.3625 164.683 59.3571C164.045 59.2766 163.374 59.4322 162.843 59.7917C162.639 59.9312 162.446 60.0976 162.253 60.2639C161.732 60.7146 161.147 61.219 160.342 61.2351C159.849 61.2459 159.414 61.0581 159.028 60.8917C158.701 60.7468 158.395 60.6127 158.1 60.6288C157.88 60.6395 157.638 60.7468 157.38 60.8595C157.327 60.881 157.268 60.9078 157.214 60.9346C157.155 60.9776 157.096 61.0205 157.042 61.0581C156.962 61.1117 156.871 61.1332 156.78 61.1332C156.753 61.1332 156.726 61.1171 156.699 61.1117C156.533 61.1546 156.366 61.1815 156.184 61.1707C155.363 61.1439 154.832 60.5644 154.36 60.0546C154.032 59.6951 153.721 59.3625 153.361 59.239C153.141 59.1639 152.879 59.1693 152.605 59.1746C152.047 59.1907 150.786 59.3517 149.949 59.4644L149.6 59.5073C149.557 59.62 149.514 59.7327 149.482 59.8454C149.396 60.1566 149.359 60.4785 149.369 60.8112C149.369 60.9293 149.396 61.042 149.418 61.16C149.455 61.3693 149.503 61.6107 149.477 61.8629C149.396 62.7161 148.747 63.4405 148.366 63.7946C148.157 63.9878 147.953 64.1864 147.754 64.3795C147.55 64.5727 147.346 64.7659 147.142 64.9644C147.266 64.9912 147.395 65.0288 147.513 65.0932C148.2 65.4473 148.366 66.1932 148.5 66.7942C148.602 67.2503 148.699 67.6849 148.967 67.8512C149.267 68.039 149.766 67.8405 150.067 67.5293C150.281 67.3093 150.459 67.041 150.646 66.7512C150.802 66.5098 150.968 66.2576 151.167 66.0215C152.68 64.2239 155.417 64.2507 157.23 65.1951C158.008 65.5976 158.674 66.1342 159.259 66.7405C159.999 66.279 161.212 66.0322 161.775 66.0322H161.781C162.58 66.0322 163.326 66.2951 163.889 66.5205L164.243 66.6707C164.796 66.9015 165.317 67.1215 165.853 67.1537C166.685 67.1966 167.49 66.7942 168.343 66.3649C168.499 66.2844 168.654 66.2093 168.81 66.1342C170.012 65.5493 171.085 65.2434 172.094 65.1898C172.196 65.1898 172.298 65.1844 172.4 65.179C172.732 65.1683 173.043 65.1629 173.301 65.0556C173.644 64.9161 173.95 64.5781 174.235 64.0146C174.771 62.9576 175.184 61.4122 174.739 60.2478C174.664 60.0493 174.524 59.8507 174.358 59.6898L174.347 59.7059Z" fill="#EDEEF2"/>
<path d="M174.315 55.3327C174.24 55.2844 174.106 55.2683 173.94 55.2629C173.838 55.2629 173.736 55.2737 173.634 55.2844C172.41 55.3864 170.613 55.4293 169.1 54.6083L168.96 54.5278C168.81 54.442 168.665 54.3615 168.536 54.3293C168.423 54.2971 168.332 54.3186 168.311 54.34C168.257 54.3937 168.257 54.6298 168.257 54.7854C168.257 55.3595 168.171 55.8639 168.016 56.3522C167.967 56.5078 167.812 56.9854 167.345 57.141C166.819 57.3181 166.427 56.9478 166.197 56.7278C166.121 56.6581 166.052 56.5883 165.971 56.54C165.789 56.422 165.445 56.5025 165.118 56.5776L164.914 56.6205C164.195 56.7708 163.326 56.5937 163.09 55.8478C163.004 55.5688 163.031 55.2522 163.176 54.9249C163.326 54.5815 163.562 54.2971 163.771 54.0449C164.002 53.7659 164.206 53.5244 164.26 53.2722C163.122 53.6532 162.038 54.179 161.029 54.8283C160.858 54.941 160.659 55.0698 160.401 55.1181C160.053 55.1825 159.58 55.0269 158.888 54.7747C158.829 54.7532 158.77 54.7317 158.711 54.7103C158.582 55.0322 158.475 55.3595 158.405 55.6976C158.303 56.1859 158.293 56.6581 158.362 57.0659C158.405 57.3073 158.604 57.801 158.717 58.0532C158.749 58.123 158.765 58.1981 158.76 58.2786C158.754 58.4181 158.711 59.1425 158.491 59.5395C158.47 59.5771 158.443 59.62 158.416 59.663C158.781 59.7112 159.108 59.8615 159.414 59.9903C159.736 60.1298 160.031 60.2425 160.321 60.2532C160.766 60.2425 161.158 59.9098 161.609 59.5181C161.823 59.3303 162.043 59.1425 162.29 58.9761C163.02 58.4825 163.938 58.2678 164.818 58.3805C165.027 58.4073 165.322 58.4717 165.542 58.7132C165.88 59.0888 165.837 59.6629 165.435 60.2049L165.268 60.4249C164.925 60.8703 164.571 61.3317 164.683 61.7073C164.769 62.0025 165.15 62.1581 165.483 62.1473C165.842 62.1259 166.218 61.9595 166.706 61.6C166.819 61.5195 166.926 61.4337 167.034 61.3478C167.372 61.0849 167.72 60.8166 168.134 60.6181C168.713 60.339 169.336 60.2371 169.937 60.1351C170.661 60.0171 171.342 59.899 171.831 59.4912C171.938 59.4 172.029 59.3034 172.126 59.2015C172.335 58.9815 172.577 58.7293 172.904 58.5737C173.548 58.2571 174.315 58.3966 174.932 58.9117C174.911 57.7205 174.798 56.4005 174.594 55.821C174.53 55.6386 174.444 55.4239 174.315 55.3381V55.3327Z" fill="#EDEEF2"/>
<path d="M106.314 160.439C106.158 160.235 106.002 159.881 106.153 159.36C106.308 158.84 106.705 158.496 107.054 158.196L107.086 158.169C107.258 158.019 107.414 157.885 107.51 157.729C107.639 157.531 107.607 157.391 107.564 157.3C107.446 157.042 107.065 156.801 106.7 156.758C106.464 156.726 106.212 156.731 105.943 156.731C105.509 156.731 105.047 156.731 104.586 156.592C103.819 156.356 103.26 155.781 102.772 155.272C102.67 155.17 102.574 155.068 102.472 154.966C100.91 153.431 98.7693 152.573 97.2937 152.063C94.3746 151.054 92.0298 150.759 89.8995 151.124C86.9483 151.628 84.3727 153.485 82.2478 155.234C80.2302 156.892 78.2234 158.754 76.1093 160.927C75.2024 161.856 74.3439 162.784 73.8019 163.884C73.6678 164.157 73.6356 164.447 73.6839 164.571C73.7805 164.63 74.0059 164.528 74.1507 164.458L74.2956 164.394C75.8088 163.723 77.8317 164.458 78.8029 166.036C78.921 166.229 79.0229 166.427 79.1302 166.631C79.2966 166.953 79.4522 167.254 79.6615 167.495C79.9083 167.774 80.3483 167.978 80.622 167.817C80.6702 167.785 80.7185 167.747 80.7668 167.71C80.9117 167.592 81.0941 167.447 81.3517 167.388C81.4268 167.372 81.4966 167.366 81.5663 167.366C81.9419 167.366 82.2532 167.57 82.4356 167.694C85.2366 169.529 88.1341 171.423 90.7795 173.596C91.2356 173.972 91.7024 174.39 91.9063 174.986C92.1693 175.764 91.901 176.52 91.6595 177.191C91.5951 177.368 91.5307 177.551 91.4771 177.722C91.2624 178.447 91.2463 179.241 91.4341 179.906C91.4341 179.928 91.4449 179.944 91.4502 179.955C91.6166 179.901 91.9224 179.681 92.062 179.579C92.1371 179.525 92.2068 179.472 92.2712 179.434C93.4517 178.64 94.6483 177.658 95.9254 176.429C97.2507 175.152 98.5063 173.768 99.6117 172.544C102.45 169.411 105.954 165.542 107.215 160.949C106.882 160.884 106.534 160.739 106.308 160.444L106.314 160.439Z" fill="#EDEEF2"/>
<path d="M146.032 123.388C145.694 123.318 145.318 123.232 144.942 123.034L144.808 122.958C144.293 122.653 143.869 122.229 143.478 121.638C143.349 121.95 143.204 122.272 143.027 122.631C142.936 122.814 142.839 122.996 142.737 123.178C142.581 123.463 142.437 123.726 142.329 123.994C141.932 125.008 141.202 125.851 140.269 126.376C139.357 126.886 138.391 127.004 137.452 127.122C137.21 127.149 136.974 127.181 136.733 127.219C134.184 127.573 132.563 127.997 131.657 128.378C131.753 128.41 131.855 128.432 131.952 128.469C132.306 128.593 132.805 128.818 133.025 129.317C133.17 129.65 133.154 130.031 132.982 130.401C132.864 130.653 132.671 130.895 132.44 131.082C132.263 131.227 132.064 131.345 131.866 131.458C131.667 131.576 131.485 131.683 131.34 131.817C131.249 131.903 131.168 132 131.099 132.107C131.732 131.85 132.494 131.549 133.282 131.399C134.159 131.231 134.81 131.115 135.236 131.05C136.4 130.878 137.58 130.744 138.745 130.653C139.346 130.605 140.043 130.551 140.746 130.567C141.09 130.573 141.428 130.599 141.766 130.637C141.862 130.648 141.97 130.669 142.072 130.691C142.211 130.717 142.367 130.75 142.442 130.728C142.463 130.723 142.512 130.691 142.571 130.621C142.834 130.315 142.893 129.902 142.968 129.424C143.043 128.947 143.123 128.405 143.445 127.927C143.816 127.375 144.524 127.165 145.211 126.967C145.828 126.79 146.466 126.602 146.6 126.216C146.611 126.156 146.574 125.958 146.552 125.84C146.525 125.684 146.499 125.539 146.499 125.421C146.499 125.185 146.547 124.906 146.606 124.611C146.659 124.337 146.783 123.699 146.681 123.565C146.482 123.49 146.262 123.441 146.032 123.393V123.388Z" fill="#EDEEF2"/>
<path d="M75.9161 105.047L76.2273 104.774C76.5922 104.457 77.043 104.108 77.5795 103.899C78.921 103.378 80.3269 103.867 81.5664 104.301C81.8508 104.398 82.1351 104.5 82.4142 104.586C83.7664 105.004 85.7356 104.462 87.3186 104.028C88.6386 103.668 89.5883 103.405 90.1732 103.652C91.1605 104.065 90.8386 105.112 90.6508 105.739C90.5595 106.035 90.4093 106.523 90.5059 106.646C90.8225 107.054 91.7078 107.296 92.4108 107.29C92.2766 106.898 92.1961 106.48 92.1854 106.035C92.1586 104.285 93.1405 102.676 93.999 101.468C94.6322 100.577 95.2868 99.7082 96.2903 98.8819L96.4942 98.7155C97.2508 98.0984 98.0342 97.4545 98.3937 96.5906C98.4581 96.4404 98.5064 96.2794 98.56 96.1238C98.6781 95.7536 98.8176 95.335 99.0966 94.9755C99.4776 94.4872 100.03 94.235 100.513 94.0097C100.798 93.8809 101.066 93.7575 101.291 93.5965C102.203 92.9419 102.332 91.8472 102.472 90.6936C102.52 90.3019 102.563 89.9155 102.638 89.5399C103.008 87.6619 103.577 85.8106 104.318 84.0453C104.35 83.9648 104.387 83.8789 104.43 83.7931C103.942 83.616 103.54 83.1921 103.352 82.6072C103.089 81.7755 103.244 80.6219 103.384 79.6024C103.438 79.2106 103.486 78.8458 103.507 78.5399C103.582 77.2897 103.706 75.8033 104.081 74.2043C104.382 72.9111 104.763 71.7038 105.214 70.5823C101.12 70.2926 96.9932 69.9814 92.8615 69.6648C88.5044 69.3321 84.1473 69.0048 79.8278 68.6989C77.8049 68.5541 76.0127 68.3448 74.6015 67.2019C73.3566 66.1931 72.7556 64.7014 72.1761 63.258C71.7093 62.0936 71.2639 60.9828 70.5181 60.1619C70.0781 61.7609 69.8795 63.4082 69.9225 65.0663C69.9225 65.195 69.8795 65.3238 69.7883 65.4204C69.6971 65.517 69.5737 65.5706 69.4449 65.5706L57.9781 65.8389C57.4898 65.8497 57.0927 65.8765 56.8137 66.0643C56.4273 66.3272 56.2771 66.9175 56.1859 67.4594C55.7566 69.9224 55.7942 72.5087 56.2825 74.9663L61.3639 75.6531C61.7664 75.7067 62.4371 75.798 62.8342 76.3131C63.2849 76.8926 63.1239 77.5902 62.9951 78.1482C62.9576 78.3038 62.9254 78.4594 62.9039 78.6043C62.8234 79.1945 63.0059 79.817 63.199 80.4824C63.4566 81.3624 63.7249 82.2692 63.3976 83.2028C63.1293 83.9755 62.5498 84.4853 61.9917 84.9843C61.6912 85.2472 61.4068 85.4994 61.1815 85.7784C60.1459 87.0663 60.2961 88.9711 60.543 90.817L61.4015 97.2399C61.4551 97.6263 61.5142 98.0662 61.7234 98.3614C61.9864 98.7262 62.4961 98.9087 63.0112 99.0482C64.3795 99.4184 66.6117 99.4024 68.0927 99.3863C69.2195 99.3755 69.6166 99.3755 69.8473 99.4667C70.4751 99.7136 70.3947 100.594 70.3034 101.522C70.2712 101.844 70.239 102.203 70.2605 102.354C70.3303 102.815 70.8132 103.84 71.3498 104.516C71.822 105.112 73.5015 106.952 75.283 105.578C75.4976 105.412 75.7015 105.23 75.9054 105.047H75.9161Z" fill="#EDEEF2"/>
<path d="M87.9946 134.602C87.9946 134.602 88.0161 134.57 88.0268 134.554C88.4293 133.878 88.9283 133.202 89.5346 132.515C90.2107 131.753 90.9512 130.921 91.8205 130.245C93.119 129.033 94.9058 127.283 96.1454 125.604C96.6336 124.944 97.0736 124.01 97.5458 123.023C98.5654 120.866 99.821 118.226 102.262 117.163C102.214 117.013 102.171 116.847 102.16 116.637C102.123 115.849 102.461 114.77 102.965 113.831C102.418 114.014 101.812 114.158 101.216 114.158C100.803 114.158 100.395 114.089 100.025 113.922C98.2863 113.187 96.5371 112.447 94.7878 111.701C94.5141 111.583 94.058 111.39 93.8434 110.939C93.6556 110.553 93.7361 110.166 93.8005 109.86C93.8327 109.71 93.8595 109.571 93.8541 109.463C93.838 109.2 93.6449 109.002 93.339 108.696C93.1941 108.551 93.0439 108.401 92.9097 108.224C92.7434 108.251 92.5663 108.267 92.3839 108.267C91.4019 108.267 90.2483 107.907 89.7278 107.236C89.32 106.711 89.5293 106.035 89.7117 105.439C89.9263 104.731 89.9156 104.596 89.7976 104.548C89.5239 104.436 88.4454 104.731 87.5815 104.967C85.8751 105.434 83.7502 106.018 82.1244 105.519C81.8346 105.428 81.5395 105.326 81.2444 105.224C80.0585 104.811 78.9371 104.419 77.939 104.811C77.5419 104.961 77.1985 105.235 76.8819 105.503C76.0771 106.276 73.4263 108.905 72.5839 110.767C71.72 112.667 71.7307 114.926 71.7415 116.916L71.7683 123.559C71.7683 124.665 71.8273 125.706 72.4283 126.382C73.2761 127.332 74.9288 127.197 76.0932 127.01C77.5527 126.774 79.3663 126.484 80.7024 127.493C81.9688 128.448 82.2371 130.122 82.3337 131.635C82.339 131.748 82.3497 131.887 82.3551 132.037C82.3927 132.826 82.4732 134.667 83.101 134.983C83.2834 135.075 83.8254 135.032 84.1473 135.005C84.3619 134.989 84.5605 134.956 84.7161 134.978C85.0488 134.978 85.3868 134.983 85.7249 134.994C85.9717 134.994 86.2132 135.005 86.46 135.005H86.6156C87.3239 135.021 87.7263 135.005 87.9946 134.592V134.602Z" fill="#EDEEF2"/>
<path d="M113.144 150.695C113.032 150.48 112.914 150.255 112.822 149.997C112.619 149.401 112.72 148.779 112.828 148.301L112.887 148.06C113.032 147.459 113.407 145.941 112.951 145.538C111.712 146.102 110.204 146.128 108.76 146.069L108.1 146.037C106.394 145.951 104.457 145.86 102.981 146.541C102.316 146.847 101.715 147.362 101.297 147.98C100.985 148.436 100.631 148.72 99.9176 148.645C98.5439 148.495 97.2239 148.098 95.9468 147.717L95.421 147.561C94.6054 147.32 93.9185 147.132 93.2156 146.987L92.9419 146.933C92.3034 146.799 91.7024 146.676 91.1336 146.804C90.6722 146.912 90.5541 147.829 90.4951 148.323C90.4575 148.65 90.4629 148.881 90.5112 149.08C90.6293 149.52 91.1283 149.89 91.5468 149.992C93.3551 149.97 95.3297 150.341 97.6263 151.135C99.1932 151.677 101.468 152.589 103.175 154.263C103.282 154.365 103.384 154.478 103.491 154.585C103.942 155.046 104.366 155.486 104.892 155.647C105.208 155.744 105.568 155.744 105.954 155.744C106.239 155.744 106.539 155.744 106.845 155.781C107.553 155.873 108.208 156.318 108.471 156.887C108.68 157.332 108.637 157.826 108.353 158.266C108.181 158.529 107.961 158.733 107.746 158.921L107.709 158.953C107.435 159.183 107.183 159.403 107.113 159.645C107.097 159.693 107.07 159.801 107.108 159.843C107.167 159.919 107.387 159.999 107.693 160.01C109.581 158.523 112.887 155.873 113.456 153.131C113.574 152.546 113.579 151.977 113.466 151.441C113.413 151.188 113.289 150.952 113.16 150.705L113.144 150.695Z" fill="#EDEEF2"/>
<path d="M131.828 130.304C131.941 130.213 132.038 130.095 132.097 129.977C132.134 129.902 132.166 129.795 132.129 129.709C132.059 129.548 131.737 129.43 131.63 129.392C130.369 128.952 128.925 128.952 127.67 129.408C127.375 129.515 127.09 129.644 126.806 129.773C126.355 129.977 125.888 130.186 125.389 130.315C124.311 130.599 123.286 130.401 122.647 129.784C121.751 128.915 121.853 127.562 121.928 126.57C122.019 125.368 121.821 124.627 121.333 124.3C121.258 124.252 121.177 124.209 121.097 124.166C120.957 124.096 120.823 124.026 120.699 123.935C120.056 123.468 119.862 122.658 119.739 122.121L118.972 118.87C118.88 118.489 118.773 118.102 118.537 117.947C118.408 117.861 118.215 117.829 117.915 117.834C117.072 117.861 116.246 118.145 115.371 118.446C114.18 118.859 112.94 119.283 111.642 119.015C110.794 118.843 110.075 118.403 109.383 117.974C108.905 117.678 108.449 117.399 107.966 117.212C106.555 116.616 105.439 117.04 104.146 117.528C103.829 117.646 103.507 117.77 103.18 117.877C103.18 117.877 103.18 117.877 103.175 117.877C100.749 118.617 99.5312 121.182 98.458 123.447C97.9697 124.482 97.5029 125.459 96.9609 126.194C96.2741 127.122 95.4317 128.067 94.5892 128.936C95.2814 128.78 95.9575 128.705 96.5317 128.678C100.197 128.491 103.722 129.73 106.823 130.83C107.258 130.986 107.795 131.174 108.208 131.576C108.836 132.193 108.938 133.003 109.023 133.717C109.039 133.867 109.061 134.012 109.082 134.162C109.168 134.71 109.42 135.262 109.844 135.853C109.919 135.96 109.995 136.056 110.07 136.148C110.456 136.647 110.853 137.167 110.767 138.058C110.767 138.106 110.751 138.235 110.757 138.305C110.773 138.305 110.805 138.305 110.853 138.305C111.036 138.31 111.218 138.294 111.406 138.278C111.69 138.256 111.991 138.23 112.307 138.267C112.865 138.332 113.348 138.616 113.595 139.024C113.761 139.297 113.788 139.587 113.815 139.818C113.831 139.974 113.842 140.108 113.89 140.188C113.917 140.231 113.96 140.269 114.019 140.306C114.099 140.355 114.212 140.397 114.346 140.435L114.486 140.473C114.969 140.591 115.623 140.752 115.881 141.283C115.892 141.299 115.897 141.326 115.902 141.347C115.999 141.251 116.112 141.111 116.273 140.907C116.643 140.43 117.158 139.78 118.086 139.045C118.655 138.605 119.197 138.117 119.718 137.645C120.072 137.328 120.42 137.006 120.785 136.7C121.928 135.735 123.323 134.726 125.046 134.565C125.513 134.522 125.996 134.538 126.462 134.554C127.482 134.586 128.442 134.618 129.043 134.028C129.36 133.717 129.537 133.25 129.725 132.762C129.95 132.166 130.181 131.549 130.701 131.082C130.921 130.884 131.158 130.744 131.388 130.605C131.544 130.514 131.705 130.422 131.85 130.304H131.828Z" fill="#EDEEF2"/>
<path d="M114.078 141.385C113.847 141.326 113.654 141.245 113.488 141.149C113.279 141.025 113.118 140.864 113.01 140.671C112.86 140.408 112.833 140.129 112.812 139.909C112.796 139.754 112.785 139.614 112.731 139.534C112.645 139.389 112.415 139.271 112.168 139.244C111.948 139.217 111.712 139.238 111.465 139.26C111.245 139.276 111.025 139.297 110.805 139.287C110.596 139.281 110.284 139.244 110.043 139.018C109.694 138.686 109.737 138.214 109.764 137.961C109.812 137.457 109.608 137.189 109.265 136.743C109.184 136.641 109.104 136.534 109.023 136.421C108.503 135.702 108.202 135.016 108.09 134.307C108.063 134.152 108.047 133.991 108.025 133.83C107.95 133.223 107.881 132.649 107.5 132.274C107.242 132.021 106.856 131.887 106.475 131.753C103.454 130.685 100.036 129.462 96.5586 129.655C95.6732 129.703 94.5249 129.821 93.5161 130.315C93.1459 130.497 92.7917 130.734 92.459 130.991C92.4215 131.029 92.3732 131.072 92.3356 131.104C90.8386 132.504 89.9264 133.465 88.8693 135.058C88.5366 135.617 88.2683 136.18 88.0805 136.743C87.8015 137.57 87.6029 138.45 87.4044 139.297L87.2649 139.909C87.2327 140.059 87.1898 140.215 87.1468 140.381C86.959 141.09 86.7283 141.97 86.9644 142.522C87.1844 143.032 87.6942 143.306 88.279 143.236C88.3756 143.225 88.4829 143.193 88.5956 143.156C88.9981 143.043 89.6688 142.85 90.141 143.376C90.5703 143.858 90.7044 144.942 90.7366 145.264C90.7795 145.409 90.8547 145.57 90.8922 145.613C90.9566 145.661 91.2786 145.753 91.5039 145.763C92.0727 145.742 92.6254 145.86 93.1298 145.962L93.3927 146.016C94.1332 146.166 94.8469 146.359 95.6839 146.611L96.2151 146.767C97.4493 147.137 98.7264 147.523 100.009 147.663C100.25 147.69 100.293 147.679 100.465 147.421C100.991 146.643 101.715 146.026 102.552 145.64C104.248 144.851 106.314 144.953 108.133 145.044L108.787 145.077C110.188 145.136 111.631 145.114 112.699 144.551C113.66 143.971 114.475 142.758 114.915 141.814C114.947 141.744 114.953 141.701 114.953 141.696C114.883 141.589 114.4 141.471 114.218 141.428L114.062 141.39L114.078 141.385Z" fill="#EDEEF2"/>
</svg>
