<svg width="56" height="16" viewBox="0 0 56 16" fill="none" xmlns="http://www.w3.org/2000/svg">
<path d="M2.5 0.5H8H16H24H32H40H45.5C46.6046 0.5 47.5 1.39543 47.5 2.5V13.5C47.5 14.6046 46.6046 15.5 45.5 15.5H40H32H24H16H8H2.5C1.39543 15.5 0.5 14.6046 0.5 13.5V2.5C0.5 1.39543 1.39543 0.5 2.5 0.5Z" fill="#AC6DFF"/>
<path d="M32 0.5V15.5M24 0.5V15.5M40 0.5V15.5M16 0.5V15.5M8 0.5V15.5M2.5 15.5H45.5C46.6046 15.5 47.5 14.6046 47.5 13.5V2.5C47.5 1.39543 46.6046 0.5 45.5 0.5H2.5C1.39543 0.5 0.5 1.39543 0.5 2.5V13.5C0.5 14.6046 1.39543 15.5 2.5 15.5Z" stroke="#50198A" stroke-linecap="round" stroke-linejoin="round"/>
</svg>
