<svg width="56" height="16" viewBox="0 0 56 16" fill="none" xmlns="http://www.w3.org/2000/svg">
<path d="M4.5 0.5H10H18H26H34H42H47.5C48.6046 0.5 49.5 1.39543 49.5 2.5V13.5C49.5 14.6046 48.6046 15.5 47.5 15.5H42H34H26H18H10H4.5C3.39543 15.5 2.5 14.6046 2.5 13.5V2.5C2.5 1.39543 3.39543 0.5 4.5 0.5Z" fill="#FCD813"/>
<path d="M34 0.5V15.5M26 0.5V15.5M42 0.5V15.5M18 0.5V15.5M10 0.5V15.5M4.5 15.5H47.5C48.6046 15.5 49.5 14.6046 49.5 13.5V2.5C49.5 1.39543 48.6046 0.5 47.5 0.5H4.5C3.39543 0.5 2.5 1.39543 2.5 2.5V13.5C2.5 14.6046 3.39543 15.5 4.5 15.5Z" stroke="#CC9502" stroke-linecap="round" stroke-linejoin="round"/>
</svg>
