<svg width="56" height="16" viewBox="0 0 56 16" fill="none" xmlns="http://www.w3.org/2000/svg">
<path d="M6.5 0.5H12H20H28H36H44H49.5C50.6046 0.5 51.5 1.39543 51.5 2.5V13.5C51.5 14.6046 50.6046 15.5 49.5 15.5H44H36H28H20H12H6.5C5.39543 15.5 4.5 14.6046 4.5 13.5V2.5C4.5 1.39543 5.39543 0.5 6.5 0.5Z" fill="#EDEEF2"/>
<path d="M36 0.5V15.5M28 0.5V15.5M44 0.5V15.5M20 0.5V15.5M12 0.5V15.5M6.5 15.5H49.5C50.6046 15.5 51.5 14.6046 51.5 13.5V2.5C51.5 1.39543 50.6046 0.5 49.5 0.5H6.5C5.39543 0.5 4.5 1.39543 4.5 2.5V13.5C4.5 14.6046 5.39543 15.5 6.5 15.5Z" stroke="#B3B6C6" stroke-linecap="round" stroke-linejoin="round"/>
</svg>
