<svg width="56" height="16" viewBox="0 0 56 16" fill="none" xmlns="http://www.w3.org/2000/svg">
<path d="M10.5 0.5H16H24H32H40H48H53.5C54.6046 0.5 55.5 1.39543 55.5 2.5V13.5C55.5 14.6046 54.6046 15.5 53.5 15.5H48H40H32H24H16H10.5C9.39543 15.5 8.5 14.6046 8.5 13.5V2.5C8.5 1.39543 9.39543 0.5 10.5 0.5Z" fill="#FCD813"/>
<path d="M40 0.5V15.5M32 0.5V15.5M48 0.5V15.5M24 0.5V15.5M16 0.5V15.5M10.5 15.5H53.5C54.6046 15.5 55.5 14.6046 55.5 13.5V2.5C55.5 1.39543 54.6046 0.5 53.5 0.5H10.5C9.39543 0.5 8.5 1.39543 8.5 2.5V13.5C8.5 14.6046 9.39543 15.5 10.5 15.5Z" stroke="#CC9502" stroke-linecap="round" stroke-linejoin="round"/>
</svg>
