<svg width="12" height="35" viewBox="0 0 12 35" fill="none" xmlns="http://www.w3.org/2000/svg">
<path d="M1.42857 33C1.42857 34.125 2.30357 35 3.42857 35C4.55357 35 5.42857 34.125 5.42857 33L5.42857 20C5.42857 19.6786 5.67857 19.4286 6 19.4286C6.32143 19.4286 6.57143 19.6786 6.57143 20V33C6.57143 34.125 7.44643 35 8.57143 35C9.69643 35 10.5714 34.125 10.5714 33L10.5714 21.68C10.6624 21.7024 10.7581 21.7143 10.8571 21.7143C11.5 21.7143 12 21.2143 12 20.5714V17.5H0V20.5714C0 21.2143 0.5 21.7143 1.14286 21.7143C1.24192 21.7143 1.3376 21.7024 1.42857 21.68L1.42857 33Z" fill="#AC6DFF"/>
<path d="M2.28571 8C1 8 0 9 0 10.2857V17.5H12V10.2857C12 9 11 8 9.71428 8H2.28571Z" fill="#E6D4FF"/>
<path d="M6 0C4.07143 0 2.57143 1.5 2.57143 3.42857C2.57143 5.35714 4.07143 6.85714 6 6.85714C7.92857 6.85714 9.42857 5.35714 9.42857 3.42857C9.42857 1.5 7.92857 0 6 0Z" fill="#E6D4FF"/>
</svg>
