<svg width="12" height="35" viewBox="0 0 12 35" fill="none" xmlns="http://www.w3.org/2000/svg">
<path d="M6 0C4.07143 0 2.57143 1.5 2.57143 3.42857C2.57143 5.35714 4.07143 6.85714 6 6.85714C7.92857 6.85714 9.42857 5.35714 9.42857 3.42857C9.42857 1.5 7.92857 0 6 0Z" fill="#E6D4FF"/>
<path d="M2.28571 8C1 8 0 9 0 10.2857V20.5714C0 20.7239 0.0281308 20.8684 0.0796263 21H5.42857V20C5.42857 19.6786 5.67857 19.4286 6 19.4286C6.32143 19.4286 6.57143 19.6786 6.57143 20V21H11.9204C11.9719 20.8684 12 20.7239 12 20.5714V10.2857C12 9 11 8 9.71428 8H2.28571Z" fill="#E6D4FF"/>
<path d="M6.57143 33C6.57143 34.125 7.44643 35 8.57143 35C9.69643 35 10.5714 34.125 10.5714 33L10.5714 21.68C10.6624 21.7024 10.7581 21.7143 10.8571 21.7143C11.3475 21.7143 11.7548 21.4234 11.9204 21H6.57143L6.57143 33Z" fill="#AC6DFF"/>
<path d="M1.42857 33C1.42857 34.125 2.30357 35 3.42857 35C4.55357 35 5.42857 34.125 5.42857 33L5.42857 21H0.0796263C0.245233 21.4234 0.652483 21.7143 1.14286 21.7143C1.24192 21.7143 1.3376 21.7024 1.42857 21.68L1.42857 33Z" fill="#AC6DFF"/>
</svg>
