<svg width="18" height="50" viewBox="0 0 18 50" fill="none" xmlns="http://www.w3.org/2000/svg">
<path d="M9.22857 1C6.58367 1 4.52653 3.05714 4.52653 5.70204C4.52653 8.34694 6.58367 10.4041 9.22857 10.4041C11.8735 10.4041 13.9306 8.34694 13.9306 5.70204C13.9306 3.05714 11.8735 1 9.22857 1Z" stroke="#22194D" stroke-linecap="round" stroke-linejoin="round"/>
<path d="M4.13469 11.9714C2.37143 11.9714 1 13.3429 1 15.1061V29.2122C1 30.0939 1.68571 30.7796 2.56735 30.7796C2.70321 30.7796 2.83442 30.7633 2.95918 30.7325L2.95918 46.2571C2.95918 47.8 4.15918 49 5.70204 49C7.2449 49 8.4449 47.8 8.4449 46.2571L8.4449 28.4286C8.4449 27.9878 8.78776 27.6449 9.22857 27.6449C9.66939 27.6449 10.0122 27.9878 10.0122 28.4286L10.0122 46.2571C10.0122 47.8 11.2122 49 12.7551 49C14.298 49 15.498 47.8 15.498 46.2571L15.498 30.7325C15.6227 30.7633 15.7539 30.7796 15.8898 30.7796C16.7714 30.7796 17.4571 30.0939 17.4571 29.2122V15.1061C17.4571 13.3429 16.0857 11.9714 14.3224 11.9714H4.13469Z" stroke="#22194D" stroke-linecap="round" stroke-linejoin="round"/>
</svg>
