<svg width="14" height="37" viewBox="0 0 14 37" fill="none" xmlns="http://www.w3.org/2000/svg">
<path d="M7 1C5.07143 1 3.57143 2.5 3.57143 4.42857C3.57143 6.35714 5.07143 7.85714 7 7.85714C8.92857 7.85714 10.4286 6.35714 10.4286 4.42857C10.4286 2.5 8.92857 1 7 1Z" fill="#E6D4FF"/>
<path d="M3.28571 9C2 9 1 10 1 11.2857V21.5714C1 21.7239 1.02813 21.8684 1.07963 22H6.42857V21C6.42857 20.6786 6.67857 20.4286 7 20.4286C7.32143 20.4286 7.57143 20.6786 7.57143 21V22H12.9204C12.9719 21.8684 13 21.7239 13 21.5714V11.2857C13 10 12 9 10.7143 9H3.28571Z" fill="#E6D4FF"/>
<path d="M7.57143 34C7.57143 35.125 8.44643 36 9.57143 36C10.6964 36 11.5714 35.125 11.5714 34L11.5714 22.68C11.6624 22.7024 11.7581 22.7143 11.8571 22.7143C12.3475 22.7143 12.7548 22.4234 12.9204 22H7.57143L7.57143 34Z" fill="#AC6DFF"/>
<path d="M2.42857 34C2.42857 35.125 3.30357 36 4.42857 36C5.55357 36 6.42857 35.125 6.42857 34L6.42857 22H1.07963C1.24523 22.4234 1.65248 22.7143 2.14286 22.7143C2.24192 22.7143 2.3376 22.7024 2.42857 22.68L2.42857 34Z" fill="#AC6DFF"/>
<path d="M1.07963 22C1.02813 21.8684 1 21.7239 1 21.5714V11.2857C1 10 2 9 3.28571 9H10.7143C12 9 13 10 13 11.2857V21.5714C13 21.7239 12.9719 21.8684 12.9204 22M1.07963 22C1.24523 22.4234 1.65248 22.7143 2.14286 22.7143C2.24192 22.7143 2.3376 22.7024 2.42857 22.68L2.42857 34C2.42857 35.125 3.30357 36 4.42857 36C5.55357 36 6.42857 35.125 6.42857 34L6.42857 22M1.07963 22H6.42857M6.42857 22V21C6.42857 20.6786 6.67857 20.4286 7 20.4286C7.32143 20.4286 7.57143 20.6786 7.57143 21V22M7.57143 22L7.57143 34C7.57143 35.125 8.44643 36 9.57143 36C10.6964 36 11.5714 35.125 11.5714 34L11.5714 22.68C11.6624 22.7024 11.7581 22.7143 11.8571 22.7143C12.3475 22.7143 12.7548 22.4234 12.9204 22M7.57143 22H12.9204M7 1C5.07143 1 3.57143 2.5 3.57143 4.42857C3.57143 6.35714 5.07143 7.85714 7 7.85714C8.92857 7.85714 10.4286 6.35714 10.4286 4.42857C10.4286 2.5 8.92857 1 7 1Z" stroke="#721ED2" stroke-linecap="round" stroke-linejoin="round"/>
</svg>
